<?xml version="1.0" encoding="UTF-8"?>
<svg id="_レイヤー_2" data-name="レイヤー 2" xmlns="http://www.w3.org/2000/svg" viewBox="0 0 240.4076423 98.0510948">
  <defs>
    <style>
      .cls-1 {
        stroke-width: 0px;
      }
    </style>
  </defs>
  <g id="_レイヤー_1-2" data-name="レイヤー 1">
    <g>
      <path class="cls-1" d="m45.6874275,38.8798828l.2668457.732666c-2.6218262.9541016-5.7814941,11.0429688-7.1745605,23.2661133-.2763672,2.3989258-.4855957,4.8056641-.6181641,7.248291,2.5344238-1.3691406,4.1972656-3.0280762,5.0141602-5.0812988l.7382812.2741699c-.9707031,2.3322754-2.8642578,4.2346191-5.7854004,5.6811523-.3259277,7.5251465.2041016,14.7702637,2.0202637,19.7595215,2.052002,5.6381836,5.4179688,7.6054688,10.0126953,5.9331055l.2668457.7329102c-5.0178223,1.826416-8.8166504-.3664551-11.0124512-6.3991699-1.815918-4.989502-2.3642578-12.1960449-2.0742188-19.6442871-.5251465.2231445-1.0507812.4462891-1.6142578.6513672-2.1706543.7900391-4.3566895,1.3623047-6.4890137,1.8190918-2.4682617,8.3049316-8.0837402,16.7333984-16.6813965,19.8625488-5.8354492,2.1240234-10.6645508.7849121-12.1523438-3.3024902-1.5800781-4.3410645,1.4091797-10.9519043,9.9787598-14.0710449,2.734375-.9951172,6.1865234-1.4216309,9.9694824-1.9047852,2.6293945-.3183594,5.4382324-.6704102,8.3164062-1.2709961,1.5488281-5.4797363,1.6677246-10.8544922.3339844-14.5192871-.4926758-1.3530273-1.1669922-2.4165039-2.0129395-3.1618652l.5251465-.5744629c.9433594.8378906,1.6870117,2.0036621,2.2207031,3.4694824,1.3442383,3.6931152,1.2353516,9.0959473-.2646484,14.6220703,1.980957-.4338379,3.9875488-.9726562,5.9892578-1.7011719.6762695-.2460938,1.3144531-.510498,1.9140625-.7922363.109375-2.59375.3137207-5.1901855.6049805-7.7226562,1.4931641-12.7382812,4.6630859-22.798584,7.7075195-23.9067383Zm-17.2509766,35.1379395c-2.7756348.53125-5.4897461.8808594-7.9960938,1.1865234-3.782959.4829102-7.1401367.9067383-9.7900391,1.8710938-8.2597656,3.0063477-10.9797363,9.0405273-9.5124512,13.0715332,1.3337402,3.6645508,5.7116699,4.8166504,11.1523438,2.8361816,8.2595215-3.0061035,13.6777344-11.0117188,16.1462402-18.965332Z"/>
      <path class="cls-1" d="m69.2914314,64.9580078c-2.3901367,2.4660645-6.6157227,5.5046387-10.0549316,6.7563477-3.4953613,1.2722168-5.5690918,1.1010742-6.1948242-.6184082-.1540527-.4228516-.1950684-.8867188-.123291-1.3918457-.5356445.5461426-1.2016602,1.171875-2.0063477,1.9436035l-.5283203-.5739746c2.0268555-1.887207,3.0595703-2.9973145,3.3950195-3.5661621l.0178223-.0385742.6845703.3896484c-.7966309,1.4069824-.9836426,2.2092285-.706543,2.970459.4309082,1.184082,2.0942383,1.2810059,5.1950684.1523438,3.326416-1.2106934,7.4033203-4.1311035,9.7373047-6.5769043l.5844727.5534668Zm-13.324707.6677246l-.6201172-.4765625,1.1169434-1.4919434.6203613.4763184-1.1171875,1.4921875Z"/>
      <path class="cls-1" d="m87.2770271,58.4118652c-2.7492676,2.5327148-7.8586426,5.8608398-9.7653809,6.5869141-.6201172.2258301-1.1481934.3540039-1.6223145.3671875-.5842285.4997559-1.2890625.7563477-2.137207.6184082-4.2316895-.6628418,1.2331543-15.9960938,5.7600098-22.592041l.6381836.4382324c-5.2109375,7.6108398-9.0693359,20.954834-6.2575684,21.3999023.2768555.059082.5510254.0229492.7766113-.059082-2.409668-1.0065918-1.3728027-5.7893066.4311523-6.4460449,2.9599609-1.0771484,3.1918945,3.2438965,1.5983887,5.7072754.1794434-.0334473.3483887-.0949707.5458984-.1669922,1.8220215-.6948242,6.8112793-3.9152832,9.5041504-6.4277344l.5280762.5739746Zm-11.6186523,6.144043c1.642334-1.7150879,1.822998-5.8671875-.2910156-5.0976562-1.4377441.5234375-2.2487793,4.8730469.2910156,5.0976562Z"/>
      <path class="cls-1" d="m106.1644782,51.5373535c-2.7211914,2.5227051-6.5876465,5.8452148-8.5046387,6.5429688-1.2402344.451416-2.1784668.154541-2.5373535-.8322754-.1950684-.5354004-.2338867-1.2558594-.1953125-1.9399414-.8737793,1.7226562-2.1547852,3.8168945-3.2822266,4.2272949-.5639648.2050781-1.1276855-.291748-1.3842773-.996582-.6157227-1.6911621.5546875-4.3520508,2.2463379-4.9677734.8173828-.2973633,1.6760254-.1311035,2.2043457.4428711l.5737305-1.2304688.4614258.215332.2768555.0585938c-.1357422.5922852-.5581055,2.8530273-.1679688,3.9240723.2050781.5639648.6640625.684082,1.5375977.3659668,1.409668-.5129395,4.4484863-2.8642578,8.2431641-6.3840332l.5283203.5739746Zm-14.7861328,7.2651367c.9301758-.338623,2.1083984-2.3637695,2.9462891-4.0095215-.2797852-.5048828-.9306641-.7145996-1.5507812-.4890137-1.2685547.4619141-2.2416992,2.699707-1.7802734,3.9680176.1130371.3103027.328125.5510254.3847656.5305176Z"/>
      <path class="cls-1" d="m128.0682868,43.5649414c-3.8305664,3.947998-9.8605957,5.1850586-10.9379883,2.2250977-.1538086-.4228516-.2026367-.8200684-.1743164-1.1813965-1.0354004,1.0151367-1.7678223,3.0375977-2.2568359,4.5883789-.1586914.7919922-.3583984,1.4714355-.4814453,1.8352051l-.048584.3049316-.0280762.0102539-.7636719-.1687012c.0175781-.0385742.0585938-.2768555.1635742-.6022949.0766602-.3156738.161377-.6972656.2919922-1.1279297.3864746-1.4816895.8063965-3.4858398.5395508-4.2189941l-.0102539-.0280762c-.2436523.1206055-.7148438.5795898-1.9189453,2.0073242-.753418.9125977-1.6914062,2.0200195-2.7543945,3.0458984l-.5283203-.5739746c1.017334-.9772949,1.9267578-2.0742188,2.6801758-2.9868164,1.3422852-1.5742188,1.831543-2.0712891,2.2827148-2.2355957.4511719-.1640625.8178711.0537109.9819336.5046387.0820312.2255859.1181641.4997559.1181641.8508301.6225586-1.1843262,1.4013672-2.2019043,2.331543-2.5405273.9584961-.348877,1.7607422-.1618652,2.0581055.6555176l-.7329102.2668457c-.112793-.3100586-.3999023-.3969727-.8613281-.2612305-.3303223.4074707-.3916016.940918-.1557617,1.5888672.8310547,2.2836914,6.2797852.9389648,9.6206055-2.5117188l.5844727.5534668Z"/>
      <path class="cls-1" d="m149.9437751,35.6027832c-2.3903809,2.4663086-6.6157227,5.5046387-10.0549316,6.7563477-3.4953613,1.2722168-5.5688477,1.1010742-6.1945801-.6184082-.1540527-.4228516-.1953125-.8867188-.1235352-1.3916016-.5356445.5458984-1.2016602,1.1716309-2.0063477,1.9433594l-.5283203-.5739746c2.0268555-1.887207,3.0595703-2.9970703,3.3950195-3.5661621l.0180664-.0385742.6845703.3896484c-.796875,1.4069824-.9838867,2.2092285-.706543,2.970459.4306641,1.184082,2.0942383,1.2810059,5.1948242.1523438,3.3266602-1.2106934,7.4033203-4.1311035,9.7373047-6.5766602l.5844727.5532227Zm-13.3244629.6677246l-.6203613-.4763184,1.1171875-1.4921875.6201172.4765625-1.1169434,1.4919434Z"/>
      <path class="cls-1" d="m155.6383552,40.1064453c-2.2888184,8.6225586-5.0439453,17.5424805-8.5605469,17.0029297-2.6296387-.3837891-3.7744141-6.1606445,3.973877-13.6413574l3.8637695-3.7687988c.2509766-.8894043.4838867-1.7404785.706543-2.6196289.2150879-.8122559.4121094-1.5864258.6374512-2.3708496-.6096191.9560547-1.270752,1.7712402-2.0036621,2.0380859-.5639648.2050781-1.1276855-.291748-1.3842773-.996582-.6157227-1.6911621.5549316-4.3520508,2.2460938-4.9677734.6767578-.2460938,1.3740234-.0849609,2.0610352.3994141l.1689453-.4128418.0180664-.0383301.3457031.1611328.3642578.1230469c-.5273438,1.8840332-1.1137695,4.0446777-1.7075195,6.2719727-.1206055.4589844-.2407227.9177246-.371582,1.3481445,3.6616211-3.5351562,7.3666992-7.2141113,9.713623-9.5366211l.5280762.5737305c-2.5314941,2.5175781-6.6899414,6.6171875-10.5998535,10.4343262Zm-1.1096191,1.0742188c-1.0068359,1.0048828-2.0341797,1.9536133-2.9492188,2.861084-7.4150391,7.168457-6.4855957,12.0019531-4.3891602,12.3239746,2.7631836.3989258,5.1572266-7.1445312,7.3383789-15.1850586Zm-.5395508-5.166748c1.0712891-.3898926,2.159668-2.5737305,2.8486328-4.1015625-.5151367-.4509277-.9741211-.5712891-1.453125-.3969727-1.2685547.4619141-2.2416992,2.699707-1.7802734,3.9680176.1130371.3103027.3283691.5510254.3847656.5305176Z"/>
      <path class="cls-1" d="m185.1254157,22.7976074c-2.7209473,2.5229492-6.5874023,5.8452148-8.5043945,6.5429688-1.2402344.4516602-2.1784668.1547852-2.5375977-.8320312-.1948242-.5354004-.2333984-1.2558594-.1953125-1.9399414-.8735352,1.7226562-2.1542969,3.8168945-3.2822266,4.2270508-.5634766.2053223-1.1274414-.2915039-1.3840332-.996582-.6154785-1.690918.5549316-4.3520508,2.2463379-4.9675293.8173828-.2976074,1.6762695-.1311035,2.2041016.442627l.5737305-1.2302246.4616699.2150879.2766113.0588379c-.1357422.592041-.5578613,2.8527832-.1679688,3.9240723.2050781.5639648.6640625.684082,1.5380859.3659668,1.4091797-.5129395,4.4482422-2.8642578,8.2429199-6.3840332l.5280762.5737305Zm-14.7861328,7.2651367c.9301758-.3383789,2.1088867-2.3635254,2.9462891-4.0092773-.279541-.5048828-.9306641-.7148438-1.5507812-.4890137-1.2685547.4616699-2.2416992,2.699707-1.7800293,3.9680176.1130371.3103027.3283691.5507812.3845215.5302734Z"/>
      <path class="cls-1" d="m196.205738,21.2229004c-1.776123.6464844-3.2419434.8291016-4.3210449.5830078-.1921387.2614746-.3842773.5231934-.6044922.7946777-1.9394531,2.3022461-3.7416992,1.6491699-3.2758789-1.1062012.1635742-.9533691.4990234-1.8735352.8835449-2.3964844l.6203613.4765625c-.2919922.4255371-.6020508,1.2407227-.7504883,2.060791-.3171387,1.9350586.5415039,2.1013184,1.9482422.4401855.15625-.1845703.3125-.3691406.4584961-.5820312-.4819336-.2714844-.8356934-.7175293-1.0410156-1.2810059-.6052246-1.6633301-.121582-3.4038086,1.1188965-3.8552246.845459-.3076172,1.6633301.097168,1.9814453.9709473.2976074.8173828-.1069336,2.3376465-.8933105,3.7729492.8481445.1379395,2.0581055-.0466309,3.6083984-.6108398,2.6782227-.9748535,5.130127-3.2719727,6.869873-4.8947754l.5280762.5737305c-1.7397461,1.6228027-4.2839355,4.017334-7.1311035,5.0537109Zm-4.6416016-.3857422c.7529297-1.2636719,1.1525879-2.6220703.9267578-3.2421875-.1745605-.4794922-.5305176-.6689453-.9816895-.5048828-.7893066.2873535-1.1245117,1.5588379-.652832,2.8557129.1437988.3945312.3796387.6916504.7077637.8913574Z"/>
      <path class="cls-1" d="m221.5375251,9.5126953s-4.7602539,5.3400879-7.9741211,6.5100098c-2.1704102.7897949-3.5444336.1723633-5.4262695-2.3666992l-.6230469-.9228516c-.0283203.0102539-.0563965.0205078-.0844727.0307617l-1.0932617,4.8037109-.7636719-.1691895,3.9467773-17.3984375.7641602.1691895-2.6340332,11.6210938c.8405762-.4975586,2.439209-1.7177734,4.673584-4.7019043l.6201172.4763184c-2.1235352,2.8483887-3.7763672,4.184082-4.7373047,4.7893066l.5537109.8200684c1.6948242,2.2880859,2.7329102,2.7719727,4.5371094,2.1152344,3.0166016-1.0976562,7.6767578-6.2734375,7.6767578-6.2734375l.5639648.4968262Z"/>
      <path class="cls-1" d="m240.4076423,2.6767578c-2.7211914,2.5227051-6.5878906,5.8452148-8.5046387,6.5427246-1.2404785.4516602-2.1784668.1547852-2.5375977-.8320312-.1950684-.5354004-.2336426-1.2558594-.1953125-1.9399414-.8735352,1.7226562-2.154541,3.8168945-3.2819824,4.2272949-.5639648.2050781-1.1279297-.291748-1.3842773-.996582-.6157227-1.6911621.5546875-4.3520508,2.2460938-4.9677734.8173828-.2973633,1.6762695-.1311035,2.2043457.4428711l.5739746-1.2304688.4611816.215332.2768555.0588379c-.1357422.592041-.5578613,2.8527832-.1679688,3.9238281.2053223.5639648.6640625.684082,1.5378418.3662109,1.409668-.5131836,4.4482422-2.864502,8.2431641-6.3842773l.5283203.5739746Zm-14.786377,7.2651367c.9304199-.338623,2.1086426-2.3635254,2.9465332-4.0095215-.2797852-.5048828-.9306641-.7145996-1.5507812-.4890137-1.2685547.4616699-2.2419434,2.699707-1.7802734,3.9680176.112793.3103027.328125.5510254.3845215.5305176Z"/>
    </g>
  </g>
</svg>