<?xml version="1.0" encoding="UTF-8"?>
<svg id="_レイヤー_2" data-name="レイヤー 2" xmlns="http://www.w3.org/2000/svg" viewBox="0 0 259.0735092 103.0267104">
  <defs>
    <style>
      .cls-1 {
        stroke-width: 0px;
      }
    </style>
  </defs>
  <g id="_レイヤー_1-2" data-name="レイヤー 1">
    <g>
      <path class="cls-1" d="m23.2492904,67.9343262c3.7246094,10.2329102-.9389648,30.9250488-11.1435547,34.6391602-4.3974609,1.6005859-8.3813477-1.0993652-10.5769043-7.1320801-2.9753418-8.1748047-1.8747559-21.026123,5.6743164-26.4233398,1.1855469-3.1450195,3.076416-5.4934082,5.5571289-6.3962402,4.8486328-1.7646484,8.6115723.1538086,10.4890137,5.3125Zm-.7329102.2668457c-1.7338867-4.7641602-5.0354004-6.4672852-9.4892578-4.8461914-2.0014648.7285156-3.5849609,2.5178223-4.7143555,4.9399414.6352539-.3588867,1.3195801-.6716309,2.0244141-.9282227,1.0146484-.3691406,2.0629883-.5593262,3.105957-.5876465l.020752.7585449c-.9763184.0361328-1.9296875.2236328-2.8601074.5620117-1.0146484.3696289-1.9321289.8308105-2.7700195,1.4233398-1.692627,4.734375-1.7319336,11.2929688.4125977,17.1845703,1.4262695,3.918457,3.6464844,7.0366211,6.4946289,9.1606445l-.4765625.6203613c-2.9453125-2.2160645-5.2839355-5.4831543-6.7509766-9.5141602-2.0522461-5.6379395-2.1743164-11.8505859-.7583008-16.644043-6.4545898,5.5100098-7.2841797,17.1767578-4.4934082,24.8442383,2.052002,5.6379395,5.6306152,8.1025391,9.5773926,6.6660156,9.7817383-3.5603027,14.3198242-23.6320801,10.6772461-33.6394043Z"/>
      <path class="cls-1" d="m51.9021225,75.9580078c-2.390625,2.4660645-6.6162109,5.5046387-10.0551758,6.7563477-3.4956055,1.2722168-5.5688477,1.1008301-6.1948242-.6186523-.1538086-.4228516-.1953125-.8867188-.1235352-1.3916016-.5356445.5461426-1.2016602,1.171875-2.0063477,1.9433594l-.5280762-.5737305c2.0268555-1.8874512,3.0593262-2.9973145,3.3950195-3.5661621l.0178223-.0385742.6845703.3894043c-.796875,1.4072266-.9836426,2.2094727-.706543,2.9707031.4309082,1.184082,2.0942383,1.2807617,5.1953125.1523438,3.3261719-1.2106934,7.4030762-4.1313477,9.7373047-6.5769043l.5844727.5534668Zm-13.324707.6674805l-.6206055-.4763184,1.1171875-1.4919434.6201172.4763184-1.1166992,1.4919434Z"/>
      <path class="cls-1" d="m59.656517,79.8076172c-1.4921875,6.5126953-6.5610352,17.5834961-10.2236328,17.2568359-3.1884766-.3398438-2.6137695-7.09375.9909668-11.3105469,2.0319824-2.3999023,4.2150879-3.769043,6.8852539-5.3791504.5510254-.3286133,1.119873-.6950684,1.744873-1.0822754.3100586-1.5175781.3916016-2.6962891.1760254-3.2883301l-.0102539-.0283203c-.1130371.0410156-.1975098.0717773-.3103027.112793-.9018555.3283691-1.1481934-.6989746-.3305664-.996582.2817383-.1025391.5661621-.1105957.7866211-.0310059.543457-.2617188,1.0556641-.6079102,1.5756836-1.020752,3.2802734-2.5661621,5.1777344-7.4389648,2.527832-6.4746094-2.4523926.8925781-4.4404297,3.1486816-6.2084961,5.1330566-.6635742.7199707-1.2705078,1.4199219-1.8625488,1.9868164l-.5280762-.5739746c.5634766-.5566406,1.152832-1.2177734,1.7883301-1.9279785,1.7961426-1.9946289,3.8945312-4.3862305,6.5441895-5.3508301,3.8056641-1.3850098,2.4848633,4.4584961-1.7890625,7.8022461-.4638672.3920898-.9765625.7382812-1.4914551.989502l.0407715.112793c.2158203.592041.159668,1.6660156-.078125,3.029541,3.3464355-2.2077637,7.494873-5.2817383,12.9138184-11.1806641l.5844727.5532227c-5.8723145,6.3195801-10.2285156,9.4372559-13.7263184,11.6682129Zm-.8583984.5358887l-1.0915527.6845703c-2.6599121,1.6384277-4.7509766,2.9104004-6.7185059,5.2229004-3.7866211,4.5065918-3.4804688,9.8220215-1.4631348,10.013916,3.1115723.3037109,7.706543-9.7006836,9.2731934-15.9213867Z"/>
      <path class="cls-1" d="m90.9455795,61.7470703c-2.7211914,2.5227051-6.5876465,5.8452148-8.5043945,6.5429688-1.2404785.451416-2.1787109.1547852-2.5375977-.8320312-.0822754-.2255859-.1079102-.4714355-.0874023-.7663574-.8095703,1.2844238-1.7548828,2.4584961-2.8261719,2.8483887-1.409668.5129395-1.199707-1.1914062-.5522461-3.885498.2075195-.7456055.3789062-1.4147949.4042969-1.8708496l.7998047.092041c-.0715332.5048828-.2609863,1.2121582-.4399414,1.947998-.5378418,2.2070312-.6196289,3.034668-.4785156,2.9833984,2.0014648-.7285156,3.7426758-5.0656738,4.2089844-6.4162598l.0180664-.0383301.0175781-.0385742.440918.1586914.3154297.0769043-.2817383.8049316c-.7402344,2.0888672-1.0114746,3.2729492-.8061523,3.8366699.2050781.5639648.6640625.6843262,1.5380859.3662109,1.4091797-.5129395,4.4482422-2.8642578,8.2429199-6.3840332l.5280762.5737305Z"/>
      <path class="cls-1" d="m121.278099,50.7070312c-3.4897461,3.5683594-7.1208496,5.7839355-9.1787109,6.532959-1.7475586.6362305-2.1962891-.1582031-1.5766602-2.4907227.2070312-.7458496.28125-1.1557617.2839355-1.4123535-.5612793.300293-1.373291,1.1386719-2.1599121,2.2226562l-2.1367188,3.076416-.3100586-.2385254-.3461914-.1611328c.6276855-1.3457031.793457-3.6088867.3989258-3.465332-.5356445.1948242-1.5654297,1.3999023-4.9858398,5.7734375l-.3100586-.2385254-.3283691-.199707.0180664-.0383301c.161377-.3459473.4660645-1.7019043.5964355-2.8347168.1430664-1.0100098.1557617-1.9404297.0327148-2.2785645,0,0-.0668945-.0078125-.2641602.0639648-1.3813477.5029297-4.5151367,3.5588379-6.5415039,5.4458008l-.5283203-.5737305c2.0268555-1.8874512,5.2526855-5.0405273,6.8032227-5.6049805.5917969-.215332,1.0786133-.1054688,1.2636719.4023438.1845703.5073242.1923828,1.4941406.0339355,2.6369629-.0461426.4001465-.1203613.8098145-.1945801,1.2202148,2.595459-3.3071289,3.4897461-4.2709961,4.1381836-4.5070801,1.0146484-.3693848,1.3969727.7685547,1.2280273,2.2346191l.8122559-1.1894531c.9787598-1.3459473,1.9958496-2.3225098,2.7287598-2.5893555.3100586-.1130371.645752.0202637.7485352.3024902.1948242.5351562-.027832,1.4145508-.2353516,2.1604004-.4736328,1.7683105-.4223633,1.9094238.5644531,1.550293,2.0014648-.7285156,5.4838867-2.8259277,8.8891602-6.3637695l.5561523.5637207Z"/>
      <path class="cls-1" d="m143.1543197,42.7446289c-2.3903809,2.4663086-6.6159668,5.5046387-10.0549316,6.7563477-3.4956055,1.2724609-5.5690918,1.1010742-6.1948242-.6184082-.1540527-.4228516-.1953125-.8867188-.1235352-1.3916016-.5356445.5461426-1.2016602,1.1716309-2.0063477,1.9433594l-.5280762-.5739746c2.0266113-1.887207,3.0593262-2.9970703,3.3947754-3.565918l.0180664-.0385742.6845703.3894043c-.796875,1.4069824-.9838867,2.2092285-.706543,2.970459.4306641,1.184082,2.0942383,1.2810059,5.1950684.1523438,3.326416-1.2106934,7.4030762-4.1311035,9.7373047-6.5766602l.5844727.5532227Zm-13.324707.6677246l-.6203613-.4763184,1.1171875-1.4921875.6201172.4765625-1.1169434,1.4919434Z"/>
      <path class="cls-1" d="m148.8488998,47.248291c-2.2890625,8.6228027-5.0439453,17.5424805-8.5605469,17.0029297-2.6298828-.3837891-3.7744141-6.1606445,3.9736328-13.6413574l3.8637695-3.7685547c.2509766-.8896484.4838867-1.7407227.7067871-2.619873.2150879-.8122559.4121094-1.5864258.6374512-2.3708496-.6098633.9562988-1.2709961,1.7712402-2.0039062,2.0380859-.5637207.2050781-1.1274414-.291748-1.3842773-.996582-.6154785-1.6911621.5549316-4.3520508,2.246582-4.9677734.6762695-.2460938,1.3735352-.0849609,2.0605469.3994141l.1689453-.4128418.0180664-.0383301.3461914.1611328.3637695.1230469c-.5273438,1.8840332-1.1137695,4.0449219-1.7075195,6.2719727-.1206055.4589844-.2407227.9177246-.3713379,1.3481445,3.661377-3.5351562,7.3664551-7.2141113,9.7133789-9.5366211l.5280762.5737305c-2.53125,2.5175781-6.6899414,6.6171875-10.5996094,10.4343262Zm-1.1096191,1.0742188c-1.0070801,1.0048828-2.0344238,1.9538574-2.9492188,2.861084-7.4147949,7.1682129-6.4855957,12.0019531-4.3894043,12.3242188,2.7631836.3989258,5.1572266-7.1447754,7.338623-15.1853027Zm-.5397949-5.166748c1.0712891-.3898926,2.1599121-2.5737305,2.8486328-4.1015625-.5151367-.4509277-.973877-.5712891-1.453125-.3969727-1.2685547.4619141-2.2416992,2.699707-1.7800293,3.9680176.1130371.3103027.328125.5510254.3845215.5305176Z"/>
      <path class="cls-1" d="m178.3359604,29.9394531c-2.7211914,2.5229492-6.5876465,5.8452148-8.5046387,6.5429688-1.2402344.4516602-2.1782227.1547852-2.5375977-.8320312-.1948242-.5354004-.2333984-1.2558594-.1953125-1.9399414-.8735352,1.7226562-2.1542969,3.8168945-3.2819824,4.2272949-.5637207.2050781-1.1276855-.291748-1.3842773-.9968262-.6154785-1.690918.5549316-4.3518066,2.2463379-4.9675293.8173828-.2976074,1.6762695-.1311035,2.2043457.442627l.5737305-1.2302246.4611816.2150879.2768555.0588379c-.1357422.592041-.5576172,2.8527832-.1679688,3.9240723.2053223.5639648.6640625.684082,1.5380859.3659668,1.409668-.5129395,4.4482422-2.8642578,8.2431641-6.3840332l.5280762.5737305Zm-14.786377,7.2653809c.9304199-.338623,2.1088867-2.3637695,2.9465332-4.0095215-.279541-.5048828-.9306641-.7145996-1.5507812-.4890137-1.2685547.4616699-2.2419434,2.699707-1.7800293,3.9680176.112793.3103027.328125.5510254.3842773.5305176Z"/>
      <path class="cls-1" d="m196.5368881,23.282959s-4.7602539,5.3400879-7.9741211,6.5097656c-2.1704102.7900391-3.5444336.1726074-5.4262695-2.3664551l-.6230469-.9228516c-.0283203.0102539-.0566406.0205078-.0847168.0307617l-1.0930176,4.8037109-.7636719-.1691895,3.9467773-17.3984375.7641602.1689453-2.6340332,11.6213379c.8405762-.4975586,2.4394531-1.7180176,4.673584-4.7021484l.6201172.4765625c-2.1235352,2.8483887-3.7763672,4.1838379-4.7373047,4.7890625l.5537109.8200684c1.6948242,2.2883301,2.7329102,2.7722168,4.5371094,2.1154785,3.0161133-1.0976562,7.6767578-6.2736816,7.6767578-6.2736816l.5639648.4970703Z"/>
      <path class="cls-1" d="m214.1101303,16.9189453c-2.7211914,2.5224609-6.5876465,5.8452148-8.5046387,6.5429688-1.2402344.4511719-2.1784668.154541-2.5375977-.8322754-.0822754-.2255859-.107666-.4714355-.0876465-.7663574-.8093262,1.2844238-1.7546387,2.4584961-2.8256836,2.8483887-1.409668.5129395-1.1999512-1.1911621-.5522461-3.885498.2072754-.7456055.3789062-1.4145508.4042969-1.8706055l.7998047.0917969c-.0715332.5048828-.2612305,1.2124023-.4404297,1.9482422-.5375977,2.2067871-.6191406,3.0344238-.4782715,2.9831543,2.0012207-.7285156,3.7429199-5.0654297,4.2092285-6.4162598l.0178223-.0383301.0178223-.0385742.440918.1589355.3154297.0766602-.2819824.8049316c-.7399902,2.0888672-1.0112305,3.2731934-.8059082,3.8366699.2050781.5639648.6638184.6843262,1.5375977.3662109,1.409668-.5129395,4.4487305-2.8642578,8.2431641-6.3840332l.5283203.5739746Z"/>
      <path class="cls-1" d="m231.87014,10.4545898c-2.7390137,2.9121094-7.2126465,6.9348145-10.7006836,7.4382324-2.2399902.3364258-3.6960449-.8574219-4.1447754-2.3540039l-.020752-.0563965c-.402832-1.5454102.2961426-3.3959961,2.467041-4.1860352.845459-.3078613,1.6992188.0200195,1.9760742.7810059.7490234,2.0578613-1.3928223,4.2424316-2.984375,4.3427734.5844727.5534668,1.4660645.8708496,2.5810547.6884766,3.2416992-.4777832,7.53125-4.3054199,10.2700195-7.2175293l.5563965.5634766Zm-14.112793,4.8173828c.5566406,1.2658691,3.6853027-.9262695,2.9567871-2.9277344-.1230469-.3381348-.5253906-.479248-.9765625-.3149414-1.7194824.6257324-2.2880859,2.0458984-1.9802246,3.2426758Z"/>
      <path class="cls-1" d="m259.0735092.5534668c-2.4111328,2.4099121-5.5449219,5.1147461-8.9838867,6.3664551-2.4807129.902832-4.0415039.7368164-4.5441895-.6445312-.2668457-.7329102-.03125-1.840332.1630859-2.7089844.1435547-.6589355.1740723-.9255371.1716309-1.0202637-.2333984.1486816-.6381836.6152344-1.3452148,1.479248-1.7729492,2.145752-3.4223633,5.6831055-3.4223633,5.6831055l-.6921387-.3227539.0356445-.0771484c.717041-1.5375977,1.2980957-5.2927246.9416504-5.4824219-.3461914-.1611328-1.0429688.3796387-6.0317383,5.355957l-.5280762-.5737305c5.1269531-5.1225586,5.9777832-5.9428711,6.8825684-5.4741211.5869141.296875.5771484,1.673584.3417969,3.1318359.5534668-.9355469,1.2089844-1.9404297,1.8701172-2.7556152.5151367-.6025391,1.3041992-1.592041,1.8115234-1.7768555,1.0146484-.3693848,1.0585938.5405273.7285156,2.0014648-.1945801.8688965-.3789062,1.7661133-.1940918,2.2734375.3078613.8457031,1.4587402.9377441,3.5446777.1784668,3.3261719-1.2106934,6.3115234-3.7976074,8.6660156-6.1870117l.5844727.5534668Z"/>
    </g>
  </g>
</svg>