<?xml version="1.0" encoding="UTF-8"?>
<svg id="_レイヤー_2" data-name="レイヤー 2" xmlns="http://www.w3.org/2000/svg" viewBox="0 0 105.5726814 59.171212">
  <defs>
    <style>
      .cls-1 {
        stroke-width: 0px;
      }
    </style>
  </defs>
  <g id="_レイヤー_1-2" data-name="レイヤー 1">
    <g>
      <path class="cls-1" d="m45.6874275,0l.2668457.732666c-2.6218262.9541016-5.7814941,11.0429688-7.1745605,23.2661133-.2763672,2.3991699-.4855957,4.8056641-.6181641,7.248291,2.5344238-1.3691406,4.1972656-3.0280762,5.0141602-5.0810547l.7382812.2739258c-.9707031,2.3325195-2.8642578,4.2348633-5.7854004,5.6813965-.3259277,7.5249023.2041016,14.7700195,2.0202637,19.7595215,2.052002,5.6379395,5.4179688,7.6052246,10.0126953,5.9328613l.2668457.7329102c-5.0178223,1.826416-8.8166504-.3664551-11.0124512-6.3991699-1.8161621-4.989502-2.3642578-12.1960449-2.0742188-19.6442871-.5253906.2231445-1.0507812.4462891-1.6142578.6516113-2.1706543.7900391-4.3566895,1.3620605-6.4890137,1.8190918-2.4682617,8.3046875-8.0837402,16.7331543-16.6813965,19.8625488-5.8354492,2.1237793-10.6645508.7849121-12.1523438-3.3024902-1.5800781-4.3410645,1.4091797-10.9521484,9.9787598-14.0712891,2.734375-.9951172,6.1865234-1.4216309,9.9694824-1.904541,2.6293945-.3183594,5.4382324-.6706543,8.3164062-1.2709961,1.5488281-5.4799805,1.6677246-10.8547363.3339844-14.5195312-.4926758-1.3530273-1.1669922-2.4162598-2.0129395-3.1618652l.5251465-.5742188c.9433594.8376465,1.6870117,2.003418,2.2207031,3.4692383,1.3442383,3.6933594,1.2353516,9.0959473-.2646484,14.6220703,1.980957-.4335938,3.9875488-.9724121,5.9892578-1.7009277.6762695-.2463379,1.3144531-.510498,1.9140625-.7924805.109375-2.59375.3137207-5.1901855.6049805-7.7226562,1.4931641-12.7382812,4.6630859-22.798584,7.7075195-23.9067383Zm-17.2509766,35.1379395c-2.7756348.53125-5.4897461.8808594-7.9963379,1.1865234-3.7827148.4829102-7.1398926.9067383-9.7897949,1.8710938C2.3905525,41.2019043-.3294183,47.236084,1.1378669,51.2670898c1.3337402,3.6645508,5.7116699,4.8166504,11.1523438,2.8364258,8.2595215-3.0063477,13.6777344-11.0119629,16.1462402-18.9655762Z"/>
      <path class="cls-1" d="m58.9183845,32.3115234c-1.7758789.6464844-3.2416992.8291016-4.3208008.583252-.1923828.2612305-.3842773.5229492-.6044922.7946777-1.9396973,2.3022461-3.7416992,1.6491699-3.2758789-1.1062012.1635742-.9536133.4990234-1.8735352.8835449-2.3964844l.6201172.4763184c-.291748.4255371-.6018066,1.2407227-.7502441,2.060791-.3173828,1.9350586.5415039,2.1015625,1.9482422.4404297.1560059-.1845703.3125-.3691406.458252-.5820312-.4816895-.2714844-.8356934-.7175293-1.0407715-1.2810059-.6054688-1.6633301-.121582-3.4038086,1.1186523-3.8552246.8457031-.3078613,1.6635742.097168,1.9814453.9707031.2978516.8173828-.1069336,2.3376465-.8930664,3.7729492.8481445.1381836,2.0578613-.0463867,3.6083984-.6108398,2.6779785-.9746094,5.130127-3.2719727,6.869873-4.8947754l.5280762.5739746c-1.7397461,1.6228027-4.2841797,4.0170898-7.1313477,5.0534668Zm-4.6416016-.385498c.7531738-1.2636719,1.152832-2.6223145.927002-3.2424316-.1745605-.479248-.5307617-.6689453-.9816895-.5046387-.7895508.2871094-1.1247559,1.5585938-.652832,2.8554688.1435547.3945312.3796387.6918945.7075195.8916016Z"/>
      <path class="cls-1" d="m82.1652107,24.1696777c-2.0061035,1.9433594-4.2712402,4.140625-6.4055176,6.2583008-4.3225098,13.0339355-6.8686523,17.7915039-9.6162109,17.2592773-3.4450684-.6936035-1.065918-7.4016113,4.6914062-13.423584,1.2734375-1.3256836,2.7236328-2.7790527,4.2299805-4.253418l1.2084961-3.6960449c-.7915039,1.2458496-1.4807129,1.7202148-2.1445312,1.387207-.8076172-.3764648-.6030273-1.5683594-.0883789-3.5751953.5019531-2.130127.5683594-2.4733887.0893555-2.2988281-.5075684.1845703-1.3481445,1.0332031-2.5776367,2.2148438-.5820312.5947266-1.237793,1.2485352-1.9782715,1.9331055l-.5280762-.5737305c.7121582-.6745605,1.3681641-1.3283691,1.9599609-1.8945312,1.2197266-1.2104492,2.2084961-2.177002,2.8569336-2.4130859,1.4941406-.5437012,1.5380859.7172852.9135742,3.2114258-.4790039,1.9296875-.4887695,2.604248-.2966309,2.6938477.4997559.232666,1.8166504-1.9384766,3.5915527-6.4470215l.409668-.9794922.7202148.3127441c-.0461426.0488281-.0820312.1257324-.1176758.2023926l.0380859.0180664c-.6604004,1.8686523-1.359375,4.0703125-2.0842285,6.3769531l-.7526855,2.3173828c1.8115234-1.7766113,3.6894531-3.5456543,5.362793-5.1762695,1.793457-1.7382812,3.392334-3.3098145,4.565918-4.4709473l.5561523.5634766c-1.1733398,1.161377-2.810791,2.7148438-4.604248,4.453125Zm-7.6252441,7.4685059c-1.0991211,1.1022949-2.1523438,2.1557617-3.1206055,3.1787109-5.1398926,5.3505859-7.6445312,11.6254883-5.1069336,12.1064453,2.5859375.5273438,5.5361328-7.154541,8.2275391-15.2851562Z"/>
      <path class="cls-1" d="m105.5726814,12.8728027c-2.7211914,2.5227051-6.5876465,5.8452148-8.5043945,6.5429688-1.2404785.451416-2.1787109.1547852-2.5378418-.8320312-.1950684-.5354004-.2336426-1.2558594-.1953125-1.9399414-.873291,1.7226562-2.154541,3.8166504-3.2819824,4.2270508-.5639648.2053223-1.1276855-.291748-1.3842773-.996582-.6157227-1.6911621.5549316-4.3520508,2.2460938-4.9675293.817627-.2976074,1.6765137-.1311035,2.2043457.442627l.5739746-1.2304688.4614258.215332.2768555.0588379c-.1357422.592041-.5581055,2.8527832-.1679688,3.9238281.2050781.5639648.6640625.6843262,1.5378418.3662109,1.4094238-.5129395,4.4482422-2.8642578,8.2429199-6.3840332l.5283203.5737305Zm-14.7861328,7.2651367c.9301758-.3383789,2.1086426-2.3635254,2.9462891-4.0092773-.2797852-.5048828-.9306641-.7148438-1.5507812-.4890137-1.2685547.4616699-2.2416992,2.6994629-1.7802734,3.9680176.1130371.3100586.3283691.5507812.3847656.5302734Z"/>
    </g>
  </g>
</svg>