<?xml version="1.0" encoding="UTF-8"?>
<svg id="_レイヤー_2" data-name="レイヤー 2" xmlns="http://www.w3.org/2000/svg" viewBox="0 0 128.7986755 61.0071646">
  <defs>
    <style>
      .cls-1 {
        fill: #fff;
      }
    </style>
  </defs>
  <g id="_レイヤー_1-2" data-name="レイヤー 1">
    <g>
      <path class="cls-1" d="m21.4172145,2.2281096l.5316991-.764771c.1554676-.1996463.2933155-.3824503.4156167-.5488006.1223012-.1662208.2497846-.2493959.3824503-.2493959.1109002,0,.2933155.0945761.5493188.2826919.2539304.188634.5316991.4156167.8312334.6817254.2995342.2659791.5534646.5212051.7649005.7649005.2103995.2442137.3161174.4323294.3161174.5652542-.2663678.2883924-.7317341.5212051-1.3971354.6984381v8.9790304c.0217655,1.3301547.0445674,2.4166141.0663328,3.2589893.0217655.8427639.0497496,1.6076644.082916,2.294572.0331664.6875554.0725515,1.4414436.1171189,2.2614056-.1554676.1777513-.4321999.3715675-.8322698.581967-.3990335.2109177-.786666.3159879-1.163934.3159879-.1544311,0-.2653313-.0665919-.3316642-.1995167-.0673693-.1330543-.1005357-.2878741-.1005357-.4656254.0445674-.0664624.0673693-.1330543.0673693-.1995167,0-.0665919.0103645-.1548198.0331664-.2661087v-.5985502h-3.1933042v7.8482628c0,.2442137.0725515.4047339.2166182.4822086.1440666.0779929.5151159.1164711,1.1141844.1164711h5.104519c.5431001,0,.9255504-.0110123,1.1473508-.033296.1989985-.021895.3378829-.0665919.4156167-.1330543s.1492489-.177233.2166182-.3325711c.1326657-.2878741.2819146-.8589584.4487831-1.712605.1658321-.8532579.3378829-1.7900797.5151159-2.8100766h.4653663l.0663328,4.6890319c.377268.1111593.6104694.2385132.6985677.3824503s.1337021.326741.1337021.548671c0,.3325711-.1502853.6037325-.4498195.8147797-.2984978.2103995-.8758007.360037-1.7287995.4489127-.8540353.0883574-2.1340517.1330543-3.8410858.1330543h-3.5249684c-1.2634332,0-2.0843021-.155338-2.4605336-.4656254-.377268-.3106761-.565902-.8760598-.565902-1.6960218v-8.2805922h-3.6244676c-.3327006,2.2395106-.9815187,4.0903522-1.9454177,5.5536908-.9649355,1.4632091-2.327868,2.6328436-4.0908704,3.5083852-1.761966.8755416-4.0069179,1.557267-6.7338193,2.0451761l-.1337021-.5320878c2.327868-.6650126,4.2235361-1.4523264,5.6870043-2.3610344,1.4634682-.9088376,2.5714339-2.0285929,3.3259699-3.3588772.7534996-1.3301547,1.2634332-2.9483132,1.529801-4.8552527h-2.9269364v1.3301547c0,.1112889-.177233.2609264-.5316991.4490422-.3555025.188634-.754536.2826919-1.1971004.2826919-.1782695,0-.3389193-.0665919-.482986-.1996463-.1440666-.1329248-.2155817-.2878741-.2155817-.4654959.0435309-.7093209.082916-1.3577502.1160825-1.9454177.0331664-.5872788.0611506-1.185829.082916-1.7959097.0217655-.6094329.0445674-1.3021706.0673693-2.0784721.0217655-.7757832.0435309-1.6960218.0663328-2.7601974v-4.62244c0-1.1307676-.0331664-2.3221675-.1005357-3.5749771-.0663328-1.2522914-.177233-2.3330502-.3316642-3.242406l2.693735,1.2303964h13.6345072Zm.3327006,5.38747V3.2258228H7.6158388v4.3897568h14.1340764Zm-14.1340764,5.4538029h14.1340764v-4.4893856H7.6158388v4.4893856Zm14.1340764.9977132H7.6158388v4.5559776h14.1340764v-4.5559776Z"/>
      <path class="cls-1" d="m52.8434321,12.0385029l.6654013-.7980669c.177233-.1995167.3378829-.3824503.4819495-.5488006.1440666-.1662208.282951-.2493959.4156167-.2493959.1109002,0,.282951.1054588.5151159.3159879.2332014.2109177.4767673.4654959.7317341.764771.2549668.2994047.4767673.587797.6654013.8646589.1875976.2775096.282951.4822086.282951.615263-.2218004.1995167-.6768022.3106761-1.3639689.3325711-.6208339.5101928-1.4292653,1.0532929-2.4273672,1.6295594-.9981019.5767847-1.9734019,1.1088725-2.9269364,1.5962634l.200035.0331664c-.0663328.4656254-.4218354.7431351-1.0644347.8314925v2.327868h8.8129392l.7317341-1.0310092c.1989985-.2659791.3824503-.5096746.5482823-.7316045.1668685-.2212822.3161174-.3325711.4487831-.3325711.0891347,0,.282951.1054588.5824852.3159879.2995342.2109177.6260161.4654959.9804822.7649005.3544661.2992751.6540003.5876675.8986026.8646589.2435659.2773801.3658671.4822086.3658671.6151334-.0891347.3549843-.3658671.5320878-.8312334.5320878h-12.5379425v6.7509208c0,.6209634-.082916,1.1582335-.2487481,1.6128466-.1668685.4542245-.5161524.8256624-1.0478515,1.1140548-.5327356.2878741-1.3639689.4873909-2.4947365.5986798-.0663328-.3549843-.1606498-.6708426-.2819146-.947834-.1223012-.2775096-.3275184-.5044923-.6156516-.6817254-.2881333-.1777513-.6933854-.343972-1.2136836-.4987918-.5213346-.1554676-1.2250846-.2994047-2.1122863-.4323294v-.4989214c.8654362.0665919,1.6023526.1164711,2.2117855.1496376.6094329.033296,1.1805172.0665919,1.7132528.0997584.5316991.033296.8975662.0500087,1.0965647.0500087.3109352,0,.5265169-.0500087.6488181-.1497671.1212647-.0997584.1834518-.2935746.1834518-.581967v-6.5845704h-7.9485394c-.8643998.0224132-1.7070341.0722924-2.5279029.1496376-.8198324.0779929-1.6407012.1829335-2.4605336.3159879l-.8643998-1.7293178c.7317341.0888756,1.4634682.1496376,2.1952023.1829335.7306976.033296,1.4738327.0612801,2.2273323.0831752h9.3788412c0-.5986798-.0165832-1.2357082-.0507861-1.9122513-.0331664-.6760249-.094317-1.2688746-.1824153-1.779197l1.9951673.3658671c.5990684-.4873909,1.2416678-1.0418919,1.9288345-1.6627258.6871667-.6204452,1.2851987-1.2081127,1.7961688-1.7626137h-8.0812051c-.8643998.0224132-1.7018518.0722924-2.5113197.1496376-.8094679.0779929-1.6344825.1829335-2.4771169.3159879l-.8975662-1.6960218c.7317341.0887461,1.4624317.1496376,2.1941658.182804.7317341.033296,1.4748692.0614097,2.2283687.0831752h10.043206Zm5.7533371-4.62244l.6322348-.7649005c.1761966-.1995167.3368464-.3824503.4819495-.5488006.1440666-.1662208.282951-.2493959.4156167-.2493959.1109002,0,.2933155.1112889.5482823.3325711.2549668.22193.5379178.4822086.8478166.7814837.3109352.2992751.5710843.5876675.7814837.8646589.2114359.2775096.3161174.4822086.3161174.615263-.1109002.1330543-.2653313.2160999-.4653663.2493959-.1989985.033296-.4550018.0612801-.7649005.0831752-.5316991.6209634-1.2199023,1.285976-2.0615002,1.9952969-.8426343.7098391-1.6189358,1.2969883-2.327868,1.7624842l-.3327006-.2659791c.2881333-.5098041.6156516-1.130638.9804822-1.8623721.3658671-.7316045.6705835-1.4185122.9151859-2.0617593h-21.0845139c.0217655,1.1530513-.1492489,2.1064562-.5151159,2.8599558-.3658671.7540178-.7814837,1.3083893-1.24685,1.6627258-.3990335.3108056-.8374521.4822086-1.3142193.5155046s-.8146501-.1273539-1.0136487-.4822086c-.1554676-.3543365-.1502853-.6926081.0165832-1.0142964.1658321-.3211701.4042157-.5928497.7151509-.8147797.6861303-.4209285,1.2634332-1.1748167,1.7287995-2.2614056.4653663-1.0859411.6425994-2.2722883.5316991-3.5582644l.565902-.033296c.1109002.3990335.2041808.7814837.282951,1.1473508.0766973.3657375.1378479.7150213.1824153,1.0475924h14.266742c.1109002-.177233.2332014-.3601666.3658671-.5488006.1326657-.1881158.2549668-.3824503.3658671-.581967.5762665-.9311213,1.1245489-1.9787137,1.6458835-3.1426477s.9027484-2.1999959,1.1473508-3.1093517c1.2188659.4656254,2.0666824.8261807,2.5444861,1.0807588.4757308.255226.7203331.4437304.7317341.5653838.0103645.1221716-.0839525.2160999-.282951.2826919l-.6322348.1662208c-.5762665.8428934-1.2965997,1.7350182-2.1609994,2.6771518-.8654362.9425222-1.7630024,1.8123634-2.693735,2.6105599h5.8860028ZM38.0449909,1.0974716l.3658671-.2328127c1.3080006.5103223,2.3112848,1.0865889,3.0098524,1.7293178.6975312.6432471,1.1514966,1.2636924,1.3629325,1.8622426.2103995.5986798.2549668,1.1198848.1326657,1.563097-.1212647.4437304-.3606848.7264223-.7141144.8479461-.3555025.1221716-.7431351.0167128-1.163934-.3158583-.0891347-.5986798-.294352-1.2357082-.6156516-1.9122513-.3212997-.6760249-.6933854-1.3244543-1.1141844-1.9454177-.4218354-.6204452-.8426343-1.152533-1.2634332-1.5962634Zm7.0831032-.5985502l.3990335-.2328127c1.2634332.6209634,2.2117855,1.2802756,2.8429839,1.9787137.6322348.6983086,1.0260861,1.3634507,1.1815536,1.9952969.1544311.6318462.1492489,1.1696345-.0176197,1.6128466-.1658321.4437304-.4321999.7150213-.7980669.8147797s-.7597183-.0384782-1.1805172-.4156167c-.0217655-.9530163-.2819146-1.9673127-.7814837-3.0428893-.4985327-1.0751879-1.0468151-1.9787137-1.6458835-2.7103182Z"/>
      <path class="cls-1" d="m88.2941873,2.7601974l.7317341-.8313629c.1989985-.1995167.3762316-.3876325.5316991-.5653838.1544311-.1771035.2995342-.2659791.4321999-.2659791.1109002,0,.2881333.1111593.5316991.3325711.2446023.2218004.5099337.4936096.7991034.8147797.2870968.3215588.5316991.6266639.7306976.9145381.200035.2883924.2995342.4987918.2995342.6318462-.2218004.1995167-.6985677.3106761-1.4303018.3325711-.7089322.4879091-1.5795507,1.0089846-2.6097825,1.5629675-1.0312683.5543715-2.1008853,1.0864593-3.2098874,1.5962634-1.1079657.5101928-2.1609994.9644173-3.1591013,1.3634507.9089671.5767847,1.5681497,1.1587517,1.9785841,1.745901.4104344.5876675.6208339,1.1088725.6322348,1.5629675.011401.4547427-.105718.7930142-.3492838,1.0142964h7.6821716l.6654013-.7316045c.177233-.1771035.3430651-.3434538.4985327-.4987918.1544311-.1548198.2995342-.2328127.4321999-.2328127.0880983,0,.2663678.1054588.5316991.3159879.2663678.2109177.5379178.4654959.8156866.764771.2767323.2994047.5202982.5820965.7306976.8480757.2114359.2661087.3161174.4656254.3161174.5985502-.2218004.22193-.6540003.343972-1.2965997.3658671-.577303.7316045-1.3028184,1.5130883-2.1786191,2.3444512-.8758007.8314925-1.7951324,1.6409604-2.7600679,2.4277559-.963899.7871842-1.8676839,1.4689096-2.7103182,2.0451761l-.3658671-.2661087c.5327356-.5985502,1.1193666-1.3021706,1.7630024-2.1116385.6425994-.8090792,1.2634332-1.6347417,1.8625017-2.4775055.598032-.8423752,1.1183302-1.6404421,1.5629675-2.3944599h-9.6441725v13.5350079c0,.5985502-.0891347,1.1249375-.2663678,1.5795507-.177233.4542245-.5431001.8314925-1.0976012,1.1307676-.5545011.2992751-1.4074999.5039741-2.5600329.615263-.0673693-.7317341-.3555025-1.2638219-.8654362-1.5962634-.3098987-.1996463-.7483173-.377268-1.3131829-.5320878-.565902-.1554676-1.3245838-.2883924-2.2781183-.399163v-.4987918c.9307326.0664624,1.718435.1221716,2.3610344.1662208.6425994.0446969,1.24685.0831752,1.812752.1164711.5648656.033296.9473158.0498792,1.1473508.0498792.3544661,0,.5928497-.0607619.7151509-.1829335.1212647-.1215238.1824153-.3044574.1824153-.548671v-13.4352496h-8.0148722c-.8643998.0222837-1.7008154.0722924-2.5102833.1496376-.8094679.0779929-1.635519.1829335-2.4771169.3159879l-.8654362-1.7293178c.7317341.0888756,1.4634682.1496376,2.1952023.1829335.7317341.0331664,1.4738327.0612801,2.2283687.0830456h12.4374068c-.3327006-.5762665-.8643998-1.2303964-1.5961339-1.9620009-.7317341-.7316045-1.6293003-1.4742214-2.693735-2.2281096-1.0644347-.7534996-2.2729361-1.4409254-3.6255041-2.0618888l.1668685-.5320878c1.3515315.2661087,2.5268665.581967,3.5249684.947834.9981019.3657375,1.8625017.737305,2.5942358,1.1140548.9970654-.6204452,2.0894843-1.341167,3.2751838-2.1616472,1.1856994-.819962,2.2117855-1.6071462,3.0761853-2.3611639h-12.0715397c-.8643998.0224132-1.7018518.0722924-2.5113197.1496376-.8094679.0779929-1.6344825.1829335-2.4771169.3159879l-.8643998-1.6960218c.7317341.0888756,1.4634682.1496376,2.1941658.1829335.7317341.0331664,1.4748692.0612801,2.2283687.0830456h14.1340764Z"/>
      <path class="cls-1" d="m103.2926635,18.889182c.7089322.1111593,1.101747.2442137,1.1805172.3990335.0766973.155338-.0393851.3106761-.3492838.4656254l-.565902.2659791c-.4207989,1.4632091-.9421336,2.8989522-1.5629675,4.3065817-.6208339,1.4081477-1.3080006,2.6105599-2.0615002,3.6082731l-.4653663-.2992751c.1544311-.3544661.2984978-.7259041.4321999-1.1140548.1326657-.3876325.2653313-.792496.3990335-1.2139427.220764-.6869076.4207989-1.4632091.598032-2.327868s.3161174-1.7177873.4156167-2.5606807c.1005357-.8422456.1502853-1.5629675.1502853-2.1615177l1.8293353.6318462Zm.8643998-4.5228112c.8198324-.0664624,1.6904509-.1382366,2.610819-.2160999.9193317-.0774747,1.8780484-.1606498,2.8761503-.2493959-.2663678-.4656254-.5379178-.9197203-.8146501-1.3635803-.2777688-.4432122-.5379178-.8422456-.7814837-1.1971004l.3658671-.2328127c1.2188659.6651422,2.1558172,1.3468675,2.8098175,2.0451761.6540003.6984381,1.0810179,1.3582685,1.2800164,1.9787137.200035.6209634.2332014,1.136468.1005357,1.5463842-.1337021.410564-.3658671.6708426-.6985677.7814837-.3327006.1111593-.6985677,0-1.0976012-.3325711-.0445674-.3766202-.1440666-.7814837-.2995342-1.2138132s-.3327006-.8698411-.5316991-1.3135715c-.4218354.1111593-.8478166.2109177-1.2810529.2992751-.4321999.0888756-.8923839.188634-1.3795157.2992751v6.8506791c.0217655,1.3302843.0445674,2.4167436.0663328,3.2589893.0217655.8428934.0497496,1.6020935.082916,2.2781183s.0715151,1.4350954.1171189,2.2779888c-.1337021.1771035-.3658671.3709197-.6985677.581967-.3327006.2103995-.754536.3158583-1.2634332.3158583-.1554676,0-.3109352-.0721629-.4664028-.2160999-.1554676-.1444553-.2321649-.2940928-.2321649-.4490422.0435309-.7097095.0880983-1.3634507.1326657-1.9620009s.0777338-1.2024122.0994993-1.8124929c.0217655-.6094329.0445674-1.3021706.0673693-2.0784721.0217655-.7757832.0435309-1.7069045.0663328-2.7933638v-5.8197995c-1.2199023.2661087-2.5828348.5320878-4.0908704.7981965-.177233.3990335-.4550018.6209634-.8312334.6651422l-.6654013-2.4942183c.377268,0,.8592175-.0165832,1.446885-.0498792.586631-.033296,1.24685-.0716446,1.9785841-.1163416.4436008-.6428585.880983-1.3354666,1.3131829-2.0784721.4332363-.7426168.8592175-1.5016873,1.2810529-2.2779888.5316991-.9530163,1.0354141-2.0063092,1.5132178-3.1593604.4757308-1.152533.8250147-2.1834127,1.0468151-3.0927685,1.1090021.4656254,1.8842671.8261807,2.327868,1.0808884.4436008.2550964.6705835.4437304.6819845.5652542.011401.1221716-.094317.2162295-.3161174.2826919l-.598032.1995167c-.4881682.8204802-1.069617,1.7127346-1.7464192,2.6771518-.6757658.9644173-1.3960989,1.9402355-2.1609994,2.9264182-.7649005.9868305-1.5360197,1.9236523-2.3112848,2.8100766Zm-1.3639689-7.7152085c0-.021895.0051823-.0384782.0165832-.0498792.011401-.0108827.0165832-.0275955.0165832-.0498792.4664028-.9977132.8758007-2.1060676,1.2302668-3.3255812.3544661-1.2189954.5990684-2.294572.7317341-3.2258228,1.152533.4437304,1.9620009.7873138,2.4284037,1.0310092.4653663.2442137.7027135.4270176.7151509.548671.0103645.1220421-.0839525.2160999-.282951.2826919l-.565902.1995167c-.5545011.8869426-1.1307676,1.7740147-1.7287995,2.660439-.5990684.8869426-1.2085014,1.6851391-1.8293353,2.3943304.6208339.4879091,1.0416328.98113,1.2634332,1.4799219s.2881333.9368218.200035,1.3135715c-.0891347.377268-.282951.6209634-.5824852.7316045-.2984978.1112889-.6374171.033296-1.0136487-.2328127-.2218004-.7757832-.6705835-1.5847329-1.3473857-2.4276263-.6757658-.8422456-1.3463493-1.5406838-2.0117505-2.0950553l.2995342-.2992751c.5099337.155338.9690813.3215588,1.3795157.4987918.4104344.1777513.7700828.3658671,1.0810179.5653838Zm5.6870043,11.9054485l.4653663-.1330543c1.1079657.7981965,1.9454177,1.5853807,2.5113197,2.3611639.5648656.7763015.9193317,1.4965051,1.0633983,2.1616472.1440666.6650126.1337021,1.2086309-.0331664,1.6294298-.1658321.4214467-.4156167.6765431-.7483173.7649005-.3327006.0888756-.6871667-.0441787-1.0633983-.3990335-.0673693-.6651422-.2114359-1.3801635-.4332363-2.1449344-.2218004-.7649005-.4933505-1.5184001-.8146501-2.2614056-.3212997-.7426168-.6374171-1.4019289-.9473158-1.9787137Zm7.6821716-11.140548h8.9124384l.5316991-.7317341c.1554676-.1771035.2933155-.3434538.4156167-.4987918.1223012-.1548198.2497846-.2328127.3824503-.2328127.0880983,0,.2663678.0888756.5327356.2661087.2653313.1776217.5368814.3881507.8146501.6318462.2767323.2442137.5202982.4822086.7317341.7150213.2103995.2326832.315081.4156167.315081.548671-.1109002.1330543-.27155.2442137-.4819495.3325711-.2103995.0888756-.4933505.155338-.8478166.1995167-.0891347,3.5032029-.2332014,6.6734461-.4321999,9.5111182-.200035,2.8380608-.471585,5.2101074-.8146501,7.1166583-.3441016,1.9069395-.7814837,3.1811259-1.3142193,3.824373-.9307326,1.0641756-2.2387332,1.5962634-3.9240018,1.5962634,0-.3549843-.0445674-.6765431-.1326657-.9644173-.0891347-.2883924-.2663678-.5212051-.5316991-.6984381-.2891697-.2218004-.8042856-.4213172-1.5463842-.5985502-.7431351-.1777513-1.4914524-.3434538-2.2449519-.4987918l.0331664-.5986798c.5762665.0665919,1.2240481.1387548,1.9454177.2162295.7203331.0778633,1.3960989.1444553,2.0283338.1995167.6322348.0555797,1.0810179.0831752,1.3473857.0831752.3762316,0,.6529639-.0384782.8312334-.1164711.177233-.0773451.3658671-.204699.5648656-.3824503.3098987-.3101578.5824852-1.0142964.8146501-2.1116385.2332014-1.0974716.4321999-2.4942183.5990684-4.1902401.1658321-1.6960218.3098987-3.6248563.4321999-5.7865035.1212647-2.1615177.2155817-4.4614015.282951-6.9004288h-9.7105054c-1.0209038,2.1064562-2.1506349,3.8799527-3.3923027,5.3208781l-.4985327-.3325711c.4207989-.7981965.8415979-1.701204,1.2634332-2.7103182.4207989-1.008596.8198324-2.0893548,1.1971004-3.242406.2435659-.7093209.4653663-1.5016873.6654013-2.3777472.1989985-.8755416.3658671-1.7402005.4985327-2.5939767.1326657-.8532579.1989985-1.5796802.1989985-2.1782304,1.2199023.3548548,2.0729011.6375467,2.5610694.8480757.4871318.2109177.7420986.3771384.7649005.4987918.0217655.1220421-.0663328.2276305-.2663678.3158583l-.5648656.2328127c-.577303,1.8623721-1.2302668,3.6248563-1.9620009,5.2877117Zm-.565902,5.6533196l.3658671-.1995167c1.4406663.7540178,2.5444861,1.5463842,3.3093867,2.3777472.7649005.8314925,1.2634332,1.6186767,1.4966346,2.3611639.2321649.7431351.2767323,1.3749812.1326657,1.8955385-.1440666.5212051-.3990335.8537762-.7649005.9977132-.3658671.1444553-.7700828.0165832-1.2136836-.3824503-.0663328-.7757832-.27155-1.5962634-.6156516-2.4609223s-.7534996-1.6960218-1.2302668-2.4940887c-.4767673-.7981965-.9701177-1.4965051-1.4800514-2.0951848Z"/>
    </g>
    <g>
      <path class="cls-1" d="m36.0850629,59.8736763l1.6728312.1672572v.6688993c-.1616863.049361-.3627577.0928919-.6042507.1300745s-.5171888.0558388-.8270876.0558388c-.6063236,0-1.0499244-.0900416-1.3287296-.2694771-.2777688-.1794355-.4736579-.4800062-.5845581-.9013233l-.9296962-3.3447555c-.135775-.5324765-.3130081-.9413562-.5296262-1.2263801-.2166182-.2848943-.5047514-.4800062-.8633633-.5853355-.3596483-.1051997-.8239782-.1580587-1.394026-.1580587h-1.2447771c0,.9541823.0031094,1.8768824.0093281,2.7688777.0062187.8918657.020729,1.7777718.0466403,2.6572001l1.9319439.2044399v.6688993h-5.5190993v-.6688993l1.9329803-.2044399c.0248748-.8794283.0404216-1.7714236.0466403-2.6758563.0062187-.9041736.0093281-1.8086062.0093281-2.7130389v-1.0219403c0-.9041736-.0031094-1.8086062-.0093281-2.7130389-.0062187-.9041736-.0217655-1.8025171-.0466403-2.6945124l-1.9329803-.2043103v-.6503727h5.5377554c1.5111449,0,2.6885528.3065303,3.5311871.9197203.8415979.6133196,1.2634332,1.4898977,1.2634332,2.6294751,0,.8176299-.2881333,1.5487163-.8643998,2.1927407-.5762665.6442836-1.4220102,1.0654712-2.5361945,1.2635628.5814488.1239854,1.0405964.3748064,1.3743335.7525927.3347735.3780453.6197974.9322873.8550717,1.6631145l1.0032841,3.2890463Zm-6.6332836-6.2065251h1.8396998c1.0893095,0,1.9195064-.2816554,2.4895543-.8454845.5700478-.56357.8550717-1.2728909.8550717-2.1277035,0-.8794283-.2601491-1.5608946-.7804473-2.0440101-.5202982-.4831155-1.331839-.7247381-2.4346224-.7247381h-1.9132877c-.0259113.8919953-.0404216,1.8025171-.0466403,2.731695-.0062187.9290484-.0093281,1.9324621-.0093281,3.0102411Z"/>
      <path class="cls-1" d="m48.5722194,57.1978201h.9286597l-.1295563,3.5120127h-10.3137196v-.6688993l1.9329803-.2044399c.0248748-.8794283.0404216-1.7714236.0466403-2.6758563.0062187-.9041736.0093281-1.8086062.0093281-2.7130389v-1.0219403c0-.9041736-.0031094-1.8086062-.0093281-2.7130389-.0062187-.9041736-.0217655-1.8025171-.0466403-2.6945124l-1.9329803-.2043103v-.6503727h9.9416338l.1305928,3.4934862h-.91104l-.5016421-2.6758563h-5.0723891c-.0259113.8796874-.0404216,1.7716827-.0466403,2.6758563-.0062187.9044327-.0093281,1.8334811-.0093281,2.7872747h3.2513454l.2788052-2.0068274h.7617912v4.7012102h-.7617912l-.2601491-1.9511182h-3.2700015c0,1.0284181.0031094,2.006957.0093281,2.9360053.0062187.9291779.020729,1.846048.0466403,2.7502216h5.4444748l.482986-2.6758563Z"/>
      <path class="cls-1" d="m55.2241591,52.8309947l.7991034.2973318c.9162223.3715675,1.64692.7496129,2.1931294,1.1334883.5441365.3841345.9348784.8176299,1.1701527,1.3007455s.3534296,1.0345072.3534296,1.6537864c0,.7930142-.2052172,1.4712416-.6135787,2.0348116-.4083615.5638291-.9659719.9973246-1.6728312,1.3007455-.7058228.3034209-1.5111449.4552609-2.4149298.4552609-.7566089,0-1.4779785-.1085682-2.1651452-.3251864s-1.2541052-.4674392-1.6997789-.7525927l.0922441-2.7872747h.9483523l.4456737,2.4527603c.3586119.1983507.7120415.3438425,1.0592525.4367344.3461745.0928919.7555725.1394026,1.226121.1394026,1.0157216,0,1.8334811-.2229664,2.4532785-.6690288.618761-.4459329.9286597-1.1023947.9286597-1.9696447,0-.6690288-.2103995-1.2047442-.6311984-1.6074053-.4218354-.4024019-1.1152208-.7958645-2.0822292-1.179999l-.7617912-.2973318c-1.0405964-.4209285-1.8666475-.9412267-2.4802262-1.5608946-.6135787-.6192792-.9203681-1.4183826-.9203681-2.397051,0-.7680099.1958892-1.4244717.5855946-1.9697743.3907419-.5449139.9172588-.9598828,1.5795507-1.2450362.6622919-.2847648,1.4033541-.4274063,2.2211136-.4274063.6933854,0,1.3007455.0961308,1.8210436.2881333.5202982.192132,1.0032841.4491718,1.4489579.7711192l-.0932806,2.6014909h-.984628l-.4456737-2.3599979c-.2725865-.1732168-.5513917-.2940928-.8364156-.3622395-.2850239-.0680171-.6011413-.1022199-.9473158-.1022199-.8426343,0-1.5422384.2014601-2.0998488.603862-.5576104.4027906-.8364156,1.0066526-.8364156,1.8118451,0,.6813367.2072901,1.2357082.6229068,1.6631145.4145802.4274063.9939561.7835566,1.7370911,1.068451Z"/>
      <path class="cls-1" d="m71.0932537,57.1978201h.9286597l-.1295563,3.5120127h-10.3137196v-.6688993l1.9329803-.2044399c.0248748-.8794283.0404216-1.7714236.0466403-2.6758563.0062187-.9041736.0093281-1.8086062.0093281-2.7130389v-1.0219403c0-.9041736-.0031094-1.8086062-.0093281-2.7130389-.0062187-.9041736-.0217655-1.8025171-.0466403-2.6945124l-1.9329803-.2043103v-.6503727h9.9416338l.1305928,3.4934862h-.91104l-.5016421-2.6758563h-5.0723891c-.0259113.8796874-.0404216,1.7716827-.0466403,2.6758563-.0062187.9044327-.0093281,1.8334811-.0093281,2.7872747h3.2513454l.2788052-2.0068274h.7617912v4.7012102h-.7617912l-.2601491-1.9511182h-3.2700015c0,1.0284181.0031094,2.006957.0093281,2.9360053.0062187.9291779.020729,1.846048.0466403,2.7502216h5.4444748l.482986-2.6758563Z"/>
      <path class="cls-1" d="m83.9141472,59.8736763l1.6728312.1672572v.6688993c-.1616863.049361-.3627577.0928919-.6042507.1300745s-.5171888.0558388-.8270876.0558388c-.6063236,0-1.0499244-.0900416-1.3287296-.2694771-.2777688-.1794355-.4736579-.4800062-.5845581-.9013233l-.9296962-3.3447555c-.135775-.5324765-.3130081-.9413562-.5296262-1.2263801-.2166182-.2848943-.5047514-.4800062-.8633633-.5853355-.3596483-.1051997-.8239782-.1580587-1.394026-.1580587h-1.2447771c0,.9541823.0031094,1.8768824.0093281,2.7688777.0062187.8918657.020729,1.7777718.0466403,2.6572001l1.9319439.2044399v.6688993h-5.5190993v-.6688993l1.9329803-.2044399c.0248748-.8794283.0404216-1.7714236.0466403-2.6758563.0062187-.9041736.0093281-1.8086062.0093281-2.7130389v-1.0219403c0-.9041736-.0031094-1.8086062-.0093281-2.7130389-.0062187-.9041736-.0217655-1.8025171-.0466403-2.6945124l-1.9329803-.2043103v-.6503727h5.5377554c1.5111449,0,2.6885528.3065303,3.5311871.9197203.8415979.6133196,1.2634332,1.4898977,1.2634332,2.6294751,0,.8176299-.2881333,1.5487163-.8643998,2.1927407-.5762665.6442836-1.4220102,1.0654712-2.5361945,1.2635628.5814488.1239854,1.0405964.3748064,1.3743335.7525927.3347735.3780453.6197974.9322873.8550717,1.6631145l1.0032841,3.2890463Zm-6.6332836-6.2065251h1.8396998c1.0893095,0,1.9195064-.2816554,2.4895543-.8454845.5700478-.56357.8550717-1.2728909.8550717-2.1277035,0-.8794283-.2601491-1.5608946-.7804473-2.0440101s-1.331839-.7247381-2.4346224-.7247381h-1.9132877c-.0259113.8919953-.0404216,1.8025171-.0466403,2.731695-.0062187.9290484-.0093281,1.9324621-.0093281,3.0102411Z"/>
      <path class="cls-1" d="m99.2256314,47.1634239v.6317166l-1.7837314.2416225-4.2743221,12.8218004h-.7058228l-4.6826837-12.8589831-1.635519-.1857838v-.6503727h5.3335746v.7246085l-2.0262609.1672572,3.6431237,10.4804586,3.418214-10.4618025-1.9319439-.1859133v-.7246085h4.6453714Z"/>
      <path class="cls-1" d="m109.8917442,57.1978201h.9286597l-.1295563,3.5120127h-10.3137196v-.6688993l1.9329803-.2044399c.0248748-.8794283.0404216-1.7714236.0466403-2.6758563.0062187-.9041736.0093281-1.8086062.0093281-2.7130389v-1.0219403c0-.9041736-.0031094-1.8086062-.0093281-2.7130389-.0062187-.9041736-.0217655-1.8025171-.0466403-2.6945124l-1.9329803-.2043103v-.6503727h9.9416338l.1305928,3.4934862h-.91104l-.5016421-2.6758563h-5.0723891c-.0259113.8796874-.0404216,1.7716827-.0466403,2.6758563-.0062187.9044327-.0093281,1.8334811-.0093281,2.7872747h3.2513454l.2788052-2.0068274h.7617912v4.7012102h-.7617912l-.2601491-1.9511182h-3.2700015c0,1.0284181.0031094,2.006957.0093281,2.9360053.0062187.9291779.020729,1.846048.0466403,2.7502216h5.4444748l.482986-2.6758563Z"/>
    </g>
  </g>
</svg>