<?xml version="1.0" encoding="utf-8"?>
<!-- Generator: Adobe Illustrator 27.7.0, SVG Export Plug-In . SVG Version: 6.00 Build 0)  -->
<svg version="1.1" id="_レイヤー_2" xmlns="http://www.w3.org/2000/svg" xmlns:xlink="http://www.w3.org/1999/xlink" x="0px"
	 y="0px" viewBox="0 0 128.2 65" style="enable-background:new 0 0 128.2 65;" xml:space="preserve">
	   <defs>
    <style>
      .cls-1 {
        fill: #black;
      }
    </style>
  </defs>
<g id="_レイヤー_1-2">
	<g>
		<path class="cls-1" d="M0.7,11.4L0,10c0.6-0.1,1.5-0.3,2.5-0.6c1.1-0.3,2.3-0.6,3.6-0.9c1.4-0.3,2.7-0.7,4.2-1.1l0.1,0.4C9.5,8.4,8.4,9,7,9.7
			c-1.4,0.7-3,1.5-4.9,2.3c-0.1,0.4-0.4,0.7-0.7,0.8C1.4,12.8,0.7,11.4,0.7,11.4z M12.3,26.6c0.7,0.4,1,0.7,1.1,0.9
			c0,0.2-0.1,0.3-0.5,0.2l-0.8,0c-0.9,0.4-2,0.8-3.2,1.2C7.7,29.4,6.4,29.7,5,30c-1.4,0.3-2.7,0.6-4.1,0.7l-0.2-0.6
			c1.6-0.4,3.1-0.9,4.7-1.6c1-0.4,2-0.9,3-1.5c1-0.6,1.8-1.2,2.4-1.9L12.3,26.6z M1.9,1.2l0.3-0.3C3.8,1.1,5,1.5,5.9,1.9
			c0.9,0.5,1.5,1,1.9,1.5C8.1,4,8.3,4.5,8.2,5c0,0.4-0.2,0.8-0.5,0.9C7.3,6.1,6.9,6,6.5,5.8C6.2,5.3,5.8,4.7,5.3,4.1
			C4.8,3.6,4.3,3,3.6,2.5C3,2,2.5,1.5,1.9,1.2z M21.2,12.5l0.5-0.7c0.2-0.2,0.3-0.3,0.4-0.5c0.1-0.2,0.2-0.2,0.4-0.2
			c0.1,0,0.3,0.1,0.5,0.3c0.2,0.2,0.5,0.4,0.8,0.6c0.3,0.2,0.5,0.5,0.7,0.7c0.2,0.2,0.3,0.4,0.3,0.5c-0.1,0.1-0.3,0.2-0.5,0.3
			c-0.2,0.1-0.5,0.2-0.7,0.2v3.9c0,1.3,0,2.4,0.1,3.2c0,0.8,0,1.6,0.1,2.2c0,0.7,0.1,1.4,0.1,2.2c-0.2,0.2-0.4,0.4-0.9,0.6
			c-0.4,0.2-0.8,0.3-1.1,0.3h-0.3v-1.3H7.7v1c0,0.1-0.2,0.3-0.6,0.4c-0.4,0.2-0.8,0.3-1.2,0.3c-0.2,0-0.3-0.1-0.4-0.2
			c-0.1-0.1-0.2-0.3-0.2-0.4c0-0.6,0.1-1.1,0.1-1.5c0-0.4,0-0.9,0.1-1.5c0-0.5,0-1.2,0.1-2V18c0-1.1,0-2.3-0.1-3.6
			c-0.1-1.3-0.2-2.3-0.3-3.2l2.7,1.3C7.8,12.5,21.2,12.5,21.2,12.5z M21.5,16.2v-2.8H7.7v2.8C7.7,16.2,21.5,16.2,21.5,16.2z M7.7,20
			h13.8v-2.8H7.7C7.7,17.2,7.7,20,7.7,20z M7.7,21v2.9h13.8V21C21.5,21,7.7,21,7.7,21z M24.8,3.5l0.6-0.8c0.2-0.2,0.3-0.3,0.4-0.5
			C25.9,2,26,1.9,26.1,1.9c0.1,0,0.2,0.1,0.5,0.3c0.2,0.2,0.5,0.5,0.7,0.8s0.5,0.6,0.7,0.8c0.2,0.3,0.3,0.5,0.3,0.6
			c-0.1,0.1-0.3,0.2-0.5,0.2c-0.2,0-0.5,0.1-0.8,0.1c-0.4,0.4-1,0.9-1.7,1.5c-0.7,0.6-1.3,1-1.9,1.3L23,7.4C23.2,7,23.5,6.6,23.8,6
			c0.3-0.5,0.6-1.1,0.8-1.6h-5.6c0.3,1,0.9,1.9,1.6,2.7c0.7,0.8,1.8,1.5,3.1,2.2c1.3,0.6,3.1,1.1,5.2,1.5L29,11.3
			c-0.5,0.1-0.9,0.2-1.2,0.5c-0.3,0.2-0.5,0.6-0.6,1.2c-1.9-0.5-3.4-1.2-4.6-1.9c-1.2-0.8-2-1.7-2.7-2.6c-0.6-1-1.1-2-1.4-3.1
			c-0.7,2-1.8,3.5-3.5,4.5s-3.8,1.7-6.5,2.2l-0.1-0.5c2.4-0.7,4.3-1.5,5.6-2.6c1.3-1,2.1-2.5,2.6-4.3h-3.5c-0.6,0.6-1.3,1.2-2,1.7
			s-1.5,1-2.3,1.3L8.5,7.1c0.2-0.2,0.4-0.3,0.6-0.5c0.2-0.2,0.4-0.3,0.5-0.5c0.5-0.5,1-1.2,1.4-1.9c0.4-0.7,0.8-1.4,1.1-2.2
			c0.3-0.7,0.5-1.4,0.6-2c1.2,0.4,2.1,0.6,2.6,0.8c0.5,0.2,0.7,0.4,0.8,0.5c0,0.1-0.1,0.2-0.2,0.2l-0.5,0.1
			c-0.2,0.3-0.4,0.6-0.6,0.9c-0.2,0.3-0.5,0.6-0.7,0.9C14,3.5,24.8,3.5,24.8,3.5z M16.2,26.7l0.1-0.5c2.5,0.2,4.5,0.4,6,0.7
			c1.5,0.3,2.7,0.7,3.4,1.1c0.8,0.4,1.2,0.8,1.4,1.2c0.2,0.4,0.2,0.7,0,1c-0.2,0.3-0.5,0.4-0.9,0.5c-0.4,0-0.8-0.1-1.2-0.4
			c-0.9-0.6-2-1.3-3.5-1.9C20,27.8,18.2,27.2,16.2,26.7z"/>
		<path class="cls-1" d="M43.5,12.9l0.6-0.9c0.2-0.2,0.3-0.5,0.4-0.6c0.1-0.2,0.3-0.3,0.4-0.3c0.1,0,0.3,0.1,0.5,0.3c0.3,0.2,0.5,0.4,0.8,0.7
			c0.3,0.3,0.6,0.5,0.8,0.7c0.2,0.2,0.3,0.4,0.3,0.6c-0.1,0.4-0.3,0.5-0.8,0.5h-5.5v2.2c1.5,0.4,2.6,0.9,3.5,1.5
			c0.8,0.6,1.4,1.2,1.7,1.8c0.3,0.6,0.4,1.1,0.4,1.6c-0.1,0.4-0.3,0.7-0.6,0.9c-0.3,0.2-0.7,0.1-1.2-0.2c-0.2-0.6-0.4-1.2-0.8-1.8
			c-0.4-0.6-0.9-1.2-1.4-1.8c-0.5-0.6-1-1.1-1.6-1.5V22c0,1.3,0,2.4,0.1,3.3c0,0.8,0,1.6,0.1,2.3c0,0.7,0.1,1.4,0.1,2.3
			c-0.1,0.2-0.4,0.5-0.7,0.7c-0.4,0.2-0.7,0.3-1.1,0.3c-0.2,0-0.3-0.1-0.5-0.2c-0.1-0.1-0.2-0.3-0.2-0.4c0.1-0.9,0.1-1.7,0.1-2.4
			c0-0.7,0.1-1.5,0.1-2.4c0-0.9,0.1-2,0.1-3.3v-4.4c-0.7,1.6-1.6,3-2.6,4.4c-1,1.4-2.1,2.6-3.4,3.7l-0.4-0.5
			c1.2-1.6,2.3-3.3,3.2-5.3s1.6-4,2.1-6h-1.7c-0.5,0-1,0.1-1.5,0.1c-0.5,0.1-1,0.2-1.5,0.3l-0.9-1.7c0.7,0.1,1.5,0.1,2.2,0.2
			c0.7,0,1.5,0.1,2.2,0.1h2.2V7.1c0-1.1,0-2.3-0.1-3.6c-0.1-1.3-0.2-2.3-0.3-3.2c1.2,0.4,2,0.6,2.5,0.8c0.5,0.2,0.7,0.4,0.7,0.5
			c0,0.1-0.1,0.3-0.3,0.4l-0.6,0.4v10.5C41.1,12.9,43.5,12.9,43.5,12.9z M33.3,3.4l0.4-0.2c1.1,0.8,1.9,1.6,2.4,2.4
			c0.5,0.8,0.9,1.5,1,2.2C37.2,8.5,37.2,9,37,9.5c-0.2,0.4-0.4,0.7-0.7,0.8c-0.3,0.1-0.7-0.1-1.1-0.4c0-0.7-0.1-1.5-0.3-2.2
			c-0.2-0.8-0.4-1.5-0.7-2.3C33.9,4.6,33.6,3.9,33.3,3.4z M45.8,3.6c0.8,0.2,1.2,0.3,1.3,0.5c0.1,0.2,0,0.3-0.3,0.4l-0.5,0.2
			c-0.5,1-1.1,2-1.7,3.1c-0.6,1.1-1.2,2-1.7,2.8l-0.5-0.3c0-0.1,0.1-0.3,0.1-0.4c0-0.1,0.1-0.3,0.1-0.4c0.2-0.7,0.4-1.5,0.6-2.3
			c0.2-0.8,0.3-1.6,0.5-2.4c0.1-0.8,0.2-1.5,0.2-2.1C43.8,2.8,45.8,3.6,45.8,3.6z M58,19.9l0.9-0.2l0.5-1.2c0.1-0.3,0.3-0.6,0.4-0.8
			c0.1-0.3,0.2-0.4,0.4-0.4c0.1,0,0.3,0.1,0.6,0.2c0.3,0.2,0.6,0.3,0.9,0.6c0.3,0.2,0.6,0.4,0.8,0.6c0.2,0.2,0.4,0.4,0.4,0.5
			c0,0.2-0.1,0.3-0.2,0.5c-0.1,0.1-0.3,0.2-0.5,0.3L58,20.9v3c0,1,0,1.8,0.1,2.4c0,0.6,0,1.2,0.1,1.7c0,0.5,0.1,1.1,0.1,1.7
			c-0.1,0.2-0.4,0.5-0.7,0.7c-0.4,0.2-0.8,0.3-1.1,0.3c-0.2,0-0.4-0.1-0.5-0.2c-0.1-0.1-0.2-0.3-0.2-0.4c0-0.6,0.1-1.2,0.1-1.7
			s0.1-1,0.1-1.6c0-0.6,0-1.4,0.1-2.3v-3.2l-9.2,2.1l-0.4-0.9l9.6-2.2V7.1c0-1.1,0-2.3-0.1-3.6c-0.1-1.3-0.2-2.3-0.3-3.2
			c1.2,0.4,2,0.6,2.5,0.8c0.5,0.2,0.7,0.4,0.8,0.5c0,0.1-0.1,0.3-0.2,0.4L58,2.4V19.9z M47.6,11.6l0.3-0.3c1.5,0.3,2.6,0.7,3.5,1.2
			c0.8,0.5,1.4,1,1.7,1.6c0.3,0.6,0.5,1.1,0.4,1.5c0,0.4-0.2,0.7-0.5,0.9c-0.3,0.2-0.7,0.1-1.2-0.1c-0.2-0.6-0.5-1.1-1-1.7
			c-0.5-0.6-1-1.2-1.6-1.7S48.2,12,47.6,11.6z M48.4,3.8l0.3-0.3c1.4,0.4,2.6,0.8,3.4,1.4c0.8,0.5,1.3,1.1,1.6,1.7
			c0.3,0.6,0.4,1.1,0.4,1.5c-0.1,0.4-0.3,0.7-0.6,0.9c-0.3,0.2-0.7,0.1-1.1-0.2c-0.2-0.6-0.5-1.2-0.9-1.8C51,6.4,50.5,5.8,50,5.2
			C49.5,4.7,48.9,4.2,48.4,3.8z"/>
		<path class="cls-1" d="M72,7.8h-1.9c-0.6,0-1.2,0.1-1.8,0.1c-0.6,0.1-1.2,0.2-1.7,0.3l-0.8-1.7c0.7,0.1,1.5,0.1,2.2,0.2c0.7,0,1.5,0.1,2.2,0.1
			h4.6l0.6-0.9c0.2-0.2,0.3-0.5,0.4-0.6C75.9,5.1,76.1,5,76.2,5c0.1,0,0.3,0.1,0.5,0.3C77,5.5,77.3,5.7,77.6,6
			c0.3,0.3,0.5,0.5,0.7,0.8c0.2,0.2,0.3,0.4,0.3,0.6c-0.1,0.3-0.3,0.5-0.8,0.5C77.8,7.8,72,7.8,72,7.8z M73.1,2.6l0.6-0.9
			c0.2-0.2,0.3-0.4,0.4-0.6c0.1-0.2,0.2-0.3,0.4-0.3c0.1,0,0.3,0.1,0.5,0.3c0.3,0.2,0.5,0.4,0.8,0.6c0.3,0.3,0.5,0.5,0.7,0.7
			c0.2,0.2,0.3,0.4,0.3,0.6c-0.1,0.4-0.3,0.5-0.8,0.5h-3.2c-0.9,0-1.7,0.1-2.5,0.1c-0.8,0.1-1.6,0.2-2.5,0.3l-0.9-1.7
			c0.7,0.1,1.3,0.1,2,0.2c0.7,0,1.4,0.1,2,0.1C71.1,2.6,73.1,2.6,73.1,2.6z M69.4,27.8v0.8c0,0.4,0.1,0.7,0.1,0.8
			c0,0.2,0,0.4,0.1,0.5c-0.1,0.2-0.3,0.4-0.6,0.6c-0.3,0.2-0.7,0.3-1.1,0.3c-0.2,0-0.3-0.1-0.4-0.2c-0.1-0.1-0.1-0.3-0.1-0.4
			c0-0.6,0.1-1,0.1-1.5c0-0.4,0.1-1.1,0.1-1.9v-2.1c0-1,0-2.1-0.1-3.3c-0.1-1.2-0.2-2.2-0.3-3l2.5,1.2H74l0.5-0.6
			c0.1-0.2,0.3-0.3,0.4-0.4c0.1-0.1,0.2-0.2,0.4-0.2c0.1,0,0.3,0.1,0.5,0.2c0.2,0.2,0.5,0.3,0.8,0.6c0.3,0.2,0.5,0.4,0.7,0.6
			c0.2,0.2,0.3,0.4,0.3,0.5c-0.2,0.3-0.7,0.5-1.3,0.6v2.7c0,0.9,0,1.6,0.1,2.2c0,0.6,0,1.1,0.1,1.5c0,0.4,0,0.9,0.1,1.5
			c-0.1,0.2-0.4,0.4-0.8,0.5c-0.4,0.2-0.8,0.3-1.1,0.3c-0.2,0-0.3-0.1-0.3-0.2c-0.1-0.1-0.1-0.3-0.1-0.4c0-0.1,0.1-0.1,0.1-0.2
			c0-0.1,0-0.2,0-0.3v-0.6C74.3,27.8,69.4,27.8,69.4,27.8z M73.5,11l0.6-0.8c0.2-0.2,0.3-0.4,0.4-0.6c0.1-0.2,0.2-0.3,0.4-0.3
			c0.1,0,0.4,0.1,0.7,0.4c0.3,0.3,0.7,0.6,1,0.9c0.3,0.3,0.5,0.6,0.5,0.7C77,11.8,76.8,12,76.3,12H73c-0.9,0-1.7,0.1-2.5,0.1
			c-0.8,0.1-1.6,0.2-2.5,0.3l-0.8-1.7c0.7,0.1,1.4,0.1,2.1,0.2c0.7,0,1.4,0.1,2.2,0.1C71.5,11,73.5,11,73.5,11z M73.5,15.3l0.6-0.8
			c0.2-0.2,0.3-0.4,0.4-0.6c0.1-0.2,0.2-0.3,0.4-0.3c0.1,0,0.4,0.1,0.7,0.4c0.3,0.3,0.7,0.6,1,0.9c0.3,0.3,0.5,0.6,0.5,0.8
			c-0.1,0.4-0.3,0.5-0.8,0.5H73c-0.9,0-1.7,0.1-2.5,0.1c-0.8,0.1-1.6,0.2-2.5,0.3L67.2,15c0.7,0.1,1.4,0.1,2.1,0.2
			c0.7,0,1.4,0.1,2.2,0.1C71.5,15.3,73.5,15.3,73.5,15.3z M69.4,20.6v6.3h4.9v-6.3H69.4z M90.3,7.3l0.6-0.9C91,6.2,91.2,6,91.3,5.8
			c0.1-0.2,0.2-0.3,0.4-0.3c0.1,0,0.3,0.1,0.5,0.3C92.5,6,92.8,6.2,93,6.5c0.3,0.3,0.5,0.5,0.7,0.7c0.2,0.2,0.3,0.4,0.3,0.5
			c-0.1,0.4-0.4,0.5-0.9,0.5h-5.9v2.9h4.2l0.7-0.9c0.2-0.2,0.3-0.5,0.5-0.6c0.1-0.2,0.3-0.3,0.4-0.3c0.1,0,0.3,0.1,0.6,0.3
			c0.3,0.2,0.5,0.4,0.8,0.7c0.3,0.3,0.6,0.5,0.8,0.8c0.2,0.2,0.3,0.4,0.3,0.6c-0.1,0.4-0.4,0.5-0.8,0.5H83.3c-0.9,0-1.7,0.1-2.5,0.1
			c-0.8,0.1-1.6,0.2-2.5,0.3l-0.8-1.7c0.7,0.1,1.5,0.1,2.2,0.2s1.5,0.1,2.2,0.1h3.4V8.3h-1.9c-0.6,0-1.1,0.1-1.7,0.1
			c-0.6,0.1-1.1,0.2-1.7,0.3l-0.8-1.7c0.7,0.1,1.3,0.1,2,0.2c0.7,0,1.4,0.1,2.1,0.1h2V4.6h-2.2c-0.7,0-1.4,0.1-2,0.1
			c-0.6,0.1-1.3,0.2-2,0.3l-0.8-1.7c0.7,0.1,1.5,0.1,2.2,0.2c0.7,0,1.5,0.1,2.2,0.1h2.6c0-0.5,0-1.1,0-1.7c0-0.6-0.1-1.1-0.1-1.6
			C86.2,0.7,87,1,87.5,1.2c0.5,0.2,0.7,0.4,0.7,0.5c0,0.1-0.1,0.3-0.3,0.4l-0.6,0.4v1.2H91l0.6-0.9c0.2-0.2,0.3-0.5,0.4-0.6
			c0.1-0.2,0.3-0.3,0.4-0.3c0.1,0,0.3,0.1,0.6,0.3c0.3,0.2,0.5,0.4,0.8,0.7c0.3,0.3,0.6,0.5,0.8,0.8C94.9,3.8,95,4,95,4.1
			c-0.1,0.4-0.4,0.5-0.9,0.5h-6.7v2.7L90.3,7.3L90.3,7.3z M82.2,24.1v2c0,1,0,1.7,0.1,2.2c0,0.5,0.1,1,0.1,1.6
			c-0.1,0.2-0.3,0.4-0.7,0.6c-0.4,0.2-0.7,0.3-1.2,0.3c-0.2,0-0.3-0.1-0.4-0.2c-0.1-0.1-0.2-0.3-0.2-0.5c0-0.7,0.1-1.3,0.1-1.9
			s0.1-1.2,0.1-1.8c0-0.7,0-1.5,0.1-2.6v-3.5c0-1.1,0-2.3-0.1-3.6c-0.1-1.3-0.2-2.3-0.3-3.2l2.6,1.2h8.1l0.4-0.7
			c0.1-0.2,0.3-0.3,0.4-0.5s0.2-0.2,0.3-0.2c0.1,0,0.3,0.1,0.6,0.2c0.3,0.2,0.6,0.4,0.9,0.6s0.6,0.5,0.8,0.7
			c0.2,0.2,0.3,0.4,0.3,0.5c-0.2,0.3-0.7,0.5-1.4,0.6v11.7c0,0.6-0.1,1.1-0.2,1.5c-0.1,0.4-0.4,0.8-0.8,1c-0.4,0.3-1,0.4-1.9,0.5
			c0-0.3-0.1-0.6-0.2-0.9c-0.1-0.3-0.2-0.5-0.4-0.7c-0.3-0.3-1-0.6-2.1-0.8v-0.5c0.5,0,0.9,0.1,1.3,0.1c0.4,0,0.7,0,1,0.1
			c0.3,0,0.5,0,0.7,0c0.3,0,0.4,0,0.5-0.1c0.1-0.1,0.1-0.3,0.1-0.5v-3.4C90.8,24.1,82.2,24.1,82.2,24.1z M90.8,18.9v-3.2h-8.6v3.2
			H90.8z M82.2,19.9v3.3h8.6v-3.3H82.2z"/>
		<path class="cls-1" d="M123.9,7.3l0.7-1c0.2-0.2,0.3-0.5,0.5-0.7c0.2-0.2,0.3-0.3,0.4-0.3c0.1,0,0.3,0.1,0.6,0.3s0.6,0.4,0.9,0.7
			c0.3,0.3,0.6,0.6,0.8,0.8c0.2,0.3,0.3,0.5,0.3,0.6c-0.1,0.4-0.3,0.5-0.8,0.5h-12.3v1.9c0.4,1.4,0.8,2.6,1.3,3.8
			c0.5,1.2,1.1,2.2,1.7,3.2c0.2-0.3,0.5-0.5,0.7-0.8c0.2-0.3,0.5-0.6,0.7-0.9c0.7-0.9,1.3-1.8,1.9-2.9c0.6-1.1,1.1-2,1.4-2.9
			c1.1,0.7,1.8,1.2,2.3,1.5c0.4,0.3,0.7,0.6,0.7,0.7c0,0.1-0.1,0.2-0.3,0.2l-0.6,0c-0.7,0.8-1.7,1.8-2.8,2.9c-1.2,1.1-2.3,2-3.5,2.9
			c1.3,1.9,2.8,3.4,4.5,4.6c1.7,1.2,3.4,2.2,5.1,2.9l-0.1,0.4c-0.4,0.1-0.8,0.3-1.2,0.6c-0.3,0.3-0.6,0.8-0.7,1.3
			c-1.7-1-3.2-2.2-4.6-3.6s-2.7-3-3.8-4.9c-1.1-1.9-2-4.2-2.7-7v15.3c0,0.6-0.1,1.2-0.2,1.6c-0.2,0.5-0.5,0.8-1,1.1
			c-0.5,0.3-1.3,0.5-2.3,0.6c0-0.4-0.1-0.7-0.2-1c-0.1-0.3-0.3-0.5-0.5-0.7c-0.3-0.2-0.6-0.4-1.1-0.5c-0.5-0.2-1.1-0.3-1.9-0.4v-0.5
			c0.8,0.1,1.4,0.1,1.9,0.2c0.5,0,1,0.1,1.5,0.1c0.5,0,0.8,0,1,0c0.3,0,0.6-0.1,0.7-0.2c0.1-0.1,0.2-0.3,0.2-0.6v-9.1
			c-1.2,1-2.6,2.2-4.2,3.5c-1.6,1.3-3.5,2.8-5.6,4.4c0,0.5-0.2,0.8-0.5,0.9l-2.1-2.5c0.7-0.3,1.7-0.9,3-1.6c1.3-0.7,2.8-1.6,4.4-2.5
			c1.6-1,3.3-2,5.1-3v-9h-7.3c-0.9,0-1.7,0.1-2.5,0.1c-0.8,0.1-1.6,0.2-2.5,0.3l-0.9-1.7c0.7,0.1,1.5,0.1,2.2,0.2s1.5,0.1,2.2,0.1
			h8.7V7.1c0-1.1,0-2.3-0.1-3.6c-0.1-1.3-0.2-2.3-0.3-3.2c1.2,0.4,2.1,0.6,2.6,0.8c0.5,0.2,0.7,0.4,0.8,0.5c0,0.1,0,0.3-0.3,0.4
			l-0.5,0.4v4.9L123.9,7.3L123.9,7.3z M103.6,10.6l0.3-0.3c1.6,0.6,2.8,1.3,3.6,2.1c0.9,0.7,1.4,1.5,1.7,2.2
			c0.3,0.7,0.4,1.3,0.3,1.8c-0.1,0.5-0.3,0.8-0.7,1c-0.4,0.1-0.8,0-1.2-0.3c-0.2-0.7-0.4-1.5-0.9-2.2c-0.4-0.8-0.9-1.5-1.5-2.3
			C104.7,11.8,104.1,11.2,103.6,10.6z M117.5,1.8l0.3-0.3c1.4,0.3,2.5,0.6,3.3,1.1c0.8,0.5,1.3,1,1.6,1.5s0.4,1,0.4,1.4
			s-0.3,0.7-0.6,0.9c-0.3,0.2-0.7,0.1-1.1-0.1c-0.2-0.5-0.5-1.1-0.9-1.6C120,4.1,119.5,3.5,119,3C118.5,2.5,118,2.1,117.5,1.8z"/>
	</g>
	<g>
		<path class="cls-1" d="M33.2,59.9l1.7,0.2v0.7c-0.2,0-0.4,0.1-0.6,0.1c-0.2,0-0.5,0.1-0.8,0.1c-0.6,0-1.1-0.1-1.3-0.3s-0.5-0.5-0.6-0.9l-0.9-3.3
			c-0.1-0.5-0.3-0.9-0.5-1.2c-0.2-0.3-0.5-0.5-0.9-0.6c-0.4-0.1-0.8-0.2-1.4-0.2h-1.2c0,1,0,1.9,0,2.8c0,0.9,0,1.8,0,2.7l1.9,0.2
			v0.7H23v-0.7l1.9-0.2c0-0.9,0-1.8,0-2.7c0-0.9,0-1.8,0-2.7v-1c0-0.9,0-1.8,0-2.7c0-0.9,0-1.8,0-2.7L23,47.8v-0.7h5.5
			c1.5,0,2.7,0.3,3.5,0.9c0.8,0.6,1.3,1.5,1.3,2.6c0,0.8-0.3,1.5-0.9,2.2c-0.6,0.6-1.4,1.1-2.5,1.3c0.6,0.1,1,0.4,1.4,0.8
			c0.3,0.4,0.6,0.9,0.9,1.7C32.2,56.6,33.2,59.9,33.2,59.9z M26.5,53.7h1.8c1.1,0,1.9-0.3,2.5-0.8c0.6-0.6,0.9-1.3,0.9-2.1
			c0-0.9-0.3-1.6-0.8-2S29.6,48,28.5,48h-1.9c0,0.9,0,1.8,0,2.7C26.5,51.6,26.5,52.6,26.5,53.7z"/>
		<path class="cls-1" d="M45.7,57.2h0.9l-0.1,3.5H36.1v-0.7l1.9-0.2c0-0.9,0-1.8,0-2.7c0-0.9,0-1.8,0-2.7v-1c0-0.9,0-1.8,0-2.7c0-0.9,0-1.8,0-2.7
			l-1.9-0.2v-0.7h9.9l0.1,3.5h-0.9L44.8,48h-5.1c0,0.9,0,1.8,0,2.7c0,0.9,0,1.8,0,2.8h3.3l0.3-2H44v4.7h-0.8l-0.3-2h-3.3
			c0,1,0,2,0,2.9c0,0.9,0,1.8,0,2.8h5.4L45.7,57.2L45.7,57.2z"/>
		<path class="cls-1" d="M59.6,63.8l0.2,0.6c-0.3,0.2-0.7,0.4-1.2,0.5C58.2,65,57.8,65,57.4,65c-0.8,0-1.5-0.2-2.1-0.6c-0.6-0.4-1-0.9-1.3-1.5
			c-0.3-0.6-0.4-1.3-0.4-2c-0.9-0.1-1.8-0.5-2.6-1.1c-0.8-0.6-1.4-1.4-1.9-2.4c-0.5-1-0.7-2.2-0.7-3.5c0-1.1,0.2-2.1,0.5-3
			c0.3-0.9,0.8-1.6,1.4-2.2c0.6-0.6,1.2-1.1,2-1.4c0.7-0.3,1.5-0.5,2.3-0.5s1.6,0.2,2.3,0.5c0.7,0.3,1.4,0.8,1.9,1.4
			c0.6,0.6,1,1.4,1.4,2.2c0.3,0.9,0.5,1.9,0.5,3c0,1.4-0.2,2.5-0.7,3.6c-0.5,1-1.2,1.8-2,2.4c-0.8,0.6-1.7,1-2.7,1.1
			c0,1,0.3,1.8,0.8,2.3c0.5,0.6,1.2,0.8,2,0.8C58.5,64.1,59,64,59.6,63.8z M50.2,54c0,0.8,0.1,1.6,0.3,2.3c0.2,0.7,0.4,1.4,0.8,2
			c0.4,0.6,0.8,1.1,1.3,1.4c0.5,0.3,1.2,0.5,1.9,0.5s1.4-0.2,1.9-0.5c0.5-0.3,1-0.8,1.3-1.4c0.4-0.6,0.6-1.3,0.8-2
			c0.2-0.7,0.3-1.5,0.3-2.3c0-0.8-0.1-1.6-0.3-2.3c-0.2-0.7-0.4-1.4-0.8-2c-0.4-0.6-0.8-1.1-1.3-1.4c-0.5-0.3-1.2-0.5-1.9-0.5
			s-1.4,0.2-1.9,0.5c-0.5,0.3-1,0.8-1.3,1.4c-0.4,0.6-0.6,1.3-0.8,2C50.3,52.4,50.2,53.2,50.2,54z"/>
		<path class="cls-1" d="M75.6,47.2v0.7l-1.8,0.2l0,7.3c0,1.3-0.2,2.4-0.6,3.3c-0.4,0.8-0.9,1.4-1.7,1.8C70.8,60.8,70,61,69.1,61
			c-1,0-1.8-0.2-2.5-0.6c-0.7-0.4-1.3-1-1.7-1.8c-0.4-0.8-0.6-1.8-0.6-3.1v-2.2c0-0.9,0-1.8,0-2.7c0-0.9,0-1.8,0-2.7l-1.7-0.2v-0.7
			h5.5v0.7l-2.1,0.2c0,0.9,0,1.8,0,2.7v4.4c0,1.2,0.1,2.1,0.4,2.8c0.3,0.7,0.7,1.2,1.2,1.5c0.5,0.3,1.1,0.4,1.9,0.4
			c1.2,0,2.2-0.4,2.8-1.1c0.6-0.8,0.9-2.1,0.9-3.9l0-6.7l-2.2-0.3v-0.7C70.8,47.2,75.6,47.2,75.6,47.2z"/>
		<path class="cls-1" d="M86.8,57.2h0.9l-0.1,3.5H77.3v-0.7l1.9-0.2c0-0.9,0-1.8,0-2.7c0-0.9,0-1.8,0-2.7v-1c0-0.9,0-1.8,0-2.7c0-0.9,0-1.8,0-2.7
			l-1.9-0.2v-0.7h9.9l0.1,3.5h-0.9L86,48h-5.1c0,0.9,0,1.8,0,2.7c0,0.9,0,1.8,0,2.8h3.3l0.3-2h0.8v4.7h-0.8l-0.3-2h-3.3
			c0,1,0,2,0,2.9c0,0.9,0,1.8,0,2.8h5.4L86.8,57.2L86.8,57.2z"/>
		<path class="cls-1" d="M93.5,52.9l0.8,0.3c0.9,0.4,1.6,0.7,2.2,1.1c0.5,0.4,0.9,0.8,1.2,1.3c0.2,0.5,0.4,1,0.4,1.7c0,0.8-0.2,1.5-0.6,2
			c-0.4,0.6-1,1-1.7,1.3C95,60.9,94.2,61,93.3,61c-0.8,0-1.5-0.1-2.2-0.3c-0.7-0.2-1.3-0.5-1.7-0.8l0.1-2.8h0.9l0.4,2.5
			c0.4,0.2,0.7,0.3,1.1,0.4c0.3,0.1,0.8,0.1,1.2,0.1c1,0,1.8-0.2,2.5-0.7c0.6-0.4,0.9-1.1,0.9-2c0-0.7-0.2-1.2-0.6-1.6
			c-0.4-0.4-1.1-0.8-2.1-1.2l-0.8-0.3c-1-0.4-1.9-0.9-2.5-1.6c-0.6-0.6-0.9-1.4-0.9-2.4c0-0.8,0.2-1.4,0.6-2c0.4-0.5,0.9-1,1.6-1.2
			c0.7-0.3,1.4-0.4,2.2-0.4c0.7,0,1.3,0.1,1.8,0.3c0.5,0.2,1,0.4,1.4,0.8l-0.1,2.6h-1l-0.4-2.4c-0.3-0.2-0.6-0.3-0.8-0.4
			c-0.3-0.1-0.6-0.1-0.9-0.1c-0.8,0-1.5,0.2-2.1,0.6c-0.6,0.4-0.8,1-0.8,1.8c0,0.7,0.2,1.2,0.6,1.7C92.2,52.2,92.7,52.6,93.5,52.9
			L93.5,52.9z"/>
		<path class="cls-1" d="M109.2,48h-3.4c0,0.9,0,1.8,0,2.7s0,1.8,0,2.8v1c0,0.9,0,1.8,0,2.7c0,0.9,0,1.8,0,2.7l2.1,0.2v0.7H102v-0.7l2.2-0.2
			c0-0.9,0-1.8,0-2.7c0-0.9,0-1.8,0-2.7v-1c0-0.9,0-1.8,0-2.7s0-1.8,0-2.7h-3.4l-0.5,2.7h-0.9l0.1-3.5h11l0.2,3.5h-0.9L109.2,48
			L109.2,48z"/>
	</g>
</g>
</svg>
