<?xml version="1.0" encoding="UTF-8"?>
<svg id="_レイヤー_2" data-name="レイヤー 2" xmlns="http://www.w3.org/2000/svg" viewBox="0 0 828.034668 108.5136719">
  <defs>
    <style>
      .cls-1 {
        fill: #231815;
        stroke-width: 0px;
      }
    </style>
  </defs>
  <g id="_レイヤー_1-2" data-name="レイヤー 1">
    <g>
      <path class="cls-1" d="m154.815918,18.0761719c-1.0795898.5996094-2.1196289,1.2011719-3.1196289,1.9199219-2.3193359,1.640625-6.6787109,5.71875-6.6787109,8.8378906,0,2.28125.9199219,3.640625,2.7197266,4.9609375.3598633.2382812.5595703.5585938.5595703.9980469,0,.640625-.5595703,1.1601562-1.199707,1.1601562-.3198242,0-.4399414-.0390625-.6796875-.1992188-2.4399414-1.5195312-3.7993164-4.0390625-3.7993164-6.9199219,0-4.1191406,4.5991211-8.5976562,7.6787109-10.8378906-3.9995117.1601562-7.8789062,1.2011719-11.5180664,2.8398438-.1601562.0800781-.3203125.1210938-.5200195.1210938-.6401367,0-1.2397461-.5605469-1.2397461-1.2011719,0-.4785156.2397461-.7988281.5996094-1.0390625,2.2797852-1.5605469,3.9594727-3,5.9589844-4.9589844-.1196289.0390625-.2397461.0800781-.3598633.0800781-.4399414,0-.8398438-.1601562-1.159668-.4804688-1.2797852-1.2402344-1.3598633-6.1191406-1.3598633-7.8789062,0-.9589844-.1201172-2.2402344,1.2397461-2.2402344.6801758,0,1.1201172.6015625,1.1601562,1.2402344v.8808594c0,1.359375.0795898,4.9980469.5996094,6.1992188.3999023.1992188.7197266.5996094.7197266,1.078125,0,.1210938-.0395508.28125-.0795898.4003906,2.1992188-2.2382812,4.3588867-4.5585938,6.1586914-7.1582031.2402344-.359375.5600586-.5996094,1-.5996094.6796875,0,1.2397461.5195312,1.2397461,1.2402344,0,1.5996094-7.1186523,8.5976562-8.4785156,9.8769531,2.3193359-.5195312,4.7192383-.7988281,7.0786133-.7988281,1,0,2.1196289,0,3.1196289.1992188.6000977.1210938,1,.5996094,1,1.1992188,0,.4804688-.2402344.8398438-.6401367,1.0800781Z"/>
      <path class="cls-1" d="m199.9350586,27.0351562c-1.3198242,0-2.6796875-.3203125-3.7592773-1.0800781-2.159668-1.5195312-2.7998047-5.3183594-2.7998047-7.7988281,0-.4394531.0400391-.9199219.0800781-1.3984375-4.1591797,1.6796875-8.2783203,3.4785156-12.3979492,5.2773438-.3999023,3.0410156-.8398438,6.1601562-.8398438,9.2402344,0,.4394531.1201172.9199219.1201172,1.359375,0,.6796875-.5200195,1.1992188-1.199707,1.1992188-1.3198242,0-1.2797852-1.5996094-1.2797852-2.5195312,0-2.6796875.3198242-5.4394531.6396484-8.1191406-1.2797852.5605469-2.5195312,1.1210938-3.7592773,1.7597656l-1.7597656.8808594c-.159668.0800781-.3198242.1191406-.5200195.1191406-.6796875,0-1.199707-.5195312-1.199707-1.1992188,0-.4804688.2001953-.8007812.6000977-1.0410156.7197266-.3984375,1.4794922-.7597656,2.2397461-1.1191406,1.5595703-.7597656,3.1191406-1.4785156,4.7192383-2.1992188l.6796875-4.5585938c-1.5195312-.28125-3.0395508-.4804688-4.5991211-.4804688-.6401367,0-1.2797852-.4394531-1.2797852-1.1191406,0-.9199219.6396484-1.28125,1.4794922-1.28125,1.6000977,0,3.2397461.2402344,4.7993164.5195312.2797852-1.5585938.6000977-4.0390625,1.1196289-5.4785156.2001953-.5195312.6000977-.8789062,1.1601562-.8789062.6396484,0,1.199707.5195312,1.199707,1.1992188,0,.1191406,0,.1992188-.0400391.3203125-.4399414,1.7597656-.8398438,3.5585938-1.1196289,5.359375.0400391.0390625.1196289.0390625.159668.0390625.5200195.1601562.8398438.5996094.8398438,1.1601562,0,.8398438-.6396484,1.1992188-1.3994141,1.1601562l-.4003906,2.9199219c1.2797852-.5605469,12.8779297-5.640625,13.5981445-5.640625.6796875,0,1.199707.5214844,1.199707,1.2011719,0,.0800781,0,.1992188-.0400391.2792969-.2402344,1-.3598633,2-.3598633,3.0390625,0,1.5605469.3999023,4.8789062,1.7597656,5.8398438.6796875.4804688,1.5195312.6386719,2.359375.6386719.5600586,0,1.159668-.0800781,1.7197266-.2382812.1201172-.0410156.2397461-.0410156.3198242-.0410156.6801758,0,1.199707.5605469,1.199707,1.1992188,0,1.4414062-2.2392578,1.4804688-3.2392578,1.4804688Z"/>
      <path class="cls-1" d="m234.0961914,16.8378906c-.8398438.5996094-1.7197266,1.1582031-2.5595703,1.7988281-2.7998047,2.0390625-7.9990234,6.1992188-7.9990234,9.9980469,0,2.4003906,1.0400391,4.7597656,2.9995117,6.1992188.3603516.2402344.5600586.5605469.5600586,1,0,.640625-.5600586,1.1992188-1.199707,1.1992188-.2397461,0-.4399414-.0800781-.6401367-.1992188-2.5991211-1.5195312-4.0791016-5.3203125-4.0791016-8.1992188,0-4.6796875,5.0791016-9.078125,8.5585938-11.6386719-3.6791992.1601562-7.3588867.7207031-10.9179688,1.8007812-.1201172.0390625-.2402344.0390625-.3603516.0390625-.6396484,0-1.159668-.4785156-1.159668-1.1191406,0-.5195312.2402344-.8398438.6401367-1.0800781,1.8793945-1.1601562,3.5991211-2.4394531,5.3188477-3.7988281-1.6396484-1.4804688-2.0795898-4.6796875-2.0795898-6.7597656,0-.8789062-.0400391-2.1191406,1.199707-2.1191406.6401367,0,1.199707.5195312,1.199707,1.1601562,0,.3203125-.0400391.640625-.0400391,1,0,.8789062.4003906,5.1582031,1.7197266,5.1582031,1.7597656-1.3984375,3.4794922-2.8398438,5.2392578-4.2792969l.9199219-.71875c.2397461-.1601562.4399414-.28125.7597656-.28125.6401367,0,1.199707.5214844,1.199707,1.1601562,0,.4003906-.159668.6796875-.4399414.9199219-.2797852.2792969-.5996094.5195312-.9194336.7597656-2.6396484,2.1601562-5.2392578,4.3203125-7.9189453,6.359375,2.3999023-.359375,4.8393555-.5996094,7.2387695-.5996094,1.0400391,0,3.2797852-.28125,3.2797852,1.2402344,0,.3984375-.2001953.7597656-.5200195,1Zm6.0390625-10.3183594c-.3203125,0-.6000977-.1601562-.8398438-.3613281-.5600586-.5585938-1.5600586-2.3984375-1.5600586-3.1582031,0-.640625.6000977-1.1601562,1.2397461-1.1601562.5200195,0,.9599609.359375,1.1201172.8789062.159668.5605469.4799805,1.4003906.8798828,1.8007812.2397461.2402344.3598633.4785156.3598633.8398438,0,.5996094-.5600586,1.1601562-1.199707,1.1601562Zm3.9990234-.6816406c-.6396484,0-1.199707-.4785156-1.199707-1.1582031,0-1-.0400391-2.2011719-.2797852-3.1992188-.0400391-.1210938-.0400391-.2011719-.0400391-.3203125,0-.6796875.5200195-1.1601562,1.199707-1.1601562.5200195,0,.9599609.3203125,1.1196289.8398438.2402344.7988281.3603516,2.9199219.3603516,3.8398438,0,.6386719-.5200195,1.1582031-1.1601562,1.1582031Z"/>
      <path class="cls-1" d="m279.9350586,27.0351562c-1.3198242,0-2.6796875-.3203125-3.7592773-1.0800781-2.159668-1.5195312-2.7998047-5.3183594-2.7998047-7.7988281,0-.4394531.0400391-.9199219.0800781-1.3984375-4.1591797,1.6796875-8.2783203,3.4785156-12.3979492,5.2773438-.3999023,3.0410156-.8398438,6.1601562-.8398438,9.2402344,0,.4394531.1201172.9199219.1201172,1.359375,0,.6796875-.5200195,1.1992188-1.199707,1.1992188-1.3198242,0-1.2797852-1.5996094-1.2797852-2.5195312,0-2.6796875.3198242-5.4394531.6396484-8.1191406-1.2797852.5605469-2.5195312,1.1210938-3.7592773,1.7597656l-1.7597656.8808594c-.159668.0800781-.3198242.1191406-.5200195.1191406-.6796875,0-1.199707-.5195312-1.199707-1.1992188,0-.4804688.2001953-.8007812.6000977-1.0410156.7197266-.3984375,1.4794922-.7597656,2.2397461-1.1191406,1.5595703-.7597656,3.1191406-1.4785156,4.7192383-2.1992188l.6796875-4.5585938c-1.5195312-.28125-3.0395508-.4804688-4.5991211-.4804688-.6401367,0-1.2797852-.4394531-1.2797852-1.1191406,0-.9199219.6396484-1.28125,1.4794922-1.28125,1.6000977,0,3.2397461.2402344,4.7993164.5195312.2797852-1.5585938.6000977-4.0390625,1.1196289-5.4785156.2001953-.5195312.6000977-.8789062,1.1601562-.8789062.6396484,0,1.199707.5195312,1.199707,1.1992188,0,.1191406,0,.1992188-.0400391.3203125-.4399414,1.7597656-.8398438,3.5585938-1.1196289,5.359375.0400391.0390625.1196289.0390625.159668.0390625.5200195.1601562.8398438.5996094.8398438,1.1601562,0,.8398438-.6396484,1.1992188-1.3994141,1.1601562l-.4003906,2.9199219c1.2797852-.5605469,12.8779297-5.640625,13.5981445-5.640625.6796875,0,1.199707.5214844,1.199707,1.2011719,0,.0800781,0,.1992188-.0400391.2792969-.2402344,1-.3598633,2-.3598633,3.0390625,0,1.5605469.3999023,4.8789062,1.7597656,5.8398438.6796875.4804688,1.5195312.6386719,2.359375.6386719.5600586,0,1.159668-.0800781,1.7197266-.2382812.1201172-.0410156.2397461-.0410156.3198242-.0410156.6801758,0,1.199707.5605469,1.199707,1.1992188,0,1.4414062-2.2392578,1.4804688-3.2392578,1.4804688Z"/>
      <path class="cls-1" d="m310.456543,33.4335938c-.199707.1601562-.4799805.2402344-.7197266.2402344-.6401367,0-1.199707-.5605469-1.199707-1.1992188,0-.4003906.159668-.6796875.4799805-.9609375.6796875-.5996094,1.359375-1.1191406,1.9995117-1.7988281,2.3994141-2.5996094,4.4394531-6.7597656,4.4394531-10.3574219,0-5.1992188-3.0795898-8.3203125-8.3588867-8.359375.7197266,1.0800781,1.3198242,2.6796875,1.3198242,4,0,1.71875-.3198242,3.3984375-.9199219,4.9980469-1.199707,3.1601562-4.4790039,7.71875-8.2783203,7.71875-3.7197266,0-6.3193359-3.1992188-6.3193359-6.7988281,0-7.5976562,6.9589844-12.2773438,14.0380859-12.2773438,6.6787109,0,10.8779297,4.0390625,10.8779297,10.71875,0,5.078125-3.2792969,11.1171875-7.3588867,14.0761719Zm-5.9589844-21.8359375c-.1196289-.1191406-.199707-.1601562-.2397461-.3203125-4.7993164.9609375-8.9985352,4.4394531-8.9985352,9.6386719,0,2.2792969,1.5195312,4.4003906,3.9594727,4.4003906.8398438,0,1.7993164-.6015625,2.4394531-1.0800781,2.7197266-2.1210938,4.359375-5.8398438,4.359375-9.2382812,0-1.2011719-.6801758-2.5605469-1.5200195-3.4003906Z"/>
      <path class="cls-1" d="m364.0942383,30.0351562c-1.6796875,4.0390625-9.1982422,6.8378906-13.3173828,6.8378906-3.0795898,0-11.2783203-.1992188-13.5981445-2.1582031-.1196289-.0800781-.199707-.2402344-.2797852-.3613281-.5600586-1.1992188-.6396484-3.7597656-.6396484-5.1191406,0-1.5996094.0795898-3.1992188.2397461-4.7988281h-.3598633c-1.159668,2.71875-2.5195312,5.3984375-3.8393555,8.0390625l-1.3999023,2.8789062c-.2397461.4003906-.4399414.9199219-.6796875,1.2792969-.2402344.3613281-.5200195.5605469-.9599609.5605469-.6000977,0-1.0800781-.4804688-1.0800781-1.0800781,0-.1992188.0400391-.359375.1201172-.5195312.4399414-.9199219.9199219-1.8398438,1.3999023-2.7597656,1.3598633-2.71875,2.7197266-5.4785156,3.9995117-8.2382812-.5200195.0800781-1.0800781.1191406-1.6000977.1601562,0,.7988281.0400391,1.8398438-1.0795898,1.8398438-1.0400391,0-1.0800781-.8808594-1.0800781-1.640625,0-1.4394531-.0795898-13.5976562.3603516-14.5566406.5996094-1.3203125,4.8388672-6.6796875,5.9589844-7.5585938.2397461-.2011719.4399414-.28125.7597656-.28125.5996094,0,1.0395508.4804688,1.0395508,1.0410156,0,.359375-.1196289.5585938-.3598633.8398438-.3198242.359375-.6796875.6796875-.9995117,1.0800781-1.3198242,1.4785156-2.5996094,3.0390625-3.7197266,4.6777344,1.8398438-.2792969,3.7197266-.359375,5.559082-.359375.7998047,0,2.9995117.0410156,3.6796875.3203125.4794922.1992188.7597656.5195312.7597656,1.0800781,0,.6796875-.0400391,1.359375-.0800781,2.0390625-.0800781,2.2402344-.1201172,4.5195312-.2397461,6.7597656-.0800781,1.1191406-.1201172,2.3183594-.3603516,3.3984375-.1196289.5605469-.5996094,1.0410156-1.199707,1.0410156-.7998047,0-1.5996094-.1210938-2.3994141-.1210938-.2001953,1.640625-.2402344,3.2792969-.2402344,4.9199219,0,1.0800781,0,2.9199219.3203125,3.9589844,1.9594727,1.1601562,8.3984375,1.4804688,10.7578125,1.4804688.5200195,0,1.0400391,0,1.5600586-.0410156,3.0395508-.1601562,8.2382812-2,10.2382812-4.3183594.3198242-.3613281.5200195-.7207031.7197266-1.1210938.2001953-.4394531.4799805-.6796875,1-.6796875.5996094,0,1.1196289.4804688,1.1196289,1.1191406,0,.1210938-.0400391.2402344-.0800781.3613281Zm-31.9946289-11.5585938v4.0800781c1.0800781-.1210938,2.159668-.1601562,3.2397461-.2402344.1196289-1.3203125.1196289-2.6796875.159668-4.0390625-1.1196289.0390625-2.2792969.1191406-3.3994141.1992188Zm.1201172-5.9179688c-.0800781,1.2382812-.0400391,2.5195312-.0800781,3.7578125,1.159668-.0800781,2.2797852-.1601562,3.4394531-.1992188.0400391-1.3203125.0800781-2.6796875.0800781-4-1.1196289.0800781-2.3198242.1210938-3.4394531.4414062Zm7.1987305,5.6386719h-.3198242c-.4399414,0-.9199219.0390625-1.3999023.0390625l-.159668,4c.9194336-.0410156,1.8393555-.0410156,2.7592773,0,.1601562-1.3203125.2001953-2.6796875.2797852-4-.3999023-.0390625-.7597656-.0390625-1.159668-.0390625Zm-.5200195-6.1601562h-1.0795898c0,1.3203125-.0400391,2.6796875-.0800781,4,.9599609,0,1.9599609,0,2.9194336.0390625.0400391-1.2382812-.0400391-2.7578125.1201172-3.9589844-.6401367-.0800781-1.2397461-.0800781-1.8798828-.0800781Zm9.1186523,21.5976562c-1.2397461,0-1.0795898-1.3203125-1.159668-2.1601562h-.4399414c-1.6796875,0-3.3193359.0800781-4.9594727.0800781-.5996094,0-1.1196289-.5195312-1.1196289-1.1191406,0-.2011719.0800781-.3613281.1601562-.5214844.9995117-1.71875,1.5595703-3.71875,2.4794922-5.4785156.199707-.359375.5595703-.5996094.9599609-.5996094.5996094,0,1.0795898.5195312,1.0795898,1.1191406,0,.4003906-1.5996094,3.6796875-1.8398438,4.4394531,1.1201172-.0390625,2.2397461-.0800781,3.359375-.0800781-.1196289-.6386719-.3198242-1.4394531-.3198242-2.1191406,0-.5996094.4799805-1.0390625,1.0800781-1.0390625.5996094,0,.9995117.3984375,1.0795898.9589844.2402344,1.7597656.7197266,3.5585938.7197266,5.3183594,0,.640625-.3999023,1.2011719-1.0795898,1.2011719Zm13.277832-10.1582031c-.1201172,0-.2001953-.0410156-.3198242-.0800781-1.9199219-.6796875-3.4794922-1.7597656-4.9995117-3.1191406,0,2.078125,0,4.1191406-.0400391,6.1972656-.0395508.9609375,0,1.9609375-.1196289,2.9199219-.0800781.640625-.5200195,1-1.1601562,1-.5595703,0-1.0395508-.5195312-.9995117-1.0800781v-.0800781c.1196289-2.6386719.1196289-5.2792969.159668-7.9179688-1.2797852,1.2402344-2.9995117,2.7988281-4.4790039,3.7988281-.2001953.1210938-.3999023.2402344-.6401367.2402344-.5996094,0-1.0795898-.4804688-1.0795898-1.0800781,0-.359375.1601562-.6386719.4399414-.8789062,1.9594727-1.640625,4.1591797-3.2402344,5.7587891-5.2402344v-1c-1.359375.0410156-3.9189453.0410156-5.1987305.4003906-.1201172.0410156-.1601562.0410156-.2802734.0410156-.5996094,0-1.0795898-.4804688-1.0795898-1.0800781,0-.5195312.3598633-.8808594.8398438-1.0410156,1.1196289-.359375,4.4790039-.4394531,5.71875-.4785156v-4.359375c-1.6796875.0800781-3.3193359.2402344-4.9990234.5585938-.0800781,0-.199707.0410156-.2797852.0410156-.6000977,0-1.0800781-.5195312-1.0800781-1.1210938,0-.4785156.3203125-.8789062.7998047-1.0390625,1.2797852-.4003906,4.199707-.5605469,5.5991211-.640625,0-1.2792969-.0400391-2.6777344.0800781-3.9589844.0800781-.6386719.5200195-1.0390625,1.159668-1.0390625.6401367,0,1,.5996094,1,1.1601562,0,1.2382812-.0800781,2.5195312-.0800781,3.7578125.7202148-.0390625,1.3999023-.0390625,2.1196289-.0390625.7202148,0,1.5200195-.0390625,2.2397461.0800781.5600586.0800781.9599609.5195312.9599609,1.0800781,0,.5996094-.4799805,1.0390625-1.0800781,1.0390625-.5996094,0-1.159668-.0800781-1.7597656-.0800781-.8398438,0-1.6396484.0410156-2.4794922.0800781-.0400391,1.4804688-.0400391,2.9199219-.0400391,4.4003906h1.9199219c1.0395508,0,2.0795898-.0410156,3.0795898.0390625.6396484.0800781.9995117.5195312.9995117,1.1601562s-.5595703,1-1.1196289,1c-.7197266,0-1.3999023-.0410156-2.1196289-.0410156h-2.7597656v.2402344l.1601562.1210938c1.5195312,1.6796875,3.359375,3.1582031,5.4790039,3.9179688.4799805.1601562.7597656.5605469.7597656,1.0410156,0,.5585938-.5195312,1.0800781-1.0795898,1.0800781Z"/>
      <path class="cls-1" d="m401.4946289,16.3964844c-.4399414,4.6796875-1.5996094,13.8378906-5.0390625,17.2382812-.7998047.7597656-1.7597656,1.1992188-2.8793945,1.1992188-3.0395508,0-6.1191406-2.9199219-7.7988281-5.1992188-.159668-.1992188-.2397461-.4804688-.2397461-.7207031,0-.6796875.5200195-1.2382812,1.159668-1.2382812.4399414,0,.6801758.1992188.9599609.4785156l.9199219,1.1210938c1.159668,1.2402344,3.2392578,3.1992188,5.0390625,3.1992188.4799805,0,.7998047-.2402344,1.159668-.5605469,3.0795898-2.8398438,4.359375-14.5566406,4.559082-18.796875-2.0795898-.0800781-4.1992188-.1191406-6.2788086-.1191406-2.3193359,0-4.5991211.1191406-6.9189453.1601562-1.9194336,6.6777344-5.3588867,15.3964844-10.2382812,20.4765625-.8798828.9199219-1.9194336,1.8398438-3.0390625,2.4394531-.1601562.0800781-.4399414.1601562-.6000977.1601562-.6401367,0-1.199707-.5996094-1.199707-1.2011719,0-.5195312.2797852-.7597656.6396484-1.0390625.6401367-.4394531,1.2397461-.8398438,1.8398438-1.4003906,4.7192383-4.3984375,8.1987305-13.2773438,10.0380859-19.3164062-1.6796875.1210938-6.878418.5195312-8.3183594,1.5605469-.2797852.1992188-.4399414.3203125-.7998047.3203125-.6401367,0-1.199707-.5605469-1.199707-1.2402344,0-2.5996094,9.6381836-3,11.0380859-3.0800781.4399414-1.71875.8798828-3.4785156,1.2397461-5.1992188.199707-.8398438.2797852-1.7597656.5200195-2.5996094.159668-.5605469.5595703-.9589844,1.199707-.9589844.6396484,0,1.199707.5195312,1.199707,1.1582031,0,.0800781-.0400391.1601562-.0400391.2402344-.4399414,2.4394531-.9599609,4.8398438-1.5996094,7.2402344,2.159668-.0800781,4.3193359-.1210938,6.519043-.1210938,1.5996094,0,3.2392578.0410156,4.8789062.0800781.7597656,0,1.6396484-.0390625,2.3994141.0800781.6801758.0800781,1.1601562.4804688,1.1601562,1.1992188,0,1.4804688-.1601562,2.9609375-.2802734,4.4394531Z"/>
      <path class="cls-1" d="m424.6577148,27.6347656c-.640625.9199219-1.6396484,2.1601562-2.8798828,2.1601562-1.0800781,0-3.3193359-1.2402344-3.3193359-2.4394531,0-.640625.5195312-1.1992188,1.2001953-1.1992188.8798828,0,1.2392578.9980469,2.0791016,1.2792969,1.5595703-.9199219,3.4394531-6.0390625,3.4394531-7.8789062,0-.3203125-.0400391-.6796875-.1601562-1-.5195312-1.4804688-3.6787109-1.6796875-4.9990234-1.71875-2.3994141,5.1582031-6.4384766,12.15625-10.5576172,16.0761719-.2402344.1992188-.5200195.3203125-.840332.3203125-.6396484,0-1.159668-.5605469-1.159668-1.1992188,0-.3203125.1201172-.5605469.3198242-.8007812.7202148-.7597656,1.4399414-1.5195312,2.1196289-2.3203125,2.9599609-3.6386719,5.3994141-7.796875,7.4790039-12.0371094-.7998047,0-1.6396484.0800781-2.4394531.0800781-.6401367,0-1.2001953-.5195312-1.2001953-1.1601562,0-.6796875.4399414-1.1191406,1.1201172-1.1992188,1.1196289-.1210938,2.4794922-.1210938,3.6391602-.1210938.3999023-1,.7597656-1.9980469,1.2001953-2.9980469.1992188-.4804688.5595703-.8007812,1.1191406-.8007812.6396484,0,1.2001953.5605469,1.2001953,1.1992188,0,.4003906-.7998047,2.2011719-1,2.640625,3.2392578.2792969,6.4785156,1.1601562,6.4785156,5.0390625,0,2.5585938-1.359375,5.9589844-2.8388672,8.078125Zm14.5576172-2.7597656c-.4404297,0-.7998047-.1992188-1.0400391-.5585938-1.0800781-1.5605469-2.1601562-3.0800781-3.2792969-4.5996094-.9599609-1.2402344-1.9599609-2.4003906-2.9199219-3.640625-.1601562-.1992188-.2802734-.4785156-.2802734-.7597656,0-.6386719.5205078-1.1992188,1.2001953-1.1992188.3603516,0,.6796875.1601562.9199219.4394531,1.4794922,1.640625,2.7998047,3.4804688,4.1191406,5.2792969.7197266.9609375,1.7197266,2.2402344,2.2792969,3.2792969.1201172.2011719.1601562.4003906.1601562.5996094,0,.640625-.5195312,1.1601562-1.1591797,1.1601562Zm.4394531-16.796875c-.4794922,0-2.0390625-1.1191406-2.3994141-1.4394531-.2402344-.2402344-.4404297-.5605469-.4404297-.9199219,0-.5996094.5605469-1.1601562,1.2001953-1.1601562.5195312,0,1.7597656,1,2.2792969,1.3203125.3603516.1992188.5605469.5996094.5605469,1,0,.6386719-.5605469,1.1992188-1.2001953,1.1992188Zm4.1992188-4.359375c-.5195312,0-.7998047-.2402344-1.0400391-.6796875-.4394531-.7597656-1.5195312-.5996094-1.5195312-1.7597656,0-.6386719.4804688-1.1992188,1.1601562-1.1992188.8798828,0,2.5996094,1.4785156,2.5996094,2.4394531,0,.640625-.5605469,1.1992188-1.2001953,1.1992188Z"/>
      <path class="cls-1" d="m483.6137695,11.1582031c-.6796875,0-1.359375-.0410156-2.0390625-.0410156-1.7597656,0-3.4794922.0410156-5.2392578.1210938-.0400391,1.8789062-.0800781,3.71875-.2001953,5.5996094,2.3203125-.1210938,4.6796875-.2402344,7.0390625-.2402344.7597656,0,1.5595703.1992188,1.5595703,1.1582031,0,.6015625-.5195312,1.0800781-1.1201172,1.0800781-3.8789062,0-7.8378906.1601562-11.7177734.5214844-.9199219.078125-1.7998047.2792969-2.7197266.359375h-.2392578c-.640625,0-1.1201172-.5195312-1.1201172-1.1601562,0-.5195312.4003906-.8789062.8798828-1.0390625,1.2402344-.3613281,3.8388672-.4414062,5.1992188-.5605469.1201172-1.8789062.1201172-3.71875.2001953-5.5996094-1.5996094.0800781-4.6396484.2011719-6.1191406.5996094-.0800781.0410156-.1601562.0410156-.2402344.0410156-.3994141,0-.7998047-.2011719-1-.5605469-.2001953.3203125-.5595703.4804688-.8798828.4804688-.8798828,0-1.7597656-.0800781-2.6396484-.0800781-3.7587891,0-7.5986328.1191406-11.3574219.4804688-.7998047.0800781-1.5595703.2402344-2.3603516.3183594h-.1992188c-.6005859,0-1.1601562-.4785156-1.1601562-1.1191406,0-.5195312.4003906-.9589844.9199219-1.0800781,1.5195312-.359375,3.2392578-.4394531,4.7587891-.5195312,3.1201172-.1992188,6.2392578-.3203125,9.3183594-.3203125.8798828,0,1.9199219-.0390625,2.7998047.0800781.4003906.0800781.6796875.2402344.8798828.5996094.1601562-.2792969.3603516-.359375.6396484-.4785156,1.1201172-.4003906,5.359375-.6015625,6.6796875-.6796875.0400391-1.2402344-.0800781-2.5996094.0400391-3.8398438.0390625-.640625.4394531-1.1210938,1.1191406-1.1210938.6396484,0,1.1201172.4804688,1.1201172,1.1210938,0,1.2402344,0,2.4785156-.0400391,3.71875,1.7197266-.0800781,3.4794922-.1191406,5.2392578-.1191406.6796875,0,1.3994141-.0410156,2.0791016.0390625.6806641.0800781,1.0800781.4804688,1.0800781,1.1601562,0,.640625-.5595703,1.0800781-1.1601562,1.0800781Zm-20.6357422,23.6757812c-2.4794922,0-5.1992188.0800781-7.6386719.4804688.0400391.6386719-.4804688,1.1992188-1.1201172,1.1992188-.5595703,0-.9599609-.4394531-1.0800781-.9589844-.2792969-1.28125-.2402344-2.8808594-.2402344-4.1601562,0-1.1992188.0800781-5.2792969.4003906-6.3183594.1601562-.5214844.5595703-.8398438,1.1201172-.8398438.3994141,0,.7998047.3183594.9599609.71875,2.1191406-.3203125,4.3193359-.4394531,6.4384766-.4394531.7197266,0,1.4394531.2402344,1.4394531,1.1191406,0,2.3203125-.1201172,4.6796875-.359375,7,.6796875,0,1.1591797.4394531,1.1591797,1.1191406,0,.5996094-.4794922,1.0800781-1.0791016,1.0800781Zm-1.5205078-17.6367188c-2.1992188,0-4.4384766.1191406-6.5986328.5195312-.0800781,0-.2402344.0390625-.3193359.0390625-.6005859,0-1.1201172-.5585938-1.1201172-1.1191406,0-.5195312.359375-.9199219.8398438-1.0800781,1.3994141-.3984375,5.5986328-.5996094,7.1582031-.5996094.8408203,0,2-.0390625,2,1.1601562,0,1.2402344-1.1201172,1.0800781-1.9599609,1.0800781Zm.9199219,4.5585938h-.5595703c-1.4394531,0-2.8398438.1210938-4.2792969.2402344-.7597656.0800781-1.6396484.1191406-2.359375.3203125-.1201172.0390625-.1601562.0390625-.2802734.0390625-.6396484,0-1.1201172-.4785156-1.1201172-1.1191406,0-.4804688.3203125-.9199219.8007812-1.0800781.7998047-.2402344,1.71875-.2792969,2.5195312-.359375,1.5595703-.1210938,3.1591797-.28125,4.71875-.28125.7998047,0,1.6796875.1210938,1.6796875,1.1601562,0,.5996094-.5195312,1.0800781-1.1201172,1.0800781Zm-7.078125,5.4394531c-.1201172,1.4003906-.1601562,2.7988281-.1601562,4.2382812,0,.5605469,0,1.1210938.0400391,1.6796875,1.7998047-.2382812,3.6396484-.359375,5.4785156-.4394531.2001953-1.9589844.2802734-3.9589844.3603516-5.9179688-1.8798828.0390625-3.8398438.1601562-5.71875.4394531Zm4.8388672-18.6367188c-.5996094,0-1.1201172-.5195312-1.1201172-1.1191406,0-.7207031-.7998047-2.640625-1.3994141-3.0800781-.3203125-.2402344-.5195312-.5195312-.5195312-.9199219,0-.640625.5195312-1.1191406,1.1191406-1.1191406,1.5595703,0,3.0400391,3.7988281,3.0400391,5.1191406,0,.6386719-.4804688,1.1191406-1.1201172,1.1191406Zm21.8759766,24.7949219c-2.9589844,0-6.7587891.1601562-9.6777344.640625,0,.1992188.0400391.4003906.0400391.5996094,0,.640625-.5205078,1.0800781-1.1201172,1.0800781s-1.0400391-.4394531-1.1201172-1c-.2392578-1.5605469-.1601562-3.6386719-.1601562-5.2382812,0-1.0410156,0-4.8808594.2802734-5.7597656.1601562-.4804688.5205078-.8398438,1.0800781-.8398438.4394531,0,.8798828.3203125,1.0400391.7597656,2.1591797-.3203125,4.4384766-.4394531,6.5986328-.4394531,1.0400391,0,3.0390625-.28125,3.2392578,1.0800781.0400391.359375.0400391.71875.0400391,1.0800781,0,1.9179688-.1601562,3.8789062-.3603516,5.7988281.6806641,0,1.2402344.3984375,1.2402344,1.1191406,0,.5996094-.5195312,1.1191406-1.1201172,1.1191406Zm-2.9589844-7.9570312c-2.2402344,0-4.5996094.078125-6.7988281.4785156-.0400391,1.0800781-.0400391,2.1601562-.0400391,3.2402344,0,.8789062,0,1.7597656.0400391,2.6386719,2.4394531-.3984375,4.9189453-.5195312,7.3984375-.5996094.2001953-1.9199219.3603516-3.8398438.3603516-5.7578125h-.9599609Z"/>
      <path class="cls-1" d="m514.5356445,17.3574219c-1.3193359.5195312-3.3994141.6796875-4.7988281.7597656.1201172,2.4394531.1601562,4.9179688.2001953,7.3574219v.2011719c1.1191406.5195312,3.71875,2.0800781,3.71875,3.5195312,0,.5996094-.5595703,1.1992188-1.1992188,1.1992188-.4804688,0-.8398438-.2792969-1.0800781-.7207031-.4003906-.71875-1.2402344-1.2382812-1.9599609-1.5996094-.7998047,2.6796875-2.5996094,4.9609375-5.5986328,4.9609375-2.4794922,0-5.6796875-2.1210938-5.6796875-4.8007812,0-3.1582031,2.6396484-3.9980469,5.359375-3.9980469,1.3994141,0,2.7998047.2402344,4.1191406.5996094,0-1.4394531-.1201172-2.8398438-.1601562-4.2792969l-.0791016-2.3203125c-.7607422.0410156-1.5205078.0410156-2.2802734.0410156-1.6796875,0-3.3994141,0-5.0791016-.1210938-.6796875-.0390625-1.1201172-.5585938-1.1201172-1.2402344,0-.71875.5605469-1.1191406,1.2402344-1.1191406,1.5195312,0,3.0791016.1210938,4.6396484.1210938.8398438,0,1.6796875-.0410156,2.5195312-.0410156-.0400391-1.71875-.0800781-3.4394531-.0800781-5.1582031-.9199219-.0800781-1.8398438-.1601562-2.7597656-.1601562-.7998047,0-1.5595703.0390625-2.359375.1601562h-.1601562c-.6796875,0-1.1601562-.5605469-1.1601562-1.2011719,0-.5996094.4404297-1.0390625,1-1.1601562.8798828-.1582031,1.8798828-.1582031,2.7597656-.1582031.9199219,0,1.7998047.0390625,2.6796875.1191406,0-1-.1201172-2.4394531,1.2792969-2.4394531,1.4404297,0,1.0800781,1.8789062,1.0800781,2.7988281,1.0400391.2402344,2.1591797.4804688,3.1191406.9609375.4003906.1992188.6796875.5996094.6796875,1.0800781,0,.6386719-.5595703,1.1582031-1.1992188,1.1582031-.2001953,0-.3203125,0-.4804688-.0800781-.7197266-.3183594-1.359375-.5195312-2.1191406-.71875,0,1.5585938.0400391,3.1191406.0800781,4.6796875,1.3994141-.0800781,2.7998047-.28125,4.1591797-.6796875.1201172-.0410156.2402344-.0410156.3603516-.0410156.6396484,0,1.1591797.5195312,1.1591797,1.1601562,0,.5605469-.3193359.9589844-.7998047,1.1601562Zm-11.0380859,9.2382812c-1.2392578,0-2.9990234.0390625-2.9990234,1.6386719,0,1.28125,2.1992188,2.4394531,3.3193359,2.4394531,1.9990234,0,2.9589844-1.7988281,3.3994141-3.4785156-1.2001953-.359375-2.4794922-.5996094-3.7197266-.5996094Z"/>
      <path class="cls-1" d="m546.0571289,32.1953125c-.1601562.078125-.3203125.1191406-.4794922.1191406-.640625,0-1.2402344-.5605469-1.2402344-1.1992188,0-.5214844.2802734-.8808594.7197266-1.1210938.7197266-.3984375,1.4794922-.71875,2.2001953-1.1191406,2.0791016-1.1601562,5.4384766-3.4785156,5.4384766-6.1992188,0-2.7597656-3.7988281-3.1191406-5.8388672-3.1191406-2,0-4.7988281.4804688-6.6787109,1.2792969-.1601562.0800781-.5996094.28125-.7197266.4003906-.3203125.359375-.5205078.640625-1.0800781.640625-.6396484,0-1.2001953-.6015625-1.2001953-1.2402344,0-2.5605469,7.8388672-3.4804688,9.6787109-3.4804688,3.5996094,0,8.2382812,1.0800781,8.2382812,5.5195312,0,4.5195312-5.3984375,7.8789062-9.0380859,9.5195312Z"/>
      <path class="cls-1" d="m588.456543,10.5585938c-1.9990234.5996094-4.3193359.7988281-6.4384766.8789062-2.3193359,4.359375-6.7988281,14.7578125-6.7988281,19.5566406,0,.6796875.2392578,1.2402344.2392578,1.6796875,0,.640625-.5996094,1.2011719-1.2392578,1.2011719-1.3203125,0-1.3994141-1.8808594-1.3994141-2.8398438,0-5.1601562,3.9990234-14.7578125,6.5185547-19.5976562-1.2001953-.0800781-2.4794922-.0800781-3.6796875-.2792969-.6396484-.1210938-1.0400391-.5605469-1.0400391-1.1992188,0-.640625.4804688-1.2402344,1.1601562-1.2011719h.1601562c1.5595703.1210938,3.1191406.28125,4.6787109.28125.3603516-.6015625.7207031-1.3203125,1.1601562-1.8398438.2402344-.28125.5595703-.4414062.9599609-.4414062.6396484,0,1.2001953.5214844,1.2001953,1.1601562,0,.4003906-.1601562.7597656-.4404297,1,1.4794922-.0800781,2.8798828-.359375,4.3193359-.6796875.1201172-.0390625.2001953-.0390625.3203125-.0390625.6796875,0,1.1992188.5195312,1.1992188,1.1992188,0,.5605469-.359375,1-.8798828,1.1601562Zm10.9179688,8.1972656c-.1591797,0-.3193359-.0390625-.4794922-.0800781-.4794922-.1582031-1-.2382812-1.5195312-.2382812-1.7998047,0-3.7597656.5585938-5.3994141,1.2792969-.1601562.0800781-.3203125.1191406-.5195312.1191406-.6796875,0-1.2402344-.5195312-1.2402344-1.1992188,0-.4804688.2802734-.8808594.6796875-1.0800781,1.6796875-.8789062,4.5595703-1.4804688,6.4394531-1.4804688,1.0400391,0,3.1992188.0800781,3.1992188,1.5214844,0,.6386719-.5195312,1.1582031-1.1601562,1.1582031Zm-.2392578,13.7578125c-1.9199219,0-6.4394531-.9199219-7.9990234-1.9589844-.359375-.2402344-.5595703-.5605469-.5595703-.9589844,0-.6816406.5195312-1.28125,1.1992188-1.28125.2802734,0,.4404297.0800781.640625.2011719,1.8388672,1,4.71875,1.4394531,6.7988281,1.5996094.7197266.0390625,1.1591797.5195312,1.1591797,1.2402344,0,.6796875-.5996094,1.1582031-1.2392578,1.1582031Z"/>
      <path class="cls-1" d="m636.2973633,23.4765625c-2.1601562,0-4.3193359,0-6.4794922.1191406-.5996094,1.8398438-1.2392578,3.6796875-1.9189453,5.4785156-.2802734.7597656-.5605469,1.7207031-1,2.4003906-.2402344.4003906-.5605469.5996094-1.0400391.5996094-.6796875,0-1.2001953-.5195312-1.2001953-1.1992188,0-.2402344.0800781-.4003906.1601562-.5996094.9599609-2.0800781,1.6396484-4.359375,2.3994141-6.5195312-1.4394531.1191406-2.8388672.359375-4.2392578.640625-.4394531.0800781-.8798828.1582031-1.3193359.1582031-1.4794922,0-1.3203125-1.8378906-1.3203125-2.8378906,0-3.5996094.4804688-7.1992188.4804688-10.8378906,0-.3613281,0-.7617188-.0800781-1.1601562-.0400391-.1210938-.0400391-.2402344-.0400391-.4003906,0-.6796875.4794922-1.1992188,1.1601562-1.1992188,1.4394531,0,1.359375,1.9199219,1.359375,2.9179688,0,3.640625-.4794922,7.2792969-.4794922,10.9199219,1.7597656-.4003906,3.5195312-.5605469,5.3183594-.6816406.9199219-2.71875,1.8398438-5.4375,2.7197266-8.1582031.3603516-1.1191406.6796875-2.2792969,1.0800781-3.3984375.2001953-.5214844.5595703-.8808594,1.1201172-.8808594.6396484,0,1.2392578.5195312,1.2392578,1.1601562,0,.7207031-3.1591797,9.9980469-3.5595703,11.1582031,1.8798828-.0390625,3.7597656-.0800781,5.6396484-.0800781.6396484,0,1.1992188.5605469,1.1992188,1.1992188,0,.640625-.5595703,1.2011719-1.1992188,1.2011719Z"/>
      <path class="cls-1" d="m666.2573242,11.3574219c-1.1992188,0-2.4394531,0-3.6396484.0410156-.0791016,2.078125-.1191406,4.1992188-.1591797,6.2792969.1201172.1582031.1591797.2792969.2392578.4394531.3603516.8398438,2.9599609,3.2382812,3.7998047,3.5585938.4794922.2011719.8398438.5605469.8398438,1.1210938,0,.6386719-.5195312,1.1191406-1.1601562,1.1191406-1,0-3.1191406-1.9589844-3.7988281-2.640625l-.1201172,5.1992188-.1201172,6.359375c-.0400391.9609375.0400391,2.0390625-.0800781,3-.0800781.640625-.5595703,1.0800781-1.1992188,1.0800781-.6806641,0-1.0800781-.5605469-1.0800781-1.2011719,0-.9199219.0800781-1.8378906.1201172-2.71875l.1201172-6.5585938.0791016-5.0390625c-1.1191406,1.71875-2.8388672,4.3183594-4.3193359,5.71875-.2392578.2402344-.4794922.359375-.8398438.359375-.5996094,0-1.1191406-.5195312-1.1191406-1.1191406,0-.3203125.1201172-.5605469.3193359-.8007812,2.2802734-2.6386719,4.3193359-5.5175781,6.0390625-8.5585938,0-1.8378906.1201172-3.6386719.1601562-5.4785156-1.7998047.1210938-5.2792969.4003906-6.8789062,1.2792969-.2001953.1210938-.359375.2011719-.5996094.2011719-.6396484,0-1.1601562-.5195312-1.1601562-1.1210938,0-.3984375.2001953-.71875.5205078-.9589844,1.5595703-1.1601562,6.2382812-1.5605469,8.1982422-1.6796875.0400391-1.2402344.0400391-2.6386719.2402344-3.8398438.1201172-.5585938.5595703-1,1.1191406-1,.640625,0,1.1601562.5214844,1.1201172,1.1210938v.1601562c-.0800781,1.1582031-.1601562,2.3183594-.2001953,3.4785156,1.3203125-.0390625,2.6396484-.0800781,3.9599609-.0800781.9199219,0,2.1591797-.1191406,2.1591797,1.1601562,0,1.4003906-1.6396484,1.1191406-2.5595703,1.1191406Zm19.0771484,19.1972656c-.2802734,0-.4804688-.0800781-.6796875-.2402344-2.3203125-1.6796875-4.5996094-3.359375-6.9990234-4.8789062v1.5195312l-.0800781,6.1992188c-.0400391,1,.0400391,2.1191406-.0800781,3.1191406-.0800781.640625-.5595703,1.0410156-1.2001953,1.0410156-.5996094,0-1.1191406-.5214844-1.0791016-1.1210938v-.0800781c.1201172-3.1191406.1601562-6.3183594.1601562-9.4375v-.5605469c-.8798828,1.0800781-4.7597656,5.7988281-6.0791016,5.7988281-.6005859,0-1.1201172-.4804688-1.1201172-1.1191406,0-.4003906.2001953-.7207031.5195312-.9609375,2.1601562-1.5585938,4.7597656-4.7578125,6.3193359-6.9589844-1.2402344.0410156-2.5195312.0800781-3.7197266.3203125-.1201172.4804688-.5996094.8398438-1.0791016.8398438-.4404297,0-.8398438-.1992188-1.0400391-.5996094-.3603516-.6386719-.3603516-4.359375-.3603516-5.1992188,0-1.5585938.0400391-3.1191406.1201172-4.71875,0-.5996094,0-1.2402344.1201172-1.8398438.1201172-.5605469.5595703-.9589844,1.1201172-.9589844.6396484,0,1.1191406.5195312,1.1191406,1.1191406,1.4003906-.2792969,2.8798828-.4003906,4.3193359-.4804688,0-.8789062.0400391-1.7988281.0800781-2.6796875-1.6396484.0800781-4.5195312.1210938-6.0791016.5605469-.0800781.0390625-.1601562.0390625-.2392578.0390625-.640625,0-1.1601562-.4785156-1.1601562-1.1191406,0-.5605469.359375-.9589844.8798828-1.1191406,1.6396484-.4804688,4.9189453-.5605469,6.6787109-.640625.0400391-1.2402344.0400391-2.5585938.2402344-3.7988281.0800781-.5996094.5195312-1,1.1191406-1,.640625,0,1.1601562.5195312,1.1201172,1.1191406v.1601562c-.0800781,1.1210938-.1601562,2.2792969-.2001953,3.4003906,1.5605469-.0410156,3.1201172-.0800781,4.6796875-.0800781.9599609,0,2.5195312-.2011719,2.5195312,1.1992188,0,.640625-.5595703,1.1191406-1.1601562,1.1191406-.7197266.0410156-1.4794922-.0390625-2.1992188-.0390625-1.3203125,0-2.5996094.0390625-3.9199219.0800781-.0390625.8789062-.0791016,1.7988281-.0791016,2.6796875,1.7597656-.0410156,3.5585938-.0410156,5.3183594-.0410156.7597656,0,1.4804688.2011719,1.4804688,1.1210938,0,.7597656-.2001953,1.9199219-.2402344,2.71875-.1201172,1.8007812-.2402344,3.6796875-.5996094,5.4394531.7197266,0,1.359375.2792969,1.359375,1.1191406,0,.5996094-.5195312,1.1210938-1.1201172,1.1210938-2.1191406,0-4.2792969.0390625-6.3984375.0390625v.0410156c1.8398438,1.078125,3.5996094,2.3183594,5.359375,3.5175781.9990234.7207031,2.1191406,1.4003906,2.9990234,2.2011719.2802734.2402344.4394531.5195312.4394531.8789062,0,.6796875-.5195312,1.1601562-1.1591797,1.1601562Zm-14.1982422-16.3574219c-.0390625.5195312-.0390625,1.0390625-.0390625,1.5605469v.4785156c1.4794922-.2382812,2.9589844-.3183594,4.4384766-.3984375,0-.7207031,0-1.4804688.0400391-2.2011719-1.4794922.0800781-2.9990234.1601562-4.4394531.5605469Zm-.0390625,4.359375v.4804688c0,.6386719,0,1.2792969.0390625,1.9199219,1.4003906-.28125,2.8798828-.3613281,4.3193359-.4003906,0-.8398438,0-1.640625.0400391-2.4804688-1.4794922.0800781-2.9589844.2011719-4.3984375.4804688Zm6.6386719-.5605469v2.5195312c1.2792969-.0390625,2.5195312-.0390625,3.7988281-.0390625.2402344-.8398438.3203125-1.7207031.4003906-2.5605469-1.4003906,0-2.7998047.0410156-4.1992188.0800781Zm3.5996094-4.5195312c-1.2001953,0-2.3603516,0-3.5195312.0410156,0,.7207031,0,1.4804688-.0400391,2.1992188,1.4394531-.0390625,2.9189453-.0800781,4.359375-.0800781l.1992188-2.1601562h-.9990234Z"/>
      <path class="cls-1" d="m700.9379883,34.59375c-.359375,0-.6796875-.1601562-.9189453-.4394531-.2402344.0390625-.4804688.0390625-.7207031.0390625-1.8789062,0-4.1191406-1.1582031-4.1191406-3.2792969,0-2.4394531,2.2402344-6.1582031,4.9189453-6.1582031,2.2802734,0,5.1591797,2.2402344,5.1591797,4.6386719,0,2.2792969-1.7998047,5.1992188-4.3193359,5.1992188Zm-.8398438-7.4394531c-1.2392578,0-2.5195312,2.6796875-2.5195312,3.7597656,0,.640625,1.3603516.8808594,1.7998047.8808594.6005859,0,1.0800781-.3203125,1.5595703-.3203125.3203125,0,.6005859.1191406.8398438.359375.5205078-.5195312,1.0800781-1.6796875,1.0800781-2.4394531,0-.9199219-1.7597656-2.2402344-2.7597656-2.2402344Z"/>
      <path class="cls-1" d="m12.237793,75.359375c-.3999023.6796875-.8798828,1.3183594-1.2797852,1.9589844l-2.5195312,3.9199219-.2797852.4394531c.2797852,3.359375.2797852,6.7988281.2797852,10.1582031,0,2.8789062-.0400391,5.7988281-.159668,8.6796875-.0800781,1.1191406-.0800781,2.7578125-.3203125,3.8378906-.159668.7207031-.5996094,1-1.3193359,1-.5200195,0-1.0400391-.6386719-1-1.1601562v-.1191406c.2797852-4.0800781.4799805-8.1992188.4799805-12.2773438,0-2.28125-.0400391-4.5195312-.1201172-6.7597656l-2.5996094,4c-.3999023.6386719-.7998047,1.359375-1.2797852,1.9199219-.2397461.3183594-.5600586.5195312-.9599609.5195312-.6396484,0-1.159668-.5605469-1.159668-1.1992188,0-.28125.0800781-.4414062.2001953-.6816406.6396484-1.078125,1.3994141-2.078125,2.0795898-3.1191406l4.1992188-6.5175781,2.6396484-4.1210938c.3598633-.5585938.7197266-1.2382812,1.159668-1.7597656.2397461-.3183594.5200195-.5195312.9599609-.5195312.6396484,0,1.199707.5605469,1.199707,1.2011719,0,.2382812-.0800781.3984375-.2001953.5996094Zm22.5961914,2.0390625c-.3999023,0-.8398438-.0390625-1.2397461-.0390625,0,4.5585938.2001953,25.1542969-1.7993164,28.4335938-.2402344.4003906-.5600586.640625-1.0400391.640625-.6396484,0-2.8793945-1.1601562-3.359375-1.5996094-.2402344-.2402344-.3999023-.4804688-.3999023-.8398438,0-.6796875.5600586-1.1601562,1.199707-1.1601562.5200195,0,1.3999023.6796875,1.8798828.9199219.7197266-2.8789062.8398438-6.5996094.9594727-9.5585938.2402344-5.359375.2402344-10.71875.2402344-16.0761719v-.8007812c-3.5595703,0-7.1191406.0800781-10.6782227.3203125-1.9995117.1191406-4.1196289.1992188-6.0390625.6796875-.1201172.0390625-.1601562.0390625-.2797852.0390625-.6401367,0-1.1601562-.5195312-1.1601562-1.1582031,0-.5996094.3603516-.9609375.9199219-1.1601562.7202148-.2402344,1.6396484-.3203125,2.3999023-.4003906,4.7587891-.5605469,9.6782227-.640625,14.4775391-.640625.9995117,0,3.1191406-.078125,4.0791016.0800781.6801758.1210938,1.0800781.5214844,1.0800781,1.2402344,0,.6796875-.6401367,1.0410156-1.2402344,1.0800781Zm-10.0380859,14.6777344c.2397461.2402344.3598633.5195312.3598633.8398438,0,.640625-.5200195,1.1992188-1.159668,1.1992188-2.5996094,0-5.359375.3203125-7.8789062.9199219-.1196289.0410156-.199707.0410156-.3198242.0410156-.4799805,0-.8798828-.28125-1.0795898-.7207031-.5200195-1.1191406-.6000977-4.2382812-.6000977-5.4785156,0-1.640625.0800781-4.4804688.6401367-6,.159668-.4785156.5595703-.8398438,1.0795898-.8398438.6796875,0,1.159668.5214844,1.159668,1.1601562,0,.3203125-.1196289.7207031-.199707,1,1.6396484-.5195312,3.6791992-.7207031,5.3989258-.7207031,1.0400391,0,3.199707-.1582031,3.2792969,1.3203125v.7597656c0,2.1601562-.159668,4.4394531-.6796875,6.5195312Zm-2.7597656-6.2382812c-1.8393555,0-3.4790039.2382812-5.1987305.8398438-.1201172.0390625-.2402344.0390625-.3603516.0390625-.0395508.5996094-.0395508,1.2402344-.0395508,1.8398438,0,1.3203125.0395508,2.6796875.199707,4,1.9199219-.4003906,3.8793945-.640625,5.8388672-.7207031.5600586-1.8398438.6801758-4.0390625.6801758-5.9589844-.3598633-.0390625-.7597656-.0390625-1.1201172-.0390625Z"/>
      <path class="cls-1" d="m60.8364258,91.5957031c-.5996094.8808594-1.3598633,1.6796875-2.0395508,2.4804688-1.4399414,1.6796875-2.9194336,3.359375-4.4394531,4.9980469,1.3999023,1.0800781,2.8398438,2.0800781,4.3193359,3.0800781.3598633.2402344.6000977.5605469.6000977,1.0390625,0,.640625-.5600586,1.1601562-1.199707,1.1601562-.7998047,0-4.5991211-3.0390625-5.359375-3.5996094-1.159668,1.1601562-6.6386719,6.4804688-8.0385742,6.4804688-.5996094,0-1.199707-.5214844-1.199707-1.1601562,0-.4394531.2397461-.7597656.6000977-1,2.4794922-1.6796875,4.6391602-3.5996094,6.71875-5.7597656l-2.7998047-2.1601562c-.9594727-.7597656-1.9995117-1.4394531-2.9194336-2.1992188-.3198242-.2402344-.4799805-.5195312-.4799805-.9199219,0-.6386719.5200195-1.1992188,1.1601562-1.1992188.2797852,0,.4794922.0800781.7197266.2402344.9599609.5996094,2.0395508,1.5585938,2.9594727,2.2402344,1,.7597656,1.9995117,1.5585938,3.0395508,2.3183594,1.5595703-1.6796875,3.0795898-3.359375,4.559082-5.1191406.6801758-.7597656,1.2797852-1.5996094,1.9599609-2.359375.2397461-.2792969.5595703-.4394531.9194336-.4394531.6401367,0,1.1601562.5195312,1.1601562,1.1601562,0,.3183594-.0800781.4785156-.2402344.71875Zm9.918457,16.3984375c-4.0395508,0-4.9589844-12.8789062-4.9589844-15.5976562,0-1.3203125.0795898-2.5996094.2797852-3.8789062h-.0400391c-3.5991211,0-7.1987305.1191406-10.7583008.2792969-2.0795898.0800781-4.559082.0800781-6.5986328.4804688-.0800781,0-.1601562.0390625-.2402344.0390625-.6396484,0-1.199707-.5195312-1.199707-1.1601562,0-.5996094.3999023-1,.9199219-1.1601562.9199219-.2792969,2.7197266-.3183594,3.7192383-.359375,4.6791992-.3203125,9.4384766-.4394531,14.1176758-.4394531,1,0,2.7197266-.2402344,2.7197266,1.1992188,0,.1210938,0,.2011719-.0400391.3203125-.3999023,1.5605469-.5600586,3.1191406-.5600586,4.71875,0,1.9609375.2001953,3.8789062.4799805,5.7988281.2402344,1.5996094,1.1196289,6.1601562,2.2397461,7.4003906,1.2797852-.640625,2.7592773-2.5605469,3.2392578-3.8808594.2001953-.5195312.5200195-.8789062,1.1201172-.8789062.6396484,0,1.159668.5195312,1.159668,1.1601562,0,1.7597656-3.5996094,5.9589844-5.5991211,5.9589844Zm-4.519043-25.15625c-.8798828,0-1.7597656-.0800781-2.6396484-.0800781-2.5996094,0-5.1591797.0800781-7.7587891.2402344-1.5195312.0800781-3.1196289.1191406-4.5991211.4785156-.1201172.0410156-.2001953.0410156-.3198242.0410156-.6401367,0-1.1601562-.5195312-1.1601562-1.1601562,0-.5996094.3598633-1,.8798828-1.1601562,2.0395508-.6386719,10.3984375-.7597656,12.8779297-.7597656.8798828,0,1.9199219-.0390625,2.7993164.0800781.6000977.0800781,1.0800781.5195312,1.0800781,1.1601562s-.5200195,1.1601562-1.159668,1.1601562Zm.9194336-5.5585938c-2.8393555,0-5.71875.1601562-8.5981445.2792969-2.4399414.0800781-4.9594727.1191406-7.3989258.3203125-.0400391.0390625-.0800781.0390625-.1201172.0390625-.6396484,0-1.159668-.5585938-1.159668-1.1992188,0-.1601562.0400391-.2792969.0800781-.4394531.2397461-.640625.5200195-1.2402344.7998047-1.8398438l1.3598633-3.3203125c.199707-.4785156.5996094-.7988281,1.1196289-.7988281.6401367,0,1.159668.5585938,1.159668,1.1992188,0,.5605469-1.199707,3.1992188-1.5195312,3.8789062v.0410156c3.0395508-.1210938,6.0791016-.2402344,9.1186523-.3203125,1.7197266-.0800781,3.4394531-.1601562,5.1586914-.1601562.6401367,0,1.1601562.5195312,1.1601562,1.1601562,0,.6386719-.5200195,1.1601562-1.1601562,1.1601562Z"/>
      <path class="cls-1" d="m98.1171875,79.1582031c-1.2797852,0-2.5195312-.1992188-3.7597656-.4804688-2.1591797,4.4003906-6.5986328,11.71875-10.3979492,14.71875-.2001953.1601562-.4799805.2402344-.7197266.2402344-.6801758,0-1.2001953-.5214844-1.2001953-1.2011719,0-.359375.1601562-.6386719.4399414-.8789062,3.8793945-3.4394531,7.2788086-8.9589844,9.5986328-13.5976562-.8398438-.3203125-1.8398438-.7207031-2.5595703-1.28125-.3198242-.2382812-.5200195-.5585938-.5200195-.9589844,0-.640625.5200195-1.1992188,1.159668-1.1992188.2802734,0,.4399414.0800781.6401367.1992188.7597656.4394531,1.4794922.8007812,2.2792969,1.1191406.3603516-.7597656.5600586-1.9589844,1.6000977-1.9589844.6396484,0,1.159668.5195312,1.159668,1.1191406,0,.3613281-.3198242,1.1601562-.4799805,1.4804688.9199219.1992188,1.8798828.3203125,2.7998047.3203125,1.2397461,0,2.2792969-.1992188,3.3994141-.7207031.199707-.0800781.3598633-.1191406.5595703-.1191406.6401367,0,1.1601562.5195312,1.1601562,1.1601562,0,1.6386719-3.9594727,2.0390625-5.1591797,2.0390625Zm7.7583008,22.9570312c-.5996094,0-.9995117-.4003906-1.159668-.9609375-.4399414-1.5195312-.8798828-2.5996094-2.159668-3.5996094-.2797852,3.5996094-2.2792969,6.6386719-6.1987305,6.6386719-3.159668,0-4.7993164-2.4394531-4.7993164-5.3984375,0-3.4394531,3.159668-5.2792969,6.2788086-5.2792969.7998047,0,1.6000977.1210938,2.3999023.3203125.0400391-2.4394531.199707-8.4394531,2.2792969-10.078125.2402344-.1601562.4399414-.28125.7602539-.28125.6396484,0,1.159668.5214844,1.159668,1.1601562,0,.4003906-.1201172.5996094-.3999023.8808594-1.4799805,1.5585938-1.4799805,7.1992188-1.4799805,9.2382812,2.3598633,1.2402344,3.9194336,3.3183594,4.4794922,5.9179688,0,.0800781.0400391.1601562.0400391.2402344,0,.640625-.5600586,1.2011719-1.2001953,1.2011719Zm-8.0385742-6.2402344c-1.7597656,0-3.9194336.8398438-3.9194336,2.9199219,0,1.5996094.6000977,3.0390625,2.4399414,3.0390625,3.2392578,0,3.8793945-2.9589844,3.8793945-5.5585938-.7602539-.2402344-1.6000977-.4003906-2.3999023-.4003906Zm12.7578125-9.7578125c-.3999023,0-2.6391602-1-3.4394531-1.1601562-.5595703-.1191406-1.0395508-.5605469-1.0395508-1.1601562,0-.6386719.5200195-1.1992188,1.159668-1.1992188.6401367,0,3.4394531,1,3.9594727,1.359375.3198242.2402344.5600586.5605469.5600586,1,0,.6796875-.5200195,1.1601562-1.2001953,1.1601562Z"/>
      <path class="cls-1" d="m133.8779297,94.9960938c-1,.8398438-3.7197266,1.8398438-4.9995117,1.8398438-1.7197266,0-3.359375-3-4.0390625-4.2402344-.7597656-1.359375-2.7998047-5.6386719-2.7998047-7.1191406,0-.6386719.5600586-1.1992188,1.2001953-1.1992188.5996094,0,1.0395508.4003906,1.199707.9589844.199707.7207031.3999023,1.4414062.6396484,2.1601562.6000977,1.5605469,2.6796875,6.0390625,3.9594727,7.0390625,1.0795898-.0800781,2.4794922-.7988281,3.3994141-1.359375.2397461-.1601562.4399414-.2402344.7197266-.2402344.6801758,0,1.199707.5605469,1.199707,1.1992188,0,.4003906-.159668.7207031-.4794922.9609375Zm18.6367188-3.4394531c-.6401367,0-1.199707-.5996094-1.199707-1.2402344,0-.1992188.0400391-.359375.1196289-.5195312.3603516-.7597656.4799805-1.5605469.4799805-2.4003906,0-.8789062-.159668-2.359375-.7597656-3-.2397461-.2382812-.3598633-.5195312-.3598633-.8789062,0-.640625.5600586-1.1601562,1.199707-1.1601562,1.7998047,0,2.3198242,3.7597656,2.3198242,5.0390625,0,1.0800781-.2802734,4.1601562-1.7998047,4.1601562Z"/>
      <path class="cls-1" d="m189.3549805,104.1542969c-.7998047.0800781-1.7197266,0-2.5595703,0-5.7988281,0-11.7177734.1191406-17.5170898.7597656-.159668.1191406-.3198242.1191406-.5195312.1191406-.6801758,0-1.0800781-.4785156-1.2001953-1.0800781-.159668-.7597656-.1196289-2.4785156-.159668-3.3183594-.0800781-2.4394531-.1201172-4.8398438-.1201172-7.2792969,0-3.9589844.0800781-7.9589844.2402344-11.9179688.0795898-1.4394531.1196289-2.8398438.2397461-4.2792969,0-.4394531,0-1,.0800781-1.4394531.1196289-.640625.4799805-1.1191406,1.199707-1.1191406.6396484,0,1.159668.5195312,1.159668,1.1601562,1.5200195-1,13.1176758-1.1210938,15.4775391-1.1210938.7597656,0,2.5996094-.0390625,3.3193359.0800781.9199219.2011719,1.0800781.7207031,1.0800781,1.5605469,0,3.71875-.1201172,7.4785156-.2001953,11.1972656-.0800781,4.7597656-.199707,9.5585938-.3999023,14.3183594.6401367.0390625,1.1196289.5585938,1.1196289,1.1992188,0,.7207031-.5996094,1.0800781-1.2397461,1.1601562Zm-4.1992188-27.1152344c-2.8793945,0-5.7988281.0800781-8.6787109.2402344-1.7192383.1191406-3.519043.1601562-5.1987305.5996094-.1201172.0390625-.2001953.0390625-.3203125.0390625-.3198242,0-.5996094-.1191406-.8398438-.359375-.2397461,3.7597656-.3198242,7.4785156-.3999023,11.2382812,2.0400391-.4003906,4.1196289-.5605469,6.1992188-.7207031,2.9594727-.1992188,5.9990234-.3203125,8.9985352-.3203125.8398438,0,1.7197266,0,2.5595703.0410156.0800781-3.5585938.199707-7.1582031.199707-10.71875-.8398438-.0390625-1.6796875-.0390625-2.5195312-.0390625Zm-.159668,13.1171875c-3.199707,0-6.3989258.1210938-9.5585938.359375-1.8798828.1601562-3.8793945.28125-5.7192383.7207031v2.9199219c0,2.7597656,0,5.5585938.1601562,8.3183594,5.6791992-.5996094,11.4780273-.7207031,17.1972656-.7207031.159668-3.8378906.2397461-7.71875.3598633-11.5566406-.7998047-.0410156-1.6396484-.0410156-2.4394531-.0410156Z"/>
      <path class="cls-1" d="m224.355957,92.6367188c-1.4794922,1.6386719-2.9995117,3.2792969-4.359375,4.9980469,1.4799805.9199219,4.5595703,2.7207031,4.5595703,3.8398438,0,.640625-.5600586,1.2402344-1.2001953,1.2402344-.3198242,0-.5595703-.1210938-.7998047-.3203125-2.9194336-2.3203125-5.8388672-4.1601562-9.3583984-5.4394531-.5200195-.1992188-.8798828-.5996094-.8798828-1.1601562,0-.6386719.5200195-1.1601562,1.199707-1.1601562.7602539,0,3.5996094,1.4003906,4.3994141,1.8007812,2.8393555-3.6796875,6.3989258-6.7597656,9.1186523-10.5585938-2.4794922-1.71875-9.0385742-3.1191406-12.078125-3.1191406l-.1601562-.0410156c-1.7197266,1.7597656-5.0791016,5.2792969-6.0786133,7.4394531-.2402344.4804688-.6000977.8007812-1.1601562.8007812-.6396484,0-1.199707-.5214844-1.199707-1.2011719,0-2.359375,12.6777344-15.3964844,14.8374023-15.3964844.6401367,0,1.2001953.5996094,1.2001953,1.2402344,0,.4785156-.2402344.7597656-.6000977,1.0390625-1.7197266,1.2792969-3.1992188,2.4804688-4.7192383,3.8789062,3.159668.3613281,10.3583984,1.8007812,12.3979492,4.359375.2001953.2402344.3198242.4804688.3198242.8007812,0,1.1992188-4.559082,5.9980469-5.4389648,6.9589844Z"/>
      <path class="cls-1" d="m262.1162109,103.4335938c-.199707.1601562-.4799805.2402344-.7197266.2402344-.6401367,0-1.199707-.5605469-1.199707-1.1992188,0-.4003906.159668-.6796875.4799805-.9609375.6796875-.5996094,1.359375-1.1191406,1.9995117-1.7988281,2.3994141-2.5996094,4.4394531-6.7597656,4.4394531-10.3574219,0-5.1992188-3.0795898-8.3203125-8.3588867-8.359375.7197266,1.0800781,1.3198242,2.6796875,1.3198242,4,0,1.71875-.3198242,3.3984375-.9199219,4.9980469-1.199707,3.1601562-4.4790039,7.71875-8.2783203,7.71875-3.7197266,0-6.3193359-3.1992188-6.3193359-6.7988281,0-7.5976562,6.9589844-12.2773438,14.0380859-12.2773438,6.6787109,0,10.8779297,4.0390625,10.8779297,10.71875,0,5.078125-3.2792969,11.1171875-7.3588867,14.0761719Zm-5.9589844-21.8359375c-.1196289-.1191406-.199707-.1601562-.2397461-.3203125-4.7993164.9609375-8.9985352,4.4394531-8.9985352,9.6386719,0,2.2792969,1.5195312,4.4003906,3.9594727,4.4003906.8398438,0,1.7993164-.6015625,2.4394531-1.0800781,2.7197266-2.1210938,4.359375-5.8398438,4.359375-9.2382812,0-1.2011719-.6801758-2.5605469-1.5200195-3.4003906Z"/>
      <path class="cls-1" d="m312.2348633,93.9160156c-.2001953.4804688-.6000977.7597656-1.1201172.7597656-.3999023,0-.7597656-.1601562-.9599609-.5195312-.8798828-.0410156-1.7592773-.0410156-2.6791992-.0410156-2.6396484,0-5.2792969.0800781-7.9189453.1601562-.0800781,2.9589844-.199707,5.8789062-.4799805,8.8378906-.1196289,1.4414062-.2397461,3.0410156-.5996094,4.4394531-.1601562.5605469-.6000977.9609375-1.199707.9609375-.6401367,0-1.2001953-.5996094-1.2001953-1.1992188,0-.0800781.0400391-.1601562.0400391-.2402344.7602539-4.1601562.8798828-8.4785156,1-12.71875-3.7192383.1210938-7.4389648.2402344-11.1181641.5605469-.1601562.4394531-.6000977.7597656-1.0795898.7597656-.3999023,0-.6801758-.1601562-.9599609-.4394531-.7597656-.6816406-.6801758-5.359375-.6801758-6.2402344v-.359375c0-2.0800781.0800781-4.1601562.2402344-6.2382812.0400391-.5214844.0800781-1.1601562.199707-1.6796875.1201172-.6015625.5600586-1.0410156,1.2001953-1.0410156.6396484,0,1.159668.5195312,1.159668,1.2011719,0,.359375-.0800781.7597656-.1201172,1.1582031,3.7592773-.5195312,7.5585938-.71875,11.3583984-.8789062.0395508-2.2792969.0795898-4.5996094.159668-6.8789062.0800781-1.1191406.0800781-2.359375.3198242-3.4394531.1201172-.5996094.5600586-1,1.2001953-1,.6396484,0,1.159668.5195312,1.159668,1.1601562v.1992188c-.4799805,3.1992188-.3598633,6.6386719-.4399414,9.8789062,2.159668-.0800781,4.3193359-.1210938,6.4790039-.1210938,1.6396484,0,5.3588867-.0390625,6.8789062.3203125.5996094.1210938.9995117.5605469.9995117,1.2011719,0,2.1992188-.9594727,9.5976562-1.8393555,11.4375Zm-21.7963867-9.9179688c-1.5600586.1191406-3.1196289.2402344-4.6391602.5195312-.0800781,1.359375-.1201172,2.71875-.1201172,4.078125,0,1.28125.0400391,2.5996094.1201172,3.9199219,3.7993164-.3203125,7.5986328-.4394531,11.3979492-.5585938l.1201172-8.4003906c-2.2797852.1210938-4.5996094.2402344-6.8789062.4414062Zm15.9570312-.640625c-2.199707,0-4.4389648.0410156-6.6787109.1191406l-.1201172,8.4003906c3.5996094-.1210938,7.1987305-.2402344,10.7983398-.1210938.6396484-2.6796875,1.0395508-5.4785156,1.2397461-8.2382812-1.7197266-.1601562-3.4794922-.1601562-5.2392578-.1601562Z"/>
      <path class="cls-1" d="m330.9980469,83.2382812c-1.9995117,3.9179688-3.2392578,9.7578125-3.2392578,14.15625,0,.8398438.0400391,1.640625.199707,2.4394531.3603516-.1191406.6801758-.3984375,1.0800781-.3984375.6396484,0,1.199707.5585938,1.199707,1.2382812,0,.4003906-.199707.7207031-.5200195.9609375-.4799805.359375-1.9594727.9199219-2.5195312.9199219-.5200195,0-.9199219-.28125-1.1196289-.7207031-.5600586-1.1601562-.6801758-3.1992188-.6801758-4.4785156,0-4.1191406,1.3598633-11.7578125,3.4794922-15.3183594.2402344-.359375.6000977-.5996094,1.0400391-.5996094.6796875,0,1.2397461.5605469,1.2397461,1.1992188,0,.2402344-.0800781.4003906-.1601562.6015625Zm18.3569336,15.4375c-1.7597656,0-7.5986328-4.640625-7.5986328-6.4804688,0-.6386719.5200195-1.1582031,1.199707-1.1582031.4799805,0,.8398438.2382812,1.0800781.6386719,1.0395508,1.8007812,3.7993164,3.9589844,5.71875,4.6796875.4799805.1992188.800293.5996094.800293,1.1191406,0,.6796875-.5600586,1.2011719-1.2001953,1.2011719Zm.6401367-13.2382812c-.6801758,0-1.199707-.5605469-1.199707-1.1992188,0-.2011719.0400391-.3613281.1196289-.5214844-.5996094-.1992188-1.5595703-.2402344-2.199707-.2402344-.9594727,0-1.9194336.0800781-2.8393555.3613281-.1201172.0390625-.2397461.0800781-.3999023.0800781-.6396484,0-1.199707-.5605469-1.199707-1.2402344,0-.5195312.3598633-.9589844.8398438-1.1191406,1.0395508-.3613281,2.6396484-.5214844,3.7192383-.5214844,1.6396484,0,4.6391602.3203125,4.6391602,2.5195312,0,.8007812-.5595703,1.8808594-1.4794922,1.8808594Z"/>
      <path class="cls-1" d="m370.6782227,105.3535156c-.6396484,0-1.199707-.5195312-1.199707-1.1601562,0-.1992188.0400391-.3984375.1601562-.5585938-.5600586-1.5996094-3.3598633-4.640625-4.7592773-5.640625-.3203125-.2382812-.5200195-.5585938-.5200195-.9980469,0-.640625.4799805-1.2011719,1.159668-1.2011719,1.1201172,0,6.559082,5.4804688,6.559082,7.9589844,0,.7597656-.5600586,1.5996094-1.3999023,1.5996094Z"/>
      <path class="cls-1" d="m433.9145508,83.3984375h-.1201172c-2.6396484-.1601562-5.2392578-.28125-7.8789062-.28125-.5996094,1.8007812-1.2001953,3.5605469-1.8798828,5.3203125h3.0400391c1.2792969,0,2.9589844-.0800781,4.1992188.0390625.6796875.0800781,1.1191406.5605469,1.1191406,1.2402344s-.5996094,1.1191406-1.2392578,1.1191406c-1.4003906,0-2.7597656-.0800781-4.1591797-.0800781-2.3203125,0-4.5996094.0410156-6.9189453.0800781v.5996094c0,1.3613281-.0400391,2.7597656-.0800781,4.1191406,2.3994141-.0390625,4.7988281-.0390625,7.1982422-.0390625,1,0,2.5595703-.2402344,2.5595703,1.2402344,0,.6796875-.6396484,1.1191406-1.2392578,1.1191406-.7597656,0-1.5195312-.0390625-2.2792969-.0390625-2.0800781,0-4.2001953.0390625-6.2792969.0800781-.0400391,2.1992188-.0800781,4.3984375-.2001953,6.6386719-.0400391.9589844-.0400391,2.1191406-.2802734,3.0390625-.1992188.7597656-.6791992.9199219-1.3989258.9199219-.5200195,0-.9599609-.7207031-.9599609-1.1601562,0-.0800781.0400391-.1601562.0400391-.2402344.199707-1.0800781.199707-2.2402344.2797852-3.359375.0800781-1.9199219.1201172-3.8789062.1601562-5.7988281-2.8393555.0800781-5.5991211.3203125-8.4384766.3203125h-.1201172c-.6401367,0-1.159668-.5195312-1.159668-1.1601562s.4399414-1.0800781,1.0395508-1.1992188c.9199219-.1601562,2-.1210938,2.9594727-.1601562,1.9199219-.0800781,3.8393555-.1210938,5.7592773-.1601562.0400391-1.359375.0800781-2.7597656.0800781-4.1601562v-.5585938c-3.7597656.0800781-7.4389648.3984375-11.1982422.3984375h-.1201172c-.6396484,0-1.159668-.5195312-1.159668-1.1582031,0-.640625.4399414-1.0410156,1.0395508-1.1601562.5600586-.0800781,1.2001953-.0800781,1.7597656-.1210938,1.5200195-.0800781,3.0395508-.1601562,4.5595703-.1992188-.6000977-1.5605469-.9599609-3.1992188-1.3198242-4.8398438l-.1201172-.3984375c-2.199707.078125-4.359375.1992188-6.559082.359375-.9199219.0800781-1.8793945.2792969-2.7993164.2792969h-.1601562c-.6396484,0-1.159668-.5605469-1.159668-1.1992188,0-.5996094.4399414-1.0410156,1.0400391-1.1191406,1.8793945-.3203125,3.8393555-.3613281,5.71875-.4804688,3.3994141-.2011719,6.8388672-.3203125,10.2382812-.4003906.1201172-1.5996094.1201172-3.2402344.1601562-4.8789062-2.2797852.0390625-4.5195312.3203125-6.7988281.3203125h-.1201172c-.6396484,0-1.199707-.5195312-1.199707-1.2011719,0-.5996094.4399414-1.0390625,1.0395508-1.1582031.7202148-.1210938,1.5600586-.1210938,2.3198242-.1601562,1.5996094-.0800781,3.2392578-.1210938,4.8393555-.1601562v-2.7207031c0-.6386719.5595703-1.1582031,1.199707-1.1582031.6391602,0,1.159668.5195312,1.159668,1.1582031,0,.8808594,0,1.8007812-.0400391,2.6796875,1.7597656-.0390625,3.4794922-.0800781,5.2392578-.0800781.9199219,0,1.9589844-.0800781,2.8388672.0800781.6005859.1210938,1.0400391.5195312,1.0400391,1.1601562,0,.6796875-.5195312,1.1992188-1.1591797,1.1992188-1.0800781,0-2.1601562-.0390625-3.2001953-.0390625-1.5996094,0-3.1992188,0-4.7988281.0390625-.0400391,1.640625-.0400391,3.2402344-.1601562,4.8808594,1.4794922,0,2.9599609-.0410156,4.4394531-.0410156,2.1191406,0,4.2392578.0410156,6.3583984.1210938,1.1201172,0,2.3603516,0,3.4394531.1992188.6005859.1191406,1,.5605469,1,1.1992188,0,.640625-.5195312,1.1601562-1.1591797,1.1210938Zm-20.3569336-.1210938c.2802734,1.3203125.9599609,4.2792969,1.6401367,5.3183594,2.1196289-.078125,4.1992188-.1191406,6.3183594-.1191406.7197266-1.7597656,1.3203125-3.5585938,1.9199219-5.359375-3.2792969,0-6.5986328.0800781-9.878418.1601562Z"/>
      <path class="cls-1" d="m475.2739258,86.5566406c-1,.0800781-2.0800781.0800781-3.0791016.1210938-2.0400391.0800781-4.0400391.1601562-6.0791016.1992188-.1601562,1.4804688-.5605469,4.5996094-1.4404297,5.7988281-.2392578.3203125-.5996094.5195312-.9990234.5195312-.640625,0-1.2001953-.5585938-1.2001953-1.1992188,0-.2402344.0800781-.4003906.2001953-.640625.6396484-1.1582031.8798828-3.1191406,1.0400391-4.3984375-.9599609,0-1.8798828.0390625-2.8398438.0800781-2.2001953.0390625-4.359375.1191406-6.5585938.1992188.1191406,3.0800781.7998047,10.7578125,4.5986328,11.7988281.5595703.1601562,1,.5605469,1,1.1601562,0,.8789062-.6796875,1.1992188-1.4394531,1.1992188-.4003906,0-1.4404297-.4804688-1.7597656-.7207031-3.7998047-2.4394531-4.6396484-9.2773438-4.7998047-13.3574219-1.7597656.0800781-3.5585938.1601562-5.3183594.3203125-1.1201172.1191406-4.8398438.4394531-5.6796875,1.359375-.2792969.3203125-.5195312.4804688-.9599609.4804688-.6396484,0-1.1992188-.5996094-1.1992188-1.2402344,0-3.078125,11.3574219-3.2382812,13.1171875-3.3183594,0-1.5605469.0400391-3.2792969.2402344-4.8398438.0800781-.5996094.5595703-1.0800781,1.1601562-1.0800781.6796875,0,1.2792969.5195312,1.2392578,1.1992188v.1210938c-.0800781,1.5195312-.2392578,3-.2392578,4.5195312,3.1992188-.1210938,6.3984375-.28125,9.5976562-.28125.0400391-.5195312.0400391-1.0800781.0400391-1.5996094,0-.6796875-.0800781-1.3984375-.0800781-2.078125,0-.640625.5605469-1.2011719,1.2001953-1.2011719,1.5195312,0,1.2792969,2.0800781,1.2792969,3.0800781,0,.5605469,0,1.1601562-.0390625,1.71875,1.9589844-.0390625,3.9589844-.1191406,5.9189453-.1992188.9589844-.0390625,1.9589844-.1191406,2.9589844-.1191406.6796875,0,1.2402344.4394531,1.2402344,1.1582031,0,.6816406-.4404297,1.2011719-1.1201172,1.2402344Z"/>
      <path class="cls-1" d="m503.8754883,82.0371094c-.6396484,0-1.2792969-.0800781-1.9189453-.0800781-1.3603516,0-2.7197266.0800781-4.0800781.1601562-.7998047,2.359375-1.7597656,4.6796875-2.7988281,6.9589844,1.1591797.1210938,2.3193359.4003906,3.4394531.8007812.6796875-.6796875,2.8388672-2.8398438,3.7988281-2.8398438.6796875,0,1.2402344.4804688,1.2402344,1.1601562,0,.4785156-.2402344.8398438-.640625,1.0800781-.7597656.4785156-1.4394531,1.078125-2.1191406,1.71875.8398438.5195312,2.6796875,1.8398438,2.6796875,2.9199219,0,.71875-.5205078,1.1992188-1.2001953,1.1992188-.4394531,0-.7998047-.1992188-1.0400391-.5605469-.5595703-.7988281-1.3193359-1.359375-2.1591797-1.7988281-1.3193359,1.4804688-3.9189453,4.7597656-3.9189453,6.8398438,0,1.1191406,1.2792969,1.2382812,2.1591797,1.2382812,1.5595703,0,3.7597656-.3984375,5.1992188-.8789062.2402344-.0800781.5195312-.1601562.7998047-.1601562.6796875,0,1.1601562.5605469,1.1601562,1.1992188,0,.5195312-.3603516,1.0410156-.8798828,1.1601562-2.0400391.4394531-4.0400391,1.0800781-6.1591797,1.0800781-2.3193359,0-4.6796875-.9199219-4.6796875-3.6386719,0-2.5996094,2.3603516-5.8398438,3.9599609-7.7597656-1.2402344-.359375-2.3203125-.4394531-3.5595703-.4394531-.6796875,0-1.2402344-.5195312-1.2402344-1.1601562,0-.3203125.1201172-.5605469.2802734-.8007812,1-1.5195312,2.3994141-5.3183594,3.0390625-7.078125-1.0791016.1210938-2.1591797.2402344-3.1992188.4394531l-1.1992188.28125c-.0800781,0-.2402344.0390625-.3203125.0390625-.6396484,0-1.2001953-.5585938-1.2001953-1.1992188,0-.5605469.4003906-1,.9199219-1.1601562,1.7998047-.5195312,4-.6796875,5.8388672-.8789062.2802734-.8808594.5205078-1.7597656.6005859-2.6796875.0800781-.6796875.5595703-1.1210938,1.2392578-1.1210938.7197266,0,1.1601562.640625,1.1601562,1.28125,0,.7597656-.2402344,1.5996094-.4404297,2.3183594,1.1201172-.0800781,2.2402344-.1191406,3.3603516-.1191406,1.0390625,0,3.0390625-.2011719,3.0390625,1.2792969,0,.640625-.5195312,1.1992188-1.1601562,1.1992188Z"/>
      <path class="cls-1" d="m548.5551758,83.2773438c-.6396484.4804688-2.3994141,4.2402344-2.7998047,5.0800781-2.5996094,5.4375-6.1992188,12.7578125-11.078125,16.4355469-.2001953.1601562-.4394531.28125-.7197266.28125-.6396484,0-1.2001953-.5605469-1.2001953-1.1992188,0-.4003906.1601562-.6816406.4404297-.9199219.8798828-.8007812,1.7197266-1.5214844,2.5195312-2.4003906,3.359375-3.8398438,5.6386719-8.6777344,7.8789062-13.2382812.6796875-1.359375,1.3193359-2.71875,2.0390625-4.0390625-1.7197266-.0390625-3.4394531-.0800781-5.1591797-.0800781-4.9189453,0-10.6777344.0800781-15.4775391,1.2792969-.1191406.0410156-.1992188.0410156-.3193359.0410156-.6796875,0-1.2001953-.5605469-1.2001953-1.1992188,0-.6015625.3603516-.9199219.8798828-1.1210938.5605469-.1992188,1.2402344-.3203125,1.7998047-.4003906,4.7197266-.8789062,9.6386719-.9980469,14.3974609-.9980469,1.7197266,0,3.3994141.0390625,5.0791016.0800781.7998047.0390625,1.6396484,0,2.4394531.078125.640625.0800781,1.1601562.5214844,1.1601562,1.2011719,0,.5585938-.2802734.7988281-.6796875,1.1191406Zm3.0791016-3.4785156c-2.0390625,0-3.4794922-1.640625-3.4794922-3.640625,0-2.3183594,2.2402344-5.0390625,4.6396484-5.0390625,2.0390625,0,3.7197266,2.0410156,3.7197266,4,0,2.3984375-2.5205078,4.6796875-4.8798828,4.6796875Zm1.1601562-6.3203125c-.7197266,0-1.7998047,1.0800781-2.0400391,1.7207031-.1601562.0800781-.2392578.71875-.2392578.9199219,0,.6386719.3994141,1.3203125,1.1191406,1.3203125,1.0400391,0,2.5195312-1.2402344,2.5195312-2.3203125,0-.640625-.6396484-1.640625-1.359375-1.640625Z"/>
      <path class="cls-1" d="m588.3149414,86.4375c-.7998047,2.0800781-10.8378906,15.8769531-12.6376953,17.5566406-.2402344.2402344-.5195312.359375-.8798828.359375-.6796875,0-1.2001953-.4785156-1.2001953-1.1601562,0-.359375.1201172-.5585938.3603516-.8398438l1.4394531-1.6386719c3.359375-4.1601562,6.7988281-9.078125,9.71875-13.5585938-1.8798828-.0800781-3.7197266-.1191406-5.5996094-.1191406-2.5996094,0-8.6376953,0-10.9980469,1.3203125-.2392578.1191406-.3994141.1992188-.6796875.1992188-.6396484,0-1.1992188-.5195312-1.1992188-1.1992188,0-2.8808594,11.4375-2.7207031,12.8769531-2.7207031,1.7998047,0,3.5595703.0410156,5.359375.1210938.7597656,0,1.5996094,0,2.359375.0800781.640625.0800781,1.1601562.4785156,1.1601562,1.1601562,0,.1582031-.0400391.3183594-.0800781.4394531Zm-3.1591797-6.7988281c-.0800781,0-.2001953-.0410156-.2802734-.0410156-2.7197266-.5195312-5.5585938-.5585938-8.3183594-.5585938-1.2802734,0-4.5595703,0-5.71875.359375-.1201172.0390625-.2802734.0800781-.4003906.0800781-.6796875,0-1.2392578-.5195312-1.2392578-1.1992188,0-.5214844.3193359-.9609375.7998047-1.1601562,1.0390625-.4414062,4.9189453-.4804688,6.1582031-.4804688,2.1201172,0,7.359375.0800781,9.2792969.640625.5195312.1601562.9189453.5996094.9189453,1.1582031,0,.640625-.5595703,1.2011719-1.1992188,1.2011719Z"/>
      <path class="cls-1" d="m628.9946289,101.3945312c-.1591797,0-.3193359-.0390625-.4794922-.1191406-2.7998047-1.28125-8.0390625-5.8398438-10.0380859-8.2402344-2.1201172,2.0410156-4.2792969,4.1191406-6.2392578,6.359375-.4794922.5195312-.9199219,1.0410156-1.359375,1.5996094-.2802734.3203125-.4804688.6796875-.7607422,1-.2792969.3203125-.5595703.5195312-.9990234.5195312-.640625,0-1.2001953-.5996094-1.2001953-1.2382812,0-.2402344.0800781-.4804688.2001953-.6816406.8798828-1.359375,2.1191406-2.6777344,3.2392578-3.8789062,2.2392578-2.359375,4.5996094-4.6386719,6.9589844-6.8789062,1.6396484-1.5585938,6.5986328-6.1582031,7.5585938-7.9179688-1.7998047-.8808594-6.3193359-1.0800781-8.3183594-1.0800781-2.2802734,0-5.359375.1191406-7.4785156.9589844-.1601562.0800781-.3203125.1210938-.4804688.1210938-.6396484,0-1.2001953-.5605469-1.2001953-1.1992188,0-.5214844.3203125-.8808594.7607422-1.1210938,1.7597656-.9199219,6.4785156-1.1601562,8.4785156-1.1601562,2.0390625,0,10.7578125.0800781,10.7578125,3.2402344,0,1.7988281-3.5595703,5.1601562-4.71875,6.3183594l-3.4794922,3.4003906c1.9189453,2.3183594,5.2392578,5.1582031,7.7587891,6.7988281.5195312.3203125,1.0390625.5996094,1.5595703.8789062.4394531.2402344.7197266.5996094.7197266,1.1210938,0,.6386719-.5595703,1.1992188-1.2402344,1.1992188Z"/>
      <path class="cls-1" d="m674.394043,78.3574219h-.2001953c-3.7988281-.6386719-7.6386719-.9589844-11.5175781-1.078125v1.1582031c0,1.28125-.0400391,2.5605469-.1601562,3.8398438,2.359375,1.5605469,3.5996094,4.359375,3.5996094,7.1582031,0,5.8398438-2.6396484,13.71875-6.8388672,17.8378906-.2402344.2402344-.5205078.359375-.8398438.359375-.640625,0-1.2001953-.5585938-1.2001953-1.1992188,0-.3203125.1201172-.5996094.3603516-.8398438.6796875-.8007812,1.359375-1.5605469,1.9589844-2.4394531,2.4794922-3.6796875,4.1992188-9.2382812,4.1992188-13.71875,0-1.5585938-.5595703-3.1582031-1.5996094-4.3183594-.7197266,4.3984375-2.8388672,13.1972656-8.5986328,13.1972656-3.6386719,0-4.8789062-3.5195312-4.8789062-6.5976562,0-4.640625,3.7597656-10.8789062,8.8789062-10.8789062.8798828,0,1.7998047.1191406,2.6396484.359375.0400391-.9589844.0800781-1.9589844.0800781-2.9179688v-1.0410156h-1.2402344c-6.1191406-.0390625-12.9179688.359375-18.8769531,1.9199219-.1201172.0390625-.1601562.0390625-.2802734.0390625-.6396484,0-1.1992188-.5585938-1.1992188-1.1992188,0-.5585938.359375-.9589844.8798828-1.1191406,1.1992188-.4003906,2.5595703-.5996094,3.7988281-.8007812,5.3193359-.9199219,10.7587891-1.2382812,16.1171875-1.2382812h.640625c-.0800781-.7617188-.4404297-2.1210938-.4404297-2.6796875,0-.640625.5605469-1.2011719,1.2402344-1.2011719.5996094,0,.9599609.3613281,1.1191406.9199219.2802734.9199219.3603516,2.0410156.4804688,3,2.7998047.1191406,5.5986328.3203125,8.3984375.640625,1.2001953.1191406,2.5195312.2402344,3.6796875.5195312.5595703.1191406.9599609.5605469.9599609,1.1601562,0,.6386719-.5205078,1.1582031-1.1601562,1.1582031Zm-16.8369141,4.8808594c-3.7597656,0-6.4794922,5.1992188-6.4794922,8.4785156,0,1.6386719.3603516,4.1992188,2.4794922,4.1992188,4.2392578,0,5.9990234-9.1582031,6.3994141-12.2792969-.7597656-.2792969-1.5996094-.3984375-2.3994141-.3984375Z"/>
      <path class="cls-1" d="m704.2758789,98.3144531c-1.2001953,3.640625-4.5996094,6.0390625-8.3984375,6.0390625-2.6396484,0-4.8798828-1.9199219-4.8798828-4.6386719,0-3.8789062,4.5595703-4.8789062,7.6386719-4.8789062,1.2402344,0,2.4804688.1191406,3.6796875.4394531-.2001953-2.4394531-3.8789062-6.4394531-6.1591797-7.1582031-.5595703-.2011719-.9589844-.5605469-.9589844-1.1601562s.2792969-.8808594.7597656-1.1191406c1.1591797-.640625,5.1191406-5.9199219,5.6787109-7.2402344-.7998047-.7988281-2.6796875-1.2382812-3.7197266-1.5585938-.5595703-.1601562-.9199219-.5996094-.9199219-1.2011719,0-.6386719.5205078-1.1582031,1.1601562-1.1582031.1201172,0,.2402344,0,.3203125.0390625,1.7197266.4003906,5.5986328,1.5605469,5.5986328,3.7988281,0,1.7597656-4.1591797,6.7988281-5.5185547,8.1601562,2.6787109,1.7988281,6.1582031,5.4375,6.1582031,8.8769531,0,.2402344-.0400391.4804688-.0400391.7207031.2802734.1992188.4404297.5605469.4404297.8789062,0,.5214844-.3603516,1-.8398438,1.1601562Zm-5.6787109-1.1191406c-1.5205078,0-5.2392578.4003906-5.2392578,2.5195312,0,1.4003906,1.1992188,2.2792969,2.5195312,2.2792969,2.7988281,0,5.1591797-1.71875,6.0791016-4.359375-1.0800781-.3203125-2.2402344-.4394531-3.359375-.4394531Z"/>
      <path class="cls-1" d="m738.1166992,81.9570312c-1.5195312,0-3.0390625-.0800781-4.5195312-.0800781-2.9589844,0-5.9189453.0800781-8.8779297.28125-1.3603516.1191406-2.7998047.2402344-4.1591797.5195312-.0800781.0390625-.1601562.0390625-.2402344.0390625-.6396484,0-1.1201172-.5195312-1.1201172-1.1191406,0-.5605469.4003906-.9589844.9199219-1.0800781,1.3603516-.359375,2.9599609-.4394531,4.359375-.5585938,3.0400391-.28125,6.1191406-.3613281,9.1582031-.3613281,1.2402344,0,3.3994141-.0390625,4.5996094.1210938.6396484.0800781,1.0400391.5195312,1.0400391,1.1601562,0,.6386719-.5605469,1.078125-1.1601562,1.078125Zm-3.8388672,5.5996094c-.1601562,0-.2802734-.0390625-.4003906-.0800781-.7597656-.1992188-1.6796875-.1601562-2.4394531-.1601562-1.3203125,0-4.7197266.0800781-5.8789062.4394531-.1201172.0410156-.2402344.0800781-.4003906.0800781-.5996094,0-1.1191406-.4785156-1.1191406-1.1191406,0-.4804688.3193359-.8789062.7597656-1.0390625,1.1191406-.4414062,5.0791016-.5605469,6.3984375-.5605469.7597656,0,2.7197266,0,3.3994141.2792969.4404297.1601562.7597656.5605469.7597656,1.0800781,0,.5996094-.4794922,1.0800781-1.0791016,1.0800781Zm.1191406,4.8789062h-.1992188c-.6005859-.0800781-1.2001953-.0800781-1.7998047-.0800781-1.7197266,0-3.4794922.0800781-5.1591797.2402344-.5605469.0800781-1.2001953.2402344-1.7197266.2792969h-.2802734c-.6396484,0-1.1201172-.4785156-1.1201172-1.1191406,0-.5195312.3603516-.9199219.8408203-1.0800781,1.71875-.4785156,5.4785156-.5585938,7.3183594-.5585938.9599609,0,3.2392578-.2402344,3.2392578,1.2382812,0,.6015625-.5195312,1.0800781-1.1201172,1.0800781Zm-2.0390625,11.9179688c-1.7998047,0-3.7197266-.0390625-5.5195312.28125v.1582031c.0400391.6015625-.4794922,1.1210938-1.0791016,1.1210938-.5205078,0-.9199219-.359375-1.0800781-.8398438-.2402344-.8007812-.2402344-2.7597656-.2402344-3.640625,0-1.71875-.0400391-3.6777344.2001953-5.3984375.0800781-.5605469.5195312-1,1.1201172-1,.4794922,0,.9189453.3203125,1.0390625.8007812,1.3203125-.1601562,2.6796875-.2402344,4-.2402344.6796875,0,2.3193359.0390625,2.9589844.2792969.6796875.28125.7197266.8007812.7197266,1.4394531,0,1.5996094-.1992188,3.2792969-.5996094,4.8398438.4794922.1191406.8398438.5605469.8398438,1.0390625,0,1.3613281-1.4394531,1.1601562-2.359375,1.1601562Zm-.5996094-25.234375c-.640625,0-.9599609-.4414062-1.1201172-1-.2001953-.7597656-2.6396484-2.359375-3.3994141-2.6796875-.4404297-.2011719-.7197266-.5605469-.7197266-1.0410156,0-.5996094.4794922-1.1601562,1.1191406-1.1601562.1201172,0,.2402344.0410156.3603516.0800781,1.4794922.5214844,4.8789062,3,4.8789062,4.6796875,0,.640625-.4794922,1.1210938-1.1191406,1.1210938Zm-1,18.7167969c-1.3203125,0-2.7197266,0-4,.2792969-.0800781,1.0800781-.0800781,2.1191406-.0800781,3.1992188v1.1191406c1.6005859-.2792969,3.2802734-.2792969,4.9199219-.3183594.3994141-1.3613281.5595703-2.8398438.6396484-4.2402344-.4794922-.0390625-1-.0390625-1.4794922-.0390625Zm23.8359375,8.3574219c-1.3603516,0-6.7587891-4.359375-7.9189453-5.359375-1.9599609,2.0800781-4.2392578,4.0390625-7.0390625,4.8007812-.0800781.0390625-.1601562.0390625-.2392578.0390625-.6005859,0-1.1601562-.4804688-1.1601562-1.1191406,0-.5214844.3994141-.8808594.8798828-1.0410156,2.359375-.6796875,4.2392578-2.4394531,5.9189453-4.1582031-1.4394531-1.3203125-3.1191406-2.8398438-4.359375-4.3203125-.2001953-.2402344-.2802734-.4804688-.2802734-.7597656,0-.6386719.4804688-1.1191406,1.1201172-1.1191406.3203125,0,.5595703.1191406.7998047.359375.4804688.4394531.9199219.9609375,1.4003906,1.4394531.9189453.9199219,1.8388672,1.8398438,2.7988281,2.7207031,1.5595703-1.8398438,3.1601562-3.8808594,4.2792969-6.0390625-.9599609-.0410156-1.9199219-.0800781-2.9189453-.0800781-2.5595703,0-5.2392578.0390625-7.7587891.5585938-.0800781,0-.1601562.0410156-.2402344.0410156-.5996094,0-1.1201172-.5195312-1.1201172-1.1191406,0-.5605469.3603516-.9199219.8798828-1.0800781,2.0800781-.5605469,6.3193359-.640625,8.5185547-.640625,1.0800781,0,3.5195312-.0390625,4.5195312.2402344.5195312.1191406.9199219.5605469.9199219,1.0800781,0,1.6386719-4.3193359,7.2792969-5.3994141,8.5585938,1.6396484,1.4394531,3.3994141,2.8398438,5.2392578,3.9980469.5595703.3613281,1.1201172.640625,1.6796875.9609375.3603516.1992188.5996094.5195312.5996094.9589844,0,.5996094-.5195312,1.0800781-1.1191406,1.0800781Zm-2.0800781-19.1171875c-3.0390625,0-3.3193359-1.9980469-3.3193359-4.5175781,0-1.9199219.2402344-3.8007812.4003906-5.7207031-.4804688-.0390625-.9599609-.0390625-1.4404297-.0390625-1.6796875,0-3.4394531.0800781-5.0791016.359375-.5595703,2.7597656-1.1992188,6.2792969-1.1992188,9.078125,0,.6015625-.5205078,1.1210938-1.1201172,1.1210938s-1.1201172-.5195312-1.1201172-1.1210938c0-2.7597656,1.0800781-9.8378906,2-12.4375.1601562-.4394531.5595703-.7988281,1.0400391-.7988281.5996094,0,1.1191406.5585938,1.1191406,1.1582031,0,.2011719-.0791016.4414062-.1591797.640625,1.5195312-.1601562,3.0390625-.2402344,4.5185547-.2402344.9599609,0,2,0,2.9199219.2011719.5195312.1191406.8798828.5195312.8798828,1.078125v.2011719c-.3203125,2.1191406-.5205078,4.3183594-.5205078,6.4785156,0,.5195312,0,1.640625.2001953,2.1191406.2402344.1601562.5605469.2011719.8398438.2011719,1.5595703,0,3.0800781-1.0800781,3.5595703-1.0800781.5996094,0,1.1601562.4804688,1.1601562,1.1191406,0,1.4394531-3.5595703,2.1992188-4.6796875,2.1992188Z"/>
      <path class="cls-1" d="m775.7172852,83.2773438c-2.3193359,0-4.6796875.1210938-6.9990234.2402344-2.8798828.1601562-5.7587891.359375-8.5986328.9589844-.0800781,0-.2402344.0410156-.3193359.0410156-.640625,0-1.1601562-.5195312-1.1601562-1.1601562,0-.5605469.3203125-.9589844.8398438-1.1191406.8398438-.28125,1.7998047-.3613281,2.6796875-.4804688,4.3994141-.5996094,8.9580078-.8007812,13.3974609-.8007812,1.0400391,0,3.0400391-.3183594,3.0400391,1.2402344,0,1.4394531-1.9599609,1.0800781-2.8798828,1.0800781Zm-3.0400391,5.2792969c-1.4394531,0-5.4384766.1191406-6.6787109.5195312-.1201172.0410156-.2392578.0800781-.3994141.0800781-.6396484,0-1.1601562-.5195312-1.1601562-1.1601562,0-.4785156.3203125-.8789062.7597656-1.0800781,1.3203125-.5585938,5.7587891-.6796875,7.3193359-.6796875.8398438,0,2.0390625,0,2.0390625,1.2011719,0,1.1992188-1.0400391,1.1191406-1.8798828,1.1191406Zm1.4804688,15.6777344c-2.2001953,0-4.5195312.1601562-6.71875.4003906,0,.5996094-.4804688,1.1992188-1.1201172,1.1992188-.5195312,0-.9599609-.3203125-1.1201172-.8007812-.4794922-1.3183594-.5195312-4.5585938-.4794922-5.9980469v-1.5195312c0-.8398438,0-1.8398438,1.1591797-1.8398438.3603516,0,.640625.1992188.8798828.4394531,1.2001953-.4804688,3.2802734-.5996094,4.5595703-.5996094,1,0,3.3994141-.0800781,3.3994141,1.4003906,0,1.6386719-.2402344,3.3984375-.5996094,4.9980469.6396484,0,1.1992188.4804688,1.1992188,1.1601562,0,.640625-.5195312,1.1601562-1.1591797,1.1601562Zm-.7197266-10.9589844c-2.0800781.1601562-4.9199219.0800781-6.9189453.5996094-.1201172.0410156-.2402344.0410156-.4003906.0410156-.6396484,0-1.1591797-.4804688-1.1591797-1.1601562,0-.5195312.3193359-.9199219.7998047-1.0800781,1.0390625-.4003906,6.2783203-.71875,7.5986328-.71875.5996094,0,1.1992188.4785156,1.1992188,1.1191406,0,.6796875-.4394531,1.1601562-1.1191406,1.1992188Zm-2.2802734,4.5605469c-1.1591797,0-2.5195312.0390625-3.6386719.4394531-.1601562.0800781-.3203125.0800781-.4804688.0800781v.71875c0,1.1210938,0,2.2402344.0800781,3.3203125,1.5195312-.1992188,3.0791016-.2792969,4.5996094-.359375.3994141-1.3203125.5195312-2.8007812.6396484-4.1601562-.4003906-.0390625-.7998047-.0390625-1.2001953-.0390625Zm-.4794922-18.1171875c-.6796875,0-1.0800781-.5214844-1.1201172-1.1601562-.0400391-.6796875-1.0400391-2.0390625-1.5195312-2.5195312-.2402344-.2402344-.4003906-.5195312-.4003906-.8808594,0-.6386719.5605469-1.1191406,1.2001953-1.1191406,1.3193359,0,2.9990234,3.359375,2.9990234,4.5195312,0,.6386719-.5195312,1.1601562-1.1591797,1.1601562Zm25.1552734,7.0390625c-.6396484,0-1.2792969-.0800781-1.9189453-.0800781-1.9599609,0-3.9599609.0390625-5.9189453.1191406v8.1992188c0,2.359375,0,4.71875-.0400391,7.0390625,0,1.3183594.0400391,2.71875-.0800781,3.9980469-.0800781.6796875-.5605469,1.1210938-1.2402344,1.1210938s-1.0800781-.640625-1.0800781-1.2402344c0-.7597656.0800781-1.5605469.0800781-2.359375.0400391-1.8808594.0400391-3.7207031.0400391-5.5996094v-11.078125c-1.359375.0800781-7.1582031.3203125-8.1982422.6796875-.1601562.0800781-.2001953.0800781-.4003906.0800781-.6396484,0-1.1992188-.4804688-1.1992188-1.1191406,0-.5195312.2792969-.9199219.7597656-1.1210938,1.0400391-.4785156,7.7988281-.7597656,9.078125-.8398438,0-2.2792969-.0400391-10.3574219.5605469-12.3164062.1591797-.5214844.5996094-.8808594,1.1191406-.8808594.6396484,0,1.2001953.5195312,1.2001953,1.1601562,0,.1191406-.0400391.1992188-.0400391.2792969-.3203125,1.4394531-.3203125,3.0390625-.3603516,4.5195312-.1201172,2.4003906-.1601562,4.7597656-.1601562,7.1582031,2-.0390625,4-.1191406,6.0390625-.1191406.9199219,0,2.9199219-.2402344,2.9199219,1.2402344,0,.6386719-.5595703,1.1601562-1.1601562,1.1601562Z"/>
      <path class="cls-1" d="m824.4360352,92.8359375c-.5605469.7207031-1.1601562,1.5996094-1.9599609,1.5996094-.6796875,0-1.2001953-.5605469-1.2001953-1.1992188,0-.4003906.1601562-.640625.4404297-.9199219,1.2392578-1.1992188,3.8789062-5.6796875,3.8789062-7.359375,0-.6796875-2.0390625-.8789062-2.5595703-1-2.1591797-.4394531-3.9589844-.7988281-5.5585938-2.4394531-.2802734,5.2402344-.4404297,10.5976562-1.1201172,15.796875.4804688,0,.8398438.7207031.8398438,1.1601562,0,.5605469-.2802734.8808594-.7597656,1.1210938-.7597656.3984375-1.4394531,1.1191406-2.0800781,1.5996094-1.71875,1.359375-3.359375,2.7578125-5.0791016,4.0390625-.2392578.1992188-.4394531.2792969-.7597656.2792969-.6396484,0-1.1992188-.5605469-1.1992188-1.1992188,0-.7597656,1-1.359375,1.5996094-1.8398438l2.5195312-2.0390625c.6796875-.5605469,2.1591797-1.8398438,2.8798828-2.2402344-.2402344-.2402344-.3603516-.5195312-.3603516-.8808594v-.1992188c.4794922-3.4394531.6396484-6.9589844.8398438-10.3984375.2402344-3.8398438.5195312-7.7578125.5195312-11.5976562,0-.640625.5605469-1.1992188,1.2001953-1.1992188,1.1201172,0,1.2001953.8789062,1.2001953,1.71875,0,2,.5595703,3.8398438,2.359375,4.9199219,2.2792969,1.3984375,7.9580078.7597656,7.9580078,4.3183594,0,2.2792969-2.2392578,6.1601562-3.5986328,7.9589844Z"/>
    </g>
  </g>
</svg>