<?xml version="1.0" encoding="UTF-8"?>
<svg id="_レイヤー_2" data-name="レイヤー 2" xmlns="http://www.w3.org/2000/svg" viewBox="0 0 165 55">
  <defs>
    <style>
      .cls-1 {
        fill: none;
      }

      .cls-1, .cls-2 {
        stroke-width: 0px;
      }

      .cls-2 {
        fill: #fff;
      }
    </style>
  </defs>
  <g id="_レイヤー_1-2" data-name="レイヤー 1">
    <g>
      <g>
        <g>
          <g>
            <path class="cls-2" d="m87.1318359,8.4980469c.0283203-.0439453.0791016-.1171875.1513672-.2197266s.1367188-.1796875.1953125-.2314453c.0566406-.0507812.1152344-.0771484.1738281-.0771484.0859375,0,.2626953.1064453.5302734.3193359.2666016.2128906.5126953.4394531.7363281.6816406s.3359375.4150391.3359375.5175781c-.1728516.1904297-.4765625.3447266-.9101562.4619141v5.9404297c.0283203,1.8183594.0869141,3.5410156.1728516,5.1699219-.1005859.1318359-.2890625.2636719-.5625.3955078-.2744141.1318359-.5195312.1982422-.7363281.1982422-.1884766,0-.2822266-.1464844-.2822266-.4404297.0146484-.0439453.0253906-.0908203.0322266-.1425781.0078125-.0517578.0185547-.1064453.0332031-.1650391v-.3964844h-2.0800781v5.1923828c0,.1757812.0507812.2861328.1513672.3300781s.3388672.0654297.7158203.0654297h2.1015625c1.1259766,0,1.7832031-.0068359,1.9707031-.0214844.1308594-.0146484.2207031-.0400391.2714844-.0771484.0498047-.0361328.0976562-.1132812.140625-.2314453.0722656-.1757812.1660156-.5566406.28125-1.1435547s.2304688-1.2021484.3466797-1.8476562h.3037109l.0429688,3.1015625c.2167969.0732422.3613281.1542969.4335938.2421875s.1083984.2119141.1083984.3740234c0,.234375-.1015625.4179688-.3037109.5498047s-.5820312.2275391-1.1367188.2861328c-.5566406.0585938-1.3837891.0878906-2.4814453.0878906h-2.2958984c-.5498047,0-.9648438-.0439453-1.2460938-.1318359s-.4736328-.2314453-.5742188-.4287109c-.1015625-.1982422-.1523438-.4882812-.1523438-.8691406v-5.4785156h-2.3613281c-.2167969,1.4824219-.6386719,2.703125-1.2675781,3.6630859-.6279297.9609375-1.5097656,1.7353516-2.6425781,2.3212891-1.1347656.5859375-2.6035156,1.0410156-4.4091797,1.3642578l-.0869141-.3525391c1.53125-.4394531,2.765625-.9609375,3.7050781-1.5615234.9384766-.6015625,1.6572266-1.3388672,2.15625-2.2109375.4980469-.8730469.8339844-1.9472656,1.0068359-3.2236328h-1.90625v.8808594c0,.0878906-.1201172.1904297-.3583984.3076172s-.4941406.1757812-.7685547.1757812c-.1162109,0-.2197266-.0439453-.3134766-.1318359-.0947266-.0878906-.1416016-.1904297-.1416016-.3085938.0576172-.8496094.1044922-1.6933594.1416016-2.5292969.0351562-.8359375.0605469-1.8847656.0751953-3.1464844v-3.0576172c0-1.8486328-.0947266-3.3515625-.2822266-4.5107422l1.7558594.8144531h8.8828125l.3466797-.5058594Zm-.1298828,4.0703125v-2.9042969h-9.2080078v2.9042969h9.2080078Zm-9.2080078,3.6074219h9.2080078v-2.9697266h-9.2080078v2.9697266Zm9.2080078.6601562h-9.2080078v3.0136719h9.2080078v-3.0136719Z"/>
            <path class="cls-2" d="m110.4003906,14.9658203c.0585938-.0576172.1484375-.1611328.2714844-.3076172.1220703-.1464844.2265625-.2207031.3144531-.2207031.1289062,0,.4003906.2421875.8125.7265625.4111328.484375.6171875.8066406.6171875.9677734-.0869141.0732422-.1953125.125-.3251953.1542969s-.3173828.0517578-.5634766.0654297c-.7080078.5869141-1.8710938,1.2988281-3.4882812,2.1347656l.1298828.0214844c-.0429688.3085938-.2744141.4921875-.6923828.5507812v1.5390625h5.7402344l.4765625-.6816406c.0439453-.0585938.1162109-.1572266.2167969-.296875.1015625-.1396484.1845703-.2421875.25-.3085938.0644531-.0654297.1259766-.0986328.1835938-.0986328.0869141,0,.28125.1210938.5849609.3632812s.5888672.4990234.8564453.7695312c.2666016.2724609.4003906.4589844.4003906.5615234-.0585938.234375-.2382812.3515625-.5410156.3515625h-8.1679688v4.4667969c0,.46875-.0585938.8427734-.1738281,1.1210938-.1162109.2792969-.3505859.5097656-.7050781.6933594-.3535156.1835938-.8847656.3115234-1.5917969.3847656-.0429688-.2636719-.1083984-.4804688-.1953125-.6484375-.0859375-.1689453-.2167969-.3125-.3896484-.4296875-.3759766-.2490234-1.0976562-.4541016-2.1669922-.6152344v-.3300781c1.8496094.1318359,2.9394531.1972656,3.2714844.1972656.203125,0,.34375-.0332031.4228516-.0986328s.1191406-.1943359.1191406-.3847656v-4.3564453h-5.1777344c-1.0263672.0146484-2.109375.1171875-3.25.3085938l-.5634766-1.1445312c.7949219.0878906,1.7548828.1464844,2.8818359.1757812h6.109375c0-.9970703-.0507812-1.8105469-.1513672-2.4414062l1.2998047.2421875c1.0107422-.8505859,1.8193359-1.6064453,2.4267578-2.2666016h-5.265625c-1.0253906.0146484-2.1083984.1181641-3.2490234.3076172l-.5849609-1.1210938c.7939453.0878906,1.7548828.1464844,2.8808594.1757812h6.5429688l.4335938-.5283203Zm3.7265625-3.0361328c.0576172-.0585938.1484375-.1611328.2714844-.3076172.1220703-.1464844.2265625-.2197266.3144531-.2197266.0859375,0,.2626953.1210938.5302734.3632812.2666016.2412109.5166016.5019531.7470703.7802734s.3476562.4697266.3476562.5722656c-.0732422.0878906-.1669922.1425781-.2822266.1650391-.1162109.0214844-.2890625.0400391-.5205078.0546875-.3457031.3964844-.7910156.8330078-1.3320312,1.3085938-.5410156.4775391-1.0507812.8691406-1.5273438,1.1777344l-.2167969-.1757812c.5341797-.9980469.9453125-1.8632812,1.234375-2.5966797h-13.7353516c.0146484.7041016-.0908203,1.3173828-.3144531,1.8369141-.2236328.5214844-.5019531.90625-.8339844,1.1552734-.3037109.2353516-.5996094.3525391-.8876953.3525391-.2890625,0-.4990234-.1103516-.6289062-.3300781-.0429688-.1171875-.0644531-.2275391-.0644531-.3300781,0-.3378906.1796875-.6308594.5410156-.8808594.4619141-.2929688.8417969-.8027344,1.1376953-1.5283203s.4072266-1.4990234.3349609-2.3212891l.3691406-.0214844c.1582031.5722656.2597656,1.0556641.3027344,1.4511719h9.2949219c.0576172-.0878906.1269531-.1933594.2060547-.3183594s.1689453-.2675781.2705078-.4296875c.375-.6152344.7363281-1.3125,1.0839844-2.0898438.3457031-.7773438.5917969-1.4589844.7363281-2.0458984.8085938.3232422,1.3720703.5693359,1.6894531.7373047.3183594.1689453.4765625.296875.4765625.3847656,0,.0585938-.0722656.1103516-.2167969.1542969l-.4111328.109375c-.3896484.5585938-.8662109,1.1523438-1.4296875,1.7822266-.5634766.6308594-1.1416016,1.203125-1.7333984,1.7158203h3.8349609l.4111328-.5058594Zm-13.5625-3.828125c1.0253906.4111328,1.7792969.8984375,2.2636719,1.4628906.484375.5654297.7265625,1.0976562.7265625,1.5957031,0,.2783203-.0683594.5019531-.2060547.6708984s-.3076172.2529297-.5087891.2529297c-.1884766,0-.3769531-.0732422-.5644531-.2197266-.0859375-.5576172-.3203125-1.1767578-.703125-1.859375-.3828125-.6816406-.7988281-1.2646484-1.2460938-1.7490234l.2382812-.1542969Zm4.6367188-.3955078c.9384766.4697266,1.625.9902344,2.0585938,1.5615234.4326172.5722656.6494141,1.1152344.6494141,1.6289062,0,.3076172-.0722656.5605469-.2167969.7587891s-.3251953.296875-.5419922.296875-.4257812-.0947266-.6279297-.2861328c-.0146484-.6015625-.1767578-1.2578125-.4873047-1.96875s-.6757812-1.3242188-1.09375-1.8369141l.2597656-.1542969Z"/>
            <path class="cls-2" d="m136.2480469,8.8066406c.0722656-.0742188.1738281-.1835938.3037109-.3300781s.2382812-.2207031.3251953-.2207031c.1298828,0,.4179688.2568359.8671875.7705078.4472656.5126953.6708984.8505859.6708984,1.0117188-.0869141.0732422-.1982422.125-.3359375.1542969s-.3349609.0517578-.5957031.0654297c-.6494141.4550781-1.5205078.9570312-2.6103516,1.5078125-1.0908203.5488281-2.1699219,1.0449219-3.2392578,1.484375.5917969.3818359,1.0253906.7695312,1.2998047,1.1660156s.4121094.7626953.4121094,1.0996094c0,.2646484-.0800781.4628906-.2382812.5947266h5.0039062l.4335938-.484375c.0429688-.0439453.1308594-.1357422.2597656-.2744141.1308594-.1396484.2460938-.2089844.3476562-.2089844.1289062,0,.421875.2382812.8769531.7148438s.6826172.7949219.6826172.9570312c-.1455078.1464844-.4267578.2265625-.8447266.2421875-.5498047.6894531-1.3007812,1.4628906-2.2539062,2.3203125-.953125.8583984-1.8632812,1.5878906-2.7294922,2.1894531l-.2392578-.1757812c.5488281-.6015625,1.1455078-1.3427734,1.7880859-2.2226562s1.1728516-1.6796875,1.5927734-2.3984375h-6.2832031v8.9550781c0,.4394531-.0615234.8027344-.1835938,1.0878906-.1230469.2871094-.3730469.5244141-.7480469.7158203-.3759766.1904297-.9179688.3222656-1.625.3955078-.0429688-.484375-.2314453-.8359375-.5634766-1.0556641-.4189453-.2646484-1.1992188-.4697266-2.3398438-.6162109v-.3300781c1.9638672.1464844,3.1201172.2207031,3.4667969.2207031.2158203,0,.3681641-.0371094.4541016-.1103516.0878906-.0732422.1308594-.1982422.1308594-.3740234v-8.8886719h-5.2216797c-1.0263672.015625-2.1083984.1181641-3.25.3085938l-.5634766-1.1445312c.7949219.0878906,1.7558594.1474609,2.8818359.1767578h8.1025391c-.375-.6308594-1.0253906-1.3349609-1.9492188-2.1123047-.9248047-.7773438-1.9941406-1.4521484-3.2070312-2.0234375l.1083984-.3525391c1.5166016.3076172,2.8457031.7626953,3.9873047,1.3642578.7216797-.4550781,1.4580078-.9492188,2.2089844-1.4853516.7509766-.5351562,1.3945312-1.0371094,1.9287109-1.5068359h-7.8642578c-1.0263672.0146484-2.109375.1171875-3.25.3076172l-.5644531-1.1220703c.7949219.0878906,1.7558594.1474609,2.8828125.1757812h9.2070312l.4765625-.5488281Z"/>
            <path class="cls-2" d="m148.2519531,20.0263672c.5195312.0878906.7792969.1982422.7792969.3291016,0,.0742188-.0800781.1542969-.2382812.2421875l-.3681641.1757812c-.2890625,1.0273438-.6357422,1.9990234-1.0400391,2.9160156-.4042969.9160156-.8457031,1.6904297-1.3222656,2.3203125l-.3027344-.1972656c.1445312-.3525391.3251953-.8652344.5410156-1.5410156.2167969-.703125.4013672-1.5058594.5527344-2.4082031.1523438-.9023438.2207031-1.6533203.2060547-2.2548828l1.1923828.4179688Zm4.1376953-3.2998047c-.4052734-.71875-.7509766-1.2832031-1.0400391-1.6943359l.2382812-.1542969c.953125.5283203,1.6542969,1.0888672,2.1015625,1.6826172.4472656.5947266.671875,1.140625.671875,1.6396484,0,.2636719-.0625.4804688-.1845703.6494141-.1220703.1679688-.2783203.2519531-.4658203.2519531-.2021484,0-.3896484-.0800781-.5625-.2412109-.0585938-.4111328-.2382812-.9677734-.5429688-1.6728516-.6347656.1474609-1.2128906.2792969-1.7324219.3964844v4.5322266c.0292969,1.8183594.0859375,3.5419922.1738281,5.1699219-.1015625.1464844-.2675781.2822266-.4990234.4072266-.2314453.1240234-.4912109.1865234-.7802734.1865234-.1152344,0-.2207031-.0478516-.3144531-.1425781-.09375-.0957031-.140625-.1943359-.140625-.2978516.0585938-.8652344.109375-1.7041016.1523438-2.5185547.0429688-.8134766.0722656-1.8808594.0859375-3.2011719v-3.8496094c-.7939453.1757812-1.6816406.3515625-2.6640625.5283203-.1162109.2636719-.296875.4101562-.5419922.4394531l-.4326172-1.6503906c.4326172,0,1.1757812-.0361328,2.2304688-.109375.5351562-.8066406,1.0976562-1.7675781,1.6904297-2.8818359.3603516-.6601562.6933594-1.3681641.9970703-2.1230469.3027344-.7548828.5263672-1.4267578.671875-2.0126953,1.3134766.5566406,1.9707031.9316406,1.9707031,1.1210938,0,.0585938-.0722656.1103516-.2167969.1542969l-.3896484.1318359c-.4912109.8359375-1.1015625,1.7607422-1.8310547,2.7724609s-1.4697266,1.9433594-2.2207031,2.7939453l3.5751953-.3076172Zm-4.4414062-4.8623047c.2880859-.6455078.5517578-1.3710938.7900391-2.1787109.2382812-.8056641.4013672-1.5244141.4882812-2.1552734,1.3710938.5283203,2.0585938.8876953,2.0585938,1.078125,0,.0439453-.0654297.0947266-.1953125.1533203l-.3691406.1328125c-.9384766,1.5253906-1.7109375,2.6396484-2.3183594,3.34375.3330078.2783203.578125.5576172.7373047.8359375s.2382812.5429688.2382812.7919922c0,.2197266-.0537109.3955078-.1630859.5283203-.1074219.1318359-.2480469.1972656-.421875.1972656-.1298828,0-.2890625-.0585938-.4765625-.1757812-.1445312-.484375-.4296875-1.0039062-.8554688-1.5625-.4267578-.5566406-.8710938-1.0332031-1.3330078-1.4296875l.1953125-.1972656c.6201172.1904297,1.1552734.4248047,1.6025391.703125l.0224609-.0654297Zm3.9863281,7.8535156c.8369141.6015625,1.4443359,1.2138672,1.8193359,1.8369141.3759766.6240234.5644531,1.1923828.5644531,1.7050781,0,.3232422-.0625.5800781-.1845703.7705078-.1230469.1904297-.2861328.2861328-.4873047.2861328-.203125,0-.3984375-.0957031-.5859375-.2861328-.0429688-.6162109-.2050781-1.3095703-.4863281-2.0791016-.2822266-.7695312-.5957031-1.4853516-.9433594-2.1445312l.3037109-.0888672Zm10.8544922-7.765625c.0292969-.0439453.0791016-.1132812.1523438-.2089844.0712891-.0957031.1367188-.1650391.1943359-.2089844s.1162109-.0664062.1728516-.0664062c.0878906,0,.2607422.0996094.5205078.2978516.2597656.1972656.4990234.4101562.7148438.6376953.2167969.2275391.3251953.3925781.3251953.4951172-.1738281.1904297-.4628906.3076172-.8671875.3515625-.2021484,7.8759766-.7578125,12.3857422-1.6679688,13.5302734-.6064453.7041016-1.4589844,1.0556641-2.5566406,1.0556641,0-.5273438-.1445312-.8945312-.4335938-1.0996094-.1582031-.1328125-.4511719-.2529297-.8769531-.3632812s-.9570312-.2304688-1.5917969-.3632812l.0214844-.3955078c1.8476562.2197266,3.0039062.3300781,3.4667969.3300781.2304688,0,.4033203-.0224609.5195312-.0664062.1152344-.0439453.2451172-.1318359.3896484-.2636719.6933594-.7041016,1.1552734-4.8916016,1.3867188-12.5625h-6.3271484c-.6640625,1.3935547-1.4003906,2.5673828-2.2089844,3.5205078l-.3251953-.2207031c.5927734-1.1142578,1.1259766-2.4267578,1.6025391-3.9375.2314453-.7041016.4335938-1.5175781.6074219-2.4423828.1738281-.9238281.2675781-1.6865234.28125-2.2880859.8085938.25,1.3759766.4443359,1.7011719.5839844.3242188.1386719.4873047.2519531.4873047.3408203,0,.0585938-.0654297.1171875-.1943359.1757812l-.3691406.1533203c-.375,1.2324219-.8007812,2.3984375-1.2773438,3.4980469h5.8056641l.3466797-.4833984Zm-6.2832031,4.0917969c1.140625.6015625,1.9716797,1.2617188,2.4921875,1.9794922.5195312.7197266.7792969,1.3867188.7792969,2.0029297,0,.3222656-.0683594.5830078-.2050781.7802734-.1386719.1982422-.3144531.296875-.53125.296875s-.4189453-.0878906-.6074219-.2636719c-.0566406-.71875-.2988281-1.5136719-.7246094-2.3867188-.4267578-.8730469-.9072266-1.6318359-1.4414062-2.2773438l.2382812-.1318359Z"/>
          </g>
          <g>
            <path class="cls-2" d="m75.1289062,39.5917969c0-2.3398438,0-2.7597656-.0292969-3.2402344-.0292969-.5097656-.1484375-.75-.6357422-.8544922-.1181641-.0302734-.3691406-.0449219-.5019531-.0449219-.0595703,0-.1181641-.0302734-.1181641-.0898438,0-.0908203.0742188-.1201172.2363281-.1201172.6640625,0,1.5957031.0449219,1.6689453.0449219.1630859,0,1.2851562-.0449219,1.7431641-.0449219.9296875,0,1.9199219.0898438,2.703125.6601562.3691406.2695312,1.0195312,1.0048828,1.0195312,2.0390625,0,1.1103516-.4589844,2.2207031-1.7880859,3.4648438,1.2119141,1.5751953,2.2158203,2.9101562,3.0722656,3.8398438.7978516.8554688,1.4326172,1.0205078,1.8017578,1.0800781.28125.0449219.4882812.0449219.5761719.0449219.0742188,0,.1328125.0449219.1328125.0908203,0,.0898438-.0878906.1201172-.3535156.1201172h-1.0488281c-.828125,0-1.1972656-.0751953-1.5810547-.2851562-.6357422-.3457031-1.1513672-1.0800781-1.9931641-2.2050781-.6210938-.8251953-1.3154297-1.8300781-1.6113281-2.2197266-.0585938-.0605469-.1035156-.0908203-.1914062-.0908203l-1.8164062-.0292969c-.0742188,0-.1035156.0449219-.1035156.1201172v.359375c0,1.4404297,0,2.625.0742188,3.2548828.0429688.4355469.1328125.765625.5761719.8251953.2060547.0302734.53125.0595703.6640625.0595703.0878906,0,.1181641.0449219.1181641.0908203,0,.0751953-.0732422.1201172-.2363281.1201172-.8125,0-1.7431641-.0449219-1.8173828-.0449219-.0136719,0-.9453125.0449219-1.3886719.0449219-.1621094,0-.2363281-.0302734-.2363281-.1201172,0-.0458984.0302734-.0908203.1191406-.0908203.1328125,0,.3105469-.0292969.4433594-.0595703.2949219-.0595703.3691406-.3896484.4277344-.8251953.0742188-.6298828.0742188-1.8144531.0742188-3.2548828v-2.6396484Zm1.1816406,1.3046875c0,.0751953.0292969.1347656.1035156.1806641.2207031.1347656.9003906.2392578,1.5507812.2392578.3535156,0,.7675781-.0449219,1.1074219-.2851562.5175781-.359375.9003906-1.1699219.9003906-2.3095703,0-1.875-.9746094-2.9990234-2.5546875-2.9990234-.4433594,0-.8417969.0449219-.9902344.0898438-.0732422.0292969-.1171875.0898438-.1171875.1796875v4.9042969Z"/>
            <path class="cls-2" d="m88.1132812,39.5917969c0-2.3398438,0-2.7597656-.0292969-3.2402344-.0292969-.5097656-.1484375-.75-.6347656-.8544922-.1035156-.0302734-.2958984-.0302734-.4287109-.0449219-.1035156-.0146484-.1923828-.0302734-.1923828-.0898438,0-.0908203.0742188-.1201172.2363281-.1201172.3398438,0,.7382812,0,1.6699219.0449219.1035156,0,3.0429688,0,3.3818359-.015625.3251953-.0146484.5908203-.0449219.6796875-.0898438s.1181641-.0595703.1630859-.0595703c.0429688,0,.0585938.0595703.0585938.1347656,0,.1054688-.0888672.2851562-.1191406.7050781-.0136719.2255859-.0292969.5097656-.0585938.9003906-.0146484.1494141-.0585938.2548828-.1171875.2548828-.0898438,0-.1191406-.0751953-.1191406-.1953125,0-.1953125-.0292969-.375-.0742188-.4951172-.1035156-.3447266-.4130859-.4951172-1.0625-.5546875-.2519531-.0302734-1.8613281-.0449219-2.0234375-.0449219-.0595703,0-.0898438.0449219-.0898438.1494141v4.140625c0,.1044922.015625.1494141.0898438.1494141.1914062,0,2.0078125,0,2.3476562-.0302734.3984375-.0292969.5917969-.0742188.7382812-.2539062.0742188-.0908203.1191406-.1503906.1777344-.1503906.0449219,0,.0742188.0292969.0742188.1201172,0,.0898438-.0742188.3447266-.1191406.8398438-.0429688.4648438-.0429688.8095703-.0585938,1.0195312-.0146484.1503906-.0439453.2255859-.1035156.2255859-.0878906,0-.1035156-.1201172-.1035156-.2402344,0-.1347656-.0136719-.2851562-.0585938-.4199219-.0585938-.2246094-.2363281-.4355469-.7675781-.4951172-.3994141-.0449219-1.8613281-.0751953-2.1132812-.0751953-.0732422,0-.1035156.0449219-.1035156.1054688v1.3193359c0,.5107422-.0136719,2.25,0,2.5654297.0302734.6152344.1191406.9453125.4882812,1.0947266.2509766.1044922.6503906.1347656,1.2265625.1347656.4423828,0,.9296875-.0146484,1.328125-.1347656.4726562-.1494141.6357422-.4648438.7539062-1.1103516.0292969-.1640625.0585938-.2246094.1328125-.2246094.0878906,0,.0878906.1201172.0878906.2246094,0,.1201172-.1171875,1.140625-.1914062,1.4550781-.1035156.390625-.2207031.390625-.796875.390625-1.09375,0-1.5810547-.0302734-2.1572266-.0449219-.5908203-.015625-1.2705078-.0449219-1.8466797-.0449219-.3535156,0-.7089844.0595703-1.0917969.0449219-.1630859,0-.2363281-.0302734-.2363281-.1201172,0-.0458984.0732422-.0751953.1621094-.0908203.1474609-.0146484.2363281-.0146484.3398438-.0449219.3095703-.0742188.5019531-.2841797.53125-1.4091797.0146484-.5849609.0292969-1.3505859.0292969-2.6855469v-2.6396484Z"/>
            <path class="cls-2" d="m98.0253906,46.3867188c-.2070312-.1054688-.2216797-.1650391-.2216797-.5703125,0-.75.0595703-1.3496094.0732422-1.5898438.015625-.1650391.0449219-.2402344.1191406-.2402344.0878906,0,.1035156.0449219.1035156.1650391,0,.1357422,0,.3447266.0429688.5556641.2226562,1.109375,1.1972656,1.5292969,2.1875,1.5292969,1.4179688,0,2.1113281-1.0351562,2.1113281-1.9941406,0-1.0351562-.4277344-1.6357422-1.6992188-2.7001953l-.6640625-.5556641c-1.5654297-1.3046875-1.9199219-2.234375-1.9199219-3.2539062,0-1.6054688,1.1816406-2.7001953,3.0566406-2.7001953.5761719,0,1.0058594.0595703,1.375.1494141.2792969.0605469.3984375.0751953.515625.0751953.1191406,0,.1484375.0302734.1484375.1054688s-.0585938.5693359-.0585938,1.5898438c0,.2392578-.0292969.3447266-.1035156.3447266-.0888672,0-.1035156-.0751953-.1191406-.1953125-.0136719-.1796875-.1035156-.5839844-.1914062-.75-.0878906-.1640625-.4873047-.7949219-1.8457031-.7949219-1.0195312,0-1.8173828.6455078-1.8173828,1.7402344,0,.8554688.3837891,1.3945312,1.8017578,2.5195312l.4140625.3300781c1.7421875,1.3955078,2.15625,2.3251953,2.15625,3.5253906,0,.6152344-.2363281,1.7548828-1.2558594,2.4902344-.6347656.4492188-1.4316406.6289062-2.2304688.6289062-.6933594,0-1.3730469-.1044922-1.9785156-.4042969Z"/>
            <path class="cls-2" d="m108.9863281,39.5917969c0-2.3398438,0-2.7597656-.0292969-3.2402344-.0292969-.5097656-.1484375-.75-.6357422-.8544922-.1025391-.0302734-.2958984-.0302734-.4287109-.0449219-.1035156-.0146484-.1914062-.0302734-.1914062-.0898438,0-.0908203.0742188-.1201172.2363281-.1201172.3398438,0,.7382812,0,1.6689453.0449219.1035156,0,3.0419922,0,3.3818359-.015625.3261719-.0146484.5917969-.0449219.6796875-.0898438.0888672-.0449219.1191406-.0595703.1621094-.0595703.0449219,0,.0605469.0595703.0605469.1347656,0,.1054688-.0898438.2851562-.1191406.7050781-.0146484.2255859-.0292969.5097656-.0585938.9003906-.015625.1494141-.0585938.2548828-.1191406.2548828-.0878906,0-.1171875-.0751953-.1171875-.1953125,0-.1953125-.0292969-.375-.0742188-.4951172-.1035156-.3447266-.4140625-.4951172-1.0634766-.5546875-.2509766-.0302734-1.8603516-.0449219-2.0234375-.0449219-.0595703,0-.0888672.0449219-.0888672.1494141v4.140625c0,.1044922.015625.1494141.0888672.1494141.1923828,0,2.0087891,0,2.3486328-.0302734.3984375-.0292969.5908203-.0742188.7382812-.2539062.0742188-.0908203.1181641-.1503906.1777344-.1503906.0439453,0,.0742188.0292969.0742188.1201172,0,.0898438-.0742188.3447266-.1191406.8398438-.0439453.4648438-.0439453.8095703-.0585938,1.0195312-.015625.1503906-.0449219.2255859-.1035156.2255859-.0888672,0-.1035156-.1201172-.1035156-.2402344,0-.1347656-.0146484-.2851562-.0585938-.4199219-.0595703-.2246094-.2363281-.4355469-.7685547-.4951172-.3994141-.0449219-1.8603516-.0751953-2.1123047-.0751953-.0742188,0-.1035156.0449219-.1035156.1054688v1.3193359c0,.5107422-.0146484,2.25,0,2.5654297.0292969.6152344.1191406.9453125.4882812,1.0947266.25.1044922.6494141.1347656,1.2246094.1347656.4433594,0,.9316406-.0146484,1.3300781-.1347656.4726562-.1494141.6347656-.4648438.7539062-1.1103516.0292969-.1640625.0585938-.2246094.1328125-.2246094.0878906,0,.0878906.1201172.0878906.2246094,0,.1201172-.1171875,1.140625-.1914062,1.4550781-.1035156.390625-.2226562.390625-.7978516.390625-1.0927734,0-1.5810547-.0302734-2.1572266-.0449219-.5898438-.015625-1.2695312-.0449219-1.8457031-.0449219-.3544922,0-.7089844.0595703-1.09375.0449219-.1621094,0-.2363281-.0302734-.2363281-.1201172,0-.0458984.0742188-.0751953.1630859-.0908203.1474609-.0146484.2363281-.0146484.3398438-.0449219.3095703-.0742188.5029297-.2841797.5322266-1.4091797.0136719-.5849609.0292969-1.3505859.0292969-2.6855469v-2.6396484Z"/>
            <path class="cls-2" d="m119.5195312,39.5917969c0-2.3398438,0-2.7597656-.0302734-3.2402344-.0302734-.5097656-.1474609-.75-.6357422-.8544922-.1171875-.0302734-.3691406-.0449219-.5019531-.0449219-.0585938,0-.1171875-.0302734-.1171875-.0898438,0-.0908203.0732422-.1201172.2363281-.1201172.6640625,0,1.5947266.0449219,1.6679688.0449219.1630859,0,1.2851562-.0449219,1.7441406-.0449219.9296875,0,1.9199219.0898438,2.7021484.6601562.3701172.2695312,1.0185547,1.0048828,1.0185547,2.0390625,0,1.1103516-.4570312,2.2207031-1.7871094,3.4648438,1.2119141,1.5751953,2.2167969,2.9101562,3.0722656,3.8398438.7988281.8554688,1.4335938,1.0205078,1.8027344,1.0800781.28125.0449219.4873047.0449219.5761719.0449219.0742188,0,.1328125.0449219.1328125.0908203,0,.0898438-.0888672.1201172-.3544922.1201172h-1.0488281c-.8271484,0-1.1962891-.0751953-1.5810547-.2851562-.6347656-.3457031-1.1513672-1.0800781-1.9941406-2.2050781-.6191406-.8251953-1.3144531-1.8300781-1.609375-2.2197266-.0585938-.0605469-.1035156-.0908203-.1914062-.0908203l-1.8173828-.0292969c-.0732422,0-.1025391.0449219-.1025391.1201172v.359375c0,1.4404297,0,2.625.0732422,3.2548828.0439453.4355469.1328125.765625.5751953.8251953.2070312.0302734.5332031.0595703.6660156.0595703.0878906,0,.1171875.0449219.1171875.0908203,0,.0751953-.0742188.1201172-.2363281.1201172-.8125,0-1.7421875-.0449219-1.8164062-.0449219-.0146484,0-.9453125.0449219-1.3886719.0449219-.1621094,0-.2363281-.0302734-.2363281-.1201172,0-.0458984.0292969-.0908203.1191406-.0908203.1328125,0,.3095703-.0292969.4423828-.0595703.2958984-.0595703.3691406-.3896484.4287109-.8251953.0742188-.6298828.0742188-1.8144531.0742188-3.2548828v-2.6396484Zm1.1816406,1.3046875c0,.0751953.0292969.1347656.1025391.1806641.2216797.1347656.9013672.2392578,1.5517578.2392578.3535156,0,.7675781-.0449219,1.1074219-.2851562.5166016-.359375.9003906-1.1699219.9003906-2.3095703,0-1.875-.9746094-2.9990234-2.5546875-2.9990234-.4433594,0-.8417969.0449219-.9902344.0898438-.0742188.0292969-.1171875.0898438-.1171875.1796875v4.9042969Z"/>
            <path class="cls-2" d="m130.5976562,36.6669922c-.3242188-.8398438-.546875-1.0048828-1.0634766-1.1552734-.2216797-.0595703-.4726562-.0595703-.5615234-.0595703-.0878906,0-.1171875-.0449219-.1171875-.1044922,0-.0908203.1464844-.1054688.3828125-.1054688.7089844,0,1.5078125.0449219,1.6835938.0449219.1484375,0,.7832031-.0449219,1.3447266-.0449219.2666016,0,.3994141.0292969.3994141.1054688,0,.0742188-.0449219.1044922-.1484375.1044922-.1621094,0-.4277344.0146484-.5605469.0751953-.1630859.0742188-.1923828.1953125-.1923828.2998047,0,.1347656.1328125.5400391.2958984.9599609l3.0126953,7.9648438c.8564453-2.0097656,2.8359375-7.2451172,3.1611328-8.3251953.0742188-.2246094.1328125-.4345703.1328125-.5693359,0-.1201172-.0449219-.2705078-.1923828-.3457031-.1767578-.0595703-.3994141-.0595703-.5615234-.0595703-.0878906,0-.1621094-.0146484-.1621094-.0898438,0-.0908203.0878906-.1201172.3242188-.1201172.5917969,0,1.2714844.0449219,1.4482422.0449219.0888672,0,.7236328-.0449219,1.1513672-.0449219.1630859,0,.2519531.0292969.2519531.1054688,0,.0742188-.0585938.1044922-.1777344.1044922-.1035156,0-.4277344,0-.7089844.1796875-.1914062.1357422-.4130859.3896484-.8125,1.4101562-.1621094.4199219-.9003906,2.2197266-1.6542969,4.0654297-.9003906,2.1894531-1.5644531,3.8095703-1.9042969,4.5439453-.4140625.9003906-.4726562,1.1396484-.6210938,1.1396484-.1777344,0-.2509766-.2089844-.53125-.9296875l-3.6191406-9.1943359Z"/>
            <path class="cls-2" d="m144.6601562,39.5917969c0-2.3398438,0-2.7597656-.0292969-3.2402344-.0292969-.5097656-.1464844-.75-.6347656-.8544922-.1035156-.0302734-.2949219-.0302734-.4277344-.0449219-.1035156-.0146484-.1923828-.0302734-.1923828-.0898438,0-.0908203.0732422-.1201172.2363281-.1201172.3388672,0,.7382812,0,1.6689453.0449219.1035156,0,3.0429688,0,3.3828125-.015625.3242188-.0146484.5898438-.0449219.6796875-.0898438.0878906-.0449219.1171875-.0595703.1621094-.0595703.0439453,0,.0585938.0595703.0585938.1347656,0,.1054688-.0878906.2851562-.1171875.7050781-.015625.2255859-.0302734.5097656-.0605469.9003906-.0136719.1494141-.0585938.2548828-.1171875.2548828-.0888672,0-.1191406-.0751953-.1191406-.1953125,0-.1953125-.0292969-.375-.0732422-.4951172-.1025391-.3447266-.4130859-.4951172-1.0634766-.5546875-.2509766-.0302734-1.8613281-.0449219-2.0234375-.0449219-.0585938,0-.0878906.0449219-.0878906.1494141v4.140625c0,.1044922.0136719.1494141.0878906.1494141.1914062,0,2.0087891,0,2.3486328-.0302734.3994141-.0292969.5908203-.0742188.7382812-.2539062.0732422-.0908203.1181641-.1503906.1767578-.1503906.0449219,0,.0742188.0292969.0742188.1201172,0,.0898438-.0742188.3447266-.1171875.8398438-.0449219.4648438-.0449219.8095703-.0605469,1.0195312-.0136719.1503906-.0429688.2255859-.1025391.2255859-.0888672,0-.1035156-.1201172-.1035156-.2402344,0-.1347656-.0146484-.2851562-.0595703-.4199219-.0585938-.2246094-.2363281-.4355469-.7675781-.4951172-.3984375-.0449219-1.8613281-.0751953-2.1123047-.0751953-.0732422,0-.1025391.0449219-.1025391.1054688v1.3193359c0,.5107422-.015625,2.25,0,2.5654297.0292969.6152344.1171875.9453125.4863281,1.0947266.2519531.1044922.6503906.1347656,1.2265625.1347656.4433594,0,.9296875-.0146484,1.3291016-.1347656.4726562-.1494141.6357422-.4648438.7529297-1.1103516.0292969-.1640625.0595703-.2246094.1328125-.2246094.0898438,0,.0898438.1201172.0898438.2246094,0,.1201172-.1191406,1.140625-.1933594,1.4550781-.1035156.390625-.2207031.390625-.796875.390625-1.09375,0-1.5800781-.0302734-2.15625-.0449219-.5917969-.015625-1.2705078-.0449219-1.8466797-.0449219-.3544922,0-.7089844.0595703-1.0927734.0449219-.1621094,0-.2363281-.0302734-.2363281-.1201172,0-.0458984.0742188-.0751953.1621094-.0908203.1484375-.0146484.2363281-.0146484.3398438-.0449219.3105469-.0742188.5019531-.2841797.53125-1.4091797.015625-.5849609.0292969-1.3505859.0292969-2.6855469v-2.6396484Z"/>
          </g>
        </g>
        <g>
          <path class="cls-2" d="m35.5027824,54.7346139H3.0741727c-1.6951104,0-3.0741727-1.3792175-3.0741727-3.0744831V3.3398615C0,1.6445959,1.3790623.2655336,3.0741727.2655336h21.6061373c.6145551,0,1.1126878.4981327,1.1126878,1.1126878s-.4981327,1.1126878-1.1126878,1.1126878H3.0741727c-.4680181,0-.848797.3807789-.848797.8489522v48.3202693c0,.4602566.3886956.8491075.848797.8491075h32.4286097c.4521847,0,.8489522-.3967676.8489522-.8491075V14.1618682c0-.6145551.4981327-1.1126878,1.1126878-1.1126878s1.1126878.4981327,1.1126878,1.1126878v37.4982626c0,1.6665481-1.4079351,3.0744831-3.0743279,3.0744831Z"/>
          <path class="cls-2" d="m37.4644225,15.274556h-10.8224724c-1.6952656,0-3.0743279-1.3790623-3.0743279-3.0743279V1.3782214c0-.4500114.2710314-.8557824.6868922-1.0279323.4160161-.1726156.8944346-.076994,1.2125006.241072l12.7841125,12.7836468c.3183765.3182213.4135324.796795.2412272,1.2126559-.1721499.4158609-.5779209.6868922-1.0279323.6868922Zm-11.6714247-11.2100814v8.1357535c0,.4681733.3807789.8489522.8489522.8489522h8.136064l-8.9850162-8.9847058Z"/>
          <path class="cls-2" d="m47.9171373,50.8231312c-2.222271,0-4.6142084-2.0488793-4.6142084-6.5471309V7.9340452c0-.6145551.4981327-1.1126878,1.1126878-1.1126878h7.0033515c.6145551,0,1.1126878.4981327,1.1126878,1.1126878v36.3419552c0,4.4982516-2.3919373,6.5471309-4.6145188,6.5471309Zm-2.3888327-41.7763982v35.2292673c0,2.8372919,1.2017898,4.3217553,2.3888327,4.3217553,1.1873534,0,2.3891432-1.4844634,2.3891432-4.3217553V9.046733h-4.7779759Z"/>
          <path class="cls-2" d="m55.9755864,28.3456885h-.002018c-.6145551-.0010866-1.1117564-.5003059-1.1106698-1.1147058l.0234397-12.4607686-10.5137202-.0003105c-.6145551,0-1.1126878-.4981327-1.1126878-1.1126878s.4982879-1.1126878,1.1126878-1.1126878h0l11.628426.0003105c.2955577,0,.5788522.117509.7874812.3266037.2087842.2090947.3258275.4926997.3252066.7881021l-.0254577,13.5754744c-.0010866.6139342-.4990641,1.1106698-1.1126878,1.1106698Z"/>
          <path class="cls-2" d="m47.7993178,54.7344587c-.6145551,0-1.1126878-.4981327-1.1126878-1.1126878v-3.9142768c0-.6145551.4981327-1.1126878,1.1126878-1.1126878s1.1126878.4981327,1.1126878,1.1126878v3.9142768c0,.6145551-.4981327,1.1126878-1.1126878,1.1126878Z"/>
          <path class="cls-2" d="m19.2883999,12.9998173h-10.3345849c-.6145551,0-1.1126878-.4981327-1.1126878-1.1126878s.4981327-1.1126878,1.1126878-1.1126878h10.3345849c.6145551,0,1.1126878.4981327,1.1126878,1.1126878s-.4981327,1.1126878-1.1126878,1.1126878Z"/>
          <path class="cls-2" d="m29.6234505,22.7802314H8.953815c-.6145551,0-1.1126878-.4981327-1.1126878-1.1126878s.4981327-1.1126878,1.1126878-1.1126878h20.6696354c.6145551,0,1.1126878.4981327,1.1126878,1.1126878s-.4981327,1.1126878-1.1126878,1.1126878Z"/>
          <path class="cls-2" d="m29.6234505,28.4895866H8.953815c-.6145551,0-1.1126878-.4981327-1.1126878-1.1126878s.4981327-1.1126878,1.1126878-1.1126878h20.6696354c.6145551,0,1.1126878.4981327,1.1126878,1.1126878s-.4981327,1.1126878-1.1126878,1.1126878Z"/>
          <path class="cls-2" d="m29.6234505,34.1989418H8.953815c-.6145551,0-1.1126878-.4981327-1.1126878-1.1126878s.4981327-1.1126878,1.1126878-1.1126878h20.6696354c.6145551,0,1.1126878.4981327,1.1126878,1.1126878s-.4981327,1.1126878-1.1126878,1.1126878Z"/>
          <path class="cls-2" d="m19.2883999,39.908297h-10.3345849c-.6145551,0-1.1126878-.4981327-1.1126878-1.1126878s.4981327-1.1126878,1.1126878-1.1126878h10.3345849c.6145551,0,1.1126878.4981327,1.1126878,1.1126878s-.4981327,1.1126878-1.1126878,1.1126878Z"/>
        </g>
      </g>
      <rect class="cls-1" width="165" height="55"/>
    </g>
  </g>
</svg>