<?xml version="1.0" encoding="UTF-8"?>
<svg id="_レイヤー_2" data-name="レイヤー 2" xmlns="http://www.w3.org/2000/svg" xmlns:xlink="http://www.w3.org/1999/xlink" viewBox="0 0 165 55.1196842">
  <defs>
    <style>
      .cls-1 {
        fill: #707070;
      }

      .cls-1, .cls-2 {
        stroke-width: 0px;
      }

      .cls-2 {
        fill: none;
      }

      .cls-3 {
        clip-path: url(#clippath);
      }
    </style>
    <clipPath id="clippath">
      <rect class="cls-2" x="0" width="165" height="55"/>
    </clipPath>
  </defs>
  <g id="_レイヤー_1-2" data-name="レイヤー 1">
    <g class="cls-3">
      <g>
        <g>
          <g>
            <path class="cls-1" d="m73.90625,16.0595703l-.9101562-1.8476562c.8369141-.1464844,3.0898438-.7119141,6.7597656-1.6943359l.0644531.2861328c-1.9208984,1.0117188-3.7480469,1.9208984-5.4814453,2.7275391-.0869141.2646484-.2314453.4404297-.4326172.5283203Zm7.0839844,9.1298828c.4765625.2939453.7148438.5058594.7148438.6386719,0,.0732422-.1152344.109375-.3466797.109375l-.4980469-.0214844c-.9101562.4394531-2.0292969.8427734-3.3583984,1.2089844-1.3291016.3671875-2.6425781.6308594-3.9433594.7929688l-.1074219-.3740234c1.0253906-.2646484,2.0507812-.6240234,3.0761719-1.078125.6933594-.2939453,1.3574219-.6347656,1.9931641-1.0234375.6357422-.3876953,1.1474609-.7949219,1.5380859-1.2207031l.9316406.9677734Zm-5.015625-15.4003906c-.5849609-.5859375-1.1591797-1.0703125-1.7226562-1.4511719l.1953125-.2207031c.9101562.1621094,1.6572266.3925781,2.2421875.6933594s1.0078125.6230469,1.2675781.9677734.390625.6787109.390625,1.0009766c0,.2207031-.0625.4003906-.1845703.5390625-.1230469.1396484-.2861328.2089844-.4873047.2089844-.1445312,0-.3037109-.0439453-.4765625-.1318359-.2314453-.4833984-.6396484-1.0185547-1.2246094-1.6064453Zm9.4355469.7265625c.3613281,1.0703125,1.0332031,1.9511719,2.0146484,2.6396484.9824219.6904297,2.4775391,1.2255859,4.4853516,1.6064453l-.0429688.2636719c-.3476562.0585938-.6152344.1650391-.8027344.3193359-.1875.1533203-.3105469.4072266-.3671875.7587891-.9970703-.2636719-1.8857422-.6230469-2.6660156-1.078125.2597656.1757812.5166016.3964844.7695312.6601562.2519531.2636719.3789062.4550781.3789062.5722656-.0722656.0878906-.1806641.1679688-.3242188.2421875-.1445312.0732422-.3037109.1240234-.4765625.1533203v2.5742188c.0283203,1.7744141.0859375,3.4462891.1728516,5.0166016-.1005859.1308594-.2919922.2636719-.5742188.3955078s-.5244141.1982422-.7255859.1982422h-.2167969v-.8808594h-9.0136719v.6826172c0,.0878906-.1259766.1904297-.3789062.3076172-.2519531.1181641-.5087891.1757812-.7685547.1757812-.1015625,0-.1884766-.0429688-.2607422-.1308594-.0722656-.0888672-.1074219-.1914062-.1074219-.3085938.0722656-.8212891.1220703-1.9208984.1513672-3.2998047v-1.8916016c0-1.8486328-.0947266-3.3515625-.2822266-4.5107422l1.734375.8359375h8.7089844l.3466797-.4833984c.0439453-.0585938.1152344-.1582031.2167969-.296875.1005859-.1396484.1943359-.2089844.2822266-.2089844l.1289062.0429688c-.7363281-.4833984-1.3144531-1.0478516-1.7324219-1.6933594-.4199219-.6455078-.7373047-1.3710938-.953125-2.1777344-.4199219,1.2617188-1.1523438,2.2294922-2.1992188,2.9033203-1.0478516.6748047-2.4882812,1.1660156-4.3222656,1.4746094l-.0878906-.3525391c1.5898438-.4394531,2.7949219-1.0078125,3.6191406-1.7050781.8232422-.6962891,1.3867188-1.6308594,1.6894531-2.8046875h-2.2753906c-.8652344.8798828-1.7910156,1.5478516-2.7724609,2.0019531l-.2167969-.2636719c.2314453-.1757812.4765625-.3964844.7373047-.6601562.4902344-.5136719.9345703-1.1582031,1.3320312-1.9355469.3964844-.7773438.6386719-1.4746094.7255859-2.0908203,1.4589844.4257812,2.1884766.7265625,2.1884766.9023438,0,.0439453-.0585938.0810547-.1738281.1103516l-.3457031.0654297c-.3476562.5136719-.6435547.9169922-.8886719,1.2099609h7.0195312l.3681641-.5058594c.0439453-.0585938.1191406-.1572266.2275391-.296875s.2060547-.2089844.2929688-.2089844c.1289062,0,.3964844.2382812.8007812.7148438s.6074219.7958984.6074219.9570312c-.0722656.0878906-.1660156.1425781-.2822266.1650391s-.2890625.0400391-.5205078.0546875c-.2734375.2939453-.6464844.6269531-1.1152344,1.0009766s-.8847656.671875-1.2460938.8916016l-.3027344-.1542969c.4335938-.6748047.7939453-1.3271484,1.0830078-1.9580078h-3.6396484Zm-7.3886719,7.765625h9.0136719v-1.8261719h-9.0136719v1.8261719Zm0,2.5078125h9.0136719v-1.8476562h-9.0136719v1.8476562Zm0,2.5527344h9.0136719v-1.8925781h-9.0136719v1.8925781Zm5.6113281,1.5615234c1.734375.1181641,3.1347656.3115234,4.2041016.5830078,1.0683594.2714844,1.8271484.5644531,2.2744141.8808594.4472656.3144531.671875.6191406.671875.9121094,0,.1757812-.0761719.3193359-.2275391.4296875-.1513672.109375-.3359375.1640625-.5517578.1640625-.2607422,0-.5058594-.0732422-.7373047-.2197266-.6064453-.4541016-1.3974609-.890625-2.3720703-1.3085938s-2.0839844-.78125-3.3261719-1.0888672l.0644531-.3525391Z"/>
            <path class="cls-1" d="m104.4326172,15.53125c.0439453-.0722656.1044922-.1640625.1845703-.2744141.0791016-.1103516.1445312-.1943359.1953125-.2529297.0498047-.0585938.1035156-.0878906.1621094-.0878906.0859375,0,.2636719.1025391.53125.3076172.2666016.2060547.515625.4287109.7460938.6708984.2314453.2421875.3476562.4140625.3476562.5175781-.0429688.234375-.2246094.3515625-.5419922.3515625h-3.5751953v1.4736328c1.2421875.3671875,2.15625.8398438,2.7412109,1.4189453.5849609.5800781.8779297,1.1328125.8779297,1.6611328,0,.2353516-.0585938.4257812-.1738281.5722656s-.2675781.2197266-.4550781.2197266c-.1738281,0-.3466797-.0585938-.5195312-.1757812-.1445312-.5283203-.4550781-1.0996094-.9316406-1.7158203s-.9902344-1.1513672-1.5390625-1.6064453v3.4980469c.0292969,1.8193359.0869141,3.5419922.1738281,5.1699219-.0869141.1757812-.25.3300781-.4882812.4628906-.2382812.1308594-.4794922.1972656-.7246094.1972656-.1162109,0-.2207031-.0439453-.3144531-.1318359s-.140625-.1904297-.140625-.3076172c.0566406-.8066406.1035156-1.6025391.140625-2.3876953.0351562-.7841797.0605469-1.7783203.0761719-2.9804688v-2.9267578c-.96875,2.0830078-2.2685547,3.8652344-3.9003906,5.3466797l-.2382812-.3076172c.7792969-.9980469,1.4658203-2.1416016,2.0585938-3.4326172.5917969-1.2900391,1.0683594-2.6396484,1.4296875-4.0478516h-1.1269531c-.6064453.0146484-1.2558594.1171875-1.9492188.3076172l-.5644531-1.1220703c.7949219.0878906,1.7558594.1474609,2.8828125.1757812h1.4082031v-3.8710938c0-1.8486328-.0947266-3.3515625-.2822266-4.5097656.7939453.2490234,1.3466797.4433594,1.6572266.5820312.3105469.1396484.4658203.2607422.4658203.3632812,0,.0878906-.0654297.1689453-.1943359.2421875l-.3691406.2421875v6.9511719h1.5605469l.3896484-.59375Zm-6.78125-5.8515625c.7939453.6015625,1.3720703,1.2177734,1.7333984,1.8476562.3613281.6308594.5410156,1.203125.5410156,1.7167969,0,.3369141-.0683594.6044922-.2050781.8027344-.1376953.1972656-.3066406.296875-.5097656.296875-.1875,0-.375-.0957031-.5625-.2861328-.015625-.6455078-.1445312-1.3603516-.390625-2.1455078-.2460938-.7841797-.5341797-1.4921875-.8671875-2.1230469l.2607422-.109375Zm7.8642578.2421875c.578125.1464844.8671875.2851562.8671875.4179688,0,.0732422-.0722656.1464844-.2167969.2197266l-.3466797.1542969c-.8955078,1.7597656-1.6396484,3.0722656-2.2314453,3.9375l-.3466797-.1757812.1728516-.5498047c.203125-.6894531.3828125-1.4589844.5419922-2.3105469.1591797-.8496094.2597656-1.5908203.3037109-2.2216797l1.2558594.5283203Zm8.8613281,9.8994141c.0292969-.0732422.0761719-.1865234.140625-.3408203.0654297-.1542969.1230469-.2714844.1738281-.3515625.0507812-.0810547.1044922-.1210938.1621094-.1210938.0869141,0,.2783203.0878906.5742188.2636719.296875.1757812.5703125.3671875.8242188.5722656.2519531.2050781.3789062.359375.3789062.4619141,0,.1171875-.0400391.2197266-.1191406.3076172-.0800781.0878906-.1845703.1474609-.3144531.1757812l-2.6865234.6162109v2.0029297c.0439453,1.6572266.09375,2.9394531.1513672,3.8496094-.0722656.1611328-.234375.3144531-.4873047.4619141-.2529297.1464844-.4951172.2197266-.7255859.2197266-.1308594,0-.2382812-.0439453-.3251953-.1318359s-.1298828-.1904297-.1298828-.3076172c.0859375-1.2324219.1445312-2.4648438.1738281-3.6962891v-2.0898438l-6.0234375,1.3642578-.2597656-.5722656,6.2832031-1.4521484v-8.7998047c0-1.8486328-.0947266-3.3515625-.2822266-4.5097656.8085938.234375,1.3720703.4287109,1.6904297.5820312.3164062.1542969.4765625.2832031.4765625.3857422,0,.0732422-.0585938.1464844-.1738281.2197266l-.3681641.2421875v11.5722656l.5634766-.1328125.3027344-.7919922Zm-7.453125-4.7958984c1.2568359.2636719,2.1855469.6601562,2.7851562,1.1884766.5986328.5283203.8984375,1.0488281.8984375,1.5615234,0,.2353516-.0576172.421875-.1738281.5615234-.1152344.1396484-.2675781.2089844-.4550781.2089844-.1728516,0-.3388672-.0517578-.4980469-.1542969-.1875-.5283203-.5527344-1.0888672-1.09375-1.6826172-.5410156-.5947266-1.09375-1.0820312-1.6572266-1.4628906l.1943359-.2207031Zm.5205078-5.1259766c1.1982422.3076172,2.0830078.7333984,2.6533203,1.2763672.5712891.5429688.8564453,1.0703125.8564453,1.5839844,0,.234375-.0576172.421875-.1728516.5605469-.1162109.1396484-.2675781.2089844-.4550781.2089844-.1884766,0-.3613281-.0585938-.5205078-.1757812-.1591797-.5273438-.4873047-1.0957031-.9853516-1.7050781-.4980469-.6083984-1.0224609-1.125-1.5712891-1.5507812l.1953125-.1982422Z"/>
            <path class="cls-1" d="m124.0625,12.7158203c-.7363281.0146484-1.5019531.1171875-2.296875.3076172l-.5410156-1.1220703c.7939453.0878906,1.7539062.1474609,2.8808594.1767578h2.9902344l.3896484-.5947266c.0439453-.0585938.1044922-.1464844.1845703-.2636719.0791016-.1171875.1484375-.2050781.2050781-.2646484.0585938-.0576172.1162109-.0878906.1738281-.0878906.0869141,0,.2597656.1074219.5195312.3193359.2607422.2128906.5019531.4404297.7265625.6826172.2236328.2412109.3359375.4140625.3359375.5166016-.0429688.2197266-.2246094.3300781-.5419922.3300781h-5.0263672Zm2.3183594-3.9824219c.0566406-.0732422.1152344-.1533203.1738281-.2412109.0566406-.0888672.1191406-.1689453.1835938-.2421875.0644531-.0742188.1259766-.1103516.1835938-.1103516.0869141,0,.2597656.1025391.5205078.3076172.2597656.2060547.5009766.4257812.7255859.6601562.2236328.234375.3359375.4042969.3359375.5058594-.0429688.2353516-.2167969.3525391-.5195312.3525391h-2.0585938c-1.0253906.0146484-2.109375.1171875-3.25.3076172l-.5634766-1.1435547c.7216797.0878906,1.6035156.1464844,2.6435547.1757812h1.2558594l.3691406-.5722656Zm-2.7304688,17.7324219c.0429688.5419922.0722656.8427734.0869141.9013672-.0439453.1328125-.1806641.2607422-.4111328.3857422-.2314453.1240234-.4765625.1865234-.7363281.1865234-.0878906,0-.1630859-.0439453-.2285156-.1318359-.0644531-.0878906-.0976562-.1904297-.0976562-.3076172.0585938-.6015625.1015625-1.3496094.1308594-2.2441406v-1.3642578c0-1.6572266-.0869141-3.0429688-.2597656-4.1582031l1.625.7705078h2.8808594l.3251953-.3964844c.0429688-.0439453.1113281-.1240234.2060547-.2421875.09375-.1171875.1835938-.1757812.2705078-.1757812s.2568359.0878906.5087891.2636719c.2529297.1767578.4882812.3671875.7050781.5722656.2158203.2060547.3242188.359375.3242188.4619141-.0722656.0888672-.1835938.1728516-.3359375.2529297-.1513672.0810547-.3212891.1367188-.5087891.1650391v1.7607422c.0283203,1.421875.0712891,2.5517578.1298828,3.3876953-.0722656.1171875-.2421875.2382812-.5097656.3623047-.2675781.125-.5087891.1875-.7246094.1875-.1738281,0-.2607422-.1464844-.2607422-.4394531.0146484-.0449219.0253906-.0917969.0322266-.1435547.0078125-.0517578.0185547-.1064453.0332031-.1650391v-.3955078h-3.1855469v.5058594Zm3.0332031-12.1220703c.0585938-.0732422.140625-.1835938.25-.3300781.1074219-.1464844.2050781-.2197266.2919922-.2197266.1435547,0,.4150391.1865234.8125.5605469s.5957031.6416016.5957031.8037109c-.0439453.234375-.2099609.3515625-.4980469.3515625h-2.1669922c-1.0253906.0146484-2.109375.1171875-3.25.3076172l-.5410156-1.1220703c.7792969.0878906,1.71875.1464844,2.8164062.1757812h1.3212891l.3681641-.5273438Zm0,2.7939453c.0585938-.0732422.140625-.1835938.25-.3300781.1074219-.1464844.2050781-.2197266.2919922-.2197266.1298828,0,.3974609.1904297.8017578.5722656.4042969.3808594.6064453.6523438.6064453.8134766-.0439453.2353516-.2099609.3525391-.4980469.3525391h-2.1669922c-1.0253906.0136719-2.109375.1171875-3.25.3076172l-.5410156-1.1220703c.7792969.0878906,1.71875.1464844,2.8164062.1757812h1.3212891l.3681641-.5498047Zm-3.0332031,4.0263672v4.1357422h3.1855469v-4.1357422h-3.1855469Zm13.953125-9.328125c.0576172-.0732422.1152344-.1542969.1738281-.2421875.0566406-.0878906.1191406-.1689453.1835938-.2421875s.1269531-.109375.1835938-.109375c.0878906,0,.2607422.0986328.5205078.296875.2607422.1972656.5019531.4140625.7255859.6484375.2246094.234375.3359375.4033203.3359375.5058594-.0576172.2353516-.2460938.3525391-.5625.3525391h-3.8144531v1.9140625h2.7304688l.4335938-.6162109c.0566406-.0732422.1259766-.1650391.2050781-.2753906.0800781-.109375.1484375-.1943359.2070312-.2529297.0566406-.0585938.1152344-.0878906.1728516-.0878906.0869141,0,.2666016.1064453.5419922.3193359.2734375.2128906.5263672.4433594.7578125.6923828.2304688.25.3466797.4257812.3466797.5283203-.0576172.234375-.2314453.3515625-.5205078.3515625h-7.5175781c-1.0253906.015625-2.109375.1181641-3.25.3085938l-.5410156-1.1445312c.7939453.0878906,1.7539062.1474609,2.8808594.1767578h2.1884766v-1.9140625h-1.2138672c-.6933594.0146484-1.4150391.1171875-2.1660156.3076172l-.5410156-1.0996094c.7216797.0878906,1.6025391.1464844,2.6425781.1757812h1.2783203v-1.8046875h-1.4082031c-.8232422.015625-1.6904297.1181641-2.6005859.3085938l-.5410156-1.1445312c.7939453.0888672,1.7548828.1474609,2.8808594.1767578h1.6689453c0-.8212891-.0439453-1.5400391-.1298828-2.15625.765625.2353516,1.2958984.421875,1.5917969.5615234.296875.1386719.4453125.2597656.4453125.3623047,0,.0732422-.0585938.1474609-.1738281.2197266l-.3691406.2421875v.7705078h2.3408203l.4111328-.5947266c.0429688-.0576172.1054688-.1464844.1845703-.2636719s.1474609-.2050781.2060547-.2636719c.0566406-.0585938.1152344-.0878906.1728516-.0878906.0869141,0,.2666016.1064453.5419922.3183594.2734375.2128906.5273438.4404297.7578125.6826172.2304688.2412109.3466797.4140625.3466797.5166016-.0576172.234375-.2451172.3515625-.5634766.3515625h-4.3984375v1.8046875h1.8632812l.390625-.59375Zm-5.6542969,12.9794922l.0214844.7919922c.0136719.6015625.0429688,1.1660156.0859375,1.6943359-.0576172.1464844-.2050781.2861328-.4433594.4179688s-.4882812.1982422-.7480469.1982422c-.1015625,0-.1875-.0449219-.2597656-.1328125s-.1083984-.1904297-.1083984-.3076172c.0869141-1.3935547.1435547-2.7792969.1728516-4.1582031v-2.3095703c0-1.8476562-.09375-3.3515625-.28125-4.5097656l1.6679688.8134766h5.3085938l.28125-.4404297c.0439453-.0429688.09375-.109375.1523438-.1972656.0566406-.0878906.1074219-.1503906.1513672-.1875.0439453-.0361328.09375-.0546875.1513672-.0546875.0869141,0,.2714844.0917969.5527344.2753906s.5380859.3847656.7695312.6044922c.2304688.2197266.3457031.3818359.3457031.484375-.1289062.1757812-.4257812.3154297-.8876953.4179688v7.7216797c0,.4257812-.0400391.7666016-.1191406,1.0234375-.0791016.2558594-.2568359.4726562-.5302734.6484375-.2753906.1757812-.6875.2929688-1.2353516.3525391-.0732422-.5429688-.2021484-.8955078-.3896484-1.0566406-.2167969-.2197266-.6796875-.3955078-1.3867188-.5273438v-.3525391c1.0830078.0878906,1.7255859.1328125,1.9277344.1328125.1738281,0,.2851562-.0292969.3359375-.0888672.0507812-.0576172.0761719-.1679688.0761719-.3300781v-2.2216797h-5.6113281v1.2978516Zm5.6113281-4.7519531v-2.0898438h-5.6113281v2.0898438h5.6113281Zm-5.6113281.6376953v2.2001953h5.6113281v-2.2001953h-5.6113281Z"/>
            <path class="cls-1" d="m162.28125,11.7480469c.0429688-.0585938.1074219-.1503906.1953125-.2753906.0859375-.125.1621094-.2197266.2265625-.2861328.0654297-.0654297.1269531-.0986328.1845703-.0986328.0869141,0,.2744141.1132812.5634766.3408203s.5585938.4726562.8125.7373047c.2519531.2636719.3789062.4472656.3789062.5498047-.0429688.234375-.2246094.3515625-.5419922.3515625h-7.9951172v1.2763672c.4628906,1.7597656,1.1191406,3.2929688,1.9726562,4.5976562.3603516-.4248047.671875-.8134766.9316406-1.1660156.4335938-.5722656.8515625-1.2128906,1.2558594-1.9248047.4042969-.7109375.7080078-1.3525391.9101562-1.9248047.7070312.4394531,1.2060547.7734375,1.4951172,1.0009766.2880859.2275391.4326172.3847656.4326172.4726562,0,.0439453-.0722656.0810547-.2158203.1103516l-.3896484.0214844c-.4921875.5869141-1.1162109,1.2285156-1.875,1.9257812-.7578125.6962891-1.5126953,1.3300781-2.2636719,1.9023438,1.4726562,2.1123047,3.5458984,3.7773438,6.21875,4.9941406l-.0439453.2421875c-.2744141.0585938-.5205078.2011719-.7373047.4287109-.2158203.2275391-.3828125.5097656-.4980469.8466797-1.7763672-1.1289062-3.2597656-2.4853516-4.4521484-4.0693359-1.1914062-1.5839844-2.1044922-3.6445312-2.7412109-6.1826172v10.0986328c0,.4541016-.0537109.8251953-.1621094,1.1103516-.1074219.2861328-.328125.5214844-.6601562.7050781-.3330078.1826172-.8310547.3105469-1.4951172.3847656-.0732422-.5283203-.2460938-.8876953-.5205078-1.078125-.3457031-.2636719-1.0039062-.4697266-1.9707031-.6162109v-.3525391c1.6171875.1474609,2.578125.2207031,2.8808594.2207031.2167969,0,.3613281-.0410156.4335938-.1210938s.1083984-.2167969.1083984-.4072266v-6.0058594c-1.9072266,1.6425781-4.0380859,3.3808594-6.3916016,5.2138672-.0292969.3085938-.1376953.5136719-.3251953.6162109l-1.3857422-1.6279297c.6777344-.3378906,1.7714844-.9492188,3.28125-1.8369141s3.1171875-1.859375,4.8212891-2.9150391v-5.9404297h-4.7666016c-1.0253906.0146484-2.109375.1181641-3.25.3076172l-.5634766-1.1435547c.7939453.0878906,1.7548828.1474609,2.8818359.1767578h5.6982422v-.1542969c0-1.8486328-.0947266-3.3515625-.2822266-4.5097656,1.4589844.4248047,2.1884766.7402344,2.1884766.9453125,0,.0742188-.0576172.1464844-.1728516.2207031l-.3476562.2412109v3.2568359h5.7207031l.4550781-.6601562Zm-13.4550781,2.6835938c1.2714844.5283203,2.2070312,1.1367188,2.8066406,1.8261719.5986328.6894531.8984375,1.3271484.8984375,1.9140625,0,.2783203-.0644531.5019531-.1953125.6708984-.1298828.1689453-.2958984.2529297-.4980469.2529297-.1738281,0-.375-.0800781-.6064453-.2421875-.1445312-.6445312-.4736328-1.3671875-.9853516-2.1669922-.5136719-.7988281-1.0585938-1.4921875-1.6367188-2.0791016l.2167969-.1757812Zm8.9921875-5.8964844c1.1699219.2207031,2.0361328.5800781,2.5996094,1.078125.5625.4990234.8447266.9980469.8447266,1.4960938,0,.2207031-.0576172.4042969-.1728516.5507812-.1162109.1464844-.2675781.2197266-.4550781.2197266-.1601562,0-.3183594-.0517578-.4765625-.1542969-.1601562-.4990234-.484375-1.0302734-.9755859-1.5947266s-1.0039062-1.0302734-1.5380859-1.3974609l.1738281-.1982422Z"/>
          </g>
          <g>
            <path class="cls-1" d="m75.140625,39.6513672c0-2.3398438,0-2.7597656-.0292969-3.2392578-.0302734-.5107422-.1484375-.75-.6357422-.8554688-.1181641-.0302734-.3691406-.0449219-.5019531-.0449219-.0595703,0-.1181641-.0302734-.1181641-.0898438,0-.0898438.0742188-.1201172.2363281-.1201172.6640625,0,1.5957031.0449219,1.6689453.0449219.1630859,0,1.2851562-.0449219,1.7431641-.0449219.9296875,0,1.9199219.0898438,2.703125.6601562.3691406.2695312,1.0185547,1.0048828,1.0185547,2.0400391,0,1.109375-.4580078,2.2197266-1.7871094,3.4648438,1.2119141,1.5742188,2.2158203,2.9091797,3.0722656,3.8398438.7978516.8544922,1.4326172,1.0195312,1.8017578,1.0800781.28125.0449219.4882812.0449219.5761719.0449219.0742188,0,.1328125.0449219.1328125.0898438,0,.0898438-.0878906.1191406-.3535156.1191406h-1.0488281c-.828125,0-1.1972656-.0742188-1.5810547-.2841797-.6347656-.3447266-1.1513672-1.0800781-1.9941406-2.2050781-.6201172-.8251953-1.3144531-1.8300781-1.6103516-2.2197266-.0585938-.0605469-.1025391-.0898438-.1914062-.0898438l-1.8164062-.0302734c-.0742188,0-.1035156.0449219-.1035156.1201172v.359375c0,1.4404297,0,2.625.0742188,3.2548828.0439453.4355469.1328125.765625.5751953.8251953.2070312.0302734.5322266.0605469.6650391.0605469.0878906,0,.1181641.0449219.1181641.0898438,0,.0742188-.0742188.1191406-.2363281.1191406-.8125,0-1.7431641-.0449219-1.8173828-.0449219-.0136719,0-.9453125.0449219-1.3876953.0449219-.1630859,0-.2363281-.0292969-.2363281-.1191406,0-.0449219.0292969-.0898438.1181641-.0898438.1328125,0,.3105469-.0302734.4433594-.0605469.2949219-.0595703.3691406-.3896484.4277344-.8251953.0742188-.6298828.0742188-1.8144531.0742188-3.2548828v-2.6396484Zm1.1816406,1.3056641c0,.0742188.0292969.1347656.1035156.1796875.2207031.1347656.9003906.2402344,1.5507812.2402344.3544922,0,.7675781-.0458984,1.1074219-.2851562.5175781-.3603516.9013672-1.1699219.9013672-2.3105469,0-1.875-.9755859-3-2.5556641-3-.4433594,0-.8417969.0449219-.9892578.0898438-.0742188.0302734-.1181641.0908203-.1181641.1806641v4.9052734Z"/>
            <path class="cls-1" d="m88.125,39.6513672c0-2.3398438,0-2.7597656-.0292969-3.2392578-.0292969-.5107422-.1474609-.75-.6347656-.8554688-.1035156-.0302734-.2958984-.0302734-.4287109-.0449219-.1035156-.015625-.1923828-.0302734-.1923828-.0898438,0-.0898438.0742188-.1201172.2363281-.1201172.3398438,0,.7382812,0,1.6699219.0449219.1035156,0,3.0419922,0,3.3818359-.0146484.3251953-.015625.5908203-.0449219.6796875-.0898438s.1181641-.0605469.1621094-.0605469.0595703.0605469.0595703.1347656c0,.1054688-.0888672.2851562-.1181641.7050781-.0146484.2246094-.0302734.5097656-.0595703.9003906-.0146484.1494141-.0585938.2548828-.1181641.2548828-.0888672,0-.1181641-.0751953-.1181641-.1953125,0-.1943359-.0292969-.375-.0742188-.4951172-.1025391-.3447266-.4130859-.4941406-1.0625-.5546875-.2519531-.0302734-1.8613281-.0449219-2.0234375-.0449219-.0595703,0-.0888672.0449219-.0888672.1503906v4.1396484c0,.1044922.0146484.1494141.0888672.1494141.1914062,0,2.0078125,0,2.3476562-.0292969.3994141-.0302734.5917969-.0751953.7382812-.2558594.0742188-.0898438.1191406-.1494141.1777344-.1494141.0449219,0,.0742188.0302734.0742188.1201172s-.0742188.3447266-.1181641.8398438c-.0439453.4648438-.0439453.8095703-.0595703,1.0195312-.0146484.1503906-.0439453.2255859-.1035156.2255859-.0878906,0-.1035156-.1201172-.1035156-.2402344,0-.1347656-.0136719-.2851562-.0585938-.4199219-.0585938-.2255859-.2363281-.4345703-.7675781-.4951172-.3994141-.0449219-1.8613281-.0751953-2.1132812-.0751953-.0732422,0-.1025391.0449219-.1025391.1054688v1.3193359c0,.5097656-.0146484,2.25,0,2.5654297.0292969.6142578.1181641.9443359.4873047,1.0947266.2509766.1054688.6503906.1347656,1.2255859.1347656.4433594,0,.9306641-.0146484,1.3291016-.1347656.4726562-.1503906.6357422-.4648438.7539062-1.109375.0292969-.1660156.0585938-.2255859.1328125-.2255859.0888672,0,.0888672.1201172.0888672.2255859,0,.1191406-.1181641,1.1396484-.1923828,1.4541016-.1035156.390625-.2216797.390625-.796875.390625-1.09375,0-1.5810547-.0302734-2.1572266-.0458984-.5908203-.0146484-1.2705078-.0449219-1.8466797-.0449219-.3535156,0-.7089844.0605469-1.0927734.0449219-.1621094,0-.2363281-.0292969-.2363281-.1191406,0-.0449219.0742188-.0751953.1630859-.0898438.1474609-.015625.2363281-.015625.3398438-.0449219.3095703-.0751953.5019531-.2851562.53125-1.4101562.0146484-.5849609.0292969-1.3505859.0292969-2.6855469v-2.6396484Z"/>
            <path class="cls-1" d="m103.0742188,46.8515625c-4.0917969,0-5.7753906-3.1953125-5.7753906-5.8945312,0-2.4306641,1.7421875-5.8652344,5.8193359-5.8652344,3.3232422,0,5.8046875,2.1445312,5.8046875,5.625,0,2.6396484-1.6396484,4.3945312-2.6142578,5.0390625l3.0273438,1.5898438c3.2353516,1.6953125,5.4804688,1.7705078,6.21875,1.7705078s1.890625-.1650391,2.9101562-.5849609c.0878906-.0302734.1621094-.0605469.2070312-.0605469.0585938,0,.0878906.0449219.0878906.0898438,0,.0605469-.0292969.1054688-.1181641.1503906-.8417969.390625-2.4960938,1.0351562-4.6826172,1.0351562-1.7871094,0-3.6923828-.6601562-6.0849609-2.0097656l-2.4814453-1.3945312c-.53125.2841797-1.5361328.5097656-2.3183594.5097656Zm4.4306641-5.7148438c0-3.5996094-2.1572266-5.5351562-4.4902344-5.5351562-2.4667969,0-4.3134766,1.6503906-4.3134766,4.9345703,0,3.4951172,2.0683594,5.7451172,4.7265625,5.7451172,1.3300781,0,4.0771484-.7802734,4.0771484-5.1445312Z"/>
            <path class="cls-1" d="m114.9951172,41.7519531c0,2.1591797.4726562,3.0898438,1.1074219,3.7041016.7236328.6904297,1.3886719.8251953,2.2304688.8251953.9013672,0,1.7871094-.4355469,2.3193359-1.0800781.6796875-.8554688.8564453-2.1298828.8564453-3.6748047v-1.875c0-2.3398438,0-2.7597656-.0292969-3.2392578-.0302734-.5107422-.1474609-.75-.6357422-.8554688-.1171875-.0302734-.3691406-.0449219-.5019531-.0449219-.0585938,0-.1181641-.0302734-.1181641-.0898438,0-.0898438.0742188-.1201172.2363281-.1201172.6650391,0,1.4775391.0449219,1.5654297.0449219.1035156,0,.7978516-.0449219,1.2412109-.0449219.1621094,0,.2363281.0302734.2363281.1201172,0,.0595703-.0595703.0898438-.1181641.0898438-.1035156,0-.1923828.0146484-.3691406.0449219-.3984375.0898438-.5175781.3300781-.546875.8554688-.0292969.4794922-.0292969.8994141-.0292969,3.2392578v1.6044922c0,1.6210938-.1777344,3.4199219-1.359375,4.4853516-1.0625.9599609-2.1708984,1.1103516-3.0429688,1.1103516-.5019531,0-1.9931641-.0605469-3.0419922-1.0654297-.7236328-.7050781-1.2851562-1.7548828-1.2851562-3.9443359v-2.1904297c0-2.3398438,0-2.7597656-.0292969-3.2392578-.0302734-.5107422-.1474609-.75-.6357422-.8554688-.1171875-.0302734-.3691406-.0449219-.5019531-.0449219-.0585938,0-.1181641-.0302734-.1181641-.0898438,0-.0898438.0742188-.1201172.2363281-.1201172.6650391,0,1.5654297.0449219,1.6982422.0449219s1.0195312-.0449219,1.4628906-.0449219c.1621094,0,.2363281.0302734.2363281.1201172,0,.0595703-.0585938.0898438-.1181641.0898438-.1035156,0-.1923828.0146484-.3691406.0449219-.3994141.0605469-.5166016.3300781-.546875.8554688-.0292969.4794922-.0292969.8994141-.0292969,3.2392578v2.1005859Z"/>
            <path class="cls-1" d="m128.6738281,39.6513672c0-2.3398438,0-2.7597656-.0292969-3.2392578-.0292969-.5107422-.1474609-.75-.6347656-.8554688-.1035156-.0302734-.2958984-.0302734-.4287109-.0449219-.1035156-.015625-.1923828-.0302734-.1923828-.0898438,0-.0898438.0742188-.1201172.2363281-.1201172.3398438,0,.7382812,0,1.6699219.0449219.1035156,0,3.0419922,0,3.3818359-.0146484.3251953-.015625.5908203-.0449219.6796875-.0898438s.1181641-.0605469.1621094-.0605469.0595703.0605469.0595703.1347656c0,.1054688-.0888672.2851562-.1181641.7050781-.0146484.2246094-.0302734.5097656-.0595703.9003906-.0146484.1494141-.0585938.2548828-.1181641.2548828-.0888672,0-.1181641-.0751953-.1181641-.1953125,0-.1943359-.0292969-.375-.0742188-.4951172-.1025391-.3447266-.4130859-.4941406-1.0625-.5546875-.2519531-.0302734-1.8613281-.0449219-2.0234375-.0449219-.0595703,0-.0888672.0449219-.0888672.1503906v4.1396484c0,.1044922.0146484.1494141.0888672.1494141.1914062,0,2.0078125,0,2.3476562-.0292969.3994141-.0302734.5917969-.0751953.7382812-.2558594.0742188-.0898438.1191406-.1494141.1777344-.1494141.0449219,0,.0742188.0302734.0742188.1201172s-.0742188.3447266-.1181641.8398438c-.0439453.4648438-.0439453.8095703-.0595703,1.0195312-.0146484.1503906-.0439453.2255859-.1035156.2255859-.0878906,0-.1035156-.1201172-.1035156-.2402344,0-.1347656-.0136719-.2851562-.0585938-.4199219-.0585938-.2255859-.2363281-.4345703-.7675781-.4951172-.3994141-.0449219-1.8613281-.0751953-2.1132812-.0751953-.0732422,0-.1025391.0449219-.1025391.1054688v1.3193359c0,.5097656-.0146484,2.25,0,2.5654297.0292969.6142578.1181641.9443359.4873047,1.0947266.2509766.1054688.6503906.1347656,1.2255859.1347656.4433594,0,.9306641-.0146484,1.3291016-.1347656.4726562-.1503906.6357422-.4648438.7539062-1.109375.0292969-.1660156.0585938-.2255859.1328125-.2255859.0888672,0,.0888672.1201172.0888672.2255859,0,.1191406-.1181641,1.1396484-.1923828,1.4541016-.1035156.390625-.2216797.390625-.796875.390625-1.09375,0-1.5810547-.0302734-2.1572266-.0458984-.5908203-.0146484-1.2705078-.0449219-1.8466797-.0449219-.3535156,0-.7089844.0605469-1.0927734.0449219-.1621094,0-.2363281-.0292969-.2363281-.1191406,0-.0449219.0742188-.0751953.1630859-.0898438.1474609-.015625.2363281-.015625.3398438-.0449219.3095703-.0751953.5019531-.2851562.53125-1.4101562.0146484-.5849609.0292969-1.3505859.0292969-2.6855469v-2.6396484Z"/>
            <path class="cls-1" d="m138.5859375,46.4462891c-.2070312-.1044922-.2216797-.1650391-.2216797-.5703125,0-.75.0595703-1.3496094.0732422-1.5898438.015625-.1650391.0449219-.2392578.1191406-.2392578.0878906,0,.1035156.0449219.1035156.1640625,0,.1347656,0,.3457031.0439453.5556641.2216797,1.109375,1.1962891,1.5292969,2.1855469,1.5292969,1.4179688,0,2.1123047-1.0341797,2.1123047-1.9951172,0-1.0341797-.4277344-1.6347656-1.6982422-2.6992188l-.6650391-.5546875c-1.5654297-1.3056641-1.9199219-2.2353516-1.9199219-3.2558594,0-1.6044922,1.1816406-2.6992188,3.0576172-2.6992188.5751953,0,1.0039062.0595703,1.3740234.1503906.2802734.0595703.3984375.0742188.5166016.0742188s.1474609.0302734.1474609.1054688c0,.0742188-.0585938.5703125-.0585938,1.5898438,0,.2402344-.0302734.3447266-.1035156.3447266-.0888672,0-.1035156-.0751953-.1191406-.1943359-.0136719-.1806641-.1025391-.5859375-.1914062-.75-.0888672-.1660156-.4873047-.7949219-1.8457031-.7949219-1.0195312,0-1.8173828.6445312-1.8173828,1.7392578,0,.8544922.3837891,1.3955078,1.8017578,2.5205078l.4140625.3300781c1.7421875,1.3945312,2.15625,2.3242188,2.15625,3.5244141,0,.6142578-.2363281,1.7548828-1.2558594,2.4892578-.6347656.4501953-1.4326172.6308594-2.2304688.6308594-.6933594,0-1.3730469-.1054688-1.9785156-.4052734Z"/>
            <path class="cls-1" d="m152.796875,42.2910156c0,1.4404297,0,2.625.0732422,3.2548828.0439453.4355469.1328125.765625.5761719.8251953.2060547.0302734.5322266.0605469.6650391.0605469.0878906,0,.1171875.0449219.1171875.0898438,0,.0742188-.0732422.1191406-.2363281.1191406-.8125,0-1.7421875-.0449219-1.8164062-.0449219s-1.0039062.0449219-1.4472656.0449219c-.1621094,0-.2363281-.0292969-.2363281-.1191406,0-.0449219.0292969-.0898438.1181641-.0898438.1328125,0,.3095703-.0302734.4423828-.0605469.2958984-.0595703.3701172-.3896484.4287109-.8251953.0742188-.6298828.0742188-1.8144531.0742188-3.2548828v-6.3447266c-.7236328.015625-1.4619141.015625-2.1865234.0302734-.9160156.015625-1.2695312.1201172-1.5058594.4804688-.1630859.2548828-.2070312.359375-.2519531.4648438-.0439453.1191406-.0878906.1494141-.1474609.1494141-.0439453,0-.0732422-.0449219-.0732422-.1347656,0-.1494141.2949219-1.4404297.3242188-1.5595703.0292969-.0898438.0888672-.2851562.1484375-.2851562.1035156,0,.2509766.1503906.6494141.1796875.4287109.0449219.9892578.0751953,1.1669922.0751953h5.5390625c.4726562,0,.8125-.0302734,1.0488281-.0751953.2207031-.0292969.3544922-.0742188.4130859-.0742188.0742188,0,.0742188.0898438.0742188.1796875,0,.4492188-.0439453,1.484375-.0439453,1.6494141,0,.1357422-.0449219.1953125-.1035156.1953125-.0742188,0-.1035156-.0449219-.1191406-.2548828,0-.0605469-.0136719-.1054688-.0136719-.1650391-.0449219-.4501953-.3994141-.7949219-1.8173828-.8251953-.6201172-.0146484-1.2412109-.0146484-1.8603516-.0302734v6.3447266Z"/>
          </g>
        </g>
        <g>
          <path class="cls-1" d="m48.9225026,55.1196842c-.2815803,0-.5635056-.107663-.7781416-.3226441l-13.1293705-13.1290255c-.2087697-.2084246-.3247145-.4920753-.3226441-.7871135.0024155-.2950382.1231914-.5766184.3350667-.7819374l5.1964674-5.0304869c.4316874-.4178845,1.1190746-.4127083,1.5438605.0127677l13.0462077,13.0462077c.429962.429617.429962,1.1266662,0,1.5562831l-5.1133046,5.1133046c-.2146359.214981-.4965613.3226441-.7781416.3226441Zm-11.5599746-14.2170434l11.5599746,11.5596295,3.5566764-3.5566764-11.5020022-11.5020022-3.6146488,3.499049Z"/>
          <path class="cls-1" d="m22.8549325,45.71021C10.2528348,45.71021,0,35.4573752,0,22.8552775,0,10.2528348,10.2528348,0,22.8549325,0s22.8549325,10.2528348,22.8549325,22.8552775c0,12.6020977-10.2528348,22.8549325-22.8549325,22.8549325Zm0-43.5086387C11.4664596,2.2015713,2.2015713,11.4668047,2.2015713,22.8552775s9.2648883,20.6533612,20.6533612,20.6533612,20.6533612-9.2648883,20.6533612-20.6533612S34.2434053,2.2015713,22.8549325,2.2015713Z"/>
          <path class="cls-1" d="m40.2832333,24.1258395c-.6080202,0-1.1007856-.4927655-1.1007856-1.1007856,0-9.1247883-7.4232291-16.5480174-16.5480174-16.5480174-.6080202,0-1.1007856-.4927655-1.1007856-1.1007856s.4927655-1.1007856,1.1007856-1.1007856c10.3384131,0,18.7495886,8.4111755,18.7495886,18.7495886,0,.6080202-.4927655,1.1007856-1.1007856,1.1007856Z"/>
        </g>
      </g>
    </g>
  </g>
</svg>