<?xml version="1.0" encoding="UTF-8"?>
<svg xmlns="http://www.w3.org/2000/svg" viewBox="0 0 614.4534848 144.1913353">
  <defs>
    <style>
      .cls-1, .cls-2 {
        fill: none;
        stroke: #fff;
        stroke-miterlimit: 10;
      }

      .cls-3 {
        isolation: isolate;
      }

      .cls-2 {
        stroke-width: 2px;
      }

      .cls-4 {
        fill: #fff;
      }

      .cls-4, .cls-5 {
        stroke-width: 0px;
      }

      .cls-5 {
        mix-blend-mode: multiply;
        opacity: .3;
      }
    </style>
  </defs>
  <g class="cls-3">
    <g id="_レイヤー_2" data-name="レイヤー 2">
      <g id="_レイヤー_1-2" data-name="レイヤー 1">
        <rect class="cls-5" width="614.4534848" height="144.1913353"/>
        <g>
          <rect class="cls-2" x="6.9574783" y="7.0180607" width="600.5385281" height="130.1552138"/>
          <polyline class="cls-1" points="534.5304669 116.2274608 585.2413844 116.2274608 574.2172719 109.6129933"/>
        </g>
        <g>
          <g>
            <path class="cls-4" d="m46.370279,73.3985241c.0859375-.137207.1796875-.1455078.2832031-.0258789.4453125.3774414.9853516.8835449,1.6201172,1.5175781l.1806641.1801758v.0258789l.4628906-1.0546875c.3085938-.7373047.5693359-1.5646973.7841797-2.4824219.2148438-.9169922.3476562-1.7446289.3984375-2.4821777.0175781-.1542969.1035156-.2058105.2578125-.1542969,1.5771484.4631348,2.3662109.8063965,2.3662109,1.0290527,0,.0859375-.0859375.1542969-.2568359.2055664l-.4892578.2058105c-.3769531,1.3205566-.9003906,2.6154785-1.5683594,3.8840332h8.5136719l.3857422-.565918c.0517578-.0681152.1162109-.1542969.1933594-.2570801s.1455078-.1799316.2060547-.2314453c.0595703-.0515137.1240234-.0773926.1923828-.0773926.1542969,0,.4589844.1931152.9130859.5791016.4541016.3857422.7421875.6987305.8623047.9387207.0507812.0686035.0341797.145752-.0517578.2316895-.1376953.137207-.4462891.2485352-.9257812.3342285-.171875,4.355957-.4804688,7.9484863-.9267578,10.7780762-.4453125,2.8293457-1.0029297,4.621582-1.671875,5.3759766-.6689453.7885742-1.6035156,1.2001953-2.8037109,1.2346191-.1376953,0-.2060547-.0686035-.2060547-.2058105-.0341797-.4802246-.1972656-.8232422-.4882812-1.0288086-.171875-.1376953-.4931641-.2744141-.9648438-.4116211-.4716797-.1374512-.9648438-.2487793-1.4785156-.3344727-.1376953-.0341797-.2060547-.1113281-.2060547-.2314453v-.0771484c0-.0683594.0214844-.1196289.0644531-.1542969.0419922-.0341797.0986328-.0424805.1669922-.0258789.6689453.0859375,1.3671875.1633301,2.0966797.2314453.7285156.0688477,1.2216797.1030273,1.4785156.1030273.2744141,0,.4892578-.0297852.6435547-.0898438s.3251953-.1674805.5146484-.3217773c.53125-.4970703.9902344-2.0917969,1.3759766-4.7844238.3857422-2.6921387.6816406-6.1220703.8876953-10.2893066h-1.6210938c-.5654297,3.515625-1.5732422,6.6367188-3.0224609,9.3632812s-3.46875,5.0161133-6.0576172,6.8681641c-.1201172.0854492-.2148438.0771484-.2832031-.0258789l-.0253906-.0256348c-.0859375-.1027832-.0683594-.1975098.0517578-.282959,2.1425781-1.9892578,3.8408203-4.3383789,5.0927734-7.0480957,1.2519531-2.7092285,2.0742188-5.6589355,2.4697266-8.848877h-1.8525391c-.6005859,2.3498535-1.5263672,4.5061035-2.7783203,6.4694824-1.2519531,1.963623-2.7861328,3.6313477-4.6044922,5.0031738-.1201172.0859375-.2138672.0771484-.2822266-.0258789l-.0263672-.0256348c-.0683594-.1027832-.0595703-.1970215.0263672-.282959,1.4912109-1.4404297,2.7480469-3.1293945,3.7685547-5.0673828,1.0195312-1.9375,1.7441406-3.9614258,2.1728516-6.0708008h-2.2119141c-.9609375,1.7324219-2.1699219,3.1899414-3.6269531,4.3730469-.1025391.0859375-.2060547.0771484-.3085938-.0256348l-.0253906-.0256348c-.0859375-.0859375-.0947266-.1801758-.0263672-.2832031.7890625-.9257812,1.578125-2.1774902,2.3671875-3.7553711-.1201172.1542969-.3085938.2314453-.5664062.2314453h-3.0605469v5.8134766l3.3183594-1.1833496c.0166016-.0168457.0507812-.0256348.1025391-.0256348.0859375,0,.1455078.0429688.1796875.128418v.1030273c0,.0688477-.0341797.128418-.1025391.1801758-1.5087891.840332-2.6748047,1.4748535-3.4980469,1.9033203v3.4467773c.0341797,2.126709.1025391,4.098877.2050781,5.9165039,0,.0854492-.0253906.1625977-.0771484.2314453-.1367188.1711426-.3388672.3215332-.6044922.4501953-.265625.128418-.5273438.1928711-.7841797.1928711-.1542969,0-.2871094-.0515137-.3984375-.1542969-.1123047-.1030273-.1669922-.2231445-.1669922-.3603516.1191406-1.7316895.1962891-3.6435547.2314453-5.736084v-3.1381836l-2.8046875,1.4404297c-.0507812.2058105-.1630859.3859863-.3339844.5402832-.0175781.0170898-.0517578.0256348-.1025391.0256348-.0693359,0-.1201172-.0427246-.1542969-.1286621l-.7724609-1.7490234c-.0507812-.1542969-.0166016-.2399902.1035156-.2573242.9423828-.2397461,2.2978516-.6687012,4.0644531-1.2861328v-6.3535156h-1.9550781c-.5664062,1.7148438-1.1923828,3.0869141-1.8779297,4.1157227-.0351562.0512695-.0771484.081543-.1289062.0898438-.0517578.0087891-.1025391-.0039062-.1542969-.0385742l-.0517578-.0256348c-.1025391-.0515137-.1279297-.1455078-.0771484-.282959.3769531-1.0629883.6865234-2.1691895.9267578-3.3183594.1542969-.6687012.2783203-1.4274902.3730469-2.2763672.09375-.848877.140625-1.6333008.140625-2.3535156v-.7202148c0-.0517578.0214844-.090332.0644531-.1157227.0429688-.0258789.0986328-.0297852.1679688-.0131836.8222656.171875,1.3925781.3088379,1.7099609.4116211.3173828.1030273.4755859.2060547.4755859.3085938,0,.0688477-.0683594.1459961-.2050781.2316895l-.4375.2314453c-.2744141,1.3376465-.5146484,2.3322754-.7207031,2.9838867h1.75v-.5144043c0-1.8691406-.0947266-3.5410156-.2832031-5.0161133v-.0512695c0-.137207.0771484-.1801758.2314453-.1286621.8398438.2570801,1.4277344.4675293,1.7617188.630127.3349609.1630859.5019531.3046875.5019531.4245605,0,.0859375-.0693359.1716309-.2060547.2570801l-.4111328.2832031v4.1154785h.6425781l.9775391-1.3117676Z"/>
            <path class="cls-4" d="m70.9610994,78.1829479c-.8574219,1.423584-1.84375,2.7180176-2.9580078,3.8840332-.0683594.1030273-.1630859.1118164-.2832031.0258789h-.0253906c-.0859375-.0683594-.1025391-.1628418-.0517578-.282959,1.3203125-1.954834,2.5556641-4.4245605,3.7041016-7.4082031.2919922-.7885742.5703125-1.6889648.8359375-2.7009277.2666016-1.0117188.4335938-1.8691406.5019531-2.5722656.0341797-.1542969.1201172-.2058105.2568359-.1542969,1.578125.5830078,2.3671875.96875,2.3671875,1.1574707,0,.0859375-.0859375.1542969-.2578125.2058105l-.4882812.1542969c-.6689453,1.9379883-1.4316406,3.7297363-2.2890625,5.3759766.5820312.4631348.8740234.7973633.8740234,1.003418,0,.0859375-.0771484.1713867-.2314453.2570801l-.3603516.1542969v8.6171875c.0341797,2.1437988.1035156,4.1071777.2060547,5.890625,0,.1027832-.0341797.1884766-.1025391.2570801-.171875.1542969-.3857422.2915039-.6435547.4116211-.2568359.119873-.5058594.1801758-.7460938.1801758-.1542969,0-.2910156-.0515137-.4111328-.1542969-.1201172-.1030273-.1796875-.2231445-.1796875-.3603516.0683594-1.0117188.1279297-1.9934082.1796875-2.9453125.0517578-.9516602.0859375-2.1992188.1025391-3.7426758v-7.2536621Zm16.2060547-3.8840332c.0507812-.0683594.1279297-.1757812.2314453-.3217773.1025391-.1455078.1923828-.2573242.2695312-.3344727s.1503906-.1157227.21875-.1157227c.1376953,0,.4716797.2316895,1.0029297.6945801.5322266.4631348.8574219.8146973.9775391,1.0546875.0175781.0861816.0175781.1716309,0,.2570801-.1025391.1889648-.3085938.2832031-.6171875.2832031h-6.2246094v6.2763672h4.2695312l.5146484-.7717285c.0517578-.0683594.1289062-.1755371.2314453-.3215332.1035156-.1455078.1933594-.2573242.2705078-.3344727s.1494141-.1157227.21875-.1157227c.1367188,0,.4794922.2358398,1.0283203.7075195s.8837891.8273926,1.0039062,1.0673828c.0166016.0859375.0166016.1716309,0,.2573242-.1035156.1889648-.3095703.2827148-.6181641.2827148h-6.9189453v3.0610352c.0341797,2.126709.1025391,4.0644531.2060547,5.8134766,0,.0856934-.0263672.1628418-.0771484.2314453-.1376953.1884766-.34375.3427734-.6181641.4631348-.2744141.119873-.5488281.1799316-.8222656.1799316-.171875,0-.3183594-.0512695-.4375-.1542969-.1201172-.1027832-.1806641-.2231445-.1806641-.3601074.0683594-.8918457.125-1.7746582.1679688-2.6494141.0419922-.8745117.0722656-1.9807129.0898438-3.3181152v-3.2670898h-3.2666016c-1.0976562.0175781-2.3242188.1289062-3.6787109.3344727h-.0771484c-.0693359,0-.1289062-.0424805-.1806641-.128418l-.4365234-.9262695c-.0175781-.0166016-.0263672-.0512695-.0263672-.1027832,0-.0856934.0605469-.1286621.1806641-.1286621.9423828.0859375,1.9892578.1459961,3.1376953.1801758h4.3476562v-6.2763672h-4.0644531c-.9609375,2.0410156-2.0068359,3.661377-3.1386719,4.8615723-.0859375.1201172-.1796875.1286621-.2822266.0256348-.1035156-.1027832-.1201172-.1967773-.0517578-.2827148.7373047-1.3544922,1.3974609-2.8811035,1.9804688-4.5788574.2578125-.7885742.4892578-1.6977539.6943359-2.7268066.2060547-1.0288086.3173828-1.9033203.3349609-2.6235352,0-.0683594.0253906-.1157227.0771484-.1416016.0517578-.0256348.1113281-.0297852.1796875-.0126953.875.2744141,1.4833984.4975586,1.8261719.6687012.34375.1716309.5146484.3088379.5146484.4116211,0,.0686035-.0771484.1286621-.2314453.1799316l-.4628906.1801758c-.3427734,1.2519531-.7197266,2.3496094-1.1318359,3.2924805h3.7558594v-.5400391c0-1.8691406-.0947266-3.5410156-.2832031-5.0161133v-.0512695c0-.137207.0771484-.1801758.2314453-.1289062,1.5771484.4631348,2.3662109.8063965,2.3662109,1.0290527,0,.0861816-.0683594.1716309-.2050781.2570801l-.4375.2832031v4.1669922h3.6015625l.5400391-.7714844Z"/>
            <path class="cls-4" d="m117.01774,83.9961803c.4375.171875.8320312.3947754,1.1835938.6689453.3515625.2744141.5273438.557373.5273438.848877,0,.4460449-.2919922.6687012-.8740234.6687012-.2753906,0-.5322266-.0256348-.7724609-.0771484-1.6289062-.3256836-3.5322266-.4887695-5.7099609-.4887695-.9951172,0-2.1611328.0515137-3.4990234.1542969-2.0917969.1889648-4.1669922.5146484-6.2246094.9775391-.1376953.034668-.3427734.1030273-.6171875.2058105-.2402344.1027832-.4501953.1799316-.6298828.2314453-.1806641.0515137-.390625.0773926-.6308594.0773926-.3945312,0-.8095703-.0986328-1.2470703-.2958984-.4375-.1970215-.8017578-.4458008-1.09375-.7460938-.2910156-.2998047-.4365234-.6044922-.4365234-.9130859,0-.0341797.0166016-.0683594.0507812-.1030273.0341797-.0341797.0683594-.0512695.1035156-.0512695.0683594,0,.1748047.034668.3212891.1027832.1455078.0686035.2783203.1203613.3984375.154541.3427734.1201172.7285156.1799316,1.1572266.1799316.2744141,0,1.6894531-.1369629,4.2451172-.4116211l3.5751953-.3859863c.2226562-2.503418.3339844-4.2353516.3339844-5.1958008,0-.2399902-.0087891-.402832-.0253906-.4887695-.0683594-.3256836-.1757812-.5874023-.3212891-.784668-.1464844-.1967773-.2792969-.3510742-.3994141-.4628906-.1201172-.1113281-.1972656-.1757812-.2314453-.1928711-.9599609.1542969-1.6376953.2744141-2.0322266.3598633-.5996094.1203613-1.0283203.2231445-1.2861328.3088379-.2568359.0861816-.4541016.1286621-.5908203.1286621-.3603516,0-.7041016-.1113281-1.0292969-.3344727-.3261719-.2226562-.5751953-.4714355-.7460938-.7460938-.1542969-.2397461-.2314453-.411377-.2314453-.5141602,0-.137207.0517578-.2060547.1542969-.2060547.0859375,0,.2060547.0258789.3603516.0771484.0517578.0175781.2099609.0561523.4755859.1159668.265625.0603027.6386719.0900879,1.1191406.0900879.5654297,0,1.9199219-.137207,4.0644531-.4116211,2.1435547-.2741699,3.5146484-.5229492,4.1152344-.7460938.5664062-.2055664.9814453-.3344727,1.2480469-.3857422.265625-.0515137.5185547-.0771484.7587891-.0771484.4111328,0,.7841797.0688477,1.1191406.2055664.3339844.1376953.5947266.300293.7841797.4887695.1884766.1889648.2832031.3432617.2832031.4631348,0,.1374512-.0820312.2404785-.2451172.3088379-.1630859.0686035-.3388672.1027832-.5273438.1027832h-.4882812c-1.3720703,0-3.2753906.1716309-5.7109375.5144043.4121094.1889648.7675781.4160156,1.0683594.6816406.2998047.2661133.4501953.5014648.4501953.7075195,0,.0859375-.0693359.2485352-.2060547.4887695-.1542969.2229004-.2490234.4204102-.2832031.5913086-.0517578.171875-.125.7976074-.21875,1.8779297-.0947266,1.0803223-.1757812,2.0410156-.2441406,2.8808594,2.0576172-.2055664,3.4375-.3085938,4.1416016-.3085938.6171875,0,1.2431641-.0424805,1.8779297-.128418.2568359-.0341797.5654297-.119873.9257812-.2573242.4111328-.137207.6689453-.2058105.7714844-.2058105.1884766,0,.5019531.0859375.9384766.2570801Z"/>
            <path class="cls-4" d="m132.4903962,76.3308971c-.3945312-.6000977-.9091797-1.0974121-1.5429688-1.4919434-.6347656-.3942871-1.3125-.6945801-2.0322266-.9003906-.1376953-.0341797-.2490234-.0683594-.3349609-.1027832-.0859375-.0341797-.1279297-.0771484-.1279297-.1286621,0-.1542969.3935547-.2314453,1.1826172-.2314453.7207031,0,1.4707031.0898438,2.2509766.2700195s1.4277344.4672852,1.9423828.8618164c.6513672.5144043.9775391,1.0803223.9775391,1.6977539,0,.3085938-.0820312.5617676-.2451172.7587891-.1630859.1972656-.3896484.2958984-.6816406.2958984-.4794922,0-.9433594-.3430176-1.3886719-1.0290527Zm-3.6269531,9.954834c0-.2226562.0292969-.4072266.0898438-.5532227.0605469-.1455078.1162109-.2185059.1669922-.2185059.0517578,0,.1289062.0944824.2324219.282959.1025391.1889648.2392578.3688965.4111328.5400391.1708984.171875.3300781.3046875.4755859.3989258s.3554688.1413574.6308594.1413574c.6171875,0,1.7402344-.4973145,3.3691406-1.4919434,1.6289062-.9943848,3.5283203-2.3962402,5.6982422-4.2055664,2.1689453-1.809082,4.3427734-3.8798828,6.5205078-6.2124023.1542969-.1884766.2910156-.2827148.4111328-.2827148.0683594,0,.1035156.034668.1035156.1027832,0,.1027832-.0859375.282959-.2578125.5402832-1.1660156,1.6293945-2.5556641,3.2841797-4.1669922,4.9643555-1.6123047,1.6809082-3.1679688,3.1767578-4.6689453,4.4887695-1.5,1.3120117-2.6875,2.2763672-3.5625,2.8937988-.2060547.154541-.3769531.2661133-.5146484.3344727-.1542969.1027832-.3085938.2145996-.4628906.3342285-.1542969.1201172-.3261719.2832031-.5146484.4887695-.359375.4116211-.7714844.6174316-1.234375.6174316-.5654297,0-1.1103516-.2355957-1.6337891-.7072754-.5224609-.4716797-.8525391-1.0244141-.9902344-1.6591797-.0683594-.2741699-.1025391-.5402832-.1025391-.7973633Z"/>
            <path class="cls-4" d="m168.9650056,79.9063366c1.4238281.7375488,2.1357422,1.6035156,2.1357422,2.5981445,0,.2915039-.0732422.5317383-.21875.7202148-.1464844.1889648-.3310547.2827148-.5537109.2827148-.4628906,0-1.0712891-.4628906-1.8261719-1.388916-1.1660156-1.4746094-2.5976562-2.6064453-4.2958984-3.3952637v.4370117l-.0253906,4.21875c0,2.8981934.0429688,4.5703125.1289062,5.0158691.0166016.1203613.0683594.3903809.1542969.8103027.0859375.4204102.1289062.7504883.1289062.9902344,0,.3432617-.1123047.6472168-.3349609.9133301-.2226562.265625-.4287109.3986816-.6171875.3986816-.2402344,0-.4677734-.1928711-.6816406-.5786133-.2148438-.3859863-.390625-.8232422-.5273438-1.3120117-.1376953-.4887695-.2060547-.8271484-.2060547-1.0161133,0-.1030273.0341797-.3125.1035156-.630127.0683594-.3171387.1191406-.7331543.1542969-1.2478027l.0771484-2.0834961c.0341797-.5141602.0595703-1.0161133.0771484-1.5046387.0166016-.4887695.0341797-.9475098.0507812-1.3762207.0517578-1.1486816.0771484-2.8979492.0771484-5.2475586,0-1.8862305-.0341797-3.1293945-.1025391-3.7297363-.0517578-.3601074-.1542969-.6386719-.3085938-.8359375-.1542969-.1970215-.3046875-.3513184-.4501953-.4631348-.1455078-.1113281-.2441406-.184082-.2958984-.21875-.1376953-.1025391-.2060547-.1884766-.2060547-.2570801,0-.2058105.1630859-.3427734.4892578-.411377.3251953-.0683594.6337891-.1030273.9257812-.1030273.5830078,0,1.0634766.1889648,1.4404297.565918.1884766.1889648.2832031.4116211.2832031.6687012,0,.1203613-.0087891.2231445-.0253906.3088379-.0175781.0859375-.0351562.1630859-.0517578.2314453-.0175781.0859375-.0556641.3259277-.1162109.7202148-.0595703.3945312-.0898438.8320312-.0898438,1.3120117v.5400391c-.0341797.9604492-.0517578,2.1008301-.0517578,3.4211426,1.75.3601074,3.3359375.9091797,4.7587891,1.6462402Z"/>
            <path class="cls-4" d="m188.3097322,91.7132213c0-.0686035.1455078-.1799316.4375-.3344727,2.2460938-1.2687988,3.9570312-2.6450195,5.1318359-4.1286621,1.1738281-1.4829102,1.9628906-3.0864258,2.3662109-4.8100586.4033203-1.7233887.6044922-3.7768555.6044922-6.1606445,0-.7202148-.0341797-1.6289062-.1025391-2.7265625-.0351562-.7543945-.2148438-1.2773438-.5400391-1.5690918-.1894531-.1711426-.3691406-.2958984-.5400391-.3730469-.171875-.0771484-.2880859-.1369629-.3476562-.1799316-.0605469-.0427246-.0898438-.1069336-.0898438-.1928711,0-.2402344.3339844-.3603516,1.0029297-.3603516.2402344,0,.4794922.017334.7207031.0515137.4277344.1027832.8828125.3518066,1.3632812.7458496.4794922.3947754.7197266.729248.7197266,1.003418,0,.137207-.0605469.3256836-.1796875.565918-.0175781.0344238-.0644531.1542969-.1416016.3598633-.0771484.2060547-.1162109.4375-.1162109.6948242,0,.7373047-.0166016,1.6035156-.0507812,2.5979004-.1035156,2.7780762-.4638672,5.0673828-1.0810547,6.8679199-.6171875,1.8007812-1.6074219,3.3227539-2.9707031,4.565918-1.3632812,1.2436523-3.2539062,2.3706055-5.671875,3.3825684-.171875.0681152-.2998047.1027832-.3857422.1027832s-.1289062-.034668-.1289062-.1027832Zm2.5214844-9.2346191c-.2060547-.3427734-.3095703-.7543945-.3095703-1.2346191,0-.0515137.0263672-.3898926.0771484-1.0161133.0517578-.6257324.0771484-1.1704102.0771484-1.6335449,0-1.7316895-.0683594-2.9748535-.2050781-3.7294922-.0517578-.3256836-.125-.5830078-.21875-.7719727-.0947266-.1884766-.2529297-.3427734-.4755859-.4628906-.1542969-.0854492-.2832031-.1628418-.3867188-.2314453-.1025391-.0683594-.1542969-.1455078-.1542969-.2314453,0-.119873.1113281-.2270508.3349609-.3217773.2226562-.0939941.4716797-.1413574.7460938-.1413574.2392578,0,.4375.0344238.5917969.1027832.5654297.2060547.9550781.4204102,1.1699219.6430664.2138672.2231445.3212891.4887695.3212891.7973633,0,.2060547-.0253906.4375-.0771484.6948242-.0859375.4628906-.1279297,1.3547363-.1279297,2.6750488l.0253906,2.0063477c0,.3432617.0166016.7548828.0517578,1.2346191.0341797.4116211.0507812.6689453.0507812.7717285,0,.3432617-.0771484.6560059-.2314453.9389648s-.3691406.4245605-.6425781.4245605c-.2060547,0-.4121094-.1713867-.6171875-.5146484Z"/>
            <path class="cls-4" d="m213.9816072,82.5044811c-.3085938-.1713867-.5878906-.402832-.8359375-.6945801-.2490234-.2915039-.3730469-.6086426-.3730469-.9519043,0-.1884766.0380859-.3769531.1152344-.565918.0771484-.1884766.1582031-.2827148.2441406-.2827148.0341797,0,.1113281.0429688.2324219.128418.1708984.1376953.3505859.2404785.5400391.3085938.6855469.2231445,1.4570312.3344727,2.3144531.3344727.7373047-.0168457,1.8603516-.046875,3.3701172-.0898438,1.5087891-.0427246,2.7949219-.0812988,3.8583984-.1157227,2.2802734-.0856934,4.1757812-.1713867,5.6845703-.2573242.875-.0515137,1.5605469-.0771484,2.0576172-.0771484.6689453,0,1.1923828.0600586,1.5693359.1801758s.5664062.3857422.5664062.7973633c0,.411377-.3525391.6518555-1.0546875.7202148-.34375.0344238-.8154297.0512695-1.4150391.0512695l-7.4599609.1801758c-1.3203125.034668-2.7568359.0942383-4.3085938.1801758s-2.5595703.1799316-3.0224609.2827148c-.4287109.0859375-.7714844.1286621-1.0283203.1286621-.4462891,0-.7978516-.0856934-1.0546875-.2570801Z"/>
            <path class="cls-4" d="m260.1153962,76.5367077c.4375.3601074.65625.840332.65625,1.4404297,0,.7717285-.3349609,1.4277344-1.0039062,1.9677734s-1.578125,1.059082-2.7265625,1.5561523l-1.9033203.7719727c-1.2695312.4975586-2.1181641.840332-2.546875,1.0288086-.0507812.3601074-.0771484.9257812-.0771484,1.6977539,0,1.2177734-.0087891,1.9033203-.0253906,2.0576172-.0175781.2573242-.125.4760742-.3212891.6560059-.1972656.1799316-.4082031.2702637-.6308594.2702637-.2050781,0-.3857422-.0942383-.5400391-.2832031-.1542969-.1884766-.2314453-.4025879-.2314453-.6430664,0-.1884766.0263672-.5229492.0771484-1.0029297l.1542969-1.980957c-.9941406.5493164-1.7705078,1.1235352-2.328125,1.7236328-.5566406.6005859-.8359375,1.269043-.8359375,2.0063477,0,1.3034668,1.3037109,1.9550781,3.9101562,1.9550781.3945312,0,.7978516-.0341797,1.2089844-.1030273.4121094-.0683594.7978516-.1455078,1.1572266-.2314453.6865234-.1542969,1.2177734-.2314453,1.5947266-.2314453.6689453,0,1.0039062.2314453,1.0039062.6943359,0,.5146484-.4804688.8745117-1.4404297,1.0805664-.9609375.2055664-1.9638672.3085938-3.0097656.3085938-2.1435547,0-3.5751953-.3217773-4.2958984-.9648438-.7197266-.6430664-1.0800781-1.4274902-1.0800781-2.3535156,0-.9602051.3642578-1.8046875,1.0927734-2.5336914.7285156-.7285156,1.7539062-1.4360352,3.0742188-2.1220703.0166016-.1884766.0253906-.4541016.0253906-.7973633,0-1.8007812-.53125-2.7011719-1.5947266-2.7011719-.6171875,0-1.2646484.3691406-1.9423828,1.1062012-.6767578.7375488-1.3330078,1.543457-1.9677734,2.4179688-.0507812.0686035-.1708984.2443848-.359375.5273438-.1894531.282959-.3691406.510498-.5400391.6816406-.171875.1716309-.3183594.2570801-.4375.2570801-.2919922,0-.5146484-.1113281-.6689453-.3342285-.1542969-.2226562-.2314453-.4887695-.2314453-.7973633,0-.4116211.09375-.720459.2832031-.9260254l.4628906-.4116211c.5478516-.5144043,1.0195312-.9775391,1.4140625-1.3891602s.7460938-.8828125,1.0546875-1.4145508c.875-1.4921875,1.578125-3.0869141,2.109375-4.784668-.6689453.1889648-1.3291016.2832031-1.9804688.2832031-.5654297,0-1.0458984-.0942383-1.4404297-.2832031-.3945312-.1884766-.8662109-.4970703-1.4150391-.9257812-.0683594-.0515137-.1025391-.1030273-.1025391-.1542969,0-.0683594.0429688-.1030273.1289062-.1030273.0683594,0,.1884766.0256348.359375.0771484.5488281.2058105,1.1318359.3085938,1.75.3085938.3085938,0,.7363281-.0385742,1.2861328-.1157227.5478516-.0771484,1.1484375-.2353516,1.7998047-.4758301.1201172-.4797363.1806641-.9001465.1806641-1.260498,0-.6855469-.2666016-1.2431641-.7978516-1.671875-.0859375-.0683594-.1289062-.137207-.1289062-.2058105.0175781-.2570801.1552734-.3859863.4121094-.3859863.1542969,0,.4453125.0515137.875.1542969.4277344.1030273.6943359.2231445.796875.3603516.0859375.1027832.1289062.291748.1289062.565918,0,.1027832-.0175781.2744141-.0517578.5144043.2744141.1887207.6435547.282959,1.1064453.282959.2392578,0,.4199219-.0258789.5400391-.0771484.1708984-.0341797.3427734-.0515137.5146484-.0515137.3935547,0,.5908203.145752.5908203.4372559,0,.2231445-.1328125.4719238-.3984375.7460938-.265625.2744141-.5957031.5144043-.9902344.7202148-.5488281.3085938-1.2607422.6259766-2.1347656.9516602-.6171875,1.989502-1.2265625,3.6442871-1.8261719,4.9645996.4970703-.2912598.9853516-.4372559,1.4658203-.4372559.8398438,0,1.4960938.2314453,1.9677734.6943359.4716797.4631348.7851562,1.0893555.9394531,1.8779297.3085938-.7202148.6425781-1.3505859,1.0029297-1.890625.3603516-.5402832.796875-1.0844727,1.3115234-1.6333008s1.1484375-1.0202637,1.9033203-1.4150391c.7548828-.394043,1.4746094-.5915527,2.1611328-.5915527.5654297,0,1.0673828.1799316,1.5048828.5402832Zm-9.9677734-3.6784668c.1201172-.0515137.2226562-.1069336.3085938-.1672363.0859375-.0598145.1630859-.1069336.2314453-.1413574.1201172-.0683594.1806641-.1369629.1806641-.2058105,0-.0683594-.0693359-.1542969-.2060547-.2573242l-.2832031-.1799316c0,.0515137-.0771484.3688965-.2314453.9516602Zm8.3212891,6.0834961c.5234375-.5915527.7841797-1.0759277.7841797-1.4533691,0-.4970703-.3251953-.7460938-.9765625-.7460938-.4638672,0-.9951172.1633301-1.5957031.4887695-.5996094.3261719-1.1572266.7460938-1.671875,1.260498-.4628906.4631348-.9091797,1.0847168-1.3369141,1.8649902-.4296875.7805176-.7382812,1.4707031-.9267578,2.0708008v.0256348l.3349609-.154541.5400391-.2570801c1.3886719-.685791,2.3232422-1.1745605,2.8037109-1.4660645.8398438-.4973145,1.5214844-1.0419922,2.0449219-1.6335449Z"/>
            <path class="cls-4" d="m277.2462556,90.1827038c-1.0205078-.2143555-1.8388672-.5615234-2.4560547-1.0419922-.7890625-.6171875-1.1835938-1.4660645-1.1835938-2.5463867,0-.4799805.0517578-.8745117.1542969-1.1831055.1035156-.3256836.2060547-.4887695.3085938-.4887695.1376953,0,.2060547.1630859.2060547.4887695v.3857422c0,1.0634766.6259766,1.8349609,1.8779297,2.3149414.8232422.3085938,1.8349609.4631348,3.0351562.4631348.9775391,0,2.3408203-.1455078,4.0898438-.4372559,1.0117188-.1542969,1.6630859-.2314453,1.9550781-.2314453.4453125,0,.7841797.0859375,1.015625.2570801.2324219.1716309.3476562.4030762.3476562.6945801,0,.4802246-.4287109.8486328-1.2861328,1.105957-.5146484.1542969-1.1962891.282959-2.0449219.3857422-.8486328.1030273-1.7363281.154541-2.6621094.154541-1.2177734,0-2.3369141-.1069336-3.3574219-.3215332Zm.6044922-12.0512695c0-.0854492.0517578-.1801758.1542969-.282959.2919922-.2912598.6689453-.6257324,1.1318359-1.0031738.2744141-.2397461.5234375-.4628906.7460938-.6689453.2226562-.2055664.3349609-.3342285.3349609-.3857422,0-.1884766-.3515625-.3427734-1.0546875-.4628906-.6347656-.119873-1.2392578-.3383789-1.8134766-.6560059-.5751953-.3171387-.9902344-.6213379-1.2480469-.9130859-.0683594-.0856934-.1328125-.1887207-.1923828-.3088379-.0605469-.1196289-.0908203-.2226562-.0908203-.3085938,0-.0683594.0175781-.1030273.0517578-.1030273l.1035156.0258789c.0507812.034668.1318359.081543.2441406.1416016.1113281.0600586.2695312.1413574.4755859.2441406.4111328.2060547.9257812.3774414,1.5429688.5146484.6181641.137207,1.1660156.2055664,1.6464844.2055664.4628906,0,.9941406-.0424805,1.5947266-.128418.6181641-.0683594,1.0458984-.1030273,1.2861328-.1030273.2060547,0,.3857422.0258789.5410156.0771484.7363281.2573242,1.1054688.6262207,1.1054688,1.1062012,0,.2058105-.0898438.3601074-.2695312.4631348-.1806641.1027832-.5791016.1887207-1.1962891.2570801-1.4238281.1887207-2.9501953.9260254-4.5791016,2.2121582-.171875.1201172-.2998047.1801758-.3857422.1801758s-.1289062-.0341797-.1289062-.1030273Zm8.7714844.7973633c-.2744141-.4282227-.5703125-.7800293-.8867188-1.0546875-.3173828-.2739258-.7167969-.5053711-1.1962891-.6943359-.0693359-.0341797-.1669922-.0683594-.2958984-.1030273-.1289062-.0341797-.2226562-.0727539-.2832031-.1157227-.0605469-.0424805-.0898438-.0983887-.0898438-.1669922,0-.1713867.2480469-.2573242.7460938-.2573242.9257812,0,1.7832031.1801758,2.5722656.5400391.7880859.3603516,1.1835938.8835449,1.1835938,1.5693359,0,.2402344-.0869141.4287109-.2578125.565918-.171875.137207-.3691406.2055664-.5917969.2055664-.3769531,0-.6777344-.1625977-.9003906-.4887695Zm2.5722656-2.2636719c-.3251953-.394043-.6298828-.6943359-.9130859-.9001465-.2822266-.2058105-.6552734-.3859863-1.1181641-.5402832-.1210938-.0341797-.2539062-.0727539-.3994141-.1157227-.1455078-.0424805-.2529297-.0810547-.3212891-.1157227-.0683594-.0341797-.1025391-.0854492-.1025391-.1542969,0-.1196289.1455078-.1970215.4365234-.2314453.2919922-.0341797.5410156-.0515137.7460938-.0515137.7890625,0,1.5351562.1586914,2.2382812.4758301.703125.3173828,1.0546875.7675781,1.0546875,1.3505859,0,.2402344-.0771484.4160156-.2314453.5273438-.1542969.1115723-.3261719.1669922-.5146484.1669922-.3603516,0-.6523438-.1369629-.875-.4116211Z"/>
            <path class="cls-4" d="m319.8566072,76.8194225c.5488281.4462891.8828125.7890625,1.0029297,1.0290527.0166016.0861816.0087891.1716309-.0253906.2573242-.1035156.1887207-.3007812.282959-.5917969.282959h-13.2734375c-.8056641,1.3208008-1.6113281,2.4350586-2.4179688,3.34375l.9003906.3859863h4.1162109c0-1.1318359-.0517578-2.1350098-.1542969-3.0095215v-.0515137c0-.1369629.0771484-.1799316.2314453-.1286621,1.40625.4462891,2.109375.7807617,2.109375,1.003418,0,.0859375-.0693359.1713867-.2060547.2570801l-.4111328.2570801v1.6721191h4.6816406l.359375-.5915527c.0517578-.0683594.1113281-.1628418.1806641-.282959.0683594-.119873.1279297-.2058105.1796875-.2573242s.1113281-.0771484.1796875-.0771484c.1542969,0,.484375.2102051.9912109.630127.5048828.4204102.8183594.7504883.9384766.9904785.0517578.0686035.0341797.145752-.0517578.2314453-.1884766.2231445-.5058594.3601074-.9511719.4116211v5.8647461c0,.7033691-.1376953,1.2390137-.4121094,1.607666s-.8574219.6130371-1.7490234.7331543h-.0517578c-.0859375,0-.1455078-.0603027-.1796875-.1799316-.0859375-.4975586-.2402344-.8491211-.4628906-1.0546875-.2402344-.2741699-.7548828-.4716797-1.5439453-.5917969-.1367188-.0341797-.2050781-.1027832-.2050781-.2055664,0-.1542969.0683594-.2143555.2050781-.1801758,1.0810547.1030273,1.84375.1542969,2.2900391.1542969.2050781,0,.3427734-.0385742.4111328-.1157227s.1035156-.2099609.1035156-.3986816v-5.9421387h-4.9130859v3.0869141c.0341797,2.1437988.1025391,4.0898438.2050781,5.8391113,0,.1027832-.0253906.1884766-.0771484.2570801-.1542969.1713867-.3642578.3173828-.6298828.4375-.2666016.1196289-.5273438.1799316-.7841797.1799316-.1376953,0-.2617188-.0515137-.3730469-.1542969-.1123047-.1027832-.1679688-.2229004-.1679688-.3601074.0683594-.9091797.125-1.8046875.1679688-2.6879883.0419922-.8830566.0722656-1.9936523.0898438-3.3310547v-3.2670898h-4.4501953v2.7011719c.0517578,2.2636719.1113281,3.9702148.1796875,5.1186523,0,.1030273-.0253906.1884766-.0771484.2573242-.1367188.1542969-.3251953.2915039-.5654297.4116211-.2402344.1196289-.5146484.1801758-.8232422.1801758-.1201172,0-.2275391-.0517578-.3212891-.154541-.0947266-.1027832-.1416016-.2229004-.1416016-.3601074.1191406-1.5776367.1962891-3.3439941.2314453-5.2988281v-2.9067383c-1.6298828,1.6806641-3.3183594,3.0009766-5.0673828,3.9614258-.1201172.0686035-.2148438.0512695-.2832031-.0517578v-.0253906c-.0683594-.119873-.0605469-.2143555.0253906-.2832031,1.3896484-.9941406,2.6708984-2.1865234,3.8457031-3.5754395s2.1992188-2.8720703,3.0742188-4.4499512h-2.4951172c-1.0976562.0170898-2.3242188.128418-3.6787109.3344727h-.0507812c-.0859375,0-.1542969-.0427246-.2060547-.1289062l-.4628906-.9001465-.0263672-.1027832c0-.0856934.0605469-.1286621.1806641-.1286621.9257812.0859375,1.9628906.145752,3.1123047.1799316h4.0126953c.2744141-.548584.5273438-1.1318359.7587891-1.7490234.2314453-.6174316.3984375-1.1833496.5019531-1.6977539-2.5722656.7033691-5.0078125,1.2260742-7.3056641,1.5690918h-.0517578c-.1025391,0-.1630859-.0598145-.1796875-.1799316l-.0253906-.0771484v-.0517578c0-.1027832.0595703-.1708984.1796875-.2055664,3.1035156-.6516113,6.1816406-1.5859375,9.234375-2.8037109-2.0410156-.703125-4.2871094-1.3288574-6.7392578-1.8779297-.1376953-.0341797-.1884766-.1196289-.1542969-.2573242l.0253906-.0771484c.0341797-.1369629.1113281-.1967773.2314453-.1799316,3.5498047.4802246,6.3710938,1.0288086,8.4628906,1.6462402l.6181641-.282959c.7880859-.3601074,1.5683594-.7756348,2.3408203-1.2475586.7714844-.4714355,1.4052734-.9389648,1.9033203-1.4020996.0849609-.0854492.1796875-.0854492.2822266,0,1.1318359.994873,1.6982422,1.5864258,1.6982422,1.7749023,0,.0861816-.1201172.1289062-.3603516.1289062l-.6171875-.0517578c-1.1318359.5834961-2.4355469,1.1577148-3.9101562,1.7236328,1.5605469.565918,2.6962891,1.1318359,3.4082031,1.6977539s1.0673828,1.0546875,1.0673828,1.4663086c0,.1713867-.0556641.3044434-.1669922.3984375-.1113281.0947266-.2617188.1416016-.4501953.1416016-.2226562,0-.4628906-.0771484-.7197266-.2314453-1.3378906-.9775391-3.0703125-1.8862305-5.1962891-2.7265625-1.2695312.4287109-2.3662109.7714844-3.2929688,1.0288086,1.3896484.565918,2.0839844.9433594,2.0839844,1.1318359,0,.0512695-.0253906.0898438-.0771484.1157227-.0517578.0256348-.1113281.0473633-.1796875.064209l-.4628906.1027832c-.2919922.6520996-.6523438,1.3549805-1.0810547,2.109375h10.1865234l.5146484-.7458496c.0683594-.0856934.1416016-.1887207.21875-.3088379.0771484-.1196289.1582031-.2226562.2441406-.3085938.0859375-.0854492.1630859-.128418.2314453-.128418.1542969,0,.5058594.2229004,1.0546875.668457Z"/>
            <path class="cls-4" d="m336.370279,72.0608776c.0683594-.0856934.1416016-.1799316.21875-.282959s.1582031-.1967773.2441406-.282959c.0859375-.0856934.1630859-.1286621.2314453-.1286621.1376953,0,.4589844.2102051.9648438.6303711.5058594.4204102.8193359.7502441.9394531.9902344l.0253906.1030273c0,.137207-.0644531.2441406-.1933594.3212891-.1279297.0771484-.2871094.1157227-.4755859.1157227h-7.3310547v4.8103027c0,.1889648.0429688.3132324.1289062.3730469.0859375.0603027.2998047.0900879.6425781.0900879h1.9296875c.9941406,0,1.5859375-.0085449,1.7744141-.0258789.1035156-.0168457.2490234-.0256348.4375-.0256348.0341797-.0168457.0898438-.0297852.1669922-.0385742.0771484-.0085449.1416016-.0212402.1933594-.0388184.1367188-.0339355.2226562-.0512695.2568359-.0512695.1035156,0,.1806641.0087891.2314453.0258789.2744141.0859375.4589844.1713867.5537109.2570801.09375.0861816.1416016.2145996.1416016.3859863,0,.2570801-.1035156.4499512-.3095703.5786133-.2050781.1286621-.5869141.2231445-1.1445312.282959-.5566406.0603027-1.3759766.0900879-2.4560547.0900879h-2.1347656c-.5664062,0-.9902344-.0471191-1.2734375-.1416016-.2832031-.0939941-.4716797-.2441406-.5664062-.4501953-.09375-.2055664-.1416016-.5144043-.1416016-.9257812v-5.1962891h-.7714844c-.3427734.0175781-.6943359.1118164-1.0546875.2832031-.1201172.0512695-.2050781.0170898-.2568359-.1030273l-.4375-.9003906c-.0175781-.0168457-.0253906-.0512695-.0253906-.1027832,0-.0856934.0595703-.1286621.1796875-.1286621.9433594.0859375,1.9892578.1459961,3.1386719.1801758h1.8261719c0-1.251709-.0693359-2.4091797-.2060547-3.4726562,0-.1713867.0859375-.2314453.2568359-.1801758,1.4414062.4289551,2.1611328.7631836,2.1611328,1.003418,0,.0859375-.0683594.1713867-.2060547.2570801l-.4365234.282959v2.109375h2.2890625l.4882812-.6945801Zm8.1542969,14.4304199c.0517578-.0683594.1328125-.1755371.2441406-.3212891.1113281-.1455078.2021484-.2529297.2705078-.3217773.0683594-.0683594.1367188-.1027832.2060547-.1027832.1367188,0,.4667969.2145996.9902344.6430664.5224609.4289551.84375.7634277.9648438,1.0031738.0166016.034668.0253906.0771484.0253906.1286621,0,.1201172-.0644531.2185059-.1933594.2956543-.1279297.0771484-.2783203.1157227-.4501953.1157227h-7.4335938v3.3183594h7.0742188l.5400391-.7714844c.0507812-.0683594.1279297-.1757812.2314453-.3217773.1025391-.1455078.1923828-.2570801.2695312-.3342285.0771484-.0773926.1503906-.1159668.21875-.1159668.1035156,0,.3261719.1333008.6689453.3989258.3427734.2661133.6601562.5488281.9521484.8486328.2910156.3000488.4365234.5102539.4365234.6303711-.0166016.1196289-.0810547.2143555-.1923828.282959-.1113281.0683594-.2529297.1027832-.4248047.1027832h-17.4658203c-1.0976562.0170898-2.3232422.1286621-3.6777344.3344727h-.0771484c-.0693359,0-.1289062-.0429688-.1806641-.128418l-.4628906-.8747559c-.0175781-.017334-.0253906-.0515137-.0253906-.1027832,0-.0859375.0683594-.1286621.2050781-.1286621.9267578.0856934,1.9638672.1452637,3.1132812.1799316h7.1503906v-3.3183594h-3.2919922c-1.0976562.0175781-2.3242188.1289062-3.6787109.3344727h-.0771484c-.0683594,0-.1289062-.0424805-.1796875-.128418l-.4375-.8745117c-.0175781-.0170898-.0253906-.0517578-.0253906-.1030273,0-.0856934.0595703-.1286621.1796875-.1286621.9423828.0861816,1.9892578.145752,3.1376953.1799316h4.3730469v-3.0610352h-4.1923828c-1.0976562.0175781-2.3242188.1289062-3.6787109.3344727h-.0517578c-.0859375,0-.1542969-.0424805-.2050781-.128418l-.4628906-.9003906-.0263672-.1030273c0-.0854492.0605469-.128418.1806641-.128418.9257812.0859375,1.9628906.145752,3.1123047.1799316h12.7587891l.5136719-.7202148c.0683594-.0856934.1416016-.1884766.21875-.3088379.0771484-.1196289.1582031-.2226562.2451172-.3085938.0849609-.0854492.1621094-.128418.2314453-.128418.1542969,0,.5009766.2185059,1.0410156.6557617.5410156.4375.8701172.776123.9902344,1.0161133.0175781.0859375.0087891.1716309-.0253906.2573242-.1025391.1889648-.3085938.2827148-.6171875.2827148h-8.3857422v3.0610352h4.8613281l.5146484-.7202148Zm2.4433594-16.5913086c.0517578-.0683594.1376953-.184082.2578125-.347168.1201172-.1625977.2314453-.2441406.3339844-.2441406.1542969,0,.4462891.2016602.875.6044922s.6943359.7329102.796875.9902344c.0517578.0686035.0341797.1459961-.0507812.2314453-.171875.1201172-.4550781.2231445-.8486328.3085938-.1035156,3.0012207-.2880859,5.2692871-.5537109,6.8037109-.265625,1.5351562-.6386719,2.5424805-1.1191406,3.0224609-.5136719.5146484-1.2001953.7890625-2.0576172.8232422-.1376953,0-.2060547-.0683594-.2060547-.2058105-.0341797-.4116211-.1455078-.7114258-.3339844-.9003906-.2568359-.2058105-.703125-.3684082-1.3378906-.4885254-.1367188-.0341797-.2050781-.1113281-.2050781-.2316895v-.0256348c.0341797-.137207.1113281-.1970215.2314453-.1801758.9257812.0688477,1.6113281.1030273,2.0576172.1030273.1884766,0,.3378906-.0170898.4501953-.0515137.1113281-.0341797.2099609-.0939941.2958984-.1799316.3251953-.3256836.5996094-1.2607422.8232422-2.8039551h-5.453125c-.7382812,2.0578613-2.0673828,3.7556152-3.9873047,5.0930176-.1035156.0861816-.1972656.0688477-.2832031-.0512695-.0683594-.1030273-.0683594-.2058105,0-.3085938,1.3720703-1.3891602,2.3017578-2.9023438,2.7910156-4.5400391.4882812-1.6376953.7333984-3.3828125.7333984-5.2348633v-1.2346191c0-.2226562-.0175781-.5744629-.0517578-1.0546875,0-.0856934.0214844-.1413574.0644531-.1672363.0419922-.0256348.0986328-.0212402.1669922.0129395l1.6464844.822998h4.5527344l.4111328-.565918Zm-5.3496094,4.2700195c-.1376953.8747559-.2919922,1.6123047-.4628906,2.2124023h5.2988281c.0849609-.7885742.1542969-1.5263672.2050781-2.2124023h-5.0410156Zm5.0673828-.7714844l.1025391-2.1606445h-5.0673828v.8486328c0,.565918-.0175781,1.003418-.0517578,1.3120117h5.0166016Z"/>
            <path class="cls-4" d="m371.8683259,73.6172741c1.4404297.5913086,2.6533203,1.5432129,3.6396484,2.8549805.9853516,1.3120117,1.4785156,2.9882812,1.4785156,5.0288086,0,2.675293-.8183594,4.7163086-2.4560547,6.1220703-1.6376953,1.40625-3.3867188,2.3195801-5.2470703,2.7397461-1.8613281.4199219-3.4179688.6298828-4.6689453.6298828-.2402344,0-.3603516-.0429688-.3603516-.128418,0-.1030273.3427734-.2143555,1.0292969-.3344727,2.9316406-.5144043,5.3154297-1.5004883,7.1503906-2.9580078s2.7529297-3.5151367,2.7529297-6.173584c0-1.817627-.390625-3.3137207-1.1708984-4.4885254-.7802734-1.1745605-1.7705078-2.0322266-2.9707031-2.5722656-1.2001953-.5402832-2.453125-.8105469-3.7558594-.8105469-.2919922,0-.5058594.0087891-.6425781.0258789.2226562.4460449.3935547.9863281.5136719,1.6206055.1201172.6345215.1806641,1.2089844.1806641,1.7233887,0,1.2692871-.3085938,2.7265625-.9257812,4.3728027-.5664062,1.5263672-1.2138672,2.8513184-1.9423828,3.9741211-.7294922,1.1235352-1.4316406,1.972168-2.109375,2.5466309-.6777344.5749512-1.2216797.8618164-1.6337891.8618164-.6171875,0-1.1953125-.3044434-1.7363281-.9133301-.5400391-.6083984-.96875-1.4101562-1.2861328-2.4050293-.3173828-.9943848-.4755859-2.0319824-.4755859-3.1125488,0-1.8520508.4892578-3.5021973,1.4667969-4.9516602.9765625-1.4487305,2.2626953-2.5678711,3.8583984-3.3566895,1.5947266-.7885742,3.2666016-1.1833496,5.015625-1.1833496,1.4228516,0,2.8554688.2958984,4.2958984.8876953Zm-5.6337891-.0131836c-1.3369141.171875-2.5761719.6303711-3.7167969,1.3764648-1.140625.7458496-2.0537109,1.7275391-2.7392578,2.9450684-.6865234,1.2180176-1.0292969,2.5895996-1.0292969,4.1157227,0,1.0290527.1240234,1.8864746.3730469,2.5722656.2480469.6862793.5273438,1.1921387.8359375,1.5178223s.5576172.4887695.7460938.4887695c.4287109,0,.9384766-.3217773,1.5302734-.9648438s1.1357422-1.3588867,1.6337891-2.1479492c.9599609-1.4916992,1.6416016-2.8679199,2.0449219-4.128418.4023438-1.2602539.6044922-2.5163574.6044922-3.7685547,0-.7543945-.0947266-1.4228516-.2832031-2.0063477Z"/>
            <path class="cls-4" d="m401.8097322,78.877528c.0507812-.0683594.1240234-.1628418.21875-.2832031.09375-.1196289.1708984-.2055664.2314453-.2570801.0595703-.0515137.1240234-.0771484.1923828-.0771484.1376953,0,.4287109.2145996.875.6430664.4453125.4289551.7285156.7631836.8486328,1.0031738.0517578.0859375.0341797.1716309-.0517578.2573242-.2050781.1542969-.5136719.2573242-.9257812.3085938-.1376953,2.8808594-.3818359,5.3161621-.7333984,7.3051758-.3515625,1.9897461-.8183594,3.2580566-1.4013672,3.8071289-.6523438.6513672-1.5693359.9943848-2.7529297,1.0288086-.1367188,0-.2050781-.0686035-.2050781-.2055664-.0351562-.5146484-.2148438-.8579102-.5400391-1.0290527-.3779297-.2570801-1.3125-.5231934-2.8046875-.7973633-.1201172-.0168457-.1796875-.0856934-.1796875-.2058105v-.0512695c0-.154541.0683594-.2143555.2060547-.1801758,2.3662109.2231445,3.7382812.3344727,4.1152344.3344727.2744141,0,.4804688-.0214844.6171875-.0644531.1376953-.0424805.2832031-.1325684.4375-.2700195.3945312-.3427734.7285156-1.4189453,1.0029297-3.2282715.2744141-1.809082.4804688-4.0339355.6181641-6.6750488h-7.5371094c-.5488281,2.8640137-1.4960938,5.2949219-2.8427734,7.2924805-1.3457031,1.9978027-3.3310547,3.6821289-5.9541016,5.0544434-.1201172.0683594-.2148438.0515137-.2832031-.0515137-.0859375-.137207-.0693359-.2402344.0517578-.3085938,1.9033203-1.3720703,3.4033203-2.923584,4.5009766-4.6557617,1.0976562-1.7319336,1.8867188-3.6308594,2.3662109-5.6977539.4804688-2.0664062.7724609-4.4455566.875-7.1381836h-3.7558594c-1.0976562.0175781-2.3232422.1289062-3.6777344.3344727h-.0771484c-.0693359,0-.1289062-.0424805-.1806641-.128418l-.4628906-.8747559c-.0175781-.0168457-.0253906-.0515137-.0253906-.1027832,0-.0856934.0683594-.1286621.2050781-.1286621.9267578.0859375,1.9638672.145752,3.1132812.1799316h7.1767578c0-1.8005371-.0947266-3.4121094-.2832031-4.8359375,0-.1711426.0849609-.2314453.2568359-.1799316,1.5605469.4460449,2.3408203.7805176,2.3408203,1.0031738,0,.0859375-.0683594.1716309-.2060547.2573242l-.4365234.2827148v3.4726562h7.0224609l.5654297-.7973633c.0683594-.0854492.1582031-.2055664.2705078-.3601074.1113281-.1542969.2011719-.2700195.2695312-.3474121.0683594-.0771484.1376953-.1157227.2060547-.1157227.1542969,0,.5224609.2404785,1.1064453.7202148.5820312.4804688.9423828.8491211,1.0800781,1.1062012.0166016.0861816.0087891.1716309-.0253906.2573242-.1035156.1716309-.3007812.2570801-.5917969.2570801h-11.9355469c-.1376953,1.8696289-.3085938,3.4470215-.5146484,4.7331543h7.1513672l.4628906-.5915527Z"/>
            <path class="cls-4" d="m420.5616853,78.31161c0,.0686035-.0263672.1799316-.0771484.3344727-.6347656,1.800293-1.1835938,3.4980469-1.6464844,5.0930176-.4628906,1.5947266-.6943359,2.7180176-.6943359,3.3696289,0,.2573242.0771484.8146973.2314453,1.6721191.1367188.6860352.2050781,1.123291.2050781,1.3117676,0,.2404785-.0595703.4416504-.1796875.6044922s-.2832031.2443848-.4882812.2443848c-.3261719,0-.5839844-.1030273-.7724609-.3085938-.1884766-.2058105-.4111328-.53125-.6679688-.9775391-.6347656-1.0288086-.9521484-2.5292969-.9521484-4.5014648,0-.9602051.0898438-2.109375.2705078-3.4467773.1796875-1.3378906.40625-2.675293.6816406-4.0129395.0683594-.3088379.1113281-.5314941.1279297-.6687012.1201172-.5314941.2226562-1.050293.3085938-1.5561523s.1289062-.9389648.1289062-1.2993164c0-.4282227-.0302734-.7458496-.0898438-.9516602-.0605469-.2055664-.2021484-.5056152-.4248047-.9003906-.0507812-.1027832-.0771484-.1799316-.0771484-.2314453,0-.0683594.0214844-.128418.0644531-.1799316s.0986328-.0773926.1669922-.0773926c.1035156,0,.2490234.0773926.4375.2316895.4121094.3947754.7841797.8615723,1.1191406,1.4018555.3339844.5402832.5019531,1.059082.5019531,1.5563965,0,.3432617-.0566406.703125-.1679688,1.0800781-.1113281.3774414-.2871094.8835449-.5273438,1.5178223l-.359375.9772949c-.3095703.8747559-.5410156,1.7709961-.6953125,2.6882324-.1542969.9177246-.2314453,1.770752-.2314453,2.5593262,0,.9433594.1113281,1.4147949.3349609,1.4147949.1367188,0,.3037109-.2097168.5009766-.630127.1972656-.4199219.484375-1.1015625.8623047-2.0449219.5654297-1.4233398,1.1572266-2.8039551,1.7744141-4.1416016.0683594-.1711426.1542969-.2570801.2578125-.2570801.0507812,0,.0771484.0429688.0771484.1286621Zm13.7871094,11.2150879c0,.1889648-.0605469.3601074-.1796875.5144043-.1201172.1542969-.2744141.2314453-.4628906.2314453-.2236328,0-.4550781-.0810547-.6953125-.2441406-.2402344-.1628418-.4794922-.3513184-.7197266-.565918-.2402344-.2143555-.4208984-.3730469-.5400391-.4760742-.34375-.2912598-.6943359-.5400391-1.0546875-.7458496-.2402344-.1369629-.4628906-.2570801-.6689453-.3601074-.0517578.9775391-.3779297,1.7407227-.9775391,2.2893066-.6005859.548584-1.5175781.822998-2.7519531.822998-1.0126953,0-1.8955078-.2272949-2.6494141-.6816406-.7548828-.4541016-1.1318359-1.1098633-1.1318359-1.9677734,0-.9941406.5224609-1.671875,1.5683594-2.0319824s2.0410156-.5402832,2.984375-.5402832c.5146484,0,.9775391.034668,1.3886719.1030273,0-.4458008-.0087891-.9003906-.0253906-1.3632812-.0175781-.4631348-.0351562-.9086914-.0517578-1.3376465l-.1025391-4.1672363c-.1542969.034668-.3857422.0688477-.6943359.1030273-.1201172.0170898-.3095703.0256348-.5664062.0256348-.7548828,0-1.3935547-.1413574-1.9160156-.4243164-.5234375-.282959-1.0078125-.7590332-1.453125-1.4277344-.0869141-.119873-.1289062-.2314453-.1289062-.3342285,0-.119873.0507812-.1801758.1542969-.1801758.0517578,0,.1328125.0385742.2441406.1157227s.1845703.1330566.21875.1672363c.2402344.1887207.5097656.3518066.8105469.4887695.2998047.1374512.6894531.2058105,1.1699219.2058105.4462891,0,1.1572266-.1030273,2.1347656-.3085938-.0166016-.5830078-.0253906-1.3974609-.0253906-2.4438477v-1.3120117c0-.7368164-.3691406-1.2770996-1.1064453-1.6203613-.1542969-.0856934-.2314453-.1628418-.2314453-.2316895,0-.1027832.0986328-.1967773.2958984-.2827148.1972656-.0856934.5273438-.1286621.9902344-.1286621.4980469,0,.9472656.1501465,1.3505859.4499512.4033203.300293.6044922.6044922.6044922.9133301,0,.0344238-.0507812.2058105-.1542969.5144043-.1201172.2402344-.2060547.4719238-.2568359.6945801-.0693359.3259277-.1035156.5061035-.1035156.5402832.7890625.6003418,1.4316406.9604492,1.9296875,1.0800781.1542969.034668.3642578.0773926.6298828.1289062.265625.0512695.4501953.1115723.5537109.1799316.1025391.0686035.1708984.1716309.2050781.3088379.0341797.1027832.0517578.2143555.0517578.3342285,0,.3774414-.3339844.7375488-1.0029297,1.0803223-1.0810547.5146484-1.9550781.8745117-2.6240234,1.0805664v.1542969c0,1.543457.1455078,3.4641113.4375,5.7617188.0341797.2573242.09375.7890625.1796875,1.5949707,1.5605469.4631348,2.7783203,1.1318359,3.6533203,2.0063477.4794922.4802246.7197266.9091797.7197266,1.2861328Zm-6.6367188-.2058105c.4628906-.3256836.7207031-1.0117188.7714844-2.0576172-.8398438-.2573242-1.6376953-.3859863-2.3916016-.3859863-.6865234,0-1.3164062.098877-1.890625.2956543-.5751953.1975098-.8623047.5449219-.8623047,1.0419922,0,.5488281.2958984.9516602.8876953,1.2089844s1.1875.3857422,1.7880859.3857422c.6689453,0,1.234375-.1625977,1.6972656-.4887695Zm1.6982422-12.192627c1.0458984-.3427734,1.5683594-.6342773,1.5683594-.8745117,0-.0856934-.1152344-.2272949-.3466797-.4245605-.2314453-.1967773-.4414062-.3640137-.6298828-.5014648-.1894531-.137207-.3349609-.2485352-.4375-.3344727l-.1542969,2.1350098Z"/>
            <path class="cls-4" d="m450.6456697,90.1827038c-1.0205078-.2143555-1.8398438-.5615234-2.4570312-1.0419922-.7890625-.6171875-1.1835938-1.4660645-1.1835938-2.5463867,0-.4799805.0517578-.8745117.1542969-1.1831055.1035156-.3256836.2060547-.4887695.3085938-.4887695.1376953,0,.2060547.1630859.2060547.4887695v.3857422c0,1.0634766.6259766,1.8349609,1.8779297,2.3149414.8232422.3085938,1.8349609.4631348,3.0351562.4631348.9775391,0,2.3408203-.1455078,4.0898438-.4372559,1.0117188-.1542969,1.6630859-.2314453,1.9550781-.2314453.4462891,0,.7851562.0859375,1.0166016.2570801.2314453.1716309.3466797.4030762.3466797.6945801,0,.4802246-.4287109.8486328-1.2861328,1.105957-.5146484.1542969-1.1962891.282959-2.0449219.3857422-.8486328.1030273-1.7363281.154541-2.6621094.154541-1.2177734,0-2.3369141-.1069336-3.3564453-.3215332Zm.6044922-12.0512695c0-.0854492.0507812-.1801758.1542969-.282959.2910156-.2912598.6679688-.6257324,1.1318359-1.0031738.2734375-.2397461.5224609-.4628906.7451172-.6689453.2226562-.2055664.3349609-.3342285.3349609-.3857422,0-.1884766-.3515625-.3427734-1.0546875-.4628906-.6347656-.119873-1.2392578-.3383789-1.8134766-.6560059-.5751953-.3171387-.9902344-.6213379-1.2480469-.9130859-.0683594-.0856934-.1328125-.1887207-.1923828-.3088379-.0605469-.1196289-.0898438-.2226562-.0898438-.3085938,0-.0683594.0166016-.1030273.0507812-.1030273l.1035156.0258789c.0507812.034668.1318359.081543.2441406.1416016.1113281.0600586.2695312.1413574.4755859.2441406.4121094.2060547.9257812.3774414,1.5439453.5146484.6171875.137207,1.1660156.2055664,1.6455078.2055664.4638672,0,.9951172-.0424805,1.5947266-.128418.6181641-.0683594,1.0458984-.1030273,1.2871094-.1030273.2050781,0,.3857422.0258789.5400391.0771484.7363281.2573242,1.1054688.6262207,1.1054688,1.1062012,0,.2058105-.0898438.3601074-.2695312.4631348-.1806641.1027832-.5791016.1887207-1.1962891.2570801-1.4238281.1887207-2.9501953.9260254-4.5791016,2.2121582-.1708984.1201172-.2998047.1801758-.3857422.1801758s-.1279297-.0341797-.1279297-.1030273Z"/>
            <path class="cls-4" d="m488.0079744,82.440028c.7880859.7973633,1.1826172,1.8737793,1.1826172,3.2282715,0,1.8864746-.8095703,3.3825684-2.4306641,4.4885254-1.6201172,1.1062012-3.9824219,1.753418-7.0869141,1.9421387h-.1542969c-.2226562,0-.3339844-.0515137-.3339844-.1542969s.1367188-.1716309.4111328-.2058105c2.3837891-.291748,4.2919922-.9560547,5.7236328-1.9936523,1.4316406-1.0371094,2.1484375-2.5078125,2.1484375-4.411377,0-.9772949-.2324219-1.7658691-.6953125-2.3664551-.4628906-.6000977-1.1572266-.9003906-2.0830078-.9003906-.7714844,0-1.5009766.2060547-2.1865234.6174316-.6865234.4116211-1.2734375.9047852-1.7617188,1.479248-.4892578.574707-.8457031,1.0930176-1.0683594,1.5561523-.2744141.5830078-.5908203.8745117-.9511719.8745117-.2236328,0-.4375-.1286621-.6435547-.3857422-.2910156-.3603516-.4804688-.7629395-.5654297-1.2089844-.0859375-.4458008-.1289062-.96875-.1289062-1.5693359,0-.6342773.0683594-1.4660645.2060547-2.4951172.1367188-1.0288086.3515625-2.4179688.6425781-4.1669922.0341797-.2741699.0683594-.4628906.1035156-.565918-2.0068359-.0683594-3.3789062-.7973633-4.1162109-2.1865234-.0683594-.1369629-.1025391-.2397461-.1025391-.3085938,0-.1542969.0595703-.2314453.1796875-.2314453.0859375,0,.2490234.0942383.4892578.282959.8740234.7202148,1.8515625,1.0803223,2.9326172,1.0803223.359375,0,.6337891-.0083008.8222656-.0258789.2744141-1.6801758.4121094-2.7092285.4121094-3.0866699,0-.4797363-.1972656-.8830566-.5917969-1.2089844-.0683594-.0515137-.1376953-.0983887-.2060547-.1413574-.0683594-.0424805-.1240234-.0856934-.1669922-.1286621-.0429688-.0427246-.0644531-.0900879-.0644531-.1413574,0-.119873.1455078-.2143555.4375-.2832031.2910156-.0683594.5664062-.1027832.8232422-.1027832.4970703,0,.9042969.0900879,1.2216797.2702637.3173828.1799316.4755859.4589844.4755859.8359375,0,.137207-.046875.355957-.140625.6557617-.0947266.300293-.1591797.4931641-.1933594.5788574.9599609.6345215,1.7314453.9863281,2.3154297,1.0544434.4794922.0517578.8222656.0991211,1.0283203.1416016.2060547.0429688.3515625.1330566.4375.2700195.0517578.0688477.0771484.1633301.0771484.2832031,0,.3085938-.1757812.630127-.5273438.9643555-.3515625.3344727-.8017578.6044922-1.3505859.8105469-.3603516.137207-.8232422.2614746-1.3886719.3728027-.5664062.1118164-1.1494141.1845703-1.7490234.2185059-.4462891,2.3837891-.6689453,4.2700195-.6689453,5.6591797,0,1.1665039.1455078,1.7490234.4375,1.7490234.1191406,0,.3427734-.1196289.6679688-.3598633.6689453-.53125,1.4619141-.9943848,2.3798828-1.3891602.9169922-.3942871,1.7880859-.5915527,2.6103516-.5915527,1.3378906,0,2.4013672.3986816,3.1904297,1.1960449Zm-8.3349609-7.7297363c.9091797-.119873,1.5859375-.282959,2.0322266-.4887695.2744141-.119873.4121094-.2314453.4121094-.3342285,0-.0341797-.0429688-.1113281-.1289062-.2314453-.1025391-.1201172-.3339844-.3044434-.6943359-.5532227-.3603516-.2485352-.6777344-.4243164-.9521484-.5273438-.3603516,1.012207-.5830078,1.7236328-.6689453,2.1350098Z"/>
            <path class="cls-4" d="m507.3253572,91.4302624c0-.0859375.046875-.1459961.1416016-.1801758.09375-.034668.2353516-.0686035.4248047-.1027832,2.7265625-.4631348,4.796875-1.2001953,6.2119141-2.2121582,1.4140625-1.0117188,2.1220703-2.3061523,2.1220703-3.8842773,0-.9599609-.2275391-1.7143555-.6816406-2.2636719-.4550781-.5483398-1.1025391-.822998-1.9423828-.822998-.7714844,0-1.4873047.3088379-2.1474609.9260254s-1.4023438,1.5522461-2.2255859,2.8037109c-.1542969.2404785-.3818359.4501953-.6816406.6303711-.2998047.1799316-.5361328.2700195-.7070312.2700195-1.5947266,0-2.3925781-.9516602-2.3925781-2.8552246,0-.8059082.0947266-2.357666.2832031-4.6560059.1025391-1.3374023.1542969-2.0319824.1542969-2.0834961,0-.1027832-.0253906-.3601074-.0771484-.7714844-.0517578-.154541-.0771484-.3256836-.0771484-.5146484,0-.3256836.0771484-.5871582.2314453-.784668.1542969-.1967773.4023438-.4499512.7460938-.7587891.2568359-.2226562.5488281-.4199219.8740234-.5915527.3261719-.1711426.7460938-.3684082,1.2607422-.5915527.4804688-.1884766.8320312-.347168,1.0546875-.4760742.2226562-.128418.3349609-.2612305.3349609-.3984375,0-.1713867-.1464844-.3859863-.4375-.6430664-.2919922-.2573242-.6005859-.4799805-.9257812-.6689453-.0517578-.0341797-.125-.0727539-.21875-.1157227-.0947266-.0424805-.1416016-.0898438-.1416016-.1416016,0-.0512695.1064453-.0898438.3212891-.1157227.2138672-.0256348.3818359-.0385742.5019531-.0385742.6679688,0,1.2558594.1333008,1.7617188.3989258.5058594.2661133.9296875.7246094,1.2734375,1.3759766.1367188.2404785.2060547.5146484.2060547.8232422s-.0869141.5703125-.2578125.784668c-.171875.2143555-.3515625.3212891-.5400391.3212891-.1376953,0-.2617188-.0385742-.3730469-.1157227s-.1845703-.1240234-.21875-.1413574c-.1884766-.1369629-.3691406-.2399902-.5400391-.3088379-.171875-.0683594-.3945312-.1027832-.6689453-.1027832-.8056641,0-1.6630859.3088379-2.5722656.9260254-.2060547.1374512-.3603516.3085938-.4628906.5146484-.1025391.2055664-.1542969.411377-.1542969.6171875,0,.1542969.0595703.3344727.1796875.5400391.171875.3432617.2578125.6689453.2578125.9775391,0,.1889648-.0605469.7807617-.1806641,1.7749023-.2402344,2.0063477-.359375,3.2241211-.359375,3.652832,0,.4628906.0722656.8916016.2177734,1.2861328s.3388672.5915527.5791016.5915527c.1367188,0,.3046875-.0554199.5019531-.1672363.1962891-.1113281.4072266-.2443848.6298828-.3986816.2226562-.154541.3857422-.2658691.4892578-.3344727.9257812-.6687012,1.7617188-1.1916504,2.5078125-1.5690918.7460938-.3769531,1.5390625-.565918,2.3789062-.565918.7714844,0,1.4580078.2102051,2.0576172.6303711.6005859.4204102,1.0683594.9643555,1.4023438,1.6333008s.5019531,1.3632812.5019531,2.0834961c0,.7375488-.1679688,1.4492188-.5019531,2.1350098-.3339844.6862793-1.2265625,1.388916-2.6748047,2.109375-1.4501953.7202148-3.6572266,1.2770996-6.6240234,1.6721191-.2060547.0339355-.3691406.0512695-.4882812.0512695-.2236328,0-.3349609-.0512695-.3349609-.1542969Z"/>
            <path class="cls-4" d="m542.1925447,77.7842663c.4892578.6943359.7333984,1.6591797.7333984,2.8937988,0,.6174316-.0947266,1.4919434-.2832031,2.6237793s-.4804688,2.255127-.8740234,3.3696289c-.3955078,1.1149902-.8837891,1.9638672-1.4667969,2.5466309-.3085938.3085938-.6259766.5656738-.9511719.7717285-.3261719.2055664-.6181641.3085938-.875.3085938s-.4501953-.0854492-.5791016-.2573242c-.1279297-.1711426-.2353516-.3686523-.3212891-.5915527-.0859375-.2226562-.1455078-.3684082-.1796875-.4372559-.1894531-.4970703-.6005859-1.1486816-1.2353516-1.9550781-.1884766-.2226562-.2822266-.3769531-.2822266-.4628906,0-.0341797.0253906-.0515137.0771484-.0515137.0849609,0,.4199219.1889648,1.0029297.565918l.4628906.3088379c.2744141.2055664.4970703.3515625.6689453.4370117.1708984.0861816.3427734.1289062.5146484.1289062.5830078,0,1.1015625-.4631348,1.5556641-1.3891602s.8105469-2.0019531,1.0673828-3.2282715c.2578125-1.2258301.3867188-2.2248535.3867188-2.9968262,0-1.800293-.5576172-2.7006836-1.6728516-2.7006836-.7197266,0-1.7226562.3085938-3.0087891.9257812-.8066406,3.5673828-2.0927734,6.7827148-3.8583984,9.6462402-.2236328.3774414-.4638672.6730957-.7207031.8874512-.2568359.2145996-.5058594.3215332-.7460938.3215332-.1884766,0-.3515625-.0683594-.4882812-.2058105-.1376953-.1369629-.2060547-.3085938-.2060547-.5144043,0-.4797363.3339844-1.1574707,1.0029297-2.0319824,1.7148438-2.2807617,2.8984375-4.767334,3.5498047-7.4599609-1.6806641.737793-2.7265625,1.1062012-3.1376953,1.1062012-.3603516,0-.7246094-.1113281-1.09375-.3342285-.3691406-.2226562-.6728516-.501709-.9130859-.8359375-.2402344-.3344727-.3603516-.6472168-.3603516-.9389648,0-.1542969.0429688-.2314453.1289062-.2314453.0683594,0,.1757812.0344238.3212891.1027832.1455078.0686035.2617188.1201172.3476562.1542969.4794922.2058105.9775391.3088379,1.4921875.3088379.6689453-.0170898,1.234375-.090332,1.6972656-.21875.4628906-.1286621,1.0888672-.3383789,1.8779297-.6303711.2402344-1.1142578.3603516-2.0488281.3603516-2.8037109,0-.8745117-.1806641-1.526123-.5400391-1.9550781-.1201172-.1369629-.2792969-.3085938-.4765625-.5141602-.1972656-.2060547-.2958984-.3430176-.2958984-.4116211,0-.1030273.0732422-.1801758.21875-.2314453.1455078-.0517578.3300781-.0773926.5537109-.0773926.3251953,0,.6679688.0515137,1.0283203.154541.3603516.1027832.6435547.2314453.8486328.3857422.2744141.2231445.4121094.4975586.4121094.8232422,0,.137207-.0517578.411377-.1542969.822998-.0859375.3432617-.1542969.6774902-.2060547,1.0031738-.1201172.8918457-.2402344,1.671875-.3603516,2.3408203,1.0292969-.3427734,1.9296875-.5146484,2.7011719-.5146484,1.0292969,0,1.7880859.3474121,2.2763672,1.0419922Zm6.5595703-.501709c.8486328.4631348,1.4619141,1.0031738,1.8388672,1.6206055s.5664062,1.1921387.5664062,1.7233887c0,.6005859-.1669922,1.1105957-.5019531,1.5305176-.3339844.4204102-.6816406.630127-1.0419922.630127-.2050781,0-.3945312-.064209-.5654297-.1928711-.171875-.128418-.2744141-.2011719-.3085938-.21875-.2402344-.1708984-.5664062-.2912598-.9775391-.3598633-.4121094-.0683594-.9003906-.137207-1.4658203-.2058105-.2412109-.0341797-.3603516-.0856934-.3603516-.154541,0-.0854492.1025391-.1369629.3085938-.1542969,1.1142578-.1196289,1.6972656-.1799316,1.7490234-.1799316.4628906-.0856934.7841797-.1884766.9648438-.3088379.1796875-.1196289.2695312-.3168945.2695312-.5913086,0-.8232422-.3857422-1.5776367-1.1572266-2.2636719-.7714844-.685791-1.6552734-1.1489258-2.6494141-1.3891602-.1542969-.0341797-.2314453-.0854492-.2314453-.1542969,0-.0683594.1025391-.1030273.3085938-.1030273,1.3203125.0515137,2.4052734.3085938,3.2539062.7717285Z"/>
            <path class="cls-4" d="m564.9444978,91.4302624c0-.0859375.046875-.1459961.1416016-.1801758.09375-.034668.2353516-.0686035.4248047-.1027832,2.7265625-.4631348,4.796875-1.2001953,6.2119141-2.2121582,1.4140625-1.0117188,2.1220703-2.3061523,2.1220703-3.8842773,0-.9599609-.2275391-1.7143555-.6816406-2.2636719-.4550781-.5483398-1.1025391-.822998-1.9423828-.822998-.7714844,0-1.4873047.3088379-2.1474609.9260254s-1.4023438,1.5522461-2.2255859,2.8037109c-.1542969.2404785-.3818359.4501953-.6816406.6303711-.2998047.1799316-.5361328.2700195-.7070312.2700195-1.5947266,0-2.3925781-.9516602-2.3925781-2.8552246,0-.8059082.0947266-2.357666.2832031-4.6560059.1025391-1.3374023.1542969-2.0319824.1542969-2.0834961,0-.1027832-.0253906-.3601074-.0771484-.7714844-.0517578-.154541-.0771484-.3256836-.0771484-.5146484,0-.3256836.0771484-.5871582.2314453-.784668.1542969-.1967773.4023438-.4499512.7460938-.7587891.2568359-.2226562.5488281-.4199219.8740234-.5915527.3261719-.1711426.7460938-.3684082,1.2607422-.5915527.4804688-.1884766.8320312-.347168,1.0546875-.4760742.2226562-.128418.3349609-.2612305.3349609-.3984375,0-.1713867-.1464844-.3859863-.4375-.6430664-.2919922-.2573242-.6005859-.4799805-.9257812-.6689453-.0517578-.0341797-.125-.0727539-.21875-.1157227-.0947266-.0424805-.1416016-.0898438-.1416016-.1416016,0-.0512695.1064453-.0898438.3212891-.1157227.2138672-.0256348.3818359-.0385742.5019531-.0385742.6679688,0,1.2558594.1333008,1.7617188.3989258.5058594.2661133.9296875.7246094,1.2734375,1.3759766.1367188.2404785.2060547.5146484.2060547.8232422s-.0869141.5703125-.2578125.784668c-.171875.2143555-.3515625.3212891-.5400391.3212891-.1376953,0-.2617188-.0385742-.3730469-.1157227s-.1845703-.1240234-.21875-.1413574c-.1884766-.1369629-.3691406-.2399902-.5400391-.3088379-.171875-.0683594-.3945312-.1027832-.6689453-.1027832-.8056641,0-1.6630859.3088379-2.5722656.9260254-.2060547.1374512-.3603516.3085938-.4628906.5146484-.1025391.2055664-.1542969.411377-.1542969.6171875,0,.1542969.0595703.3344727.1796875.5400391.171875.3432617.2578125.6689453.2578125.9775391,0,.1889648-.0605469.7807617-.1806641,1.7749023-.2402344,2.0063477-.359375,3.2241211-.359375,3.652832,0,.4628906.0722656.8916016.2177734,1.2861328s.3388672.5915527.5791016.5915527c.1367188,0,.3046875-.0554199.5019531-.1672363.1962891-.1113281.4072266-.2443848.6298828-.3986816.2226562-.154541.3857422-.2658691.4892578-.3344727.9257812-.6687012,1.7617188-1.1916504,2.5078125-1.5690918.7460938-.3769531,1.5390625-.565918,2.3789062-.565918.7714844,0,1.4580078.2102051,2.0576172.6303711.6005859.4204102,1.0683594.9643555,1.4023438,1.6333008s.5019531,1.3632812.5019531,2.0834961c0,.7375488-.1679688,1.4492188-.5019531,2.1350098-.3339844.6862793-1.2265625,1.388916-2.6748047,2.109375-1.4501953.7202148-3.6572266,1.2770996-6.6240234,1.6721191-.2060547.0339355-.3691406.0512695-.4882812.0512695-.2236328,0-.3349609-.0512695-.3349609-.1542969Z"/>
          </g>
          <g>
            <path class="cls-4" d="m185.2745759,44.2845104c0-2.4250488,0-2.8845215-.0371094-3.3620605-.0361328-.4960938-.1835938-.7531738-.7158203-.8632812-.1103516-.0185547-.3857422-.0368652-.5332031-.0368652-.0917969,0-.1835938-.0549316-.1835938-.1101074,0-.1103516.1103516-.1469727.2753906-.1469727.7529297,0,1.9111328.0551758,1.9658203.0551758.1289062,0,1.0839844-.0551758,2.1123047-.0551758,1.6171875,0,4.6298828-.1655273,6.5771484,1.800293.8085938.8083496,1.5615234,2.0942383,1.5615234,3.949707,0,1.9477539-.8447266,3.4724121-1.7451172,4.3911133-.7158203.7163086-2.1123047,1.800293-4.9052734,1.800293-.6982422,0-1.5976562-.0366211-2.2958984-.0917969-.6982422-.0366211-1.2675781-.0917969-1.3232422-.0917969-.0361328,0-.2753906,0-.6240234.0180664-.3496094,0-.7900391.0371094-1.0654297.0371094-.1660156,0-.2578125-.0371094-.2578125-.1289062,0-.0551758.0556641-.128418.2021484-.128418.1474609,0,.2753906-.0185547.4228516-.0551758.3125-.0551758.421875-.440918.4775391-.8452148.1103516-.6796875.0917969-1.9287109.0917969-3.4169922v-2.7189941Zm1.5068359,1.5617676c0,1.6533203.0175781,3.0864258.0175781,3.3618164.0185547.5693359.0556641,1.0654297.1835938,1.230957.2021484.3122559.7900391.6982422,2.7011719.6982422,1.5068359,0,2.8662109-.4780273,3.8212891-1.4331055.8085938-.8085938,1.1943359-2.1862793,1.1943359-3.6560059,0-2.0759277-.9550781-3.3435059-1.5800781-3.9499512-1.5615234-1.5615234-3.3623047-1.7451172-5.1806641-1.7451172-.2578125,0-.8271484.0551758-.9375.128418-.1464844.0737305-.2021484.1469727-.2021484.3125-.0175781.5327148-.0175781,2.0942383-.0175781,3.1965332v1.8557129Z"/>
            <path class="cls-4" d="m203.0978181,45.6441295c0-2.4433594,1.8916016-6.0996094,6.4296875-6.0996094,3.6376953,0,6.4121094,2.1679688,6.4121094,5.8608398,0,3.5087891-2.5908203,6.3747559-6.5039062,6.3747559-4.5009766,0-6.3378906-3.3435059-6.3378906-6.1359863Zm11.1142578.2202148c0-3.6923828-2.2783203-5.75-4.7949219-5.75-2.5537109,0-4.6113281,1.5795898-4.6113281,5.052002,0,3.6008301,2.0029297,5.9890137,5.0888672,5.9890137,1.2314453,0,4.3173828-.6245117,4.3173828-5.2910156Z"/>
            <path class="cls-4" d="m224.7237947,50.108485c-1.5615234-1.3598633-1.9658203-3.1601562-1.9658203-4.6850586,0-1.0288086.4042969-2.8476562,1.8554688-4.2436523.9921875-.9555664,2.4794922-1.6352539,4.9414062-1.6352539.8457031,0,1.5253906.0737305,2.4257812.2021484.5878906.0917969,1.1757812.1835938,1.6162109.2021484.1474609,0,.1650391.0917969.1650391.1835938,0,.1469727-.0546875.3125-.0917969.9003906-.0175781.5141602-.0175781,1.4697266-.0361328,1.6899414-.0185547.2573242-.0556641.3491211-.1474609.3491211-.1289062,0-.1464844-.1101074-.1464844-.3491211,0-.5327148-.2578125-1.2490234-.7167969-1.5981445-.5507812-.4775391-1.8369141-.9370117-3.2519531-.9370117-2.0390625,0-2.9755859.5695801-3.5273438,1.0654297-1.1943359,1.0839844-1.4697266,2.4067383-1.4697266,4.0234375,0,3.0498047,2.4804688,5.7319336,5.7138672,5.7319336,1.2490234,0,2.1679688-.128418,2.8105469-.7529297.3310547-.3491211.5146484-.8085938.6064453-1.3227539.0371094-.184082.0917969-.2758789.2021484-.2758789.0917969,0,.0917969.1289062.0917969.2573242,0,.1469727-.2392578,1.6352539-.3671875,2.0390625-.1103516.2939453-.1660156.3491211-.4228516.4594727-.6425781.2753906-1.8740234.3674316-2.9023438.3674316-2.4257812,0-4.0791016-.5510254-5.3828125-1.6716309Z"/>
            <path class="cls-4" d="m242.9855134,46.4707897c0,2.2412109.4228516,3.1967773,1.1201172,3.8212891.7900391.6982422,1.671875.8452148,2.4257812.8452148.9550781,0,1.8183594-.2573242,2.5166016-1.065918.7353516-.8447266.9003906-2.2412109.9003906-3.8393555v-1.9475098c0-2.4064941,0-2.8293457-.0371094-3.3254395-.0361328-.5327148-.0917969-.8081055-.6796875-.8999023-.1279297-.0185547-.3486328-.0368652-.5146484-.0368652-.109375,0-.1835938-.0549316-.1835938-.1101074,0-.1103516.0917969-.1469727.2578125-.1469727.7900391,0,1.7080078.0551758,1.78125.0551758.0927734,0,.8828125-.0551758,1.3964844-.0551758.1835938,0,.2578125.0366211.2578125.128418,0,.0737305-.0742188.1286621-.1835938.1286621-.1103516,0-.1474609,0-.3310547.0183105-.5146484.0551758-.5878906.3857422-.625.918457-.0185547.4960938-.0185547.9189453-.0185547,3.3254395v1.6350098c0,1.6533203-.1835938,3.6376953-1.4873047,4.7583008-1.1943359,1.0102539-2.3701172,1.1022949-3.3623047,1.1022949-.5146484,0-2.2412109,0-3.4355469-1.1022949-.7900391-.7348633-1.359375-1.8371582-1.359375-4.1152344v-2.2780762c0-2.4250488,0-2.8474121-.0556641-3.3435059-.0175781-.4960938-.109375-.8085938-.6796875-.8818359-.1103516-.0185547-.3300781-.0368652-.4775391-.0368652-.1279297,0-.2021484-.0549316-.2021484-.1101074,0-.1103516.0742188-.1469727.2763672-.1469727.7890625,0,1.78125.0551758,1.9101562.0551758.1464844,0,1.2304688-.0551758,1.7265625-.0551758.2021484,0,.2578125.0366211.2578125.128418s-.1289062.1286621-.2207031.1286621c-.1103516,0-.2568359.0183105-.4042969.0368652-.4404297.0551758-.5146484.3671875-.5507812.8818359-.0185547.4960938-.0185547.918457-.0185547,3.3435059v2.1862793Z"/>
            <path class="cls-4" d="m272.6573884,49.5572155c.0556641.440918.1650391,1.4697266.8818359,1.6350098.3125.0734863.6796875.1101074.9375.1286621.0732422,0,.2382812.0183105.2382812.1103516,0,.0917969-.0732422.1469727-.2753906.1469727-.3310547,0-2.3144531-.0737305-2.9023438-.1103516-.4042969-.0366211-.5517578-.0737305-.5517578-.1655273,0-.0551758.0732422-.128418.1660156-.1650391.0917969-.0371094.1464844-.2573242.109375-.5146484l-.8076172-7.862793-3.8955078,7.8994141c-.3486328.7167969-.4033203.8818359-.5693359.8818359-.1103516,0-.2021484-.1650391-.5507812-.7897949-.2939453-.532959-1.7636719-3.4724121-1.8740234-3.6374512-.1103516-.2207031-1.9111328-3.784668-2.0576172-4.1704102l-.6796875,7.072998c-.0185547.2570801-.0185547.4226074-.0185547.697998,0,.2021484.0917969.4777832.4589844.5512695.2021484.0366211.3310547.0366211.5146484.0551758.1474609.0183105.1835938.0732422.1835938.1103516,0,.128418-.1103516.1469727-.3125.1469727-.5878906,0-1.3769531-.0551758-1.5244141-.0551758-.1835938,0-.9550781.0551758-1.4150391.0551758-.1650391,0-.2753906-.0185547-.2753906-.1469727,0-.0371094.0742188-.1103516.2392578-.1103516.1289062,0,.1464844,0,.3486328-.0185547.4414062-.0366211.6064453-.4775391.6982422-1.2124023l1.2314453-10.0859375c.0361328-.3125.109375-.4594727.2021484-.4594727.0917969,0,.1464844.0551758.2753906.2939453l4.9228516,9.5351562,4.6855469-9.5166016c.0917969-.2021484.1650391-.3125.2753906-.3125s.1650391.1655273.1835938.4594727l1.1572266,9.5532227Z"/>
            <path class="cls-4" d="m282.2862947,44.2845104c0-2.4064941,0-2.8474121-.0371094-3.3435059-.0361328-.5146484-.1650391-.7717285-.6982422-.8818359-.109375-.0185547-.2939453-.0368652-.4404297-.0368652-.1289062,0-.2392578-.0549316-.2392578-.1101074,0-.1103516.0917969-.1469727.2763672-.1469727.3671875,0,.8632812.0366211,1.8916016.0551758.0917969,0,3.3623047,0,3.7294922-.0185547s.5693359-.0366211.7167969-.0917969c.1103516-.0366211.1289062-.0551758.2021484-.0551758.0361328,0,.0732422.0366211.0732422.128418,0,.1103516-.1103516.3676758-.1464844.8269043-.0185547.3122559-.0371094.6062012-.0556641.9553223,0,.1655273-.0371094.2753906-.1289062.2753906s-.1279297-.0732422-.1279297-.2019043c-.0185547-.2756348-.0732422-.4592285-.1289062-.5878906-.1103516-.3674316-.2753906-.4958496-1.1943359-.5510254-.2382812-.0185547-2.0576172-.0368652-2.09375-.0368652-.0556641,0-.0917969.0368652-.0917969.1469727v4.170166c0,.1103516.0175781.184082.109375.184082.2207031,0,2.0947266-.0185547,2.4804688-.0551758.4228516-.0185547.6982422-.0737305.8457031-.2758789.0732422-.1098633.1279297-.1469727.2011719-.1469727.0371094,0,.0742188.0185547.0742188.1103516s-.0742188.440918-.1289062.9736328c-.0546875.5146484-.0546875.8818359-.0732422,1.1206055-.0185547.1469727-.0556641.2021484-.1289062.2021484-.0917969,0-.1103516-.1101074-.1103516-.2387695,0-.1103516-.0185547-.2939453-.0546875-.440918-.0742188-.2387695-.1835938-.4960938-.8818359-.5512695-.4228516-.0366211-1.9111328-.0732422-2.2050781-.0732422-.1103516,0-.1279297.0551758-.1279297.128418v1.3413086c0,.5693359-.0185547,2.1860352,0,2.4985352.0361328.6796875.1279297,1.0288086.5136719,1.1940918.2753906.1286621.7167969.1652832,1.3417969.1652832.3486328,0,.9365234.0185547,1.3955078-.1103516.5517578-.1650391.6796875-.5327148.8271484-1.2124023.0371094-.1835938.0917969-.2573242.1650391-.2573242.1103516,0,.1103516.1655273.1103516.2758789,0,.128418-.1464844,1.2858887-.2021484,1.5981445-.0732422.3676758-.2021484.4042969-.8085938.4042969-1.2119141,0-1.7265625-.0366211-2.3691406-.0366211-.6435547-.0185547-1.4882812-.0551758-2.1679688-.0551758-.4228516,0-.7714844.0551758-1.2128906.0551758-.1650391,0-.2568359-.0371094-.2568359-.1289062,0-.0732422.0732422-.128418.1650391-.128418.1103516,0,.2392578-.0185547.3671875-.0551758.3310547-.0734863.5517578-.3125.5878906-1.4511719.0185547-.625.0371094-1.3779297.0371094-2.7744141v-2.7556152Z"/>
            <path class="cls-4" d="m296.5255525,40.2979381c0-.5695801.0546875-.753418.2021484-.753418.1289062,0,.4404297.3676758.5693359.4960938.1650391.1835938,2.71875,2.7924805,5.2910156,5.4196777,1.4335938,1.3962402,3.2705078,3.2883301,3.7480469,3.729248l-.2021484-7.6425781c-.0185547-.9916992-.1289062-1.3227539-.625-1.4511719-.3115234-.0551758-.5878906-.0734863-.7158203-.0734863-.1835938,0-.2207031-.0734863-.2207031-.1469727,0-.092041.1464844-.1101074.3300781-.1101074.7900391,0,1.5625.0551758,1.7275391.0551758.1835938,0,.7529297-.0551758,1.4697266-.0551758.2021484,0,.2568359.0180664.2568359.1101074,0,.0734863-.0546875.1286621-.1650391.1469727s-.2568359.0183105-.4589844.0549316c-.4228516.092041-.5517578.2758789-.5517578,1.3779297l-.0361328,9.2226562c0,.918457-.0371094,1.0102539-.1660156,1.0102539-.1279297,0-.3125-.128418-1.2119141-.9736328-.0742188-.0366211-2.6279297-2.5717773-4.2255859-4.1333008-1.9111328-1.984375-3.7480469-3.8950195-4.2070312-4.3725586l.2382812,7.1831055c.0371094,1.2675781.1474609,1.7456055.6064453,1.8554688.2939453.0737305.6064453.0737305.7529297.0737305.1474609,0,.2207031.0551758.2207031.128418,0,.0917969-.0917969.1289062-.2939453.1289062-.9921875,0-1.6533203-.0551758-1.7822266-.0551758-.1279297,0-.8076172.0551758-1.5976562.0551758-.1660156,0-.2753906-.0185547-.2753906-.1289062,0-.0732422.0732422-.128418.2568359-.128418.1289062,0,.3310547,0,.5693359-.0737305.4042969-.128418.4960938-.6245117.4960938-1.9655762,0-8.7634277.0185547-5.9338379,0-8.9836426Z"/>
            <path class="cls-4" d="m320.7950837,47.0401256c0,1.4145508.0185547,2.7192383.0917969,3.3989258.0556641.440918.0917969.6982422.5517578.8081055.2207031.0551758.5693359.0737305.7158203.0737305.1474609,0,.2207031.0551758.2207031.1103516,0,.0917969-.0546875.1469727-.2382812.1469727-.9375,0-2.0214844-.0551758-2.0947266-.0551758s-1.1572266.0551758-1.6347656.0551758c-.2021484,0-.2753906-.0371094-.2753906-.1289062,0-.0551758.0546875-.128418.2021484-.128418.1464844,0,.2568359,0,.4033203-.0185547.3496094-.0551758.4042969-.2753906.4775391-.8999023.0742188-.6616211.0742188-1.984375.0742188-3.3623047v-6.5585938c-.6064453,0-1.5800781,0-2.3154297.0185547-1.1757812.0180664-1.4326172.2021484-1.6894531.5878906-.1660156.2570801-.2392578.4775391-.2763672.5693359-.0546875.1286621-.0917969.1469727-.1650391.1469727s-.0917969-.0732422-.0917969-.1652832c-.0185547-.1101074.2568359-1.3227539.3671875-1.8186035.0556641-.2207031.1103516-.2939453.1660156-.2939453.1279297,0,.4775391.1650391.8076172.2019043.6435547.0734863,1.1582031.092041,1.1757812.092041h6.0263672c.5146484,0,1.0654297-.0371094,1.3222656-.092041.2392578-.0549316.2939453-.0734863.3496094-.0734863.0732422,0,.1103516.0917969.1103516.1655273,0,.5141602-.0371094,1.7265625-.0371094,1.8735352,0,.1655273-.0732422.2207031-.1289062.2207031-.0917969,0-.1279297-.0737305-.1279297-.2207031,0-.0549316,0-.0732422-.0185547-.2568359-.0732422-.7348633-.3125-.9189453-2.1679688-.9370117-.6982422,0-1.2675781-.0185547-1.8007812-.0185547v6.5585938Z"/>
            <path class="cls-4" d="m344.002115,44.2845104c0-2.4250488,0-2.8659668-.0371094-3.3620605s-.1650391-.7714844-.734375-.8818359c-.1103516-.0183105-.2939453-.0366211-.4414062-.0366211-.1289062,0-.2021484-.0366211-.2021484-.1103516,0-.0732422.0556641-.128418.2207031-.128418.7900391,0,1.9101562.0551758,1.9472656.0551758.1650391,0,1.4150391-.0551758,1.9287109-.0551758,1.0292969,0,2.1494141.0917969,3.0136719.697998.3486328.2570801,1.1015625.9919434,1.1015625,2.2414551,0,1.0102539-.4960938,2.2963867-1.9472656,3.472168,1.3417969,1.6533203,2.4433594,3.0126953,3.3808594,3.9865723.8818359.9001465,1.4326172,1.0471191,1.9472656,1.1208496.1289062.0180664.5146484.0366211.5693359.0366211.1474609,0,.2021484.0551758.2021484.128418,0,.0917969-.0732422.1289062-.3310547.1289062h-1.2861328c-.8632812,0-1.2675781-.0551758-1.6708984-.2207031-.7724609-.3305664-1.3232422-1.1572266-2.2783203-2.3881836-.7167969-.8818359-1.4511719-1.8740234-1.7636719-2.2597656-.0732422-.0734863-.1103516-.1103516-.2207031-.1103516l-1.8925781-.0180664c-.0732422,0-.0917969.0180664-.0917969.0917969v.2570801c0,1.4697266,0,2.810791.0917969,3.4724121.0556641.440918.1103516.8081055.7167969.8818359.1835938.0180664.3857422.0366211.5332031.0366211.1650391,0,.2382812.0551758.2382812.1103516,0,.0917969-.0732422.1469727-.2568359.1469727-.9550781,0-1.984375-.0551758-2.0576172-.0551758-.2939453,0-1.1025391.0551758-1.5986328.0551758-.1835938,0-.2568359-.0371094-.2568359-.1469727,0-.0551758.1103516-.1103516.2207031-.1103516.1279297,0,.2568359,0,.4033203-.0366211.3125-.0551758.4228516-.2573242.4775391-.6982422.0927734-.6616211.0742188-2.1679688.0742188-3.5458984v-2.7556152Zm1.4140625,1.3044434c0,.0917969.0185547.1835938.0917969.2202148.2392578.1289062.9736328.2390137,1.6357422.2390137.3857422,0,.8447266-.0183105,1.2304688-.2756348.5517578-.3491211.9189453-1.1572266.9189453-2.3330078,0-2.0024414-1.0654297-3.1049805-2.7011719-3.1049805-.4589844,0-.8447266.0366211-1.0654297.0917969-.0546875.0185547-.1103516.0737305-.1103516.1655273v4.9970703Z"/>
            <path class="cls-4" d="m361.0157869,44.2845104c0-2.4064941,0-2.8474121-.0371094-3.3435059-.0361328-.5146484-.1650391-.7717285-.6982422-.8818359-.109375-.0185547-.2939453-.0368652-.4404297-.0368652-.1289062,0-.2392578-.0549316-.2392578-.1101074,0-.1103516.0917969-.1469727.2763672-.1469727.3671875,0,.8632812.0366211,1.8916016.0551758.0917969,0,3.3623047,0,3.7294922-.0185547s.5693359-.0366211.7167969-.0917969c.1103516-.0366211.1289062-.0551758.2021484-.0551758.0361328,0,.0732422.0366211.0732422.128418,0,.1103516-.1103516.3676758-.1464844.8269043-.0185547.3122559-.0371094.6062012-.0556641.9553223,0,.1655273-.0361328.2753906-.1289062.2753906-.0917969,0-.1279297-.0732422-.1279297-.2019043-.0185547-.2756348-.0742188-.4592285-.1289062-.5878906-.1103516-.3674316-.2753906-.4958496-1.1943359-.5510254-.2382812-.0185547-2.0576172-.0368652-2.09375-.0368652-.0556641,0-.0917969.0368652-.0917969.1469727v4.170166c0,.1103516.0175781.184082.109375.184082.2207031,0,2.0947266-.0185547,2.4804688-.0551758.4228516-.0185547.6982422-.0737305.8447266-.2758789.0742188-.1098633.1289062-.1469727.2021484-.1469727.0371094,0,.0742188.0185547.0742188.1103516s-.0742188.440918-.1289062.9736328c-.0546875.5146484-.0546875.8818359-.0732422,1.1206055-.0185547.1469727-.0556641.2021484-.1289062.2021484-.0917969,0-.1103516-.1101074-.1103516-.2387695,0-.1103516-.0185547-.2939453-.0546875-.440918-.0732422-.2387695-.1835938-.4960938-.8818359-.5512695-.4228516-.0366211-1.9111328-.0732422-2.2050781-.0732422-.1103516,0-.1279297.0551758-.1279297.128418v1.3413086c0,.5693359-.0185547,2.1860352,0,2.4985352.0361328.6796875.1279297,1.0288086.5136719,1.1940918.2763672.1286621.7167969.1652832,1.3417969.1652832.3486328,0,.9365234.0185547,1.3955078-.1103516.5517578-.1650391.6796875-.5327148.8271484-1.2124023.0371094-.1835938.0917969-.2573242.1650391-.2573242.1103516,0,.1103516.1655273.1103516.2758789,0,.128418-.1464844,1.2858887-.2021484,1.5981445-.0732422.3676758-.2021484.4042969-.8085938.4042969-1.2119141,0-1.7265625-.0366211-2.3691406-.0366211-.6435547-.0185547-1.4882812-.0551758-2.1679688-.0551758-.4228516,0-.7714844.0551758-1.2128906.0551758-.1650391,0-.2568359-.0371094-.2568359-.1289062,0-.0732422.0732422-.128418.1650391-.128418.1103516,0,.2392578-.0185547.3671875-.0551758.3310547-.0734863.5517578-.3125.5878906-1.4511719.0185547-.625.0371094-1.3779297.0371094-2.7744141v-2.7556152Z"/>
            <path class="cls-4" d="m380.3058259,51.7801159c-4.5371094,0-6.3925781-3.3254395-6.3925781-6.154541,0-2.4433594,1.8916016-6.0810547,6.4296875-6.0810547,3.65625,0,6.4121094,2.2045898,6.4121094,5.8608398,0,2.8291016-1.9296875,4.6293945-2.8662109,5.2172852l3.4169922,1.7084961c3.6748047,1.8374023,6.1542969,1.7822266,6.7060547,1.7822266.7529297,0,1.9833984-.1655273,3.1044922-.6064453.0917969-.0366211.2021484-.0551758.2382812-.0551758.0742188,0,.1103516.0185547.1103516.0737305s-.0917969.128418-.2021484.1835938c-.9179688.4594727-2.7373047,1.1025391-5.1435547,1.1025391-1.984375,0-4.0966797-.7167969-6.6142578-2.0947266l-2.7001953-1.4511719c-.5146484.2753906-1.5986328.5144043-2.4990234.5144043Zm4.7216797-5.9338379c0-3.6376953-2.2412109-5.7319336-4.8134766-5.7319336-2.5351562,0-4.5927734,1.5795898-4.5927734,5.0703125,0,3.5458984,2.1865234,5.9707031,5.0888672,5.9707031,1.3232422,0,4.3173828-.697998,4.3173828-5.309082Z"/>
            <path class="cls-4" d="m396.0714509,46.4707897c0,2.2412109.4228516,3.1967773,1.1201172,3.8212891.7900391.6982422,1.671875.8452148,2.4257812.8452148.9550781,0,1.8183594-.2573242,2.5166016-1.065918.7353516-.8447266.9003906-2.2412109.9003906-3.8393555v-1.9475098c0-2.4064941,0-2.8293457-.0371094-3.3254395-.0361328-.5327148-.0917969-.8081055-.6796875-.8999023-.1279297-.0185547-.3486328-.0368652-.5146484-.0368652-.109375,0-.1835938-.0549316-.1835938-.1101074,0-.1103516.0917969-.1469727.2578125-.1469727.7900391,0,1.7080078.0551758,1.78125.0551758.0927734,0,.8828125-.0551758,1.3964844-.0551758.1835938,0,.2578125.0366211.2578125.128418,0,.0737305-.0742188.1286621-.1835938.1286621-.1103516,0-.1474609,0-.3310547.0183105-.5146484.0551758-.5878906.3857422-.625.918457-.0185547.4960938-.0185547.9189453-.0185547,3.3254395v1.6350098c0,1.6533203-.1835938,3.6376953-1.4873047,4.7583008-1.1943359,1.0102539-2.3701172,1.1022949-3.3623047,1.1022949-.5146484,0-2.2412109,0-3.4355469-1.1022949-.7900391-.7348633-1.359375-1.8371582-1.359375-4.1152344v-2.2780762c0-2.4250488,0-2.8474121-.0556641-3.3435059-.0175781-.4960938-.109375-.8085938-.6796875-.8818359-.1103516-.0185547-.3300781-.0368652-.4775391-.0368652-.1279297,0-.2021484-.0549316-.2021484-.1101074,0-.1103516.0742188-.1469727.2763672-.1469727.7890625,0,1.78125.0551758,1.9101562.0551758.1464844,0,1.2304688-.0551758,1.7265625-.0551758.2021484,0,.2578125.0366211.2578125.128418s-.1289062.1286621-.2207031.1286621c-.1103516,0-.2568359.0183105-.4042969.0368652-.4404297.0551758-.5146484.3671875-.5507812.8818359-.0185547.4960938-.0185547.918457-.0185547,3.3435059v2.1862793Z"/>
            <path class="cls-4" d="m413.6183259,44.2845104c0-2.4064941,0-2.8474121-.0371094-3.3435059-.0361328-.5146484-.1650391-.7717285-.6982422-.8818359-.109375-.0185547-.2939453-.0368652-.4404297-.0368652-.1289062,0-.2392578-.0549316-.2392578-.1101074,0-.1103516.0917969-.1469727.2763672-.1469727.3671875,0,.8632812.0366211,1.8916016.0551758.0917969,0,3.3623047,0,3.7294922-.0185547s.5693359-.0366211.7167969-.0917969c.1103516-.0366211.1289062-.0551758.2021484-.0551758.0361328,0,.0732422.0366211.0732422.128418,0,.1103516-.1103516.3676758-.1464844.8269043-.0185547.3122559-.0371094.6062012-.0556641.9553223,0,.1655273-.0371094.2753906-.1289062.2753906s-.1279297-.0732422-.1279297-.2019043c-.0185547-.2756348-.0732422-.4592285-.1289062-.5878906-.1103516-.3674316-.2753906-.4958496-1.1943359-.5510254-.2382812-.0185547-2.0576172-.0368652-2.09375-.0368652-.0556641,0-.0917969.0368652-.0917969.1469727v4.170166c0,.1103516.0175781.184082.109375.184082.2207031,0,2.0947266-.0185547,2.4804688-.0551758.4228516-.0185547.6982422-.0737305.8457031-.2758789.0732422-.1098633.1279297-.1469727.2011719-.1469727.0371094,0,.0742188.0185547.0742188.1103516s-.0742188.440918-.1289062.9736328c-.0546875.5146484-.0546875.8818359-.0732422,1.1206055-.0185547.1469727-.0556641.2021484-.1289062.2021484-.0917969,0-.1103516-.1101074-.1103516-.2387695,0-.1103516-.0185547-.2939453-.0546875-.440918-.0742188-.2387695-.1835938-.4960938-.8818359-.5512695-.4228516-.0366211-1.9111328-.0732422-2.2050781-.0732422-.1103516,0-.1279297.0551758-.1279297.128418v1.3413086c0,.5693359-.0185547,2.1860352,0,2.4985352.0361328.6796875.1279297,1.0288086.5136719,1.1940918.2753906.1286621.7167969.1652832,1.3417969.1652832.3486328,0,.9365234.0185547,1.3955078-.1103516.5517578-.1650391.6796875-.5327148.8271484-1.2124023.0371094-.1835938.0917969-.2573242.1650391-.2573242.1103516,0,.1103516.1655273.1103516.2758789,0,.128418-.1464844,1.2858887-.2021484,1.5981445-.0732422.3676758-.2021484.4042969-.8085938.4042969-1.2119141,0-1.7265625-.0366211-2.3691406-.0366211-.6435547-.0185547-1.4882812-.0551758-2.1679688-.0551758-.4228516,0-.7714844.0551758-1.2128906.0551758-.1650391,0-.2568359-.0371094-.2568359-.1289062,0-.0732422.0732422-.128418.1650391-.128418.1103516,0,.2392578-.0185547.3671875-.0551758.3310547-.0734863.5517578-.3125.5878906-1.4511719.0185547-.625.0371094-1.3779297.0371094-2.7744141v-2.7556152Z"/>
            <path class="cls-4" d="m427.4347322,51.3760631c-.2382812-.1103516-.2382812-.1838379-.2382812-.6247559,0-.8449707.0546875-1.4697266.0732422-1.7268066.0185547-.1655273.0546875-.2573242.1464844-.2573242.0927734,0,.1289062.0551758.1289062.1835938,0,.1103516,0,.3308105.0556641.5512695.2382812,1.1943359,1.3222656,1.6533203,2.3876953,1.6533203,1.5253906,0,2.2597656-1.046875,2.2597656-1.9658203,0-1.046875-.4775391-1.6899414-1.8183594-2.7739258l-.7353516-.5693359c-1.7636719-1.4147949-2.1308594-2.3886719-2.1308594-3.4724121,0-1.6901855,1.3408203-2.8293457,3.3984375-2.8293457.6435547,0,1.0839844.0551758,1.4882812.1469727.3496094.0737305.4960938.0917969.625.0917969.1279297,0,.1650391.0371094.1650391.1103516,0,.0737305-.0732422.7165527-.0732422,1.7822266,0,.2753906-.0371094.3857422-.1289062.3857422s-.1103516-.0737305-.1289062-.2021484c-.0175781-.1655273-.0546875-.5512695-.2197266-.8632812-.0917969-.1655273-.5146484-.8637695-2.0576172-.8637695-1.1025391,0-1.9296875.6616211-1.9296875,1.7636719,0,.8637695.4414062,1.3964844,1.9658203,2.5537109l.4228516.3305664c1.9111328,1.4697266,2.40625,2.4436035,2.40625,3.7480469,0,.6611328-.2753906,1.8369141-1.3955078,2.6088867-.7167969.4589844-1.5986328.6428223-2.4804688.6428223-.7714844,0-1.4882812-.092041-2.1865234-.4040527Z"/>
          </g>
        </g>
      </g>
    </g>
  </g>
</svg>