<?xml version="1.0" encoding="UTF-8"?>
<svg xmlns="http://www.w3.org/2000/svg" viewBox="0 0 614.4534848 144.1913353">
  <defs>
    <style>
      .cls-1, .cls-2 {
        fill: none;
        stroke: #fff;
        stroke-miterlimit: 10;
      }

      .cls-3 {
        isolation: isolate;
      }

      .cls-2 {
        stroke-width: 2px;
      }

      .cls-4 {
        fill: #fff;
      }

      .cls-4, .cls-5 {
        stroke-width: 0px;
      }

      .cls-5 {
        mix-blend-mode: multiply;
        opacity: .3;
      }
    </style>
  </defs>
  <g class="cls-3">
    <g id="_レイヤー_2" data-name="レイヤー 2">
      <g id="_レイヤー_1-2" data-name="レイヤー 1">
        <g>
          <rect class="cls-5" width="614.4534848" height="144.1913353"/>
          <g>
            <rect class="cls-2" x="6.9574783" y="7.0180607" width="600.5385281" height="130.1552138"/>
            <polyline class="cls-1" points="534.5304669 116.2274608 585.2413844 116.2274608 574.2172719 109.6129933"/>
          </g>
          <g>
            <g>
              <path class="cls-4" d="m187.6005193,70.4884899c.0517578-.0683594.1201172-.1757812.2060547-.3217773.0854492-.1455078.1582031-.2526855.21875-.3212891.0595703-.0683594.1240234-.1030273.1928711-.1030273.1367188,0,.4326172.21875.887207.6557617.4541016.4375.7333984.7763672.8359375,1.0161133.0170898.0861816.0087891.171875-.0253906.2573242-.1030273.1889648-.2919922.282959-.565918.282959h-3.1640625v6.4821777c1.3032227-.4284668,2.503418-.8398438,3.6010742-1.2348633.0170898-.0166016.0517578-.0253906.1030273-.0253906.0854492,0,.1455078.0429688.1801758.128418v.1030273c0,.0686035-.034668.128418-.1030273.1799316l-1.3632812.720459c-2.1264648,1.1315918-4.2617188,2.2207031-6.4052734,3.2666016-.0341797.2058105-.1455078.3691406-.3339844.4887695-.0517578.0512695-.1030273.0688477-.1547852.0512695-.0512695-.0166016-.0859375-.0595703-.1025391-.128418l-.6689453-1.6977539c-.0170898-.0168457-.0258789-.0512695-.0258789-.1030273,0-.0854492.0517578-.1369629.1542969-.1542969.565918-.1542969,1.5004883-.4282227,2.8041992-.822998l.7456055-.2316895v-7.0222168h-1.0288086c-.4799805.017334-.9863281.1115723-1.5175781.282959-.1201172.0512695-.2055664.017334-.2573242-.1030273l-.4370117-.822998-.0258789-.1027832c0-.119873.0683594-.1628418.2055664-.1286621.4458008.0686035,1.1147461.1201172,2.0063477.1542969h1.0546875v-6.4309082h-1.0800781c-.565918.0175781-1.1235352.1203613-1.671875.3088379h-.0771484c-.0688477,0-.1289062-.0427246-.1801758-.1286621l-.4375-.9003906c-.0170898-.0166016-.0253906-.0512695-.0253906-.1027832,0-.0856934.0595703-.1286621.1796875-.1286621.9428711.0859375,1.9892578.1459961,3.1381836.1801758h2.7783203l.5141602-.7460938c.0683594-.0854492.1499023-.2011719.2446289-.347168.09375-.1455078.1757812-.2529297.2441406-.3215332.0683594-.0683594.137207-.1027832.2060547-.1027832.1367188,0,.4711914.2314453,1.0029297.6943359.5317383.4631348.8574219.8149414.9775391,1.0546875.0170898.0859375.0170898.1716309,0,.2573242-.1030273.1889648-.3085938.2827148-.6171875.2827148h-3.6269531v6.4309082h.9775391l.4370117-.7458496Zm12.8359375-7.7941895c.0341797-.0515137.0942383-.1369629.1801758-.2570801.0854492-.119873.1625977-.2099609.2314453-.2702637.0683594-.0598145.137207-.0900879.2055664-.0900879.137207,0,.4541016.2104492.9516602.6303711.4975586.4204102.8061523.7504883.9262695.9902344.0512695.0859375.0341797.1716309-.0512695.2573242-.2407227.2231445-.565918.3688965-.9775391.4372559v6.4306641c.0341797,2.1437988.1025391,4.1071777.2055664,5.890625,0,.1027832-.034668.1887207-.1030273.2570801-.1542969.1542969-.3769531.2958984-.668457.4245605-.2919922.1286621-.565918.1928711-.8232422.1928711h-.0258789c-.137207,0-.2055664-.0681152-.2055664-.2058105v-1.0288086h-1.4921875v6.4306641c0,.1716309.0385742.282959.1157227.3344727.0771484.0512695.2529297.0771484.5273438.0771484h1.3378906l1.3115234-.0258789c.1030273-.0166016.184082-.046875.2446289-.0898438.0600586-.0427246.1069336-.1242676.1416016-.2443848.0683594-.1711426.1582031-.5402832.2700195-1.1062012.1113281-.565918.184082-.9516602.21875-1.1574707l.2055664-1.0031738c.0170898-.1196289.0771484-.1801758.1801758-.1801758s.1542969.0688477.1542969.2060547l.0771484,3.34375c.2055664.1030273.347168.2102051.4243164.3217773.0771484.1113281.1157227.2526855.1157227.4243164,0,.3601074-.2314453.6213379-.6943359.7844238-.4628906.1628418-1.3549805.2443848-2.675293.2443848h-1.7236328c-.7543945,0-1.2519531-.1118164-1.4916992-.3344727-.2402344-.2229004-.3598633-.6345215-.3598633-1.2346191v-6.7907715h-1.7495117c-.2573242,1.6977539-.7202148,3.1166992-1.3891602,4.2570801-.668457,1.140625-1.6118164,2.0705566-2.8291016,2.7907715-1.2177734.720459-2.7871094,1.3032227-4.7075195,1.7495117h-.0512695c-.1030273,0-.171875-.0432129-.2060547-.1289062v-.0256348c-.0170898-.017334-.0253906-.0515137-.0253906-.1027832,0-.0859375.0512695-.1459961.1542969-.1801758,1.6459961-.565918,2.9663086-1.2216797,3.9609375-1.9677734s1.7451172-1.6289062,2.2509766-2.6494141c.5058594-1.0200195.8442383-2.2675781,1.0161133-3.7426758h-1.105957v.9260254c0,.1027832-.1416016.2229004-.4248047.3601074-.2827148.1374512-.5786133.2055664-.887207.2055664-.1376953,0-.2617188-.0512695-.3730469-.1542969-.1118164-.1027832-.1669922-.2226562-.1669922-.3598633.0683594-.9428711.1240234-1.8735352.1669922-2.7910156.0424805-.9172363.0727539-2.0791016.0898438-3.4853516v-3.4213867c0-2.0231934-.0942383-3.6867676-.2827148-4.9902344v-.0512695c0-.0683594.0170898-.1113281.0512695-.1286621.0341797-.0168457.0859375-.0085449.1542969.0256348l1.8007812.7973633h7.4082031l.4116211-.5915527Zm-.1542969,4.630127v-3.2668457h-7.7939453v3.2668457h7.7939453Zm-7.7939453,4.064209h7.7939453v-3.2924805h-7.7939453v3.2924805Zm7.7939453.7717285h-7.7939453v3.4726562h7.7939453v-3.4726562Z"/>
              <path class="cls-4" d="m215.8959294,68.6364391c.0683594-.0856934.1455078-.1970215.2314453-.3344727.0854492-.137207.1582031-.2399902.21875-.3085938.0595703-.0683594.1240234-.1030273.1928711-.1030273.1367188,0,.4414062.2275391.9130859.6816406.4711914.4545898.7670898.8017578.887207,1.041748.0170898.0861816.0087891.1716309-.0253906.2573242-.1030273.1887207-.2919922.282959-.565918.282959h-3.1640625v8.1542969l3.5498047-1.6464844c.0170898-.0168457.0424805-.0256348.0771484-.0256348.0854492,0,.1455078.0429688.1801758.1286621.0512695.1201172.0253906.2143555-.0771484.2827148l-1.4921875,1.003418c-1.8867188,1.3208008-3.7729492,2.5722656-5.6586914,3.7553711-.0517578.2231445-.1459961.4033203-.2832031.5402832-.0512695.0686035-.1030273.098877-.1542969.0900879-.0512695-.0085449-.0947266-.0556641-.128418-.1416016l-.7978516-1.7749023c-.0170898-.0168457-.0253906-.0512695-.0253906-.1027832,0-.1027832.0512695-.1628418.1542969-.1799316.7714844-.2573242,1.800293-.6689453,3.0864258-1.2348633v-8.8486328h-1.0029297c-.4628906.0170898-.9516602.1118164-1.4663086.2827148-.1201172.0517578-.2055664.0175781-.2573242-.1025391l-.4370117-.8747559-.0258789-.1027832c0-.119873.0683594-.1628418.2060547-.1286621.4282227.0686035,1.0800781.1201172,1.9545898.1542969h1.0288086v-2.0837402c0-1.8686523-.0942383-3.5407715-.2827148-5.015625v-.0517578c0-.1369629.0771484-.1799316.2314453-.128418.8574219.2573242,1.4536133.4589844,1.7875977.6044922.3344727.1459961.5019531.2788086.5019531.3986816,0,.0859375-.0771484.1716309-.2314453.2570801l-.4375.2573242v5.7619629h.8486194l.4633923-.7458496Zm13.8647461-2.1352539c.0341797-.0512695.0898438-.1325684.1669922-.2441406.0771484-.1113281.1455078-.1970215.2055664-.2573242.0600586-.0600586.1245117-.0900879.1933594-.0900879.1367188,0,.4243164.1975098.8613281.5915527.4375.3947754.7158203.7202148.8359375.9775391.0517578.0688477.0341797.1459961-.0512695.2314453-.1889648.1542969-.4716797.2573242-.8486328.3088379-.034668,3.3952637-.1376953,5.8305664-.309082,7.3054199s-.4545898,2.4267578-.8486328,2.8549805c-.4116211.4804688-1.0288086.7548828-1.8520508.8232422-.1376953,0-.2055664-.0683594-.2055664-.2058105,0-.4631348-.0947266-.7885742-.2832031-.9772949-.1713867-.154541-.5400391-.3088379-1.105957-.4631348-.1201172-.0168457-.1801758-.0856934-.1801758-.2058105v-.0771484c0-.1542969.0683594-.2143555.2055664-.1801758.7543945.0688477,1.3032227.1030273,1.6464844.1030273.1713867,0,.3041992-.0170898.3989258-.0515137.09375-.0341797.175293-.0939941.2441406-.1799316.2226562-.2741699.3945312-1.097168.5146484-2.4694824.1196289-1.3718262.1967773-3.5407715.2314453-6.5080566l-3.78125,1.4921875v4.5527344c.0341797,2.126709.1025391,4.098877.2055664,5.9165039,0,.0686035-.0253906.145752-.0771484.2314453-.137207.1713867-.3388672.3259277-.6044922.4628906-.2661133.1374512-.5273438.2058105-.784668.2058105-.137207,0-.2612305-.0515137-.3725586-.1542969-.1118164-.1027832-.1674805-.2226562-.1674805-.3601074.0683594-.9943848.1240234-1.9807129.1674805-2.9580078.0424805-.9775391.0727539-2.2124023.0898438-3.7041016v-3.6013184l-3.3183594,1.3117676v10.4692383c0,.4116211.1157227.6904297.347168.8359375.2314453.1459961.7246094.21875,1.4790039.21875h3.6787109c1.800293,0,2.9663086-.0258789,3.4980469-.0771484.1884766-.0168457.3300781-.0556641.4248047-.1157227.09375-.0600586.184082-.1499023.2700195-.2700195.1884766-.3945312.4887695-1.6376953.8999023-3.7299805.0170898-.1196289.0859375-.1801758.2060547-.1801758.1030273,0,.1542969.0688477.1542969.2060547l.0512695,3.8068848c.3256836.1201172.5444336.236084.65625.3474121.1113281.1115723.1669922.2614746.1669922.4499512,0,.3254395-.1669922.565918-.5014648.720459-.3344727.1542969-.9433594.265625-1.8261719.3342285-.8837891.0683594-2.2338867.1027832-4.0517578.1027832h-3.7553711c-.840332,0-1.4960938-.0686035-1.9677734-.2055664-.4716797-.1376953-.8061523-.3691406-1.003418-.6948242-.1972656-.3251953-.2954102-.7973633-.2954102-1.4145508v-10.2119141l-2.8813477,1.1318359c-.0170898.0170898-.0429688.0256348-.0771484.0256348-.0683594,0-.137207-.0341797-.2055664-.1027832l-.2060547-.2832031c-.0859375-.1196289-.0600586-.2055664.0771484-.2573242l3.2929688-1.3115234v-3.7041016c0-1.269043-.0688477-2.4521484-.2060547-3.5498047,0-.1713867.0854492-.2314453.2573242-.1801758.8232422.2573242,1.3891602.4628906,1.6977539.6171875.3085938.154541.4628906.300293.4628906.4375,0,.0859375-.0688477.1713867-.2055664.2573242l-.4375.2827148v5.2216797l3.3183594-1.2861328v-3.7294922c0-1.251709-.0688477-2.4438477-.2060547-3.5756836,0-.1713867.0859375-.2314453.2573242-.1801758.7885742.2573242,1.3378906.4631348,1.6464844.6174316.3085938.154541.4628906.291748.4628906.4116211,0,.1027832-.0688477.1975098-.2055664.282959l-.4116211.282959v5.2731934l3.34375-1.3120117.2314453-.0771484.3862305-.565918Z"/>
              <path class="cls-4" d="m258.2357732,72.3918102c.0512695-.0683594.1367188-.184082.2573242-.347168.1196289-.1628418.2182617-.282959.2954102-.3601074.0771484-.0773926.1499023-.1159668.21875-.1159668.1542969,0,.5273438.2446289,1.1191406.7333984.5913086.4887695.9555664.8615723,1.0932617,1.1186523.0166016.034668.0253906.0771484.0253906.1289062,0,.1201172-.0639648.2185059-.1928711.2956543-.128418.0771484-.2788086.1157227-.4501953.1157227h-9.3886719c1.097168,1.7150879,2.5722656,3.2797852,4.4243164,4.6945801,1.8520508,1.4145508,3.7553711,2.4821777,5.7104492,3.2023926.1030273.0515137.1542969.1027832.1542969.154541,0,.0859375-.0600586.145752-.1801758.1799316-.6000977.1716309-1.0117188.574707-1.234375,1.2087402-.0517578.154541-.1459961.1887207-.2832031.1030273-1.8520508-.9428711-3.5712891-2.2121582-5.1572266-3.8071289-1.5864258-1.5947266-2.8598633-3.3952637-3.8198242-5.4016113v4.0129395c.0341797,2.1264648.1025391,4.0986328.2055664,5.9160156,0,.0856934-.0258789.1628418-.0771484.2314453-.137207.1884766-.3432617.355957-.6171875.501709-.2744141.1455078-.5576172.2185059-.8491211.2185059-.1542969,0-.2915039-.0512695-.4116211-.1542969-.1201172-.1027832-.1796875-.2229004-.1796875-.3598633.0683594-.9091797.1240234-1.8046875.1669922-2.6882324.0424805-.8830566.0727539-1.9934082.0898438-3.3310547v-3.2668457c-1.2001953,1.7324219-2.6665039,3.3271484-4.3984375,4.784668-1.7324219,1.4575195-3.644043,2.6923828-5.7363281,3.7041016-.137207.0512695-.2314453.0253906-.2827148-.0773926l-.0517578-.0771484c-.0683594-.1201172-.0429688-.2145996.0776367-.282959,1.9033203-1.1831055,3.6694336-2.6108398,5.2988281-4.2827148,1.6289062-1.6721191,2.940918-3.3994141,3.9355469-5.1833496h-4.8100586c-1.0976562.017334-2.3242188.1286621-3.6787109.3344727h-.0771484c-.0688477,0-.128418-.0427246-.1801758-.1286621l-.4628906-.9003906c-.0170898-.0166016-.0253906-.0512695-.0253906-.1027832,0-.0856934.0595703-.1286621.1796875-.1286621.9428711.0859375,1.9892437.1459961,3.1381836.1801758h7.0737305v-6.7651367h-4.7583008c-1.0976562.0170898-2.3242188.128418-3.6787109.3344727h-.0512695c-.0859375,0-.1542969-.0427246-.2060547-.1289062l-.4628906-.9001465-.0253906-.1027832c0-.0856934.0595703-.1286621.1796875-.1286621.9262695.0859375,1.9633789.145752,3.112793.1799316h5.8901367c0-1.5087891-.0771484-2.8378906-.2314453-3.9868164,0-.1713867.0859375-.2316895.2573242-.1801758.8398438.2573242,1.4277344.4672852,1.762207.630127.3344727.1633301.5014648.3046875.5014648.4245605,0,.0859375-.0688477.1713867-.2055664.2570801l-.4116211.282959v2.5722656h5.8388672l.565918-.7714844c.0854492-.1030273.1713867-.2143555.2573242-.3344727.0854492-.119873.1713867-.2270508.2573242-.3215332.0854492-.0939941.1625977-.1413574.2314453-.1413574.137207,0,.4970703.2358398,1.0800781.7070312.5830078.472168.9433594.8276367,1.0805664,1.067627.0170898.034668.0258789.0773926.0258789.1286621,0,.1201172-.0644531.21875-.1928711.2958984-.1289062.0771484-.2792969.1157227-.4501953.1157227h-8.6943359v6.7651367h6.8164062l.5917969-.8232422Zm-15.2539062-5.3503418c.0854492-.0515137.1801758-.0515137.2832031,0,1.1484375.6520996,1.9887695,1.3547363,2.5205078,2.1091309.53125.7548828.7973633,1.4494629.7973633,2.0837402,0,.3601074-.081543.6560059-.2441406.8874512-.1630859.2314453-.3730469.347168-.6303711.347168-.1889648,0-.402832-.0771484-.6430664-.2314453-.0688477-.0683594-.1025391-.1542969-.1025391-.2573242-.0688477-.7202148-.2919922-1.5046387-.6689453-2.3535156-.3774414-.848877-.8149414-1.6245117-1.3120117-2.328125-.0688477-.1196289-.0688477-.2055664,0-.2570801Zm12.1796875-.2058105c.0429688-.0168457.0986328-.0083008.1674805.0258789l1.234375.6943359c.6860352.2404785,1.0292969.4375,1.0292969.5917969,0,.0859375-.0947266.1542969-.2832031.2055664l-.4370117.1289062c-.5317383.7714844-1.1279297,1.5175781-1.7880859,2.237793s-1.2988281,1.3374023-1.9160156,1.8520508c-.0688477.1027832-.1635742.1118164-.2832031.0256348l-.0258789-.0256348c-.1025391-.1030273-.1201172-.1970215-.0512695-.2832031l.2832031-.4885254c.394043-.7028809.7797852-1.5046387,1.1572266-2.4050293.3769531-.9003906.6518555-1.7106934.8232422-2.4309082.0170898-.0683594.046875-.1113281.0898438-.1286621Z"/>
              <path class="cls-4" d="m273.1810857,67.787318c.0512695-.0683594.1240234-.1755371.21875-.3212891.09375-.1455078.175293-.2573242.2441406-.3344727.0683594-.0771484.137207-.1157227.2060547-.1157227.1367188,0,.440918.2314453.9130859.6943359.4711914.4631348.7670898.8232422.887207,1.0805664.0170898.0859375.0083008.1713867-.0253906.2573242-.1030273.1713867-.300293.2570801-.5917969.2570801h-2.8295898v7.0993652c1.3544922-.6000977,2.4438477-1.088623,3.2666016-1.4660645.0170898-.0168457.0517578-.0256348.1030273-.0256348.0854492,0,.1455078.0429688.1801758.128418v.0771484c0,.0861816-.034668.1542969-.1030273.2060547-2.3837891,1.6635742-4.6557617,3.1726074-6.8164062,4.5270996-.0175781.2229004-.1118164.4204102-.2832031.5915527-.0341797.034668-.0771484.0515137-.128418.0515137-.0688477,0-.1201172-.0427246-.1542969-.1286621l-.8232422-1.7490234-.0258789-.1030273c0-.0854492.0429688-.1455078.1289062-.1801758.8232422-.3085938,1.8432617-.7285156,3.0610352-1.2602539v-7.7683105h-.9516602c-.4462891.017334-.9179688.1115723-1.4150391.282959-.1201172.0512695-.2055664.0170898-.2573242-.1030273l-.4370117-.8486328-.0258789-.1030273c0-.1196289.0683594-.1625977.2060547-.1286621.4111328.0686035,1.0288086.1203613,1.8520508.154541h1.0288086v-1.4921875c0-1.8686523-.0947266-3.5407715-.2832031-5.0158691v-.0515137c0-.1369629.0771484-.1799316.2314453-.128418.875.2570801,1.4794922.4589844,1.8134766.6044922.3344727.145752.5019531.2788086.5019531.3984375,0,.0861816-.0771484.171875-.2314453.2573242l-.4375.282959v5.1447754h.5146484l.4628906-.7719727Zm14.5078125,4.0900879c.0683594-.0856934.1411133-.1884766.2182617-.3088379.0776367-.1196289.1586914-.2226562.2446289-.3085938.0854492-.0854492.1625977-.128418.2314453-.128418.137207,0,.4760742.2275391,1.0161133.6816406.5400391.4545898.8701172.8017578.9902344,1.0415039.0170898.0861816.0083008.171875-.0258789.2573242-.1025391.1889648-.2915039.2832031-.5654297.2832031h-9.7490234c-.2919922.6171875-.7294922,1.3205566-1.3120117,2.1091309h8.6943359l.3857422-.4887695c.0512695-.0515137.137207-.1499023.2573242-.2956543.1196289-.1455078.2314453-.21875.3344727-.21875.1542969,0,.4501953.1760254.887207.5273438.4375.3515625.7075195.6474609.8105469.887207.0512695.0688477.0341797.1459961-.0517578.2316895-.1889648.1374512-.4799805.2314453-.8745117.282959-.1542969,2.1953125-.4116211,3.9614258-.7714844,5.2988281-.3603516,1.3376465-.8061523,2.2290039-1.3378906,2.675293-.5830078.4799805-1.3115234.7370605-2.1860352.7714844-.1376953,0-.2060547-.0686035-.2060547-.2055664-.034668-.4116211-.137207-.7033691-.3085938-.8745117l-.2060547-.1542969c-.2915039-.1889648-.8061523-.3603516-1.5429688-.5146484-.1201172-.034668-.1801758-.1030273-.1801758-.2058105v-.0515137c0-.0683594.0214844-.1196289.0644531-.1542969.0424805-.0341797.0981445-.0424805.1669922-.0256348,1.1318359.1027832,1.9804688.1542969,2.5463867.1542969.3945312,0,.6772461-.0771484.8491211-.2314453.3256836-.2912598.6303711-1.0202637.9130859-2.1865234.2827148-1.1657715.5014648-2.6662598.6557617-4.5014648h-1.9033203c-.6689453,1.9035645-1.6293945,3.5842285-2.8808594,5.041748-1.2519531,1.4577637-2.8295898,2.7094727-4.7329102,3.7553711-.1206055.0683594-.2148438.0427246-.2832031-.0771484l-.0258789-.0512695c-.0512695-.1201172-.0341797-.2148438.0517578-.2832031,2.9838867-2.0917969,5.015625-4.887207,6.0961914-8.385498h-2.0322266c-1.6459961,3.1726074-4.3129883,5.7104492-7.9995117,7.6140137-.1206055.0512695-.2148438.0258789-.2832031-.0771484l-.0512695-.0771484c-.0688477-.1201172-.0517578-.2148438.0512695-.2832031,1.4404297-.9086914,2.7265625-1.9760742,3.8583984-3.2021484s2.0581055-2.5507812,2.7783203-3.9743652h-2.109375c-1.3374023,1.5266113-3.0444336,2.8293457-5.1191406,3.9099121-.0341797.0170898-.0771484.0258789-.128418.0258789-.0688477,0-.128418-.0341797-.1801758-.1030273l-.0253906-.0258789c-.0864258-.1369629-.0688477-.2397461.0512695-.3085938,1.1831055-.8232422,2.2333984-1.7705078,3.1508789-2.8422852.9174805-1.0715332,1.6591797-2.2333984,2.2250977-3.4853516h-1.2861328c-.6860352.0170898-1.3632812.1201172-2.0322266.3085938h-.0771484c-.0683594,0-.128418-.0427246-.1796875-.1286621l-.4375-.9003906c-.0170898-.0168457-.0258789-.0515137-.0258789-.1027832,0-.0856934.0600586-.1286621.1801758-.1286621.9428711.0859375,1.9892578.145752,3.1381836.1799316h9.7490234l.5146484-.7458496Zm-1.7749023-9.5690918c.0512695-.0681152.1367188-.184082.2573242-.347168.1196289-.1625977.2314453-.2441406.3339844-.2441406.137207,0,.4458008.2016602.9262695.6044922.4799805.402832.7802734.7246094.9003906.9643555.0512695.0859375.0341797.171875-.0517578.2573242-.2226715.2058105-.5400391.3432617-.9516602.4116211v2.2893066c.0517578,1.8520508.1030273,3.2756348.1542969,4.2700195,0,.1027832-.034668.1887207-.1025391.2570801-.1376953.1542969-.3476562.2958984-.6303711.4245605-.2832031.1286621-.5361328.1928711-.7587891.1928711h-.0258789c-.137207,0-.2055664-.0683594-.2055664-.2058105v-.8486328h-7.1767578v.7973633c0,.0859375-.1459961.1928711-.4375.3212891-.2915039.1289062-.5830078.1928711-.8745117.1928711-.1030273,0-.1928711-.0512695-.2700195-.1542969-.0771484-.1027832-.1157227-.2226562-.1157227-.3598633.0683594-.685791.1196289-1.5776367.1542969-2.675293v-1.5947266c0-1.817627-.0859375-3.3525391-.2573242-4.6044922v-.0515137c0-.0681152.0170898-.1113281.0517578-.1286621.0336914-.0168457.0854492-.0083008.1542969.0258789l1.7231445.7973633h6.7910156l.4116211-.5917969Zm-.1542969,3.8842773v-2.5463867h-7.1767578v2.5463867h7.1767578Zm-7.1767578.7717285v2.5979004h7.1767578v-2.5979004h-7.1767578Z"/>
              <path class="cls-4" d="m313.8490544,62.8485973c.0854492-.0856934.2055664-.2141113.3598633-.3857422.1542969-.1711426.2832031-.2573242.3857422-.2573242.137207,0,.4375.2531738.9003906.7590332s.7543945.8959961.8745117,1.1704102c.0517578.1025391.0258789.1887207-.0771484.2570801-.1542969.0686035-.4799805.1201172-.9775391.1542969-.7714844.5317383-1.8046875,1.1188965-3.0996094,1.7619629s-2.5766602,1.2219238-3.8452148,1.7363281c.7026367.4462891,1.2172852.9003906,1.5429688,1.3632812.3256836.4631348.4887695.8920898.4887695,1.2861328,0,.3085938-.0942541.5402832-.2827148.6945801h5.9418945l.5146484-.565918c.0512695-.0515137.1542969-.1584473.3085938-.3215332.1542969-.1625977.2915039-.2443848.4116211-.2443848.1367027,0,.4414062.2316895.9130859.6945801s.7670898.8320312.887207,1.105957c.0517578.1030273.0258789.1889648-.0771484.2573242-.1713867.1030273-.4628906.1630859-.8745117.1801758-.6342773.7890625-1.5048828,1.6762695-2.6108398,2.6621094-1.105957.9863281-2.1567383,1.8222656-3.1508789,2.5080566-.0859375.0686035-.1801758.0686035-.2832031,0-.1025391-.0681152-.1025391-.1542969,0-.2570801.6518555-.7373047,1.3417969-1.598877,2.0708008-2.5852051.7285156-.986084,1.324707-1.873291,1.7875977-2.6623535h-7.4594727v10.4692383c0,.4975586-.0688477.9130859-.2055664,1.2475586-.1376953.3344727-.4116211.612793-.8232422.8359375-.4116211.2226562-1.012207.3769531-1.8007812.4628906h-.0512695c-.0859375,0-.1459961-.0600586-.1801758-.1799316-.0859375-.4460449-.300293-.7888184-.6430664-1.0290527-.4804688-.2915039-1.3374023-.5229492-2.5722656-.6943359-.1376953-.034668-.2055664-.1113281-.2055664-.2314453,0-.0515137.0166016-.0942383.0512695-.1286621.0341797-.0341797.0854492-.0427246.1542969-.0256348,2.3149414.1542969,3.6181641.2314453,3.909668.2314453.2573242,0,.4375-.0424805.5405273-.1286621.1025391-.0856934.1542969-.2316895.1542969-.4372559v-10.3920898h-6.1992188c-1.0976562.0170898-2.3242188.128418-3.6787109.3344727h-.0771484c-.0683594,0-.128418-.0427246-.1796875-.1286621l-.4633789-.9260254c-.0170898-.0170898-.0253906-.0515137-.0253906-.1030273,0-.0854492.0595703-.128418.1801758-.128418.9428711.0859375,1.9887695.145752,3.1381836.1799316h9.6201172c-.4287109-.7202148-1.1748047-1.526123-2.237793-2.4179688-1.0634766-.8913574-2.2983398-1.6721191-3.7041016-2.3405762-.1030273-.0517578-.1459961-.137207-.1289062-.2573242l.0258789-.0515137c.0170898-.0515137.046875-.0900879.090332-.1157227.0424805-.0256348.0981445-.0297852.1669922-.0129395,1.6289062.3085938,3.1381836.8232422,4.5273438,1.543457.8569336-.53125,1.7319336-1.1101074,2.6235352-1.7363281.8916016-.6259766,1.6547852-1.2128906,2.2895508-1.762207h-9.3374023c-1.0976562.0175781-2.3242188.1289062-3.6787109.3344727h-.0771484c-.0683594,0-.128418-.0424805-.1796875-.128418l-.4633789-.9003906c-.0170898-.0168457-.0253906-.0512695-.0253906-.1030273,0-.0854492.0595703-.128418.1796875-.128418.9428711.0859375,1.9892578.1459961,3.1381836.1801758h10.9326172l.565918-.6433105Z"/>
              <path class="cls-4" d="m326.6200505,75.568568c.0429688-.0424805.0986328-.046875.1674805-.0126953l1.1831055.4116211c.6171875.1027832.9262695.2314453.9262695.3857422,0,.0859375-.0947266.1801758-.2832031.282959l-.4375.2058105c-.3256836,1.1489258-.7158203,2.246582-1.1704102,3.2924805-.4541016,1.0461426-.9560547,1.9379883-1.5043945,2.675293-.0859375.1201172-.1801758.137207-.2832031.0512695l-.0512695-.0256348c-.1030273-.0683594-.1289062-.1628418-.0771484-.282959.1367188-.3256836.3256836-.8657227.565918-1.6206055.2397461-.7543945.4458008-1.6289062.6171875-2.6235352s.265625-1.8520508.2832031-2.5725098c0-.0681152.0209961-.1242676.0639648-.1672363Zm6.2636719-3.4597168c-.2744141-.4797363-.6430664-1.0803223-1.105957-1.8005371-.0688477-.1196289-.0605469-.2143555.0253906-.282959.0859375-.0515137.1801758-.0515137.2832031,0,1.0800781.6003418,1.8735352,1.2434082,2.3793945,1.9291992.5053711.6860352.7587891,1.3117676.7587891,1.8776855,0,.3085938-.0732422.5620117-.21875.7587891-.1459961.1975098-.3300781.2958984-.5527344.2958984-.1889648,0-.3774414-.0598145-.565918-.1801758-.0517578-.0512695-.0947266-.1367188-.1289062-.2570801-.0859375-.4631348-.2915039-1.0632324-.6171875-1.8005371-.7548828.1716309-1.4404297.3259277-2.0581055.4628906v5.2988281c.0341797,2.144043.1030273,4.1074219.2060547,5.890625,0,.1030273-.034668.1884766-.1030273.2573242-.137207.1542969-.3305664.2915039-.5786133.4116211-.2490234.1196289-.5273438.1801758-.8359375.1801758-.1376953,0-.2617188-.0561523-.3730469-.1674805-.1118164-.1115723-.1674805-.2275391-.1674805-.347168.0683594-1.0119629.1289062-1.9936523.1801758-2.9453125s.0854492-2.1992188.1030273-3.7426758v-4.5014648c-.9433594.2058105-1.9980469.4116211-3.1640625.6171875-.1030273.2231445-.2485352.3774414-.4370117.4631348l-.0771484.0256348c-.0864258,0-.1459961-.0598145-.1801758-.1799316l-.4116211-1.4919434v-.0771484c0-.1030273.0600586-.1542969.1801758-.1542969,1.1484375-.0515137,1.9545898-.0942383,2.4179688-.1286621.6342773-.9428711,1.3027344-2.0661621,2.0063477-3.369873.4116211-.7368164.7929688-1.5258789,1.1445312-2.3662109.3510742-.8400879.612793-1.5949707.784668-2.2636719.0341797-.1542969.128418-.1884766.2827148-.1030273,1.40625.583252,2.109375.9863281,2.109375,1.2089844,0,.0688477-.0859375.1286621-.2573242.1801758l-.4628906.1542969c-.5830078.9775391-1.3081055,2.0578613-2.1738281,3.2412109-.8657227,1.1831055-1.7451172,2.2724609-2.6362305,3.2666016l4.2441406-.3601074Zm-5.2734375-5.6848145c.3432617-.7028809.6474609-1.5002441.9135742-2.3920898.265625-.8916016.4584961-1.7060547.5786133-2.4438477.0170898-.1542969.1030273-.2055664.2573242-.1542969,1.4746094.583252,2.2119141.9775391,2.2119141,1.1833496,0,.0515137-.0771484.1115723-.2314453.1799316l-.4370117.1542969c-1.1152344,1.7839355-2.0322266,3.0869141-2.7524414,3.9101562.394043.3256836.6855469.6518555.8745117.9775391.1884766.3256836.2827148.6342773.2827148.9257812,0,.2573242-.0639648.4631348-.1928711.6174316-.128418.1542969-.2958984.2314453-.5014648.2314453-.1201172,0-.2661133-.0427246-.4375-.1286621-.0341797-.0168457-.0942383-.0854492-.1796875-.2055664-.1889811-.5146484-.5063477-1.067627-.9516602-1.6591797-.4462891-.5917969-.9262695-1.1191406-1.440918-1.5820312-.1025391-.0854492-.1113281-.1713867-.0253906-.2573242.0683594-.0683594.1708984-.0771484.3085938-.0256348.6689453.2058105,1.2348633.4545898,1.6977539.7458496l.0253906-.0771484Zm4.5532227,9.2346191h.0258789c.1196289-.0341797.2138672-.0168457.2827148.0515137.9428711.6687012,1.6289062,1.3632812,2.0581055,2.0834961.4282227.7202148.6430664,1.3720703.6430664,1.9550781,0,.3774414-.0732422.6774902-.21875.9001465-.1459961.2231445-.3388672.3344727-.5791016.3344727-.1884766,0-.3857422-.0773926-.5913086-.2316895-.0517578-.0512695-.0947266-.128418-.1289062-.2314453-.0683594-.6855469-.2529297-1.4443359-.5527344-2.2763672-.300293-.831543-.6391602-1.607666-1.0161133-2.328125-.0512695-.1367188-.0258789-.2226562.0771484-.2570801Zm13.0673828-9.1315918c.0341797-.0515137.09375-.1328125.1796875-.2443848.0859375-.1113281.1630859-.1931152.2319336-.2443848.0678711-.0512695.1367188-.0771484.2055664-.0771484.137207,0,.4414062.1928711.9130859.5786133.4716797.3859863.7675781.6992188.8876953.9389648.0512695.0859375.0341797.1716309-.0517578.2573242-.2055664.1542969-.5141602.2573242-.9257812.3085938-.2402344,9.2089844-.9003906,14.4819336-1.980957,15.8198242-.668457.7714844-1.6118164,1.1831055-2.8291016,1.234375-.1376953,0-.2060547-.0686035-.2060547-.2055664-.034668-.4975586-.2055664-.8579102-.5146484-1.0805664-.3256836-.2402344-1.2431641-.5141602-2.7519531-.822998-.1201172-.0168457-.1801758-.0856934-.1801758-.2058105v-.0771484c0-.0683594.0214844-.1196289.0644531-.1542969.0424805-.0341797.0981445-.0424805.1669922-.0258789,2.074707.2404785,3.3779297.3603516,3.909668.3603516.2744141,0,.4799805-.0258789.6176758-.0771484.1367188-.0517578.2915039-.1542969.4628906-.3088379.8232422-.822998,1.371582-5.7189941,1.6464844-14.6877441h-7.5112305c-.7719727,1.5778809-1.6035156,2.8981934-2.4951172,3.9614258-.0859375.1201172-.1801758.137207-.2832031.0512695l-.0771484-.0512695c-.1025391-.0683594-.1201172-.1628418-.0512695-.2832031.703125-1.3544922,1.3032227-2.8293457,1.8007812-4.4243164.2568359-.7714844.4887695-1.6674805.6943359-2.6879883.2055664-1.0200195.3256836-1.890625.3603516-2.6108398,0-.0683594.0209961-.1196289.0639648-.1542969.0424805-.0341797.0986328-.0341797.1674805,0,.8911133.2573242,1.5087891.4628906,1.8520508.6171875.3427734.1542969.5141602.2832031.5141602.3859863,0,.0686035-.0771484.1374512-.2314453.2058105l-.4370117.1801758c-.4462891,1.4404297-.9521484,2.8037109-1.5180664,4.0898438h6.894043l.4116211-.565918Zm-7.5883789,4.8615723c.0854492-.0515137.1801758-.0515137.2827148,0,1.2861328.7033691,2.2290039,1.4660645,2.8295898,2.2893066.6000977.8232422.9003906,1.5864258.9003906,2.2895508,0,.3771973-.081543.6816406-.2441406.9130859-.1635742.2314453-.3730469.347168-.6303711.347168-.2060547,0-.4116211-.0683594-.6171875-.2058105-.0517578-.0515137-.0947266-.1369629-.1289062-.2570801-.0859375-.7885742-.355957-1.6503906-.8100586-2.5852051-.4545898-.9345703-.9819336-1.7790527-1.5820312-2.5339355-.0859375-.1196289-.0859375-.2055664,0-.2570801Z"/>
              <path class="cls-4" d="m374.4520818,69.1764782c.0512695-.0683594.1240234-.1625977.2182617-.282959.0942383-.119873.1757812-.2097168.2446289-.2700195.0683594-.0598145.1367188-.0900879.2055664-.0900879.137207,0,.4375.2531738.9003906.7587891.4628906.5061035.7543945.8964844.8745117,1.1704102.0517578.1030273.0258789.1889648-.0771484.2573242-.1030273.0686035-.3598633.128418-.7714844.1801758-.3774414.4287109-.8232422.8789062-1.3378906,1.3500977-.5141602.472168-.9946289.8618164-1.4404297,1.1704102-.0688477.0688477-.1630859.0771484-.2827148.0258789-.1030273-.0512695-.1289062-.1455078-.0771484-.282959.394043-.7885742.7626953-1.654541,1.105957-2.5979004h-16.7456055c.0341797.7888184-.0732422,1.4619141-.3217773,2.019043-.2485352.5576172-.5703125.9648438-.9643555,1.2219238-.2744141.2058105-.5830078.3088379-.9262695.3088379-.2568359,0-.4672852-.0683594-.6298828-.2060547-.1630859-.1369629-.2446289-.3427734-.2446289-.6171875,0-.2058105.0644531-.3989258.1928711-.5788574.1289062-.1799316.2958984-.329834.5019531-.4499512.4458008-.2573242.8183594-.6772461,1.1186523-1.2607422.2998047-.5825195.4501953-1.2255859.4501953-1.9291992v-.2827148c0-.137207.0600586-.2060547.1801758-.2060547h.0512695c.137207,0,.2143555.0517578.2314453.154541.0517578.1716309.137207.5231934.2573242,1.0544434h11.6782227l.3857422-.6430664c.4116211-.6855469.8017578-1.4616699,1.1704102-2.3276367.3686523-.8657227.6386719-1.6503906.8105469-2.3537598.0341797-.1369629.128418-.1799316.2827148-.1286621,1.5776367.5490723,2.3666992.9260254,2.3666992,1.1318359,0,.0859375-.0771484.1542969-.2314453.2058105l-.4887695.1542969c-.4116211.6003418-.9433594,1.2565918-1.5947266,1.9677734-.6518555.7119141-1.3208008,1.3762207-2.0063477,1.9934082h4.449707l.4633789-.6171875Zm1.9804512,14.0961914c.1196464.0341797.1801933.0854492.1801933.1542969,0,.0515137-.0175781.0942383-.0517578.1286621-.0341797.0341797-.0771484.0598145-.1284355.0771484-.651838.1542969-1.1147286.6086426-1.3891427,1.3632812-.034668.119873-.1201172.1628418-.2573242.1286621-3.7382812-.8232422-6.7739258-2.092041-9.105957-3.8071289-2.9155273,1.8354492-6.6020508,3.1037598-11.0605469,3.8071289h-.0517578c-.0683594,0-.137207-.0515137-.2055664-.1542969v-.0258789c-.0170898-.0170898-.0258789-.0512695-.0258789-.1027832,0-.0686035.0517578-.1203613.1542969-.1542969,4.081543-.9606934,7.4511719-2.3664551,10.109375-4.2185059-1.8691406-1.5776367-3.2924976-3.5068359-4.2700195-5.7875977h-1.003418c-.4458008.0170898-.9345703.1115723-1.4658203.2827148-.0175781.017334-.0517578.0258789-.1030273.0258789-.0859375,0-.1459961-.0427246-.1801758-.1286621l-.4628906-.8747559c-.0175781-.0166016-.0258789-.0512695-.0258789-.1027832,0-.0856934.0683594-.1286621.2060547-.1286621.9257812.0859375,1.9633789.1459961,3.1123047.1801758h9.5429688l.5405273-.5400391c.0683594-.0683594.184082-.1801758.347168-.3344727.1625977-.1542969.2958984-.2314453.3984375-.2314453.137207,0,.4248047.2143555.8618164.6430664.4375.4287109.7158203.7714844.8359375,1.0288086.0517578.0859375.0341797.1716309-.0512695.2573242-.1713867.137207-.5058594.2143555-1.003418.2314453-1.2861328,2.1437988-2.90625,3.9443359-4.8613281,5.4018555,2.6064453,1.3720703,5.7446289,2.3322754,9.4145333,2.8808594Zm-4.0385567-21.8388672l.7719727,1.1062012c.4628906.3947754.6943359.6687012.6943359.822998,0,.1201172-.1542969.1542969-.4628906.1030273l-.6689453-.1030273c-2.3149414.4116211-5.0073242.7807617-8.0771484,1.1062012-3.0698242.3259277-6.019043.5402832-8.8486328.6430664-.1201342,0-.1972656-.0598145-.2314453-.1799316l-.0258789-.1030273v-.0512695c0-.0859375.0600586-.1455078.1801758-.1801758,1.9375-.1884766,3.9912109-.4541016,6.1606445-.7973633,2.1694336-.3427734,4.2055664-.7202148,6.109375-1.1318359,1.4404297-.2741699,2.8119944-.7114258,4.1157227-1.3120117.1196289-.0512695.2138672-.0256348.2827148.0771484Zm-14.4306641,3.9873047h.0258789c.0683423-.0517578.1625977-.0600586.2827148-.0258789,1.0117188.4287109,1.7578125.9260254,2.2382812,1.4919434.4799805.565918.7202148,1.1062012.7202148,1.6203613,0,.3088379-.0771484.5576172-.2314453.7460938-.1542969.1889648-.3520508.282959-.5917969.282959-.2055664,0-.4033203-.0598145-.5917969-.1799316-.0512695-.0515137-.0942383-.1286621-.128418-.2314453-.1030273-.5488281-.3173828-1.1359863-.6430664-1.762207-.3261719-.6257324-.6860352-1.1787109-1.0805664-1.6591797-.1025391-.1196289-.1025391-.2141113,0-.2827148Zm2.9326172,9.2602539c1.0629883,1.9206543,2.6665039,3.5668945,4.8100586,4.9384766,1.7832031-1.4404297,3.1806641-3.0864258,4.1928711-4.9384766h-9.0029297Zm2.6235352-9.7490234c.0859375-.0517578.1801758-.0517578.2832031,0,.9257812.4802246,1.6030273,1.0205078,2.0322266,1.6203613.4282227.6003418.6430664,1.1662598.6430664,1.6977539,0,.3432617-.0864258.6262207-.2573242.848877-.171875.2231445-.3774414.3344727-.6176758.3344727-.1884766,0-.3857422-.0771484-.5913086-.2314453-.0859375-.0683594-.1289062-.1542969-.1289062-.2573242-.0341797-.5830078-.184082-1.2219238-.4502125-1.9165039-.2656078-.6943359-.5785961-1.307373-.9384594-1.8391113-.0688477-.119873-.0605469-.2058105.0253906-.2570801Z"/>
              <path class="cls-4" d="m386.1561833,70.8742321c-.9091797,1.4404297-1.9462891,2.7612305-3.1123047,3.9614258-.0864258.0859375-.1801758.0859375-.2832031,0h-.0258789c-.1025391-.0683594-.1113281-.1628418-.0253906-.2832031,1.4746094-2.1606445,2.769043-4.7070312,3.8842773-7.6396484.3085938-.7885742.5996094-1.6889648.8745117-2.7006836.2739258-1.0117188.4458008-1.8691406.5141602-2.5722656.0170898-.154541.1030273-.2060547.2573242-.154541,1.5947266.5144043,2.3920898.8835449,2.3920898,1.1062012,0,.0686035-.0771484.128418-.2314453.1799316l-.4628906.1799316c-.6860352,1.9897461-1.5175781,3.8930664-2.4951172,5.7106934.6000977.4631348.9003906.7973633.9003906,1.0031738,0,.1030273-.0771484.1801758-.2314453.2314453l-.3603516.1542969v8.3598633c.0341797,2.144043.1030273,4.1074219.2060547,5.890625,0,.1030273-.034668.1884766-.1030273.2573242-.171875.1542969-.3901367.2915039-.6557617.4116211-.2661133.1196289-.519043.1801758-.7592773.1801758-.137207,0-.265625-.0517578-.3857422-.154541s-.1801758-.2229004-.1801758-.3601074c.0683594-1.0119629.1289062-1.9936523.1801758-2.9453125.0517578-.9516602.0859375-2.1992188.1030273-3.7426758v-7.0737305Zm16.796875-3.4211426c.0683594-.0856934.1499023-.201416.2446289-.3474121.09375-.1455078.1757812-.2526855.2441406-.3212891.0683594-.0683594.137207-.1030273.2060547-.1030273.1367188,0,.4628906.2358398.9775391.7075195.5141602.4716797.831543.8273926.9516602,1.0673828.0166016.034668.0253906.0771484.0253906.128418,0,.1203613-.0639648.21875-.1928711.2958984-.128418.0771484-.2788086.1157227-.4501953.1157227h-3.78125v13.4274902c0,.5317383-.0683594.9685059-.2055664,1.3117676-.1376953.3427734-.4204102.6303711-.8486328.8618164-.4291992.2314453-1.0634766.3986816-1.9038086.5014648h-.0512695c-.0688477,0-.1376953-.0512695-.2060547-.1542969-.137207-.5144043-.3774414-.8916016-.7202148-1.1318359-.4628906-.2744141-1.3720703-.5231934-2.7265625-.7458496-.137207-.0341797-.2055664-.1027832-.2055664-.2058105v-.0256348c0-.119873.0512695-.1799316.1542969-.1799316.2573242,0,1.0029297.0512695,2.237793.1542969.3603516.0170898.7241211.0429688,1.0932617.0771484.3686523.0344238.6816406.0512695.9389648.0512695.2915039,0,.484375-.0512695.5786133-.1542969s.1416016-.282959.1416016-.5400391v-13.2475586h-5.6850586c-1.0976562.0175781-2.3237305.1289062-3.6782227.3344727h-.0771484c-.0688477,0-.128418-.0424805-.1801758-.128418l-.4370117-.9262695c-.0175781-.0166016-.0258789-.0512695-.0258789-.1027832,0-.0856934.0600586-.1286621.1801758-.1286621.9428711.0859375,1.9892578.1459961,3.1381836.1801758h6.7651367v-1.1577148c0-1.8686523-.0947266-3.5407715-.2832031-5.0158691v-.0515137c0-.1369629.0771484-.1799316.2314453-.128418.8916016.2570801,1.5136719.4672852,1.8652344.630127.3510742.1630859.5273438.3044434.5273438.4245605,0,.0686035-.0688477.145752-.2060547.2314453l-.4116211.2570801v4.8103027h1.2607422l.5141602-.7717285Zm-11.7553711,4.2443848c.0859375-.0517578.1801758-.0517578.2832031,0,1.5258789.8916016,2.6450195,1.8178711,3.3569336,2.777832.7114258.9606934,1.0673828,1.8095703,1.0673828,2.5466309,0,.3259277-.0732422.5915527-.21875.7976074-.1459961.2055664-.3300781.3085938-.5527344.3085938-.1889648,0-.3862305-.0771484-.5917969-.2314453-.0859375-.0341797-.1376953-.1030273-.1542969-.2060547-.2060547-.822998-.6088867-1.7402344-1.2089844-2.7521973-.6005859-1.0114746-1.2695312-1.9975586-2.0063477-2.958252-.0688477-.1196289-.0605469-.2141113.0253906-.2827148Z"/>
              <path class="cls-4" d="m431.0170232,66.4755504c.0512695-.0681152.1367188-.1755371.2568359-.3215332.1201172-.1455078.2319336-.21875.3344727-.21875.1542969,0,.4799805.1931152.9775391.5788574.4970703.3859863.8061523.6989746.9262695.9389648.0512695.0686035.0341797.145752-.0517578.2314453-.1889648.1889648-.5058594.3259277-.9516602.4116211v2.958252c.0341797,2.0407715.1030273,3.9013672.2060547,5.5817871,0,.1027832-.034668.1887207-.1030273.2570801-.171875.1376953-.4033203.2661133-.6948242.3859863-.2915039.1201172-.5571289.1799316-.7973633.1799316-.1025391,0-.1884766-.0385742-.2568359-.1157227-.0688477-.0771484-.1118164-.1669922-.1289062-.2700195,0-.1030273.0083008-.1884766.0258789-.2573242l.0771484-.7714844v-.7202148h-7.1767578v3.0610352c.0341797,2.0922852.1030273,4.0383301.2055664,5.8388672,0,.0856934-.0253906.1628418-.0771484.2314453-.137207.1884766-.347168.355957-.6298828.501709-.2832031.1455078-.5620117.2185059-.8359375.2185059-.1542969,0-.2919922-.0512695-.4116211-.1542969-.1201172-.1027832-.1801758-.2229004-.1801758-.3598633.0683594-.9091797.1240234-1.8046875.1669922-2.6882324.0429688-.8830566.0727539-2.0019531.090332-3.3566895v-3.2924805h-7.1767578v.6171875l.0771484.9775391c.0170898.1027832,0,.1889648-.0512695.2573242-.1030273.1542969-.2875977.2871094-.5532227.3984375-.2661133.1118164-.5444336.1674805-.8359375.1674805-.1201172,0-.21875-.0517578-.2958984-.154541s-.1157227-.2226562-.1157227-.3601074c.0854492-.9428711.1455078-2.2033691.1801758-3.78125v-2.1606445c0-2.0234375-.0947266-3.6870117-.2832031-4.9902344v-.0515137c0-.0683594.0214844-.1113281.0644531-.1286621.0424805-.0168457.0986328-.0083008.1669922.0258789l1.8266602.8745117h6.996582v-.2832031c0-1.8686523-.0947266-3.5407715-.2832031-5.015625v-.0517578c0-.1369629.0771484-.1799316.2314453-.128418.8916016.2573242,1.5087891.4672852,1.8520508.630127.3432617.1633301.5146484.3046875.5146484.4245605,0,.0859375-.0688477.1713867-.2055664.2570801l-.4375.282959v3.8842773h6.9453125l.4116211-.5402832Zm-16.2055664,1.2861328v6.7907715h7.1767578v-6.7907715h-7.1767578Zm8.8486328,0v6.7907715h7.1767578v-6.7907715h-7.1767578Z"/>
            </g>
            <g>
              <path class="cls-4" d="m257.7565275,36.9403942c0-2.4250488,0-2.8659668-.0366211-3.3620605s-.1650391-.7714844-.7348633-.8818359c-.1103516-.0183105-.2939453-.0366211-.440918-.0366211-.128418,0-.2021484-.0366211-.2021484-.1103516,0-.0732422.0551758-.128418.2207031-.128418.7900391,0,1.9106445.0551758,1.9472656.0551758.1655273,0,1.4145508-.0551758,1.9291992-.0551758,1.0288086,0,2.1494141.0917969,3.0126953.697998.3491211.2570801,1.1025391.9919434,1.1025391,2.2414551,0,1.0102539-.4960938,2.2963867-1.9472656,3.472168,1.3408203,1.6533203,2.4433594,3.0126953,3.3798828,3.9865723.8818359.9001465,1.4331055,1.0471191,1.9477539,1.1208496.128418.0180664.5141602.0366211.5693359.0366211.1469727,0,.2021484.0551758.2021484.128418,0,.0917969-.0737305.1289062-.3305664.1289062h-1.2861328c-.8632812,0-1.2675781-.0551758-1.671875-.2207031-.7714844-.3305664-1.3227539-1.1572266-2.277832-2.3881836-.7167969-.8818359-1.4516602-1.8740234-1.7636719-2.2597656-.0737305-.0734863-.1103516-.1103516-.2207031-.1103516l-1.8920898-.0180664c-.0737305,0-.0917969.0180664-.0917969.0917969v.2570801c0,1.4697266,0,2.810791.0917969,3.4724121.0551758.440918.1103516.8081055.7163086.8818359.1835938.0180664.3857422.0366211.5327148.0366211.1655273,0,.2387695.0551758.2387695.1103516,0,.0917969-.0732422.1469727-.2568359.1469727-.9555664,0-1.984375-.0551758-2.0576172-.0551758-.2939453,0-1.1025391.0551758-1.5986328.0551758-.1835938,0-.2573242-.0371094-.2573242-.1469727,0-.0551758.1103516-.1103516.2207031-.1103516.128418,0,.2573242,0,.4042969-.0366211.3120117-.0551758.4223633-.2573242.4775391-.6982422.0917969-.6616211.0732422-2.1679688.0732422-3.5458984v-2.7556152Zm1.4150391,1.3044434c0,.0917969.0180664.1835938.0917969.2202148.2387695.1289062.9736328.2390137,1.6347656.2390137.3857422,0,.8452148-.0183105,1.230957-.2756348.5512695-.3491211.918457-1.1572266.918457-2.3330078,0-2.0024414-1.0654297-3.1049805-2.7001953-3.1049805-.4594727,0-.8452148.0366211-1.065918.0917969-.0551758.0185547-.1098633.0737305-.1098633.1655273v4.9970703Z"/>
              <path class="cls-4" d="m274.7706877,36.9403942c0-2.4064941,0-2.8474121-.0366211-3.3435059-.0371094-.5146484-.1655273-.7717285-.6982422-.8818359-.1103516-.0185547-.2939453-.0368652-.440918-.0368652-.128418,0-.2387695-.0549316-.2387695-.1101074,0-.1103516.0917969-.1469727.2753906-.1469727.3676758,0,.8632812.0366211,1.8925781.0551758.0917969,0,3.3618164,0,3.7290039-.0185547.3676758-.0185547.5698242-.0366211.7167969-.0917969.1098633-.0366211.128418-.0551758.2021484-.0551758.0366211,0,.0732422.0366211.0732422.128418,0,.1103516-.1103516.3676758-.1469727.8269043-.0185547.3122559-.0366211.6062012-.0551758.9553223,0,.1655273-.0366211.2753906-.128418.2753906s-.1289062-.0732422-.1289062-.2019043c-.0180664-.2756348-.0732422-.4592285-.128418-.5878906-.1103516-.3674316-.2753906-.4958496-1.1938477-.5510254-.2392578-.0185547-2.0576172-.0368652-2.0947266-.0368652-.0551758,0-.0917969.0368652-.0917969.1469727v4.170166c0,.1103516.0185547.184082.1103516.184082.2202148,0,2.0942383-.0185547,2.4799805-.0551758.4228516-.0185547.6982422-.0737305.8452148-.2758789.0732422-.1098633.128418-.1469727.2021484-.1469727.0366211,0,.0732422.0185547.0732422.1103516s-.0732422.440918-.128418.9736328c-.0551758.5146484-.0551758.8818359-.0737305,1.1206055-.0180664.1469727-.0546875.2021484-.128418.2021484-.0917969,0-.1103516-.1101074-.1103516-.2387695,0-.1103516-.0180664-.2939453-.0551758-.440918-.0732422-.2387695-.1835938-.4960938-.8818359-.5512695-.4223633-.0366211-1.9101562-.0732422-2.2041016-.0732422-.1103516,0-.1289062.0551758-.1289062.128418v1.3413086c0,.5693359-.0185547,2.1860352,0,2.4985352.0366211.6796875.1289062,1.0288086.5146484,1.1940918.2753906.1286621.7163086.1652832,1.3408203.1652832.3491211,0,.9370117.0185547,1.3964844-.1103516.5507812-.1650391.6796875-.5327148.8266602-1.2124023.0366211-.1835938.0917969-.2573242.1655273-.2573242.1098633,0,.1098633.1655273.1098633.2758789,0,.128418-.1469727,1.2858887-.2021484,1.5981445-.0732422.3676758-.2016602.4042969-.8081055.4042969-1.2124023,0-1.7270508-.0366211-2.3701172-.0366211-.6430664-.0185547-1.487793-.0551758-2.1679688-.0551758-.4223633,0-.7714844.0551758-1.2124023.0551758-.1650391,0-.2573242-.0371094-.2573242-.1289062,0-.0732422.0737305-.128418.1655273-.128418.1103516,0,.2387695-.0185547.3676758-.0551758.3305664-.0734863.5507812-.3125.5878906-1.4511719.0180664-.625.0366211-1.3779297.0366211-2.7744141v-2.7556152Z"/>
              <path class="cls-4" d="m288.5875822,44.0319469c-.2392578-.1103516-.2392578-.1838379-.2392578-.6247559,0-.8449707.0551758-1.4697266.0737305-1.7268066.0185547-.1655273.0551758-.2573242.1469727-.2573242s.128418.0551758.128418.1835938c0,.1103516,0,.3308105.0551758.5512695.2387695,1.1943359,1.3227539,1.6533203,2.3886719,1.6533203,1.5244141,0,2.2592773-1.046875,2.2592773-1.9658203,0-1.046875-.4775391-1.6899414-1.8188477-2.7739258l-.734375-.5693359c-1.7636719-1.4147949-2.1313477-2.3886719-2.1313477-3.4724121,0-1.6901855,1.3413086-2.8293457,3.3989258-2.8293457.6425781,0,1.0839844.0551758,1.487793.1469727.3491211.0737305.4960938.0917969.6245117.0917969.1289062,0,.1655273.0371094.1655273.1103516,0,.0737305-.0732422.7165527-.0732422,1.7822266,0,.2753906-.0371094.3857422-.1289062.3857422s-.1098633-.0737305-.128418-.2021484c-.0185547-.1655273-.0551758-.5512695-.2207031-.8632812-.0917969-.1655273-.5141602-.8637695-2.0576172-.8637695-1.1020508,0-1.9287109.6616211-1.9287109,1.7636719,0,.8637695.440918,1.3964844,1.9658203,2.5537109l.4223633.3305664c1.9106445,1.4697266,2.4067383,2.4436035,2.4067383,3.7480469,0,.6611328-.2753906,1.8369141-1.3964844,2.6088867-.7163086.4589844-1.5981445.6428223-2.4799805.6428223-.7714844,0-1.4882812-.092041-2.1860352-.4040527Z"/>
              <path class="cls-4" d="m303.6906096,36.9403942c0-2.4064941,0-2.8474121-.0366211-3.3435059-.0371094-.5146484-.1655273-.7717285-.6982422-.8818359-.1103516-.0185547-.2939453-.0368652-.440918-.0368652-.128418,0-.2387695-.0549316-.2387695-.1101074,0-.1103516.0917969-.1469727.2753906-.1469727.3676758,0,.8632812.0366211,1.8925781.0551758.0917969,0,3.3618164,0,3.7290039-.0185547.3676758-.0185547.5698242-.0366211.7167969-.0917969.1098633-.0366211.128418-.0551758.2021484-.0551758.0366211,0,.0732422.0366211.0732422.128418,0,.1103516-.1103516.3676758-.1469727.8269043-.0185547.3122559-.0366211.6062012-.0551758.9553223,0,.1655273-.0366211.2753906-.128418.2753906s-.1289062-.0732422-.1289062-.2019043c-.0180664-.2756348-.0732422-.4592285-.128418-.5878906-.1103516-.3674316-.2753906-.4958496-1.1938477-.5510254-.2392578-.0185547-2.0576172-.0368652-2.0947266-.0368652-.0551758,0-.0917969.0368652-.0917969.1469727v4.170166c0,.1103516.0185547.184082.1103516.184082.2202148,0,2.0942383-.0185547,2.4799805-.0551758.4228516-.0185547.6982422-.0737305.8452148-.2758789.0732422-.1098633.128418-.1469727.2021484-.1469727.0366211,0,.0732422.0185547.0732422.1103516s-.0732422.440918-.128418.9736328c-.0551758.5146484-.0551758.8818359-.0737305,1.1206055-.0180664.1469727-.0546875.2021484-.128418.2021484-.0917969,0-.1103516-.1101074-.1103516-.2387695,0-.1103516-.0180664-.2939453-.0551758-.440918-.0732422-.2387695-.1835938-.4960938-.8818359-.5512695-.4223633-.0366211-1.9101562-.0732422-2.2041016-.0732422-.1103516,0-.1289062.0551758-.1289062.128418v1.3413086c0,.5693359-.0185547,2.1860352,0,2.4985352.0366211.6796875.1289062,1.0288086.5146484,1.1940918.2753906.1286621.7163086.1652832,1.3408203.1652832.3491211,0,.9370117.0185547,1.3964844-.1103516.5507812-.1650391.6796875-.5327148.8266602-1.2124023.0366211-.1835938.0917969-.2573242.1655273-.2573242.1098633,0,.1098633.1655273.1098633.2758789,0,.128418-.1469727,1.2858887-.2021484,1.5981445-.0732422.3676758-.2016602.4042969-.8081055.4042969-1.2124023,0-1.7270508-.0366211-2.3701172-.0366211-.6430664-.0185547-1.487793-.0551758-2.1679688-.0551758-.4223633,0-.7714844.0551758-1.2124023.0551758-.1650391,0-.2573242-.0371094-.2573242-.1289062,0-.0732422.0737305-.128418.1655273-.128418.1103516,0,.2387695-.0185547.3676758-.0551758.3305664-.0734863.5507812-.3125.5878906-1.4511719.0180664-.625.0366211-1.3779297.0366211-2.7744141v-2.7556152Z"/>
              <path class="cls-4" d="m318.4440275,36.9403942c0-2.4250488,0-2.8659668-.0366211-3.3620605s-.1650391-.7714844-.7348633-.8818359c-.1103516-.0183105-.2939453-.0366211-.440918-.0366211-.128418,0-.2021484-.0366211-.2021484-.1103516,0-.0732422.0551758-.128418.2207031-.128418.7900391,0,1.9106445.0551758,1.9472656.0551758.1655273,0,1.4145508-.0551758,1.9291992-.0551758,1.0288086,0,2.1494141.0917969,3.0126953.697998.3491211.2570801,1.1025391.9919434,1.1025391,2.2414551,0,1.0102539-.4960938,2.2963867-1.9472656,3.472168,1.3408203,1.6533203,2.4433594,3.0126953,3.3798828,3.9865723.8818359.9001465,1.4331055,1.0471191,1.9477539,1.1208496.128418.0180664.5141602.0366211.5693359.0366211.1469727,0,.2021484.0551758.2021484.128418,0,.0917969-.0737305.1289062-.3305664.1289062h-1.2861328c-.8632812,0-1.2675781-.0551758-1.671875-.2207031-.7714844-.3305664-1.3227539-1.1572266-2.277832-2.3881836-.7167969-.8818359-1.4516602-1.8740234-1.7636719-2.2597656-.0737305-.0734863-.1103516-.1103516-.2207031-.1103516l-1.8920898-.0180664c-.0737305,0-.0917969.0180664-.0917969.0917969v.2570801c0,1.4697266,0,2.810791.0917969,3.4724121.0551758.440918.1103516.8081055.7163086.8818359.1835938.0180664.3857422.0366211.5327148.0366211.1655273,0,.2387695.0551758.2387695.1103516,0,.0917969-.0732422.1469727-.2568359.1469727-.9555664,0-1.984375-.0551758-2.0576172-.0551758-.2939453,0-1.1025391.0551758-1.5986328.0551758-.1835938,0-.2573242-.0371094-.2573242-.1469727,0-.0551758.1103516-.1103516.2207031-.1103516.128418,0,.2573242,0,.4042969-.0366211.3120117-.0551758.4223633-.2573242.4775391-.6982422.0917969-.6616211.0732422-2.1679688.0732422-3.5458984v-2.7556152Zm1.4150391,1.3044434c0,.0917969.0180664.1835938.0917969.2202148.2387695.1289062.9736328.2390137,1.6347656.2390137.3857422,0,.8452148-.0183105,1.230957-.2756348.5512695-.3491211.918457-1.1572266.918457-2.3330078,0-2.0024414-1.0654297-3.1049805-2.7001953-3.1049805-.4594727,0-.8452148.0366211-1.065918.0917969-.0551758.0185547-.1098633.0737305-.1098633.1655273v4.9970703Z"/>
              <path class="cls-4" d="m334.080258,33.9274547c-.3676758-.8632812-.4960938-1.0839844-1.1572266-1.1943359-.2573242-.0366211-.4594727-.0549316-.5512695-.0549316-.1469727,0-.2207031-.0549316-.2207031-.1286621,0-.0917969.1289062-.128418.2939453-.128418.8452148,0,1.9106445.0551758,2.0947266.0551758.1650391,0,1.0288086-.0551758,1.7084961-.0551758.2202148,0,.2939453.0366211.2939453.1101074,0,.092041-.0737305.1469727-.2758789.1469727-.2568359,0-.4223633.0368652-.5693359.092041-.1655273.0917969-.1655273.2019043-.1655273.3120117,0,.1289062.1103516.4777832.2939453.9187012l3.2333984,8.1203613c.9189453-2.0395508,3.0317383-7.3671875,3.3623047-8.4692383.0917969-.2390137.1469727-.4780273.1469727-.6064453,0-.1103516-.0185547-.2387695-.1655273-.2939453s-.3857422-.0734863-.5878906-.0734863c-.128418,0-.2387695-.0368652-.2387695-.1101074,0-.0917969.0551758-.1469727.2753906-.1469727.6616211,0,1.543457.0551758,1.7456055.0551758.0732422,0,.8081055-.0551758,1.2675781-.0551758.1835938,0,.2753906.0366211.2753906.1101074,0,.092041-.0732422.1469727-.2021484.1469727-.2202148,0-.4590011,0-.7895508.1838379-.2021484.1469727-.4228516.3671875-.8637695,1.4328613-.0917969.220459-1.0102539,2.333252-1.8369141,4.2253418-.9741211,2.2783203-1.7270508,4.005127-2.0395508,4.6298828-.4960938,1.0102539-.5507812,1.2858887-.7348633,1.2858887-.2202148,0-.3120117-.220459-.6245117-1.0288086l-3.9682617-9.4797363Z"/>
              <path class="cls-4" d="m352.2511564,36.9403942c0-2.4064941,0-2.8474121-.0366211-3.3435059-.0371094-.5146484-.1655273-.7717285-.6982422-.8818359-.1103516-.0185547-.2939453-.0368652-.440918-.0368652-.128418,0-.2387695-.0549316-.2387695-.1101074,0-.1103516.0917969-.1469727.2753906-.1469727.3676758,0,.8632812.0366211,1.8925781.0551758.0917969,0,3.3618164,0,3.7290039-.0185547.3676758-.0185547.5698242-.0366211.7167969-.0917969.1098633-.0366211.128418-.0551758.2021484-.0551758.0366211,0,.0732422.0366211.0732422.128418,0,.1103516-.1103516.3676758-.1469727.8269043-.0185547.3122559-.0366211.6062012-.0551758.9553223,0,.1655273-.0366211.2753906-.128418.2753906s-.1289062-.0732422-.1289062-.2019043c-.0180664-.2756348-.0732422-.4592285-.128418-.5878906-.1103516-.3674316-.2753906-.4958496-1.1938477-.5510254-.2392578-.0185547-2.0576172-.0368652-2.0947266-.0368652-.0551758,0-.0917969.0368652-.0917969.1469727v4.170166c0,.1103516.0185547.184082.1103516.184082.2202148,0,2.0942383-.0185547,2.4799805-.0551758.4228516-.0185547.6982422-.0737305.8452148-.2758789.0732422-.1098633.128418-.1469727.2021484-.1469727.0366211,0,.0732422.0185547.0732422.1103516s-.0732422.440918-.128418.9736328c-.0551758.5146484-.0551758.8818359-.0737305,1.1206055-.0180664.1469727-.0546875.2021484-.128418.2021484-.0917969,0-.1103516-.1101074-.1103516-.2387695,0-.1103516-.0180664-.2939453-.0551758-.440918-.0732422-.2387695-.1835938-.4960938-.8818359-.5512695-.4223633-.0366211-1.9101562-.0732422-2.2041016-.0732422-.1103516,0-.1289062.0551758-.1289062.128418v1.3413086c0,.5693359-.0185547,2.1860352,0,2.4985352.0366211.6796875.1289062,1.0288086.5146484,1.1940918.2753906.1286621.7163086.1652832,1.3408203.1652832.3491211,0,.9370117.0185547,1.3964844-.1103516.5507812-.1650391.6796875-.5327148.8266602-1.2124023.0366211-.1835938.0917969-.2573242.1655273-.2573242.1098633,0,.1098633.1655273.1098633.2758789,0,.128418-.1469727,1.2858887-.2021484,1.5981445-.0732422.3676758-.2016602.4042969-.8081055.4042969-1.2124023,0-1.7270508-.0366211-2.3701172-.0366211-.6430664-.0185547-1.487793-.0551758-2.1679688-.0551758-.4223633,0-.7714844.0551758-1.2124023.0551758-.1650391,0-.2573242-.0371094-.2573242-.1289062,0-.0732422.0737305-.128418.1655273-.128418.1103516,0,.2387695-.0185547.3676758-.0551758.3305664-.0734863.5507812-.3125.5878906-1.4511719.0180664-.625.0366211-1.3779297.0366211-2.7744141v-2.7556152Z"/>
            </g>
            <g>
              <path class="cls-4" d="m260.9252287,111.9247692c-.3085938-.2294922-.6831055-.588623-1.1240234-1.0783691-.4414208-.4892578-.8647461-1.1948242-1.2700195-2.1164551-.4057617-.9216309-.6088867-1.9909668-.6088867-3.2080078s.203125-2.286377.6088867-3.2080078c.4052734-.9216309.8285987-1.6271973,1.2700195-2.1166992.440918-.489502.8154297-.8486328,1.1240234-1.078125.0532227-.0441895.1015625-.0661621.1455078-.0661621.0268555,0,.0507812.0087891.0727539.0263672.0219727.0180664.0332031.0397949.0332031.0664062,0,.0351562-.0307617.0922852-.0922852.171875-.0268555.0351562-.2451172.2822266-.6552734.7407227-.409668.4587402-.7958984,1.199707-1.1572266,2.2226562-.3618164,1.0229492-.5424805,2.1032715-.5424805,3.2409668s.1542969,2.1408691.4628906,3.0095215.6020508,1.4995117.8798828,1.8916016c.277832.3925781.6152344.8271484,1.012207,1.3032227.0615234.0793457.0922852.1367188.0922852.171875s-.0131836.0595703-.0395508.0727539-.0488281.0200195-.0664062.0200195c-.0439453,0-.0922852-.0222168-.1455078-.0661621Z"/>
              <path class="cls-4" d="m266.0580412,105.3366344c-.5644531.6086426-1.1157227,1.1157227-1.6533203,1.5214844-.0532227.0441895-.1015625.0351562-.1455078-.0263672-.0532227-.0532227-.0532227-.105957,0-.1589355.6083984-.6350098,1.1904297-1.3933105,1.7460938-2.2753906.2294774-.3615723.4365234-.7409668.621582-1.1376953.1855469-.3967285.3261719-.7626953.4233398-1.0979004.0087891-.0705566.0576172-.0927734.1455078-.0661621.7412109.3791504,1.1113281.6174316,1.1113281.7143555,0,.0354004-.0439453.0617676-.1323242.0793457l-.2509766.0395508c-.2739258.4414062-.644043.9614258-1.1113281,1.5610352l.3305664.1323242c.0351562.0178223.0571289.0375977.0664062.0595703.0083008.0219727,0,.0463867-.0268555.0727539-.0703125.0708008-.1762695.1235352-.3173828.1586914v3.1882324c.0175781,1.1025391.0527344,2.1123047.105957,3.029541,0,.0527344-.0180664.0969238-.0532227.1323242-.0791016.0878906-.1831202.1630859-.3105469.2246094-.1279297.0617676-.2578125.0927734-.3901367.0927734-.0795898,0-.1503906-.0263672-.2119141-.0793457s-.0927734-.1147461-.0927734-.1853027c.0351562-.5205078.0664062-1.0251465.0927734-1.5146484s.0439453-1.1311035.0527344-1.9248047v-2.5400391Zm.8139648-5.9265137c.0307617-.0085449.0595703-.0041504.0859375.0134277l.6083984.3967285c.3349609.1411133.5029297.2512207.5029297.3308105,0,.0351562-.0488281.0615234-.1455078.0791016l-.2382812.0266113c-.3530273.4587402-.8134766.9438477-1.3823242,1.4553223s-1.1533203.9523926-1.7529297,1.3227539c-.0444336.0354004-.0927734.0263672-.1455078-.0263672-.0444336-.0615234-.0395508-.1103516.0131836-.1455078.3613281-.3352051.7363281-.7409668,1.1245117-1.2172852.2729492-.3261719.5244141-.6855469.7539062-1.078125.2294922-.3920898.4013672-.7558594.5161133-1.0913086.0087891-.0351562.0283203-.0571289.0595703-.0661621Zm7.440918,6.4160156c.0351562-.0439453.0727539-.0969238.112793-.1586914.0395508-.0617676.0810547-.114502.1254883-.1589355.0439453-.0439453.0839844-.065918.1191406-.065918.0703125,0,.2421875.1169434.5161133.3505859.2729492.2338867.4404297.4123535.5024414.5356445.0087891.0178223.0131836.0397949.0131836.0661621,0,.0617676-.0332031.1125488-.0991211.1520996-.065918.0397949-.1435547.0595703-.2314453.0595703h-3.1748047v4.0878906h2.2753906l.2641602-.3837891c.0268555-.0351562.0664062-.090332.1191406-.1652832.0532227-.0749512.0991211-.1323242.1391602-.1721191.0395508-.0395508.0771484-.0595703.1123047-.0595703.0703125,0,.2426758.1171875.5161133.3505859.2729492.2338867.440918.4121094.5024414.5358887.0087891.0441895.0087891.0881348,0,.1323242-.0527344.0881348-.1586914.1320801-.3173828.1320801h-6.0458984c-.5644531.0087891-1.1948242.0664062-1.8916016.1721191h-.0395508c-.0351562,0-.0664062-.0222168-.0927734-.0661621l-.2246094-.449707c-.0092773-.0087891-.0131836-.0263672-.0131836-.0529785,0-.0441895.0307617-.0661621.0922852-.0661621.4848633.0439453,1.0229492.074707,1.6142578.0927734h2.1430664v-4.0878906h-.9526367c-.5644531.0178223-1.1069336.0751953-1.6274414.171875h-.0395508c-.0351562,0-.065918-.0217285-.0922852-.065918l-.2382812-.4763184c-.0087891-.0085449-.0131836-.0266113-.0131836-.0529785,0-.0439453.0307617-.065918.0922852-.065918.4853516.0439453,1.0229492.074707,1.6142578.0922852h1.2568359v-3.4394531h-.9790039c-.5205078.0087891-1.0981445.0661621-1.7329102.171875h-.0400391c-.0351562,0-.065918-.0217285-.0922852-.065918l-.2382812-.4628906c-.0087891-.0087891-.0131836-.0266113-.0131836-.0532227,0-.0439453.0307617-.065918.0927734-.065918.4848633.0441895,1.0229492.0749512,1.6137695.0925293h4.3920898l.2646484-.3835449c.0351562-.0441895.0766602-.1035156.1254883-.1787109.0483398-.074707.090332-.1298828.1254883-.1655273.0351562-.0349121.0708008-.0527344.105957-.0527344.0703125,0,.2446289.1169434.5224609.3505859.277832.2338867.4477539.4123535.5092773.5356445.0087891.0444336.0043945.0883789-.0131836.1323242-.0527344.097168-.1542969.1455078-.3041992.1455078h-3.4921875v3.4394531h1.8520508l.2641602-.3835449Zm-4.1933594-6.2438965c.0351562-.0351562.0795898-.0483398.1323242-.0397949.5732422.1147461,1.0449219.2800293,1.4155273.4960938.3701172.2160645.637207.449707.800293.7011719.1630859.2512207.2446289.4873047.2446289.7077637,0,.1674805-.0419922.3041992-.1254883.4101562-.0839844.1057129-.1962891.1586914-.3374023.1586914-.0883789,0-.171875-.0175781-.2514648-.0529785-.0439453-.0175781-.0708008-.0529785-.0791016-.1057129-.105957-.3706055-.3286133-.7563477-.668457-1.1577148-.3393555-.401123-.7075195-.7294922-1.1044922-.9853516-.0615234-.0441895-.0708008-.0883789-.0263672-.1323242Z"/>
              <path class="cls-4" d="m280.8348967,105.1383922c-.4941406.5205078-1.0053711.9746094-1.534668,1.3623047-.0527344.0532227-.1010742.0488281-.1455078-.0131836l-.0131836-.0131836c-.0439453-.0527344-.0439453-.1010742,0-.1455078.5996094-.6259766,1.1552734-1.3535156,1.6669922-2.1826172.2290039-.3615723.4365234-.7475586.621582-1.1577148.1855469-.4101562.3178711-.7871094.3969727-1.1308594.0087891-.0705566.0571289-.0927734.1455078-.0664062.4057617.203125.6923828.3596191.8598633.4697266.1674805.1103516.2514648.1918945.2514648.2446289,0,.0356445-.0444336.0620117-.1323242.0795898l-.2514648.0395508c-.2910156.5117188-.652832,1.0498047-1.0844727,1.6140137l.3041992.1323242c.0351562.0178223.0595703.0375977.0727539.0593262.0131836.0222168.0063477.0463867-.0200195.0727539-.0615234.0620117-.1674805.105957-.3173828.1323242v3.4660645c.0175781,1.1025391.0527344,2.1123047.105957,3.029541,0,.0527344-.0180664.0969238-.0532227.1323242-.0791016.0878906-.1831055.1630859-.3105469.2246094-.1279297.0617676-.2583008.0927734-.390625.0927734-.0878906,0-.1630859-.0263672-.2246094-.0793457-.0620117-.0529785-.0927734-.1147461-.0927734-.1853027.0351562-.5205078.0664062-1.0251465.0927734-1.5146484s.0439453-1.1311035.0527344-1.9248047v-2.7382812Zm.9262695-5.7414551l.5952148.3703613c.3261719.1235352.4892578.2250977.4892578.3041992,0,.0444336-.0483398.0751953-.1455078.0927734l-.2246094.0263672c-.3354492.4851074-.7851562.996582-1.3496094,1.534668s-1.1508789,1.0009766-1.7592773,1.388916c-.0527344.0441895-.1015625.0354004-.1455078-.0266113l-.0131836-.0131836c-.0444336-.0527344-.0356445-.1010742.0263672-.1455078.4057617-.3789062.7939453-.8068848,1.1640625-1.2832031.2646484-.3349609.5092773-.7011719.734375-1.0979004.2246094-.3967285.3857422-.7626953.4829102-1.0979004.0263672-.0795898.074707-.097168.1455078-.0529785Zm7.1303711,2.7250977c.0263672-.0349121.0595703-.0793457.0991211-.1320801.0395508-.0532227.074707-.0927734.105957-.1191406.0307617-.0263672.0634766-.0397949.0991211-.0397949.0791016,0,.2333984.0993652.4628906.2976074.2294922.1984863.375.359375.4365234.4829102.0263672.0354004.0175781.0751953-.0263672.1191406-.105957.1057129-.2514648.171875-.4365234.1982422v1.045166c.0263672.8466797.0527344,1.4904785.0791016,1.9313965,0,.0444336-.0131836.0883789-.0395508.1323242-.0791016.0795898-.1894531.1501465-.3305664.2116699-.1411133.0617676-.2734375.0925293-.3969727.0925293h-.0263672c-.0708008,0-.105957-.0351562-.105957-.1057129v-.3967285h-2.9233398c.6523438.1762695.9790039.3085938.9790039.3967285,0,.0266113-.0444336.048584-.1323242.0661621l-.2250977.0263672c-.1235352.2116699-.2734375.4321289-.449707.6616211h2.434082l.2514648-.2514648c.0263672-.0263672.074707-.0771484.1455078-.1520996.0703125-.0749512.1367188-.1125488.1982422-.1125488.0703125,0,.2094727.0991211.4169922.2978516.2070312.1982422.3369141.359375.3901367.4829102.0263672.0527344.0131836.0969238-.0395508.1320801-.105957.0617676-.2646484.0925293-.4765625.0925293-.4941406.8203125-1.1113281,1.5126953-1.8520508,2.0771484.987793.5114746,2.1430664.8686523,3.4663086,1.0712891.0703125.0175781.1054688.0483398.1054688.0927734-.0087891.0351562-.0395508.0661621-.0922852.0925293-.1416016.0351562-.2626953.1057129-.3637695.2116699-.1015625.105957-.1743164.2382812-.2182617.3969727-.0268555.0615234-.0708008.0878906-.1323242.0793457-1.3671875-.3439941-2.4916992-.8513184-3.3735352-1.5212402-1.1640625.7495117-2.6108398,1.2832031-4.3393555,1.6005859h-.0395508c-.0351562,0-.065918-.0219727-.0922852-.0661621l-.0136719-.0397949-.0131836-.0527344c0-.0354004.0268555-.0620117.0795898-.0795898,1.5961914-.4233398,2.9057617-1.013916,3.9287109-1.7724609-.4936523-.4763184-.8994141-1.0097656-1.2167969-1.6005859-.7407227.7583008-1.5478516,1.3579102-2.4208984,1.7988281-.0087891.0090332-.0263672.0131836-.0527344.0131836-.0444336,0-.0751953-.0217285-.0927734-.065918l-.0131836-.0131836c-.0356445-.0615234-.0219727-.1103516.0395508-.1455078.6352539-.4321289,1.2368164-.9899902,1.8056641-1.673584.5688477-.6833496,1.0078125-1.364502,1.3164062-2.0437012h-.7670898v.3305664c0,.0529785-.0776367.1147461-.2319336.1850586-.1542969.0708008-.3061523.105957-.4560547.105957-.0620117,0-.1147461-.0263672-.1586914-.0793457-.0444336-.0529785-.0664062-.114502-.0664062-.1853027.0532227-.784668.0883789-1.5654297.105957-2.3413086v-1.3098145c-.3793945.4851074-.8334961.9348145-1.362793,1.3493652-.0527344.0354004-.1010742.0310059-.1455078-.0131836l-.0131836-.0131836c-.0615234-.0439453-.0708008-.0927734-.0263672-.1455078.3969727-.449707.7714844-1.0009766,1.1245117-1.6538086.1938477-.3789062.3789062-.8222656.5556641-1.3293457.1762695-.5070801.2866211-.9414062.3305664-1.3029785.0087891-.0795898.0532227-.105957.1323242-.0795898.8022461.2470703,1.2041016.4279785,1.2041016.5424805,0,.0263672-.0400391.0576172-.1191406.0927734l-.2250977.0922852c-.1323242.3000488-.269043.5869141-.4101562.8598633h3.8896484l.277832-.4099121c.0263672-.0441895.0678711-.1037598.1254883-.1784668.0571289-.0749512.1035156-.1323242.1386719-.1721191s.0708008-.0595703.105957-.0595703c.0532227,0,.1674805.0705566.3442383.2116699.1762695.1411133.3413086.293457.4960938.456543.1538086.1630859.2314453.2756348.2314453.3374023-.0092773.0615234-.0419922.1103516-.0996094.1455078-.0571289.0351562-.1298828.0527344-.2182617.0527344h-5.5029297c-.2119141.3618164-.3881836.6350098-.5292969.8203125l.5688477.2512207h3.5981445l.1987305-.277832Zm-.0795898,1.7858887v-1.1113281h-3.7832031v1.1113281h3.7832031Zm0,.3837891h-3.7832031v1.1640625h3.7832031v-1.1640625Zm-3.3735352,3.4526367c.3354492.5380859.8291016,1.0185547,1.4819336,1.4418945.6171875-.5290527,1.1196289-1.1330566,1.5078125-1.8122559h-2.671875l-.3178711.3703613Z"/>
              <path class="cls-4" d="m304.3295256,104.0797985c.0351562-.0439453.0771484-.1035156.1254883-.1784668.0488281-.0749512.090332-.130127.1259766-.1652832.0351562-.0351562.0703125-.0529785.105957-.0529785.0527344,0,.1630859.0661621.3305664.1984863s.3242188.2758789.4697266.4299316c.1455078.154541.2182617.2624512.2182617.3239746-.0087891.1411133-.1147461.2119141-.3173828.2119141h-1.9052734v2.7382812h.5556641l.2382812-.3969727c.0263672-.0351562.0639648-.090332.1123047-.1652832s.090332-.1323242.1254883-.1721191c.0351562-.0395508.0708008-.0593262.105957-.0593262.0795898,0,.2470703.1169434.5029297.3503418.2553711.2338867.4140625.4169922.4760742.5493164.0087891.0439453.0043945.0881348-.0131836.1320801-.0527344.0883789-.1499023.1323242-.2910156.1323242h-9.0219727c-.5649414.0090332-1.1953125.0661621-1.8920898.1721191h-.0395508c-.0351562,0-.065918-.0219727-.0927734-.0664062l-.237793-.4365234-.0131836-.0527344c0-.0615234.0351562-.0837402.1054688-.0661621.4145508.0441895.8291016.0705566,1.2436523.0793457h.6748047v-2.7382812h-.6616211c-.3525391.0087891-.7099609.0615234-1.0712891.1586914-.0708008.0175781-.1147461,0-.1323242-.0529785l-.2382812-.4499512-.0131836-.0527344c0-.0439453.0351562-.0661621.105957-.0661621.3876953.0441895.8286133.0749512,1.3227539.0925293h.6879883v-2.4472656c-.5380859.5908203-1.1333008,1.0847168-1.7861328,1.4814453-.0527344.0356445-.1015625.03125-.1455078-.0131836l-.0131836-.0131836c-.0175781-.0175781-.0288086-.0415039-.0332031-.0727539-.0043945-.0307617.0068359-.0549316.0332031-.0727539.4057617-.3969727.8022461-.8730469,1.1904297-1.4287109.2382812-.3349609.4765625-.7475586.7148438-1.2368164.237793-.489502.4052734-.9106445.5024259-1.2634277.0088046-.0705566.0571444-.0925293.1455233-.0661621.4233398.2116699.71875.3725586.8862305.4829102s.2514648.1918945.2514648.2446289c0,.0354004-.0444336.0620117-.1323242.0795898l-.2514648.0527344c-.2470703.4057617-.4804688.7541504-.7011719,1.045166l.2250977.1057129h6.7734375l.277832-.3967285c.0263672-.0351562.065918-.090332.1186523-.1652832.0532227-.0749512.0996094-.1323242.1391602-.1721191s.0771484-.0593262.1123047-.0593262c.0703125,0,.2446289.1188965.5224609.3569336.277832.2382812.4477539.4189453.5092773.5424805.0087891.0175781.0131836.0395508.0131836.0661621,0,.0617676-.0327148.1125488-.0991211.1520996-.065918.0395508-.1435547.0595703-.2314453.0595703h-1.5610352v2.7382812h.5952148l.2514648-.3969727Zm-8.2548828,4.3789062h.0131836c.0615234.0178223.097168.0529785.105957.105957.0351562.2822266.0527344.4848633.0527344.6083984,0,.546875-.1103516,1.0100098-.3305664,1.3891602-.2207031.3789062-.4853516.6523438-.7939453.8200684-.1674805.114502-.3481445.1721191-.5419922.1721191-.1323242,0-.2407227-.03125-.3242188-.0927734-.0839844-.0617676-.1254883-.1586914-.1254883-.2910156,0-.2028809.1186523-.3793945.3569336-.5290527.3525391-.1499023.6723633-.4123535.9589844-.7873535.2866211-.3745117.456543-.8046875.5092773-1.2895508.0175781-.0705566.0576172-.105957.1191406-.105957Zm2.1035156-6.7202148h-1.3891602v2.7382812h1.3891602v-2.7382812Zm0,3.1088867h-1.3891602v2.7382812h1.3891602v-2.7382812Zm-.449707,3.8759766c0-.0439453.0219727-.074707.065918-.0927734.0532227-.0263672.1015625-.0175781.1455078.0266113.3618164.3439941.6264648.6901855.7939453,1.0383301.1674805.3486328.2514648.6728516.2514648.9724121,0,.2380371-.0488281.4318848-.1455078.5822754-.097168.1496582-.2119141.2246094-.3442383.2246094-.097168,0-.1982422-.0527344-.3041992-.1586914-.0263672-.0263672-.0395508-.057373-.0395508-.0925293v-.3044434c0-.34375-.0375977-.7075195-.112793-1.0913086-.074707-.3835449-.1738281-.7382812-.2973633-1.0649414-.0087891-.0085449-.0131836-.0219727-.0131836-.0395508Zm2.7119141-4.246582v-2.7382812h-1.4951172v2.7382812h1.4951172Zm0,3.1088867v-2.7382812h-1.4951172v2.7382812h1.4951172Zm-.3041992,1.0449219h.0131836c.0439453-.0351562.0922852-.0395508.1455078-.0131836.5908203.3439941,1.0249023.7124023,1.3027344,1.1047363s.4169922.7519531.4169922,1.078125c0,.1762695-.0375977.317627-.1123047.4233398-.0751953.1057129-.1699219.1586914-.284668.1586914-.0791016,0-.1762695-.0354004-.2910156-.1057129-.0263672-.0263672-.0483398-.0661621-.065918-.1191406-.0532227-.3618164-.1875-.7607422-.4038086-1.1972656s-.4609375-.8310547-.7338867-1.184082c-.0444336-.0703125-.0400391-.1188965.0131836-.1455078Zm2.5664062-4.1538086v-2.7382812h-1.46875v2.7382812h1.46875Zm-1.46875,3.1088867h1.46875v-2.7382812h-1.46875v2.7382812Zm1.3891602.8862305l.0131836-.0131836c.0351562-.0263672.0839844-.0307617.1455078-.0131836.6435547.2470703,1.168457.5249023,1.5742188.8334961s.6967773.6130371.8730469.9125977c.1767578.3000488.2646484.5732422.2646484.8203125,0,.1674805-.0375977.2998047-.1123047.3969727-.0751953.0966797-.1743164.1455078-.2978516.1455078-.0878906,0-.1806641-.0266113-.277832-.0795898-.0439453-.0175781-.0703125-.0527344-.0791016-.1057129-.1323242-.4411621-.3994141-.9172363-.800293-1.4287109-.4013672-.5114746-.831543-.9523926-1.2900391-1.322998-.0527344-.0527344-.0571289-.1010742-.0131836-.1455078Z"/>
              <path class="cls-4" d="m313.2592131,104.1064098c.0263672-.0441895.0639648-.0993652.1123047-.1652832.0483398-.0661621.0878906-.1166992.1191406-.1523438.0307617-.0351562.0639648-.0527344.0991211-.0527344.0795898,0,.2470703.1079102.5029297.3242188.2553711.2160645.4140625.3857422.4760742.5092773.0087891.0439453.0087891.0881348,0,.1323242-.0527344.097168-.1586914.1455078-.3173828.1455078h-2.1831055v.8862305c.7587891.2207031,1.3164062.5048828,1.6738281.8532715.3569336.3483887.5356445.6813965.5356445.9987793,0,.1411133-.0351562.2558594-.105957.34375-.0708008.0883789-.1630859.1323242-.277832.1323242-.0883789,0-.171875-.0217285-.2514648-.065918-.0175781-.0087891-.0483398-.0439453-.0922852-.105957-.097168-.3085938-.2866211-.6416016-.5688477-.9987793s-.5869141-.6679688-.9130859-.9326172v2.1032715c.0175781,1.09375.0532227,2.1079102.105957,3.0429688,0,.0439453-.0131836.0834961-.0395508.1188965-.0708008.0969238-.171875.1784668-.3041992.244873-.1323242.065918-.2646484.0991211-.3969727.0991211-.0708008,0-.1347656-.0263672-.1918945-.0795898-.0576172-.0527344-.0859375-.114502-.0859375-.1850586.0351562-.4851074.0639648-.9633789.0859375-1.4353027.0219727-.4716797.0375977-1.0693359.0463867-1.7924805v-1.7595215c-.5908203,1.2348633-1.3583984,2.2797852-2.3017578,3.1352539-.0532227.0529785-.1015625.048584-.1455078-.0131836l-.0131836-.0131836c-.0444336-.0439453-.0488281-.097168-.0131836-.1586914.4672852-.5996094.8774414-1.2788086,1.2299805-2.0373535s.6352539-1.552002.8466797-2.3811035h-.6879883c-.3701172.0087891-.7363281.0615234-1.0976562.1586914-.0708008.0175781-.1147461,0-.1323242-.0529785l-.2382971-.4631348c-.0087732-.0085449-.0131678-.0263672-.0131678-.0527344,0-.0439453.0307617-.0661621.0927734-.0661621.4848633.0441895,1.0229492.0749512,1.6137695.0925293h.8598633v-2.328125c0-.9614258-.0488281-1.8212891-.1455078-2.579834v-.0263672c0-.0705566.0395508-.0925293.1191406-.0661621.4321289.1323242.7319336.2380371.8994141.3173828.1674805.0795898.2514648.1501465.2514648.2119141,0,.0527344-.0395508.1013184-.1191406.1455078l-.2250977.1455078v4.1801758h.9526367l.2382812-.3571777Zm-4.2597656-3.4394531c.0087891-.0266113.0219727-.0441895.0395508-.0529785.0615234-.0175781.1103516-.0087891.1455078.0263672.4584961.3530273.7939453.7143555,1.0053711,1.0849609.2119141.3703613.3173828.7055664.3173828,1.0053711,0,.2028809-.0415039.3637695-.1254883.4829102-.0839844.1188965-.1875.1784668-.3110352.1784668-.0878906,0-.1850586-.0397949-.2910156-.1188965-.0351562-.0351562-.0527344-.0795898-.0527344-.1323242-.0175781-.3618164-.0947266-.7607422-.2314453-1.1972656s-.2978516-.8354492-.4829102-1.1972656c-.0175781-.0263672-.0219727-.0529785-.0131836-.0793457Zm4.2729492-.1984863l.6479492.2646484c.3530273.0881348.5292969.171875.5292969.2512207,0,.0441895-.0439453.0881348-.1323242.1323242l-.2114258.0925293c-.5117188.987793-.9482422,1.7509766-1.3095703,2.2885742-.0444336.0529785-.0927734.0664062-.1455078.0397949l-.0400391-.0131836c-.0527344-.0266113-.0708008-.0749512-.0527344-.1455078l.0791016-.2380371c.1147461-.3881836.2182617-.824707.3110352-1.3098145.0927734-.4848633.1567383-.9172363.1918945-1.2963867.0175781-.0705566.0615234-.0925293.1323242-.0661621Zm6.0585938,6.2177734c.0175781-.0441895.0463867-.112793.0864258-.2050781.0395508-.0927734.074707-.1630859.1054688-.2119141.0307617-.0483398.0639648-.0727539.0991211-.0727539.0532227,0,.1699219.0529785.3505859.1586914.1806641.105957.3486328.2207031.5029297.3442383s.2314453.2160645.2314453.277832c0,.0705566-.0244141.1320801-.0727539.1850586-.0483398.0527344-.1123047.0883789-.1918945.105957l-1.6401367.3701172v1.2041016c.0263672.996582.0571289,1.7460938.0922852,2.2487793,0,.0529785-.0131836.0969238-.0395508.1323242-.0620117.0881348-.1611328.1674805-.2978516.2380371s-.2709961.105957-.4033203.105957c-.0791016,0-.1455078-.0263672-.1982422-.0795898-.0532227-.0527344-.0795898-.114502-.0795898-.1850586.0532227-.7407227.0883789-1.4814453.105957-2.2224121v-1.2568359l-3.5849609.7937012h-.0400391c-.0351562,0-.065918-.0219727-.0922852-.065918l-.0664062-.1455078c-.0087891-.0087891-.0131836-.0266113-.0131836-.0532227,0-.0439453.0263672-.0703125.0795898-.0791016l3.7172852-.8466797v-5.2915039c0-.9614258-.0488281-1.8212891-.1455078-2.579834v-.0263672c0-.0705566.0395508-.0925293.1191406-.0661621.440918.1323242.7470703.2402344.9194336.3242188.171875.0837402.2578125.1564941.2578125.2182617,0,.0439453-.0351562.0881348-.105957.1323242l-.2246094.1455078v6.958252l.34375-.0793457.1850586-.4760742Zm-4.6035156-2.8178711c.0351562-.0439453.0839844-.0615234.1455078-.0529785.7319336.1586914,1.2744141.3967285,1.6274414.7143555.3525391.317627.5288086.6262207.5288086.9260254,0,.1411133-.0351562.2536621-.1054688.3374023-.0708008.0839844-.1635742.1254883-.277832.1254883-.0883789,0-.1679688-.0175781-.2382812-.0527344-.0356445-.0175781-.0664062-.0529785-.0927734-.105957-.1147461-.2910156-.3198242-.5996094-.6152344-.9257812-.2954102-.326416-.6108398-.6040039-.9458008-.8334961-.0615234-.0441895-.0708008-.0881348-.0263672-.1323242Zm.3173828-3.0957031c.0439453-.0439453.0883789-.0527344.1323242-.0263672.6967773.1850586,1.2148438.4389648,1.5546875.7607422.3393555.3217773.5092773.6328125.5092773.9326172,0,.1411133-.0356445.253418-.105957.3374023-.0708008.0837402-.1630859.1254883-.277832.1254883-.097168,0-.1806641-.0219727-.2514648-.0661621-.0439453-.017334-.0708008-.0529785-.0791016-.1057129-.097168-.2910156-.284668-.6040039-.5625-.9394531-.277832-.3349609-.5751953-.6303711-.8930664-.8862305-.0703125-.0351562-.0791016-.0793457-.0263672-.1323242Z"/>
              <path class="cls-4" d="m325.5883146,104.728236c.0268555-.0439453.0595703-.0991211.0996094-.1655273.0395508-.065918.074707-.1166992.1054688-.1518555s.0639648-.0532227.0991211-.0532227c.0708008,0,.2426758.1237793.5161133.3706055.2734375.2470703.4453125.4365234.5161133.5688477.0263672.0441895.0175781.0883789-.0263672.1323242-.1147461.097168-.300293.1586914-.5556641.1850586v3.5585938c.2910156.3530273.605957.6152344.9458008.7871094.3393555.171875.7382812.2866211,1.1972656.3439941.4584961.057373,1.0800781.0861816,1.8652344.0861816,2.2666016,0,3.8979492-.0175781,4.8945312-.0532227.0703125,0,.105957.03125.105957.0927734,0,.0527344-.03125.0925293-.0927734.1191406-.2646484.0791016-.4365234.2819824-.515625.6083984-.0092773.0615234-.0444336.0927734-.105957.0927734h-4.2729492c-.8115234,0-1.4643555-.0488281-1.9580078-.1455078-.4941406-.097168-.9174805-.2758789-1.2700195-.5358887s-.6791992-.6416016-.9790039-1.1442871c-.2558594.2910156-.5620117.6130371-.9194336.9658203-.3569336.3525391-.6635742.6347656-.9194336.8464355v.0661621c0,.0705566-.0175781.1323242-.0527344.1850586-.0263672.0351562-.0527344.048584-.0795898.0397949-.0263672-.0087891-.0483398-.0310059-.065918-.0661621l-.4892578-.9125977c-.0268555-.0617676-.0136719-.105957.0395508-.1323242.4672852-.220459,1.0981445-.5644531,1.8916016-1.0319824v-3.8894043h-.621582c-.3442383.0090332-.6835938.0620117-1.0185547.1589355h-.0400391c-.0351562,0-.065918-.0219727-.0922852-.0661621l-.2119141-.4628906-.0131836-.0532227c0-.0175781.0087891-.032959.0263672-.0461426s.0400391-.0153809.0664062-.0065918c.3876953.0441895.7626953.0708008,1.1245117.0793457h.5952148l.2114258-.3703613Zm-1.5341797-4.8022461c.0351562-.0351562.0834961-.0439453.1455078-.0263672.7670898.2646484,1.3334961.5908203,1.699707.9790039.3657227.3881836.5488281.7453613.5488281,1.0715332,0,.1586914-.0419922.2888184-.1254883.3903809-.0839844.1013184-.1875.1518555-.3110352.1518555-.097168,0-.1938477-.0307617-.2910156-.0925293-.0439453-.0175781-.0708008-.0529785-.0791016-.1057129-.105957-.3439941-.3110352-.7231445-.6152344-1.1376953s-.6240234-.7807617-.9589844-1.0981445c-.0532227-.0527344-.0576172-.0969238-.0131836-.1323242Zm9.7890625,4.5639648c.0263672-.0351562.0683594-.090332.1259766-.1652832.0571289-.0749512.1035156-.130127.1386719-.1652832s.0703125-.0529785.105957-.0529785c.0703125,0,.246582.1169434.5292969.3505859.2817383.2336426.4541016.4123535.515625.5358887.0087891.0439453.0087891.0881348,0,.1323242-.0527344.097168-.1542969.1455078-.3041992.1455078h-3.6777344c-.0791016.449707-.171875.8156738-.277832,1.0979004.8466797.2644043,1.5390625.5710449,2.0771484.9191895.5375977.3486328.9282227.6904297,1.1708984,1.0253906.2421875.3354492.3637695.6350098.3637695.8994141,0,.1413574-.0356445.2539062-.105957.3374023-.0708008.0839844-.1674805.1257324-.2910156.1257324-.0795898,0-.1586914-.017334-.2382812-.0529785-.0527344-.0085449-.0839844-.0395508-.0922852-.0925293-.2470703-.4672852-.6552734-.9724121-1.2241211-1.5146484s-1.152832-1.0119629-1.7524414-1.4089355c-.2646484.6616211-.6816406,1.2436523-1.2504883,1.7460938-.5688477.5029297-1.3515625.9482422-2.3481445,1.3364258-.0703125.0263672-.1186523.0131836-.1455078-.0397949l-.0263672-.0529785-.0263835-.0527344c0-.0351562.0219889-.0664062.0659343-.0927734,1.0405273-.5112305,1.8012695-1.1022949,2.2822266-1.7727051.4804688-.670166.7915039-1.4726562.9326172-2.4074707h-1.0581055c-.5649414.0087891-1.1953125.065918-1.8920898.171875h-.0395508c-.0351562,0-.065918-.0219727-.0927734-.0661621l-.237793-.4763184c-.0087891-.0087891-.0131836-.0263672-.0131836-.0527344,0-.0441895.0307617-.0664062.0922852-.0664062.4848633.0444336,1.0229492.0751953,1.6142578.0927734h1.6796875c.0444336-.449707.0751953-1.1640625.0927734-2.1430664h-1.0581055c-.5644531.0087891-1.1953125.065918-1.8920898.171875h-.0395508c-.0351562,0-.065918-.0219727-.0927734-.0661621l-.237793-.4763184c-.0087891-.0085449-.0131836-.0263672-.0131836-.0527344,0-.0439453.0307617-.0661621.0922852-.0661621.4848633.0441895,1.0229492.0749512,1.6142578.0925293h2.6455078c.0439453-.0703125.105957-.1982422.1855469-.3835449.1762695-.3615723.34375-.776123.5024414-1.2434082.1586914-.4675293.277832-.8908691.3574219-1.2700195.0175781-.0881348.065918-.1103516.1455078-.0664062.793457.3266602,1.1904297.5424805,1.1904297.6484375,0,.0351562-.0444336.065918-.1323242.0925293l-.2382812.0661621c-.5112305.8203125-1.0537109,1.5390625-1.6269531,2.15625h1.4682617l.2646484-.3703613c.0263672-.0351562.0683594-.090332.1254883-.1652832.0576172-.0749512.1040039-.130127.1391602-.1655273.0351562-.0351562.0703125-.0527344.105957-.0527344.0703125,0,.2446289.1147461.5224609.34375.277832.2294922.4472656.4057617.5092773.5292969.0087891.0441895.0087891.0883789,0,.1323242-.0527344.097168-.1586914.1455078-.3173828.1455078h-3.2807617c-.0356445.9790039-.0839844,1.6933594-.1455078,2.1430664h2.2485352l.2646484-.3837891Zm-5.3574219-4.9343262c.0439453-.0263672.0922852-.0263672.1455078,0,.5639648.2561035.9765625.5490723,1.2368164.8796387.2597656.3308105.3901367.6462402.3901367.9460449,0,.1765137-.0419922.3195801-.1254883.4299316-.0839844.1103516-.1918945.1652832-.3242188.1652832-.097168,0-.1982422-.0397949-.3041992-.1188965-.0356445-.0175781-.0620117-.0532227-.0795898-.105957-.0439453-.3261719-.1567383-.6791992-.3374023-1.0583496s-.3857422-.7097168-.6147461-.9921875c-.0356445-.0615234-.03125-.1101074.0131836-.1455078Z"/>
              <path class="cls-4" d="m340.2064787,104.728236c.0263672-.0351562.0615234-.090332.105957-.1655273.0439453-.074707.0810547-.1298828.1123047-.1652832.0307617-.0351562.0639648-.0529785.0991211-.0529785.0708008,0,.2426758.1257324.5161133.3769531.2729492.2514648.440918.4433594.5024414.5756836.0263672.0441895.0175781.0883789-.0263672.1323242-.1323242.097168-.3217773.1586914-.5688477.1850586v3.5585938c.2998047.3530273.6240234.6174316.972168.7939453.3486328.1762695.7587891.2929688,1.2304688.3503418s1.1088867.0861816,1.9116211.0861816c2.3193359,0,3.9951172-.0175781,5.0268555-.0532227.0708008,0,.105957.03125.105957.0927734,0,.0529785-.0307617.0927734-.0927734.1191406-.2734375.0615234-.4541016.2600098-.5419922.5952148-.0092773.0615234-.0444336.0927734-.105957.0927734h-4.3789062c-.8291016,0-1.4946289-.0488281-1.9975586-.1455078-.5024414-.097168-.9350586-.2736816-1.2963867-.5292969-.3618164-.2558594-.6923828-.6350098-.9921875-1.1376953-.2207031.2822266-.4916992.5952148-.8134766.939209-.3222656.3439941-.6020508.6306152-.840332.8598633.0087891.0175781.0131836.048584.0131836.0925293,0,.0529785-.0131836.097168-.0395508.1323242-.0527344.0529785-.1015625.0439453-.1455078-.0263672l-.5024414-.8598633c-.0092773-.0087891-.0131836-.0263672-.0131836-.0529785,0-.0351562.0175781-.0661621.0527344-.0925293.440918-.2202148.996582-.546875,1.6669922-.9790039v-3.9555664h-.5556641c-.2910156.0090332-.5776367.0620117-.8598633.1589355h-.0263672c-.0444336,0-.0795898-.0219727-.105957-.0661621l-.1987305-.4365234-.0131836-.0529785c0-.0617676.0307617-.0837402.0927734-.0661621.2202148.0354004.5424805.0617676.9658203.0793457h.5288086l.2119141-.3835449Zm-1.2304688-4.8154297c.0351562-.0351562.0839844-.0439453.1455078-.0263672.7412109.2646484,1.2832031.5908203,1.6274414.9790039.34375.3881836.515625.7539062.515625,1.0979004,0,.1677246-.0419922.3022461-.1254883.4035645-.0839844.1015625-.1875.1520996-.3110352.1520996-.097168,0-.1938477-.0310059-.2910156-.0925293-.0439453-.0175781-.0708008-.0532227-.0791016-.105957-.0883789-.3615723-.2714844-.7539062-.5493164-1.1772461s-.5839844-.7893066-.9194336-1.0981445c-.0527344-.0527344-.0571289-.0969238-.0131836-.1323242Zm4.2597656,7.3422852l1.9975586-.6220703c.0795898-.0175781.1235352,0,.1323242.0532227v.0395508c0,.0351562-.0175781.0661621-.0527344.0925293-1.1821289.652832-2.2182617,1.1906738-3.1088867,1.6140137-.0087891.105957-.0527344.1982422-.1323242.277832l-.0527344.0263672c-.0356445,0-.0664062-.0219727-.0927734-.0661621l-.5161133-.7805176c-.0175781-.0351562-.0219727-.0639648-.0131836-.0859375s.0307617-.0375977.0664062-.0463867l.5952148-.1586914.3969727-.105957v-4.5107422c0-.9614258-.0488281-1.8168945-.1455078-2.5666504v-.0263672c0-.0705566.0351562-.0925293.1054688-.0661621l.9921875.3703613c.4584961-.3879395.8818359-.8156738,1.2700195-1.2832031.0439453-.0529785.097168-.0529785.1586914,0,.4941406.432373.7412109.6967773.7412109.7937012,0,.0444336-.0400391.0661621-.1191406.0661621l-.2119141-.0131836c-.449707.2558594-1.1201172.5556641-2.0107422.8996582v6.0986328Zm5.4501953-6.7602539c.0268555-.0351562.0576172-.0812988.0927734-.1386719s.0664062-.0993652.0927734-.1259766c.0263672-.0263672.0571289-.0395508.0922852-.0395508.0795898,0,.2451172.1037598.4960938.3110352.2514648.2070312.4082031.3725586.4697266.4960938.0263672.0439453.0175781.0881348-.0263672.1323242-.1235352.0969238-.2822266.1630859-.4760742.1982422v5.7944336c0,.2468262-.0244141.4475098-.0727539.6018066-.0488281.154541-.1479492.2824707-.2978516.3835449-.1499023.1015625-.375.1699219-.6748047.2050781h-.0263672c-.0439453,0-.0751953-.0307617-.0927734-.0925293-.0175781-.2468262-.0791016-.4187012-.1850586-.5158691-.1586914-.1411133-.3881836-.2336426-.6879883-.277832-.0703125-.0175781-.1054688-.0529785-.1054688-.105957v-.0131836c0-.0615234.0263672-.0927734.0791016-.0927734l.5952148.0266113.4365234.0266113c.0883789,0,.1499023-.0175781.1855469-.0532227.0351562-.0349121.0527344-.1010742.0527344-.1982422v-5.8339844h-2.1826172v5.1989746c.0175781,1.1025391.0527344,2.1123047.105957,3.029541,0,.0527344-.0180664.097168-.0532227.1323242-.0708008.0791016-.1674805.1518555-.2910156.2182617-.1235352.065918-.2646484.0991211-.4233398.0991211-.0527344,0-.1079102-.0285645-.1655273-.0859375-.0571289-.057373-.0859375-.1166992-.0859375-.1787109.0351562-.5202637.0664062-1.0253906.0927734-1.5146484.0263672-.489502.0439453-1.1311035.0527344-1.9248047v-3.1352539c0-1.0405273-.0483398-1.8959961-.1455078-2.5664062v-.0263672c0-.0617676.0351562-.0795898.105957-.0532227l.9658203.4233398h1.9047852l.171875-.3041992Z"/>
              <path class="cls-4" d="m353.3690764,111.7262829c.0268555-.0351562.2451172-.2822266.6547852-.7407227.4101562-.4584961.7958984-1.1992188,1.1577148-2.2226562.3613281-1.0229492.5424805-2.1032715.5424805-3.2409668s-.1542969-2.1408691-.4628906-3.0095215c-.309082-.8686523-.6020508-1.4992676-.8798828-1.8918457-.277832-.392334-.6152344-.8269043-1.012207-1.3029785-.0615234-.0795898-.0922852-.1367188-.0922852-.171875,0-.0266113.0107422-.0483398.0327148-.0664062.0219727-.0175781.0463867-.0263672.0727539-.0263672.0444336,0,.0927734.0219727.1455078.0661621.3085938.2294922.6835938.588623,1.1245117,1.078125s.8642578,1.1950684,1.2700195,2.1166992.6088867,1.9909668.6088867,3.2080078-.203125,2.286377-.6088867,3.2080078-.8291016,1.6271973-1.2700195,2.1164551c-.440918.4897461-.815918.848877-1.1245117,1.0783691-.0527344.0439453-.1010742.0661621-.1455078.0661621-.0175781,0-.0395508-.0068359-.065918-.0200195s-.0395508-.0375977-.0395508-.0727539.0307617-.0925293.0922852-.171875Z"/>
            </g>
          </g>
        </g>
      </g>
    </g>
  </g>
</svg>