<?xml version="1.0" encoding="UTF-8"?>
<svg id="_レイヤー_2" data-name="レイヤー 2" xmlns="http://www.w3.org/2000/svg" viewBox="0 0 292.690918 16.4768724">
  <defs>
    <style>
      .cls-1 {
        fill: #e81c24;
        stroke-width: 0px;
      }
    </style>
  </defs>
  <g id="_レイヤー_1-2" data-name="レイヤー 1">
    <g>
      <path class="cls-1" d="m14.4960938,7.9252319c.0976562.0732422.1464844.177002.1464844.3111572,0,.2562256-.0976562.40271-.2929688.4393311-.0854492.0245361-.3110352.0611572-.6767578.1097412l-2.1601562,1.7205811c-.0976562.0732422-.1831055.1097412-.2563477.1097412-.1708984,0-.237793-.1280518-.2011719-.3842773l.2929688-1.7753906H2.3613281c.1464844.5490723.1337891,1.0861816-.0366211,1.6105957-.2197266.6835938-.6835938,1.0129395-1.3911133.9884033-.2685547-.0119629-.4912109-.1190186-.6679688-.3203125-.1772461-.2012939-.265625-.4361572-.265625-.7047119,0-.2072754.0551758-.3842773.1650391-.5307617.5488281-.7075195.8901367-1.4213867,1.0249023-2.1414795.0366211-.1829834.1464844-.2745361.3291016-.2745361.1220703,0,.2382812.0794678.3481445.237915.0732422.1343994.1464844.2745361.2197266.4210205h9.2246094l.9702148-.8236084c.1464844-.1218262.2988281-.1831055.4575195-.1831055.121582,0,.237793.0429688.3476562.1281738l1.4091797,1.0615234Zm-8.3642578,4.1732178c-.0488281,0-.0795898.0245361-.0917969.0731201-.6953125,2.0622559-2.2939453,3.4165039-4.7954102,4.0633545-.2197266.0609131-.3295898.0302734-.3295898-.0915527,0-.0611572.0429688-.1343994.128418-.2196045,1.3544922-1.3664551,2.2573242-3.0383301,2.7089844-5.0151367.0483398-.1949463.1645508-.262207.3476562-.2012939l1.9951172.40271c.3046875.0611572.4575195.2319336.4575195.5124512,0,.2928467-.140625.4515381-.4208984.4759521ZM13.5629883,3.2213745c0,.2196045-.140625.3599854-.4213867.4208984h-4.5756836l-.0180664,1.8303223h1.0429688l.8789062-.9334717c.097168-.1097412.2070312-.1646729.3291016-.1646729s.2382812.0549316.3481445.1646729l.9516602.9334717c.1337891.1343994.2011719.2562256.2011719.3660889,0,.2076416-.1401367.3417969-.4208984.40271H3.2397461c-.2075195-.0732422-.3110352-.201416-.3110352-.3843994,0-.2562256.121582-.3843994.3662109-.3843994h2.5439453v-1.8303223H1.5556641c-.2075195-.0731201-.3110352-.2132568-.3110352-.4208984,0-.2316895.1220703-.3477783.3662109-.3477783h4.2280273V.7504272c0-.1950684.0791016-.2865601.237793-.2745972l2.3613281.1281738c.3168945.0122681.4697266.1953125.4575195.5490723-.012207.1830444-.0976562.3174438-.2563477.4026489-.0488281.0245972-.0732422.0612183-.0732422.1098633v1.2080078h1.9951172l.9702148-1.0982056c.1098633-.1218262.2197266-.1830444.3291016-.1830444.0976562,0,.2133789.0612183.3481445.1830444l1.152832,1.0982056c.1342773.1220703.2016602.237915.2016602.3477783Zm.1826172,11.3845215c-.012207.3907471-.1953125.7078857-.5488281.9517822-.3051758.2196045-.6713867.3415527-1.0981445.3660889-1.4887695.0975342-2.7519531.1035156-3.7890625.0183105-.6220703-.0489502-.9331055-.414917-.9331055-1.0981445l-.0185547-4.1732178c0-.1097412.0302734-.1921387.0917969-.2470703.0605469-.0549316.1459961-.0823975.2558594-.0823975l1.7387695.0732422c.4638672.0246582.7080078.1953125.7324219.5124512.0117188.2319336-.1040039.3967285-.3476562.4942627-.0366211.0245361-.0551758.0671387-.0551758.1280518v1.68396c0,.2319336.0854492.3540039.2563477.3660889.4145508.0366211.7929688.0305176,1.1347656-.0183105.1831055-.024292.3662109-.1831055.5493164-.4759521l.7866211-1.6472168c.1098633-.2197266.2441406-.3111572.402832-.2745361.1586914.036499.2197266.177002.1831055.4208984l-.2011719,1.1713867c-.0615234.3417969.0239258.5980225.2558594.7687988.4150391.2319336.6162109.5856934.6040039,1.0615234Z"/>
      <path class="cls-1" d="m34.3481445,15.5027466c0,.2440186-.1342773.3660889-.4023438.3660889h-13.1967773c-.2685547,0-.402832-.1343994-.402832-.4025879,0-.2683105.1342773-.40271.402832-.40271h4.9599609v-4.3562012h-3.715332c-.2319336,0-.3476562-.1158447-.3476562-.3477783,0-.2438965.1157227-.3660889.3476562-.3660889h3.715332v-4.0998535h-4.6303711c-.2685547,0-.402832-.1341553-.402832-.40271,0-.2681885.1342773-.4025879.402832-.4025879h9.3896484l1.2626953-1.2629395c.0976562-.0975342.2255859-.1464844.3842773-.1464844.1464844,0,.2866211.0489502.4208984.1464844l1.2631836,1.28125c.121582.1829834.1831055.3233643.1831055.4208984,0,.2442627-.1220703.3660889-.3662109.3660889h-4.9785156v4.0998535h1.5922852l1.1166992-1.1164551c.1098633-.1097412.2255859-.1646729.3476562-.1646729.1098633,0,.2197266.0549316.3295898.1646729l1.1162109,1.1347656c.1586914.1588135.2382812.2808838.2382812.3660889,0,.2197266-.1162109.3294678-.3481445.3294678h-4.3925781v4.3562012h2.1782227l1.2446289-1.2446289c.1098633-.1098633.237793-.1647949.3842773-.1647949s.2744141.0549316.3842773.1647949l1.2631836,1.2629395c.1704102.1710205.2558594.3111572.2558594.4208984Zm-5.3076172-12.9403076c.0117188.3417358-.0795898.6286011-.2749023.8602295-.2075195.2685547-.4755859.3967285-.8051758.3843994-.2807617,0-.5917969-.1584473-.9335938-.4759521-.2192383-.1950073-1.0063477-.7807007-2.3608398-1.7570801-.2319336-.1707153-.3476562-.3048706-.3476562-.4026489,0-.3048706.5610352-.4575806,1.6835938-.4575806.7563477,0,1.3603516.1098022,1.8120117.3294678.8056641.390625,1.2143555.8968506,1.2265625,1.519165Z"/>
      <path class="cls-1" d="m46.9594727,8.4378052c-.0610352.3050537-.8359375.793335-2.324707,1.4642334l-.0180664,4.3012695c0,.1953125-.0732422.3691406-.2197266.5216064-.1464844.15271-.3173828.2351074-.512207.2470703l-.8789062.0549316c-.1342773.0123291-.2470703-.024292-.3383789-.1098633-.0917969-.0852051-.137207-.1949463-.137207-.3294678l.0180664-3.7886963c-.2441406.0977783-.7260742.2745361-1.4458008.5307617-.0615234.0855713-.1894531.1953125-.3842773.3294678-.1586914.0245361-.2749023-.0609131-.3481445-.2562256l-.640625-1.6107178c-.0366211-.1584473.0244141-.2498779.1831055-.2745361,1.1103516-.1707764,2.0009766-.3171387,2.6723633-.4393311v-2.8552246h-1.2260742c-.4150391.7320557-.9155273,1.4156494-1.5009766,2.0499268-.0732422.0732422-.140625.0977783-.2011719.0732422-.0615234-.0366211-.0859375-.0975342-.0732422-.1831055.3046875-1.5860596.4692383-3.3005371.4941406-5.1431274,0-.2196655.1098633-.3231812.3291016-.3111572l1.6474609.1098022c.2929688.0245972.4331055.1464233.4208984.3660889-.012207.1343994-.0913086.2442627-.237793.3294678-.0610352.0366211-.0976562.0794678-.1098633.1280518-.0976562.793335-.237793,1.4156494-.4208984,1.8669434h.8969727l.0546875-3.3860474c0-.1584473.0791016-.2316895.237793-.2196655l1.684082.1281128c.3413086.0245972.5063477.1953735.4941406.5125122,0,.1221313-.1098633.2745361-.3295898.4575806-.0244141.0245972-.0366211.0548706-.0366211.0914917l-.0366211,2.3977051c.0732422,0,.1586914-.0059814.2563477-.0183105l.5493164-.5490723c.097168-.0975342.2011719-.1463623.3110352-.1463623s.2133789.0488281.3110352.1463623l.6040039.5856934c.1464844.1464844.2197266.2685547.2197266.3660889,0,.2319336-.1220703.3477783-.3662109.3477783h-1.9033203v2.4343262l1.9765625-.4576416c.0976562-.024292.1831055-.0151367.2563477.0274658.0732422.0429688.0976562.1130371.0732422.2105713Zm4.8686523-.1647949c-.1098633.2319336-.2744141.3175049-.4941406.2562256-.0610352-.024292-.1040039-.0119629-.1279297.0366211-.4882812.5490723-1.1713867,1.0373535-2.050293,1.4642334-.878418.4273682-1.6962891.6712646-2.4526367.7321777-.1464844.0123291-.2319336-.024292-.2563477-.1098633-.012207-.0731201.012207-.1340332.0732422-.1829834,1.3178711-1.1225586,2.4101562-2.3122559,3.2763672-3.5690918.1098633-.1584473.2319336-.1831055.3662109-.0732422l1.519043.9151611c.1953125.1586914.2441406.3356934.1464844.5307617Zm.8237305,3.001709c-.1098633.2319336-.2807617.3175049-.5126953.2562256-.0488281-.024292-.0913086-.0119629-.1279297.0366211-.4882812.5491943-1.1748047,1.0373535-2.059082,1.4643555-.8847656.4272461-1.6933594.6711426-2.425293.7320557-.1586914.0123291-.2441406-.024292-.2563477-.1098633-.012207-.0731201.012207-.1340332.0732422-.1829834.8422852-.7198486,1.4462891-1.2629395,1.8120117-1.6290283.6591797-.6588135,1.1650391-1.2872314,1.519043-1.8851318.0610352-.1098633.1342773-.1647949.2197266-.1647949.0610352,0,.128418.0306396.2016602.0915527l1.4091797.8602295c.1948242.1586914.2441406.3356934.1464844.5307617Zm3.6240234-6.2596436l-.3842773.3294678c.0732422,3.6363525-.0185547,6.418335-.2749023,8.3461914-.1826172,1.3668213-.8540039,2.1169434-2.0131836,2.2513428-.6347656.0732422-.9824219-.2012939-1.043457-.8236084-.0488281-.5245361-.3110352-.842041-.7866211-.9517822l-.402832-.0915527c-.2197266-.048584-.3295898-.1524658-.3295898-.3111572,0-.1829834.128418-.2745361.3842773-.2745361h1.2446289c.3295898,0,.5249023-.1464844.5859375-.4393311.1098633-.5124512.1889648-1.7264404.237793-3.642334.0488281-1.8056641.0551758-3.2149658.0185547-4.2280273h-3.605957c-.5854492.8908691-1.2993164,1.5924072-2.1416016,2.1048584-.0854492.0489502-.1586914.0549316-.2192383.0183105-.0859375-.048584-.1098633-.1218262-.0732422-.2196045.6342773-1.9155273,1.0551758-3.868042,1.2626953-5.8569946.0244141-.2196655.1464844-.3048706.3662109-.2562866l2.2143555.43927c.2807617.0612183.4272461.201355.4394531.4210205.012207.2684937-.1162109.4209595-.3842773.4575806-.0488281,0-.0854492.0245972-.1098633.0731812-.1831055.4881592-.4882812,1.1897583-.9150391,2.1049194h2.8916016l1.0981445-1.0250244c.1464844-.1341553.2929688-.2012939.4394531-.2012939.1220703,0,.237793.0488281.3476562.1463623l1.0981445.9700928c.1220703.1098633.1831055.2319336.1831055.3660889,0,.1220703-.0429688.2196045-.1279297.2928467Z"/>
      <path class="cls-1" d="m66.1694336,4.6306763c-.0732422,0-.1279297.0366211-.1645508.1098633-1.2080078,2.2329102-2.8618164,3.7644043-4.9604492,4.5941162-.2075195.0854492-.3110352.0183105-.3110352-.201416,0-.048584.0185547-.0975342.0551758-.1463623,1.3540039-1.769165,2.4160156-3.7338867,3.1845703-5.8936768.0488281-.1464233.1523438-.1830444.3110352-.1098022l2.0864258.7321167c.1953125.0977783.2929688.2319336.2929688.40271,0,.3416748-.1645508.5124512-.4941406.5124512Zm-.0180664,3.8985596c0,.1588135-.0673828.2808838-.2016602.3660889-.0732422.0489502-.1098633.1098633-.1098633.1829834l.0917969,4.3562012c0,.2685547-.0888672.503418-.265625.7047119s-.3994141.3143311-.6679688.338623l-1.0068359.1097412c-.3291016.0366211-.4941406-.1097412-.4941406-.439209l-.0913086-5.9486084c0-.0609131.0244141-.1157227.0732422-.1646729.0483398-.048584.1035156-.0732422.1645508-.0732422l2.0317383.0732422c.3295898.0123291.487793.177002.4760742.4941406Zm12.2446289,1.5374756c0,.2197266-.1162109.3294678-.3476562.3294678h-3.6425781l.0366211,4.7770996c0,.2073975-.0883789.3903809-.2651367.5491943-.1772461.1584473-.3754883.2438965-.5947266.2562256l-1.1899414.0732422c-.3662109.024292-.5488281-.1464844-.5488281-.5125732l-.0185547-5.1431885h-4.2827148c-.2319336,0-.3481445-.1158447-.3481445-.3477783,0-.2438965.1162109-.3659668.3481445-.3659668h4.2827148l-.0180664-3.7888184h-1.9770508c-.6469727,1.1104736-1.3911133,1.9584961-2.2329102,2.5441895-.0854492.0611572-.1708984.0671387-.2563477.0183105-.0854492-.0487061-.1098633-.1281738-.0732422-.2380371.6225586-2.208374.9882812-4.2583008,1.0981445-6.1498413.012207-.2196655.128418-.3111572.3481445-.2745361l2.2875977.3477173c.2685547.0366211.4086914.1893311.4208984.4576416.0244141.2808228-.0976562.4455566-.3657227.4941406-.0615234,0-.0981445.0245972-.1098633.0732422-.1098633.3782959-.3476562,1.0495605-.7138672,2.0133057h1.5742188V1.0249634c0-.1830444.0913086-.2682495.2744141-.2562256l2.1230469.1464233c.3779297.0245972.5551758.2196045.5307617.5856934-.012207.1830444-.1162109.3660278-.3110352.5490723-.0366211.0366211-.0551758.0855103-.0551758.1464233l.0185547,2.9833984h.7685547l1.1166992-1.1164551c.1098633-.1098633.2197266-.1647949.3295898-.1647949.121582,0,.237793.0549316.3476562.1647949l1.1347656,1.1164551c.1582031.1588135.237793.2868652.237793.3843994,0,.2196045-.1220703.3294678-.3662109.3294678h-3.5688477l.0180664,3.7888184h.8422852l1.1162109-1.1165771c.1098633-.1097412.2197266-.1646729.3295898-.1646729.1220703,0,.237793.0549316.3476562.1646729l1.1166992,1.1165771c.1582031.1586914.237793.2867432.237793.3842773Z"/>
      <path class="cls-1" d="m88.2294922,10.0667114c.0732422.0855713.0424805.2562256-.0913086.5125732l-1.0615234,1.9766846c-.1831055.3417969-.2260742.6286621-.128418.8602295.0488281.1221924.0976562.2808838.1464844.4759521.0366211.3050537-.0429688.5736084-.237793.8052979-.1953125.2319336-.4458008.3601074-.7504883.3843994-.9643555.0732422-1.5620117-.7015381-1.7939453-2.324585-.0854492-.5976562-.1279297-1.4885254-.1279297-2.6722412,0-1.9521484.1157227-4.4414062.3476562-7.4677124.012207-.1583862.0917969-.2316284.237793-.2196045l1.8120117.1281128c.3051758.0245972.4638672.15271.4760742.3843384,0,.2076416-.0795898.3417358-.237793.402771-.0488281.0245361-.0732422.0488281-.0732422.0731201-.2441406,3.4044189-.3662109,5.539917-.3662109,6.4061279,0,.7321777-.0063477,1.0129395-.0180664.8419189.0239258.4516602.1035156.6772461.237793.6772461.0610352,0,.121582-.0366211.1831055-.1097412l.878418-.9700928c.1464844-.1584473.2744141-.2380371.3842773-.2380371.0732422,0,.1342773.0246582.1831055.0732422Zm8.6025391-4.7954102c-.0610352.2442627-.2563477.3723145-.5854492.3843994l-.6040039.0183105-2.5810547,1.9400635c-.1342773.0979004-.25.1464844-.3476562.1464844-.1953125,0-.2929688-.1035156-.2929688-.3111572,0-.0609131.012207-.1218262.0366211-.1831055l.7504883-1.8851318h-3.440918c-.2441406,0-.3662109-.1218262-.3662109-.3660889,0-.2562256.1220703-.3843994.3662109-.3843994h3.4775391l1.0615234-1.079834c.0976562-.0975342.2197266-.1464844.3662109-.1464844s.2680664.0489502.3662109.1464844l1.4638672,1.0981445c.2685547.2076416.378418.414917.3295898.6223145Zm-.3476562,7.2480469c.0610352.1953125.0913086.3724365.0913086.5307617,0,.6223145-.3354492,1.0130615-1.0063477,1.1715088-.4638672.1097412-.9643555.1646729-1.5009766.1646729-2.5869141,0-3.9291992-1.067627-4.0268555-3.2030029-.0244141-.40271.0551758-.6343994.237793-.6955566.1098633-.024292.2016602.0306396.2749023.1646729.4023438.7078857.9941406,1.1044922,1.7753906,1.1896973.890625.0979004,1.7324219.0549316,2.5258789-.1280518.1582031-.0366211.3232422-.0549316.4941406-.0549316.5732422,0,.9516602.2868652,1.1347656.8602295Z"/>
      <path class="cls-1" d="m116.909668,8.6207886c0,1.8669434-.9399414,3.2459717-2.8188477,4.1364746-1.3300781.6346436-3.0810547,1.0007324-5.2529297,1.0982666-.2197266.0123291-.3417969-.0609131-.3662109-.2196045-.0244141-.1464844.0551758-.25.2382812-.3111572,1.6225586-.5368652,2.8427734-1.0736084,3.6606445-1.6107178,1.3544922-.890625,2.03125-1.946167,2.03125-3.1665039,0-.6589355-.1523438-1.1956787-.4575195-1.6105957-.3291016-.463623-.8115234-.7198486-1.4458008-.7687988-.78125-.0609131-1.9584961.1586914-3.5327148.6589355l-4.4291992,1.4093018c-.0488281.0123291-.0732422.0489502-.0732422.1098633-.0244141.1586914-.1220703.2562256-.2929688.2928467-.2319336.0489502-.3842773-.0668945-.4575195-.3477783l-.5488281-1.9401855c-.0488281-.1706543.0239258-.2805176.2197266-.3293457,2.684082-.6343994,4.2885742-1.0067139,4.8134766-1.1165771,2.0375977-.4146729,3.6484375-.5916748,4.8320312-.5307617,1.2568359.0611572,2.2177734.4666748,2.8828125,1.2171631.6650391.7503662.9975586,1.7602539.9975586,3.0291748Z"/>
      <path class="cls-1" d="m135.3017578,7.4677124c0,.2319336-.1220703.3477783-.3657227.3477783h-2.9467773c.1948242.5247803.4208984,1.1776123.6772461,1.958374.0483398.2319336.0732422.4576416.0732422.6772461,0,.4272461-.1162109.8208008-.3481445,1.180542-.2319336.3601074-.5488281.5888672-.9516602.6864014-.2075195.0488281-.378418.0732422-.512207.0732422-.4150391,0-.7387695-.2866211-.9702148-.8603516-.0981445-.2438965-.3969727-.4329834-.8969727-.5673828-.3662109-.0975342-.7382812-.1463623-1.1166992-.1463623-.4511719,0-.8295898.0977783-1.1347656.2928467-.3657227.2319336-.5307617.5673828-.4941406,1.0067139.0976562,1.0495605,1.0556641,1.5556641,2.8735352,1.519165.890625-.012085,1.3789062.3659668,1.4643555,1.1347656.0366211.390625-.0180664.7198486-.1645508.9884033-.1708984.3171387-.4458008.4818115-.8237305.4941406-1.2568359.048584-2.3916016-.2076416-3.4042969-.7687988-1.1835938-.6466064-1.7939453-1.5617676-1.8305664-2.7454834-.0244141-.9516602.3354492-1.6838379,1.0800781-2.1962891.6464844-.4512939,1.4643555-.6832275,2.4526367-.6955566.5126953-.0119629,1.0673828.0245361,1.6655273.1098633.2075195.0245361.3540039.0245361.4394531,0,.1098633-.0366211.1582031-.1341553.1464844-.2928467-.0126953-.0366211-.2197266-.6467285-.6225586-1.8303223l-4.7587891.036499c-.2685547,0-.402832-.1280518-.402832-.3842773,0-.2440186.1220703-.3660889.3662109-.3660889l4.5390625-.0366211-.8417969-2.3427734-4.5756836.0731201c-.2319336,0-.3476562-.1218262-.3476562-.3659668,0-.2562256.1279297-.3843994.3842773-.3843994l4.2827148-.0549316c-.2929688-.8539429-.5615234-1.6958618-.8051758-2.5258179-.0488281-.1707153.0180664-.2745361.2011719-.3111572l2.0683594-.43927c.2680664-.0609131.4267578.0429077.4760742.3111572.0239258.1586914-.0249023.2808228-.1464844.3660278-.0488281.0366211-.0673828.0978394-.0551758.1830444.0976562.414978.3417969,1.2142944.7324219,2.3977051l.8964844-.0366211,1.1533203-1.1713867c.0854492-.0852051.2075195-.1281128.3662109-.1281128.1464844,0,.262207.0429077.3476562.1281128l1.1713867,1.1896973c.1708984.1710205.2563477.2991943.2563477.3843994,0,.2319336-.1347656.3477783-.402832.3477783l-3.5327148.0366211.7871094,2.3427734h.2563477l1.1713867-1.1896973c.1220703-.1218262.237793-.1829834.3476562-.1829834s.2255859.0611572.3481445.1829834l1.1894531,1.1713867c.1586914.1586914.237793.2928467.237793.40271Z"/>
      <path class="cls-1" d="m146.3188477,4.4476929c-.0859375,0-.1464844.0305176-.1831055.0914307-1.2446289,2.2696533-2.8984375,3.8071289-4.9604492,4.6124268-.1953125.0732422-.2924805,0-.2924805-.2196045,0-.048584.0117188-.0915527.0366211-.1281738.8168945-1.0491943,1.4882812-2.1351318,2.0131836-3.2579346.3662109-.7807617.7255859-1.6776123,1.0795898-2.6905518.0488281-.1464233.152832-.1830444.3115234-.1098022l2.1962891.7870483c.1948242.0731201.2929688.1953125.2929688.3659668,0,.3660889-.1650391.5491943-.4941406.5491943Zm-.1464844,4.0084229c0,.1586914-.0673828.2867432-.2016602.3842773-.0610352.0489502-.0913086.1098633-.0913086.1831055l.0732422,4.5574951c.0117188.6223145-.2993164.9700928-.9335938,1.0432129l-1.0068359.1098633c-.3173828.0366211-.4755859-.1098633-.4755859-.4393311l-.1098633-6.1497803c0-.0609131.0244141-.1158447.0732422-.1647949.0483398-.048584.1035156-.0732422.1645508-.0732422l2.0317383.0549316c.3173828.0123291.4760742.177002.4760742.4942627Zm11.9516602-3.44104c.0854492.0977783.128418.1893311.128418.2745361,0,.1098633-.0488281.213623-.1464844.3111572l-.3110352.3111572-.1464844,4.282959c-.0249023.5856934-.2319336.8968506-.6225586.9334717l-1.3725586.1280518c-.1098633.0123291-.2138672-.0274658-.3110352-.1188965-.0981445-.0915527-.1464844-.1922607-.1464844-.302002l.0180664-.40271h-1.2446289v4.5025635c0,.2562256-.0883789.4787598-.2651367.6680908-.1772461.1890869-.3935547.2957764-.6499023.3203125l-1.1713867.0915527c-.1586914.0119629-.2958984-.0366211-.4116211-.1464844-.1162109-.1097412-.1738281-.2442627-.1738281-.4025879v-5.0334473h-1.3544922c-.0366211.3660889-.1894531.5673828-.4580078.6040039l-1.6103516.2196045c-.2807617.0366211-.4208984-.0914307-.4208984-.3842773l-.1098633-6.4976807c0-.0975342.0395508-.1707764.1186523-.2196045.0795898-.0487061.1679688-.0549316.265625-.0183105l2.1230469.7503662h1.4462891V1.2628784c0-.2073364.1035156-.3048706.3110352-.2928467l2.159668.1281128c.402832.0245972.5976562.2319336.5854492.6223145-.012207.2319336-.1220703.40271-.3291016.5125122-.0366211.0245972-.0551758.0671997-.0551758.1281128v2.5258179h1.28125l.9882812-.8602295c.0976562-.0852051.2133789-.1281738.3481445-.1281738.1464844,0,.262207.0429688.3476562.1281738l1.1894531.9884033Zm-6.8266602.7320557h-1.4277344l.0732422,3.8071289h1.3544922v-3.8071289Zm3.9897461.0549316h-1.3178711v3.8071289h1.2446289l.0732422-3.8071289Z"/>
      <path class="cls-1" d="m179.1079102,5.8569946c-.378418.5737305-.5981445.9031982-.6591797.9884033-.2685547.4758301-.4331055.8359375-.4941406,1.079834-.0976562.4150391-.3295898.6223145-.6953125.6223145-.1220703,0-.2382812-.0183105-.3481445-.0549316-1.4399414-.463501-2.6538086-1.1101074-3.6420898-1.9400635-.6958008-.5856934-1.434082-1.4337158-2.2148438-2.5441895-1.7329102,2.2818604-4.2094727,3.7218018-7.4311523,4.3195801-.1708984.0366211-.3051758.0245361-.4023438-.0366211-.0366211-.0366211-.0551758-.0852051-.0551758-.1463623,0-.0732422.0185547-.1218262.0551758-.1464844,1.78125-1.3909912,3.1665039-2.7208252,4.1547852-3.9901123.7563477-.9760742,1.402832-2.1048584,1.9399414-3.3861084.0732422-.1829834.2255859-.2438965.4575195-.1829834l2.3613281.9151611c.3901367.1464233.5488281.3660278.4755859.6588745-.0610352.2442627-.2133789.3723755-.4575195.3843994-.0854492,0-.1464844.0429077-.1831055.1281128-.0732422.1710205-.2319336.4515991-.4755859.8419189,1.2197266.7445068,2.3974609,1.256958,3.5322266,1.5374756.6708984.1710205,1.9521484.354126,3.84375.5490723.2075195.0246582.3115234.0855713.3115234.1831055,0,.0732422-.0249023.1463623-.0732422.2196045Zm-9.2983398,4.0450439c.0366211.1829834-.0488281.3294678-.2563477.439209-.0732422.0366211-.1157227.1038818-.1279297.201416-.0366211,1.4887695-.4819336,2.7943115-1.3359375,3.9168701-.3295898.439209-.9155273.854248-1.7573242,1.2446289-.7202148.3414307-1.3242188.5367432-1.8120117.5856934-.1831055.024292-.2744141-.0429688-.2744141-.201416,0-.0611572.0424805-.1343994.1279297-.2196045,1.0371094-1.0126953,1.7084961-1.9949951,2.0136719-2.9467773.2070312-.6708984.3168945-1.7387695.3291016-3.203125,0-.2196045.0732422-.3354492.2197266-.3476562l2.3979492.1463623c.2680664.0123291.4267578.1403809.4755859.3843994Zm5.6010742.2562256c0,.1710205-.0795898.3051758-.2382812.40271-.0732422.0366211-.1098633.0977783-.1098633.1829834v4.282959c0,.5856934-.3110352.9088135-.9331055.9700928l-1.2998047.1280518c-.1586914.012085-.2988281-.0336914-.4208984-.137207-.1220703-.1038818-.1831055-.2351074-.1831055-.3935547l.0185547-5.9118652c0-.1831055.0913086-.2683105.2744141-.2563477l2.3613281.1647949c.3657227.0245361.5424805.213623.5307617.5673828Z"/>
      <path class="cls-1" d="m198.5830078,11.1283569c0,.2196045-.1220703.3294678-.3662109.3294678h-5.527832v1.8669434c0,1.671875-.75,2.6049805-2.2509766,2.800293-.3173828.0366211-.5556641-.0305176-.7138672-.2012939-.0854492-.0854492-.2011719-.3294678-.3476562-.7321777-.1464844-.3659668-.2807617-.5976562-.402832-.6954346-.1708984-.1464844-.4760742-.25-.9150391-.3111572l-.3662109-.0549316c-.2441406,0-.3662109-.1035156-.3662109-.3111572,0-.1950684.1401367-.2928467.4213867-.2928467h1.6835938c.487793,0,.7324219-.2683105.7324219-.8052979v-1.2629395h-5.7290039c-.2441406,0-.3662109-.1158447-.3662109-.3477783,0-.2440186.1220703-.3660889.3662109-.3660889h5.7290039v-2.3244629h-5.2714844c-.2441406,0-.3662109-.1218262-.3662109-.3660889,0-.2316895.1220703-.3477783.3662109-.3477783h5.2714844v-2.3427734c0-.1831055.0913086-.2683105.2744141-.2562256l1.9765625.1280518c.3779297.0246582.5610352.213623.5493164.5673828,0,.0855713-.0429688.1861572-.128418.302002-.0854492.1160889-.1279297.1922607-.1279297.2288818v1.3726807h1.9765625l1.1166992-1.1164551c.1098633-.1098633.2197266-.1647949.3295898-.1647949.121582,0,.237793.0549316.3476562.1647949l1.1162109,1.1164551c.1586914.1586914.2382812.2868652.2382812.3843994,0,.2196045-.1220703.3294678-.3662109.3294678h-4.7587891l-.0185547,2.3244629h2.7275391l1.1162109-1.1164551c.1098633-.1098633.2197266-.1647949.3295898-.1647949.1220703,0,.237793.0549316.3476562.1647949l1.1347656,1.1164551c.1586914.1586914.2382812.2868652.2382812.3843994Zm-4.1181641-7.9619141c-.1831055.1953125-.4150391.2196045-.6958008.0732422-.0488281-.0244141-.0976562-.0244141-.1464844,0-2.4038086,1.2080078-4.996582,1.7753906-7.7788086,1.7021484-.1464844,0-.2197266-.0852051-.2197266-.2562256,0-.0975342.0429688-.1647949.128418-.2012939,2.7939453-1.3787842,4.972168-2.6477051,6.5341797-3.8071289.1948242-.1464233.3598633-.1401367.4941406.0183105l1.6474609,1.8120117c.2070312.2319336.2192383.4515991.0366211.6589355Z"/>
      <path class="cls-1" d="m213.1303711,10.963562c0,.2319336-.1220703.3477783-.3657227.3477783h-1.8120117c-.0366211.7078857-.140625,1.3178711-.3115234,1.8303223.0244141,0,.1708984.0306396.4394531.0915527.7563477.1586914,1.1347656.5856934,1.1347656,1.28125,0,.5979004-.2075195.8968506-.6220703.8968506-.1098633,0-.6772461-.2745361-1.7026367-.8237305-.7197266.7687988-1.9829102,1.3481445-3.7885742,1.7388916-.2075195.048584-.3110352,0-.3110352-.1464844,0-.0854492.0546875-.1646729.1645508-.237915,1.1591797-.7321777,1.9404297-1.4154053,2.3427734-2.0499268-.1098633-.0487061-.3354492-.1341553-.6772461-.2562256v.1829834c0,.2685547-.1523438.4089355-.4575195.4210205l-1.4277344.0548096c-.0488281,0-.0947266-.0394287-.137207-.1188965-.0429688-.0792236-.0639648-.1433105-.0639648-.1922607l.1645508-2.6539307-1.519043-.0183105c-.2441406,0-.3662109-.1218262-.3662109-.3660889,0-.2438965.1220703-.3659668.3662109-.3659668l1.5556641.0183105.0917969-1.5924072c.0117188-.1341553.0849609-.1950684.2197266-.1831055l1.7021484.1464844c.2924805.0245361.4267578.1646729.4023438.4208984-.012207.1345215-.0854492.2380371-.2192383.3111572-.0493164.0246582-.0732422.0612793-.0732422.1098633l-.0551758.7871094h2.9467773l.7138672-.7321777c.1098633-.1098633.2197266-.1647949.3295898-.1647949.121582,0,.237793.0549316.3476562.1647949l.7685547.7321777c.1464844.1343994.2197266.2562256.2197266.3659668Zm-.640625-6.479248c0,.2319336-.1220703.3476562-.3657227.3476562h-2.9106445v.5308838c.1953125-.012085.378418-.0183105.5493164-.0183105.5126953,0,.9453125.0854492,1.2993164.2562256.4638672.2196045.6958008.5554199.6958008,1.0067139,0,.2196045-.0703125.4089355-.2104492.5673828-.140625.1586914-.3144531.237915-.5219727.237915-.1826172,0-.3354492-.0668945-.4575195-.2012939-.2685547-.2928467-.7197266-.7441406-1.3544922-1.3544922v1.8486328c0,.4881592-.237793.7504883-.7133789.7869873l-1.043457.0732422c-.3173828.0246582-.4760742-.1158447-.4760742-.4208984v-1.2629395c-.5737305.3173828-.9150391.5004883-1.0249023.5490723-.402832.1710205-.9516602.3111572-1.6474609.4210205-.1708984.0245361-.2558594-.0366211-.2558594-.1831055,0-.048584.0302734-.0975342.0913086-.1463623,1.3178711-1.1102295,2.2148438-2.0070801,2.6904297-2.6906738h-2.5258789c-.2319336,0-.3476562-.1218262-.3476562-.3659668,0-.2440186.1157227-.3660889.3476562-.3660889l2.690918.0183105V1.5740356c0-.1584473.0791016-.2316284.237793-.2196045l1.8305664.0914917c.3168945.0123291.4692383.177002.4575195.4942017,0,.1586914-.0673828.2868652-.2016602.3843384-.0732422.0489502-.1098633.1161499-.1098633.201355v1.5924072h.9155273l.6953125-.7321777c.1098633-.1097412.2197266-.1646729.3295898-.1646729.121582,0,.237793.0549316.3476562.1646729l.7685547.7321777c.1464844.1343994.2197266.2562256.2197266.3660889Zm-6.4702148-2.7363892c.2382812.2379761.3569336.4790649.3569336.7229614,0,.1830444-.0668945.3477783-.2011719.4942017s-.2929688.2196655-.4760742.2196655c-.2075195,0-.3657227-.0852661-.4755859-.2562866-.1713867-.2682495-.4638672-.6708984-.8789062-1.2080078-.0366211-.048584-.0546875-.1035156-.0546875-.1647339,0-.1707153.0854492-.249939.2563477-.237915.7441406.0488892,1.2353516.1921997,1.4731445.4301147Zm2.9746094,9.5634155h-1.2265625l-.0913086,1.5374756c.097168,0,.4575195.0183105,1.0795898.0549316.1586914-.5002441.2382812-1.0310059.2382812-1.5924072Zm3.1665039-8.9502563c-.0732422.0855103-.152832.1281128-.2382812.1281128-.1220703,0-.2011719.0062866-.237793.0183105l-1.5556641.6040039c-.0615234.0245972-.1220703.0366211-.1831055.0366211-.1586914,0-.237793-.0549316-.237793-.1647339,0-.0732422.0366211-.1584473.109375-.2562256l.8056641-1.3910522c.0244141-.1584473.1279297-.1830444.3110352-.0732422l1.1347656.6589355c.1831055.1464233.2133789.2928467.0917969.43927Zm9.078125,11.1832886l-.9150391,1.1164551c-.2319336.2808838-.378418.6103516-.4394531.9884033-.0488281.3048096-.2563477.4575195-.6220703.4575195-.1953125,0-.3842773-.0488281-.5673828-.1463623-.9765625-.5247803-1.7636719-1.043335-2.3613281-1.5557861-.9638672.6589355-2.1416016,1.1713867-3.5322266,1.5374756-.2446289.0609131-.4150391.0609131-.5126953,0-.1098633-.0855713-.0913086-.1953125.0546875-.3294678,1.1591797-1.0250244,2.0439453-1.921875,2.6542969-2.6905518-.6103516-.8419189-1.0375977-1.8240967-1.28125-2.9467773-.0488281-.2197266-.0366211-.3720703.0366211-.4576416.121582-.1463623.262207-.1341553.4208984.0366211.6464844.7321777,1.2871094,1.3178711,1.921875,1.7570801.3901367-.6832275.7929688-1.8056641,1.2080078-3.3677979.0483398-.1706543.1582031-.2315674.3295898-.1829834l2.1777344.6040039c.2197266.0611572.3295898.1953125.3295898.40271,0,.2684326-.1220703.4272461-.3662109.4758301-.0976562.0123291-.1586914.0611572-.1831055.1463623-.4389648,1.3425293-.8964844,2.3552246-1.3725586,3.0383301.7563477.2563477,1.7143555.4759521,2.8735352.6589355.1708984.0246582.2563477.0915527.2563477.201416,0,.0854492-.0366211.1710205-.1098633.2562256Zm.1645508-9.0600586c0,.2196045-.1220703.3293457-.3657227.3293457h-5.1616211c-.6347656,1.1594238-1.421875,2.1112061-2.3613281,2.8553467-.0732422.0611572-.1586914.0732422-.2558594.0366211-.0981445-.048584-.1347656-.1158447-.1098633-.2012939.5366211-2.1109619.7929688-4.1732178.7685547-6.1865234,0-.0852051.0302734-.1584473.0917969-.2196655.0605469-.0609131.1337891-.0852051.2192383-.0731812l2.7456055.2745361c.2441406.0245972.3720703.177002.3842773.4575806.012207.1953125-.0976562.3357544-.3291016.4209595-.0732422.0366211-.128418.0915527-.1650391.1647339-.2075195.6712036-.4208984,1.2509155-.640625,1.7388306h2.0317383l1.1166992-1.1165161c.1098633-.1098022.2255859-.1647339.3476562-.1647339.1098633,0,.2197266.0549316.3295898.1647339l1.1162109,1.1348267c.1586914.1586914.237793.2868652.237793.3843994Z"/>
      <path class="cls-1" d="m233.8554688,7.2846069c0,.2442627-.1162109.3660889-.3476562.3660889h-2.5810547v1.28125c.0488281-.024292.0976562-.0426025.1464844-.0549316.1708984-.0119629.3295898-.0183105.4760742-.0183105,1.2685547,0,1.9033203.4576416,1.9033203,1.3728027,0,.2441406-.1040039.439209-.3110352.5856934-.0976562.0854492-.2138672.1280518-.3476562.1280518-.2446289,0-.4458008-.0914307-.6040039-.2745361-.2563477-.2928467-.6772461-.7137451-1.2631836-1.2629395v5.1066895c0,.5124512-.2563477.793335-.7685547.8419189l-1.0068359.0915527c-.1220703.0119629-.237793-.0214844-.3476562-.100708s-.1645508-.1799316-.1645508-.302002v-4.3562012c-1.0375977.5371094-2.0136719.8908691-2.9287109,1.0616455-.0610352.0245361-.1098633-.0059814-.1464844-.0915527-.0366211-.0732422-.0307617-.1401367.0185547-.2012939.3413086-.3049316.878418-.8114014,1.6103516-1.519165.5493164-.5368652,1.03125-1.1102295,1.4462891-1.7205811v-.5673828h-2.3979492c-.2075195,0-.3110352-.1218262-.3110352-.3660889,0-.2315674.1035156-.3476562.3110352-.3476562h2.3979492l.0180664-4.6490479c0-.1707764.0854492-.25.2563477-.2379761l1.8486328.0914917c.3413086.0123291.5058594.1953735.4941406.5491333-.012207.1953125-.0976562.3357544-.2563477.4209595-.0488281.0245972-.0732422.0671997-.0732422.1281738v3.6972656l.402832-.0183105.8237305-.8237305c.1098633-.1097412.2255859-.1646729.3476562-.1646729.1098633,0,.2197266.0549316.3295898.1646729l.8232422.842041c.1342773.1343994.2016602.2501221.2016602.3476562Zm-5.8203125-2.6539307c0,.2076416-.0644531.3967285-.1923828.5673828-.1279297.1710205-.2900391.2562256-.4848633.2562256-.1953125,0-.3544922-.0975342-.4760742-.2928467-.2929688-.4758301-.5917969-.9088135-.8969727-1.2994385-.0366211-.0487061-.0546875-.1035156-.0546875-.1647949,0-.1829834.0913086-.2681885.2744141-.2562256,1.2202148.0732422,1.8305664.4698486,1.8305664,1.1896973Zm6.003418-.0366211c-.1220703.1586914-.2685547.2076416-.4394531.1464844-.0488281-.024292-.1040039-.024292-.1645508,0l-1.6474609.6040039c-.0610352.0245361-.1279297.0366211-.2011719.0366211-.1713867,0-.2563477-.0670166-.2563477-.201416,0-.0852051.0244141-.1646729.0732422-.237915l.9882812-1.5557861c.1098633-.1584473.237793-.1890259.3842773-.0914307l1.2080078.8236084c.1831055.1220703.2011719.2807617.0551758.4758301Zm9.3525391,5.8387451c.0366211.2076416-.0976562.3417969-.4023438.40271l-2.4160156.4941406-.0732422,3.3861084c-.012207.5614014-.2626953.8723145-.7504883.9334717l-1.2080078.1463623c-.1831055.0244141-.3144531-.0245361-.3935547-.1463623-.0795898-.1220703-.1191406-.2808838-.1191406-.4759521l.0732422-3.3494873-3.8803711.7871094c-.1586914.0732422-.262207-.024292-.3110352-.2928467-.0366211-.2196045.0610352-.3537598.2929688-.40271l3.9169922-.8236084.2011719-9.1516113c0-.1707153.0917969-.249939.2744141-.2379761l2.0317383.201355c.3417969.0366211.5004883.2196655.4760742.5490723-.012207.1953735-.1098633.3417969-.2929688.4393311-.0488281.0122681-.0732422.0488892-.0732422.1098022l-.1464844,7.5775757.2382812-.0549316.6586914-.9517822c.1098633-.1584473.2314453-.237915.3662109-.237915.097168,0,.2011719.0366211.3110352.1097412l.9702148.6772461c.1464844.1098633.2314453.213623.2558594.3111572Zm-6.3144531-1.720459c0,.2441406-.0732422.4575195-.2197266.640625-.1464844.1829834-.3417969.2745361-.5854492.2745361-.2685547,0-.4760742-.1158447-.6225586-.3477783-.4755859-.7687988-.8359375-1.305542-1.0795898-1.6107178-.0488281-.0609131-.0732422-.1280518-.0732422-.2012939,0-.2197266.1098633-.3232422.3291016-.3111572,1.5009766.1097412,2.2514648.62854,2.2514648,1.5557861Zm.6225586-3.4227295c0,.40271-.1713867.6955566-.5126953.87854-.1098633.0611572-.2197266.0915527-.3295898.0915527-.2319336,0-.4208984-.1158447-.5673828-.3477783-.4150391-.6708984-.7807617-1.2017822-1.0981445-1.5924072-.0488281-.0609131-.0732422-.1280518-.0732422-.2012939,0-.2316895.1157227-.3415527.3476562-.3294678,1.4887695.1097412,2.2333984.6102295,2.2333984,1.5008545Z"/>
      <path class="cls-1" d="m256.831543,5.1797485c-.0493164,0-.0854492.0246582-.1098633.0732422-.7202148,1.4156494-1.8242188,2.6296387-3.3129883,3.642334-1.4399414.9884033-2.965332,1.6169434-4.5756836,1.8852539-.1713867.0245361-.2807617.0123291-.3295898-.0366211-.1220703-.0852051-.1162109-.1767578.0180664-.2745361,3.0751953-2.4036865,5.112793-4.7342529,6.1132812-6.9918213.0854492-.1950684.2133789-.2562256.3847656-.1829834l1.9584961.87854c.2802734.1220703.4208984.2745361.4208984.4575195,0,.1464844-.0581055.2745361-.1738281.3843994-.1162109.1097412-.2470703.1646729-.3935547.1646729Zm6.0400391-2.5258179c0,.2442627-.1347656.3660889-.402832.3660889h-12.7573242c-.2685547,0-.402832-.1341553-.402832-.40271,0-.2682495.1342773-.4026489.402832-.4026489h9.4628906l1.2446289-1.3544312c.097168-.1098022.2255859-.1647339.3842773-.1647339.1464844,0,.2744141.0549316.3842773.1647339l1.4277344,1.3727417c.1708984.1586914.2563477.2991333.2563477.4209595Zm-5.0883789,6.5708618c-.012207.2442627-.1220703.4210205-.3295898.5307617-.0488281.0246582-.0732422.0612793-.0732422.1098633v4.923584c0,.6099854-.3051758.9394531-.9150391.9882812l-1.1899414.0915527c-.4145508.0366211-.6220703-.15271-.6220703-.5673828v-6.5708008c0-.2073975.1279297-.3049316.3842773-.2928467l2.1416016.1280518c.4145508.0246582.6157227.2442627.6040039.6589355Zm4.3012695,2.4160156c-.2807617,0-.5493164-.1281738-.8056641-.3843994-.7441406-.7441406-1.543457-1.3909912-2.3974609-1.9400635-.1098633-.0732422-.1645508-.1707764-.1645508-.2928467,0-.2806396.3227539-.4210205.9697266-.4210205.8540039,0,1.5800781.1281738,2.1782227.3843994.8173828.3416748,1.2265625.87854,1.2265625,1.6107178,0,.2684326-.1010742.5095215-.3022461.7229004-.2011719.213623-.4365234.3203125-.7045898.3203125Z"/>
      <path class="cls-1" d="m284.8212891,10.7439575c0,.2196045-.1220703.3294678-.3657227.3294678h-4.4111328c-.0854492.5980225-.2319336,1.1411133-.4394531,1.6290283.5859375.036499,1.0307617.0914307,1.3359375.1646729.9272461.2196045,1.3847656.6651611,1.3730469,1.3361816-.012207.2807617-.1069336.5247803-.2836914.7320557-.1772461.2076416-.3999023.3111572-.6679688.3111572-.0981445,0-.2138672-.024292-.3481445-.0732422l-2.4707031-.87854c-1.1230469,1.1102295-3.0444336,1.8364258-5.765625,2.1781006-.2319336.024292-.3476562-.0611572-.3476562-.2562256,0-.0977783.0668945-.177002.2011719-.237915,1.6474609-.7075195,2.8554688-1.5068359,3.6240234-2.3977051-.3540039-.0852051-.7441406-.1767578-1.1713867-.2745361-.0488281.3294678-.2319336.4941406-.5488281.4941406h-1.6474609c-.1708984,0-.25-.0732422-.237793-.2196045l.1464844-2.5075684h-3.5507812c-.2319336,0-.3481445-.1218262-.3481445-.3660889,0-.2316895.1162109-.3477783.3481445-.3477783h3.5874023l.109375-1.9034424c.012207-.1707764.0917969-.2440186.2382812-.2197266l2.0498047.1464844c.3173828.0245361.4638672.1953125.4394531.5124512-.012207.1953125-.1220703.3540039-.3295898.4759521l-.0546875.9882812h6.3691406l1.1166992-1.1164551c.1098633-.1098633.2197266-.1647949.3295898-.1647949.121582,0,.237793.0549316.3476562.1647949l1.1347656,1.1164551c.1582031.1588135.237793.2868652.237793.3843994Zm-.9516602-9.0783691c0,.2196045-.1162109.3294067-.3476562.3294067h-4.4296875v1.7754517h1.1166992l.8603516-.7321167c.1342773-.1098633.2563477-.1647339.3662109-.1647339.121582,0,.2436523.0548706.3657227.1647339l1.0249023.9334106c.1831055.1710205.1831055.3417969,0,.5125732l-.3110352.237915-.0546875,2.5440674c-.0126953.4638672-.2197266.7138672-.6225586.7504883l-1.2993164.1281738c-.2319336.0245361-.3476562-.0853271-.3476562-.3294678v-.4393311h-6.8823242c0,.390625-.1831055.6040039-.5488281.640625l-1.3178711.1281738c-.2441406.0245361-.3662109-.0853271-.3662109-.3294678l-.0732422-4.6490479c0-.0852661.0366211-.1524658.1098633-.201355.0610352-.0366211.1342773-.0366211.2197266,0l1.921875.7870483,1.1713867.0183105v-1.7754517h-4.0268555c-.2441406,0-.3662109-.1157837-.3662109-.3477173,0-.2439575.1220703-.3660889.3662109-.3660889h10.3232422l1.1162109-1.1165161c.1098633-.1098022.2255859-.1646729.3476562-.1646729.1098633,0,.2197266.0548706.3295898.1646729l1.1166992,1.1348267c.1582031.1587524.237793.2808228.237793.3660889Zm-9.4443359,4.9967041v-2.159668h-1.1533203l.0366211,2.159668h1.1166992Zm3.0566406,4.4111328h-2.2514648l-.1098633,1.6107178c.6103516-.0366211,1.2143555-.0549316,1.8120117-.0549316.2441406-.463623.4272461-.9820557.5493164-1.5557861Zm-.2016602-7.3029785v-1.7754517h-.9882812v1.7754517h.9882812Zm0,2.8918457v-2.159668h-.9882812v2.159668h.9882812Zm2.965332-2.159668h-1.1533203v2.159668h1.1166992l.0366211-2.159668Z"/>
      <path class="cls-1" d="m292.690918,14.3313599c0,.378418-.1347656.7019043-.402832.9700928-.2685547.2683105-.5917969.40271-.9702148.40271-.390625,0-.7197266-.1313477-.9882812-.3935547s-.402832-.588501-.402832-.979248c0-.3903809.1342773-.7166748.402832-.979248.2685547-.262207.5976562-.3934326.9882812-.3934326.378418,0,.7016602.1343994.9702148.4025879.2680664.2685547.402832.592041.402832.9700928Zm-.0732422-11.5493164l-.8422852,8.8587646c-.0244141.2808838-.1826172.4210205-.4755859.4210205-.2685547,0-.4150391-.1401367-.4394531-.4210205l-.5854492-8.8587646c-.0249023-.3414307.0820312-.6342773.3203125-.87854.237793-.2439575.5273438-.3660889.8691406-.3660889s.628418.1253052.8603516.3752441c.2314453.2502441.3295898.539917.2929688.8693848Z"/>
    </g>
  </g>
</svg>