<?xml version="1.0" encoding="UTF-8"?>
<svg id="_レイヤー_2" data-name="レイヤー 2" xmlns="http://www.w3.org/2000/svg" viewBox="0 0 574.5497494 73.8432617">
  <defs>
    <style>
      .cls-1 {
        fill: none;
        stroke: #231815;
        stroke-miterlimit: 10;
      }

      .cls-2 {
        fill: #231815;
      }

      .cls-2, .cls-3 {
        stroke-width: 0px;
      }
    </style>
  </defs>
  <g id="_レイヤー_1-2" data-name="レイヤー 1">
    <g>
      <g>
        <g>
          <path class="cls-2" d="m153.9072448,36.0339355v-12.0379639c-.9995117,3.0394287-2.7993164,6.7988281-4.7988281,9.0384521l-2.3999023-3.9193115c2.9194336-2.3196411,4.7592773-5.4390869,5.559082-7.4387817h-4.4790039v-3.359436h6.1186523v-3.5593872h-6.5185547v-3.319458h3.6791992c-.3999023-1.9196777-.9599609-4.0393066-1.3999023-5.1191406h-1.4794922v-3.1994629h5.7988281V.039978h3.8393555v3.0794678h5.7993164v3.1994629h-1.4399414c-.199707,1.079834-.8798828,3.319458-1.5195312,5.1191406h3.9189453v3.319458h-6.7988281v3.5593872h6.3989258v3.359436h-4.559082c1.8798828,3.5194092,4.3193359,5.6790161,4.3193359,5.6790161l-2.6396484,3.5194092s-2.2797852-3.4793701-3.5195312-7.3987427v12.5579224h-3.8793945Zm3.1196289-24.5958862c.6000977-1.7197266,1.1196289-3.8793335,1.3198242-5.1191406h-4.9589844c.3999023,1.15979.9199219,3.27948,1.3198242,5.1191406h2.3193359Zm17.637207,24.5958862V14.9574585h-3.9995117c0,8.1186523-1.0395508,15.3174438-4.519043,20.3565674l-3.0395508-3.1594849c3.1591797-4.8791504,3.6391602-9.998291,3.6391602-17.9569702V2.3195801c8.8388672-.2799683,12.7978516-2.0396729,12.7978516-2.0396729l2.1196289,3.239502c-5.0791016,1.9996338-10.9980469,2.199585-10.9980469,2.199585v5.6390381h12.0380859v3.5994263h-4.0395508v21.0764771h-3.9990234Z"/>
          <path class="cls-2" d="m226.0630065,34.5541992c-6.6391602-1.6797485-11.078125-4.8392334-14.4775391-8.0786743v9.5584106h-3.9194336v-9.5184326c-3.0795898,3.319458-7.9189453,6.3989258-13.8779297,8.0786743l-2.0795898-3.7593994c5.8393555-1.1997681,9.6386719-2.9594727,12.2783203-4.9991455h-11.3183594v-3.3994141h14.9975586v-1.7197266h1.3598633l-1.8798828-1.9196777c-1.6796875.4399414-7.878418,1.4797363-14.1577148,2.3196411l-1.1196289-3.3994751c2.2397461-.1599731,4.8793945-.3999023,6.5986328-.6398926v-4.1593018h-4.9189453v-2.9994507h1.4799805l-2.5996094-2.5996094s4.1191406-2.7994995,6.4389648-7.3187256l3.7192383.7998047c-.2802734.5199585-.5600586,1.039856-.8398438,1.5197754h8.7182617v2.7595215c1.1601562-1.3197632,2.3598633-3.1994629,3.0795898-4.9591675l3.8793945.5599365c-.2397461.5598755-.4799805,1.119812-.7597656,1.6397095h10.3979492v3.0394897h-5.3989258c.6000977.8398438,1.3198242,1.9596558,1.3198242,1.9596558l-3.4394531,1.6397705c-.4399414-1.1598511-1.199707-2.5996094-1.8398438-3.5994263h-2.8793945c-.9599609,1.4397583-2.199707,3.0794678-2.7592773,3.7193604h10.3579102v6.9988403c0,1.3197632.2802734,1.3597412,1.1201172,1.3597412.6396484,0,.8398438-.0799561.8398438-4.2392578l3.3193359,1.6796875c0,5.519104-1.8798828,5.8790283-3.5595703,5.8790283h-1.9194336c-2,0-3.5195312-.6798706-3.5195312-2.9594727l-2.3994141,2.2796021s-.7602539-1.9996948-2.9199219-3.7993774c-.9995117,2.9595337-3.559082,4.43927-3.559082,4.43927h1.7597656v1.7197266h15.1572266v3.3994141h-11.3178711c2.7192383,1.9196777,6.8388672,3.8793335,12.237793,4.9591675l-1.5996094,3.7593994Zm-18.7568359-16.7972412c2.7592773-1.7596436,2.8793945-3.7993164,2.8793945-6.5588379v-2.1196899h1.2797852l-2.5996094-2.2796021s.7998047-.6798706,1.3999023-1.4397583h-4.1992188c.6396484.9598389,1.5996094,2.239624,1.5996094,2.239624l-3.3193359,1.7597046s-1.1201172-2.4395752-2.1196289-3.9993286h-2.6796875c-1.159668,1.6397095-3.4394531,3.9593506-4.1591797,4.5592651h11.5981445v2.9994507h-4.6396484v3.5593872c2.6396484-.3199463,5.0395508-.8398438,5.0395508-.8398438l-.0800781,2.1196289Zm11.3979492-5.598999h-4.7592773v.9197998c0,.6799316-.1201172,1.6797485-.3999023,2.6395874l1.9995117-1.6797485c2.3598633,1.7996826,3.159668,3.5994263,3.159668,3.5994263v-5.4790649Z"/>
          <path class="cls-2" d="m236.7885925,13.5976562c5.8789062-3.3994141,9.2382812-7.0787964,11.6381836-13.5177002l3.5991211,1.5197754c-2.4394531,6.638855-5.5986328,11.1981201-12.237793,15.4373779l-2.9995117-3.4394531Zm18.3168945,17.9970093c7.3188477,0,7.3588867-.6798706,7.3588867-4.0792847v-9.4784546h-7.9584961c-.3203125,3.7993774-2.2797852,14.1176147-13.4379883,17.9970093l-2.359375-3.6793823c9.6381836-2.7595825,11.3979492-10.1183472,11.5976562-14.317627h-6.71875v-3.5993652h22.9160156v11.118103c0,7.71875-.4399414,9.5983887-9.7583008,9.8383789l-1.6396484-3.7993774Zm14.5576172-14.8375244c-5.559082-4.1992798-9.3984375-8.2385864-12.1977539-15.1574097l3.4394531-1.5197754c2.7192383,6.1189575,6.2387695,9.998291,11.7578125,13.277771l-2.9995117,3.3994141Z"/>
          <path class="cls-2" d="m281.7085143,9.918335v-3.1994629h13.5180664v3.1994629h-13.5180664Zm4.9194336,24.5958252v1.5197754h-3.6396484v-12.5979004h11.2382812v11.078125h-7.5986328Zm-3.159668-30.3148804V1.1997681h10.2382812v2.9995117h-10.2382812Zm0,16.637207v-2.9194946h10.2382812v2.9194946h-10.2382812Zm.0400391-5.3991089v-2.9194946h10.1982422v2.9194946h-10.1982422Zm6.9990234,10.9581299h-3.8793945v4.7192383h3.8793945v-4.7192383Zm24.6757812,9.5983887c-6.559082-4.0792847-8.3188477-10.3582153-8.7587891-12.0379639h-1.4794922c-.3999023.5999146-1.0400391,1.3598022-1.6396484,1.9196777v5.8790283c1.5595703-.3199463,3.0395508-.7198486,4.5991211-1.2398071l.1601562,3.1994629c-4.199707,1.5597534-10.878418,2.2796021-10.878418,2.2796021l-.8798828-3.359375s1.3198242-.0800171,3.199707-.3199463v-3.7194214c-1.9199219,1.1998291-3.4394531,1.9996948-3.4394531,1.9996948l-1.6796875-3.319458c2.7592773-.7998657,4.9990234-1.9596558,6.5185547-3.319458h-5.8789062v-2.9995117h5.1591797v-2.5995483h-3.7993164v-2.5195923h3.7993164v-2.3595581h-4.2792969v-2.6795654h4.2792969v-2.4395752c-.9199219.7598267-1.9594727,1.3997192-1.9594727,1.3997192l-2.5200195-2.199585s2.2397461-1.119812,3.3598633-2.199646h-3.4794922v-3.1594849h8.3984375V.039978h3.8793945v2.1596069h9.0786133v3.1594849h-3.2797852c1,.9998169,2.9594727,1.9596558,2.9594727,1.9596558l-2.3193359,2.5195923s-2.3198242-1.5597534-4.1992188-3.3994141l1.3598633-1.079834h-10.6386719l1.4399414,1.1997681c-.4799805.5999146-1.2397461,1.1998291-1.8398438,1.6797485h3.4394531v2.5595703h4.5595703v-2.5195923h3.6791992v2.5195923h4.2392578v2.6795654h-4.2392578v2.3595581h3.3994141v2.5195923h-3.3994141v2.5995483h5.2792969v2.9995117h-7.3588867c.2397461.9198608.7197266,1.9996948,1.3198242,3.0394897.8798828-.6398926,1.8398438-1.7597046,2.3193359-2.5595703l3.0795898,1.7997437c-.8398438,1.1997681-2.3994141,2.6395264-3.4794922,3.3994141.9199219.9598389,2.6396484,2.1596069,4.3994141,2.8795166l-2.4794922,3.4793701Zm-6.7587891-22.5161743h-4.5595703v2.3595581h4.5595703v-2.3595581Zm0,4.8791504h-4.5595703v2.5995483h4.5595703v-2.5995483Z"/>
        </g>
        <g>
          <path class="cls-2" d="m386.3637878,36.0339355v-2.1196289h-21.0361328v2.1196289h-4.0395508V5.519043h8.9584961c.7202148-1.079834,1.7998047-3.319458,2.5996094-5.4790649l4.4794922,1.15979c-.7602539,1.5597534-1.7597656,3.2394409-2.5595703,4.3192749h15.637207v30.5148926h-4.0395508Zm0-26.9155273h-21.0361328v4.5592651h21.0361328v-4.5592651Zm0,7.8387451h-21.0361328v4.8391724h21.0361328v-4.8391724Zm0,8.1185913h-21.0361328v5.2391357h21.0361328v-5.2391357Z"/>
          <path class="cls-2" d="m432.6435729,36.0339355v-2.9195557h-23.5957031v2.9195557h-3.9594727V7.798645h13.5175781V.039978h3.9995117v7.758667h13.9975586v28.2352905h-3.9594727Zm-14.0375977-24.6358643h-9.5581055v7.0787964h9.5581055v-7.0787964Zm0,10.4382324h-9.5581055v7.6787109h9.5581055v-7.6787109Zm14.0375977-10.4382324h-10.0380859v7.0787964h10.0380859v-7.0787964Zm0,10.4382324h-10.0380859v7.6787109h10.0380859v-7.6787109Z"/>
          <path class="cls-2" d="m447.848651,10.2382812v-3.3994751h15.5576172v3.3994751h-15.5576172Zm5.1992188,24.2758789v1.5197754h-3.8393555v-12.4379272h12.8779297v10.9181519h-9.0385742Zm-3.4394531-29.8349609V1.5197144h12.0380859v3.1594849h-12.0380859Zm0,16.5571899v-3.1594849h12.0380859v3.1594849h-12.0380859Zm.0400391-5.519043v-3.1594849h11.9980469v3.1594849h-11.9980469Zm8.5986328,11.038147h-5.1992188v4.3592529h5.1992188v-4.3592529Zm23.4360352,9.2784424c-3.2392578-.9598389-6.7587891-2.7195435-8.4785156-4.1993408-1.7197266,1.4797974-5.0390625,3.27948-8.1586914,4.1993408l-2.359375-3.9993286c3.0390625-.5199585,6.0786133-1.4397583,7.5585938-2.5995483-3.2797852-3.319458-4.8793945-6.5189209-4.8793945-6.5189209l3.2797852-2.0396729s1.5595703,3.2394409,4.4790039,6.0789795c2.0395508-1.7996826,3.5595703-5.1191406,3.8393555-6.598877h-12.6376953v-3.5994263h16.9970703v3.1994629s-1.3999023,5.5990601-5.2792969,9.3184204c1.5600586,1.039856,4.359375,2.199646,7.7988281,2.6395874l-2.159668,4.1193237Zm-3.2392578-21.0764771c-2.159668,0-3.5195312-1.3598022-3.5195312-3.3994141v-6.4389038h-4.359375c-.0400391,5.0791016-.6000977,8.5985107-5.3588867,10.7181396l-2.3999023-3.4393921c3.7197266-1.079834,4.1196289-4.1992798,4.1196289-7.9986572,0-.9198608-.0400391-1.9196777-.0400391-2.8795166h11.7177734v9.0385132c0,.6398926.2402344.7998047,1,.7998047,1.0395508,0,1.1196289-.2399292,1.1196289-2.4395752v-2.0796509l3.1196289,1.9196777c-.2001953,5.1591187-.8798828,6.1989746-3.6396484,6.1989746h-1.7592773Z"/>
          <path class="cls-2" d="m492.848651,9.998291v-3.2794189h17.1572266v3.2794189h-17.1572266Zm5.1191406,24.5158691v1.5197754h-3.9194336v-12.4379272h14.7978516v10.9181519h-10.878418Zm-3.359375-30.3148804V1.1997681h13.6376953v2.9995117h-13.6376953Zm0,16.7971802v-2.9995117h13.6376953v2.9995117h-13.6376953Zm.0400391-5.479126v-2.9994507h13.5976562v2.9994507h-13.5976562Zm10.2783203,11.2781372h-6.9589844v4.3192749h6.9589844v-4.3192749Zm12.9980469,9.2784424V14.9574585h-7.2788086v-3.4393921h7.2788086V.039978h3.9990234v11.4780884h6.9189453v3.4393921h-6.9189453v21.1164551h-3.9990234Z"/>
        </g>
        <path class="cls-2" d="m348.7612487,33.909668c-1.409668-.7199707-3.3598633-1.9799805-4.5898438-2.9399414-1.4399414,1.6499634-3.5097656,3.0299072-6.5698242,3.0299072-5.1894531,0-7.859375-2.8498535-7.859375-6.869751,0-2.579834,1.6796875-4.9497681,4.3496094-6.5997314-1.3798828-1.9199219-2.5200195-3.7797852-2.5200195-5.6697388,0-2.9398804,2.1303711-5.3397827,5.7001953-5.3397827,3.5097656,0,5.5795898,2.1599121,5.5795898,5.1898193,0,2.6998291-1.5600586,4.8897705-4.8300781,6.5997314,1.2900391,1.4998779,3.3901367,3.65979,5.6699219,5.7297363.8999023-1.7698975,1.2602539-4.0498047,1.3198242-5.7897949l2.550293.8399658c-.1503906,2.6099243-.6601562,4.6498413-1.6801758,6.5997314,1.3500977,1.0499878,3.3598633,2.3099365,4.8598633,2.9998779l-1.9799805,2.2199707Zm-13.1992188-11.3695679c-1.8300781,1.1399536-2.9399414,2.6698608-2.9399414,4.4398193,0,2.3699341,1.7397461,4.3497925,5.1298828,4.3497925,1.8896484,0,3.2397461-.8999023,4.2294922-2.1599121-2.5195312-2.3098755-4.8295898-4.7097778-6.4194336-6.6296997Zm4.4995117-7.7396851c0-1.6199341-1.0498047-2.8198853-2.699707-2.8198853-1.6801758,0-2.9697266,1.2299194-2.9697266,2.8798828,0,1.4399414.9599609,2.8499146,2.1298828,4.4098511,2.5195312-1.3800049,3.5395508-2.6099243,3.5395508-4.4698486Z"/>
        <g>
          <path class="cls-2" d="m51.930194,36.2868652c-2.9399414,0-5.0996094-1.0198975-6.5395508-2.4298706-.75.9599609-1.9501953,2.2199097-3.300293,3.2698364l-1.8896484-2.4298706c2.5200195-1.6199341,3.4799805-3.4198608,3.4799805-3.4198608v-7.409668h-3.1201172v-2.6999512h6v10.0795898c1.0795898,1.4699707,2.0698242,2.5198975,5.3095703,2.5198975l15.3295898-.1499634-.6000977,2.6698608h-14.6694336Zm-7.6196289-19.1992188s-1.6499023-2.4598389-3.6000977-4.5897827l2.2202148-1.6799316c2.0097656,2.3098755,3.659668,4.619812,3.659668,4.619812l-2.2797852,1.6499023Zm19.7392578,16.3193359s-2.4301758-1.5299072-5.0698242-2.7298584l1.5898438-1.3499756h-6.5996094l1.6796875,1.0799561c-2.6396484,2.1599121-5.5498047,3.0299072-5.5498047,3.0299072l-1.7397461-2.2199097s2.4296875-.539978,4.5898438-1.8899536h-5.2197266v-2.2498779h3.8999023v-1.9499512h-3.0302734v-2.1298828h3.0302734v-1.289917h-.9003906c-1.3798828,0-2.6098633-.4799805-2.6098633-2.5198975v-3.8398438h5.2202148v-1.8599854h-5.3701172v-2.2498779h8.1899414v6.119751h-5.25v1.6199341c0,.4799805.2700195.6599731.7797852.6599731h1.1103516c1.0498047,0,1.3496094-.1799927,1.3496094-1.7099609l2.4902344,1.3199463c-.300293,1.7999268-.9301758,2.2799072-2.1601562,2.3999023v1.3499756h4.9199219v-1.3799438c-.8701172,0-1.8300781-.8099976-1.8300781-2.249939v-4.0197754h5.2197266v-1.8599854h-5.3696289v-2.2498779h8.1894531v6.119751h-5.2197266v1.5299072c0,.5700073.300293.75.7802734.75h1.0200195c1.0498047,0,1.3496094-.2099609,1.3496094-1.7099609l2.5498047,1.3199463c-.3896484,2.3699341-1.6796875,2.4599609-3.1196289,2.4599609h-.6601562v1.289917h3.0600586v2.1298828h-3.0600586v1.9499512h4.0498047v2.2498779h-4.5297852c1.7099609.6600342,4.1699219,2.0099487,4.1699219,2.0099487l-1.949707,2.0698853Zm-4.6499023-8.2796631h-4.9199219v1.9499512h4.9199219v-1.9499512Z"/>
          <path class="cls-2" d="m99.2695495,32.5970459c-5.0097656-3.7498779-11.0693359-9.8995972-14.0693359-13.4094238-.6298828-.7199707-1.0800781-1.0499878-1.4702148-1.0499878-.4199219,0-.8095703.3599854-1.2895508,1.0199585-1.4702148,2.0098877-4.2900391,5.4897461-6.3901367,7.949707l-2.2797852-3.0899048c2.5800781-2.1898804,5.5498047-5.8197632,6.9599609-7.7697144.8999023-1.2598877,1.8598633-1.8598633,2.8798828-1.8598633.9599609,0,1.9799805.5699463,3.0297852,1.7098999,4.4697266,4.7998047,9.2998047,9.6295776,14.6992188,13.2594604l-2.0698242,3.2398682Zm-5.3999023-13.7094727c-.9296875-1.0198975-2.0698242-2.0698853-3.1796875-2.9698486l1.5600586-1.4399414c1.1098633.8699951,2.2797852,1.8599243,3.2397461,2.8798828l-1.6201172,1.5299072Zm2.550293-2.2198486c-.9301758-.9899902-2.0102539-1.9799805-3.1801758-2.8798828l1.5302734-1.3800049c1.1396484.8399658,2.2495117,1.7999268,3.2094727,2.7598877l-1.5595703,1.5Z"/>
          <path class="cls-2" d="m117.2700378,27.1972656c4.2900391,0,6.4501953,2.8198853,6.6601562,5.7297363,2.909668-.6899414,5.8496094-2.579834,5.8496094-5.6097412,0-2.7598877-1.9799805-4.4398193-6.1196289-4.4398193-3.8701172,0-8.9697266,1.6799316-13.2895508,5.369751l-2.1899414-2.8198242c5.2495117-3.2999268,10.0195312-6.869751,14.2495117-10.3796387-3,.2399902-6.9599609.4799805-9.5395508.6300049l-.3603516-3.0299072c.4501953,0,.9902344.0300293,1.5302734.0300293,3.9296875,0,9.9892578-.2999878,12.6591797-.8099365l1.9199219,2.6398926c-2.6098633,1.4399414-6.9897461,4.619751-9.8696289,6.6896973,2.0703125-.5999756,3.9599609-.8999634,5.6699219-.8999634,6.5698242,0,8.6396484,3.7798462,8.6396484,7.3796997,0,5.7297363-6.449707,8.3996582-12.0893555,8.3996582-5.6098633,0-8.2797852-2.3399048-8.2797852-5.0097656,0-1.9199219,1.4101562-3.7799072,4.1699219-3.869873h.3896484Zm3.75,6.2097168c-.1201172-1.829895-1.1098633-3.7797852-3.7197266-3.7797852h-.1801758c-.8999023.0299683-1.5297852.6899414-1.5297852,1.4399414,0,1.3499146,1.9799805,2.3398438,4.8598633,2.3398438h.5698242Z"/>
        </g>
      </g>
      <g>
        <path class="cls-3" d="m149.1416198,67.1845703v4.5458374c0,1.4085693-.8798828,2.0488281-3.7128906,2.0488281l-.6728516-1.4406128c2.4335938,0,2.7373047-.2240601,2.7373047-.8643188v-4.2897339h-6.6904297v-1.4406128h6.6904297v-2.3849487h.8642578c.5917969-.3041382,1.6484375-.9284058,2.7695312-1.9207764h-8.7402344v-1.4406128h11.0605469v1.2645264c-1.5527344,1.8407593-3.7128906,3.0412598-4.3212891,3.3453369l.015625,1.1364746h5.8427734v1.4406128h-5.8427734Z"/>
        <path class="cls-3" d="m171.7197448,65.7599487c-.4003906-.4961548-.8642578-.9603271-1.2490234-1.3444824-2.1445312.1920166-5.25.3361206-10.7880859.4001465l-.2402344-1.4085693h1.8408203c.5761719-.4001465,1.296875-.9924316,1.7128906-1.4725952h-3.9697266v-1.3925781h5.9541016v-1.1044312h1.7929688v1.1044312h5.9863281v1.3925781h-2.9609375c.5605469.4641724,1.8251953,1.5366211,3.0087891,2.7210693l-1.0878906,1.1044312Zm-4.8339844,6.4666748c2.8007812,0,2.8652344-.0960693,2.8652344-1.0724487h-7.7314453v2.6890869h-1.5683594v-8.227356h10.8681641v5.7303467c0,2.0648193-.8642578,2.4489746-3.7929688,2.4489746l-.640625-1.5686035Zm2.8652344-5.3461914h-7.7314453v.9763794h7.7314453v-.9763794Zm0,2.0968628h-7.7314453v1.0244141h7.7314453v-1.0244141Zm-4.7861328-7.0428467c-.4316406.4961548-1.1044922,1.1204224-1.6162109,1.4885864,2.6884766-.0319824,4.4492188-.0800171,5.9697266-.2080688-.4638672-.4321899-.9277344-.8163452-.9277344-.8163452l1.0556641-.4641724h-4.4814453Z"/>
        <path class="cls-3" d="m188.2627135,73.0909424c-2.5126953,0-8.0507812-.3681641-8.0507812-5.1380615,0-2.3209839,1.6640625-4.3858032,4.4179688-5.3461914-2.4814453.1600952-5.6669922.3841553-7.5390625.5282593l-.1767578-1.7287598h.7050781c2.9443359,0,8.7871094-.3200684,12.0839844-.6402588l.3525391,1.6166992c-4.59375.2401123-8.1308594,2.625061-8.1308594,5.5062256,0,2.6410522,3.1533203,3.4573975,5.4736328,3.4573975.3847656,0,.7841797-.0320435,1.1845703-.0640259l-.3203125,1.8087158Z"/>
        <path class="cls-3" d="m198.996112,68.9292603c-.6240234,1.4405518-.9609375,2.8811646-1.4082031,3.6815186-.2402344.4321289-.4970703.6402588-.7363281.6402588-.7851562,0-1.296875-2.0328369-1.296875-4.9460449,0-2.3369141.3037109-5.1860962.8642578-8.0032349l1.7285156.3041382c-.7998047,2.5930176-1.0400391,5.7623291-1.0400391,7.427002,0,1.0884399.0800781,1.5206299.3203125,1.5206299.1601562,0,.4160156-.3201294.8164062-1.2965088l.7519531.6722412Zm9.0751953,3.425415c-.9599609.1119995-2.0322266.1760254-3.0410156.1760254-1.8564453,0-4.8173828,0-4.8173828-2.7370605,0-.4321899.0800781-.8963623.2392578-1.4085693l1.5048828.3040771c-.1123047.2720947-.1601562.5281982-.1601562.7683105,0,1.2965088,1.2324219,1.456604,2.6738281,1.456604,1.1035156,0,2.4326172-.1280518,3.6005859-.3521118v1.7927246Zm-.3193359-9.2677612c-1.4091797.0800171-2.8652344.144043-4.2578125.144043-.8964844,0-1.7773438-.0159912-2.609375-.0800171l-.0478516-1.6646729c.8486328.1280518,2.0644531.1920776,3.296875.1920776,1.296875,0,2.609375-.0640259,3.6181641-.2080688v1.6166382Z"/>
        <path class="cls-3" d="m217.2197448,72.5147095s-.4160156-.7523193-1.2158203-1.600647c-.6884766,1.1364746-1.4570312,2.0488281-2.3056641,2.8011475l-1.1679688-1.1044312c.8798828-.7043457,1.7285156-1.5526733,2.3525391-2.7371216-.5917969-.5762329-1.2802734-1.1685181-1.984375-1.6166382,0,0,.5605469-2.0328369.8798828-4.8659668h-.8798828v-1.4246216h1.0244141c.0634766-.8163452.0957031-1.6326294.0957031-2.4970093l1.4248047.0320435c0,.8963623-.0478516,1.6966553-.1279297,2.4649658h2.5449219c0,3.4414062-.4160156,5.826355-1.1689453,7.6030884,1.1044922,1.0724487,1.6328125,1.7767334,1.6328125,1.7767334l-1.1044922,1.168457Zm-2.0166016-9.1236572c-.2080078,2.0327759-.5439453,3.4893799-.7685547,4.1776733.3681641.2880859.7529297.6402588,1.1044922.9603882.5283203-1.3765869.8486328-3.0892334.8486328-5.1380615h-1.1845703Zm3.1376953-.1921387v-1.1204224h3.1210938v-.8483276h-3.5693359v-1.1845093h3.5693359v-.6402588h1.5849609v.6402588h3.7773438v1.1845093h-3.7773438v.8483276h3.28125v1.1204224h-7.9873047Zm-.4482422,5.8424072v-1.1845093h2.1289062c-.1601562-.3041382-.3681641-.7362671-.4160156-.8963623h-.8964844v-3.0571899h7.2822266v3.0571899h-.7998047s-.1445312.4641724-.3525391.8963623h2.0810547v1.1845093h-9.0273438Zm6.9306641,4.8019409v-.6082764h-4.8662109v.6082764h-1.5361328v-4.1137085h7.9384766v4.1137085h-1.5361328Zm0-2.9612427h-4.8662109v1.2005005h4.8662109v-1.2005005Zm-.3681641-5.9863892h-4.2099609v1.0724487h4.2099609v-1.0724487Zm-3.2177734,2.0648193c.0644531.2401123.2080078.6082764.3203125.8963623h1.7285156c.1289062-.2561035.2568359-.65625.3046875-.8963623h-2.3535156Z"/>
        <path class="cls-3" d="m243.7041198,68.3690186c-1.4882812,2.5610352-3.8574219,5.0740356-7.4912109,5.0740356-2.0488281,0-3.953125-.9923706-3.953125-4.1136475v-.1920776c.0634766-2.112854.1601562-5.1220703.1601562-8.0992432v-1.0724487l1.8720703.0640259c-.1914062,3.3133545-.2714844,6.8667603-.3515625,8.9956665v.1760254c0,1.6806641.8476562,2.5930786,2.3369141,2.5930786.3359375,0,.7041016-.0480347,1.1044922-.144104,1.7441406-.4161377,3.8574219-2.0808105,4.8818359-4.6258545l1.4404297,1.3445435Z"/>
        <path class="cls-3" d="m253.9414245,69.1533813c-1.2158203,2.7370605-1.8886719,3.8415527-3.1210938,3.8415527-2.4326172,0-2.5605469-4.6098633-2.5605469-6.0184326,0-2.0648804.2714844-4.4017944.7519531-6.482666l1.7607422.3521729c-.5283203,1.8887329-.8642578,4.4017334-.8642578,6.482605,0,1.2005005.1435547,3.5374146.9277344,3.5374146.640625,0,1.4892578-1.9848022,1.8095703-2.9611816l1.2958984,1.2485352Zm5.7460938,1.2484741c-.1435547-2.2249146-1.5205078-5.7623291-2.8164062-7.2349243l1.4560547-.8163452c1.4248047,1.7286987,2.8330078,4.8980103,3.1533203,7.5230713l-1.7929688.5281982Z"/>
        <path class="cls-3" d="m277.7519714,63.5991211v-1.7607422h-10.6279297v1.7767334h-1.5693359v-3.1372681h6.0986328v-1.0404053h1.5683594v1.0404053h6.0986328v3.1212769h-1.5683594Zm.7685547,9.7319336c-2.7050781-2.0328369-4.3056641-5.5542603-4.7705078-8.9476318h-.7998047c-.1923828.2401123-.4160156.4801636-.6728516.7202759.8330078.7523193,1.9052734,2.3369751,1.9052734,5.9063721,0,2.4650269-1.2490234,2.8331909-3.3935547,2.8331909l-.640625-1.4406128h.2402344c1.7929688,0,2.2255859-.3521118,2.2255859-1.3925781,0-.2400513,0-.4641724-.0166016-.6722412-2.5449219,2.1768799-6.0341797,2.9611816-6.0341797,2.9611816l-.9599609-1.2965088s4.4648438-.9123535,6.7861328-3.3133545c-.0634766-.3201294-.1601562-.6082153-.2402344-.8643188-2.1923828,1.7766724-5.5214844,2.7531128-5.5214844,2.7531128l-.9609375-1.2965088s3.6171875-.7363281,5.90625-2.6571045c-.1914062-.2720947-.3515625-.4641724-.4794922-.6082764-1.0566406.6723022-2.3691406,1.2165527-3.7939453,1.5526733l-.9609375-1.3925781c2.1132812-.3201294,3.8583984-1.0404053,4.6259766-1.7927246h-3.2646484v-1.3605347h9.4277344v1.3605347h-1.8251953c.1123047,1.0244141.3525391,2.0808716.7529297,3.0892334.6240234-.5762329,1.2001953-1.3285522,1.6962891-2.1448364l1.4570312,1.0723877c-.7851562,1.0564575-1.5527344,1.9047852-2.4013672,2.6090698.7041016,1.1685181,1.6162109,2.2089233,2.8330078,3.0412598l-1.1201172,1.2805176Z"/>
        <path class="cls-3" d="m295.0000182,72.2426147v-.800354h-3.7294922c0,1.5366211-.4960938,2.401001-3.4101562,2.401001l-.7041016-1.5526733h.5605469c1.6484375,0,1.9208984-.1600342,1.9208984-.8483276h-5.2822266v-1.2644653h5.2822266v-.9284058h-6.4023438v-1.1524658h6.4023438v-.8803711h-5.2988281v-1.2005005h5.2988281v-.800293h-4.9306641v-3.0252075h4.9306641v-.7843628h-6.1142578v-1.2164307h6.1142578v-.7523193h1.6328125v.7523193h6.1943359v1.2164307h-6.1943359v.7843628h5.0097656v3.0252075h-5.0097656v.800293h5.2978516v2.0808716h1.0722656v1.1524658h-1.0722656v2.9932251h-1.5683594Zm-5.3623047-9.0437012h-3.3134766v.9764404h3.3134766v-.9764404Zm5.0253906,0h-3.3925781v.9764404h3.3925781v-.9764404Zm.3369141,4.0176392h-3.7294922v.8803711h3.7294922v-.8803711Zm0,2.0328369h-3.7294922v.9284058h3.7294922v-.9284058Z"/>
        <path class="cls-3" d="m304.2920104,71.826416c4.8662109-.4161377,7.7314453-2.9451904,8.4355469-6.0824585-2.4970703,0-8.3398438.0480347-10.5800781.1280518v-1.7126465c1.9042969.0479736,4.4335938.0960083,6.7861328.0960083,1.8574219,0,3.6015625-.0320435,4.8505859-.0960083l1.1679688.8643188c-1.4560547,4.6098633-3.9052734,7.5710449-9.4755859,8.4674072l-1.1845703-1.6646729Zm9.0117188-9.7799683c-1.1044922-.0479736-2.9453125-.0639648-4.8017578-.0639648-1.8408203,0-3.7138672.0159912-4.8984375.0639648v-1.6005859c1.0087891.0319824,2.4970703.0479736,4.0341797.0479736,2.1123047,0,4.3535156-.0319824,5.6660156-.0640259v1.6166382Z"/>
        <path class="cls-3" d="m320.0351745,72.0505371c5.5068359-1.1364746,8.5957031-4.5938721,9.6201172-8.5314331-.4003906-.0160522-.8320312-.0160522-1.296875-.0160522-1.34375,0-2.8486328.0480347-4.1289062.0800171-1.0244141,1.4246216-2.3691406,2.7051392-4.1142578,3.7295532l-1.4404297-1.1685181c3.0732422-1.5045776,4.9296875-4.081604,5.6181641-6.4345703l1.7607422.512207c-.2402344.5922241-.5117188,1.1844482-.8320312,1.7607422h.8320312c1.4892578,0,3.1699219-.0320435,4.5136719-.1120605l1.1689453,1.1044312c-1.5849609,4.9940186-3.9697266,8.8195801-10.1484375,10.6123047l-1.5527344-1.5366211Z"/>
        <path class="cls-3" d="m335.4756042,63.519104v-1.3605957h6.2255859v1.3605957h-6.2255859Zm2.0800781,9.7158813v.6082764h-1.5361328v-4.9780273h5.1542969v4.369751h-3.6181641Zm-1.3759766-11.9407959v-1.2645264h4.8173828v1.2645264h-4.8173828Zm0,6.6266479v-1.2645264h4.8173828v1.2645264h-4.8173828Zm.015625-2.2088623v-1.2645264h4.8017578v1.2645264h-4.8017578Zm3.4414062,4.4177856h-2.0810547v1.7446899h2.0810547v-1.7446899Zm9.3798828,3.713501c-1.296875-.3841553-2.7050781-1.0884399-3.3935547-1.6807251-.6884766.5922852-2.0166016,1.312561-3.265625,1.6807251l-.9443359-1.600647c1.2167969-.2081299,2.4335938-.5762329,3.0253906-1.0404053-1.3125-1.3285522-1.9521484-2.6090698-1.9521484-2.6090698l1.3125-.8163452s.6240234,1.2965088,1.7919922,2.4329834c.8164062-.7202759,1.4248047-2.0488281,1.5371094-2.6410522h-5.0585938v-1.4406128h6.8027344v1.2805176s-.5595703,2.2409058-2.1123047,3.7294922c.6240234.4161987,1.7441406.8803711,3.1210938,1.0564575l-.8642578,1.6486816Zm-1.296875-8.4354248c-.8642578,0-1.4082031-.5442505-1.4082031-1.3605347v-2.5770264h-1.7451172c-.015625,2.0327759-.2392578,3.4413452-2.1445312,4.2896729l-.9599609-1.3765259c1.4882812-.4321899,1.6484375-1.6806641,1.6484375-3.2012939,0-.3681641-.0166016-.7683105-.0166016-1.1524658h4.6904297v3.6174927c0,.2561035.0957031.3200684.4003906.3200684.4160156,0,.4482422-.0960083.4482422-.9763794v-.8323364l1.2480469.7683105c-.0800781,2.0648193-.3515625,2.4810181-1.4560547,2.4810181h-.7050781Z"/>
        <path class="cls-3" d="m354.996112,73.8432617v-8.2753296c-.3681641.7683105-.7685547,1.3284912-.7685547,1.3284912l-.8164062-1.7927246c1.1679688-1.3445435,2.3369141-3.7614746,2.8974609-5.6662598l1.4882812.5601807c-.3681641,1.0564575-.8007812,2.256958-1.2646484,3.1533203v10.6923218h-1.5361328Zm4.3378906-9.0596924v2.7851562c0,1.5846558-.0966797,4.1936646-1.2011719,6.0664673l-1.3925781-1.0724487c1.0087891-1.5526733,1.0722656-3.9856567,1.0722656-5.3461914v-3.6814575h10.0683594v1.2484741h-8.546875Zm6.1621094-2.7531128v1.0084229h-1.6005859v-1.0084229h-2.3691406v1.0724487h-1.5683594v-1.0724487h-2.0166016v-1.2484741h2.0166016v-1.1845093h1.5683594v1.1845093h2.3691406v-1.1845093h1.6005859v1.1845093h2.0166016v1.2484741h-2.0166016Zm-.7841797,10.3081665c1.1357422,0,1.3125-.1119995,1.3125-.5281982v-.4641724h-1.6806641v2.0968018h-1.3447266v-2.0968018h-1.6005859v2.4970093h-1.3769531v-8.2593384h7.3955078v6.2265015c0,1.6806641-.7841797,1.9047852-2.0654297,1.968811l-.6396484-1.4406128Zm-1.7128906-5.5062256h-1.6005859v1.1685181h1.6005859v-1.1685181Zm0,2.2409058h-1.6005859v1.168457h1.6005859v-1.168457Zm3.0253906-2.2409058h-1.6806641v1.1685181h1.6806641v-1.1685181Zm0,2.2409058h-1.6806641v1.168457h1.6806641v-1.168457Z"/>
        <path class="cls-3" d="m376.308612,71.2501831c.5605469.0800781,1.0410156.144043,1.4414062.144043.8164062,0,1.3125-.2720947,1.4560547-1.2484741.2080078-1.3285522.3203125-3.2493286.3203125-4.2416992v-.3041382c-.0322266-.8323364-.3359375-.9763794-1.0566406-.9763794-.3203125,0-.9599609.0159912-1.7441406.0319824-.8642578,3.1693115-1.9853516,6.482605-2.9130859,8.4994507l-1.6972656-.9763794c1.0087891-1.6646729,2.0966797-4.5618286,2.8808594-7.4590454-.8642578.0320435-1.7597656.0800781-2.5126953.1280518l-.1435547-1.7286987c.3193359.0160522.7041016.0160522,1.1357422.0160522.6083984,0,1.2646484,0,1.9375-.0160522.2714844-1.2324829.4960938-2.4169312.5917969-3.4573975l1.8251953.2080688c-.1601562.9604492-.4003906,2.0648804-.6884766,3.2173462.671875-.0160522,1.2646484-.0160522,1.6806641-.0320435h.0634766c1.3447266,0,2.3535156.4802246,2.3535156,2.0808716,0,1.6326294-.2080078,4.3537598-.3203125,5.3301392-.2724609,2.2409058-1.1689453,2.7531128-4.2099609,2.7531128l-.4003906-1.968811Zm8.2119141-3.7775269c-.4003906-1.4085693-1.6005859-3.7294922-2.4648438-4.8979492l1.5039062-.7042847c.9287109,1.2805176,2.0488281,3.281311,2.6259766,4.8019409l-1.6650391.800293Zm-.1445312-5.5542603c-.4160156-.5922241-.9443359-1.2484741-1.4560547-1.7927246l.9277344-.65625c.5283203.5281982,1.0566406,1.1204834,1.5048828,1.7286987l-.9765625.7202759Zm1.5371094-.9603271c-.4003906-.5922852-.9287109-1.1845093-1.4882812-1.7607422l.9121094-.6082764c.5439453.5282593,1.0566406,1.1044922,1.5048828,1.6807251l-.9287109.6882935Z"/>
        <path class="cls-3" d="m389.5068542,72.4186401c2.59375-1.0883789,3.8740234-2.2088623,4.1142578-5.1380615l1.5527344.0640259c-.2880859,3.9856567-2.2255859,5.2821655-4.5302734,6.4986572l-1.1367188-1.4246216Zm12.5332031-4.6418457c-.2714844-.4802246-.5595703-.944397-.8642578-1.3605347-3.0888672.4161377-6.2587891.4481812-10.9960938.4481812l-.2402344-1.5846558c.7041016.0159912,1.3125.0320435,1.953125.0480347.9443359-.8963623,2.0166016-2.1608887,2.4326172-2.913208h-4.4658203v-1.4405518h5.9863281v-1.5366211h1.6806641v1.5366211h5.9707031v1.4405518h-7.203125c-.4003906.7042847-1.4248047,1.9848022-2.3691406,2.9291992,3.1054688-.0159912,5.2021484-.1280518,6.3388672-.2720947-.8007812-1.0724487-1.4726562-1.8087158-1.4726562-1.8087158l1.3925781-.6402588s1.6484375,1.8087158,3.3134766,4.2576904l-1.4570312.8963623Zm-2.625,5.6662598c-.8642578,0-1.5527344-.2080688-1.5527344-1.5845947v-4.513855h1.5527344v4.0976562c0,.3361206.0957031.5602417.640625.5602417h1.2646484c.8476562,0,.8798828-.0319824.9599609-2.5450439l1.6005859.8643799c-.1757812,2.3209229-.6240234,3.1212158-2.1445312,3.1212158h-2.3212891Z"/>
        <path class="cls-3" d="m421.1445495,73.7471924s-4.3378906-.7042847-6.578125-3.8895874c-1.1044922,2.0648804-3.4101562,3.2012939-6.1787109,3.9056396l-.8964844-1.5206299c2.4804688-.4001465,4.4335938-1.2805176,5.4101562-2.5450439h-5.0419922v-1.4085693h5.6982422c.1279297-.3361206.2236328-.7523193.2724609-1.1204834h-4.0976562v-1.3284912h4.1933594v-1.1845093h-4.7695312v-.8163452h-1.3613281v-3.1692505h6.0986328v-1.2324829h1.5683594v1.2324829h6.0986328v3.1532593h-1.328125v.8323364h-4.7382812v1.1845093h4.1777344v1.3284912h-4.2412109c-.0322266.3681641-.0966797.7843628-.2080078,1.1204834h6.2744141v1.4085693h-5.2666016c2.0166016,2.1448975,5.6347656,2.5770264,5.6347656,2.5770264l-.7207031,1.4725952Zm-1.1523438-11.6846924h-10.6279297v1.2644653h4.5615234v-.8963623h1.5683594v.8963623h4.4980469v-1.2644653Z"/>
        <path class="cls-3" d="m427.958026,69.057312l-.2246094-8.8995972h1.9208984l-.2080078,8.8995972h-1.4882812Zm-.1923828,3.5854492v-2.1288452h1.8730469v2.1288452h-1.8730469Z"/>
      </g>
      <line class="cls-1" x1="574.5497494" y1="46.2353751" y2="46.2353751"/>
    </g>
  </g>
</svg>