<?xml version="1.0" encoding="UTF-8"?>
<svg id="_レイヤー_2" data-name="レイヤー 2" xmlns="http://www.w3.org/2000/svg" viewBox="0 0 710 62.6763798">
  <defs>
    <style>
      .cls-1 {
        fill: #231815;
      }

      .cls-1, .cls-2, .cls-3, .cls-4 {
        stroke-width: 0px;
      }

      .cls-3 {
        fill: #fff;
      }

      .cls-4 {
        fill: #c31d1d;
      }
    </style>
  </defs>
  <g id="_レイヤー_1-2" data-name="レイヤー 1">
    <g>
      <rect class="cls-4" x="460.0507388" width="249.9492612" height="62.6763798"/>
      <g>
        <path class="cls-3" d="m502.8349609,40.228604v-11.5292969c-.5068359.7480469-1.2548828,1.6279297-1.2548828,1.6279297l-.7919922-2.3759766s2.8388672-2.7060547,4.3564453-7.5253906l1.8710938.7705078c-.5947266,1.9140625-1.3427734,3.5205078-2.0908203,4.8408203v14.1914062h-2.0898438Zm15.0058594-4.7080078v-1.6943359h-3.2783203v6.4023438h-2.15625v-6.4023438h-3.0810547v1.6943359h-2.15625v-11.6621094h5.2373047v-3.4326172h2.15625v3.4326172h5.4345703v11.6621094h-2.15625Zm-5.4345703-9.7480469h-3.0810547v6.1396484h3.0810547v-6.1396484Zm5.4345703,0h-3.2783203v6.1396484h3.2783203v-6.1396484Z"/>
        <path class="cls-3" d="m544.3515625,29.1397368c-4.5332031-2.2890625-7.3271484-4.6875-8.8681641-6.7333984-1.3642578,1.9365234-4.5986328,4.8623047-8.9550781,6.7548828l-1.0996094-2.1337891c5.0820312-1.7607422,7.8330078-4.8408203,9.0654297-6.7333984h1.7597656c1.2763672,1.8925781,3.9609375,4.4228516,9.1972656,6.7109375l-1.0996094,2.1347656Zm-17.6025391,9.5048828c3.7841797-2.3320312,3.9160156-4.9501953,3.9160156-10.7373047h2.2226562c0,5.7871094-.1318359,9.5488281-4.3125,12.3212891l-1.8261719-1.5839844Zm11.4414062,1.3642578v-12.0800781h2.2216797v12.0800781h-2.2216797Z"/>
        <path class="cls-3" d="m561.8837891,33.8262602v2.9257812c0,2.5966797-.3740234,3.3886719-5.3027344,3.3886719l-1.0996094-2.1337891c3.828125,0,4.2021484-.0664062,4.2021484-1.1884766v-2.9921875h-9.21875v-1.9804688h9.21875v-3.1904297h-7.5253906v-1.9804688h7.5253906v-3.2568359c-2.0019531.1328125-4.2246094.2207031-6.9091797.2207031l-.7919922-2.0029297c10.2099609,0,15.0068359-1.1435547,15.0068359-1.1435547l1.3632812,1.7597656s-2.0898438.5947266-6.46875,1.0126953v3.4101562h6.3369141v1.9804688h-6.3369141v3.1904297h8.03125v1.9804688h-8.03125Z"/>
        <path class="cls-3" d="m593.2353516,40.119229c-1.1005859-1.3203125-2.1123047-2.7724609-2.7724609-4.1152344-.8359375,1.4521484-2.15625,2.9931641-3.6308594,4.2246094l-1.3642578-1.9355469c1.6279297-1.078125,2.9921875-2.7724609,3.8730469-4.4013672-.9462891-2.1337891-1.3203125-4.0263672-1.6064453-5.5224609-.2197266.4404297-.5947266,1.2763672-.8798828,1.6943359l-1.2324219-1.7822266c0-.0224609-1.0341797,1.4746094-1.0341797,1.4746094,0,0-1.9804688-.96875-3.0361328-3.2568359v3.234375h-2.0683594v-3.1689453c-1.1884766,2.53125-3.2128906,3.5429688-3.2128906,3.5429688l-1.2324219-1.8261719s2.0683594-.7705078,3.2128906-2.3769531h-2.7509766v-1.6933594h1.8271484c-.1767578-.3300781-.9023438-1.4960938-1.6728516-2.3769531l1.5400391-1.0341797c.7265625.96875,1.6728516,2.5087891,1.6728516,2.5087891l-1.3642578.9023438h1.9804688v-3.7851562h2.0683594v3.7851562h1.9580078l-1.4306641-.8369141s.9248047-1.2978516,1.4521484-2.5957031l1.6728516.8134766c-.5947266,1.3642578-1.3427734,2.3544922-1.5625,2.6191406h1.8701172v1.6933594h-2.7285156c.7919922,1.078125,2.3769531,1.7832031,2.9042969,1.9804688,2.1347656-3.1904297,2.6845703-7.3925781,2.6845703-7.3925781l2.2001953.5498047s-.2861328,1.1884766-.8134766,2.7949219h5.0820312v1.9794922h-1.0996094c-.1103516,1.8486328-.5722656,5.0175781-2.1347656,8.1640625.7480469,1.4960938,1.8261719,2.9482422,3.234375,4.2675781l-1.6054688,1.8710938Zm-9.1757812-.3525391c-.7480469-.5058594-1.8261719-1.2324219-2.5966797-1.6279297-1.2978516.9462891-3.0136719,1.6279297-5.5,2.0898438l-.9023438-1.9580078c1.9365234-.1542969,3.3447266-.5498047,4.4003906-1.078125-2.0019531-.9462891-3.5644531-1.5625-3.5644531-1.5625.59375-.6816406,1.2978516-1.4960938,1.7607422-2.2216797h-2.4208984v-1.8486328h3.5429688c.5498047-.8798828.8134766-1.5625.8134766-1.5625l2.2890625.4179688s-.2421875.5283203-.6162109,1.1445312h5.0380859v1.8486328h-1.671875c-.2636719,1.0556641-.9462891,2.4863281-1.6943359,3.34375.6816406.3300781,1.6503906.8808594,2.3544922,1.2763672l-1.2324219,1.7382812Zm-3.9609375-6.3583984c-.2636719.4179688-.8798828,1.1220703-1.2314453,1.5175781,0,0,.8574219.484375,2.1123047,1.0341797.59375-.6376953,1.2763672-1.7822266,1.4960938-2.5517578h-2.3769531Zm9.0654297-7.5917969c.0878906,1.1445312.4628906,3.5429688,1.4082031,5.9414062.8808594-2.2001953,1.1445312-4.5546875,1.1445312-5.9414062h-2.5527344Z"/>
        <path class="cls-3" d="m603.8154297,40.228604v-9.2412109s-.9462891,3.7851562-2.5527344,5.9414062l-1.4521484-2.1123047c1.8261719-1.8486328,2.9707031-4.2685547,3.5419922-5.8535156h-3.1679688v-1.9140625h3.6308594v-6.6230469h2.0898438v6.6230469h3.2568359v1.9140625h-2.8164062c1.1875,1.6503906,2.8378906,2.6845703,2.8378906,2.6845703l-1.4521484,1.9580078s-1.1445312-1.6054688-1.8261719-3.34375v9.9667969h-2.0898438Zm-2.2011719-13.8837891c-.5498047-2.15625-1.2978516-3.6748047-1.2978516-3.6748047l1.7822266-.7919922s.7480469,1.7382812,1.2763672,3.7626953l-1.7607422.7041016Zm4.4453125-.8134766s.8574219-1.8271484,1.1875-3.6533203l1.8925781.6386719c-.4619141,1.9140625-1.3857422,3.8720703-1.3857422,3.8720703l-1.6943359-.8574219Zm9.4394531,14.6972656v-6.4248047l-6.4257812,1.2763672-.3740234-2.0458984,6.7998047-1.3642578v-11.2441406h2.15625v10.8261719l1.5400391-.3085938.3955078,2.046875-1.9355469.3955078v6.8427734h-2.15625Zm-2.3544922-9.2626953c-1.5400391-1.8046875-3.4111328-3.0585938-3.4111328-3.0585938l1.2763672-1.4746094s1.8925781,1.4306641,3.4326172,3.0585938l-1.2978516,1.4746094Zm.3300781-4.5986328c-1.5400391-1.6943359-3.4111328-3.0810547-3.4111328-3.0810547l1.2988281-1.4521484s1.9804688,1.4960938,3.4541016,3.0810547l-1.3417969,1.4521484Z"/>
        <path class="cls-3" d="m633.2734375,40.228604v-11.3535156c-1.671875,1.9140625-4.0703125,4.1367188-7.3925781,5.9628906l-1.3427734-2.1337891c5.6992188-2.6191406,9.0214844-6.8876953,10.078125-8.9775391h-9.3955078v-1.9804688h18.4824219v1.9804688h-6.5566406c-.1982422.4619141-.6826172,1.4296875-1.5625,2.6845703v13.8173828h-2.3105469Zm9.5498047-5.2587891c-2.3544922-1.6279297-5.1044922-4.2460938-6.8212891-6.3583984l1.6943359-1.2099609c1.671875,1.9580078,4.1582031,4.1357422,6.6230469,5.7646484l-1.4960938,1.8037109Z"/>
        <path class="cls-3" d="m667.0888672,40.228604c-2.2226562-.9013672-4.6650391-1.7382812-6.5566406-2.3535156-2.1347656,1.3193359-6.7109375,2.2880859-9.7255859,2.3535156l-.9023438-2.1777344c2.7070312,0,5.9414062-.1982422,8.0097656-.9462891-1.6943359-.4404297-3.5429688-.8144531-4.796875-1.078125.7041016-.7041016,1.4521484-1.5625,1.9804688-2.3320312h-5.8095703v-1.8271484h6.9316406c.3300781-.4179688.6601562-1.0117188.8574219-1.4960938h-6.5341797v-5.7421875h4.8398438v-1.6064453h-5.6542969v-1.8261719h18.9882812v1.8261719h-5.7646484v1.6064453h4.9951172v5.7421875h-8.2949219c-.1767578.4628906-.5283203,1.1220703-.7929688,1.4960938h10.2314453v1.8271484h-4.0703125c-.59375,1.0996094-1.5185547,2.1777344-2.4638672,2.9042969,1.6054688.4394531,3.8505859,1.078125,5.8964844,1.7597656l-1.3642578,1.8701172Zm-11.7060547-13.9052734h-2.6835938v2.3535156h2.6835938v-2.3535156Zm2.3105469,7.3710938c-.3300781.5058594-.7919922,1.078125-1.1660156,1.4521484,1.2539062.2421875,2.4423828.5058594,3.5869141.8134766.8359375-.5058594,1.8261719-1.3417969,2.3759766-2.265625h-4.796875Zm3.1025391-10.671875h-3.2558594v1.6064453h3.2558594v-1.6064453Zm0,3.3007812h-3.2558594v2.3535156h3.2558594v-2.3535156Zm4.9951172,0h-2.8388672v2.3535156h2.8388672v-2.3535156Z"/>
      </g>
      <g>
        <g>
          <path class="cls-1" d="m117.6904297,27.8526274v-9.0292969c-.75,2.2802734-2.1005859,5.0996094-3.6005859,6.7792969l-1.7988281-2.9394531c2.1894531-1.7402344,3.5693359-4.0800781,4.1689453-5.5800781h-3.359375v-2.5195312h4.5898438v-2.6699219h-4.8896484v-2.4902344h2.7597656c-.2998047-1.4394531-.7207031-3.0292969-1.0498047-3.8398438h-1.1103516v-2.3994141h4.3496094V.853604h2.8798828v2.3105469h4.3505859v2.3994141h-1.0800781c-.1503906.8105469-.6601562,2.4902344-1.140625,3.8398438h2.9404297v2.4902344h-5.1005859v2.6699219h4.8007812v2.5195312h-3.4199219c1.4091797,2.6396484,3.2392578,4.2597656,3.2392578,4.2597656l-1.9794922,2.6396484s-1.7099609-2.609375-2.640625-5.5488281v9.4189453h-2.9091797Zm2.3398438-18.4492188c.4501953-1.2900391.8398438-2.9091797.9902344-3.8398438h-3.7197266c.2998047.8701172.6894531,2.4599609.9892578,3.8398438h1.7402344Zm13.2294922,18.4492188v-15.8095703h-3c0,6.0898438-.7802734,11.4902344-3.3896484,15.2695312l-2.2802734-2.3691406c2.3701172-3.6601562,2.7304688-7.5,2.7304688-13.4697266V2.5635649c6.6289062-.2099609,9.5996094-1.5292969,9.5996094-1.5292969l1.5898438,2.4296875c-3.8105469,1.5-8.25,1.6494141-8.25,1.6494141v4.2304688h9.0292969v2.6992188h-3.0292969v15.8095703h-3Z"/>
          <path class="cls-1" d="m171.8095703,26.7432524c-4.9794922-1.2607422-8.3095703-3.6298828-10.859375-6.0605469v7.1699219h-2.9404297v-7.1396484c-2.3095703,2.4902344-5.9394531,4.7998047-10.4091797,6.0595703l-1.5595703-2.8193359c4.3789062-.9003906,7.2294922-2.2197266,9.2089844-3.75h-8.4892578v-2.5498047h11.2490234v-1.2900391h1.0205078l-1.4101562-1.4404297c-1.2597656.3300781-5.9101562,1.1103516-10.6201172,1.7402344l-.8398438-2.5498047c1.6796875-.1201172,3.6601562-.2998047,4.9501953-.4804688v-3.1191406h-3.6904297v-2.25h1.1103516l-1.9501953-1.9501953s3.0898438-2.0996094,4.8300781-5.4892578l2.7900391.5996094c-.2099609.3896484-.4199219.7802734-.6298828,1.1396484h6.5390625v2.0703125c.8701172-.9902344,1.7705078-2.4003906,2.3105469-3.7197266l2.9101562.4199219c-.1806641.4199219-.3603516.8398438-.5703125,1.2294922h7.7998047v2.2802734h-4.0498047c.4492188.6298828.9902344,1.4697266.9902344,1.4697266l-2.5800781,1.2304688c-.3300781-.8701172-.9003906-1.9501953-1.3798828-2.7001953h-2.1601562c-.7197266,1.0800781-1.6503906,2.3095703-2.0703125,2.7900391h7.7705078v5.25c0,.9892578.2089844,1.0195312.8398438,1.0195312.4794922,0,.6298828-.0595703.6298828-3.1796875l2.4892578,1.2597656c0,4.1396484-1.4101562,4.4101562-2.6699219,4.4101562h-1.4394531c-1.5,0-2.6396484-.5107422-2.6396484-2.2197266l-1.7998047,1.7089844s-.5703125-1.5-2.1904297-2.8496094c-.75,2.2197266-2.6699219,3.3300781-2.6699219,3.3300781h1.3203125v1.2900391h11.3691406v2.5498047h-8.4892578c2.0390625,1.4394531,5.1289062,2.9101562,9.1796875,3.7197266l-1.2001953,2.8203125Zm-14.0693359-12.5996094c2.0693359-1.3203125,2.1601562-2.8505859,2.1601562-4.9199219v-1.5898438h.9589844l-1.9492188-1.7099609s.5996094-.5097656,1.0498047-1.0800781h-3.1494141c.4794922.7197266,1.1992188,1.6796875,1.1992188,1.6796875l-2.4902344,1.3203125s-.8398438-1.8300781-1.5898438-3h-2.0097656c-.8691406,1.2294922-2.5800781,2.9697266-3.1191406,3.4199219h8.6992188v2.25h-3.4794922v2.6699219c1.9794922-.2402344,3.7792969-.6298828,3.7792969-.6298828l-.0595703,1.5898438Zm8.5498047-4.2001953h-3.5703125v.6904297c0,.5097656-.0898438,1.2597656-.2998047,1.9794922l1.5-1.2597656c1.7695312,1.3496094,2.3701172,2.7001953,2.3701172,2.7001953v-4.1103516Z"/>
          <path class="cls-1" d="m179.8505859,11.0235259c4.4091797-2.5498047,6.9296875-5.3095703,8.7294922-10.1396484l2.7001953,1.1396484c-1.8300781,4.9804688-4.2001953,8.4003906-9.1796875,11.5800781l-2.25-2.5800781Zm13.7392578,13.4990234c5.4902344,0,5.5195312-.5097656,5.5195312-3.0595703v-7.109375h-5.9697266c-.2392578,2.8496094-1.7099609,10.5898438-10.0791016,13.4990234l-1.7705078-2.7597656c7.2304688-2.0693359,8.5498047-7.5898438,8.7001953-10.7392578h-5.0400391v-2.7001953h17.1894531v8.3398438c0,5.7900391-.3300781,7.1992188-7.3193359,7.3798828l-1.2304688-2.8505859Zm10.9199219-11.1289062c-4.1699219-3.1503906-7.0498047-6.1796875-9.1503906-11.3701172l2.5800781-1.1396484c2.0400391,4.5898438,4.6796875,7.5,8.8203125,9.9599609l-2.25,2.5498047Z"/>
          <path class="cls-1" d="m213.5410156,8.2637602v-2.4003906h10.1386719v2.4003906h-10.1386719Zm3.6894531,18.4492188v1.1396484h-2.7304688v-9.4492188h8.4296875v8.3095703h-5.6992188Zm-2.3701172-22.7392578V1.7237212h7.6796875v2.25h-7.6796875Zm0,12.4794922v-2.1894531h7.6796875v2.1894531h-7.6796875Zm.0302734-4.0498047v-2.1894531h7.6494141v2.1894531h-7.6494141Zm5.25,8.2197266h-2.9101562v3.5400391h2.9101562v-3.5400391Zm18.5087891,7.1992188c-4.9199219-3.0595703-6.2392578-7.7695312-6.5693359-9.0292969h-1.1103516c-.2998047.4501953-.7802734,1.0205078-1.2294922,1.4404297v4.4091797c1.1699219-.2392578,2.2792969-.5400391,3.4492188-.9296875l.1201172,2.4003906c-3.1494141,1.1699219-8.1591797,1.7089844-8.1591797,1.7089844l-.6601562-2.5195312s.9902344-.0595703,2.3994141-.2402344v-2.7890625c-1.4394531.8994141-2.5791016,1.5-2.5791016,1.5l-1.2607422-2.4902344c2.0703125-.6005859,3.75-1.4697266,4.8896484-2.4902344h-4.4091797v-2.25h3.8701172v-1.9492188h-2.8505859v-1.890625h2.8505859v-1.7695312h-3.2099609v-2.0097656h3.2099609v-1.8300781c-.6904297.5703125-1.4707031,1.0498047-1.4707031,1.0498047l-1.8896484-1.6494141s1.6796875-.8408203,2.5195312-1.6503906h-2.609375v-2.3701172h6.2998047V.853604h2.9101562v1.6201172h6.8095703v2.3701172h-2.4599609c.75.75,2.2197266,1.4697266,2.2197266,1.4697266l-1.7402344,1.8896484s-1.7392578-1.1699219-3.1494141-2.5498047l1.0195312-.8095703h-7.9794922l1.0800781.9003906c-.3603516.4492188-.9296875.8994141-1.3798828,1.2597656h2.5800781v1.9199219h3.4199219v-1.890625h2.7597656v1.890625h3.1796875v2.0097656h-3.1796875v1.7695312h2.5498047v1.890625h-2.5498047v1.9492188h3.9589844v2.25h-5.5195312c.1806641.6904297.5400391,1.5.9902344,2.2802734.6601562-.4804688,1.3798828-1.3203125,1.7402344-1.9199219l2.3095703,1.3496094c-.6298828.9003906-1.7998047,1.9804688-2.6103516,2.5498047.6904297.7207031,1.9804688,1.6201172,3.3007812,2.1601562l-1.8603516,2.609375Zm-5.0693359-16.8886719h-3.4199219v1.7695312h3.4199219v-1.7695312Zm0,3.6601562h-3.4199219v1.9492188h3.4199219v-1.9492188Z"/>
        </g>
        <g>
          <path class="cls-1" d="m294.0673828,27.8526274v-1.5898438h-15.7792969v1.5898438h-3.0302734V4.9639555h6.7197266c.5400391-.8105469,1.3505859-2.4902344,1.9501953-4.1103516l3.359375.8701172c-.5693359,1.1699219-1.3193359,2.4296875-1.9199219,3.2402344h11.7304688v22.8886719h-3.0302734Zm0-20.1884766h-15.7792969v3.4189453h15.7792969v-3.4189453Zm0,5.8789062h-15.7792969v3.6298828h15.7792969v-3.6298828Zm0,6.0898438h-15.7792969v3.9296875h15.7792969v-3.9296875Z"/>
          <path class="cls-1" d="m328.7773438,27.8526274v-2.1894531h-17.6992188v2.1894531h-2.9697266V6.6739165h10.1396484V.853604h3v5.8203125h10.4990234v21.1787109h-2.9697266Zm-10.5292969-18.4794922h-7.1699219v5.3105469h7.1699219v-5.3105469Zm0,7.8300781h-7.1699219v5.7597656h7.1699219v-5.7597656Zm10.5292969-7.8300781h-7.5292969v5.3105469h7.5292969v-5.3105469Zm0,7.8300781h-7.5292969v5.7597656h7.5292969v-5.7597656Z"/>
          <path class="cls-1" d="m340.1777344,8.5039946v-2.5507812h11.6699219v2.5507812h-11.6699219Zm3.9003906,18.2089844v1.1396484h-2.8798828v-9.3291016h9.6591797v8.1894531h-6.7792969Zm-2.5800781-22.3789062V1.9639555h9.0292969v2.3701172h-9.0292969Zm0,12.4189453v-2.3701172h9.0292969v2.3701172h-9.0292969Zm.0302734-4.1396484v-2.3701172h8.9990234v2.3701172h-8.9990234Zm6.4492188,8.2792969h-3.8994141v3.2705078h3.8994141v-3.2705078Zm17.5791016,6.9599609c-2.4296875-.7197266-5.0693359-2.0400391-6.359375-3.1494141-1.2900391,1.109375-3.7792969,2.4599609-6.1191406,3.1494141l-1.7705078-3c2.2802734-.3896484,4.5595703-1.0791016,5.6699219-1.9492188-2.4599609-2.4902344-3.6601562-4.8896484-3.6601562-4.8896484l2.4599609-1.5302734s1.1699219,2.4296875,3.3603516,4.5595703c1.5292969-1.3496094,2.6699219-3.8398438,2.8798828-4.9492188h-9.4804688v-2.7001953h12.75v2.3994141s-1.0498047,4.2001953-3.9599609,6.9902344c1.1699219.7792969,3.2705078,1.6494141,5.8496094,1.9794922l-1.6201172,3.0898438Zm-2.4296875-15.8095703c-1.6191406,0-2.6396484-1.0195312-2.6396484-2.5498047v-4.8291016h-3.2695312c-.0302734,3.8095703-.4501953,6.4492188-4.0205078,8.0390625l-1.7998047-2.5800781c2.7900391-.8095703,3.0898438-3.1494141,3.0898438-5.9990234,0-.6904297-.0302734-1.4404297-.0302734-2.1601562h8.7900391v6.7792969c0,.4804688.1806641.6005859.75.6005859.7802734,0,.8398438-.1806641.8398438-1.8300781v-1.5605469l2.3398438,1.4404297c-.1494141,3.8701172-.6591797,4.6494141-2.7294922,4.6494141h-1.3203125Z"/>
          <path class="cls-1" d="m373.9277344,8.3233305v-2.4599609h12.8701172v2.4599609h-12.8701172Zm3.8398438,18.3896484v1.1396484h-2.9394531v-9.3291016h11.0996094v8.1894531h-8.1601562Zm-2.5195312-22.7392578V1.7237212h10.2294922v2.25h-10.2294922Zm0,12.5996094v-2.25h10.2294922v2.25h-10.2294922Zm.0302734-4.1103516v-2.2490234h10.1992188v2.2490234h-10.1992188Zm7.7099609,8.4599609h-5.2207031v3.2402344h5.2207031v-3.2402344Zm9.7490234,6.9599609v-15.8398438h-5.4599609v-2.5791016h5.4599609V.853604h3v8.6103516h5.1894531v2.5791016h-5.1894531v15.8398438h-3Z"/>
        </g>
        <path class="cls-1" d="m265.2695312,26.2559477c-1.0351562-.5283203-2.4648438-1.4521484-3.3671875-2.15625-1.0556641,1.2099609-2.5742188,2.2226562-4.8183594,2.2226562-3.8066406,0-5.7646484-2.0908203-5.7646484-5.0390625,0-1.8925781,1.2314453-3.6308594,3.1904297-4.8408203-1.0126953-1.4082031-1.8486328-2.7724609-1.8486328-4.1582031,0-2.15625,1.5625-3.9169922,4.1806641-3.9169922,2.5742188,0,4.0927734,1.5839844,4.0927734,3.8066406,0,1.9804688-1.1445312,3.5869141-3.5429688,4.8408203.9462891,1.1005859,2.4863281,2.6845703,4.1591797,4.2021484.6601562-1.2978516.9238281-2.9697266.9677734-4.2460938l1.8701172.6162109c-.109375,1.9140625-.484375,3.4101562-1.2324219,4.8408203.9902344.7695312,2.4648438,1.6943359,3.5644531,2.2001953l-1.4511719,1.6279297Zm-9.6816406-8.3388672c-1.3427734.8359375-2.15625,1.9580078-2.15625,3.2558594,0,1.7382812,1.2753906,3.1904297,3.7617188,3.1904297,1.3867188,0,2.3769531-.6601562,3.1025391-1.5839844-1.8476562-1.6943359-3.5419922-3.4541016-4.7080078-4.8623047Zm3.2998047-5.6767578c0-1.1884766-.7695312-2.0683594-1.9794922-2.0683594-1.2324219,0-2.1787109.9023438-2.1787109,2.1123047,0,1.0556641.7041016,2.0898438,1.5625,3.234375,1.8476562-1.0126953,2.5957031-1.9140625,2.5957031-3.2783203Z"/>
        <g>
          <path class="cls-1" d="m39.9677734,28.0371977c-2.15625,0-3.7402344-.7480469-4.7958984-1.7832031-.5507812.7050781-1.4306641,1.6289062-2.4208984,2.3984375l-1.3857422-1.7822266c1.8476562-1.1875,2.5517578-2.5078125,2.5517578-2.5078125v-5.4345703h-2.2880859v-1.9804688h4.4003906v7.3925781c.7919922,1.078125,1.5185547,1.8486328,3.8945312,1.8486328l11.2441406-.1103516-.4404297,1.9589844h-10.7597656Zm-5.5888672-14.0820312s-1.2099609-1.8046875-2.6396484-3.3671875l1.6279297-1.2324219c1.4746094,1.6943359,2.6845703,3.3886719,2.6845703,3.3886719l-1.6728516,1.2109375Zm14.4785156,11.96875s-1.7822266-1.1220703-3.71875-2.0019531l1.1660156-.9902344h-4.8408203l1.2324219.7919922c-1.9365234,1.5849609-4.0703125,2.2226562-4.0703125,2.2226562l-1.2763672-1.6279297s1.7822266-.3964844,3.3662109-1.3867188h-3.828125v-1.6503906h2.8603516v-1.4296875h-2.2226562v-1.5625h2.2226562v-.9462891h-.6601562c-1.0117188,0-1.9140625-.3515625-1.9140625-1.8476562v-2.8164062h3.828125v-1.3642578h-3.9384766v-1.6503906h6.0068359v4.4882812h-3.8505859v1.1884766c0,.3525391.1982422.484375.5722656.484375h.8144531c.7695312,0,.9902344-.1318359.9902344-1.2548828l1.8261719.96875c-.2207031,1.3203125-.6826172,1.671875-1.5849609,1.7597656v.9902344h3.609375v-1.0117188c-.6386719,0-1.3427734-.5947266-1.3427734-1.6503906v-2.9482422h3.8291016v-1.3642578h-3.9394531v-1.6503906h6.0078125v4.4882812h-3.8291016v1.1220703c0,.4189453.2197266.5507812.5722656.5507812h.7480469c.7705078,0,.9902344-.1542969.9902344-1.2548828l1.8701172.96875c-.2861328,1.7382812-1.2324219,1.8037109-2.2880859,1.8037109h-.484375v.9462891h2.2441406v1.5625h-2.2441406v1.4296875h2.9707031v1.6503906h-3.3222656c1.2539062.484375,3.0576172,1.4746094,3.0576172,1.4746094l-1.4296875,1.5175781Zm-3.4101562-6.0722656h-3.609375v1.4296875h3.609375v-1.4296875Z"/>
          <path class="cls-1" d="m74.6855469,25.3301665c-3.6748047-2.75-8.1191406-7.2607422-10.3193359-9.8349609-.4619141-.5283203-.7919922-.7705078-1.078125-.7705078-.3085938,0-.5947266.2636719-.9462891.7480469-1.078125,1.4746094-3.1464844,4.0263672-4.6865234,5.8310547l-1.6728516-2.2666016c1.8925781-1.6054688,4.0712891-4.2685547,5.1054688-5.6982422.6601562-.9248047,1.3632812-1.3642578,2.1123047-1.3642578.7041016,0,1.4521484.4179688,2.2216797,1.2539062,3.2792969,3.5205078,6.8212891,7.0625,10.7822266,9.7255859l-1.5185547,2.3759766Zm-3.9609375-10.0556641c-.6816406-.7480469-1.5175781-1.5175781-2.3320312-2.1777344l1.1445312-1.0566406c.8134766.6386719,1.671875,1.3642578,2.3759766,2.1123047l-1.1884766,1.1220703Zm1.8710938-1.6279297c-.6826172-.7255859-1.4746094-1.4521484-2.3330078-2.1123047l1.1220703-1.0117188c.8359375.6162109,1.6503906,1.3193359,2.3544922,2.0244141l-1.1435547,1.0996094Z"/>
          <path class="cls-1" d="m87.8837891,21.3702055c3.1464844,0,4.7304688,2.0673828,4.8847656,4.2021484,2.1337891-.5058594,4.2900391-1.8925781,4.2900391-4.1142578,0-2.0244141-1.4511719-3.2568359-4.4882812-3.2568359-2.8378906,0-6.5791016,1.2324219-9.7470703,3.9384766l-1.6064453-2.0683594c3.8505859-2.4199219,7.3496094-5.0380859,10.4511719-7.6132812-2.2001953.1767578-5.1044922.3525391-6.9960938.4628906l-.2646484-2.2226562c.3300781,0,.7265625.0214844,1.1220703.0214844,2.8828125,0,7.3271484-.2197266,9.2851562-.59375l1.4082031,1.9365234c-1.9140625,1.0556641-5.1259766,3.3886719-7.2382812,4.90625,1.5175781-.4394531,2.9042969-.6601562,4.1582031-.6601562,4.8183594,0,6.3369141,2.7724609,6.3369141,5.4130859,0,4.2021484-4.7304688,6.1611328-8.8671875,6.1611328-4.1142578,0-6.0732422-1.7167969-6.0732422-3.6748047,0-1.4082031,1.0341797-2.7724609,3.0585938-2.8378906h.2861328Zm2.7509766,4.5537109c-.0888672-1.3417969-.8144531-2.7714844-2.7285156-2.7714844h-.1328125c-.6601562.0214844-1.1220703.5058594-1.1220703,1.0556641,0,.9902344,1.4521484,1.7158203,3.5644531,1.7158203h.4189453Z"/>
        </g>
      </g>
      <rect class="cls-2" y="35.6305009" width="436.4428398" height="27.0458788"/>
      <g>
        <path class="cls-3" d="m45.5537109,49.5049712v5.6806641c0,1.7607422-1.1005859,2.5605469-4.640625,2.5605469l-.8408203-1.7998047c3.0410156,0,3.4208984-.2802734,3.4208984-1.0800781v-5.3613281h-8.3613281v-1.8007812h8.3613281v-2.9804688h1.0800781c.7402344-.3798828,2.0605469-1.1601562,3.4609375-2.4003906h-10.9228516v-1.8007812h13.8232422v1.5810547c-1.9404297,2.2998047-4.640625,3.8007812-5.4013672,4.1806641l.0205078,1.4199219h7.3017578v1.8007812h-7.3017578Z"/>
        <path class="cls-3" d="m73.7753906,47.7246977c-.5009766-.6201172-1.0810547-1.2001953-1.5605469-1.6806641-2.6806641.2402344-6.5615234.4199219-13.4833984.5l-.2998047-1.7607422h2.3007812c.7197266-.5,1.6201172-1.2402344,2.140625-1.8398438h-4.9619141v-1.7402344h7.4423828v-1.3808594h2.2402344v1.3808594h7.4814453v1.7402344h-3.7011719c.7001953.5800781,2.28125,1.9199219,3.7607422,3.4003906l-1.359375,1.3808594Zm-6.0419922,8.0810547c3.5009766,0,3.5810547-.1201172,3.5810547-1.3398438h-9.6621094v3.3603516h-1.9609375v-10.2822266h13.5830078v7.1621094c0,2.5800781-1.0800781,3.0605469-4.7402344,3.0605469l-.8007812-1.9609375Zm3.5810547-6.6806641h-9.6621094v1.2197266h9.6621094v-1.2197266Zm0,2.6201172h-9.6621094v1.2802734h9.6621094v-1.2802734Zm-5.9814453-8.8017578c-.5400391.6201172-1.3798828,1.4003906-2.0205078,1.8603516,3.3613281-.0400391,5.5615234-.1005859,7.4619141-.2597656-.5800781-.5400391-1.1601562-1.0205078-1.1601562-1.0205078l1.3203125-.5800781h-5.6015625Z"/>
        <path class="cls-3" d="m94.4541016,56.8868071c-3.140625,0-10.0615234-.4609375-10.0615234-6.421875,0-2.9003906,2.0800781-5.4814453,5.5214844-6.6816406-3.1015625.2001953-7.0820312.4804688-9.4228516.6601562l-.2197266-2.1601562h.8798828c3.6806641,0,10.9824219-.4003906,15.1035156-.8007812l.4404297,2.0205078c-5.7412109.3007812-10.1621094,3.28125-10.1621094,6.8818359,0,3.3007812,3.9404297,4.3212891,6.8408203,4.3212891.4804688,0,.9804688-.0400391,1.4804688-.0800781l-.4003906,2.2607422Z"/>
        <path class="cls-3" d="m107.8730469,51.6856352c-.7802734,1.7998047-1.2011719,3.6005859-1.7607422,4.6005859-.2998047.5400391-.6201172.7998047-.9199219.7998047-.9804688,0-1.6201172-2.5400391-1.6201172-6.1806641,0-2.9208984.3798828-6.4814453,1.0800781-10.0029297l2.1601562.3808594c-1,3.2402344-1.3007812,7.2011719-1.3007812,9.28125,0,1.3603516.1005859,1.9003906.4003906,1.9003906.2001953,0,.5205078-.3994141,1.0205078-1.6201172l.9404297.8408203Zm11.3417969,4.2802734c-1.2001953.140625-2.5400391.2207031-3.8007812.2207031-2.3203125,0-6.0214844,0-6.0214844-3.4208984,0-.5400391.1005859-1.1201172.3007812-1.7607422l1.8798828.3798828c-.1396484.3398438-.2001953.6601562-.2001953.9609375,0,1.6201172,1.5410156,1.8203125,3.3408203,1.8203125,1.3808594,0,3.0410156-.1601562,4.5009766-.4404297v2.2402344Zm-.4003906-11.5820312c-1.7597656.0996094-3.5800781.1796875-5.3203125.1796875-1.1201172,0-2.2207031-.0195312-3.2607422-.0996094l-.0605469-2.0810547c1.0605469.1601562,2.5810547.2402344,4.1210938.2402344,1.6201172,0,3.2607422-.0800781,4.5205078-.2597656v2.0205078Z"/>
        <path class="cls-3" d="m130.6523438,56.166104s-.5195312-.9404297-1.5195312-2c-.8603516,1.4199219-1.8203125,2.5605469-2.8808594,3.5l-1.4609375-1.3798828c1.1005859-.8798828,2.1611328-1.9404297,2.9414062-3.4208984-.7402344-.7197266-1.6005859-1.4599609-2.4804688-2.0205078,0,0,.6992188-2.5400391,1.0996094-6.0810547h-1.0996094v-1.7802734h1.2802734c.0791016-1.0205078.1201172-2.0410156.1201172-3.1210938l1.7802734.0400391c0,1.1201172-.0605469,2.1210938-.1601562,3.0810547h3.1806641c0,4.3007812-.5205078,7.28125-1.4609375,9.5019531,1.3808594,1.3398438,2.0410156,2.2207031,2.0410156,2.2207031l-1.3808594,1.4599609Zm-2.5205078-11.4023438c-.2597656,2.5410156-.6796875,4.3613281-.9599609,5.2207031.4599609.3603516.9404297.8007812,1.3808594,1.2001953.6601562-1.7197266,1.0595703-3.8603516,1.0595703-6.4208984h-1.4804688Zm3.9208984-.2402344v-1.4003906h3.9013672v-1.0595703h-4.4609375v-1.4804688h4.4609375v-.8007812h1.9804688v.8007812h4.7207031v1.4804688h-4.7207031v1.0595703h4.1005859v1.4003906h-9.9824219Zm-.5595703,7.3017578v-1.4804688h2.6601562c-.2001953-.3798828-.4599609-.9199219-.5205078-1.1201172h-1.1201172v-3.8203125h9.1025391v3.8203125h-1s-.1806641.5800781-.4404297,1.1201172h2.6005859v1.4804688h-11.2822266Zm8.6611328,6.0009766v-.7597656h-6.0810547v.7597656h-1.9199219v-5.140625h9.921875v5.140625h-1.9208984Zm0-3.7001953h-6.0810547v1.5h6.0810547v-1.5Zm-.4599609-7.4814453h-5.2607422v1.3398438h5.2607422v-1.3398438Zm-4.0205078,2.5800781c.0800781.2998047.2597656.7597656.4003906,1.1201172h2.1601562c.1601562-.3203125.3203125-.8203125.3798828-1.1201172h-2.9404297Z"/>
        <path class="cls-3" d="m163.7558594,50.9854399c-1.8613281,3.2001953-4.8212891,6.3408203-9.3623047,6.3408203-2.5605469,0-4.9414062-1.2402344-4.9414062-5.140625v-.2402344c.0800781-2.640625.2001953-6.4013672.2001953-10.1220703v-1.3408203l2.3408203.0800781c-.2402344,4.140625-.3408203,8.5820312-.4404297,11.2421875v.2207031c0,2.1005859,1.0605469,3.2402344,2.9208984,3.2402344.4199219,0,.8798828-.0595703,1.3798828-.1796875,2.1806641-.5205078,4.8212891-2.6005859,6.1015625-5.78125l1.8007812,1.6806641Z"/>
        <path class="cls-3" d="m176.5537109,51.9649321c-1.5205078,3.4208984-2.3603516,4.8017578-3.9013672,4.8017578-3.0400391,0-3.2001953-5.7617188-3.2001953-7.5224609,0-2.5800781.3398438-5.5009766.9404297-8.1015625l2.2001953.4404297c-.6601562,2.3603516-1.0800781,5.5009766-1.0800781,8.1015625,0,1.5.1796875,4.4208984,1.1601562,4.4208984.7998047,0,1.8603516-2.4804688,2.2607422-3.7001953l1.6201172,1.5595703Zm7.1816406,1.5605469c-.1806641-2.7802734-1.9003906-7.2011719-3.5205078-9.0419922l1.8203125-1.0205078c1.7802734,2.1611328,3.5400391,6.1220703,3.9404297,9.4023438l-2.2402344.6601562Z"/>
        <path class="cls-3" d="m206.3154297,45.0235259v-2.2001953h-13.2832031v2.2207031h-1.9599609v-3.9208984h7.6210938v-1.3007812h1.9609375v1.3007812h7.6210938v3.9003906h-1.9599609Zm.9599609,12.1630859c-3.3808594-2.5410156-5.3808594-6.9414062-5.9609375-11.1826172h-1c-.2402344.2998047-.5205078.5996094-.8408203.9003906,1.0400391.9404297,2.3808594,2.9199219,2.3808594,7.3808594,0,3.0810547-1.5605469,3.5410156-4.2412109,3.5410156l-.7998047-1.7998047h.2998047c2.2402344,0,2.7802734-.4404297,2.7802734-1.7412109,0-.2998047,0-.5800781-.0195312-.8398438-3.1806641,2.7207031-7.5419922,3.7011719-7.5419922,3.7011719l-1.2001953-1.6201172s5.5810547-1.140625,8.4814453-4.1416016c-.0800781-.3994141-.1992188-.7597656-.2998047-1.0800781-2.7402344,2.2207031-6.9013672,3.4404297-6.9013672,3.4404297l-1.2001953-1.6201172s4.5205078-.9199219,7.3818359-3.3203125c-.2402344-.3398438-.4404297-.5800781-.6005859-.7607422-1.3203125.8408203-2.9599609,1.5205078-4.7412109,1.9404297l-1.2001953-1.7402344c2.640625-.3994141,4.8212891-1.2998047,5.78125-2.2402344h-4.0810547v-1.7001953h11.7832031v1.7001953h-2.2802734c.1396484,1.2802734.4394531,2.6005859.9394531,3.8613281.7802734-.7207031,1.5009766-1.6611328,2.1210938-2.6806641l1.8203125,1.3398438c-.9804688,1.3203125-1.9404297,2.3808594-3.0009766,3.2607422.8808594,1.4599609,2.0205078,2.7607422,3.5410156,3.8007812l-1.4003906,1.6005859Z"/>
        <path class="cls-3" d="m227.875,55.8262602v-1h-4.6611328c0,1.9199219-.6201172,3-4.2607422,3l-.8798828-1.9404297h.7001953c2.0605469,0,2.4003906-.2001953,2.4003906-1.0595703h-6.6015625v-1.5810547h6.6015625v-1.1601562h-8.0019531v-1.4404297h8.0019531v-1.0996094h-6.6220703v-1.5009766h6.6220703v-1h-6.1621094v-3.7802734h6.1621094v-.9804688h-7.6416016v-1.5205078h7.6416016v-.9404297h2.0400391v.9404297h7.7421875v1.5205078h-7.7421875v.9804688h6.2617188v3.7802734h-6.2617188v1h6.6220703v2.6005859h1.3398438v1.4404297h-1.3398438v3.7412109h-1.9609375Zm-6.7011719-11.3027344h-4.140625v1.2207031h4.140625v-1.2207031Zm6.28125,0h-4.2412109v1.2207031h4.2412109v-1.2207031Zm.4199219,5.0214844h-4.6611328v1.0996094h4.6611328v-1.0996094Zm0,2.5400391h-4.6611328v1.1601562h4.6611328v-1.1601562Z"/>
        <path class="cls-3" d="m239.4921875,55.3057524c6.0820312-.5195312,9.6621094-3.6806641,10.5429688-7.6015625-3.1210938,0-10.4228516.0605469-13.2226562.1601562v-2.140625c2.3798828.0605469,5.5410156.1201172,8.4814453.1201172,2.3203125,0,4.5009766-.0400391,6.0615234-.1201172l1.4599609,1.0800781c-1.8203125,5.7617188-4.8808594,9.4619141-11.8427734,10.5830078l-1.4804688-2.0810547Zm11.2626953-12.2226562c-1.3798828-.0595703-3.6806641-.0800781-6.0009766-.0800781-2.3007812,0-4.640625.0205078-6.1210938.0800781v-2c1.2597656.0400391,3.1201172.0595703,5.0410156.0595703,2.640625,0,5.4414062-.0400391,7.0810547-.0800781v2.0205078Z"/>
        <path class="cls-3" d="m259.1728516,55.5860259c6.8808594-1.4199219,10.7421875-5.7412109,12.0224609-10.6621094-.5-.0205078-1.0400391-.0205078-1.6210938-.0205078-1.6796875,0-3.5605469.0605469-5.1601562.1005859-1.2802734,1.7802734-2.9609375,3.3808594-5.1416016,4.6611328l-1.7998047-1.4609375c3.8398438-1.8798828,6.1611328-5.1005859,7.0214844-8.0410156l2.2001953.6396484c-.2998047.7402344-.640625,1.4804688-1.0400391,2.2001953h1.0400391c1.8603516,0,3.9609375-.0400391,5.640625-.1396484l1.4609375,1.3798828c-1.9804688,6.2412109-4.9609375,11.0224609-12.6826172,13.2626953l-1.9404297-1.9199219Z"/>
        <path class="cls-3" d="m278.4726562,44.9239165v-1.7001953h7.78125v1.7001953h-7.78125Zm2.5996094,12.1425781v.7597656h-1.9199219v-6.2207031h6.4414062v5.4609375h-4.5214844Zm-1.7197266-14.9238281v-1.5800781h6.0214844v1.5800781h-6.0214844Zm0,8.2822266v-1.5800781h6.0214844v1.5800781h-6.0214844Zm.0195312-2.7607422v-1.5800781h6.0019531v1.5800781h-6.0019531Zm4.3007812,5.5214844h-2.6005859v2.1806641h2.6005859v-2.1806641Zm11.7226562,4.640625c-1.6201172-.4794922-3.3808594-1.3603516-4.2412109-2.1005859-.859375.7402344-2.5195312,1.640625-4.0800781,2.1005859l-1.1806641-2c1.5205078-.2597656,3.0410156-.7207031,3.78125-1.3007812-1.640625-1.6601562-2.4404297-3.2607422-2.4404297-3.2607422l1.6396484-1.0195312s.7802734,1.6201172,2.2412109,3.0400391c1.0195312-.9003906,1.7802734-2.5605469,1.9199219-3.3007812h-6.3212891v-1.7998047h8.5019531v1.6005859s-.7001953,2.7998047-2.640625,4.6601562c.7802734.5205078,2.1806641,1.1005859,3.9003906,1.3203125l-1.0800781,2.0605469Zm-1.6201172-10.5419922c-1.0800781,0-1.7607422-.6806641-1.7607422-1.7001953v-3.2207031h-2.1796875c-.0205078,2.5400391-.3007812,4.3007812-2.6806641,5.3613281l-1.2001953-1.7207031c1.8603516-.5400391,2.0595703-2.1005859,2.0595703-4.0009766,0-.4599609-.0195312-.9599609-.0195312-1.4404297h5.8613281v4.5214844c0,.3203125.1201172.3994141.5.3994141.5205078,0,.5605469-.1201172.5605469-1.2197266v-1.0400391l1.5595703.9599609c-.0996094,2.5800781-.4394531,3.1005859-1.8203125,3.1005859h-.8798828Z"/>
        <path class="cls-3" d="m302.8730469,57.8262602v-10.3417969c-.4609375.9599609-.9609375,1.6601562-.9609375,1.6601562l-1.0195312-2.2402344c1.4599609-1.6806641,2.9199219-4.7011719,3.6201172-7.0820312l1.8603516.7001953c-.4599609,1.3203125-1,2.8212891-1.5800781,3.9414062v13.3623047h-1.9199219Zm5.4208984-11.3222656v3.4804688c0,1.9804688-.1201172,5.2412109-1.5009766,7.5820312l-1.7402344-1.3398438c1.2607422-1.9414062,1.3408203-4.9814453,1.3408203-6.6816406v-4.6015625h12.5820312v1.5605469h-10.6816406Zm7.7011719-3.4404297v1.2597656h-2v-1.2597656h-2.9609375v1.3398438h-1.9599609v-1.3398438h-2.5205078v-1.5605469h2.5205078v-1.4804688h1.9599609v1.4804688h2.9609375v-1.4804688h2v1.4804688h2.5205078v1.5605469h-2.5205078Zm-.9794922,12.8828125c1.4199219,0,1.6396484-.140625,1.6396484-.6601562v-.5800781h-2.1005859v2.6201172h-1.6796875v-2.6201172h-2.0009766v3.1201172h-1.7197266v-10.3222656h9.2412109v7.7822266c0,2.1005859-.9794922,2.3798828-2.5800781,2.4599609l-.7998047-1.7998047Zm-2.140625-6.8818359h-2.0009766v1.4609375h2.0009766v-1.4609375Zm0,2.8007812h-2.0009766v1.4599609h2.0009766v-1.4599609Zm3.7802734-2.8007812h-2.1005859v1.4609375h2.1005859v-1.4609375Zm0,2.8007812h-2.1005859v1.4599609h2.1005859v-1.4599609Z"/>
        <path class="cls-3" d="m329.5136719,54.5860259c.7001953.0996094,1.2998047.1796875,1.7998047.1796875,1.0205078,0,1.640625-.3398438,1.8203125-1.5605469.2607422-1.6601562.4003906-4.0605469.4003906-5.3007812v-.3798828c-.0400391-1.0400391-.4199219-1.2207031-1.3203125-1.2207031-.3994141,0-1.2001953.0205078-2.1806641.0400391-1.0800781,3.9609375-2.4804688,8.1015625-3.640625,10.6220703l-2.1201172-1.2197266c1.2597656-2.0800781,2.6201172-5.7011719,3.6005859-9.3222656-1.0800781.0400391-2.2001953.1005859-3.140625.1601562l-.1796875-2.1601562c.3994141.0195312.8798828.0195312,1.4199219.0195312.7597656,0,1.5800781,0,2.4208984-.0195312.3398438-1.5410156.6201172-3.0205078.7392578-4.3212891l2.28125.2597656c-.2001953,1.2001953-.5,2.5810547-.8603516,4.0214844.8398438-.0205078,1.5800781-.0205078,2.1005859-.0400391h.0800781c1.6796875,0,2.9404297.5996094,2.9404297,2.6005859,0,2.0400391-.2597656,5.4404297-.4003906,6.6611328-.3398438,2.8007812-1.4599609,3.4404297-5.2607422,3.4404297l-.5-2.4599609Zm10.2617188-4.7207031c-.5-1.7607422-2-4.6611328-3.0800781-6.1220703l1.8798828-.8798828c1.1601562,1.6005859,2.5605469,4.1005859,3.28125,6.0009766l-2.0810547,1.0009766Zm-.1796875-6.9423828c-.5205078-.7392578-1.1806641-1.5595703-1.8203125-2.2402344l1.1601562-.8203125c.6601562.6601562,1.3203125,1.4003906,1.8798828,2.1611328l-1.2197266.8994141Zm1.9199219-1.2001953c-.5-.7402344-1.1601562-1.4804688-1.8603516-2.2001953l1.140625-.7597656c.6796875.6601562,1.3203125,1.3798828,1.8798828,2.1005859l-1.1601562.859375Z"/>
        <path class="cls-3" d="m346.0117188,56.0459868c3.2412109-1.3603516,4.8417969-2.7607422,5.1416016-6.4208984l1.9404297.0800781c-.3603516,4.9804688-2.7802734,6.6005859-5.6611328,8.1210938l-1.4208984-1.7802734Zm15.6640625-5.8007812c-.3398438-.6005859-.7001953-1.1806641-1.0800781-1.7001953-3.8613281.5195312-7.8222656.5595703-13.7431641.5595703l-.2998047-1.9804688c.8798828.0205078,1.6396484.0400391,2.4404297.0605469,1.1796875-1.1210938,2.5205078-2.7011719,3.0400391-3.6416016h-5.5810547v-1.7998047h7.4814453v-1.9208984h2.1005859v1.9208984h7.4619141v1.7998047h-9.0019531c-.5.8808594-1.7802734,2.4804688-2.9609375,3.6611328,3.8808594-.0195312,6.5019531-.1601562,7.921875-.3398438-1-1.3408203-1.8408203-2.2607422-1.8408203-2.2607422l1.7412109-.7998047s2.0595703,2.2597656,4.140625,5.3212891l-1.8203125,1.1201172Zm-3.28125,7.0810547c-1.0800781,0-1.9404297-.2597656-1.9404297-1.9804688v-5.640625h1.9404297v5.1210938c0,.4199219.1201172.7001953.8007812.7001953h1.5800781c1.0605469,0,1.0996094-.0400391,1.2001953-3.1806641l2,1.0800781c-.2197266,2.9003906-.7802734,3.9003906-2.6806641,3.9003906h-2.9003906Z"/>
        <path class="cls-3" d="m385.5556641,57.706143s-5.4208984-.8798828-8.2216797-4.8603516c-1.3798828,2.5800781-4.2607422,4-7.7216797,4.8808594l-1.1201172-1.9003906c3.1005859-.5,5.5410156-1.6005859,6.7617188-3.1806641h-6.3017578v-1.7607422h7.1220703c.1591797-.4199219.2792969-.9404297.3398438-1.4003906h-5.1210938v-1.6601562h5.2412109v-1.4804688h-5.9619141v-1.0195312h-1.7001953v-3.9609375h7.6220703v-1.5410156h1.9599609v1.5410156h7.6220703v3.9404297h-1.6601562v1.0400391h-5.921875v1.4804688h5.2207031v1.6601562h-5.3007812c-.0400391.4599609-.1201172.9804688-.2597656,1.4003906h7.8417969v1.7607422h-6.5820312c2.5214844,2.6806641,7.0419922,3.2207031,7.0419922,3.2207031l-.9003906,1.8398438Zm-1.4404297-14.6025391h-13.2822266v1.5800781h5.7011719v-1.1201172h1.9599609v1.1201172h5.6210938v-1.5800781Z"/>
        <path class="cls-3" d="m394.0742188,51.8448149l-.2802734-11.1220703h2.4003906l-.2597656,11.1220703h-1.8603516Zm-.2402344,4.4814453v-2.6601562h2.3398438v2.6601562h-2.3398438Z"/>
      </g>
    </g>
  </g>
</svg>