<?xml version="1.0" encoding="UTF-8"?>
<svg id="_レイヤー_2" data-name="レイヤー 2" xmlns="http://www.w3.org/2000/svg" viewBox="0 0 188.8005302 85.421875">
  <defs>
    <style>
      .cls-1 {
        fill: #1e2973;
      }

      .cls-1, .cls-2, .cls-3 {
        stroke-width: 0px;
      }

      .cls-3 {
        fill: #de0012;
      }
    </style>
  </defs>
  <g id="_レイヤー_1-2" data-name="レイヤー 1">
    <g>
      <g>
        <path class="cls-1" d="m23.4006233,38.9771987h3.7956337c1.2272221,0,2.8010088.2051414,2.8010088,1.6727311v13.2004646s-4.2696347,1.5671249-11.9826401,1.5671249c-7.7088611,0-18.0146257-4.2447689-18.0146257-16.0015459,0-11.7495245,10.7512737-16.3232449,18.692214-16.3232449,3.584794,0,8.0538716.2113578,8.0538716,2.222883v3.924624c-3.0170289-2.4616966-4.2416608-2.9181577-8.825742-2.9181577-4.6027304,0-12.8342876,3.0119218-12.8342876,12.8276262,0,9.7649371,11.0372284,15.5959255,20.2266301,11.9054527v-7.4929137c0-1.5716416-.1243281-4.5850442-1.9120628-4.5850442Z"/>
        <path class="cls-1" d="m81.0427633,54.6176751h9.7260848c-2.6792709-1.0065397-3.7956337-4.2406247-4.6964945-6.5971604-.9055231-2.3399587-7.9481927-19.4651199-8.7154008-21.8159573-.7998442-2.344621-1.900148-2.344621-2.8175859-2.344621h-5.5688635c2.6740905.8998247,1.2008024,2.8010087.7552933,4.1405709-.4387746,1.3334923-9.8317637,24.6217016-9.8317637,24.6217016-3.2516982-.8946444-11.4387046-12.8721038-11.4387046-12.8721038,10.8543624-3.1232258,9.1982083-15.8901687-1.440652-15.8901687h-12.1986602c2.4679131.5563683,2.2451585,3.1403209,2.2451585,5.1518461v21.1425133c0,2.9020253-.8987887,3.6960985-2.3508374,4.4633792h8.9428177c-2.4565163-1.1122186-1.8017216-3.6904728-1.8017216-4.9182129v-22.8105822h4.8254849c2.5855067,0,4.47374,3.1351405,4.47374,5.2627053,0,3.4464788-2.6953299,4.797511-5.362686,5.7983523-2.6958479,1.0049856-1.2339565,3.2454817,0,5.0295901,1.2267041,1.7955051,4.8021734,6.8405636,6.9463154,9.303887,2.1182402,2.4622146,4.0230506,2.3342603,5.024928,2.3342603h8.0533536c-3.1175275-.9946249-1.4453143-3.4449247-1.0060217-4.6788813.4574239-1.2401729,2.4632508-6.4982159,2.4632508-6.4982159h12.0836566s1.4613734,3.7956336,2.8010088,7.1690697c1.3562125,3.3402819.321181,3.7909713-1.1117006,4.0080275Zm-12.5395264-14.7572288l4.5840812-11.971243,4.9311638,11.971243h-9.515245Z"/>
        <path class="cls-1" d="m179.0459535,54.6176751h9.7545766c-2.7025824-1.0065397-3.8122108-4.2406247-4.7011568-6.5971604-.8894641-2.3399587-7.9502649-19.4651199-8.7267976-21.8159573-.7910376-2.344621-1.8908234-2.344621-2.8082613-2.344621h-5.5833684c2.7005103.8998247,1.2272221,2.8010087.7718704,4.1405709-.4455091,1.3334923-9.8483408,24.6217016-9.8483408,24.6217016-.6237127,1.4618914-1.5411506,1.4836488-2.1182402,1.9954662h8.0585339c-3.1346226-.9946249-1.4572291-3.4449247-1.011202-4.6788813.4434369-1.2401729,2.4725754-6.4982159,2.4725754-6.4982159h12.0789943s1.4732882,3.7956336,2.8103334,7.1690697c1.3349731,3.3402819.3237711,3.7909713-1.149517,4.0080275Zm-12.5151788-14.7572288l4.5840812-11.971243,4.9192491,11.971243h-9.5033302Z"/>
        <path class="cls-1" d="m144.6267511,55.1901024c1.1163629-1.011202,2.1275649-1.8007581,2.1275649-5.3700111v-21.1476209c0-1.6722131-.1289904-3.5904922-2.1275649-4.2561657h8.5978071c-.888946.7936278-1.9519514,1.7882527-1.9519514,4.0396275v21.3641591c0,1.9074732-.3895614,4.709518,2.0783516,5.3700111h-8.7242074Z"/>
        <path class="cls-1" d="m98.2663514,31.0129471s-.1103412,16.8904192-.1103412,18.8071443c0,1.9074732.2274168,4.709518,2.6885955,5.3700111h-8.1756096c1.1401924-1.011202,2.0125614-1.8007581,2.0125614-5.3700111,0-3.5728064.2393316-19.4852505.2393316-21.1476209,0-1.6722131-.2393316-3.5904922-2.251893-4.2561657h6.2868583l18.7864961,23.6042099v-19.2304506c0-1.2396549.2274168-3.5801316-2.3461751-4.4747759h8.3869674c-.9946249.76669-2.4751655,1.1117005-2.4751655,4.3571823v27.7619492s-2.3342603.4284139-6.1298941-4.1510048c-3.8168731-4.5794188-16.9117318-21.2704677-16.9117318-21.2704677Z"/>
        <path class="cls-3" d="m151.7393553,79.0118865c-24.6060879-20.7426638-34.0249787-45.1533798-.3657319-78.4624349,1.0557529-1.0552348,2.0550401-.4278959,1.2267041.5164797-14.7510127,16.869179-31.2079108,43.8463805-.337758,76.9181762.4786632.4999026.3004596,1.6002064-.5232141,1.0277791Z"/>
      </g>
      <g>
        <path class="cls-2" d="m2.8920898,83.7011719c-.2602539.5-.3203125.6201172-.5200195.6201172-.1401367,0-.2001953-.1396484-.2602539-.2998047l-.6601562-1.640625c.3203125.0205078.8603516.0800781,1.1401367.0800781.840332,0,1.9404297-.1201172,2.7807617-.2197266v-2.7207031h-.6401367c-.7001953,0-1.8203125.0800781-2.5805664.2402344l-.4599609-.8798828c1.5.1396484,2.9404297.1591797,3.3208008.1591797h.3598633v-2.8203125h-2.1806641c.0400391.7197266-.7197266.7998047-.7998047.7998047-.340332,0-.340332-.2392578-.340332-.5996094,0-.1201172,0-.2001953.0200195-.3798828.0800781-1.2207031.0800781-3.1806641.0800781-4.4609375,0-2.8007812-.0200195-2.9609375-.1601562-3.640625l1.5405273.7197266h4.7807617l.5405273-.4804688c.1396484-.1396484.1796875-.1396484.2397461-.1396484.1201172,0,.1801758.0595703.2802734.1396484l.7001953.5800781c.0800781.0605469.1796875.1601562.1796875.2607422,0,.1601562-.0595703.2001953-.6401367.5400391-.0200195.7197266-.0200195,1.1601562-.0200195,2,0,1.1806641.1201172,3.0810547.1201172,4.28125,0,.8398438-.7797852.8398438-.8198242.8398438-.2802734,0-.2802734-.1601562-.2602539-.4599609h-2.340332v2.8203125h1.9003906l.6000977-.7001953c.199707-.2197266.2197266-.2392578.3198242-.2392578.1201172,0,.2802734.1396484.3803711.2392578l.6601562.6601562c.1796875.1806641.1796875.2607422.1796875.3007812,0,.1796875-.159668.2197266-.2998047.2197266h-3.7407227v2.6005859c2.4604492-.3398438,3.4604492-.5400391,4.480957-.7207031l.0600586.1201172c-1.0405273.4208984-6.3813477,1.78125-7.9418945,2.1806641Zm2.4804688-14.5625h-2.1806641v2.9199219h2.1806641v-2.9199219Zm0,3.4003906h-2.1806641v3.2001953h2.1806641v-3.2001953Zm3.2607422-3.4003906h-2.340332v2.9199219h2.340332v-2.9199219Zm0,3.4003906h-2.340332v3.2001953h2.340332v-3.2001953Zm9.7421875,2.4208984c-.2001953.1591797-1.7602539,1.3994141-2.5605469,2.0400391l-.1000977-.0800781c.4799805-.6796875,1.2602539-2.1201172,1.3603516-2.640625h-2.4003906c0,1.8603516,0,4.7607422.0200195,6.5410156,0,.2802734.0595703,1.6005859.0595703,1.9003906,0,1.0410156,0,1.9414062-2.1201172,2.4609375-.0600586-.2597656-.1000977-.4804688-.4604492-.7802734-.3798828-.3398438-.9599609-.6796875-1.9003906-1v-.0996094c.8603516.0996094,1.8007812.1796875,2.2807617.1796875.7602539,0,1.0800781-.0400391,1.0800781-.8798828v-8.3222656h-.8999023c-.4003906,0-1.6206055.0400391-2.5805664.2197266l-.4604492-.859375c1.0405273.0791016,2.2807617.1591797,3.3208008.1591797h3.7807617l.6000977-.5595703c.2202148-.2001953.2802734-.2001953.3203125-.2001953.0800781,0,.1601562.0400391.3398438.2001953l1.2402344,1.0400391c.0800781.0800781.1401367.1796875.1401367.2802734,0,.4003906-.4599609.4003906-1.0600586.4003906Zm-1.6806641-5.4619141c-.8198242.6005859-.9199219.7001953-2.6201172,2.0605469.2797852.140625,1.0200195.5605469,1.0200195,1.2207031,0,.3994141-.2602539.7402344-.6401367.7402344-.2802734,0-.3203125-.0605469-.9404297-.8603516-.7001953-.8798828-1.0400391-1.2207031-1.9204102-1.6601562v-.1201172c.3603516.0195312,1.3803711.1201172,2.2607422.5595703.9399414-1.2597656,1.2202148-1.8798828,1.5004883-2.5205078h-1.8408203c-.3999023,0-1.6201172.0605469-2.5805664.2402344l-.4599609-.8603516c1.0205078.0800781,2.2807617.140625,3.3208008.140625h1.5205078l.6796875-.5400391c.1401367-.1201172.1601562-.1201172.2202148-.1201172.1000977,0,.1601562.0400391.2202148.0800781l1.1201172.9794922c.1000977.0800781.1601562.1806641.1601562.2802734,0,.3398438-.340332.3603516-1.0205078.3798828Z"/>
        <path class="cls-2" d="m41.3955078,74.3398438h-14.8037109c-.699707,0-1.7998047.0800781-2.5600586.2392578l-.4799805-.8603516c1.5004883.1201172,2.9599609.140625,3.3212891.140625h5.0410156v-3.0009766h-3.4414062c-.7001953,0-1.8203125.0800781-2.5805664.2402344l-.4599609-.8603516c1.5004883.1201172,2.940918.140625,3.3208008.140625h3.140625c-.0400391-2.0410156-.0400391-2.4804688-.4404297-3.5615234l2.0410156.6005859c.1992188.0595703.4003906.0996094.4003906.3398438,0,.1601562,0,.2802734-.8203125.7207031,0,.4199219-.0205078,1.2802734-.0205078,1.9003906h4.0410156l.6601562-.8603516c.1796875-.2402344.2197266-.2802734.3193359-.2802734.0800781,0,.1806641.0605469.3613281.2001953l1.0996094.9003906c.0996094.0800781.2001953.1796875.2001953.3193359,0,.1806641-.1601562.2001953-.2998047.2001953h-6.3818359c-.0205078.4804688-.0205078.7402344-.0205078,3.0009766h6.1210938l.5810547-.7998047c.1396484-.1806641.2001953-.2607422.2998047-.2607422s.2597656.1201172.3808594.2001953l1.0996094.8203125c.0996094.0800781.1992188.1796875.1992188.3203125,0,.1796875-.1796875.2001953-.3193359.2001953Zm-.2402344,3.7207031h-5.0009766c.0195312,1.3203125.0605469,3.4199219.0605469,4.7402344,0,.8808594-.1005859,1.3603516-.640625,1.8408203-.2402344.2001953-.7802734.6396484-1.6796875.7802734-.0800781-.3603516-.1601562-.5800781-.5009766-.8603516-.2197266-.1796875-.7998047-.6396484-1.9208984-1.0205078v-.1396484c.5810547.0195312,1.4208984.0800781,2.8212891.0800781.5205078,0,.8203125-.0400391.8203125-.7402344-.0205078-2.6201172-.0205078-2.9003906-.0205078-4.6806641h-8.1210938c-.7001953,0-1.8007812.0800781-2.5610352.2197266l-.4799805-.8603516c1.5004883.1201172,2.9609375.1601562,3.3203125.1601562h7.8417969c0-1.3603516,0-1.8408203-.2597656-2.7607422l1.4804688.4199219c.140625.0400391.4394531.1201172.4394531.3808594,0,.1992188-.0595703.2392578-.5996094.5800781-.0195312.2392578-.0195312.359375,0,1.3798828h2.7607422l.5800781-.8203125c.1806641-.2597656.2197266-.2597656.3193359-.2597656.0605469,0,.1210938.0195312.3808594.2197266l1.0605469.8203125c.0996094.0800781.1992188.1796875.1992188.2998047,0,.1806641-.1796875.2207031-.2998047.2207031Zm-11.2216797,4.5205078c-.5,0-.5605469-.1201172-1.0009766-1.1601562-.3798828-.8798828-.9199219-1.8408203-1.6201172-2.3408203v-.1201172c.9003906.2402344,1.7402344.6806641,2.4804688,1.3007812.640625.5205078.8603516.9599609.8603516,1.5205078,0,.4199219-.2197266.7998047-.7197266.7998047Z"/>
        <path class="cls-2" d="m52.5527344,79.6806641v2.1005859c0,.9199219.6210938,1.4199219,1.4003906,1.4199219h.3203125v.640625h-4.7011719v-.640625c.4199219,0,1.7207031,0,1.7207031-1.4599609v-2.0605469h-5.6015625v-.7001953l6.3017578-10.1025391h.5595703v10.1621094h2.3808594v.640625h-2.3808594Zm-1.2597656-8.421875l-4.8417969,7.78125h4.8417969v-7.78125Z"/>
        <path class="cls-2" d="m76.515625,69.5185547h-7.9619141c0,.2597656.0595703,5.9013672.0595703,6.0615234v5.1210938c0,2.9599609,0,3.0605469-.6191406,3.6005859-.2597656.2197266-.78125.5800781-1.8408203.6796875-.0595703-.6396484-.1005859-.9599609-2.5009766-2.0605469l.0605469-.1396484c.2792969.0400391,2.0996094.2197266,2.7207031.2197266,1,0,1.0195312-.2392578,1.0195312-1.6601562v-11.8222656h-5.5605469c-.6201172,0-1.7402344.0800781-2.5605469.2402344l-.4804688-.8603516c1.1005859.0800781,2.2207031.1396484,3.3203125.1396484h11.5429688l.9199219-1.0800781c.1005859-.1201172.2402344-.2402344.3203125-.2402344s.2597656.1201172.3603516.2001953l1.2998047,1.0800781c.0996094.1005859.2001953.2001953.2001953.3203125,0,.1796875-.1796875.2001953-.2998047.2001953Z"/>
        <path class="cls-2" d="m93.1953125,69.8789062c-.0205078.359375-.0410156.9199219-.0410156,2.2197266,0,3.1210938.1005859,6.2412109.2011719,9.3623047,0,.3203125.0595703,1.8808594.0595703,2.0205078,0,.7001953-.6601562.9003906-.9794922.9003906-.4208984,0-.3808594-.3408203-.3613281-.7402344h-7.8613281c.0400391.4599609.0400391.5195312-.0390625.6396484-.1806641.3007812-.5605469.4599609-.8203125.4599609-.4208984,0-.4208984-.2998047-.4208984-.4394531,0-.3603516.0800781-1.9609375.0800781-2.2802734.0800781-2.5605469.1005859-5.1015625.1005859-7.6621094,0-2.140625,0-4.640625-.3398438-6.4208984l1.8798828.7998047h7.0009766l.5-.5c.1210938-.1201172.2207031-.2001953.3808594-.2001953.1191406,0,.2597656.0996094.3203125.1396484l.859375.640625c.2402344.1796875.2597656.2802734.2597656.3603516,0,.1396484,0,.2197266-.7792969.7001953Zm-1.1210938-.6601562h-7.8613281v4.2802734h7.8613281v-4.2802734Zm0,4.7607422h-7.8613281v4.3007812h7.8613281v-4.3007812Zm0,4.78125h-7.8613281v4.4003906h7.8613281v-4.4003906Z"/>
        <path class="cls-2" d="m100.1523438,83.8417969v-.640625h.6992188c1.3203125,0,1.9609375-.5996094,1.9609375-1.9599609v-9.0019531c0-1.3007812-.4599609-1.8808594-1.9804688-1.8808594h-.6796875v-.5400391h.3203125c1.2197266,0,2.6796875-.5400391,3.0605469-.7597656.1396484-.0800781.2988281-.1806641.4199219-.1806641.0996094,0,.1396484.1005859.1396484.2001953v12.1630859c0,1.1396484.4599609,1.9599609,1.7607422,1.9599609h.9003906v.640625h-6.6015625Z"/>
        <path class="cls-2" d="m115.5527344,81.5205078c-2.2207031,2.6005859-3.2607422,3.3212891-4.1210938,3.8613281l-.0605469-.1005859c1.1210938-1.2402344,2.2412109-2.7597656,2.9013672-4.3203125.1591797-.4003906.1796875-.6201172.1796875-1.0800781l1.7207031,1.0400391c.0800781.0400391.1591797.0996094.1591797.2197266,0,.2802734-.2392578.3203125-.7792969.3798828Zm6.2617188-10.7421875h-2.6015625c0,1.140625.0800781,6.7021484.0605469,7.9619141h.8808594l.3789062-.4404297c.2011719-.2197266.2402344-.2597656.3398438-.2597656.1005859,0,.1806641.0605469.3613281.2197266l.5.4404297c.0996094.0800781.1992188.1601562.1992188.2998047,0,.2207031-.2197266.2207031-.2998047.2207031h-6.9619141c-.3994141,0-1.6191406.0400391-2.5800781.2197266l-.4804688-.8603516c.8808594.0800781,1.0410156.0800781,2.5009766.140625.0205078-4.4013672.0205078-4.8818359-.0205078-7.9023438-.9804688.0800781-1.2197266.1201172-1.5400391.1806641l-.4599609-.8603516c.8203125.0800781,1.8603516.1201172,1.9804688.1201172-.0195312-.4599609-.0195312-.5400391-.0195312-1.3408203,0-.8398438-.1806641-1.5195312-.3203125-1.8203125l1.8603516.4199219c.2001953.0400391.2197266.2001953.2197266.3007812,0,.1796875-.1796875.2792969-.5996094.5-.0410156.9003906-.0410156,1.0400391-.0410156,1.9804688h3.0410156c0-.5400391-.0390625-2.0009766-.0800781-2.4404297-.0195312-.1005859-.1992188-.7001953-.2402344-.8203125l1.7607422.4199219c.1005859.0195312.2402344.0800781.2402344.2402344,0,.2597656-.2197266.3994141-.6201172.6396484-.0195312.5800781-.0400391.9003906-.0605469,1.9609375h1l.4414062-.5c.1591797-.2001953.21875-.2402344.3193359-.2402344s.1201172.0195312.3603516.2197266l.5800781.4804688c.0800781.0595703.1992188.1601562.1992188.2998047,0,.2197266-.21875.2197266-.2988281.2197266Zm-6.6816406,5.4414062v.9199219c0,.8007812-.0205078.9003906,0,1.6005859h3.0800781c.0195312-.3603516.0195312-2.1201172.0195312-2.5205078h-3.0996094Zm3.0996094-2.9003906h-3.0800781c-.0195312,1.1201172-.0195312,1.2597656-.0195312,2.4199219h3.0996094v-2.4199219Zm0-2.5410156h-3.0605469c0,.4208984-.0195312.5800781-.0195312,2.0605469h3.0800781v-2.0605469Zm1.4414062,12.4833984c-.4199219,0-.5800781-.3203125-.8203125-.7607422-.8808594-1.6601562-1.2802734-1.9404297-1.6806641-2.2607422v-.0800781c1.5205078.5009766,3.1005859,1.0410156,3.1005859,2.28125,0,.2998047-.1796875.8203125-.5996094.8203125Zm8.7421875-14.1435547c0,7.5820312.0585938,8.4423828.0585938,13.6025391v.0605469c0,1.0400391-.1992188,1.8603516-2.0800781,2.3408203-.4394531-1.0410156-.8798828-1.2607422-2.140625-1.8408203v-.0996094c.640625.0595703,1.5009766.0996094,1.8613281.0996094.859375,0,1.2792969,0,1.2792969-.7402344v-5.4208984h-3.7207031c-.1396484,2.3798828-.359375,5.7412109-4.4199219,8.2021484l-.0605469-.1201172c.640625-.6601562,1.6201172-1.6611328,2.3603516-3.1806641.6806641-1.4208984,1.2402344-2.8613281,1.2402344-9.6025391,0-1.7607422,0-3.7802734-.3398438-5.2412109l1.7001953.8007812h3.1210938l.359375-.4404297c.1601562-.1806641.1601562-.2197266.2402344-.2197266.0605469,0,.0800781.0195312.2802734.1796875l.8408203.7001953c.1386719.1201172.21875.1796875.21875.2998047,0,.1796875-.0800781.2197266-.7988281.6201172Zm-1.0214844,3.7011719h-3.5400391c-.0205078.3193359-.1396484,3.2402344-.1601562,3.8203125h3.7001953v-3.8203125Zm0-4.3613281h-3.5400391v3.8808594h3.5400391v-3.8808594Z"/>
      </g>
    </g>
  </g>
</svg>