<?xml version="1.0" encoding="UTF-8"?>
<svg id="_レイヤー_2" data-name="レイヤー 2" xmlns="http://www.w3.org/2000/svg" viewBox="0 0 177.3422852 61.1074219">
  <defs>
    <style>
      .cls-1 {
        fill: #0e0000;
        stroke-width: 0px;
      }
    </style>
  </defs>
  <g id="_レイヤー_1-2" data-name="レイヤー 1">
    <g>
      <g>
        <path class="cls-1" d="m9.0754395,36.6989746c-1.800293-2.9211426-4.4091797-6.375-6.595459-8.9837646h3.1416016c.6982422.8634033,1.5065918,1.8739014,2.333252,2.9578857,2.7373047-1.230957,4.5930176-3.2150879,5.3278809-6.1912842H.440918v-2.3515625h15.8913574v.1837158c-.440918,5.5114746-3.2333984,8.6530762-6.9445801,10.2697754,1.0656738,1.4512939,2.0576172,2.9210205,2.8110352,4.1152344h-3.123291Z"/>
        <path class="cls-1" d="m28.0649414,36.6989746c-1.800293-2.9211426-4.4091797-6.375-6.5952148-8.9837646h3.1413574c.6982422.8634033,1.5065918,1.8739014,2.333252,2.9578857,2.7373047-1.230957,4.5927734-3.2150879,5.3276367-6.1912842h-12.8415527v-2.3515625h15.8913574v.1837158c-.440918,5.5114746-3.2333984,8.6530762-6.9443359,10.2697754,1.0654297,1.4512939,2.0576172,2.9210205,2.810791,4.1152344h-3.123291Z"/>
        <path class="cls-1" d="m53.4584961,36.9194336c-2.810791-1.0839844-4.9602051-3.1599121-6.3198242-5.5666504-2.5717773,2.8659668-5.9155273,4.6296387-9.0202637,5.3828125v-2.4250488c4.170166-1.2124023,8.5610352-4.7214355,9.9941406-9.975708h-9.1123047v-2.3515625h12.0517578v-1.2677002h1.4145508v2.682373h-1.4145508v-.1654053c-.4042969,2.241333-1.1940918,4.1887207-2.2229004,5.8789062,1.0288086,2.5169678,2.9208984,4.0968018,4.6293945,5.1256104v2.682373Zm-.3122559-13.5214844v-2.682373h1.4147949v2.682373h-1.4147949Z"/>
        <path class="cls-1" d="m56.6853027,34.0900879c2.6821289-2.6455078,3.5639648-6.6872559,3.5639648-11.3719482v-1.0838623h2.5905762v1.010376c0,7.5140381-2.1862793,12.088501-6.154541,14.2930908v-2.8476562Zm15.7443848,2.8659668c-3.9682617-2.2229004-6.1728516-6.8342285-6.1728516-14.3114014v-1.010376h2.6271973v1.1022949c0,4.6662598.8635254,8.6896973,3.5456543,11.3352051v2.8842773Z"/>
        <path class="cls-1" d="m76.1960449,30.4342041c-.2570801-1.8187256-.8449707-4.5377197-1.4328613-6.4852295h2.3515625c.5693359,1.7821045,1.1572266,4.4091797,1.4880371,6.4852295h-2.4067383Zm1.5432129,4.262207c6.0444336-1.2492676,7.9182129-4.6480713,7.9550781-10.5820312v-.2388916h2.5534668v.2573242c-.1101074,7.9365234-3.7109375,11.7393799-10.5085449,12.8232422v-2.2596436Zm3.0681152-4.4276123c-.2387695-1.8554688-.7900391-4.482666-1.3596191-6.4667969h2.3701172c.5693359,1.7636719,1.0654297,4.2071533,1.4328613,6.4667969h-2.4433594Z"/>
        <path class="cls-1" d="m97.027832,36.552002c-2.9577637,0-4.3723145-1.010498-4.3723145-3.8947754v-11.2250977h2.5537109v3.2333984h11.0595703v2.3148193h-11.0595703v5.2175293c0,1.5616455.7348633,2.020874,2.3515625,2.020874h9.0202637v2.3515625l-9.5532227-.0183105Zm7.8447266-12.4191895c-1.0102539,0-1.8371582-.8452148-1.8371582-1.8371582,0-1.0288086.8269043-1.8555908,1.8371582-1.8555908,1.0288086,0,1.8554688.8267822,1.8554688,1.8555908,0,.9919434-.8266602,1.8371582-1.8554688,1.8371582Zm0-2.7374268c-.4775391,0-.8632812.4041748-.8632812.9002686,0,.4775391.3857422.8634033.8632812.8634033.4777832,0,.8818359-.3858643.8818359-.8634033,0-.4960938-.4040527-.9002686-.8818359-.9002686Z"/>
        <path class="cls-1" d="m109.9858398,29.4604492v-2.4066162h15.2668457v2.4066162h-15.2668457Z"/>
        <path class="cls-1" d="m127.7692871,34.3840332c5.6401367-1.0838623,8.9470215-4.6662598,9.4431152-10.0859375h-11.4455566v-2.3515625h12.5478516c.0183105-.9920654.8266602-1.800415,1.800293-1.800415.9921875,0,1.8188477.8267822,1.8188477,1.8187256,0,.9737549-.8266602,1.8005371-1.8188477,1.8005371h-.1469727c-.5510254,8.1936035-5.7868652,12.1618652-12.1987305,12.9335938v-2.3149414Zm12.3457031-13.2641602c-.440918,0-.8266602.3674316-.8266602.8449707,0,.440918.3857422.8267822.8266602.8267822.4777832,0,.8452148-.3858643.8452148-.8267822,0-.4775391-.3674316-.8449707-.8452148-.8449707Z"/>
        <path class="cls-1" d="m159.5068359,26.6864014c-.440918,5.9523926-4.4643555,9.8656006-12.9887695,10.067627v-2.3148193c5.4196777-.3674316,8.8000488-2.2597656,9.9206543-5.8421631h-12.2539062v-2.2596436h15.3220215v.348999Zm-14.2749023-2.4985352v-2.3515625h13.2644043v2.3515625h-13.2644043Z"/>
        <path class="cls-1" d="m177.3422852,36.9194336c-2.810791-1.0839844-4.9602051-3.1599121-6.3198242-5.5666504-2.5720215,2.8659668-5.9155273,4.6296387-9.0205078,5.3828125v-2.4250488c4.1704102-1.2124023,8.5612793-4.7214355,9.9941406-9.975708h-9.1123047v-2.3515625h12.2355957c-.3122559,2.7740479-1.1940918,5.1256104-2.4250488,7.1281738,1.0471191,2.5169678,2.9394531,4.0968018,4.6479492,5.1256104v2.682373Z"/>
        <path class="cls-1" d="m0,58.9212646c.661377-1.6901855.8449707-4.2437744.8449707-8.2304688v-2.4250488h6.8710938v6.4667969H2.9946289c-.1103516,2.241333-.3308105,4.0601807-1.1943359,6.3748779l-1.800293-2.1861572Zm.5693359-11.7393799v-2.1311035h7.5507812v2.1311035H.5693359Zm4.9421387,3.1230469h-2.4436035v2.3699951h2.4436035v-2.3699951Zm7.2199707,10.8024902v-9.0019531h-1.8371582c-.1838379,3.9865723-.7717285,6.9443359-1.9475098,9.0019531l-1.8186035-2.0759277c1.1022949-2.0024414,1.5615234-4.5928955,1.5615234-9.3695068v-4.2071533s4.5561523,0,6.7055664-.8818359l1.1208496,2.2045898c-2.425293.6798096-5.5666504.8083496-5.5666504.8083496v2.3149414h5.6398926v2.2045898h-1.6533203v9.0019531h-2.2045898Z"/>
        <path class="cls-1" d="m22.7412109,52.7299805c-1.6904297-1.1573486-3.3620605-2.0759277-3.3620605-2.0759277l1.2675781-1.9841309s1.6350098.8083496,3.4355469,2.0024414l-1.3410645,2.0576172Zm-3.1967773,6.5771484c1.9472656-2.7189941,2.902832-5.8973389,2.902832-5.8973389l1.9472656,1.1942139s-1.010498,3.5823975-2.7006836,6.0441895l-2.1494141-1.3410645Zm3.8947754-10.4534912c-1.6901855-1.2860107-3.3251953-2.3331299-3.3251953-2.3331299l1.451416-1.8740234s1.7636719,1.0472412,3.4169922,2.2965088l-1.5432129,1.9106445Zm11.2067871,12.2354736c-2.5537109-2.0393066-3.8950195-4.8684082-4.5012207-8.4692383h-2.369873c-.1469727,3.2884521-.9370117,6.4116211-2.4802246,8.4875488l-1.9106445-1.9656982c1.7636719-2.3699951,2.2045898-4.9786377,2.2045898-9.9390869v-4.1887207h9.8654785v7.605957h-3.0126953c.440918,2.6821289,1.5981445,4.6296387,3.6557617,6.1728516l-1.4511719,2.2963867Zm-1.5249023-13.9072266h-5.2727051v3.251709h5.2727051v-3.251709Z"/>
        <path class="cls-1" d="m39.3989258,58.7558594c2.2966309-.0366211,2.6455078-.569458,2.6455078-2.4250488,0-.6429443-.0366211-1.4512939-.0549316-2.4616699-.7165527,1.3410645-1.5249023,2.4250488-2.5537109,3.3986816l-.9736328-2.369873c1.1757812-.8635254,2.2963867-2.0025635,3.1413574-3.34375-.128418-.5878906-.2570801-.8266602-.4592285-1.3410645-.4775391.4776611-1.0654297.9185791-1.7084961,1.2675781l-.9736328-2.1861572c.6428223-.3123779,1.1757812-.7164307,1.6533203-1.1207275-.4226074-.7714844-.9367676-1.4880371-1.4697266-2.1494141l1.671875-1.451416c.4592285.6430664.9736328,1.4146729,1.3596191,2.1311035.4958496-.5510254.918457-1.1573486,1.3227539-1.9106445l1.7819824,1.3044434c-.6799316,1.0471191-1.2678223,1.7636719-1.9841309,2.4802246,1.0654297,2.369873,1.3227539,4.5561523,1.3227539,7.8996582,0,2.902832-.5695801,4.4276123-3.8764648,4.6296387l-.8452148-2.3515625Zm14.1645508,2.3515625c-1.8737793-1.1206055-3.3068848-3.6008301-3.7844238-6.1544189-.5695801,2.4250488-2.1311035,4.8685303-4.0969238,6.1544189l-1.5063477-2.1494141c2.0390625-1.1206055,3.2700195-2.8476562,3.729248-4.5009766h-3.472168v-2.0760498h3.9865723c.0368652-.5511475.1103516-1.800415.1103516-2.4066162v-1.9475098h-3.6560059v-2.0576172h3.6560059v-1.3962402h2.2045898v1.3962402h3.8027344v2.0576172h-3.8027344v1.9475098c0,.6796875-.0734863,1.7636719-.1286621,2.4066162h4.1704102v2.0760498h-3.1599121c.4960938,1.8554688,1.5615234,3.4169922,3.3618164,4.3907471l-1.4145508,2.2596436Zm-7.2751465-8.9101562s-.6796875-1.671875-1.4880371-3.0864258l1.8371582-.8635254c.8083496,1.4146729,1.3596191,3.0498047,1.3596191,3.0498047l-1.7087402.9001465Zm4.7583008-.9001465s.9187012-1.451416,1.3596191-3.0498047l1.8554688.8635254c-.5878906,1.7453613-1.4882812,3.0864258-1.4882812,3.0864258l-1.7268066-.9001465Z"/>
        <path class="cls-1" d="m71.1181641,61.1074219v-1.359375h-10.5085449v1.359375h-2.3881836v-14.2194824h2.3881836v10.4716797h4.0234375v-12.7866211h2.4616699v12.7866211h4.0234375v-10.4716797h2.3884277v14.2194824h-2.3884277Z"/>
        <path class="cls-1" d="m89.1101074,51.5541992c-.5512695,5.6953125-3.4724121,8.8735352-9.3144531,9.3879395v-2.1311035c4.5378418-.6981201,6.5219727-3.1782227,6.8894043-7.2568359h-5.1074219c-1.0654297,1.7821045-2.5720215,3.1048584-4.390625,4.005127v-2.4434814c1.8186035-1.2860107,3.0126953-3.2149658,3.6191406-6.0258789h2.3515625c-.1286621.8267822-.3125,1.5616455-.5512695,2.2596436h9.0756836v2.2045898h-2.5720215Z"/>
        <path class="cls-1" d="m93.7861328,60.7399902v-2.2780762h2.1677246v-12.4742432c4.1887207-.0367432,8.2304688-.5511475,11.8312988-1.3962402l1.1940918,2.2780762c-3.7661133.8634033-7.6608887,1.3043213-10.7106934,1.4329834v2.3883057h10.9680176v2.3148193h-3.7294922v5.4562988h4.7949219v2.2780762h-16.5158691Zm9.3510742-7.734375h-4.8686523v5.4562988h4.8686523v-5.4562988Z"/>
      </g>
      <g>
        <path class="cls-1" d="m1.9123535,11.2402344c4.887207-.6323242,7.6469727-3.5646973,8.2363281-8.6529541h-5.9221191C3.4216309,4.5708008,1.8837891,6.2956543.0007324,7.1437988v-1.5811768c1.3654785-.9199219,2.5297852-2.4147949,3.0759277-4.3839111h7.6469727V0h.9628906v1.1787109h.1437988v.1867676c-.3305664,6.942627-3.9384766,10.6654053-9.9179688,11.269043v-1.3942871ZM12.2470703,2.1704102V0h.9775391v2.1704102h-.9775391Z"/>
        <path class="cls-1" d="m26.8879395,4.7576904c-.5319824,4.5996094-3.5935059,7.6037598-9.8461914,7.8624268v-1.4085693c4.4846191-.3449707,7.0576172-2.0985107,7.9775391-5.2895508h-9.9753418v-1.3798828h11.8439941v.2155762Zm-10.9240723-2.213501v-1.4230957h10.0041504v1.4230957h-10.0041504Z"/>
        <path class="cls-1" d="m35.3310547,3.7515869c-1.8830566-.4743652-4.0102539-.8624268-5.8356934-1.0062256v-1.5235596c1.7966309.1580811,3.9958496.5030518,5.8356934.9342041v1.5955811Zm5.2463379-.5893555c-.776123,6.5257568-4.8007812,8.954834-10.8952637,9.2711182v-1.4804688c4.9013672-.4168701,8.4663086-1.9836426,9.2709961-7.7906494h1.6242676Z"/>
        <path class="cls-1" d="m49.3955078,7.0574951c-1.7678223-.258667-4.2258301-.5318604-5.8930664-.5892334v-1.4086914c1.7678223.0718994,4.1682129.2874756,5.8930664.5605469v1.4373779Zm.1149902-4.0246582c-1.7392578-.258667-4.1970215-.5318604-5.8933105-.6036377v-1.4086914c1.7680664.0718994,4.1396484.3018799,5.8933105.5462646v1.4660645Zm5.5195312.0718994c-.6323242,6.7125244-4.7001953,9.2854004-11.1828613,9.4291992v-1.4517822c6.0515137-.2730713,8.9550781-2.4290771,9.6018066-7.977417h1.5810547Z"/>
        <path class="cls-1" d="m58.263916,11.2259521c2.5585938-1.0206299,3.9528809-2.7597656,3.9528809-6.3244629v-.8912354h1.4516602v.977417c0,.6756592-.057373,1.3079834-.157959,1.8973389,2.3571777-.5605469,3.7226562-2.0266113,4.0964355-4.2977295h-9.8029785v-1.4229736h11.527832v.258667c-.2011719,4.427124-2.9609375,6.4107666-6.223877,6.9857178-.8193359,2.2565918-2.5585938,3.5791016-4.8439941,4.269043v-1.4517822Z"/>
      </g>
    </g>
  </g>
</svg>