<?xml version="1.0" encoding="utf-8"?>
<!-- Generator: Adobe Illustrator 27.8.1, SVG Export Plug-In . SVG Version: 6.00 Build 0)  -->
<svg version="1.1" id="sp-icon" xmlns="http://www.w3.org/2000/svg" xmlns:xlink="http://www.w3.org/1999/xlink" x="0px" y="0px"
	 viewBox="0 0 30 30" style="enable-background:new 0 0 30 30;" xml:space="preserve">
<path d="M26.8,30H3.3c-1.8,0-3.2-1.4-3.2-3.2V11.2c0-1.1,0.5-2,1.4-2.6l11.6-8c1.1-0.8,2.5-0.8,3.6,0l11.9,8.1
	c0.9,0.6,1.4,1.6,1.4,2.7v15.5C30,28.6,28.5,30,26.8,30z M13.9,1.9l-11.6,8c-0.4,0.3-0.7,0.8-0.7,1.3v15.5c0,0.9,0.7,1.6,1.6,1.6
	h23.5c0.9,0,1.6-0.7,1.6-1.6V11.3c0-0.5-0.3-1-0.7-1.3L15.8,1.9C15.1,1.5,14.4,1.5,13.9,1.9z"/>
<path d="M19.5,30h-9.2c-1,0-1.8-0.8-1.8-1.8V19c0-1,0.8-1.8,1.8-1.8h9.2c1,0,1.8,0.8,1.8,1.8v9.2C21.3,29.2,20.5,30,19.5,30z
	 M10.4,18.9c-0.1,0-0.2,0.1-0.2,0.2v9.2c0,0.1,0.1,0.2,0.2,0.2h9.2c0.1,0,0.2-0.1,0.2-0.2v-9.2c0-0.1-0.1-0.2-0.2-0.2
	C19.6,18.9,10.4,18.9,10.4,18.9z"/>
</svg>
