<?xml version="1.0" encoding="UTF-8"?>
<svg id="_レイヤー_2" data-name="レイヤー 2" xmlns="http://www.w3.org/2000/svg" viewBox="0 0 149.3699963 24.8748548">
  <defs>
    <style>
      .cls-1 {
        stroke-width: 0px;
      }
    </style>
  </defs>
  <g id="_レイヤー_1-2" data-name="レイヤー 1">
    <g>
      <g>
        <path class="cls-1" d="m32.3670666,19.4571478c3.7802734-.8603516,6.8808594-2.3808594,9.2021484-4.5009766-1.140625-1-2.6611328-2.0805664-4.0410156-2.8203125l1.4003906-1.3808594c1.3994141.7402344,2.9199219,1.6606445,4.1806641,2.6005859,1.1601562-1.4003906,2.0605469-3.0605469,2.6806641-4.9208984-1.6601562,0-4.5810547,0-7.1220703.0400391-1.2197266,1.640625-2.7001953,3.1806641-4.6806641,4.7607422l-1.8007812-1.4399414c3.7207031-2.5004883,5.6015625-5.3012695,6.7617188-7.9614258l2.2402344.5595703c-.3994141.7402344-.7998047,1.4604492-1.2402344,2.1606445h2.0810547c1.7597656,0,3.640625-.0200195,5.4208984-.1000977l1.0800781,1.0205078c-3.0410156,7.9814453-6.6015625,11.3623047-14.5429688,13.8227539l-1.6201172-1.840332Z"/>
        <path class="cls-1" d="m55.3074963,13.035761c-.3798828-1.5405273-.9804688-3.1606445-1.5605469-4.4208984l1.7207031-.5004883c.6201172,1.2006836,1.2402344,2.7412109,1.6396484,4.2412109l-1.7998047.6801758Zm.7197266,6.7211914c7.0214844-1.6801758,9.0419922-6.2412109,9.3828125-11.9423828l2,.2597656c-.640625,6.4414062-3.0009766,11.1025391-10.0019531,13.2431641l-1.3808594-1.5605469Zm3.640625-7.3212891c-.2197266-1.5400391-.6591797-3.2207031-1.0800781-4.3808594l1.7802734-.340332c.5009766,1.300293.8808594,2.8007812,1.1806641,4.2211914l-1.8808594.5Z"/>
        <path class="cls-1" d="m74.9471448,18.9171087c6.6611328-1.7402344,9.9824219-6.4814453,10.5224609-11.4824219-3.0009766,0-9.6425781.0595703-12.5224609.2001953l-.0205078-2.1806641c2.0410156.0400391,4.3408203.0800781,6.6416016.0800781,2.5009766,0,4.9609375-.0400391,6.9619141-.1000977l1.2998047,1c-1.0400391,7.7617188-4.3408203,12.0825195-11.1621094,14.3232422l-1.7207031-1.840332Zm13.9833984-12.8427734c-1.0800781,0-1.9404297-.8603516-1.9404297-1.9404297s.8603516-1.9404297,1.9404297-1.9404297,1.9404297.8603516,1.9404297,1.9404297-.8603516,1.9404297-1.9404297,1.9404297Zm0-2.9404297c-.6201172,0-1,.4599609-1,1,0,.6201172.4599609,1,1,1,.6201172,0,1-.4599609,1-1,0-.6201172-.4599609-1-1-1Z"/>
        <path class="cls-1" d="m105.8494885,20.5972845c-3.140625,0-10.0615234-.4599609-10.0615234-6.4213867,0-2.9003906,2.0800781-5.4814453,5.5205078-6.6816406-3.1005859.2001953-7.0810547.4804688-9.421875.6601562l-.2197266-2.1601562h.8798828c3.6806641,0,10.9824219-.4003906,15.1035156-.800293l.4394531,2.0205078c-5.7412109.300293-10.1621094,3.2807617-10.1621094,6.8813477,0,3.3007812,3.9414062,4.3212891,6.8417969,4.3212891.4804688,0,.9804688-.0400391,1.4804688-.0800781l-.4003906,2.2602539Zm.5800781-7.7416992c-.6201172-.6796875-1.3798828-1.3798828-2.1201172-1.9804688l1.0400391-.9599609c.7402344.5800781,1.5205078,1.2402344,2.1601562,1.9204102l-1.0800781,1.0200195Zm1.7001953-1.4804688c-.6201172-.6601562-1.3398438-1.3203125-2.1201172-1.9199219l1.0205078-.9204102c.7597656.5600586,1.5,1.2001953,2.140625,1.840332l-1.0410156,1Z"/>
        <path class="cls-1" d="m112.0867932,19.5172063c2.1201172,0,2.1601562-.0600586,2.1601562-1.0805664v-3.8408203c-.7001953.1801758-1.4404297.3603516-2.3398438.5400391l-.5205078-1.8798828c1.1005859-.1601562,2.0205078-.340332,2.8603516-.5400391v-3.8212891h-2.4003906v-1.800293h2.4003906v-3.5605469h1.9003906v3.5605469h1.7802734v1.800293h-1.7802734v3.3608398c1.2607422-.340332,1.8808594-.6000977,1.8808594-.6000977v1.7607422s-.6005859.2797852-1.8808594.6796875v4.28125c0,2.2001953-.1396484,2.9204102-3.1806641,3.0805664l-.8798828-1.9404297Zm5.3808594.8198242c1.2607422-2.2602539,1.3408203-5.5610352,1.3408203-9.5214844v-5.581543h4.2402344v-1.7001953h1.9609375v1.7001953h3.8808594v1.7006836h-8.2421875v4.5410156c0,3.7607422-.1201172,7.1611328-1.5205078,10.0615234l-1.6601562-1.2001953Zm10.1826172.8603516s-.1601562-.9804688-.5400391-1.9204102c-1.4609375.6401367-3.9208984,1.3603516-6.3417969,1.7202148l-.5195312-1.8603516c.4199219-.0400391.7597656-.0996094,1.2197266-.1796875.3603516-1.1601562,1.2207031-4.7011719,1.8408203-11.2626953l1.9003906.3203125c-.6005859,5.5009766-1.3408203,8.9018555-1.7402344,10.6020508,1.0195312-.199707,2.1796875-.5600586,3.2001953-1-.2998047-1.0805664-.7197266-2.1005859-1.1601562-2.9008789l1.5205078-.8798828c1.3203125,2.5605469,2.3398438,6.4814453,2.3398438,6.4814453l-1.7197266.8798828Z"/>
        <path class="cls-1" d="m148.2098401,21.5372259c-3.8603516-2.300293-6.5009766-5.8608398-7.6816406-8.9814453-.8994141,3.3603516-3.8408203,6.9414062-7.9013672,8.9814453l-1.2607422-1.8798828c5.5214844-2.4804688,7.5019531-6.7617188,7.8623047-9.7021484h-7.4013672v-1.8408203h7.4814453V3.5338079h2.0800781v4.5805664h7.5019531v1.8408203h-7.4013672s1.0800781,5.7412109,7.8808594,9.6416016l-1.1601562,1.9404297Z"/>
      </g>
      <path class="cls-1" d="m15.0609473,0c.3886696,0,.7773392,0,1.1660088,0,.3270148.0461828.654854.0871973.9809169.1393412,3.6144714.5780272,6.632624,3.4132,7.4230432,6.9824885.1043479.4711987.1637313.9523565.2439386,1.4289017v1.3117599c-.0678582.4371073-.1152202.8785528-.2066601,1.3106694-1.2938583,6.1143917-8.3193093,9.1824403-13.692386,5.9785092-.172387-.1027911-.2615436-.0950843-.4037927.0480751-2.356606,2.3716772-4.717177,4.7394417-7.0859256,7.0989819-.2240851.223214-.5088236.3855353-.7654031.5761278h-.2915022c-.2682521-.2229338-.5473801-.434205-.802062-.6716925-.3347725-.3121675-.6590673-.6367982-.9712173-.9715939C.4235696,22.9823767.2176728,22.708533.0000001,22.4456698c0-.1133625,0-.2267234-.0000001-.3400859.2304765-.2863633.4375348-.5959791.6951294-.8554159,2.0818425-2.0967333,4.1726805-4.1845396,6.2621981-6.2736446.2910285-.2909714.5898202-.5741782.8857325-.8616727-.0327556-.0637172-.0489158-.0996746-.0688946-.1333665-1.1823336-1.9938792-1.5548578-4.1323627-1.1734836-6.4156179.589941-3.5319344,3.4583973-6.5528553,6.9834562-7.3212025C14.0710499.1385326,14.568419.0803698,15.0609473,0Zm-6.6680721,9.2169521c-.0174672,4.0079648,3.250319,7.2845401,7.2753032,7.2948683,3.9458941.0101265,7.2242931-3.2561591,7.2754655-7.1818513.0526788-4.0412527-3.219155-7.3694237-7.1987321-7.3908853-4.0824208-.022016-7.334244,3.1950231-7.3520366,7.2778683Z"/>
    </g>
  </g>
</svg>