<?xml version="1.0" encoding="UTF-8"?>
<svg id="_レイヤー_2" data-name="レイヤー 2" xmlns="http://www.w3.org/2000/svg" viewBox="0 0 292.0697471 80.4912242">
  <defs>
    <style>
      .cls-1 {
        fill: #231815;
      }

      .cls-1, .cls-2, .cls-3, .cls-4 {
        stroke-width: 0px;
      }

      .cls-5 {
        fill: none;
        stroke: #231815;
        stroke-linecap: round;
        stroke-linejoin: round;
        stroke-width: 4.4989996px;
      }

      .cls-3 {
        fill: #fff;
      }

      .cls-4 {
        fill: #e6769c;
        opacity: .15;
      }
    </style>
  </defs>
  <g id="_レイヤー_1-2" data-name="レイヤー 1">
    <rect class="cls-4" width="292.0697471" height="80.4912242"/>
    <g>
      <g>
        <path class="cls-1" d="m73.4614258,51.4974044c3.4711914,0,3.5366211-.0983887,3.5366211-1.7683105v-6.2871094c-1.1459961.2946777-2.3574219.5893555-3.8310547.8840332l-.8515625-3.0778809c1.8012695-.2619629,3.3071289-.5568848,4.6826172-.8842773v-6.2543945h-3.9291992v-2.9470215h3.9291992v-5.8286133h3.1108398v5.8286133h2.9145508v2.9470215h-2.9145508v5.5012207c2.0629883-.5566406,3.078125-.9821777,3.078125-.9821777v2.8815918s-.9824219.458252-3.078125,1.1132812v7.0075684c0,3.6018066-.2290039,4.7807617-5.206543,5.0427246l-1.440918-3.1762695Zm8.8085938,1.3425293c3.078466-5.21527,1.9956159-17.4774166,2.1938477-24.7229004h6.9423828v-2.7832031h3.2089844v2.7832031h6.3525391v2.7834473h-13.4912109c-.1255787,7.6685979.7310018,17.4483471-2.4887695,23.9040527l-2.7177734-1.9645996Zm16.6674805,1.407959s-.262207-1.6044922-.8842773-3.1435547c-2.3901367,1.0478516-6.4179688,2.2268066-10.3798828,2.8161621l-.8515625-3.0454102c.6875-.0654297,1.2441406-.1635742,1.9975586-.2946777.5893555-1.8991699,1.9975586-7.6950684,3.012207-18.4355469l3.1108398.5239258c-.9819336,9.0048828-2.1938477,14.5717773-2.8486328,17.3549805,1.6699219-.3273926,3.5693359-.916748,5.2392578-1.637207-.4912109-1.7683105-1.1787109-3.4382324-1.8994141-4.7480469l2.4887695-1.440918c2.1611328,4.1914062,3.8310547,10.6096191,3.8310547,10.6096191l-2.815918,1.4406738Z"/>
        <path class="cls-1" d="m136.6293945,54.8045333c-6.3198242-3.765625-10.6425781-9.5942383-12.5742188-14.7026367-1.4736328,5.5012207-6.2871094,11.362793-12.9345703,14.7026367l-2.0629883-3.0778809c9.0375977-4.0605469,12.2797852-11.0681152,12.8691406-15.8815918h-12.1157227v-3.0126953h12.246582v-7.4985352h3.4052734v7.4985352h12.2797852v3.0126953h-12.1157227s1.7680664,9.3979492,12.9013672,15.7832031l-1.8989258,3.1762695Z"/>
        <path class="cls-1" d="m171.4130859,37.8099044c.6272977,18.1616712-23.6934467,22.5031773-24.101433,6.2215905.0008471-.0001549.0008471-16.9293541.0008471-16.9293541h3.3730469v16.9619141c.6999036,11.5237942,17.6463608,7.8161909,17.2895508-6.2541504h3.4379883Z"/>
        <path class="cls-1" d="m200.6865234,53.6258224c-17.0190353,1.2495909-21.6555608-14.9483665-8.5136719-22.0048828l-14.5063477.4912109v-3.2746582l26.6547852-.5893555v3.2089844c-16.8717373-1.3424935-24.839198,19.6290242-2.8818359,18.8286133v3.3400879h-.7529297Z"/>
        <path class="cls-1" d="m230.4838867,54.2478927c-4.1071585.4114114-2.7560837-6.706296-2.9472656-9.4306641h-3.9296875c-.2944336,1.440918-1.8334961,8.2192383-10.8710938,9.9873047l-1.8994141-3.1108398c7.0078125-1.1459961,8.7431641-4.6496582,9.1689453-6.8764648h-5.6323242v-18.2719727h22.8232422v18.2719727h-6.3525391c.301893.963773-.9101031,7.0056934,1.2116843,6.5489471,3.0298594-.3854424,4.1777952,1.6505729,5.0099954-4.0601776l3.2416992,1.7680664c-1.8586701,7.8036272-5.1388797,4.4898741-9.8232422,5.1738281Zm3.4052734-25.0830078h-16.2089844v2.4887695h16.2089844v-2.4887695Zm0,4.9775391h-16.2089844v2.6196289h16.2089844v-2.6196289Zm0,5.1081543h-16.2089844v2.9470215h16.2089844v-2.9470215Z"/>
        <path class="cls-1" d="m264.4228516,50.9080489c15.8365724-6.8159814-2.4160804-18.8934123-17.7807617-5.8615723v-3.5690918l16.7001953-10.9370117h-13.3271484v-3.0126953h19.4506836v2.5869141l-10.9697266,7.1057129c17.444601-5.5213585,21.7993816,17.0476846,2.4883066,16.9951577-20.4330175-1.1103552-6.6884407-17.2966139,3.4384512-6.8113198v3.5039062Zm-8.2514648-4.1586914c-1.9648438,0-2.6196289.8186035-2.6196289,1.5061035.4934784,3.3213118,7.7150189,3.4806671,10.8056641,2.6853027-1.5717773-1.5717773-4.8461914-4.1914062-8.1860352-4.1914062Z"/>
      </g>
      <g>
        <line class="cls-5" x1="35.2539966" y1="36.7734736" x2="56.5044315" y2="58.0239085"/>
        <g>
          <path class="cls-3" d="m35.2539062,51.1905196c-6.9414062,0-14.4892578-4.5236816-14.6577148-14.4558105.1699219-9.8549805,7.7172852-14.378418,14.6577148-14.378418,6.9418945,0,14.4897461,4.5234375,14.6577148,14.4553223-.1699219,9.8554688-7.7167969,14.3789062-14.6577148,14.3789062Z"/>
          <path class="cls-1" d="m35.2554321,20.1067794l-.000061,4.4990234h.0006714c6.0535889,0,12.2253418,3.7631836,12.4049072,12.1669922-.1800537,8.4052734-6.3529053,12.168457-12.4070435,12.168457-6.0545044,0-12.2272949-3.7636719-12.4068604-12.1679688.1799927-8.4038086,6.3531494-12.1669922,12.4075317-12.1674805l.0008545-4.4990234m-.0013428,0c-8.3579102.0009766-16.7171021,5.5556641-16.9068604,16.6660156.1881714,11.1118164,8.5467529,16.6669922,16.9066772,16.6669922,8.3578491,0,16.7171021-5.5556641,16.9068604-16.6665039-.1881714-11.1113281-8.5467529-16.6674805-16.9066772-16.6665039h0Z"/>
        </g>
        <path class="cls-2" d="m33.1188091,45.6485144v-7.1993142h-6.6280706v-3.8976172h6.6280706v-6.6531802h4.1954691v6.6531802h6.7029665v3.8976172h-6.7029665v7.1993142h-4.1954691Z"/>
      </g>
    </g>
  </g>
</svg>