<?xml version="1.0" encoding="UTF-8"?>
<svg id="_レイヤー_2" data-name="レイヤー 2" xmlns="http://www.w3.org/2000/svg" viewBox="0 0 1268.5080566 291.9912109">
  <defs>
    <style>
      .cls-1 {
        fill: #999;
      }

      .cls-1, .cls-2 {
        stroke-width: 0px;
      }

      .cls-2 {
        fill: #231815;
      }
    </style>
  </defs>
  <g id="_レイヤー_1-2" data-name="レイヤー 1">
    <g>
      <path class="cls-1" d="m120.2426758,17.6796875c-5.1999512,4.9599609-10.6401367,12.3203125-16.3203125,21.9208984-4.0800781,6.7998047-12.2402344,21.2802734-23.8405762,35.8408203,6.3203125,1.7597656,12.4003906,4.3203125,18.3205566,7.7597656l-1.0400391,1.7607422c-6.0002441-3.4404297-12.2402344-6.0810547-18.6403809-7.7607422-15.760498,19.2001953-37.2810059,37.9208984-62.6416016,37.9208984-10.1601562,0-16.0803223-3.5195312-16.0803223-9.9199219,0-12.4003906,25.2006836-32.7207031,59.1213379-32.7207031,6.4001465,0,12.6403809.7998047,18.8005371,2.3193359,11.6801758-14.5595703,20.0004883-29.2802734,24.1604004-36.2402344,5.3601074-9.0400391,10.4802246-16.0800781,15.5205078-21.2001953-4.1601562-.5605469-8.4001465-1.8408203-12.9604492-3.2001953-6.6401367-2-14.0803223-4.2402344-22.8005371-4.8808594-47.1208496-3.8398438-58.3212891,25.4414062-22.6403809,25.4414062,8.5603027,0,21.4404297-4.4804688,25.8405762-8.2402344l1.3601074,1.5996094c-5.2001953,4.3203125-18.8806152,8.7207031-27.2006836,8.7207031-39.3608398,0-26.7207031-33.6015625,22.8005371-29.6015625,8.9602051.7207031,16.5603027,2.9609375,23.2805176,4.9609375,5.2001953,1.5195312,9.7602539,2.9599609,14.1604004,3.359375,7.0400391-6.3994141,13.7602539-8.8798828,20.1604004-7.0400391l.3999023,1.7607422c-6.8000488,6.2392578-13.1201172,7.9199219-19.760498,7.4394531Zm-43.7609863,58.8818359c-5.6799316-1.2802734-11.4401855-2-17.3603516-2-33.2006836,0-57.0412598,19.2001953-57.0412598,30.640625,0,5.0400391,4.880127,7.8398438,14.0002441,7.8398438,24.2407227,0,45.0410156-17.7607422,60.4013672-36.4804688ZM122.4829102,15.6796875c4.880127,0,9.6000977-1.5195312,14.6403809-5.5996094-4.6401367-.5605469-9.5202637,1.359375-14.6403809,5.5996094Z"/>
      <path class="cls-1" d="m150.6647949,75.9208984s-16.800293,9.0410156-25.9206543,9.0410156c-6.1601562,0-9.0400391-2.8007812-11.4401855-10.8808594l-.7199707-2.8798828h-.2399902l-7.1201172,11.0400391-1.7602539-1.1201172,25.7607422-40.0009766,1.7600098,1.1201172-17.2004395,26.7207031c2.5600586-.4794922,7.6801758-2.0800781,16.0004883-7.5195312l1.119873,1.7597656c-7.920166,5.2001953-13.2802734,7.0400391-16.2402344,7.6796875l.6398926,2.5605469c2.1601562,7.2802734,4.3200684,9.4404297,9.4401855,9.4404297,8.5603027,0,24.9606934-8.7207031,24.9606934-8.7207031l.9599609,1.7597656Z"/>
      <path class="cls-1" d="m180.7602539,82.9619141c-6.800293,3.0400391-14.4804688,6.4794922-21.760498,9.8398438-22.720459,28.7207031-33.440918,38.3203125-39.8410645,34.4804688-8-4.8798828,4.0800781-19.5205078,24.0007324-29.3603516,4.3999023-2.1601562,9.3601074-4.4804688,14.4802246-6.7998047l6.4001465-8.1601562c-3.1201172,2.3994141-5.2800293,2.9599609-6.6401367,1.5195312-1.6799316-1.6796875-.0800781-4.4804688,3.0400391-9.0400391,3.2001953-4.8798828,3.6801758-5.6806641,2.3200684-5.6806641-1.4399414,0-4.3200684,1.3603516-8.4802246,3.2001953-2,.9599609-4.2399902,2-6.7202148,3.0400391l-.7998047-1.9199219c2.3999023-1.0400391,4.6398926-2.0800781,6.6401367-2.9599609,4.1599121-1.9199219,7.5200195-3.4404297,9.3601074-3.4404297,4.2402344,0,3.2001953,3.2001953-.6398926,8.8808594-2.9602051,4.3994141-3.6000977,6.0800781-3.2001953,6.4794922,1.0400391,1.0400391,6.3200684-3.1992188,14.8803711-12.8798828l1.9199219-2.0800781,1.5202637,1.4404297c-.1601562.0800781-.3200684.2392578-.4802246.3994141l.0800781.0800781c-3.3601074,4.0800781-7.1201172,8.9599609-11.0402832,14.0800781l-4,5.1201172c6.1601562-2.7998047,12.4802246-5.5195312,18.1604004-8.0800781,6.0800781-2.7197266,11.5202637-5.2001953,15.5202637-7.0400391l.880127,1.9199219c-4.0002441,1.8408203-9.5202637,4.2402344-15.6003418,6.9609375Zm-25.9206543,11.7597656c-3.7600098,1.7597656-7.3601074,3.4404297-10.7202148,5.1201172-17.760498,8.7207031-29.7607422,22.1601562-23.8405762,25.6806641,6.0002441,3.6796875,20.4003906-12.8798828,34.560791-30.8007812Z"/>
      <path class="cls-1" d="m237.2080078,76.0009766c-9.1201172,3.8408203-21.8405762,8.640625-27.2805176,8.640625-3.5202637,0-5.6003418-1.6005859-5.6003418-4.4003906,0-.6396484.1601562-1.2802734.4802246-2-3.2001953,2.4804688-6.6401367,4.5605469-9.6804199,4.5605469-4,0-1.9199219-4.0800781,2.1601562-10.2402344,1.1999512-1.6806641,2.2399902-3.2001953,2.7199707-4.3203125l1.920166.9599609c-.6401367,1.2001953-1.7600098,2.7998047-2.880127,4.4804688-3.3601074,5.0400391-4.3200684,7.0400391-3.920166,7.0400391,5.6801758,0,14.0004883-9.2802734,16.4003906-12.2402344l.0800781-.0800781.0800781-.0800781.9599609.7998047.7199707.4804688-1.4399414,1.7597656c-3.7600098,4.5595703-5.5202637,7.2802734-5.5202637,8.8798828,0,1.6005859,1.0400391,2.3203125,3.5202637,2.3203125,4,0,13.7602539-3.1201172,26.4804688-8.4804688l.8000488,1.9199219Z"/>
      <path class="cls-1" d="m280.7194824,75.9208984s-16.800293,9.0410156-25.9206543,9.0410156c-6.1601562,0-9.0400391-2.8007812-11.4401855-10.8808594l-.7199707-2.8798828h-.2399902l-7.1201172,11.0400391-1.7602539-1.1201172,25.7607422-40.0009766,1.7600098,1.1201172-17.2004395,26.7207031c2.5600586-.4794922,7.6801758-2.0800781,16.0004883-7.5195312l1.119873,1.7597656c-7.920166,5.2001953-13.2802734,7.0400391-16.2402344,7.6796875l.6398926,2.5605469c2.1601562,7.2802734,4.3200684,9.4404297,9.4401855,9.4404297,8.5603027,0,24.9606934-8.7207031,24.9606934-8.7207031l.9599609,1.7597656Z"/>
      <path class="cls-1" d="m310.8151855,82.9619141c-6.800293,3.0400391-14.4804688,6.4794922-21.760498,9.8398438-22.7207031,28.7207031-33.440918,38.3203125-39.8410645,34.4804688-8-4.8798828,4.0800781-19.5205078,24.0007324-29.3603516,4.3999023-2.1601562,9.3601074-4.4804688,14.4802246-6.7998047l6.4001465-8.1601562c-3.1201172,2.3994141-5.2800293,2.9599609-6.6401367,1.5195312-1.6799316-1.6796875-.0800781-4.4804688,3.0400391-9.0400391,3.2001953-4.8798828,3.6801758-5.6806641,2.3200684-5.6806641-1.4399414,0-4.3200684,1.3603516-8.4802246,3.2001953-2,.9599609-4.2399902,2-6.7202148,3.0400391l-.7998047-1.9199219c2.3999023-1.0400391,4.6398926-2.0800781,6.6401367-2.9599609,4.1599121-1.9199219,7.5200195-3.4404297,9.3601074-3.4404297,4.2399902,0,3.2001953,3.2001953-.6398926,8.8808594-2.9602051,4.3994141-3.6000977,6.0800781-3.2001953,6.4794922,1.0400391,1.0400391,6.3200684-3.1992188,14.8803711-12.8798828l1.9199219-2.0800781,1.5200195,1.4404297c-.1599121.0800781-.3198242.2392578-.4799805.3994141l.0800781.0800781c-3.3601074,4.0800781-7.1201172,8.9599609-11.0402832,14.0800781l-4,5.1201172c6.1601562-2.7998047,12.4802246-5.5195312,18.1604004-8.0800781,6.0800781-2.7197266,11.5202637-5.2001953,15.5202637-7.0400391l.880127,1.9199219c-4.0002441,1.8408203-9.5202637,4.2402344-15.6003418,6.9609375Zm-25.9206543,11.7597656c-3.7600098,1.7597656-7.3601074,3.4404297-10.7202148,5.1201172-17.760498,8.7207031-29.7607422,22.1601562-23.8405762,25.6806641,6.0002441,3.6796875,20.4003906-12.8798828,34.560791-30.8007812Z"/>
      <path class="cls-1" d="m345.0861816,82.1611328c-5.0400391,0-8.880127-.8798828-11.3601074-2.4794922-.7199707.4794922-1.4401855.9599609-2.2399902,1.4394531-6.9602051,4-10.8803711.7207031-7.2001953-5.7597656,1.2800293-2.2402344,2.9599609-4.2402344,4.4001465-5.2001953l1.119873,1.7597656c-1.119873.8007812-2.6401367,2.5605469-3.7600098,4.4804688-2.5600586,4.5595703-.5600586,5.7597656,4.4799805,2.8798828.5600586-.3203125,1.1201172-.6396484,1.6801758-1.0400391-.9599609-1.1201172-1.4401855-2.5595703-1.4401855-4.1601562,0-4.7197266,2.8000488-8.6396484,6.3203125-8.6396484,2.3999023,0,4.0800781,1.7597656,4.0800781,4.2392578,0,2.3203125-2.4001465,5.7607422-5.6801758,8.640625,2,1.1201172,5.2001953,1.7597656,9.6000977,1.7597656,7.6003418,0,15.8405762-3.5195312,21.6806641-6l.8000488,1.9199219c-5.840332,2.4804688-14.4003906,6.1601562-22.4807129,6.1601562Zm-11.2800293-5.2001953c3.0400391-2.4794922,5.2800293-5.5195312,5.2800293-7.2802734,0-1.359375-.7199707-2.1591797-2-2.1591797-2.2402344,0-4.2402344,2.8798828-4.2402344,6.5595703,0,1.1201172.3200684,2.0800781.9602051,2.8798828Z"/>
      <path class="cls-1" d="m423.484375,54.4003906c-4.0800781,8.8007812-6.2402344,17.3603516-6.2402344,24.640625,0,12.0810547,5.920166,18.8808594,16.4003906,18.8808594,24.9606934,0,41.8410645-18.7207031,41.8410645-29.2011719,0-6.9599609-7.6801758-8.3193359-20.4804688-3.2792969l-.7199707-2c14.0803223-5.5205078,23.2805176-3.4404297,23.2805176,5.2792969,0,11.2802734-18.0004883,31.28125-43.9211426,31.28125-11.6801758,0-18.4804688-7.7607422-18.4804688-20.9609375,0-7.359375,2.1601562-16,6.2402344-24.8798828-15.6804199-2.2402344-26.1606445-10.0009766-26.1606445-20.4003906,0-11.6806641,13.3603516-19.8408203,32.2407227-19.8408203,8.1601562,0,16.1604004,1.3603516,23.2805176,3.8398438,13.9204102-10.5605469,31.4406738-17.7597656,51.9208984-17.7597656,9.6005859,0,14.9604492,3.1191406,14.9604492,8.8798828,0,15.1201172-42.0808105,45.9208984-86.8818359,45.9208984-2.5600586,0-4.9599609-.1601562-7.2800293-.4003906Zm-1.1201172-2.2392578c5.6801758-11.6005859,14.6403809-23.4414062,26.4006348-32.8808594-6.5600586-2.0800781-13.840332-3.2802734-21.2805176-3.2802734-17.7602539,0-30.1606445,7.4404297-30.1606445,17.7607422,0,9.2792969,10.0002441,16.4794922,25.0405273,18.4003906Zm30.560791-33.6015625c7.4401855,2.9609375,13.7602539,7.1201172,18.0803223,12.2402344l-1.6000977,1.2802734c-4.3200684-5.1201172-10.8000488-9.2001953-18.4003906-12-11.8400879,9.2001953-20.8803711,20.8007812-26.5605469,32.3203125,2,.2402344,4.1601562.3203125,6.3200684.3203125,44.0810547,0,84.8017578-29.7607422,84.8017578-43.8408203,0-4.4003906-4.3999023-6.8007812-12.8803711-6.8007812-19.5200195,0-36.3205566,6.640625-49.7607422,16.4804688Z"/>
      <path class="cls-1" d="m539.7009277,76.0009766s-24.0004883,10.4003906-33.6005859,10.4003906c-6.4804688,0-7.3603516-3.5996094-2.4003906-10.7998047,4.4003906-6,5.0405273-7.3603516,3.4404297-7.3603516-5.1201172,0-14.0805664,6.9599609-20.5605469,16.0800781l-.4799805.7197266-.0800781.0800781-1.7600098-1.1201172.4802246-.7197266,28.1606445-42.1611328,1.7597656,1.1201172-20.3203125,30.4013672c4.6401367-4.0009766,9.3598633-6.4804688,12.800293-6.4804688,4.7998047,0,3.2001953,3.8398438-1.6801758,10.7197266-4.0800781,5.7607422-3.8398438,7.4404297.6401367,7.4404297,9.1201172,0,32.8007812-10.2402344,32.8007812-10.2402344l.7998047,1.9199219Z"/>
      <path class="cls-1" d="m578.739502,76.0009766c-9.5200195,4.8007812-24.4003906,10.8007812-33.6005859,8.8808594-5.9199219-1.2001953-8.4799805-5.5205078-8.2402344-9.6806641v-.1601562c.3999023-4.2402344,3.840332-8.2402344,10.0004883-8.2402344,2.3999023,0,4.2397461,1.6005859,4.2397461,3.7607422,0,5.8398438-7.3598633,9.359375-11.4399414,8.1601562.9599609,1.9199219,2.8798828,3.5195312,5.8398438,4.0800781,8.5605469,1.7597656,22.8007812-3.9208984,32.3208008-8.7207031l.8798828,1.9199219Zm-39.7607422-.7998047c.2402344,3.6796875,10.0800781,1.0400391,10.0800781-4.6396484,0-.9599609-.8798828-1.6806641-2.159668-1.6806641-4.8803711,0-7.6005859,3.0400391-7.9204102,6.3203125Z"/>
      <path class="cls-1" d="m643.0354004,76.0009766c-8.2402344,3.8408203-18.5605469,7.7607422-28.3208008,7.7607422-7.0400391,0-10.800293-1.8398438-10.800293-5.7607422,0-2.0800781,1.6000977-4.6396484,2.8803711-6.6396484.9599609-1.5205078,1.2797852-2.1601562,1.3598633-2.4003906-.7202148.1601562-2.1601562.9599609-4.7202148,2.4804688-6.3999023,3.7597656-13.7602539,11.1201172-13.7602539,11.1201172l-1.4399414-1.4404297.1601562-.1601562c3.199707-3.1992188,8.0800781-12.0800781,7.3598633-12.8798828-.7197266-.7197266-2.9599609,0-20.0004883,7.9199219l-.7998047-1.9199219c17.5205078-8.1601562,20.4003906-9.4404297,22.2402344-7.4404297,1.2001953,1.2802734-.0795898,4.7207031-2,8.1601562,2.2402344-1.8398438,4.800293-3.7597656,7.2001953-5.1992188,1.840332-1.0400391,4.7202148-2.8007812,6.1601562-2.8007812,2.8803711,0,2.1601562,2.3203125,0,5.6806641-1.2797852,2-2.5600586,4.0800781-2.5600586,5.5195312,0,2.4003906,2.800293,3.6806641,8.7202148,3.6806641,9.4404297,0,19.2802734-3.7607422,27.3608398-7.6005859l.9599609,1.9199219Z"/>
      <path class="cls-1" d="m707.1472168,76.0009766c-8.2402344,3.8408203-18.5605469,7.7607422-28.3208008,7.7607422-7.0400391,0-10.800293-1.8398438-10.800293-5.7607422,0-2.0800781,1.6000977-4.6396484,2.8803711-6.6396484.9599609-1.5205078,1.2797852-2.1601562,1.3598633-2.4003906-.7202148.1601562-2.1601562.9599609-4.7202148,2.4804688-6.3999023,3.7597656-13.7602539,11.1201172-13.7602539,11.1201172l-1.4399414-1.4404297.1601562-.1601562c3.199707-3.1992188,8.0800781-12.0800781,7.3598633-12.8798828-.7197266-.7197266-2.9599609,0-20.0004883,7.9199219l-.7998047-1.9199219c17.5205078-8.1601562,20.4003906-9.4404297,22.2402344-7.4404297,1.2001953,1.2802734-.0800781,4.7207031-2,8.1601562,2.2402344-1.8398438,4.800293-3.7597656,7.2001953-5.1992188,1.840332-1.0400391,4.7202148-2.8007812,6.1601562-2.8007812,2.8803711,0,2.1601562,2.3203125,0,5.6806641-1.2797852,2-2.5600586,4.0800781-2.5600586,5.5195312,0,2.4003906,2.800293,3.6806641,8.7202148,3.6806641,9.4404297,0,19.2802734-3.7607422,27.3608398-7.6005859l.9599609,1.9199219Z"/>
      <path class="cls-1" d="m746.1940918,76.0009766c-9.5200195,4.8007812-24.4003906,10.8007812-33.6005859,8.8808594-5.9204102-1.2001953-8.4804688-5.5205078-8.2402344-9.6806641v-.1601562c.3999023-4.2402344,3.8398438-8.2402344,10-8.2402344,2.4003906,0,4.2402344,1.6005859,4.2402344,3.7607422,0,5.8398438-7.3603516,9.359375-11.4404297,8.1601562.9604492,1.9199219,2.8803711,3.5195312,5.840332,4.0800781,8.5600586,1.7597656,22.800293-3.9208984,32.3208008-8.7207031l.8798828,1.9199219Zm-39.7607422-.7998047c.2397461,3.6796875,10.0800781,1.0400391,10.0800781-4.6396484,0-.9599609-.8798828-1.6806641-2.1601562-1.6806641-4.8798828,0-7.6000977,3.0400391-7.9199219,6.3203125Z"/>
      <path class="cls-1" d="m751.4562988,63.5205078c-3.7597656,6.2402344-6,12.1611328-6,16.3212891,0,3.5195312,2.3198242,5.2792969,7.0400391,5.2792969,10.2402344,0,33.7607422-11.0400391,33.7607422-11.0400391l.800293,1.9199219s-23.8408203,11.2001953-34.5610352,11.2001953c-5.8398438,0-9.1201172-2.5595703-9.1201172-7.359375,0-6.0810547,4.0800781-15.1210938,10.800293-23.9208984,10.2402344-13.3603516,26.7207031-26.2402344,43.440918-26.2402344,3.4399414,0,5.4399414,1.359375,5.4399414,3.9199219,0,10.0800781-31.5205078,34.5605469-44.5610352,34.5605469-3.5996094,0-6-1.6796875-7.0400391-4.640625Zm1.6000977-2.4794922c.3999023,3.4404297,2.1601562,5.0400391,5.4399414,5.0400391,13.1206055,0,42.4814453-24.3203125,42.4814453-32.4804688,0-1.2001953-.9604492-1.8398438-3.3603516-1.8398438-16.0004883,0-31.6806641,12.3193359-41.7607422,25.4404297-.9599609,1.2792969-1.9204102,2.5595703-2.800293,3.8398438Z"/>
    </g>
    <g>
      <path class="cls-2" d="m3.9355469,237.9599609v-17.5253906c-.8300781,1.4755859-1.8447266,2.6748047-3.1054688,3.9970703l-.8300781-1.7832031c3.7817383-3.6279297,6.8564453-9.6542969,7.7172852-12.3603516l1.598877.7070312c-.8300781,2.1523438-2.0600586,4.796875-3.5358887,7.1025391v19.8623047h-1.8447266Zm3.7509766-1.0146484v-1.8447266h9.1625977v-7.8398438h-7.2255859v-1.8457031h7.2255859v-6.9482422h-8.270752v-1.8447266h18.2016602v1.8447266h-8.0246582v6.9482422h7.0102539v1.8457031h-7.0102539v7.8398438h8.9472656v1.8447266H7.6865234Zm11.9604492-20.7539062c-1.7832031-1.5068359-4.2429199-3.3818359-6.0571289-4.5195312l1.168457-1.3222656c2.2751465,1.5986328,4.3659668,3.1054688,6.2414551,4.6123047l-1.3527832,1.2294922Z"/>
      <path class="cls-2" d="m40.2849121,237.9599609v-17.9248047h-4.1508789v-1.7832031h4.1508789v-7.9638672h1.8447266v7.9638672h4.0585938v1.7832031h-4.0585938v17.9248047h-1.8447266Zm7.8710938-2.1210938h.1843262c2.7978516,0,3.074707-.03125,3.074707-3.8125,0-.953125-.0307617-2.1220703-.0307617-3.5673828v-1.2597656h-2.4904785c-.1538086,4.3652344-1.3527832,7.7480469-4.2736816,10.7607422l-1.2299805-1.6298828c2.7365723-3.0439453,3.505127-5.4726562,3.6896973-9.1308594h-2.3676758v-1.7841797h2.4291992v-2.3671875h1.8447266v2.3671875h4.2429199v5.3808594c0,5.3808594-.2458496,6.9179688-4.458252,6.9179688l-.6147461-1.875Zm7.5327148-15.5888672c3.9970703-.1845703,4.1201172-.2148438,4.1201172-3.2900391v-1.8447266h-5.4421387c-.4919434,2.3671875-2.121582,4.9199219-6.4260254,7.3486328l-1.2607422-1.5683594c3.5666504-1.8134766,5.1040039-3.8125,5.7497559-5.7802734h-4.7658691v-1.7832031h5.1347656c.0922852-.6455078.0922852-1.7832031.0922852-2.4599609v-.5839844h1.7832031s0,1.9677734-.0307617,3.0439453h7.0102539v3.0751953c0,4.5810547-.0615234,5.5644531-5.3806152,5.71875l-.5842285-1.8759766Zm2.3981934,15.5888672h.1845703c2.7978516,0,3.074707-.03125,3.074707-3.8125,0-.953125-.0307617-2.1220703-.0307617-3.5673828v-1.2597656h-2.4904785c-.2460938,4.5810547-1.3527832,7.7480469-4.2739258,10.7607422l-1.2297363-1.6298828c2.7058105-2.9824219,3.4743652-5.3798828,3.6896973-9.1308594h-2.3676758v-1.7841797h2.4289551v-2.3671875h1.8449707v2.3671875h4.2429199v5.3808594c0,5.3808594-.2458496,6.9179688-4.458252,6.9179688l-.6149902-1.875Z"/>
      <path class="cls-2" d="m97.6032715,236.7304688c-2.3366699.3691406-4.8271484.5839844-7.317627.5839844-6.026123,0-10.9455566-1.1992188-10.9455566-5.75,0-3.4433594,3.9047852-6.4257812,9.2546387-8.4550781-.5534668-1.0146484-1.3835449-1.5371094-2.5827637-1.5371094-2.4904785,0-4.980957,1.4140625-8.8549805,5.1347656-1.0761719,1.0761719-2.3059082,2.3984375-3.6589355,3.8427734v-2.5820312c3.505127-3.4746094,6.5490723-7.2871094,8.8549805-11.4072266h-8.1784668v-1.7832031h9.1318359c.6147461-1.2304688,1.1989746-2.4902344,1.6601562-3.7822266h2.0908203c-.5534668,1.3837891-1.1376953,2.6445312-1.7219238,3.7822266h12.6984863v1.7832031h-13.6516113c-1.3527832,2.3671875-2.7363281,4.2431641-4.0583496,5.9951172,1.5063477-1.3525391,3.9047852-2.6132812,5.71875-2.6132812,2.0600586,0,3.4436035.7685547,4.3352051,2.5517578,2.6135254-.8603516,5.5036621-1.4755859,8.3937988-1.8447266v1.9375c-2.7363281.3076172-5.411377.8300781-7.8095703,1.5683594.5227051,1.9677734.737793,4.6728516.737793,8.3007812h-1.8447266c0-3.3203125-.1538086-5.9033203-.6149902-7.7167969-4.6425781,1.6904297-7.9016113,4.0888672-7.9016113,6.7636719,0,2.9824219,3.5048828,4.0283203,8.7626953,4.0283203,2.3981934,0,4.9501953-.2460938,7.5019531-.6455078v1.8447266Z"/>
      <path class="cls-2" d="m123.3452148,235.6845703c4.5505371-.0917969,9.2546387-2.1826172,9.2546387-6.8867188,0-4.0283203-3.5664062-6.2109375-8.9162598-6.2109375-1.3837891,0-2.7058105.1230469-3.9047852.3378906v10.2695312c0,3.0126953-1.6911621,3.9052734-3.9050293,3.9052734-2.7055664,0-7.4404297-1.8144531-7.4404297-6.2421875,0-3.6894531,3.5048828-7.6552734,9.4389648-9.2548828v-4.4580078h-7.8710938v-1.7832031h7.8710938v-4.3349609h1.9064941v4.3349609h6.671875v1.7529297h-6.671875v4.0585938c1.260498-.2158203,2.5825195-.3388672,3.9968262-.3388672,6.795166,0,10.8535156,2.9824219,10.8535156,7.9941406,0,5.8730469-5.503418,8.4550781-11.2839355,8.6708984v-1.8144531Zm-5.4729004-12.2988281c-4.7963867,1.4150391-7.625,4.5205078-7.625,7.4101562,0,2.9824219,3.3205566,4.4580078,5.4421387,4.4580078.953125,0,2.1828613-.2451172,2.1828613-2.3671875v-9.5009766Zm17.0644531-5.5957031c-2.1523438-.953125-5.0732422-1.875-7.3791504-2.3671875v-1.90625c2.552002.5224609,5.411377,1.4453125,7.3791504,2.2138672v2.0595703Z"/>
      <path class="cls-2" d="m155.2058105,236.7919922c-2.8901367,0-4.7348633-1.4765625-5.9033203-3.3828125-.7685547,1.3535156-2.3366699,3.3515625-4.2429199,4.5820312l-1.1069336-1.6298828c2.7055664-1.6601562,4.2121582-4.0585938,4.2121582-4.0585938v-8.7939453h-3.8740234v-1.7832031h5.7189941v9.9316406c1.0759277,1.8134766,2.8286133,3.3203125,5.1960449,3.3203125h16.4187012l-.4611816,1.8144531h-15.9575195Zm-6.6411133-19.4316406s-2.3676758-3.3515625-4.1201172-5.0117188l1.2912598-1.2304688c1.90625,2.0292969,4.3044434,4.9814453,4.3044434,4.9814453l-1.4755859,1.2607422Zm3.1052246,12.0214844v-1.5986328h4.6428223v-2.5830078h-3.7512207v-1.5986328h3.7512207v-2.3369141h-1.4450684c-1.3222656,0-2.3061523-.5224609-2.3061523-1.9365234v-3.8740234h5.7189941v-2.3369141h-6.1186523v-1.6298828h7.9633789v5.5957031h-5.71875v1.8447266c0,.7070312.092041.8300781.953125.8300781h2.1828613c1.1069336,0,1.3835449-.0302734,1.6604004-1.6289062l1.7524414.953125c-.5534668,1.9980469-1.3527832,2.1826172-2.5825195,2.1826172h-.215332v2.3369141h5.9648438v-2.3369141c-1.2915039-.0302734-2.1831055-.5537109-2.1831055-1.9365234v-3.8740234h5.7189941v-2.3369141h-6.1186523v-1.6298828h7.9633789v5.5957031h-5.71875v1.8447266c0,.7070312.092041.8300781.953125.8300781h2.1828613c1.1069336,0,1.3835449-.0302734,1.6604004-1.6289062l1.7524414.953125c-.5534668,1.9980469-1.3527832,2.1826172-2.5827637,2.1826172h-1.7832031v2.3369141h3.7817383v1.5986328h-3.7817383v2.5830078h4.7963867v1.5986328h-19.0935059Zm.8608398,2.9208984s3.5666504-1.1992188,5.4421387-2.8291016l1.1992188,1.1376953c-2.3059082,1.9990234-5.5344238,3.2597656-5.5344238,3.2597656l-1.1069336-1.5683594Zm11.5915527-7.1025391h-5.9648438v2.5830078h5.9648438v-2.5830078Zm5.2575684,8.8857422s-2.859375-1.8447266-5.8725586-3.3515625l1.0146484-1.2607422c2.9824219,1.4453125,5.9648438,3.1367188,5.9648438,3.1367188l-1.1069336,1.4755859Z"/>
      <path class="cls-2" d="m208.0966797,227.0761719c-1.6604004-1.6914062-4.027832-4.2744141-5.5651855-7.0722656.4919434,1.6914062.9223633,3.9052734.9223633,5.5957031,0,7.625-4.4887695,12.0224609-10.9147949,12.0224609-5.9648438,0-9.9311523-3.5048828-9.9311523-9.1318359,0-6.3955078,4.5505371-11.2529297,7.1945801-13.6210938h-8.1477051v-1.8447266h10.9455566v1.7529297c-4.4580078,3.5664062-8.0246582,8.1787109-8.0246582,13.6816406,0,5.0732422,3.8740234,7.2871094,7.7788086,7.2871094,5.5036621,0,9.223877-3.6582031,9.223877-10.6074219,0-3.5664062-1.3835449-8.9472656-2.9516602-12.4521484h2.121582c1.7524414,4.9501953,4.6425781,9.1005859,7.3483887,11.5302734v2.859375Zm-4.8271484-11.3154297v-5.0732422h1.5373535v5.0732422h-1.5373535Zm3.3513184,0v-5.0732422h1.5373535v5.0732422h-1.5373535Z"/>
      <path class="cls-2" d="m232.2702637,233.3173828c-1.1374512.921875-3.8125,3.1357422-6.9487305,3.1357422-3.9047852,0-6.887207-3.0742188-6.887207-11.5292969,0-4.9199219.6765137-9.1015625,1.2607422-11.9912109h2.0292969c-.7995605,3.7197266-1.3222656,7.7167969-1.3222656,12.0214844,0,6.0263672,1.598877,9.5625,5.1347656,9.5625,2.6135254,0,5.1652832-2.2451172,6.7333984-3.84375v2.6445312Zm8.7626953.1533203c0-7.3789062-.8300781-13.6816406-6.1491699-19.9238281h2.4904785c3.8740234,4.9814453,5.7495117,10.6386719,5.7495117,19.9238281h-2.0908203Z"/>
      <path class="cls-2" d="m260.7180176,217.0830078c-1.2299805,6.8261719-2.859375,12.9755859-5.3498535,19.6162109h-2.2446289c2.6442871-6.2724609,4.3967285-12.8212891,5.626709-19.6162109h-5.3190918v-1.8447266h5.6264648c.215332-1.4140625.4304199-2.828125.6149902-4.2431641h2.0600586c-.215332,1.4453125-.4304199,2.859375-.6765137,4.2431641h15.5578613v1.8447266h-15.8959961Zm18.2019043,18.8476562c-2.4289551.4921875-5.5651855.9228516-8.7626953.9228516-5.5036621,0-8.5476074-1.90625-8.5476074-5.1044922,0-2.0595703,1.4758301-3.9355469,2.552002-5.1962891h2.3674316c-1.1992188,1.1074219-3.0131836,3.1982422-3.0131836,5.0732422,0,2.1835938,2.552002,3.3828125,6.6721191,3.3828125,3.166748,0,6.3029785-.4921875,8.7319336-1.1074219v2.0292969Zm-15.373291-13.0058594v-1.8134766h14.5737305v1.8134766h-14.5737305Z"/>
      <path class="cls-2" d="m296.8520508,217.0830078c-1.2299805,6.8261719-2.859375,12.9755859-5.3498535,19.6162109h-2.2446289c2.6442871-6.2724609,4.3967285-12.8212891,5.626709-19.6162109h-5.3190918v-1.8447266h5.6264648c.215332-1.4140625.4304199-2.828125.6149902-4.2431641h2.0600586c-.215332,1.4453125-.4304199,2.859375-.6765137,4.2431641h15.5578613v1.8447266h-15.8959961Zm18.2019043,18.8476562c-2.4289551.4921875-5.5651855.9228516-8.7626953.9228516-5.5036621,0-8.5476074-1.90625-8.5476074-5.1044922,0-2.0595703,1.4758301-3.9355469,2.552002-5.1962891h2.3674316c-1.1989746,1.1074219-3.0131836,3.1982422-3.0131836,5.0732422,0,2.1835938,2.552002,3.3828125,6.6721191,3.3828125,3.166748,0,6.3029785-.4921875,8.7319336-1.1074219v2.0292969Zm-15.373291-13.0058594v-1.8134766h14.5739746v1.8134766h-14.5739746Zm9.9311523-8.8857422v-4.5810547h1.5373535v4.5810547h-1.5373535Zm3.3205566,0v-4.5810547h1.5373535v4.5810547h-1.5373535Z"/>
      <path class="cls-2" d="m340.6728516,233.3173828c-1.1374512.921875-3.8125,3.1357422-6.9487305,3.1357422-3.9047852,0-6.887207-3.0742188-6.887207-11.5292969,0-4.9199219.6765137-9.1015625,1.2607422-11.9912109h2.0292969c-.7995605,3.7197266-1.3222656,7.7167969-1.3222656,12.0214844,0,6.0263672,1.598877,9.5625,5.1347656,9.5625,2.6135254,0,5.1652832-2.2451172,6.7333984-3.84375v2.6445312Zm8.7626953.1533203c0-7.3789062-.8300781-13.6816406-6.1491699-19.9238281h2.4904785c3.8740234,4.9814453,5.7495117,10.6386719,5.7495117,19.9238281h-2.0908203Z"/>
      <path class="cls-2" d="m369.1203613,217.0830078c-1.2299805,6.8261719-2.859375,12.9755859-5.3498535,19.6162109h-2.2446289c2.6442871-6.2724609,4.3967285-12.8212891,5.626709-19.6162109h-5.3190918v-1.8447266h5.6264648c.215332-1.4140625.4304199-2.828125.6149902-4.2431641h2.0600586c-.215332,1.4453125-.4304199,2.859375-.6765137,4.2431641h15.5578613v1.8447266h-15.8959961Zm18.2019043,18.8476562c-2.4289551.4921875-5.5651855.9228516-8.7626953.9228516-5.5036621,0-8.5476074-1.90625-8.5476074-5.1044922,0-2.0595703,1.4758301-3.9355469,2.552002-5.1962891h2.3674316c-1.1992188,1.1074219-3.0131836,3.1982422-3.0131836,5.0732422,0,2.1835938,2.552002,3.3828125,6.6721191,3.3828125,3.166748,0,6.3029785-.4921875,8.7319336-1.1074219v2.0292969Zm-15.373291-13.0058594v-1.8134766h14.5737305v1.8134766h-14.5737305Z"/>
      <path class="cls-2" d="m401.2268066,237.6523438c-1.4453125-1.9677734-3.2592773-4.2431641-5.626709-6.4560547h2.6750488c1.90625,1.8134766,3.7509766,4.0576172,5.6264648,6.4873047l-2.6748047-.03125Z"/>
      <path class="cls-2" d="m431.9462891,235.6845703c4.5505371-.0917969,9.2546387-2.1826172,9.2546387-6.8867188,0-4.0283203-3.5664062-6.2109375-8.9162598-6.2109375-1.3837891,0-2.7058105.1230469-3.9047852.3378906v10.2695312c0,3.0126953-1.6911621,3.9052734-3.9050293,3.9052734-2.7055664,0-7.4404297-1.8144531-7.4404297-6.2421875,0-3.6894531,3.5048828-7.6552734,9.4389648-9.2548828v-4.4580078h-7.8710938v-1.7832031h7.8710938v-4.3349609h1.9064941v4.3349609h6.671875v1.7529297h-6.671875v4.0585938c1.260498-.2158203,2.5825195-.3388672,3.9968262-.3388672,6.795166,0,10.8535156,2.9824219,10.8535156,7.9941406,0,5.8730469-5.503418,8.4550781-11.2839355,8.6708984v-1.8144531Zm-5.4729004-12.2988281c-4.7963867,1.4150391-7.625,4.5205078-7.625,7.4101562,0,2.9824219,3.3205566,4.4580078,5.4421387,4.4580078.953125,0,2.1828613-.2451172,2.1828613-2.3671875v-9.5009766Zm17.0644531-5.5957031c-2.1523438-.953125-5.0732422-1.875-7.3791504-2.3671875v-1.90625c2.552002.5224609,5.411377,1.4453125,7.3791504,2.2138672v2.0595703Z"/>
      <path class="cls-2" d="m457.7802734,235.7773438h1.1069336c2.0292969,0,2.0908203-.2158203,2.0908203-3.5664062v-9.4091797h-4.1508789c-.0615234,5.9345703-.4611816,11.2539062-2.9516602,15.1582031l-1.3220215-1.7832031c2.2443848-3.5048828,2.4289551-8.7324219,2.4289551-14.9423828v-4.2431641h-2.1523438v-1.7832031h4.1816406v-4.9199219h1.8447266v4.9199219h4.765625v1.7832031h-6.7949219v4.0273438h5.9956055v11.3759766c0,4.9814453-.7380371,5.3193359-4.3659668,5.3193359l-.6765137-1.9365234Zm10.5153809-20.046875c-.8608398,1.6298828-2.0908203,3.3818359-3.7817383,4.8574219l-1.2299805-1.4755859c3.3513184-2.5517578,4.8886719-7.1640625,5.2575684-8.8242188l1.6911621.3994141s-.3996582,1.8457031-1.1376953,3.2597656h10.3615723v1.7832031h-11.1608887Zm.7993164,21.2148438c-.7070312,0-2.3674316-.0917969-2.3674316-2.3984375v-9.9003906l-2.3981934.4306641v-1.875l2.3981934-.4003906v-3.3203125h1.7832031v2.9824219l3.1054688-.5224609v-4.4277344h1.7834473v4.1201172l5.4418945-.9228516v6.5498047c0,2.6435547-.8608398,3.1660156-3.5664062,3.1660156l-.7687988-1.875h.7687988c1.5065918,0,1.7832031-.0927734,1.7832031-1.4755859v-4.3046875l-3.6586914.6757812v8.2714844h-1.7834473v-7.9326172l-3.1054688.5537109v9.6845703c0,1.0146484.3999023,1.1074219,1.0454102,1.1074219h6.0571289c2.4904785,0,2.7363281-.0615234,2.8286133-3.9052734l1.7834473,1.2607422c-.1845703,3.8427734-1.2299805,4.4580078-3.8435059,4.4580078h-7.2868652Z"/>
      <path class="cls-2" d="m488.6872559,236.484375v-1.8759766h12.7905273v-7.3476562h-9.53125v-1.8759766h9.53125v-6.8876953h-11.1914062v-1.875h24.5048828v1.875h-11.2841797v6.8876953h9.6855469v1.8759766h-9.6855469v7.3476562h12.8520508v1.8759766h-27.671875Zm15.8344727-20.2617188c-2.3056641-1.7832031-4.3349609-3.4443359-6.5795898-4.5205078l1.3222656-1.3828125c2.6132812,1.6289062,4.7041016,3.1054688,6.7641602,4.6425781l-1.5068359,1.2607422Z"/>
      <path class="cls-2" d="m529.4645996,237.9599609v-17.8017578c-.9838867,4.4882812-1.9370117,7.0410156-3.4130859,10.1455078l-1.2299805-1.7832031c1.6606445-2.4902344,3.2900391-6.9794922,4.3046875-10.8222656h-3.1977539v-1.7216797h3.5361328v-5.6884766h1.8447266v5.6884766h3.5356445v1.7216797h-3.2895508c1.1064453,2.5830078,2.0595703,4.1201172,3.1049805,5.5341797l-1.0756836,1.7832031c-1.0454102-2.0595703-1.5375977-3.5048828-2.2753906-5.6259766v18.5703125h-1.8447266Zm12.7597656-7.1328125c-1.9985352,1.875-4.6738281,3.9658203-7.7788086,5.3193359l-.9838867-1.6611328c3.3203125-1.3212891,6.2719727-3.4121094,7.840332-5.0419922l.9223633,1.3837891Zm-3.3515625-1.4453125c-1.3833008-1.4140625-3.6894531-3.2285156-3.6894531-3.2285156l1.3222656-1.2294922s2.1518555,1.7216797,3.6279297,3.1972656l-1.2607422,1.2607422Zm12.605957,7.0097656c-2.4594727-1.6904297-5.4111328-4.3349609-6.9179688-7.9326172v5.9648438c0,2.2451172-.9223633,3.4746094-4.550293,3.4746094l-.7993164-1.875c3.074707,0,3.5048828-.3076172,3.5048828-1.6611328v-10.1455078h-7.0717773v-1.6298828h7.0717773v-2.9208984h-6.3642578v-1.6298828h6.3642578v-2.7978516h-7.1943359v-1.6914062h4.4580078c-.3691406-.6455078-1.0761719-1.5673828-1.5986328-2.4589844l1.6293945-.7070312c.7070312,1.3212891,1.4145508,2.6435547,1.690918,3.1660156h4.027832c.4614258-.6142578,1.4145508-2.0898438,1.9370117-3.1972656l1.6606445.6767578c-.5844727,1.1064453-1.1992188,1.875-1.6914062,2.5205078h4.0893555v1.6914062h-7.1640625v2.7978516h6.1494141v1.6298828h-6.1494141v2.9208984h6.9179688v1.6298828h-6.9179688v.7988281c.4614258,1.5068359,1.2299805,2.890625,1.9677734,4.0585938,2.1831055-1.6914062,3.5053711-3.7509766,3.5053711-3.7509766l1.4755859,1.0449219s-1.8447266,2.4296875-4.027832,4.0585938c2.2446289,2.9521484,4.980957,4.3046875,4.980957,4.3046875l-.9838867,1.6601562Z"/>
      <path class="cls-2" d="m586.4450684,235.2851562c-3.4741211.6152344-7.2558594,1.0449219-11.1298828,1.0449219-7.7177734,0-12.7294922-2.3056641-12.7294922-7.2246094,0-2.6142578,2.121582-5.5966797,4.5507812-7.5332031h2.7978516c-2.7978516,1.8447266-5.2578125,5.0117188-5.2578125,7.4101562,0,3.8125,4.4584961,5.4111328,10.5771484,5.4111328,3.9663086,0,7.625-.4921875,11.1914062-1.1689453v2.0605469Zm-21.5839844-19.5859375v-1.9677734h19.9853516v1.9677734h-19.9853516Z"/>
      <path class="cls-2" d="m604.838623,217.0830078c-1.2299805,6.8261719-2.859375,12.9755859-5.3500977,19.6162109h-2.2441406c2.644043-6.2724609,4.3964844-12.8212891,5.6264648-19.6162109h-5.3193359v-1.8447266h5.6269531c.2148438-1.4140625.4301758-2.828125.6147461-4.2431641h2.0600586c-.215332,1.4453125-.4306641,2.859375-.6762695,4.2431641h15.5576172v1.8447266h-15.8959961Zm18.2016602,18.8476562c-2.4287109.4921875-5.5649414.9228516-8.7626953.9228516-5.503418,0-8.5473633-1.90625-8.5473633-5.1044922,0-2.0595703,1.4760742-3.9355469,2.5517578-5.1962891h2.3676758c-1.1992188,1.1074219-3.0131836,3.1982422-3.0131836,5.0732422,0,2.1835938,2.5517578,3.3828125,6.671875,3.3828125,3.1669922,0,6.3032227-.4921875,8.7319336-1.1074219v2.0292969Zm-15.3730469-13.0058594v-1.8134766h14.5737305v1.8134766h-14.5737305Zm9.9311523-8.8857422v-4.5810547h1.5371094v4.5810547h-1.5371094Zm3.3208008,0v-4.5810547h1.5371094v4.5810547h-1.5371094Z"/>
      <path class="cls-2" d="m648.0749512,234.9160156c4.0585938-.4306641,9.53125-2.8896484,9.53125-10.4228516,0-4.5810547-2.4594727-8.3017578-7.9018555-8.3017578-3.8125,0-6.8564453,2.4599609-8.7011719,5.3193359v16.0800781h-1.9370117v-12.6054688c-1.4453125,2.5820312-3.8432617,6.1181641-5.9033203,8.6083984v-2.859375c1.7216797-2.1210938,4.0893555-5.5644531,5.9033203-9.1318359v-2.3359375h-5.7802734v-1.8759766h5.7802734v-6.4257812h1.9370117v7.9941406c1.5063477-1.9990234,4.550293-4.6425781,8.8549805-4.6425781,6.7026367,0,9.746582,4.8574219,9.746582,10.1767578,0,9.0087891-6.3950195,11.6835938-11.5297852,12.2675781v-1.8447266Z"/>
      <path class="cls-2" d="m675.9074707,235.5c9.0395508-.1845703,14.6044922-3.4736328,14.6044922-12.2978516,0-4.3662109-1.6293945-9.5009766-6.7333984-9.5009766-5.6264648,0-9.0395508,7.7783203-10.0234375,15.0654297h-1.8139648c.0922852-4.8886719.2768555-11.5605469.5537109-16.6025391h2.0292969c-.2460938,2.2138672-.4921875,7.4404297-.6767578,10.1767578.769043-3.3818359,3.8432617-10.484375,10.0849609-10.484375,5.5341797,0,8.6088867,4.7958984,8.6088867,11.3457031,0,9.8388672-6.0874023,14.0810547-16.6337891,14.2041016v-1.90625Z"/>
      <path class="cls-2" d="m718.4367676,235.0703125c5.0424805-.6152344,10.3920898-3.6904297,10.3920898-11.1611328,0-5.8417969-3.8432617-9.1933594-9.4389648-9.5625-.6767578,5.7802734-2.1831055,13.375-4.1816406,17.2490234-1.4453125,3.0126953-3.0439453,3.7197266-4.6118164,3.7197266-2.5522461,0-5.8417969-3.1044922-5.8417969-9.0693359,0-7.5947266,5.5649414-13.7441406,13.8666992-13.7441406,7.3173828,0,12.2060547,4.3662109,12.2060547,11.4375,0,8.7324219-6.2109375,12.421875-12.390625,13.0371094v-1.90625Zm-11.8066406-8.8242188c0,4.7041016,2.3979492,7.1015625,3.9047852,7.1015625,1.0146484,0,2.0908203-.3994141,3.4433594-3.5351562,1.5375977-3.5361328,2.9516602-10.6386719,3.4438477-15.4658203-6.7026367.4609375-10.7919922,5.8115234-10.7919922,11.8994141Z"/>
      <path class="cls-2" d="m756.7536621,237.0068359c-3.2895508-4.8574219-7.7172852-10.6992188-11.4682617-14.9423828h2.7363281c1.5375977,1.875,3.3823242,4.1816406,5.2270508,6.5488281,5.2270508-2.7978516,9.4389648-7.2871094,11.3457031-13.5283203h-23.7670898v-1.9375h26.4111328l-.0307617.1542969c-1.690918,8.5166016-6.8256836,13.6513672-12.7597656,16.9101562,1.7832031,2.3056641,3.5356445,4.7041016,4.9501953,6.7949219h-2.6445312Z"/>
      <path class="cls-2" d="m788.2458496,237.8681641v-15.9267578c-3.8125,2.4287109-8.3632812,4.2431641-13.8666992,5.5957031v-2.0292969c10.6381836-2.5517578,17.6176758-7.8095703,21.7070312-14.0205078h2.6748047c-2.3676758,3.5664062-5.0732422,6.5488281-8.362793,8.9775391v17.4033203h-2.1523438Z"/>
      <path class="cls-2" d="m809.5285645,233.3789062c2.7363281-2.5830078,4.6118164-7.7480469,5.1347656-12.8828125h2.0292969c-.769043,6.0878906-2.675293,11.9296875-7.1640625,15.4042969v-2.5214844Zm12.2060547,4.2431641v-20.1396484h-11.5605469v-1.875h11.5605469v-4.6738281h2.0600586v4.6738281h11.7143555v1.875h-11.7143555v20.1396484h-2.0600586Zm14.3896484-1.6914062c-4.5200195-3.5048828-6.4570312-9.3466797-7.2255859-15.4345703h2.0292969c.5229492,5.1347656,2.4291992,10.2998047,5.1962891,12.8828125v2.5517578Z"/>
      <path class="cls-2" d="m846.0622559,223.8476562v-1.9375h25.7963867v1.9375h-25.7963867Z"/>
      <path class="cls-2" d="m877.9836426,236.453125v-1.90625c3.3515625-6.5175781,6.6723633-14.7578125,8.7626953-22.4443359h2.2138672c-2.7055664,9.5-5.8725586,16.3876953-8.793457,22.4755859h21.1845703c-1.4453125-4.1201172-4.3662109-9.5927734-6.8564453-13.4980469h2.3671875c2.4907227,4.0898438,5.3808594,9.5927734,7.4716797,15.4042969l-26.3500977-.03125Z"/>
      <path class="cls-2" d="m927.5544434,235.0703125c5.0424805-.6152344,10.3920898-3.6904297,10.3920898-11.1611328,0-5.8417969-3.8432617-9.1933594-9.4389648-9.5625-.6767578,5.7802734-2.1831055,13.375-4.1816406,17.2490234-1.4453125,3.0126953-3.0439453,3.7197266-4.6118164,3.7197266-2.5522461,0-5.8417969-3.1044922-5.8417969-9.0693359,0-7.5947266,5.5649414-13.7441406,13.8666992-13.7441406,7.3173828,0,12.2060547,4.3662109,12.2060547,11.4375,0,8.7324219-6.2109375,12.421875-12.390625,13.0371094v-1.90625Zm-11.8066406-8.8242188c0,4.7041016,2.3979492,7.1015625,3.9047852,7.1015625,1.0146484,0,2.0908203-.3994141,3.4433594-3.5351562,1.5375977-3.5361328,2.9516602-10.6386719,3.4438477-15.4658203-6.7026367.4609375-10.7919922,5.8115234-10.7919922,11.8994141Z"/>
      <path class="cls-2" d="m950.1286621,235.1621094c1.722168-2.1210938,4.796875-5.8417969,4.796875-16.2958984v-6.7333984h1.9985352v6.7949219c0,11.4375-3.628418,15.9882812-6.7954102,18.7558594v-2.5214844Zm12.2373047-23.0595703h1.9677734v22.3828125c6.2416992-1.8134766,9.53125-6.9794922,10.5766602-14.8808594h1.9985352c-1.1992188,9.9306641-5.5341797,15.7109375-14.5429688,17.4023438v-24.9042969Z"/>
      <path class="cls-2" d="m986.2937012,223.8476562v-1.9375h25.7963867v1.9375h-25.7963867Z"/>
      <path class="cls-2" d="m1018.2150879,236.453125v-1.90625c3.3515625-6.5175781,6.6723633-14.7578125,8.7626953-22.4443359h2.2138672c-2.7055664,9.5-5.8725586,16.3876953-8.793457,22.4755859h21.1845703c-1.4453125-4.1201172-4.3662109-9.5927734-6.8564453-13.4980469h2.3671875c2.4907227,4.0898438,5.3808594,9.5927734,7.4716797,15.4042969l-26.3500977-.03125Z"/>
      <path class="cls-2" d="m1054.0715332,224.5234375c-.7993164-3.8427734-2.0600586-7.9013672-3.6586914-11.7138672h2.1826172c1.5375977,3.8125,2.7983398,7.8398438,3.6591797,11.7138672h-2.1831055Zm2.5825195,10.6083984c12.6674805-2.5527344,16.8798828-11.46875,17.1259766-22.7529297v-.1533203h2.2138672v.1845703c-.4306641,12.6367188-5.2885742,21.9521484-19.3398438,24.78125v-2.0595703Zm6.8564453-11.1308594c-.7993164-3.9355469-1.8447266-7.5322266-3.4125977-11.6523438h2.1831055c1.4755859,3.8740234,2.4902344,7.5634766,3.3818359,11.6523438h-2.1523438Z"/>
      <path class="cls-2" d="m1087.1003418,235.1923828c5.8730469-2.4902344,9.0395508-6.2714844,9.0395508-14.6044922v-2.3974609h1.9985352v2.4902344c0,1.7216797-.1538086,3.3203125-.4301758,4.765625,6.0878906-1.2607422,9.746582-4.765625,10.6381836-10.7919922h-22.3217773v-1.9375h24.6586914v.3076172c-.5844727,8.8554688-6.0263672,13.2216797-13.4980469,14.4814453-1.5678711,4.8886719-5.0424805,7.9326172-10.0849609,9.7470703v-2.0605469Z"/>
      <path class="cls-2" d="m1120.3747559,223.8476562v-1.9375h25.7963867v1.9375h-25.7963867Z"/>
      <path class="cls-2" d="m1170.5603027,235.1318359c-3.6586914.6455078-7.840332,1.3525391-14.4814453,1.5986328l-.4306641-1.8144531c2.3676758,0,4.7353516-.0917969,6.8564453-.3378906v-2.8291016h-6.1181641v-1.5058594h6.1181641v-2.4912109h-5.71875v-8.8242188h5.71875v-2.0908203h-6.9487305v-1.5986328h6.9487305v-2.1826172c-1.5986328.0917969-3.4125977.1845703-5.4418945.1845703l-.5229492-1.6611328h1.1376953c8.3017578,0,11.7758789-1.2597656,11.7758789-1.2597656l1.1069336,1.5371094s-2.0600586.6455078-6.2109375,1.0449219v2.3369141h6.7338867v1.5986328h-6.7338867v2.0908203h5.7192383v8.8242188h-5.7192383v2.4912109h6.0878906v1.5058594h-6.0878906v2.6748047c3.5361328-.3681641,6.2109375-.9833984,6.2109375-.9833984v1.6914062Zm-8.0556641-14.7275391h-3.8740234v2.2441406h3.8740234v-2.2441406Zm0,3.5664062h-3.8740234v2.3056641h3.8740234v-2.3056641Zm5.7192383-3.5664062h-3.8745117v2.2441406h3.8745117v-2.2441406Zm0,3.5664062h-3.8745117v2.3056641h3.8745117v-2.3056641Zm6.887207,11.7451172h.8916016c4.0585938,0,4.1811523-.3388672,4.1811523-11.0380859v-6.3642578h-3.4741211c-.1230469,8.3623047-1.1992188,14.2353516-5.2270508,19.6464844l-1.2602539-1.6601562c3.4741211-4.6123047,4.5195312-9.8388672,4.6425781-17.9863281h-3.0131836v-1.6914062h3.0439453v-6.3339844h1.8447266v6.3339844h5.2885742v6.1181641c0,14.1748047-.2768555,14.8818359-6.1801758,14.8818359l-.737793-1.90625Z"/>
      <path class="cls-2" d="m1197.4094238,232.1181641v-15.6806641h7.1328125v-3.1357422h-11.9291992v-1.7832031h25.734375v1.7832031h-11.9599609v3.1357422h7.2558594v15.6806641h-16.2338867Zm18.9086914,5.8417969v-1.9980469h-21.5839844v1.9980469h-1.8447266v-19.5546875h1.8447266v15.7734375h21.5839844v-15.7734375h1.8452148v19.5546875h-1.8452148Zm-11.7758789-19.7392578h-5.2880859v5.0429688h5.2880859v-5.0429688Zm0,6.703125h-5.2880859v5.4111328h5.2880859v-5.4111328Zm7.2563477-6.703125h-5.4111328v5.0429688h5.4111328v-5.0429688Zm0,6.703125h-5.4111328v5.4111328h5.4111328v-5.4111328Z"/>
      <path class="cls-2" d="m1238.8620605,237.8369141c-1.4448242-5.5341797-3.4433594-11.9599609-5.5341797-18.2939453-2.0600586.7070312-3.9355469,1.4140625-5.4731445,2.0292969v-2.0605469c1.4145508-.5224609,3.074707-1.1064453,4.8886719-1.6904297-.6762695-1.9677734-1.3217773-3.9355469-1.9677734-5.8730469h2.0292969c.5229492,1.5986328,1.1376953,3.3828125,1.7529297,5.3193359,2.1518555-.6455078,4.3964844-1.2294922,6.5795898-1.6601562-.8608398-1.5683594-1.7524414-3.1357422-2.5825195-4.3662109h2.1210938c.7998047,1.1689453,1.5991211,2.6132812,2.3676758,4.0585938,1.1376953-.1533203,2.2446289-.2460938,3.2592773-.2460938,6.456543,0,8.9165039,3.8740234,8.9165039,7.3789062,0,5.9648438-5.4731445,8.4560547-11.8989258,8.7324219v-1.8447266c4.8579102-.1230469,9.9003906-2.0292969,9.9003906-6.8564453,0-2.5517578-1.90625-5.5957031-6.9794922-5.5957031-.769043,0-1.5683594.0615234-2.3984375.1533203.953125,1.90625,1.9370117,3.9970703,2.5522461,5.6269531h-2.121582c-.5844727-1.7529297-1.4145508-3.6279297-2.3061523-5.3496094-2.2446289.3681641-4.6118164.9833984-6.8564453,1.6601562,2.121582,6.4257812,4.4887695,13.8359375,5.934082,18.8779297h-2.1831055Z"/>
      <path class="cls-2" d="m1265.833252,237.6523438c-1.4453125-1.9677734-3.2592773-4.2431641-5.6264648-6.4560547h2.6748047c1.90625,1.8134766,3.7509766,4.0576172,5.6264648,6.4873047l-2.6748047-.03125Z"/>
      <path class="cls-2" d="m16.6953125,291.0078125c-3.2897949-4.8583984-7.7172852-10.7001953-11.4685059-14.9433594h2.7365723c1.5373535,1.8759766,3.3820801,4.1816406,5.2268066,6.5488281,5.2270508-2.7978516,9.439209-7.2861328,11.345459-13.5283203H.7685547v-1.9365234h26.411377l-.0307617.1533203c-1.6911621,8.5166016-6.8256836,13.6513672-12.7597656,16.9111328,1.7832031,2.3056641,3.5356445,4.7041016,4.9501953,6.7949219h-2.6442871Z"/>
      <path class="cls-2" d="m48.1865234,291.8681641v-15.9267578c-3.8125,2.4287109-8.3630371,4.2431641-13.8664551,5.5957031v-2.0292969c10.6381836-2.5517578,17.6176758-7.8095703,21.7070312-14.0195312h2.6748047c-2.3674316,3.5664062-5.0732422,6.5488281-8.3630371,8.9775391v17.4023438h-2.1523438Z"/>
      <path class="cls-2" d="m69.4702148,287.3789062c2.7363281-2.5820312,4.6118164-7.7480469,5.1345215-12.8828125h2.0292969c-.7685547,6.0878906-2.6748047,11.9296875-7.1638184,15.4042969v-2.5214844Zm12.2062988,4.2431641v-20.1386719h-11.560791v-1.8759766h11.560791v-4.6728516h2.0600586v4.6728516h11.7143555v1.8759766h-11.7143555v20.1386719h-2.0600586Zm14.3894043-1.6904297c-4.5197754-3.5058594-6.4567871-9.3476562-7.2255859-15.4355469h2.0292969c.5227051,5.1347656,2.4289551,10.3007812,5.1962891,12.8828125v2.5527344Z"/>
      <path class="cls-2" d="m106.0039062,277.8476562v-1.9365234h25.7961426v1.9365234h-25.7961426Z"/>
      <path class="cls-2" d="m137.9250488,290.4541016v-1.90625c3.3513184-6.5185547,6.671875-14.7587891,8.7626953-22.4453125h2.213623c-2.7055664,9.5009766-5.8725586,16.3876953-8.793457,22.4755859h21.1843262c-1.4450684-4.1201172-4.3659668-9.5927734-6.8564453-13.4970703h2.3674316c2.4904785,4.0888672,5.3806152,9.5927734,7.4714355,15.4033203l-26.3496094-.0302734Z"/>
      <path class="cls-2" d="m192.0456543,291.0078125c-.7685547,0-2.552002-.2158203-2.552002-2.4296875v-7.9013672h-6.0568848c-.6765137,7.1328125-3.7512207,9.5-9.2241211,11.2841797l-1.1989746-1.8144531c5.7802734-1.4453125,8.0861816-3.9052734,8.486084-9.4697266h-6.795166v-1.8447266h24.2590332v1.8447266h-7.532959v7.1328125c0,.9228516.2460938,1.3535156,1.4145508,1.3535156h3.4128418c1.1066895,0,1.9985352-.7695312,2.4904785-4.828125l1.90625.953125c-1.1992188,5.0117188-1.8449707,5.7197266-4.027832,5.7197266h-4.5812988Zm5.9033203-18.2949219v-3.8125h-22.1989746v3.84375h-1.8447266v-5.6269531h12.0219727v-2.828125h1.8447266v2.828125h12.0217285v5.5957031h-1.8447266Zm-20.138916,2.0292969v-1.8447266h18.1403809v1.8447266h-18.1403809Z"/>
      <path class="cls-2" d="m236.7275391,286.1806641c-1.3220215,3.9355469-2.859375,5.1953125-4.2736816,5.1953125-1.4145508,0-3.4438477-1.2910156-5.1347656-5.71875-2.4597168,2.6445312-4.8886719,4.765625-6.2414551,5.6269531l-1.4143066-1.5986328c1.3835449-.8916016,4.0891113-2.8291016,6.8256836-5.8730469-.953125-2.7666016-1.90625-6.7333984-2.3984375-12.2675781h-10.5151367v4.2119141h8.1784668v3.9667969c0,4.9804688-.0307617,7.2871094-5.8725586,7.4101562l-.7685547-1.8457031h.3996582c5.0117188,0,4.2736816-1.6904297,4.3967285-4.6728516v-3.0136719h-6.3337402c-.0307617,4.7041016-.4304199,10.5771484-3.0439453,14.359375l-1.4143066-1.7841797c2.5212402-3.3818359,2.6135254-10.1455078,2.6135254-14.9423828v-5.5341797h12.2370605c-.1230469-1.6601562-.1538086-3.4746094-.1538086-5.4111328h1.8447266c0,1.9365234.0922852,3.7509766.1538086,5.4111328h10.2385254v1.8447266h-10.0847168c.5227051,5.5654297,1.2297363,8.3632812,1.9985352,10.8222656,1.7216797-2.1826172,3.2897949-4.8574219,4.0275879-7.9013672l1.7219238.9833984c-1.3527832,3.6289062-2.9516602,6.3652344-4.980957,8.8242188.9223633,2.6142578,2.5212402,5.0732422,3.6281738,5.0732422.8916016,0,1.8447266-1.3212891,2.8901367-5.0732422l1.4758301,1.9072266Zm-4.5197754-17.0341797s-1.9370117-2.0292969-3.9970703-3.3818359l1.1992188-1.3222656c1.7832031,1.2294922,4.0891113,3.2900391,4.0891113,3.2900391l-1.2912598,1.4140625Z"/>
      <path class="cls-2" d="m271.7546387,288.3935547c-1.90625-1.3525391-5.503418-3.8740234-9.746582-5.4111328v.8300781c0,5.8730469-3.2590332,7.7177734-7.8095703,7.7177734-4.8886719,0-7.3791504-2.5830078-7.3791504-5.8115234,0-3.1357422,2.7058105-5.8720703,8.270752-5.8720703,1.6911621,0,3.3515625.2460938,4.9194336.6142578v-4.1503906h-13.1286621v-1.6914062h13.1286621v-4.4882812h-13.1286621v-1.7529297h13.1286621v-3.4130859h1.9985352v3.4130859h9.3161621v1.7529297h-9.3161621v4.4882812h9.3161621v1.7226562h-9.3161621v4.7041016c4.6120605,1.5058594,8.2402344,4.0888672,9.746582,5.0732422v2.2744141Zm-11.7451172-6.0566406c-1.6293945-.4609375-3.3205566-.7382812-5.0422363-.7382812-4.3354492,0-6.2724609,1.9375-6.2724609,4.1201172,0,2.3681641,2.1831055,3.9970703,5.4729004,3.9970703,3.9047852,0,5.8417969-1.7216797,5.8417969-6.0878906v-1.2910156Z"/>
      <path class="cls-2" d="m302.0163574,290.7919922c-8.9470215,0-15.4038086-3.0742188-15.4038086-10.3310547,0-4.6425781,3.5664062-8.7929688,9.2854004-11.2529297l-16.019043.5224609v-1.9365234l25.2429199-.6455078v1.90625l-3.6586914.0917969c-6.9794922,1.3222656-12.7905273,5.8115234-12.7905273,11.1914062,0,6.3339844,6.1491699,8.4863281,13.6206055,8.4863281v1.9677734h-.2768555Zm-2.4597168-14.0507812v-5.0429688h1.5681152v5.0429688h-1.5681152Zm3.3515625,0v-5.0429688h1.5371094v5.0429688h-1.5371094Z"/>
      <path class="cls-2" d="m329.2646484,289.0703125c5.0424805-.6152344,10.392334-3.6894531,10.392334-11.1611328,0-5.8417969-3.8432617-9.1933594-9.4389648-9.5615234-.6765137,5.7802734-2.1831055,13.3740234-4.1816406,17.2480469-1.4450684,3.0136719-3.0439453,3.7207031-4.6120605,3.7207031-2.5517578,0-5.8417969-3.1054688-5.8417969-9.0703125,0-7.5947266,5.5651855-13.7431641,13.8666992-13.7431641,7.317627,0,12.2062988,4.3652344,12.2062988,11.4375,0,8.7314453-6.2106934,12.4208984-12.3908691,13.0361328v-1.90625Zm-11.8066406-8.8242188c0,4.7041016,2.3984375,7.1025391,3.9050293,7.1025391,1.0144043,0,2.0905762-.3994141,3.4433594-3.5361328,1.5373535-3.5351562,2.9516602-10.6376953,3.4438477-15.4648438-6.7028809.4609375-10.7922363,5.8105469-10.7922363,11.8984375Z"/>
      <path class="cls-2" d="m355.7138672,276.2802734c-1.7832031-1.5996094-4.7963867-3.4746094-4.7963867-3.4746094l.9838867-1.5068359s2.8901367,1.7529297,4.8886719,3.4746094l-1.0761719,1.5068359Zm-4.7963867,13.3125c3.3205566-4.2734375,5.5651855-10.0234375,5.5651855-10.0234375l1.4143066,1.2304688s-2.1831055,5.5957031-5.5036621,10.1767578l-1.4758301-1.3837891Zm5.9956055-20.1074219c-2.2446289-2.1220703-4.8579102-3.6591797-4.8579102-3.6591797l.9838867-1.5371094s2.6748047,1.6289062,4.9807129,3.8427734l-1.1066895,1.3535156Zm-.3383789,20.8144531c5.3498535-2.6748047,5.7497559-7.8398438,5.7497559-11.7451172h1.8139648c0,4.5507812-.7993164,10.1777344-6.2722168,13.3134766l-1.2915039-1.5683594Zm19.7700195-12.390625s-.645752-.953125-1.1682129-1.7216797c-4.3046875.7685547-8.5168457,1.2294922-15.8652344,1.3222656l-.1845703-1.8447266h1.4450684c.4611816,0,.953125,0,1.3222656-.03125,1.1682129-1.5986328,2.7670898-4.2421875,3.5664062-6.5791016h-6.026123v-1.7832031h7.9018555v-2.9824219h1.8447266v2.9824219h8.2399902v1.7832031h-9.8081055c-1.1992188,2.7666016-2.6135254,5.1650391-3.505127,6.5175781,3.0439453-.0615234,7.0717773-.2763672,9.9311523-.921875-.7687988-1.0146484-1.6604004-2.0908203-2.5827637-2.9824219l1.4143066-1.0146484c2.4904785,2.6445312,5.0117188,6.1494141,5.0117188,6.1494141l-1.5373535,1.1064453Zm-9.3161621,13.7744141v-13.1289062h1.8447266v13.1289062h-1.8447266Zm7.1640625-.4306641c-1.9370117,0-2.2446289-.7373047-2.2446289-2.7978516v-9.8691406h1.8447266v9.2851562c0,1.5371094.1230469,1.5371094.8918457,1.5371094h.737793c.7993164,0,1.1069336-.953125,1.2912598-4.5195312l1.8757324.8300781c-.4919434,4.2431641-.8303223,5.5341797-2.7058105,5.5341797h-1.690918Z"/>
      <path class="cls-2" d="m415.5227051,288.7011719c-1.2299805.7382812-2.8286133,1.3837891-4.2736816,1.3837891-1.8449707,0-3.4128418-.7998047-3.4128418-4.0585938v-12.2988281c0-2.1826172-.5534668-4.1503906-3.2900391-4.1503906-3.4436035,0-7.2868652,4.5810547-8.9165039,7.1943359v14.8818359h-1.9677734v-11.8994141c-1.4758301,2.5830078-3.9047852,6.0263672-6.026123,8.5166016v-2.8896484c1.7524414-2.1523438,4.1506348-5.4726562,6.026123-9.0087891v-3.0742188h-6.026123v-1.8447266h6.026123v-6.4267578h1.9677734v8.8242188c1.4145508-1.7519531,4.9194336-6.2412109,9.1625977-6.2412109,3.7202148,0,5.0732422,2.6132812,5.0732422,5.6572266v12.5136719c0,1.8144531.4916992,2.3066406,1.7216797,2.3066406s2.6442871-.7695312,3.9355469-1.7841797v2.3984375Z"/>
      <path class="cls-2" d="m428.7509766,291.6533203c-1.4450684-1.9677734-3.2592773-4.2431641-5.626709-6.4570312h2.6750488c1.90625,1.8144531,3.7509766,4.0585938,5.6264648,6.4873047l-2.6748047-.0302734Z"/>
      <path class="cls-2" d="m453.2902832,284.796875s-4.1508789,1.9677734-8.8857422,3.2587891l-.4611816-1.8447266c2.0292969-.5224609,3.9355469-1.1679688,3.9355469-1.1679688v-10.6689453h-3.6896973v-1.7841797h3.6896973v-7.4091797h1.8447266v7.4091797h3.3513184v1.7841797h-3.3513184v10.0224609c2.0292969-.7373047,3.5666504-1.4755859,3.5666504-1.4755859v1.8759766Zm5.8725586,5.9033203c-.3996582,0-2.4904785-.1845703-2.4904785-2.4599609v-13.8974609l-2.6442871.4609375v-1.875l2.6442871-.4619141v-6.2099609h1.90625v5.8720703l3.5358887-.7070312v-7.1640625h1.90625v6.8261719l5.8110352-1.1376953v9.9003906c0,1.7832031-1.4450684,2.5205078-3.8740234,2.5205078l-.737793-1.90625h.3381348c1.9677734,0,2.3674316-.0302734,2.3674316-1.0761719v-7.2861328l-3.9047852.7988281v10.9765625h-1.90625v-10.6074219l-3.5358887.7382812v13.5585938c0,1.1074219.7072754,1.2919922,1.4758301,1.2919922h6.3952637c2.2751465,0,2.9824219-.2460938,3.2285156-4.9814453l1.90625,1.1992188c-.3996582,5.5957031-2.3981934,5.6269531-3.9970703,5.6269531h-8.4245605Z"/>
      <path class="cls-2" d="m488.4709473,285.1044922s-3.7202148,1.9980469-7.932373,3.2587891l-.4611816-1.90625c1.1989746-.3378906,2.3674316-.7382812,3.4128418-1.1074219v-10.9755859h-3.1669922v-1.8457031h3.1669922v-7.3476562h1.8447266v7.3476562h2.9211426v1.8457031h-2.9211426v10.2382812c1.9064941-.7685547,3.1359863-1.4453125,3.1359863-1.4453125v1.9375Zm9.1010742.0615234s-3.7817383,2.0595703-9.2236328,3.2890625l-.5844727-1.8447266c5.7495117-.9833984,9.746582-3.2900391,9.746582-3.2900391l.0615234,1.8457031Zm10.1157227,1.4140625c-.7070312,3.7509766-1.8754883,5.3496094-3.074707,5.3496094-1.0454102,0-2.121582-1.1376953-3.0131836-3.1054688-.4916992-1.0761719-.6147461-1.7832031-.8608398-2.5214844-2.9516602,3.5976562-6.6411133,5.6269531-6.6411133,5.6269531l-1.2915039-1.6298828s4.027832-1.5371094,7.4404297-5.7490234c-.6147461-2.7978516-1.0756836-7.3173828-1.3217773-13.2822266h-10.8842773v-1.8447266h10.8535156c0-1.5683594-.0307617-3.2597656-.0307617-5.1347656h1.8754883c0,1.8447266.0307617,3.5351562.0307617,5.1347656h6.671875v1.8447266h-6.671875c.0922852,5.1650391.4301758,8.9775391.8300781,11.7138672,1.4760742-2.3369141,2.5209961-5.1347656,3.074707-8.3935547l1.7524414.7382812c-.8916016,3.78125-2.5825195,7.5019531-4.3657227,9.6845703.1225586.5224609,1.3217773,4.6738281,2.3364258,4.6738281.5844727,0,1.1376953-1.2919922,1.7524414-4.9814453l1.5375977,1.8759766Zm-17.9560547-4.3964844v-8.5175781h7.2563477v8.5175781h-7.2563477Zm5.4116211-6.734375h-3.5668945v4.9501953h3.5668945v-4.9501953Zm10.0229492-6.5791016s-1.2294922-1.9677734-2.5517578-3.2597656l1.5371094-1.0449219c1.3222656,1.2294922,2.5522461,3.2587891,2.5522461,3.2587891l-1.5375977,1.0458984Z"/>
      <path class="cls-2" d="m516.2111816,278.6777344c.7075195-2.7050781.8920898-9.2236328.8920898-9.2236328l1.6601562.0615234s-.1230469,6.671875-.8916016,9.8085938l-1.6606445-.6464844Zm3.84375,13.2832031v-27.671875h1.8447266v27.671875h-1.8447266Zm4.0888672-15.6806641c-.4301758-2.9824219-1.4755859-6.3037109-1.4755859-6.3037109l1.5063477-.6455078s1.0761719,2.9824219,1.6606445,6.2412109l-1.6914062.7080078Zm2.1523438-.6464844v-1.5986328h7.8095703v-2.6132812h-6.456543v-1.5371094h6.456543v-2.2753906h-7.3173828v-1.5986328h7.3173828v-1.7216797h1.7832031v1.7216797h7.2871094v1.5986328h-7.2871094v2.2753906h6.5493164v1.5371094h-6.5493164v2.6132812h7.9941406v1.5986328h-17.5869141Zm14.4506836,11.4072266h-11.3759766v4.9199219h-1.7832031v-14.1435547h14.9428711v10.7304688c0,2.7666016-.9223633,3.3203125-5.5654297,3.3203125l-.737793-1.7216797c4.5195312,0,4.5195312-.1533203,4.5195312-1.4755859v-1.6298828Zm0-7.5634766h-11.3759766v2.1826172h11.3759766v-2.1826172Zm0,3.7509766h-11.3759766v2.2441406h11.3759766v-2.2441406Z"/>
      <path class="cls-2" d="m558.7409668,291.9609375v-5.5966797h-5.503418v-1.6601562h5.503418v-4.3046875h-6.1801758v-1.6601562h3.7202148c-.5532227-1.9677734-1.1064453-3.7509766-1.3833008-4.765625h-2.5522461v-1.6601562h6.3032227v-3.6894531h-5.1962891v-1.6601562h5.1962891v-2.6748047h1.8447266v2.6748047h4.8579102v1.6601562h-4.8579102v3.6894531h5.9648438v1.6601562h-2.1831055c-.2456055,1.0761719-.9223633,2.9208984-1.6293945,4.765625h3.7817383v1.6601562h-5.8417969v4.3046875h5.2578125v1.6601562h-5.2578125v5.5966797h-1.8447266Zm2.3061523-13.2216797c.6455078-1.6601562,1.137207-3.5351562,1.4140625-4.765625h-5.7802734c.3076172,1.2304688.7685547,3.2285156,1.1992188,4.765625h3.1669922Zm17.6176758,13.2216797c-1.4145508-1.2304688-2.4599609-2.7373047-3.4746094-4.2744141-1.0761719,1.5986328-2.2441406,3.1054688-3.8740234,4.2744141l-1.1376953-1.6298828c1.722168-1.1679688,3.0439453-2.3984375,3.9970703-3.84375-2.1831055-3.6582031-2.7055664-6.2412109-3.5048828-8.4853516h-1.168457v13.9589844h-1.8447266v-26.4726562h11.1611328v2.3974609c0,5.1660156-.215332,6.3652344-5.8115234,6.3652344l-.6147461-1.8447266q4.5810547,0,4.5810547-3.5673828v-1.5673828h-7.4711914v8.9472656h9.5004883c-.2148438,3.0742188-.4916992,6.8251953-2.6748047,10.3300781,1.0146484,1.5683594,2.1831055,2.7978516,3.6279297,3.9667969l-1.2910156,1.4453125Zm-6.1186523-13.9589844c.4609375,1.875,1.3222656,4.765625,2.7363281,7.3476562,1.5683594-3.0742188,1.690918-5.5029297,1.8139648-7.3476562h-4.550293Z"/>
      <path class="cls-2" d="m588.326416,288.1787109c3.0131836-5.5957031,5.1342773-11.5917969,6.5180664-17.0644531h-5.1962891v-1.7832031h5.6269531c.3378906-1.5068359.6147461-2.9824219.8300781-4.3662109h2.0292969c-.2460938,1.5068359-.5229492,2.9521484-.8613281,4.3662109h6.8569336v1.7832031h-7.2871094c-1.5986328,6.3642578-3.8432617,12.0224609-6.1801758,17.0644531h-2.3364258Zm27.7944336-.3994141c-1.1987305-.984375-2.9208984-2.3984375-5.0117188-3.5976562v.4921875c0,5.1650391-3.3510742,7.1025391-7.5942383,7.1025391-4.6425781,0-7.5019531-2.2451172-7.5019531-5.5957031,0-3.5058594,3.074707-5.8730469,7.5942383-5.8730469,2.0600586,0,3.9355469.4306641,5.5957031,1.0146484v-10.2080078h-2.859375v-1.7832031h9.4086914v1.7832031h-4.6430664v11.0078125c2.4907227,1.1982422,4.2431641,2.6435547,5.0117188,3.1972656v2.4599609Zm-6.9179688-4.5507812c-1.6601562-.7070312-3.5356445-1.1992188-5.5341797-1.1992188-3.6586914,0-5.8417969,1.7216797-5.8417969,4.1201172,0,2.4287109,2.3061523,3.8740234,5.6264648,3.8740234,3.1362305,0,5.7495117-1.3837891,5.7495117-5.71875v-1.0761719Z"/>
      <path class="cls-2" d="m650.7180176,290.1464844c-2.7055664.4921875-6.9179688,1.0146484-11.0380859,1.0449219-9.6850586,0-13.2514648-3.3818359-13.2514648-7.7480469,0-4.5498047,4.0888672-7.59375,10.0229492-9.4082031-.4301758-3.1972656-1.0454102-8.3320312-1.0454102-8.3320312h2.1523438s.4306641,4.5810547.8300781,7.7783203c3.5053711-.8603516,7.5024414-1.3828125,11.5917969-1.5986328v1.9990234c-11.46875.4609375-21.4921875,3.4746094-21.4921875,9.5,0,4.0898438,4.3046875,5.8730469,11.2226562,5.8730469,3.5664062,0,7.5019531-.4921875,11.0073242-1.1679688v2.0595703Zm-5.9956055-20.1386719v-5.0429688h1.5371094v5.0429688h-1.5371094Zm3.3208008,0v-5.0429688h1.5371094v5.0429688h-1.5371094Z"/>
      <path class="cls-2" d="m665.3908691,291.9609375v-21h-2.0600586v14.8505859h-1.6601562v-16.6337891h3.7202148v-4.8886719h1.7216797v4.8886719h3.7202148v12.8212891c0,2.9208984-.0922852,3.4433594-2.5517578,3.8125l-.7993164-2.0292969c1.5678711,0,1.690918-.03125,1.690918-1.3837891v-11.4375h-2.0600586v21h-1.7216797Zm6.5180664-24.9355469v-1.6298828h15.8344727v1.6298828h-15.8344727Zm13.8359375,24.9355469v-1.7226562h-11.6835938v1.7226562h-1.8447266v-13.8056641h15.3730469v13.8056641h-1.8447266Zm-12.0219727-16.1728516v-6.1806641h12.3603516v6.1806641h-12.3603516Zm5.3193359,3.9970703h-4.980957v3.5664062h4.980957v-3.5664062Zm0,5.1347656h-4.980957v3.6894531h4.980957v-3.6894531Zm5.1962891-13.6826172h-8.6708984v2.9208984h8.6708984v-2.9208984Zm1.5063477,8.5478516h-4.9194336v3.5664062h4.9194336v-3.5664062Zm0,5.1347656h-4.9194336v3.6894531h4.9194336v-3.6894531Z"/>
      <path class="cls-2" d="m701.3098145,269.3925781v3.0136719c0,10.5458984-1.1069336,15.4960938-2.9516602,19.5546875l-1.4760742-1.6298828c1.6914062-3.7509766,2.5830078-8.578125,2.5830078-17.9248047v-4.796875h11.0380859v-3.3203125h1.8447266v3.3203125h11.5297852v1.7832031h-22.5678711Zm21.0615234,22.5986328s-.7382812-1.5986328-1.8452148-3.8125c-4.2426758,1.1992188-11.1606445,2.3984375-19.0009766,2.9824219l-.3076172-1.9677734c1.1069336,0,2.3676758-.0917969,3.2592773-.2460938.8300781-1.4140625,3.5356445-6.5488281,6.7026367-18.0791016l1.7832031.5234375c-2.5517578,9.53125-4.9194336,14.8808594-6.2109375,17.3408203,5.5039062-.5537109,9.9619141-1.3535156,12.9750977-2.2138672-1.1376953-2.1523438-2.7055664-4.8886719-4.5810547-7.5634766l1.5371094-1.0761719c4.3046875,6.7021484,7.3793945,13.0673828,7.3793945,13.0673828l-1.690918,1.0449219Z"/>
      <path class="cls-2" d="m753.0939941,291.4072266c-4.7041016-3.7207031-10.1767578-7.2871094-15.0961914-10.6386719-1.8447266-1.2607422-3.1669922-1.875-3.1669922-3.4736328,0-1.3535156,1.3530273-2.2753906,3.597168-3.4443359,4.8271484-2.5205078,10.2080078-5.0732422,17.6176758-8.2402344v2.1835938c-6.5795898,2.7050781-13.0053711,5.6875-16.9101562,7.8095703-1.2607422.6767578-2.0292969,1.1992188-2.0292969,1.7216797,0,.5839844.737793,1.0146484,1.8447266,1.7216797,5.8110352,3.8740234,11.8374023,7.8408203,17.5253906,12.390625l-3.3823242-.0302734Z"/>
      <path class="cls-2" d="m769.2121582,290.3310547v1.6601562h-1.7832031v-21h4.3349609c.0307617-1.1064453.0922852-2.3369141.0922852-3.7197266h-5.1655273v-1.7832031h14.8198242v1.7832031h-4.6425781v3.7197266h4.1816406v19.3398438h-11.8374023Zm10.0849609-8.9169922h-1.722168c-1.690918,0-2.3056641-.6455078-2.3056641-2.0898438v-6.5498047h-1.9985352c-.1538086,4.7041016-.9838867,7.5634766-2.2753906,9.8085938l-1.4448242-1.2607422c1.1679688-1.6298828,2.1826172-4.6738281,2.2133789-8.5478516h-2.5517578v11.0693359h10.0849609v-2.4296875Zm0,4.0898438h-10.0849609v3.0439453h10.0849609v-3.0439453Zm-4.027832-18.2324219h-1.8139648c0,1.3828125,0,2.5205078-.0922852,3.7197266h1.90625v-3.7197266Zm4.027832,5.5029297h-2.4291992v6.1191406c0,.7988281.215332.8300781.9838867.8300781h1.4453125v-6.9492188Zm6.3027344,18.171875c-1.3525391,0-2.4902344-.4921875-2.4902344-2.4296875v-12.7285156h7.7788086v-8.4863281h-7.8710938v-1.7832031h9.7158203v12.0527344h-7.7788086v10.2382812c0,1.2607422.3076172,1.3535156,1.4755859,1.3535156h3.1669922c2.121582,0,2.5830078-.3388672,2.9824219-6.1191406l1.7524414.984375c-.4916992,6.7021484-2.1518555,6.9179688-4.7041016,6.9179688h-4.027832Z"/>
      <path class="cls-2" d="m806.5456543,291.9609375v-17.9560547c-.8300781,1.8134766-1.8144531,3.1357422-2.9208984,4.4267578l-.8305664-1.7832031c3.6899414-4.2119141,6.2724609-9.9619141,6.8569336-12.359375l1.6601562.6142578c-.5229492,1.5996094-1.3837891,3.9052734-2.9208984,6.703125v20.3544922h-1.8447266Zm4.5195312-20.3242188v-1.8134766h19.4316406v1.8134766h-19.4316406Zm16.234375,20.3242188v-1.4765625h-12.9443359v1.4765625h-1.8447266v-9.2548828h16.6337891v9.2548828h-1.8447266Zm-14.2358398-16.0810547v-1.7519531h15.5576172v1.7519531h-15.5576172Zm0,4.2431641v-1.7529297h15.5576172v1.7529297h-15.5576172Zm.1538086-12.8515625v-1.7832031h15.25v1.7832031h-15.25Zm14.0820312,17.2177734h-12.9443359v4.1816406h12.9443359v-4.1816406Z"/>
      <path class="cls-2" d="m862.9416504,284.796875v-2.7060547h-9.1010742v9.8701172h-2.0292969v-9.8701172h-9.0698242v2.7060547h-1.9677734v-15.1279297h11.0375977v-5.3798828h2.0292969v5.3798828h11.0688477v15.1279297h-1.9677734Zm-11.1303711-13.2519531h-9.0698242v8.6708984h9.0698242v-8.6708984Zm11.1303711,0h-9.1010742v8.6708984h9.1010742v-8.6708984Z"/>
      <path class="cls-2" d="m878.7526855,283.1367188l-.3691406-17.4648438h2.6132812l-.3686523,17.4648438h-1.8754883Zm-.2768555,6.5175781v-3.3515625h2.4291992v3.3515625h-2.4291992Z"/>
    </g>
  </g>
</svg>