<?xml version="1.0" encoding="UTF-8"?>
<svg id="_レイヤー_2" data-name="レイヤー 2" xmlns="http://www.w3.org/2000/svg" viewBox="0 0 620.6904297 280.1328125">
  <defs>
    <style>
      .cls-1 {
        fill: #999;
      }

      .cls-1, .cls-2 {
        stroke-width: 0px;
      }
    </style>
  </defs>
  <g id="_レイヤー_1-2" data-name="レイヤー 1">
    <g>
      <path class="cls-1" d="m92.8369141,14.4960938c-4.0146484,4.0673828-8.2148438,10.1025391-12.6005859,17.9746094-3.1503906,5.5751953-9.4501953,17.4482422-18.4067383,29.3876953,4.8793945,1.4423828,9.5737305,3.5419922,14.1450195,6.3623047l-.8032227,1.4433594c-4.6323242-2.8203125-9.4506836-4.9853516-14.3920898-6.3632812-12.1679688,15.7441406-28.7832031,31.09375-48.3637695,31.09375-7.8442383,0-12.4155273-2.8867188-12.4155273-8.1337891,0-10.1679688,19.4570312-26.8300781,45.6464844-26.8300781,4.9414062,0,9.7592773.65625,14.515625,1.9023438,9.0175781-11.9384766,15.4414062-24.0087891,18.6533203-29.7158203,4.1386719-7.4121094,8.0917969-13.1845703,11.9833984-17.3828125-3.2119141-.4589844-6.4858398-1.5087891-10.0068359-2.6240234-5.1264648-1.6396484-10.8710938-3.4765625-17.6035156-4.0019531-36.3808594-3.1484375-45.0283203,20.8603516-17.4804688,20.8603516,6.609375,0,16.5537109-3.6738281,19.9511719-6.7568359l1.0498047,1.3125c-4.0146484,3.5419922-14.5771484,7.1503906-21.0009766,7.1503906-30.3896484,0-20.6298828-27.5517578,17.6040039-24.2714844,6.9179688.5908203,12.7856445,2.4267578,17.9741211,4.0673828,4.0151367,1.2460938,7.5361328,2.4267578,10.9331055,2.7548828,5.4355469-5.2480469,10.6240234-7.28125,15.5654297-5.7724609l.309082,1.4433594c-5.2504883,5.1162109-10.1298828,6.4941406-15.2568359,6.0996094Zm-33.7871094,48.2802734c-4.3852539-1.0498047-8.8325195-1.6396484-13.4033203-1.6396484-25.6337891,0-44.0400391,15.7431641-44.0400391,25.1240234,0,4.1318359,3.7675781,6.4277344,10.809082,6.4277344,18.715332,0,34.7749023-14.5625,46.6342773-29.9121094ZM94.5664062,12.8564453c3.7675781,0,7.4121094-1.2460938,11.3037109-4.5917969-3.5830078-.4589844-7.3505859,1.1152344-11.3037109,4.5917969Z"/>
      <path class="cls-1" d="m116.5205078,62.2519531s-12.9716797,7.4121094-20.0126953,7.4121094c-4.7563477,0-6.9799805-2.2958984-8.8330078-8.9208984l-.5556641-2.3623047h-.1855469l-5.4970703,9.0527344-1.359375-.9179688,19.8896484-32.7988281,1.3583984.9179688-13.2797852,21.9101562c1.9765625-.3935547,5.9296875-1.7060547,12.3535156-6.1660156l.8647461,1.4423828c-6.1152344,4.2636719-10.253418,5.7724609-12.5390625,6.2978516l.4941406,2.0986328c1.6679688,5.9697266,3.3359375,7.7412109,7.2890625,7.7412109,6.6088867,0,19.2714844-7.1503906,19.2714844-7.1503906l.7412109,1.4433594Z"/>
      <path class="cls-1" d="m139.8046875,68.0244141c-5.25,2.4921875-11.1796875,5.3134766-16.8007812,8.0683594-17.5419922,23.5498047-25.8188477,31.4208984-30.7602539,28.2724609-6.1767578-4.0019531,3.1499023-16.0058594,18.5302734-24.0742188,3.3969727-1.7714844,7.2270508-3.6738281,11.1801758-5.5761719l4.9414062-6.6904297c-2.4091797,1.9677734-4.0771484,2.4267578-5.1269531,1.2460938-1.296875-1.3779297-.0615234-3.6738281,2.347168-7.4121094,2.4707031-4.0019531,2.8413086-4.6582031,1.7915039-4.6582031-1.1123047,0-3.3359375,1.1152344-6.5478516,2.6240234-1.5439453.7871094-3.2734375,1.640625-5.1884766,2.4931641l-.6171875-1.5742188c1.8525391-.8535156,3.5820312-1.7060547,5.1264648-2.4277344,3.2119141-1.5742188,5.8061523-2.8203125,7.2270508-2.8203125,3.2734375,0,2.4707031,2.6240234-.4941406,7.28125-2.2856445,3.6074219-2.7797852,4.9853516-2.4707031,5.3134766.8027344.8525391,4.8793945-2.6240234,11.4882812-10.5615234l1.4824219-1.7050781,1.1738281,1.1806641c-.1235352.0654297-.2470703.1962891-.3706055.328125l.0620117.0654297c-2.5947266,3.3457031-5.4975586,7.3466797-8.5244141,11.5449219l-3.0878906,4.1982422c4.7558594-2.2958984,9.6357422-4.5263672,14.0209961-6.625,4.6943359-2.2304688,8.8945312-4.2636719,11.9829102-5.7724609l.6796875,1.5742188c-3.0888672,1.5087891-7.3505859,3.4765625-12.0449219,5.7070312Zm-20.0126953,9.6425781c-2.9033203,1.4433594-5.6826172,2.8203125-8.2768555,4.1982422-13.7124023,7.1503906-22.9775391,18.1708984-18.4067383,21.0566406,4.6328125,3.0175781,15.7509766-10.5605469,26.6835938-25.2548828Z"/>
      <path class="cls-1" d="m183.4169922,62.3173828c-7.0419922,3.1484375-16.862793,7.0839844-21.0629883,7.0839844-2.7177734,0-4.3237305-1.3115234-4.3237305-3.6074219,0-.5244141.1235352-1.0498047.3706055-1.6396484-2.4707031,2.0332031-5.1264648,3.7382812-7.4741211,3.7382812-3.0878906,0-1.4824219-3.3447266,1.6679688-8.3964844.9267578-1.3769531,1.7294922-2.6230469,2.1000977-3.5419922l1.4824219.7871094c-.4941406.984375-1.3588867,2.2958984-2.2236328,3.6738281-2.5942383,4.1328125-3.3354492,5.7724609-3.0268555,5.7724609,4.3857422,0,10.8095703-7.609375,12.6625977-10.0361328l.0620117-.0664062.0615234-.0654297.7412109.65625.5556641.3935547-1.1113281,1.4433594c-2.9033203,3.7392578-4.262207,5.96875-4.262207,7.28125,0,1.3115234.8032227,1.9023438,2.7177734,1.9023438,3.0883789,0,10.6240234-2.5585938,20.4448242-6.953125l.6181641,1.5742188Z"/>
      <path class="cls-1" d="m217.0400391,62.2519531s-12.9707031,7.4121094-20.0126953,7.4121094c-4.7558594,0-6.9794922-2.2958984-8.8325195-8.9208984l-.5561523-2.3623047h-.1850586l-5.4975586,9.0527344-1.3583984-.9179688,19.8886719-32.7988281,1.359375.9179688-13.2802734,21.9101562c1.9765625-.3935547,5.9296875-1.7060547,12.3535156-6.1660156l.8647461,1.4423828c-6.1147461,4.2636719-10.253418,5.7724609-12.5385742,6.2978516l.4941406,2.0986328c1.6674805,5.9697266,3.3349609,7.7412109,7.2880859,7.7412109,6.609375,0,19.2714844-7.1503906,19.2714844-7.1503906l.7412109,1.4433594Z"/>
      <path class="cls-1" d="m240.324707,68.0244141c-5.2504883,2.4921875-11.1801758,5.3134766-16.8007812,8.0683594-17.5419922,23.5498047-25.8188477,31.4208984-30.7602539,28.2724609-6.1767578-4.0019531,3.1503906-16.0058594,18.5302734-24.0742188,3.3974609-1.7714844,7.2265625-3.6738281,11.1796875-5.5761719l4.9414062-6.6904297c-2.4086914,1.9677734-4.0761719,2.4267578-5.1264648,1.2460938-1.2973633-1.3779297-.0620117-3.6738281,2.347168-7.4121094,2.4707031-4.0019531,2.8413086-4.6582031,1.7910156-4.6582031-1.1113281,0-3.3349609,1.1152344-6.546875,2.6240234-1.5444336.7871094-3.2739258,1.640625-5.1884766,2.4931641l-.6181641-1.5742188c1.8535156-.8535156,3.5830078-1.7060547,5.1269531-2.4277344,3.2119141-1.5742188,5.8061523-2.8203125,7.2265625-2.8203125,3.2739258,0,2.4707031,2.6240234-.4941406,7.28125-2.2851562,3.6074219-2.7792969,4.9853516-2.4707031,5.3134766.8032227.8525391,4.8798828-2.6240234,11.4892578-10.5615234l1.4824219-1.7050781,1.1733398,1.1806641c-.1235352.0654297-.2470703.1962891-.3706055.328125l.0615234.0654297c-2.59375,3.3457031-5.4970703,7.3466797-8.5234375,11.5449219l-3.0888672,4.1982422c4.7563477-2.2958984,9.6357422-4.5263672,14.0214844-6.625,4.6943359-2.2304688,8.8945312-4.2636719,11.9829102-5.7724609l.6791992,1.5742188c-3.0878906,1.5087891-7.3500977,3.4765625-12.0444336,5.7070312Zm-20.0126953,9.6425781c-2.902832,1.4433594-5.6826172,2.8203125-8.2768555,4.1982422-13.7124023,7.1503906-22.9775391,18.1708984-18.4067383,21.0566406,4.6323242,3.0175781,15.7504883-10.5605469,26.6835938-25.2548828Z"/>
      <path class="cls-1" d="m266.8027344,67.3681641c-3.8916016,0-6.8564453-.7216797-8.7714844-2.0332031-.5556641.3935547-1.1113281.7871094-1.7294922,1.1806641-5.3735352,3.2792969-8.4003906.5898438-5.5585938-4.7236328.9882812-1.8359375,2.2851562-3.4765625,3.3969727-4.2636719l.8647461,1.4433594c-.8647461.65625-2.0380859,2.0996094-2.9033203,3.6738281-1.9765625,3.7382812-.4321289,4.7226562,3.4589844,2.3613281.4326172-.2626953.8652344-.5253906,1.2973633-.8525391-.7412109-.9189453-1.1118164-2.0996094-1.1118164-3.4111328,0-3.8701172,2.1621094-7.0849609,4.8798828-7.0849609,1.8525391,0,3.1499023,1.4433594,3.1499023,3.4765625,0,1.9023438-1.8530273,4.7236328-4.3852539,7.0849609,1.5439453.9179688,4.0146484,1.4433594,7.4121094,1.4433594,5.8676758,0,12.2294922-2.8867188,16.7387695-4.9199219l.6176758,1.5742188c-4.5087891,2.0332031-11.1181641,5.0507812-17.3564453,5.0507812Zm-8.7094727-4.2636719c2.347168-2.0332031,4.0766602-4.5263672,4.0766602-5.9697266,0-1.1152344-.5556641-1.7705078-1.5439453-1.7705078-1.7294922,0-3.2739258,2.3613281-3.2739258,5.3789062,0,.9179688.2470703,1.7050781.7412109,2.3613281Z"/>
      <path class="cls-1" d="m327.3295898,44.6054688c-3.1499023,7.2158203-4.8178711,14.2353516-4.8178711,20.2041016,0,9.9052734,4.5708008,15.4814453,12.6621094,15.4814453,19.2714844,0,32.3046875-15.3496094,32.3046875-23.9433594,0-5.7070312-5.9296875-6.8222656-15.8125-2.6894531l-.5556641-1.6396484c10.8710938-4.5263672,17.9741211-2.8212891,17.9741211,4.3291016,0,9.2490234-13.8979492,25.6484375-33.9106445,25.6484375-9.0175781,0-14.2680664-6.3623047-14.2680664-17.1865234,0-6.0341797,1.6674805-13.1191406,4.8178711-20.4003906-12.1064453-1.8369141-20.1982422-8.2001953-20.1982422-16.7275391,0-9.5771484,10.3154297-16.2685547,24.8925781-16.2685547,6.300293,0,12.4770508,1.1152344,17.9746094,3.1494141,10.7470703-8.6591797,24.2744141-14.5625,40.0869141-14.5625,7.4121094,0,11.5507812,2.5576172,11.5507812,7.28125,0,12.3974609-32.4902344,37.6523438-67.0800781,37.6523438-1.9765625,0-3.8291016-.1308594-5.6206055-.328125Zm-.8647461-1.8359375c4.3857422-9.5117188,11.3037109-19.2207031,20.3833008-26.9609375-5.0649414-1.7060547-10.6860352-2.6894531-16.4301758-2.6894531-13.7124023,0-23.2861328,6.1005859-23.2861328,14.5625,0,7.609375,7.7207031,13.5126953,19.3330078,15.0878906Zm23.5952148-27.5517578c5.7446289,2.4277344,10.6240234,5.8388672,13.9594727,10.0371094l-1.2353516,1.0488281c-3.3354492-4.1982422-8.3388672-7.5429688-14.206543-9.8388672-9.1416016,7.5429688-16.121582,17.0546875-20.5068359,26.5009766,1.5444336.1972656,3.2119141.2626953,4.8793945.2626953,34.0341797,0,65.4736328-24.4023438,65.4736328-35.9472656,0-3.6083984-3.3969727-5.5761719-9.9443359-5.5761719-15.0712891,0-28.0424805,5.4443359-38.4194336,13.5126953Z"/>
      <path class="cls-1" d="m417.2167969,62.3173828s-18.5302734,8.5273438-25.9423828,8.5273438c-5.0029297,0-5.6826172-2.9521484-1.8530273-8.8554688,3.3969727-4.9199219,3.8911133-6.0351562,2.6557617-6.0351562-3.953125,0-10.8710938,5.7070312-15.8740234,13.1855469l-.3706055.5898438-.0620117.0654297-1.3583984-.9179688.3701172-.5908203,21.7421875-34.5693359,1.359375.9179688-15.6894531,24.9277344c3.5830078-3.2802734,7.2270508-5.3134766,9.8828125-5.3134766,3.7060547,0,2.4707031,3.1484375-1.296875,8.7900391-3.1503906,4.7226562-2.9648438,6.1005859.4941406,6.1005859,7.0415039,0,25.324707-8.3964844,25.324707-8.3964844l.6176758,1.5742188Z"/>
      <path class="cls-1" d="m447.3808594,62.3173828c-7.3505859,3.9355469-18.8393555,8.8554688-25.9423828,7.28125-4.5712891-.984375-6.5478516-4.5263672-6.3623047-7.9375v-.1308594c.3085938-3.4765625,2.9648438-6.7568359,7.7207031-6.7568359,1.8535156,0,3.2739258,1.3115234,3.2739258,3.0830078,0,4.7890625-5.6826172,7.6748047-8.8325195,6.6914062.7412109,1.5742188,2.2236328,2.8857422,4.5087891,3.3447266,6.609375,1.4433594,17.6035156-3.2138672,24.9541016-7.1494141l.6796875,1.5742188Zm-30.6987305-.65625c.1850586,3.0175781,7.7827148.8525391,7.7827148-3.8046875,0-.7871094-.6796875-1.3779297-1.6679688-1.3779297-3.7675781,0-5.8676758,2.4931641-6.1147461,5.1826172Z"/>
      <path class="cls-1" d="m497.0644531,62.3173828c-6.3623047,3.1484375-14.3300781,6.3623047-21.8657227,6.3623047-5.4355469,0-8.3383789-1.5078125-8.3383789-4.7226562,0-1.7050781,1.2353516-3.8046875,2.2236328-5.4443359.7412109-1.2460938.9882812-1.7714844,1.0498047-1.9677734-.5556641.1308594-1.6679688.7871094-3.6445312,2.0332031-4.9414062,3.0830078-10.6240234,9.1181641-10.6240234,9.1181641l-1.1113281-1.1806641.1230469-.1318359c2.4707031-2.6230469,6.2387695-9.9052734,5.6826172-10.5605469-.5556641-.5908203-2.2851562,0-15.4414062,6.4941406l-.6181641-1.5742188c13.5273438-6.6914062,15.7509766-7.7412109,17.171875-6.1005859.9262695,1.0488281-.0620117,3.8701172-1.5444336,6.6904297,1.7294922-1.5087891,3.7060547-3.0830078,5.559082-4.2636719,1.4208984-.8525391,3.6445312-2.2958984,4.7558594-2.2958984,2.2236328,0,1.6679688,1.9023438,0,4.6572266-.9882812,1.640625-1.9765625,3.3457031-1.9765625,4.5263672,0,1.9677734,2.1621094,3.0175781,6.7329102,3.0175781,7.2885742,0,14.8862305-3.0830078,21.1245117-6.2314453l.7412109,1.5742188Z"/>
      <path class="cls-1" d="m546.5991211,62.3173828c-6.3618164,3.1484375-14.3300781,6.3623047-21.8657227,6.3623047-5.4355469,0-8.3388672-1.5078125-8.3388672-4.7226562,0-1.7050781,1.2353516-3.8046875,2.2236328-5.4443359.7412109-1.2460938.9882812-1.7714844,1.050293-1.9677734-.5561523.1308594-1.6674805.7871094-3.644043,2.0332031-4.9414062,3.0830078-10.6240234,9.1181641-10.6240234,9.1181641l-1.1123047-1.1806641.1240234-.1318359c2.4707031-2.6230469,6.2382812-9.9052734,5.6826172-10.5605469-.5561523-.5908203-2.2856445,0-15.4423828,6.4941406l-.6171875-1.5742188c13.5268555-6.6914062,15.7504883-7.7412109,17.1708984-6.1005859.9267578,1.0488281-.0615234,3.8701172-1.5439453,6.6904297,1.7294922-1.5087891,3.7060547-3.0830078,5.559082-4.2636719,1.4204102-.8525391,3.644043-2.2958984,4.7563477-2.2958984,2.2236328,0,1.6674805,1.9023438,0,4.6572266-.9882812,1.640625-1.9765625,3.3457031-1.9765625,4.5263672,0,1.9677734,2.1616211,3.0175781,6.7324219,3.0175781,7.2885742,0,14.8857422-3.0830078,21.1245117-6.2314453l.7412109,1.5742188Z"/>
      <path class="cls-1" d="m576.7695312,62.3173828c-7.3500977,3.9355469-18.8388672,8.8554688-25.9423828,7.28125-4.5703125-.984375-6.546875-4.5263672-6.3618164-7.9375v-.1308594c.309082-3.4765625,2.9648438-6.7568359,7.7211914-6.7568359,1.8525391,0,3.2734375,1.3115234,3.2734375,3.0830078,0,4.7890625-5.6826172,7.6748047-8.8330078,6.6914062.7412109,1.5742188,2.2236328,2.8857422,4.5092773,3.3447266,6.6088867,1.4433594,17.6040039-3.2138672,24.9541016-7.1494141l.6791992,1.5742188Zm-30.6982422-.65625c.1855469,3.0175781,7.7827148.8525391,7.7827148-3.8046875,0-.7871094-.6791992-1.3779297-1.6674805-1.3779297-3.7680664,0-5.8681641,2.4931641-6.1152344,5.1826172Z"/>
      <path class="cls-1" d="m580.8505859,52.0839844c-2.9033203,5.1162109-4.6328125,9.9707031-4.6328125,13.3818359,0,2.8867188,1.7915039,4.3291016,5.4355469,4.3291016,7.90625,0,26.0664062-9.0517578,26.0664062-9.0517578l.6171875,1.5742188s-18.40625,9.1835938-26.6835938,9.1835938c-4.5087891,0-7.0410156-2.0996094-7.0410156-6.0351562,0-4.9853516,3.1499023-12.3974609,8.3383789-19.6132812,7.90625-10.9550781,20.6303711-21.5166016,33.5395508-21.5166016,2.65625,0,4.2001953,1.1152344,4.2001953,3.2148438,0,8.2646484-24.3359375,28.3378906-34.4042969,28.3378906-2.7792969,0-4.6328125-1.3779297-5.4355469-3.8046875Zm1.2353516-2.0332031c.3085938,2.8203125,1.6679688,4.1318359,4.2001953,4.1318359,10.1298828,0,32.7988281-19.9414062,32.7988281-26.6318359,0-.984375-.7412109-1.5087891-2.5947266-1.5087891-12.3535156,0-24.4599609,10.1015625-32.2421875,20.859375-.7412109,1.0498047-1.4824219,2.0996094-2.1621094,3.1494141Z"/>
    </g>
    <g>
      <path class="cls-2" d="m5.3198242,186.1142578v-16.0732422c-.7592773,1.3535156-1.6865234,2.453125-2.8388672,3.6660156l-.7587891-1.6347656c3.4570312-3.328125,6.2675781-8.8554688,7.0546875-11.3359375l1.4614258.6484375c-.7587891,1.9736328-1.8833008,4.3984375-3.2324219,6.5136719v18.2158203h-1.6860352Zm3.4287109-.9306641v-1.6914062h8.3759766v-7.1914062h-6.6049805v-1.6914062h6.6049805v-6.3730469h-7.5605469v-1.6914062h16.6386719v1.6914062h-7.3354492v6.3730469h6.4082031v1.6914062h-6.4082031v7.1914062h8.1787109v1.6914062H8.7485352Zm10.9335938-19.0332031c-1.6303711-1.3818359-3.8789062-3.1015625-5.5371094-4.1455078l1.0683594-1.2119141c2.0795898,1.4658203,3.9907227,2.8476562,5.7055664,4.2285156l-1.2368164,1.1289062Z"/>
      <path class="cls-2" d="m35.3706055,186.1142578v-16.4394531h-3.7944336v-1.6357422h3.7944336v-7.3027344h1.6860352v7.3027344h3.7104492v1.6357422h-3.7104492v16.4394531h-1.6860352Zm7.1953125-1.9453125h.168457c2.5576172,0,2.8105469-.0283203,2.8105469-3.4970703,0-.8740234-.027832-1.9453125-.027832-3.2705078v-1.15625h-2.2768555c-.140625,4.0039062-1.2368164,7.1064453-3.9067383,9.8691406l-1.1245117-1.4941406c2.5014648-2.7919922,3.2041016-5.0195312,3.3730469-8.375h-2.1645508v-1.6357422h2.2207031v-2.1708984h1.6865234v2.1708984h3.878418v4.9345703c0,4.9345703-.2246094,6.3447266-4.0751953,6.3447266l-.5620117-1.7197266Zm6.8857422-14.296875c3.6538086-.1689453,3.7666016-.1972656,3.7666016-3.0166016v-1.6923828h-4.9750977c-.449707,2.1708984-1.9394531,4.5117188-5.8740234,6.7392578l-1.152832-1.4375c3.2607422-1.6640625,4.6660156-3.4970703,5.2563477-5.3017578h-4.3569336v-1.6357422h4.6938477c.0844727-.5917969.0844727-1.6347656.0844727-2.2558594v-.5351562h1.6303711s0,1.8046875-.0283203,2.7910156h6.4082031v2.8203125c0,4.2011719-.0561523,5.1035156-4.918457,5.2441406l-.5341797-1.7197266Zm2.1923828,14.296875h.1689453c2.5576172,0,2.8105469-.0283203,2.8105469-3.4970703,0-.8740234-.0283203-1.9453125-.0283203-3.2705078v-1.15625h-2.2763672c-.2250977,4.2011719-1.2368164,7.1064453-3.9072266,9.8691406l-1.1240234-1.4941406c2.4736328-2.7353516,3.1762695-4.9345703,3.3730469-8.375h-2.1645508v-1.6357422h2.2207031v-2.1708984h1.6860352v2.1708984h3.8789062v4.9345703c0,4.9345703-.2246094,6.3447266-4.0756836,6.3447266l-.5620117-1.7197266Z"/>
      <path class="cls-2" d="m84.5898438,184.9863281c-2.1362305.3378906-4.4125977.5361328-6.6894531.5361328-5.5087891,0-10.0058594-1.1005859-10.0058594-5.2734375,0-3.1582031,3.5693359-5.8935547,8.4599609-7.7548828-.5058594-.9296875-1.2646484-1.4091797-2.3608398-1.4091797-2.2768555,0-4.5532227,1.296875-8.0947266,4.7089844-.9838867.9873047-2.1079102,2.1992188-3.3447266,3.5244141v-2.3681641c3.2041016-3.1865234,5.9868164-6.6826172,8.0947266-10.4619141h-7.4765625v-1.6347656h8.3476562c.5625-1.1289062,1.0961914-2.2851562,1.5180664-3.46875h1.9111328c-.5058594,1.2685547-1.0400391,2.4248047-1.5737305,3.46875h11.6079102v1.6347656h-12.4794922c-1.2368164,2.171875-2.5014648,3.8916016-3.7099609,5.4990234,1.3774414-1.2412109,3.5693359-2.3974609,5.2280273-2.3974609,1.8828125,0,3.1479492.7050781,3.9628906,2.3408203,2.3891602-.7900391,5.03125-1.3535156,7.6728516-1.6923828v1.7773438c-2.5014648.28125-4.9467773.7607422-7.1386719,1.4375.4775391,1.8046875.6743164,4.2861328.6743164,7.6132812h-1.6865234c0-3.0449219-.1401367-5.4140625-.5620117-7.0771484-4.2441406,1.5507812-7.2236328,3.75-7.2236328,6.2041016,0,2.734375,3.2045898,3.6933594,8.0107422,3.6933594,2.1923828,0,4.5249023-.2255859,6.8579102-.5917969v1.6914062Z"/>
      <path class="cls-2" d="m104.9433594,184.0273438c4.159668-.0839844,8.4604492-2.0019531,8.4604492-6.3164062,0-3.6933594-3.2607422-5.6953125-8.1513672-5.6953125-1.2646484,0-2.4731445.1123047-3.5693359.3095703v9.4189453c0,2.7626953-1.5458984,3.5800781-3.5693359,3.5800781-2.4736328,0-6.8022461-1.6630859-6.8022461-5.7236328,0-3.3837891,3.2045898-7.0214844,8.6289062-8.4873047v-4.0888672h-7.1953125v-1.6357422h7.1953125v-3.9765625h1.7426758v3.9765625h6.0991211v1.6074219h-6.0991211v3.7226562c1.1523438-.1982422,2.3608398-.3105469,3.6538086-.3105469,6.2114258,0,9.921875,2.734375,9.921875,7.3310547,0,5.3857422-5.03125,7.7548828-10.3154297,7.9521484v-1.6640625Zm-5.0029297-11.2792969c-4.3847656,1.296875-6.9702148,4.1455078-6.9702148,6.7958984,0,2.7353516,3.0351562,4.0888672,4.9746094,4.0888672.871582,0,1.9956055-.2255859,1.9956055-2.1708984v-8.7138672Zm15.5991211-5.1318359c-1.9672852-.8740234-4.6376953-1.7197266-6.7456055-2.1708984v-1.7480469c2.3330078.4785156,4.9467773,1.3242188,6.7456055,2.0292969v1.8896484Z"/>
      <path class="cls-2" d="m130.890625,185.0429688c-2.6420898,0-4.3286133-1.3535156-5.3964844-3.1015625-.7026367,1.2402344-2.1362305,3.0732422-3.8789062,4.2011719l-1.0117188-1.4941406c2.4736328-1.5234375,3.8505859-3.7226562,3.8505859-3.7226562v-8.0644531h-3.5415039v-1.6357422h5.2280273v9.1083984c.9838867,1.6640625,2.5859375,3.0449219,4.75,3.0449219h15.0087891l-.4213867,1.6640625h-14.5874023Zm-6.0708008-17.8212891s-2.1645508-3.0732422-3.7666016-4.5966797l1.1806641-1.1279297c1.7426758,1.8613281,3.9345703,4.5683594,3.9345703,4.5683594l-1.3486328,1.15625Zm2.8383789,11.0253906v-1.4658203h4.2441406v-2.3691406h-3.4287109v-1.4667969h3.4287109v-2.1425781h-1.3208008c-1.2084961,0-2.1079102-.4794922-2.1079102-1.7763672v-3.5537109h5.2275391v-2.1425781h-5.5932617v-1.4941406h7.2797852v5.1318359h-5.2280273v1.6923828c0,.6484375.0844727.7607422.871582.7607422h1.9956055c1.0117188,0,1.2646484-.0283203,1.5175781-1.4941406l1.6020508.8740234c-.5058594,1.8330078-1.2368164,2.0019531-2.3608398,2.0019531h-.1967773v2.1425781h5.4526367v-2.1425781c-1.1806641-.0283203-1.9956055-.5078125-1.9956055-1.7763672v-3.5537109h5.2280273v-2.1425781h-5.5932617v-1.4941406h7.2797852v5.1318359h-5.2280273v1.6923828c0,.6484375.0844727.7607422.8710938.7607422h1.9956055c1.012207,0,1.2651367-.0283203,1.5180664-1.4941406l1.6020508.8740234c-.5058594,1.8330078-1.2368164,2.0019531-2.3613281,2.0019531h-1.6298828v2.1425781h3.4570312v1.4667969h-3.4570312v2.3691406h4.3847656v1.4658203h-17.4545898Zm.7871094,2.6787109s3.2602539-1.0996094,4.9750977-2.59375l1.0961914,1.0429688c-2.1083984,1.8330078-5.0595703,2.9892578-5.0595703,2.9892578l-1.0117188-1.4384766Zm10.5961914-6.5136719h-5.4526367v2.3691406h5.4526367v-2.3691406Zm4.8061523,8.1494141s-2.6137695-1.6923828-5.3681641-3.0732422l.9272461-1.15625c2.7265625,1.3251953,5.453125,2.8759766,5.453125,2.8759766l-1.012207,1.3535156Z"/>
      <path class="cls-2" d="m176.0625,176.1328125c-1.5180664-1.5517578-3.6821289-3.9199219-5.0874023-6.4863281.449707,1.5507812.8432617,3.5810547.8432617,5.1328125,0,6.9921875-4.1040039,11.0253906-9.9780273,11.0253906-5.4526367,0-9.0786133-3.2148438-9.0786133-8.375,0-5.8652344,4.159668-10.3203125,6.5771484-12.4921875h-7.4482422v-1.6914062h10.0058594v1.6074219c-4.0756836,3.2705078-7.3359375,7.5-7.3359375,12.5478516,0,4.6523438,3.5415039,6.6826172,7.1113281,6.6826172,5.0307617,0,8.4316406-3.3554688,8.4316406-9.7285156,0-3.2705078-1.2646484-8.2050781-2.6982422-11.4199219h1.9394531c1.6020508,4.5400391,4.2441406,8.3466797,6.7177734,10.5742188v2.6230469Zm-4.4130859-10.3769531v-4.6533203h1.4052734v4.6533203h-1.4052734Zm3.0639648,0v-4.6533203h1.4052734v4.6533203h-1.4052734Z"/>
      <path class="cls-2" d="m194.9829102,181.8564453c-1.0400391.8457031-3.4853516,2.8759766-6.3520508,2.8759766-3.5698242,0-6.2958984-2.8193359-6.2958984-10.5742188,0-4.5117188.6181641-8.3466797,1.1523438-10.9970703h1.8549805c-.730957,3.4121094-1.2084961,7.0771484-1.2084961,11.0253906,0,5.5263672,1.4614258,8.7695312,4.6938477,8.7695312,2.3886719,0,4.7216797-2.0585938,6.1552734-3.5244141v2.4248047Zm8.0102539.1416016c0-6.7675781-.7587891-12.5488281-5.6210938-18.2734375h2.2763672c3.5415039,4.5683594,5.2558594,9.7568359,5.2558594,18.2734375h-1.9111328Z"/>
      <path class="cls-2" d="m217.8095703,166.9677734c-1.1240234,6.2597656-2.6137695,11.8994141-4.890625,17.9902344h-2.0517578c2.4174805-5.7519531,4.0195312-11.7587891,5.1435547-17.9902344h-4.8623047v-1.6923828h5.1435547c.1967773-1.296875.3935547-2.59375.5620117-3.890625h1.8833008c-.1967773,1.3251953-.3935547,2.6220703-.6186523,3.890625h14.222168v1.6923828h-14.53125Zm16.6391602,17.2861328c-2.2202148.4511719-5.0874023.8457031-8.0102539.8457031-5.03125,0-7.8139648-1.7480469-7.8139648-4.6816406,0-1.8886719,1.3491211-3.609375,2.3330078-4.765625h2.1640625c-1.0957031,1.015625-2.7543945,2.9335938-2.7543945,4.6533203,0,2.0019531,2.3330078,3.1015625,6.0991211,3.1015625,2.8950195,0,5.762207-.4511719,7.9824219-1.0146484v1.8613281Zm-14.0532227-11.9287109v-1.6630859h13.3227539v1.6630859h-13.3227539Z"/>
      <path class="cls-2" d="m247.6635742,166.9677734c-1.1240234,6.2597656-2.6137695,11.8994141-4.890625,17.9902344h-2.0517578c2.4174805-5.7519531,4.0195312-11.7587891,5.1435547-17.9902344h-4.8623047v-1.6923828h5.1435547c.1967773-1.296875.3935547-2.59375.5620117-3.890625h1.8833008c-.1967773,1.3251953-.3935547,2.6220703-.6186523,3.890625h14.222168v1.6923828h-14.53125Zm16.6391602,17.2861328c-2.2202148.4511719-5.0874023.8457031-8.0102539.8457031-5.03125,0-7.8139648-1.7480469-7.8139648-4.6816406,0-1.8886719,1.3491211-3.609375,2.3330078-4.765625h2.1640625c-1.0961914,1.015625-2.7543945,2.9335938-2.7543945,4.6533203,0,2.0019531,2.3330078,3.1015625,6.0991211,3.1015625,2.8950195,0,5.762207-.4511719,7.9824219-1.0146484v1.8613281Zm-14.0532227-11.9287109v-1.6630859h13.3222656v1.6630859h-13.3222656Zm9.0786133-8.1494141v-4.2011719h1.4052734v4.2011719h-1.4052734Zm3.0351562,0v-4.2011719h1.4052734v4.2011719h-1.4052734Z"/>
      <path class="cls-2" d="m284.5439453,181.8564453c-1.0400391.8457031-3.4853516,2.8759766-6.3520508,2.8759766-3.5698242,0-6.2958984-2.8193359-6.2958984-10.5742188,0-4.5117188.6181641-8.3466797,1.1523438-10.9970703h1.8549805c-.730957,3.4121094-1.2084961,7.0771484-1.2084961,11.0253906,0,5.5263672,1.4614258,8.7695312,4.6938477,8.7695312,2.3886719,0,4.7216797-2.0585938,6.1552734-3.5244141v2.4248047Zm8.0102539.1416016c0-6.7675781-.7587891-12.5488281-5.6210938-18.2734375h2.2763672c3.5415039,4.5683594,5.2558594,9.7568359,5.2558594,18.2734375h-1.9111328Z"/>
      <path class="cls-2" d="m307.3710938,166.9677734c-1.1240234,6.2597656-2.6137695,11.8994141-4.890625,17.9902344h-2.0517578c2.4174805-5.7519531,4.0195312-11.7587891,5.1435547-17.9902344h-4.8623047v-1.6923828h5.1435547c.1967773-1.296875.3935547-2.59375.5620117-3.890625h1.8833008c-.1967773,1.3251953-.3935547,2.6220703-.6186523,3.890625h14.222168v1.6923828h-14.53125Zm16.6391602,17.2861328c-2.2202148.4511719-5.0874023.8457031-8.0102539.8457031-5.03125,0-7.8139648-1.7480469-7.8139648-4.6816406,0-1.8886719,1.3491211-3.609375,2.3330078-4.765625h2.1640625c-1.0957031,1.015625-2.7543945,2.9335938-2.7543945,4.6533203,0,2.0019531,2.3330078,3.1015625,6.0991211,3.1015625,2.8950195,0,5.762207-.4511719,7.9824219-1.0146484v1.8613281Zm-14.0532227-11.9287109v-1.6630859h13.3227539v1.6630859h-13.3227539Z"/>
      <path class="cls-2" d="m332.4970703,185.8320312c-1.3208008-1.8046875-2.9794922-3.890625-5.1435547-5.921875h2.4453125c1.7426758,1.6640625,3.4291992,3.7226562,5.1435547,5.9501953l-2.4453125-.0283203Z"/>
      <path class="cls-2" d="m370.4106445,184.0273438c4.159668-.0839844,8.4599609-2.0019531,8.4599609-6.3164062,0-3.6933594-3.2602539-5.6953125-8.1508789-5.6953125-1.2646484,0-2.4731445.1123047-3.5693359.3095703v9.4189453c0,2.7626953-1.5458984,3.5800781-3.5698242,3.5800781-2.4731445,0-6.8017578-1.6630859-6.8017578-5.7236328,0-3.3837891,3.2041016-7.0214844,8.6289062-8.4873047v-4.0888672h-7.1953125v-1.6357422h7.1953125v-3.9765625h1.7426758v3.9765625h6.0991211v1.6074219h-6.0991211v3.7226562c1.1523438-.1982422,2.3608398-.3105469,3.6538086-.3105469,6.2114258,0,9.921875,2.734375,9.921875,7.3310547,0,5.3857422-5.03125,7.7548828-10.3154297,7.9521484v-1.6640625Zm-5.0029297-11.2792969c-4.3847656,1.296875-6.9702148,4.1455078-6.9702148,6.7958984,0,2.7353516,3.0351562,4.0888672,4.9746094,4.0888672.871582,0,1.9956055-.2255859,1.9956055-2.1708984v-8.7138672Zm15.5991211-5.1318359c-1.9672852-.8740234-4.6376953-1.7197266-6.7456055-2.1708984v-1.7480469c2.3330078.4785156,4.9467773,1.3242188,6.7456055,2.0292969v1.8896484Z"/>
      <path class="cls-2" d="m390.8491211,184.1123047h1.0117188c1.8549805,0,1.9111328-.1972656,1.9111328-3.2705078v-8.6289062h-3.7944336c-.0561523,5.4414062-.4213867,10.3203125-2.6982422,13.9013672l-1.2084961-1.6357422c2.0517578-3.2148438,2.2207031-8.0078125,2.2207031-13.7041016v-3.8916016h-1.9677734v-1.6347656h3.8227539v-4.5117188h1.6860352v4.5117188h4.3569336v1.6347656h-6.2119141v3.6943359h5.480957v10.4335938c0,4.5673828-.6748047,4.8779297-3.9912109,4.8779297l-.6181641-1.7763672Zm9.6123047-18.3857422c-.7871094,1.4951172-1.9111328,3.1025391-3.4570312,4.4560547l-1.1245117-1.3535156c3.0639648-2.3408203,4.4692383-6.5703125,4.8066406-8.0927734l1.5458984.3662109s-.3657227,1.6923828-1.0400391,2.9892578h9.4716797v1.6347656h-10.2026367Zm.730957,19.4570312c-.6464844,0-2.1645508-.0839844-2.1645508-2.1992188v-9.0800781l-2.1918945.3945312v-1.7197266l2.1918945-.3662109v-3.0458984h1.6303711v2.7353516l2.8388672-.4794922v-4.0605469h1.6303711v3.7783203l4.9746094-.8457031v6.0058594c0,2.4257812-.7871094,2.9052734-3.2602539,2.9052734l-.7026367-1.7197266h.7026367c1.3769531,0,1.6298828-.0849609,1.6298828-1.3535156v-3.9482422l-3.3442383.6201172v7.5859375h-1.6303711v-7.2753906l-2.8388672.5078125v8.8818359c0,.9306641.3652344,1.0146484.9555664,1.0146484h5.5371094c2.2768555,0,2.5014648-.0556641,2.5859375-3.5800781l1.6298828,1.15625c-.168457,3.5244141-1.1240234,4.0878906-3.5131836,4.0878906h-6.6611328Z"/>
      <path class="cls-2" d="m415.9243164,184.7607422v-1.7197266h11.6923828v-6.7402344h-8.7128906v-1.7197266h8.7128906v-6.3164062h-10.230957v-1.7197266h22.4013672v1.7197266h-10.3154297v6.3164062h8.8535156v1.7197266h-8.8535156v6.7402344h11.7485352v1.7197266h-25.2958984Zm14.4750977-18.5830078c-2.1079102-1.6347656-3.9633789-3.1582031-6.0151367-4.1445312l1.2089844-1.2695312c2.3886719,1.4951172,4.300293,2.8486328,6.1831055,4.2578125l-1.3769531,1.15625Z"/>
      <path class="cls-2" d="m450.0224609,186.1142578v-16.3271484c-.8994141,4.1171875-1.7705078,6.4580078-3.1196289,9.3056641l-1.1245117-1.6357422c1.5180664-2.2832031,3.0073242-6.4003906,3.9350586-9.9257812h-2.9233398v-1.578125h3.2324219v-5.2167969h1.6865234v5.2167969h3.2319336v1.578125h-3.0073242c1.012207,2.3691406,1.8833008,3.7792969,2.8388672,5.0761719l-.9838867,1.6357422c-.9555664-1.8896484-1.4052734-3.2148438-2.0795898-5.1611328v17.0322266h-1.6865234Zm11.6645508-6.5419922c-1.8271484,1.7207031-4.2724609,3.6376953-7.1113281,4.8789062l-.8994141-1.5234375c3.0356445-1.2128906,5.7338867-3.1298828,7.1674805-4.6240234l.8432617,1.2685547Zm-3.0639648-1.3251953c-1.2646484-1.296875-3.3725586-2.9609375-3.3725586-2.9609375l1.2084961-1.1279297s1.9672852,1.5791016,3.3164062,2.9326172l-1.1523438,1.15625Zm11.5239258,6.4287109c-2.2485352-1.5507812-4.9467773-3.9755859-6.3242188-7.2744141v5.4697266c0,2.0585938-.8432617,3.1875-4.159668,3.1875l-.730957-1.7207031c2.8110352,0,3.2041016-.2822266,3.2041016-1.5224609v-9.3056641h-6.4643555v-1.4941406h6.4643555v-2.6796875h-5.8178711v-1.4941406h5.8178711v-2.5664062h-6.5766602v-1.5507812h4.0751953c-.3369141-.5917969-.9833984-1.4375-1.4614258-2.2558594l1.4897461-.6484375c.6464844,1.2128906,1.2929688,2.4257812,1.5458984,2.9042969h3.6821289c.4213867-.5634766,1.2929688-1.9169922,1.7705078-2.9316406l1.5175781.6191406c-.5336914,1.015625-1.0957031,1.7207031-1.5458984,2.3125h3.7382812v1.5507812h-6.5488281v2.5664062h5.621582v1.4941406h-5.621582v2.6796875h6.3242188v1.4941406h-6.3242188v.7333984c.421875,1.3818359,1.1245117,2.6503906,1.7988281,3.7216797,1.9956055-1.5507812,3.2041016-3.4394531,3.2041016-3.4394531l1.3491211.9580078s-1.6860352,2.2275391-3.6816406,3.7226562c2.0517578,2.7070312,4.5532227,3.9472656,4.5532227,3.9472656l-.8994141,1.5224609Z"/>
      <path class="cls-2" d="m498.9321289,183.6611328c-3.1757812.5634766-6.6333008.9589844-10.1748047.9589844-7.0546875,0-11.6357422-2.1152344-11.6357422-6.6269531,0-2.3964844,1.9389648-5.1318359,4.159668-6.9082031h2.5576172c-2.5576172,1.6914062-4.8061523,4.5966797-4.8061523,6.7958984,0,3.4960938,4.0751953,4.9628906,9.668457,4.9628906,3.6259766,0,6.9707031-.4511719,10.230957-1.0722656v1.8896484Zm-19.730957-17.9619141v-1.8046875h18.2695312v1.8046875h-18.2695312Z"/>
      <path class="cls-2" d="m512.5693359,166.9677734c-1.1240234,6.2597656-2.6137695,11.8994141-4.890625,17.9902344h-2.0517578c2.4174805-5.7519531,4.0195312-11.7587891,5.1435547-17.9902344h-4.8623047v-1.6923828h5.1435547c.1967773-1.296875.3935547-2.59375.5620117-3.890625h1.8833008c-.1967773,1.3251953-.3935547,2.6220703-.6186523,3.890625h14.222168v1.6923828h-14.53125Zm16.6391602,17.2861328c-2.2202148.4511719-5.0874023.8457031-8.0102539.8457031-5.03125,0-7.8139648-1.7480469-7.8139648-4.6816406,0-1.8886719,1.3491211-3.609375,2.3330078-4.765625h2.1640625c-1.0957031,1.015625-2.7543945,2.9335938-2.7543945,4.6533203,0,2.0019531,2.3330078,3.1015625,6.0991211,3.1015625,2.8950195,0,5.762207-.4511719,7.9824219-1.0146484v1.8613281Zm-14.0532227-11.9287109v-1.6630859h13.3227539v1.6630859h-13.3227539Zm9.0786133-8.1494141v-4.2011719h1.4052734v4.2011719h-1.4052734Zm3.0351562,0v-4.2011719h1.4052734v4.2011719h-1.4052734Z"/>
      <path class="cls-2" d="m548.9155273,183.3222656c3.7099609-.3945312,8.7128906-2.6503906,8.7128906-9.5585938,0-4.2011719-2.2485352-7.6132812-7.2231445-7.6132812-3.4853516,0-6.2680664,2.2558594-7.9541016,4.8779297v14.7470703h-1.7709961v-11.5605469c-1.3208008,2.3691406-3.5131836,5.6113281-5.3964844,7.8955078v-2.6220703c1.5742188-1.9462891,3.7382812-5.1044922,5.3964844-8.375v-2.1435547h-5.2841797v-1.7197266h5.2841797v-5.8935547h1.7709961v7.3310547c1.3769531-1.8320312,4.159668-4.2578125,8.0947266-4.2578125,6.1269531,0,8.909668,4.4550781,8.909668,9.3339844,0,8.2617188-5.8461914,10.7148438-10.5400391,11.2509766v-1.6923828Z"/>
      <path class="cls-2" d="m571.1806641,183.8583984c8.2631836-.1689453,13.3505859-3.1865234,13.3505859-11.2792969,0-4.0039062-1.4897461-8.7128906-6.1552734-8.7128906-5.1435547,0-8.2631836,7.1337891-9.1625977,13.8173828h-1.6582031c.0839844-4.484375.2529297-10.6035156.5058594-15.2275391h1.8549805c-.2250977,2.0302734-.449707,6.8242188-.6186523,9.3330078.7026367-3.1015625,3.5136719-9.6152344,9.2192383-9.6152344,5.059082,0,7.8696289,4.3994141,7.8696289,10.4052734,0,9.0234375-5.5649414,12.9150391-15.2055664,13.0283203v-1.7490234Z"/>
      <path class="cls-2" d="m606.8808594,183.4638672c4.609375-.5634766,9.5-3.3837891,9.5-10.2363281,0-5.3574219-3.5131836-8.4306641-8.628418-8.7695312-.6186523,5.3017578-1.9956055,12.2666016-3.8227539,15.8193359-1.3208008,2.7636719-2.7827148,3.4121094-4.2158203,3.4121094-2.3330078,0-5.340332-2.8476562-5.340332-8.3183594,0-6.9648438,5.0874023-12.6054688,12.6757812-12.6054688,6.6894531,0,11.1586914,4.0048828,11.1586914,10.4902344,0,8.0078125-5.6777344,11.3925781-11.3271484,11.9560547v-1.7480469Zm-10.7929688-8.0927734c0,4.3144531,2.1923828,6.5136719,3.5698242,6.5136719.9272461,0,1.9111328-.3671875,3.1474609-3.2431641,1.4057617-3.2431641,2.6982422-9.7568359,3.1484375-14.1835938-6.1274414.4228516-9.8657227,5.3291016-9.8657227,10.9130859Z"/>
      <path class="cls-2" d="m16.9838867,232.2353516c-3.0073242-4.4550781-7.0546875-9.8134766-10.4838867-13.7041016h2.5014648c1.4052734,1.7197266,3.0917969,3.8349609,4.7783203,6.0058594,4.7783203-2.5664062,8.6289062-6.6826172,10.3710938-12.4072266H2.4248047v-1.7763672h24.1435547l-.0283203.140625c-1.5458984,7.8115234-6.2397461,12.5205078-11.6640625,15.5097656,1.6298828,2.1142578,3.2319336,4.3144531,4.5249023,6.2314453h-2.4169922Z"/>
      <path class="cls-2" d="m42.2802734,233.0253906v-14.6074219c-3.4853516,2.2285156-7.6450195,3.8916016-12.6762695,5.1328125v-1.8613281c9.7250977-2.3408203,16.1054688-7.1621094,19.84375-12.8583984h2.4448242c-2.1640625,3.2705078-4.637207,6.0058594-7.6450195,8.2333984v15.9609375h-1.9672852Z"/>
      <path class="cls-2" d="m58.2446289,228.9082031c2.5014648-2.3691406,4.2163086-7.1064453,4.6938477-11.8154297h1.8549805c-.7026367,5.5830078-2.4453125,10.9404297-6.5488281,14.1279297v-2.3125Zm11.1586914,3.890625v-18.46875h-10.5683594v-1.7207031h10.5683594v-4.2861328h1.8828125v4.2861328h10.7089844v1.7207031h-10.7089844v18.46875h-1.8828125Zm13.1538086-1.5507812c-4.1318359-3.2148438-5.9023438-8.5722656-6.6049805-14.1552734h1.8549805c.4775391,4.7089844,2.2202148,9.4462891,4.75,11.8154297v2.3398438Z"/>
      <path class="cls-2" d="m88.1499023,220.1660156v-1.7753906h23.5810547v1.7753906h-23.5810547Z"/>
      <path class="cls-2" d="m113.8393555,231.7275391v-1.7480469c3.0639648-5.9775391,6.0991211-13.5351562,8.0107422-20.5849609h2.0234375c-2.4731445,8.7128906-5.3681641,15.0292969-8.0385742,20.6132812h19.3657227c-1.3212891-3.7792969-3.9912109-8.7978516-6.2680664-12.3789062h2.1645508c2.2763672,3.75,4.918457,8.7978516,6.8295898,14.1269531l-24.0874023-.0283203Z"/>
      <path class="cls-2" d="m155.6616211,230.4589844c4.609375-.5644531,9.5-3.3837891,9.5-10.2363281,0-5.3574219-3.5131836-8.4316406-8.6289062-8.7695312-.6181641,5.3007812-1.9951172,12.2666016-3.8222656,15.8193359-1.3208008,2.7636719-2.7827148,3.4121094-4.2158203,3.4121094-2.3330078,0-5.340332-2.8486328-5.340332-8.3183594,0-6.9658203,5.0874023-12.6044922,12.6757812-12.6044922,6.6894531,0,11.1586914,4.0039062,11.1586914,10.4892578,0,8.0087891-5.6777344,11.3916016-11.3271484,11.9560547v-1.7480469Zm-10.7929688-8.0927734c0,4.3134766,2.1923828,6.5136719,3.5693359,6.5136719.9277344,0,1.9116211-.3662109,3.1484375-3.2431641,1.4052734-3.2421875,2.6982422-9.7558594,3.1474609-14.1835938-6.1269531.4228516-9.8652344,5.3300781-9.8652344,10.9130859Z"/>
      <path class="cls-2" d="m172.8066406,230.5429688c1.5737305-1.9453125,4.3847656-5.3574219,4.3847656-14.9443359v-6.1757812h1.8266602v6.2314453c0,10.4902344-3.3164062,14.6640625-6.2114258,17.2011719v-2.3125Zm11.1865234-21.1484375h1.7988281v20.5283203c5.7055664-1.6630859,8.7128906-6.4013672,9.668457-13.6474609h1.8271484c-1.0961914,9.1074219-5.059082,14.4091797-13.2944336,15.9599609v-22.8408203Z"/>
      <path class="cls-2" d="m202.3745117,220.1660156v-1.7753906h23.5810547v1.7753906h-23.5810547Z"/>
      <path class="cls-2" d="m228.0639648,231.7275391v-1.7480469c3.0639648-5.9775391,6.0991211-13.5351562,8.0107422-20.5849609h2.0234375c-2.4731445,8.7128906-5.3681641,15.0292969-8.0385742,20.6132812h19.3657227c-1.3212891-3.7792969-3.9912109-8.7978516-6.2680664-12.3789062h2.1645508c2.2763672,3.75,4.918457,8.7978516,6.8295898,14.1269531l-24.0874023-.0283203Z"/>
      <path class="cls-2" d="m257.3510742,220.7871094c-.730957-3.5253906-1.8833008-7.2470703-3.3447266-10.7441406h1.9956055c1.4052734,3.4970703,2.5576172,7.1914062,3.3447266,10.7441406h-1.9956055Zm2.3608398,9.7285156c11.5800781-2.3408203,15.4306641-10.5185547,15.6552734-20.8671875v-.140625h2.0239258v.1689453c-.3935547,11.5888672-4.8344727,20.1337891-17.6791992,22.7275391v-1.8886719Zm6.2675781-10.2080078c-.7304688-3.609375-1.6860352-6.9091797-3.1196289-10.6875h1.9956055c1.3491211,3.5537109,2.2763672,6.9365234,3.0917969,10.6875h-1.9677734Z"/>
      <path class="cls-2" d="m284.0522461,230.5722656c5.3681641-2.2851562,8.2631836-5.7529297,8.2631836-13.3945312v-2.1992188h1.8271484v2.2832031c0,1.5800781-.140625,3.0458984-.3935547,4.3710938,5.5649414-1.15625,8.909668-4.3710938,9.7250977-9.8974609h-20.4057617v-1.7763672h22.5415039v.28125c-.5336914,8.1210938-5.5087891,12.1259766-12.3388672,13.28125-1.4331055,4.484375-4.609375,7.2753906-9.21875,8.9394531v-1.8886719Z"/>
      <path class="cls-2" d="m310.9785156,220.1660156v-1.7753906h23.581543v1.7753906h-23.581543Z"/>
      <path class="cls-2" d="m353.3632812,230.515625c-3.3447266.5917969-7.1674805,1.2402344-13.2382812,1.4658203l-.3935547-1.6630859c2.1640625,0,4.328125-.0849609,6.2675781-.3105469v-2.59375h-5.5932617v-1.3828125h5.5932617v-2.2832031h-5.2275391v-8.09375h5.2275391v-1.9169922h-6.3520508v-1.4658203h6.3520508v-2.0019531c-1.4614258.0839844-3.1196289.1679688-4.9746094.1679688l-.4780273-1.5214844h1.0400391c7.5888672,0,10.7646484-1.15625,10.7646484-1.15625l1.012207,1.4091797s-1.8833008.5927734-5.6777344.9589844v2.1435547h6.1552734v1.4658203h-6.1552734v1.9169922h5.2280273v8.09375h-5.2280273v2.2832031h5.5649414v1.3828125h-5.5649414v2.453125c3.2324219-.3388672,5.6777344-.9023438,5.6777344-.9023438v1.5507812Zm-7.3642578-13.5078125h-3.5415039v2.0585938h3.5415039v-2.0585938Zm0,3.2714844h-3.5415039v2.1152344h3.5415039v-2.1152344Zm5.2280273-3.2714844h-3.5415039v2.0585938h3.5415039v-2.0585938Zm0,3.2714844h-3.5415039v2.1152344h3.5415039v-2.1152344Zm6.2958984,10.7714844h.8149414c3.7099609,0,3.8227539-.3105469,3.8227539-10.1230469v-5.8369141h-3.1762695c-.1123047,7.6699219-1.0961914,13.0556641-4.777832,18.0185547l-1.152832-1.5224609c3.1762695-4.2294922,4.1318359-9.0234375,4.2441406-16.4960938h-2.7543945v-1.5507812h2.7827148v-5.8095703h1.6865234v5.8095703h4.8339844v5.6113281c0,12.9990234-.2529297,13.6474609-5.6494141,13.6474609l-.6743164-1.7480469Z"/>
      <path class="cls-2" d="m374.4145508,227.7519531v-14.3808594h6.5205078v-2.8769531h-10.9052734v-1.6347656h23.5253906v1.6347656h-10.9335938v2.8769531h6.6333008v14.3808594h-14.840332Zm17.2856445,5.3574219v-1.8330078h-19.730957v1.8330078h-1.6865234v-17.9335938h1.6865234v14.4648438h19.730957v-14.4648438h1.6860352v17.9335938h-1.6860352Zm-10.7651367-18.1035156h-4.8339844v4.625h4.8339844v-4.625Zm0,6.1474609h-4.8339844v4.9628906h4.8339844v-4.9628906Zm6.6333008-6.1474609h-4.9467773v4.625h4.9467773v-4.625Zm0,6.1474609h-4.9467773v4.9628906h4.9467773v-4.9628906Z"/>
      <path class="cls-2" d="m408.8168945,232.9960938c-1.3208008-5.0751953-3.1479492-10.96875-5.059082-16.7773438-1.8833008.6484375-3.5976562,1.296875-5.0029297,1.8613281v-1.8896484c1.2929688-.4794922,2.8105469-1.0146484,4.46875-1.5507812-.6181641-1.8046875-1.2084961-3.609375-1.7988281-5.3857422h1.8549805c.4780273,1.4667969,1.0400391,3.1015625,1.6020508,4.8779297,1.9677734-.5917969,4.0195312-1.1279297,6.0151367-1.5224609-.7871094-1.4375-1.6020508-2.8759766-2.3613281-4.0039062h1.9394531c.730957,1.0712891,1.4619141,2.3964844,2.1645508,3.7216797,1.0395508-.140625,2.0517578-.2255859,2.9790039-.2255859,5.9023438,0,8.1508789,3.5527344,8.1508789,6.7675781,0,5.4707031-5.0029297,7.7548828-10.8769531,8.0087891v-1.6923828c4.440918-.1123047,9.050293-1.8613281,9.050293-6.2880859,0-2.3408203-1.7426758-5.1318359-6.3803711-5.1318359-.7026367,0-1.4335938.0566406-2.1923828.140625.871582,1.7480469,1.7709961,3.6660156,2.3330078,5.1601562h-1.9394531c-.5341797-1.6074219-1.2929688-3.3271484-2.1079102-4.90625-2.0517578.3378906-4.2158203.9023438-6.2680664,1.5234375,1.9394531,5.8925781,4.1040039,12.6884766,5.4248047,17.3125h-1.9956055Z"/>
      <path class="cls-2" d="m429.2485352,232.828125c-1.3212891-1.8046875-2.9794922-3.8925781-5.1435547-5.921875h2.4453125c1.7426758,1.6630859,3.4291992,3.7216797,5.1435547,5.9492188l-2.4453125-.0273438Z"/>
      <path class="cls-2" d="m468.2021484,232.2353516c-3.0073242-4.4550781-7.0546875-9.8134766-10.4838867-13.7041016h2.5014648c1.4052734,1.7197266,3.0917969,3.8349609,4.7783203,6.0058594,4.777832-2.5664062,8.6289062-6.6826172,10.3710938-12.4072266h-21.7260742v-1.7763672h24.1435547l-.0283203.140625c-1.5458984,7.8115234-6.2397461,12.5205078-11.6640625,15.5097656,1.6298828,2.1142578,3.2324219,4.3144531,4.5249023,6.2314453h-2.4169922Z"/>
      <path class="cls-2" d="m493.4985352,233.0253906v-14.6074219c-3.4853516,2.2285156-7.6450195,3.8916016-12.6762695,5.1328125v-1.8613281c9.7250977-2.3408203,16.1054688-7.1621094,19.8432617-12.8583984h2.4453125c-2.1640625,3.2705078-4.637207,6.0058594-7.6450195,8.2333984v15.9609375h-1.9672852Z"/>
      <path class="cls-2" d="m509.4628906,228.9082031c2.5014648-2.3691406,4.2163086-7.1064453,4.6938477-11.8154297h1.8549805c-.7026367,5.5830078-2.4453125,10.9404297-6.5488281,14.1279297v-2.3125Zm11.1586914,3.890625v-18.46875h-10.5683594v-1.7207031h10.5683594v-4.2861328h1.8828125v4.2861328h10.7089844v1.7207031h-10.7089844v18.46875h-1.8828125Zm13.1538086-1.5507812c-4.1318359-3.2148438-5.9023438-8.5722656-6.6049805-14.1552734h1.8549805c.4775391,4.7089844,2.2202148,9.4462891,4.75,11.8154297v2.3398438Z"/>
      <path class="cls-2" d="m539.3686523,220.1660156v-1.7753906h23.5810547v1.7753906h-23.5810547Z"/>
      <path class="cls-2" d="m565.0576172,231.7275391v-1.7480469c3.0639648-5.9775391,6.0991211-13.5351562,8.0107422-20.5849609h2.0234375c-2.4731445,8.7128906-5.3681641,15.0292969-8.0385742,20.6132812h19.3657227c-1.3212891-3.7792969-3.9912109-8.7978516-6.2680664-12.3789062h2.1645508c2.2763672,3.75,4.918457,8.7978516,6.8295898,14.1269531l-24.0874023-.0283203Z"/>
      <path class="cls-2" d="m611.0400391,232.2353516c-.7026367,0-2.3325195-.1972656-2.3325195-2.2275391v-7.2470703h-5.5371094c-.6186523,6.5419922-3.4291992,8.7138672-8.4321289,10.3486328l-1.0961914-1.6640625c5.2841797-1.3242188,7.3920898-3.5800781,7.7573242-8.6845703h-6.2114258v-1.6923828h22.1762695v1.6923828h-6.8862305v6.5419922c0,.8457031.2250977,1.2402344,1.2929688,1.2402344h3.1196289c1.012207,0,1.8271484-.7050781,2.2768555-4.4267578l1.7426758.8740234c-1.0961914,4.5966797-1.6865234,5.2451172-3.6821289,5.2451172h-4.1879883Zm5.3964844-16.7783203v-3.4960938h-20.2929688v3.5244141h-1.6865234v-5.1601562h10.9897461v-2.5947266h1.6865234v2.5947266h10.9897461v5.1318359h-1.6865234Zm-18.409668,1.8613281v-1.6914062h16.5830078v1.6914062h-16.5830078Z"/>
      <path class="cls-2" d="m26.9619141,274.8027344c-1.2084961,3.609375-2.6142578,4.765625-3.9067383,4.765625-1.2929688,0-3.1484375-1.1835938-4.6938477-5.2441406-2.2485352,2.4248047-4.4692383,4.3710938-5.7060547,5.1601562l-1.2924805-1.4667969c1.2646484-.8173828,3.737793-2.59375,6.2392578-5.3857422-.8710938-2.5380859-1.7421875-6.1748047-2.1923828-11.2509766H5.7973633v3.8632812h7.4765625v3.6376953c0,4.5673828-.0283203,6.6826172-5.3686523,6.7958984l-.7026367-1.6923828h.3657227c4.5810547,0,3.9067383-1.5507812,4.019043-4.2861328v-2.7636719h-5.7900391c-.027832,4.3144531-.3935547,9.7011719-2.7827148,13.1689453l-1.2924805-1.6357422c2.3046875-3.1015625,2.3886719-9.3046875,2.3886719-13.7041016v-5.0751953h11.1865234c-.1123047-1.5234375-.140625-3.1865234-.140625-4.9628906h1.6865234c0,1.7763672.0844727,3.4394531.140625,4.9628906h9.359375v1.6914062h-9.21875c.4775391,5.1035156,1.1240234,7.6699219,1.8266602,9.9257812,1.5742188-2.0019531,3.0078125-4.4550781,3.6821289-7.2470703l1.5742188.9023438c-1.2368164,3.3271484-2.6982422,5.8369141-4.5537109,8.0927734.8432617,2.3974609,2.3051758,4.6533203,3.3168945,4.6533203.8149414,0,1.6865234-1.2128906,2.6420898-4.6533203l1.3491211,1.7480469Zm-4.1318359-15.6210938s-1.7705078-1.8613281-3.6538086-3.1015625l1.0961914-1.2128906c1.6298828,1.1279297,3.7382812,3.0175781,3.7382812,3.0175781l-1.1806641,1.296875Z"/>
      <path class="cls-2" d="m54.7573242,276.8339844c-1.7426758-1.2412109-5.03125-3.5527344-8.909668-4.9628906v.7607422c0,5.3857422-2.9794922,7.078125-7.1391602,7.078125-4.4692383,0-6.7456055-2.3681641-6.7456055-5.3291016,0-2.8769531,2.4731445-5.3867188,7.5605469-5.3867188,1.5458984,0,3.0639648.2265625,4.4970703.5644531v-3.8066406h-12.0014648v-1.5507812h12.0014648v-4.1171875h-12.0014648v-1.6074219h12.0014648v-3.1298828h1.8271484v3.1298828h8.5161133v1.6074219h-8.5161133v4.1171875h8.5161133v1.578125h-8.5161133v4.3144531c4.2158203,1.3828125,7.5327148,3.7509766,8.909668,4.6533203v2.0869141Zm-10.7368164-5.5556641c-1.4897461-.4228516-3.0356445-.6767578-4.609375-.6767578-3.9628906,0-5.7338867,1.7773438-5.7338867,3.7792969,0,2.1708984,1.9956055,3.6650391,5.0029297,3.6650391,3.5698242,0,5.340332-1.5791016,5.340332-5.5830078v-1.1845703Z"/>
      <path class="cls-2" d="m78.1967773,279.0332031c-8.1791992,0-14.081543-2.8203125-14.081543-9.4746094,0-4.2578125,3.2602539-8.0644531,8.4882812-10.3203125l-14.6435547.4785156v-1.7753906l23.0751953-.5927734v1.7480469l-3.3442383.0849609c-6.3803711,1.2128906-11.6923828,5.3291016-11.6923828,10.2636719,0,5.8085938,5.6210938,7.7832031,12.4511719,7.7832031v1.8046875h-.2529297Zm-2.2485352-12.8867188v-4.625h1.4331055v4.625h-1.4331055Zm3.0634766,0v-4.625h1.4052734v4.625h-1.4052734Z"/>
      <path class="cls-2" d="m98.8808594,277.4541016c4.609375-.5634766,9.5-3.3837891,9.5-10.2363281,0-5.3574219-3.5131836-8.4306641-8.628418-8.7695312-.6186523,5.3017578-1.9956055,12.2666016-3.8227539,15.8193359-1.3208008,2.7636719-2.7827148,3.4121094-4.2158203,3.4121094-2.3330078,0-5.340332-2.8476562-5.340332-8.3183594,0-6.9648438,5.0874023-12.6054688,12.6757812-12.6054688,6.6894531,0,11.1586914,4.0048828,11.1586914,10.4902344,0,8.0078125-5.6777344,11.3925781-11.3271484,11.9560547v-1.7480469Zm-10.7929688-8.0927734c0,4.3144531,2.1923828,6.5136719,3.5698242,6.5136719.9272461,0,1.9111328-.3671875,3.1474609-3.2431641,1.4057617-3.2431641,2.6982422-9.7568359,3.1484375-14.1835938-6.1274414.4228516-9.8657227,5.3291016-9.8657227,10.9130859Z"/>
      <path class="cls-2" d="m118.8344727,265.7236328c-1.6303711-1.4658203-4.3847656-3.1865234-4.3847656-3.1865234l.8994141-1.3818359s2.6420898,1.6074219,4.4692383,3.1865234l-.9838867,1.3818359Zm-4.3847656,12.2099609c3.0356445-3.9199219,5.0874023-9.1933594,5.0874023-9.1933594l1.2929688,1.1289062s-1.9956055,5.1318359-5.03125,9.3330078l-1.3491211-1.2685547Zm5.480957-18.4414062c-2.0517578-1.9462891-4.440918-3.3554688-4.440918-3.3554688l.8994141-1.4101562s2.4453125,1.4941406,4.5532227,3.5244141l-1.0117188,1.2412109Zm-.309082,19.0898438c4.890625-2.453125,5.2558594-7.1904297,5.2558594-10.7714844h1.6582031c0,4.1728516-.730957,9.3330078-5.7338867,12.2089844l-1.1801758-1.4375Zm18.0722656-11.3642578s-.5898438-.8740234-1.0678711-1.5791016c-3.9350586.7050781-7.7856445,1.1279297-14.5029297,1.2128906l-.1689453-1.6914062h1.3212891c.4213867,0,.8710938,0,1.2084961-.0292969,1.0678711-1.4658203,2.5297852-3.890625,3.2602539-6.0341797h-5.5087891v-1.6357422h7.2231445v-2.734375h1.6865234v2.734375h7.5327148v1.6357422h-8.9658203c-1.0961914,2.5380859-2.3891602,4.7373047-3.2045898,5.9785156,2.7827148-.0566406,6.4648438-.2539062,9.0786133-.8466797-.7026367-.9296875-1.5175781-1.9169922-2.3608398-2.734375l1.2929688-.9306641c2.2763672,2.4248047,4.5810547,5.6396484,4.5810547,5.6396484l-1.4052734,1.0146484Zm-8.5161133,12.6328125v-12.0400391h1.6865234v12.0400391h-1.6865234Zm6.5488281-.3945312c-1.7709961,0-2.0517578-.6767578-2.0517578-2.5654297v-9.0527344h1.6865234v8.5166016c0,1.4091797.1123047,1.4091797.8149414,1.4091797h.6743164c.730957,0,1.012207-.8730469,1.1806641-4.1445312l1.7143555.7617188c-.449707,3.890625-.7587891,5.0751953-2.4731445,5.0751953h-1.5458984Z"/>
      <path class="cls-2" d="m169.2836914,277.1152344c-1.1240234.6777344-2.5859375,1.2695312-3.9067383,1.2695312-1.6865234,0-3.1201172-.7333984-3.1201172-3.7226562v-11.2792969c0-2.0019531-.5058594-3.8066406-3.0073242-3.8066406-3.1479492,0-6.6611328,4.2011719-8.1508789,6.5986328v13.6474609h-1.7988281v-10.9121094c-1.3491211,2.3681641-3.5693359,5.5263672-5.5087891,7.8105469v-2.6503906c1.6020508-1.9746094,3.7944336-5.0195312,5.5087891-8.2617188v-2.8203125h-5.5087891v-1.6914062h5.5087891v-5.8945312h1.7988281v8.09375c1.2929688-1.6074219,4.4970703-5.7246094,8.3759766-5.7246094,3.4008789,0,4.637207,2.3964844,4.637207,5.1884766v11.4765625c0,1.6640625.4501953,2.1152344,1.5742188,2.1152344s2.4169922-.7050781,3.5976562-1.6357422v2.1992188Z"/>
      <path class="cls-2" d="m177.1513672,279.8222656c-1.3208008-1.8046875-2.9794922-3.890625-5.1435547-5.921875h2.4453125c1.7426758,1.6640625,3.4291992,3.7226562,5.1435547,5.9501953l-2.4453125-.0283203Z"/>
      <path class="cls-2" d="m209.4155273,273.5341797s-3.7944336,1.8046875-8.1225586,2.9892578l-.421875-1.6914062c1.8549805-.4804688,3.5976562-1.0722656,3.5976562-1.0722656v-9.7851562h-3.3725586v-1.6347656h3.3725586v-6.7958984h1.6865234v6.7958984h3.0634766v1.6347656h-3.0634766v9.1933594c1.8549805-.6767578,3.2602539-1.3535156,3.2602539-1.3535156v1.7197266Zm5.3686523,5.4140625c-.3657227,0-2.2768555-.1689453-2.2768555-2.2558594v-12.7451172l-2.4169922.4228516v-1.7197266l2.4169922-.4238281v-5.6953125h1.7426758v5.3857422l3.2324219-.6494141v-6.5693359h1.7421875v6.2597656l5.3125-1.0439453v9.0800781c0,1.6357422-1.3212891,2.3125-3.5415039,2.3125l-.6748047-1.7480469h.3095703c1.7988281,0,2.1640625-.0283203,2.1640625-.9873047v-6.6826172l-3.5698242.7324219v10.0673828h-1.7421875v-9.7285156l-3.2324219.6767578v12.4355469c0,1.015625.6464844,1.1845703,1.3491211,1.1845703h5.8461914c2.0795898,0,2.7260742-.2255859,2.9511719-4.5683594l1.7426758,1.0996094c-.3652344,5.1318359-2.1923828,5.1601562-3.6538086,5.1601562h-7.7011719Z"/>
      <path class="cls-2" d="m237.3515625,273.8164062s-3.4008789,1.8330078-7.2514648,2.9892578l-.421875-1.7490234c1.0961914-.3095703,2.1640625-.6757812,3.1201172-1.0146484v-10.0673828h-2.8950195v-1.6914062h2.8950195v-6.7392578h1.6860352v6.7392578h2.6704102v1.6914062h-2.6704102v9.390625c1.7426758-.7050781,2.8671875-1.3251953,2.8671875-1.3251953v1.7763672Zm8.3193359.0566406s-3.4570312,1.8886719-8.4321289,3.0175781l-.5336914-1.6923828c5.2558594-.9023438,8.909668-3.0175781,8.909668-3.0175781l.0561523,1.6923828Zm9.2470703,1.296875c-.6464844,3.4404297-1.7143555,4.90625-2.8105469,4.90625-.9555664,0-1.9394531-1.0429688-2.7543945-2.8476562-.449707-.9873047-.5620117-1.6357422-.7871094-2.3125-2.6982422,3.2988281-6.0708008,5.1601562-6.0708008,5.1601562l-1.1806641-1.4941406s3.6821289-1.4101562,6.8017578-5.2734375c-.5620117-2.5664062-.9838867-6.7109375-1.2084961-12.1816406h-9.949707v-1.6914062h9.9213867c0-1.4384766-.027832-2.9892578-.027832-4.7089844h1.7143555c0,1.6914062.0283203,3.2421875.0283203,4.7089844h6.0991211v1.6914062h-6.0991211c.0839844,4.7373047.3935547,8.234375.7587891,10.7441406,1.3491211-2.1435547,2.3046875-4.7089844,2.8105469-7.6982422l1.6020508.6767578c-.8149414,3.46875-2.3608398,6.8798828-3.9912109,8.8828125.112793.4785156,1.2084961,4.2851562,2.1362305,4.2851562.5341797,0,1.0400391-1.1835938,1.6020508-4.5683594l1.4052734,1.7207031Zm-16.4140625-4.0322266v-7.8115234h6.6333008v7.8115234h-6.6333008Zm4.9467773-6.1757812h-3.2607422v4.5400391h3.2607422v-4.5400391Zm9.1625977-6.0341797s-1.1240234-1.8046875-2.3330078-2.9892578l1.4057617-.9580078c1.2084961,1.1269531,2.3325195,2.9882812,2.3325195,2.9882812l-1.4052734.9589844Z"/>
      <path class="cls-2" d="m258.4848633,267.9228516c.6464844-2.4814453.8149414-8.4599609.8149414-8.4599609l1.5180664.0566406s-.1123047,6.1191406-.8154297,8.9960938l-1.5175781-.5927734Zm3.5131836,12.1816406v-25.3779297h1.6865234v25.3779297h-1.6865234Zm3.7382812-14.3808594c-.3935547-2.7353516-1.3491211-5.7802734-1.3491211-5.7802734l1.3774414-.5927734s.9838867,2.7353516,1.5175781,5.7246094l-1.5458984.6484375Zm1.9677734-.5927734v-1.4658203h7.1391602v-2.3974609h-5.902832v-1.4091797h5.902832v-2.0869141h-6.6894531v-1.4667969h6.6894531v-1.578125h1.6298828v1.578125h6.6611328v1.4667969h-6.6611328v2.0869141h5.9868164v1.4091797h-5.9868164v2.3974609h7.3076172v1.4658203h-16.0766602Zm13.2099609,10.4619141h-10.3994141v4.5117188h-1.6303711v-12.9716797h13.6601562v9.8417969c0,2.5380859-.8432617,3.0449219-5.0874023,3.0449219l-.6748047-1.578125c4.1318359,0,4.1318359-.1416016,4.1318359-1.3535156v-1.4951172Zm0-6.9365234h-10.3994141v2.0019531h10.3994141v-2.0019531Zm0,3.4394531h-10.3994141v2.0585938h10.3994141v-2.0585938Z"/>
      <path class="cls-2" d="m293.1381836,280.1044922v-5.1318359h-5.03125v-1.5234375h5.03125v-3.9472656h-5.6494141v-1.5224609h3.4008789c-.5058594-1.8046875-1.0117188-3.4404297-1.2646484-4.3710938h-2.3330078v-1.5224609h5.7617188v-3.3837891h-4.75v-1.5224609h4.75v-2.453125h1.6865234v2.453125h4.440918v1.5224609h-4.440918v3.3837891h5.4526367v1.5224609h-1.9956055c-.2246094.9873047-.8432617,2.6787109-1.4892578,4.3710938h3.4570312v1.5224609h-5.340332v3.9472656h4.8061523v1.5234375h-4.8061523v5.1318359h-1.6865234Zm2.1079102-12.125c.590332-1.5224609,1.0400391-3.2431641,1.2929688-4.3710938h-5.2841797c.28125,1.1279297.7026367,2.9609375,1.0961914,4.3710938h2.8950195Zm16.1054688,12.125c-1.2929688-1.1279297-2.2485352-2.5097656-3.1762695-3.9189453-.9838867,1.4658203-2.0517578,2.8476562-3.5415039,3.9189453l-1.0400391-1.4941406c1.5742188-1.0712891,2.7827148-2.2001953,3.6538086-3.5244141-1.9951172-3.3564453-2.4731445-5.7246094-3.2041016-7.7832031h-1.0678711v12.8017578h-1.6865234v-24.2783203h10.2026367v2.1992188c0,4.7373047-.1962891,5.8369141-5.3120117,5.8369141l-.5620117-1.6923828q4.1879883,0,4.1879883-3.2705078v-1.4384766h-6.8300781v8.2060547h8.6850586c-.1967773,2.8193359-.449707,6.2607422-2.4453125,9.4746094.9272461,1.4384766,1.9956055,2.5664062,3.3164062,3.6376953l-1.1801758,1.3251953Zm-5.5932617-12.8017578c.4213867,1.7197266,1.2084961,4.3710938,2.5014648,6.7392578,1.4331055-2.8193359,1.5458984-5.0478516,1.6582031-6.7392578h-4.159668Z"/>
      <path class="cls-2" d="m315.9584961,276.6367188c2.7543945-5.1328125,4.6938477-10.6308594,5.9589844-15.6503906h-4.75v-1.6357422h5.1430664c.3095703-1.3818359.5625-2.7353516.7592773-4.0039062h1.8549805c-.2250977,1.3818359-.4780273,2.7070312-.7871094,4.0039062h6.2675781v1.6357422h-6.6611328c-1.4614258,5.8369141-3.5131836,11.0253906-5.6494141,15.6503906h-2.1362305Zm25.4086914-.3671875c-1.0961914-.9023438-2.6704102-2.1992188-4.581543-3.2988281v.4511719c0,4.7373047-3.0634766,6.5136719-6.9423828,6.5136719-4.2441406,0-6.8579102-2.0585938-6.8579102-5.1328125,0-3.2138672,2.8105469-5.3847656,6.9423828-5.3847656,1.8833008,0,3.5976562.3945312,5.1152344.9296875v-9.3613281h-2.6137695v-1.6357422h8.6005859v1.6357422h-4.2441406v10.0947266c2.2768555,1.0996094,3.8789062,2.4248047,4.581543,2.9326172v2.2558594Zm-6.3242188-4.1738281c-1.5175781-.6484375-3.2319336-1.0996094-5.059082-1.0996094-3.3447266,0-5.340332,1.5800781-5.340332,3.7792969,0,2.2275391,2.1079102,3.5527344,5.1435547,3.5527344,2.8666992,0,5.2558594-1.2695312,5.2558594-5.2451172v-.9873047Z"/>
      <path class="cls-2" d="m368.769043,278.4414062c-2.4736328.4511719-6.3242188.9296875-10.090332.9580078-8.8535156,0-12.1142578-3.1015625-12.1142578-7.1054688,0-4.1738281,3.7382812-6.9658203,9.1630859-8.6289062-.3935547-2.9326172-.9555664-7.6416016-.9555664-7.6416016h1.9672852s.3935547,4.2011719.7587891,7.1337891c3.2041016-.7890625,6.8579102-1.2685547,10.5961914-1.4658203v1.8320312c-10.4838867.4238281-19.6464844,3.1875-19.6464844,8.7138672,0,3.7509766,3.9350586,5.3857422,10.2587891,5.3857422,3.2607422,0,6.8583984-.4511719,10.0625-1.0712891v1.8896484Zm-5.480957-18.4707031v-4.6240234h1.4052734v4.6240234h-1.4052734Zm3.0356445,0v-4.6240234h1.4052734v4.6240234h-1.4052734Z"/>
      <path class="cls-2" d="m377.9575195,280.1044922v-19.2587891h-1.8833008v13.6191406h-1.5175781v-15.2548828h3.4008789v-4.4833984h1.5742188v4.4833984h3.4008789v11.7587891c0,2.6787109-.0844727,3.1582031-2.3330078,3.4960938l-.730957-1.8613281c1.4335938,0,1.5458984-.0273438,1.5458984-1.2685547v-10.4892578h-1.8828125v19.2587891h-1.5742188Zm5.9584961-22.8681641v-1.4951172h14.4750977v1.4951172h-14.4750977Zm12.6479492,22.8681641v-1.5791016h-10.6801758v1.5791016h-1.6865234v-12.6611328h14.0532227v12.6611328h-1.6865234Zm-10.9892578-14.8320312v-5.6679688h11.2988281v5.6679688h-11.2988281Zm4.8623047,3.6650391h-4.5532227v3.2714844h4.5532227v-3.2714844Zm0,4.7099609h-4.5532227v3.3837891h4.5532227v-3.3837891Zm4.75-12.5478516h-7.9262695v2.6777344h7.9262695v-2.6777344Zm1.3769531,7.8378906h-4.4970703v3.2714844h4.4970703v-3.2714844Zm0,4.7099609h-4.4970703v3.3837891h4.4970703v-3.3837891Z"/>
      <path class="cls-2" d="m406.5678711,259.4072266v2.7626953c0,9.6728516-1.0117188,14.2128906-2.6982422,17.9345703l-1.3491211-1.4941406c1.5458984-3.4404297,2.3608398-7.8681641,2.3608398-16.4404297v-4.3984375h10.090332v-3.0449219h1.6865234v3.0449219h10.5400391v1.6357422h-20.6303711Zm19.2529297,20.7255859s-.6743164-1.4667969-1.6860352-3.4960938c-3.8789062,1.0996094-10.2026367,2.1992188-17.3701172,2.734375l-.28125-1.8046875c1.012207,0,2.1645508-.0839844,2.9794922-.2246094.7587891-1.2978516,3.2324219-6.0068359,6.1274414-16.5810547l1.6298828.4794922c-2.3325195,8.7412109-4.4970703,13.6474609-5.6772461,15.9033203,5.0307617-.5068359,9.1064453-1.2402344,11.8608398-2.0302734-1.0400391-1.9736328-2.4731445-4.4833984-4.1879883-6.9365234l1.4052734-.9873047c3.9350586,6.1474609,6.7456055,11.984375,6.7456055,11.984375l-1.5458984.9589844Z"/>
      <path class="cls-2" d="m449.6816406,279.5976562c-4.300293-3.4121094-9.3032227-6.6835938-13.800293-9.7578125-1.6865234-1.1552734-2.8950195-1.7197266-2.8950195-3.1855469,0-1.2412109,1.2363281-2.0869141,3.2880859-3.1582031,4.4130859-2.3125,9.331543-4.6523438,16.1054688-7.5576172v2.0029297c-6.0151367,2.4804688-11.8891602,5.2158203-15.4589844,7.1621094-1.1523438.6201172-1.8549805,1.0996094-1.8549805,1.578125,0,.5361328.6748047.9316406,1.6865234,1.5800781,5.3120117,3.5527344,10.8212891,7.1904297,16.0209961,11.3632812l-3.0917969-.0273438Z"/>
      <path class="cls-2" d="m460.1918945,278.6103516v1.5224609h-1.6298828v-19.2597656h3.9628906c.0283203-1.0146484.0844727-2.1425781.0844727-3.4121094h-4.722168v-1.6347656h13.5473633v1.6347656h-4.2441406v3.4121094h3.8227539v17.7373047h-10.8212891Zm9.2192383-8.1777344h-1.5742188c-1.5458984,0-2.1079102-.5927734-2.1079102-1.9169922v-6.0068359h-1.8271484c-.1401367,4.3144531-.8994141,6.9365234-2.0795898,8.9951172l-1.3212891-1.15625c1.0683594-1.4941406,1.9956055-4.2851562,2.0239258-7.8388672h-2.3330078v10.1513672h9.2192383v-2.2275391Zm0,3.7509766h-9.2192383v2.7910156h9.2192383v-2.7910156Zm-3.6821289-16.7226562h-1.6582031c0,1.2695312,0,2.3125-.0844727,3.4121094h1.7426758v-3.4121094Zm3.6821289,5.0478516h-2.2207031v5.6113281c0,.7333984.1967773.7617188.8994141.7617188h1.3212891v-6.3730469Zm5.7617188,16.6650391c-1.2368164,0-2.2768555-.4511719-2.2768555-2.2275391v-11.6738281h7.1113281v-7.7822266h-7.1953125v-1.6367188h8.8818359v11.0546875h-7.1113281v9.3896484c0,1.15625.28125,1.2412109,1.3491211,1.2412109h2.8950195c1.9394531,0,2.3608398-.3105469,2.7265625-5.6113281l1.6020508.9023438c-.449707,6.1464844-1.9677734,6.34375-4.300293,6.34375h-3.6821289Z"/>
      <path class="cls-2" d="m490.0952148,280.1044922v-16.4677734c-.7587891,1.6640625-1.6582031,2.8769531-2.6699219,4.0605469l-.7587891-1.6347656c3.3725586-3.8632812,5.7333984-9.1367188,6.2675781-11.3359375l1.5175781.5634766c-.4775391,1.4658203-1.2646484,3.5810547-2.6699219,6.1474609v18.6669922h-1.6865234Zm4.1318359-18.6386719v-1.6640625h17.7631836v1.6640625h-17.7631836Zm14.840332,18.6386719v-1.3535156h-11.8330078v1.3535156h-1.6865234v-8.4873047h15.2060547v8.4873047h-1.6865234Zm-13.0136719-14.7470703v-1.6074219h14.222168v1.6074219h-14.222168Zm0,3.890625v-1.6074219h14.222168v1.6074219h-14.222168Zm.140625-11.7871094v-1.6347656h13.940918v1.6347656h-13.940918Zm12.8730469,15.7910156h-11.8330078v3.8359375h11.8330078v-3.8359375Z"/>
      <path class="cls-2" d="m537.4248047,273.5341797v-2.4814453h-8.3198242v9.0517578h-1.8549805v-9.0517578h-8.2915039v2.4814453h-1.7988281v-13.8730469h10.090332v-4.9345703h1.8549805v4.9345703h10.1186523v13.8730469h-1.7988281Zm-10.1748047-12.1533203h-8.2915039v7.9521484h8.2915039v-7.9521484Zm10.1748047,0h-8.3198242v7.9521484h8.3198242v-7.9521484Z"/>
      <path class="cls-2" d="m554.6791992,272.0117188l-.3374023-16.0166016h2.3891602l-.3374023,16.0166016h-1.7143555Zm-.2529297,5.9785156v-3.0742188h2.2202148v3.0742188h-2.2202148Z"/>
    </g>
  </g>
</svg>